G04 EAGLE Gerber RS-274X export*
G75*
%MOMM*%
%FSLAX34Y34*%
%LPD*%
%INSolderpaste Bottom*%
%IPPOS*%
%AMOC8*
5,1,8,0,0,1.08239X$1,22.5*%
G01*
%ADD10R,2.600000X2.600000*%
%ADD11R,0.850000X0.300000*%
%ADD12R,0.950000X0.400000*%
%ADD13R,0.900000X0.800000*%
%ADD14R,0.889000X0.609600*%
%ADD15R,0.609600X0.889000*%


D10*
X178000Y240000D03*
X122000Y240000D03*
D11*
X438150Y327500D03*
X438150Y322500D03*
X438150Y317500D03*
X438150Y312500D03*
D12*
X466900Y337500D03*
X466900Y297500D03*
D11*
X438150Y307500D03*
D13*
X302133Y333248D03*
X302133Y314452D03*
X282067Y323850D03*
X302133Y415798D03*
X302133Y397002D03*
X282067Y406400D03*
X302133Y250698D03*
X302133Y231902D03*
X282067Y241300D03*
D14*
X317500Y316357D03*
X317500Y331343D03*
D15*
X348107Y330200D03*
X363093Y330200D03*
D14*
X317500Y233807D03*
X317500Y248793D03*
D15*
X348107Y247650D03*
X363093Y247650D03*
D14*
X317500Y398907D03*
X317500Y413893D03*
D15*
X348107Y412750D03*
X363093Y412750D03*
X245907Y243600D03*
X260893Y243600D03*
D10*
X178000Y320000D03*
X122000Y320000D03*
D15*
X246507Y323850D03*
X261493Y323850D03*
D10*
X178000Y400000D03*
X122000Y400000D03*
D15*
X246507Y406400D03*
X261493Y406400D03*
M02*
