G04 EAGLE Gerber RS-274X export*
G75*
%MOMM*%
%FSLAX34Y34*%
%LPD*%
%INBottom Copper*%
%IPPOS*%
%AMOC8*
5,1,8,0,0,1.08239X$1,22.5*%
G01*
%ADD10R,2.600000X2.600000*%
%ADD11R,0.850000X0.300000*%
%ADD12R,0.950000X0.400000*%
%ADD13R,0.900000X0.800000*%
%ADD14R,0.889000X0.609600*%
%ADD15R,0.609600X0.889000*%
%ADD16C,0.152400*%
%ADD17C,0.304800*%

G36*
X1220029Y10926D02*
X1220029Y10926D01*
X1220075Y10925D01*
X1226696Y11250D01*
X1226727Y11255D01*
X1226919Y11277D01*
X1239907Y13861D01*
X1239933Y13869D01*
X1239960Y13872D01*
X1240193Y13948D01*
X1252428Y19015D01*
X1252452Y19029D01*
X1252477Y19037D01*
X1252691Y19156D01*
X1263702Y26514D01*
X1263723Y26531D01*
X1263747Y26544D01*
X1263933Y26703D01*
X1273297Y36067D01*
X1273314Y36088D01*
X1273335Y36106D01*
X1273486Y36298D01*
X1280844Y47309D01*
X1280856Y47333D01*
X1280873Y47355D01*
X1280985Y47572D01*
X1286052Y59807D01*
X1286060Y59833D01*
X1286072Y59858D01*
X1286139Y60093D01*
X1286299Y60894D01*
X1286299Y60895D01*
X1286602Y62418D01*
X1286905Y63941D01*
X1287208Y65464D01*
X1287208Y65465D01*
X1287511Y66987D01*
X1287511Y66988D01*
X1287814Y68511D01*
X1288117Y70034D01*
X1288420Y71557D01*
X1288420Y71558D01*
X1288723Y73081D01*
X1288725Y73113D01*
X1288750Y73304D01*
X1289075Y79925D01*
X1289074Y79954D01*
X1289077Y80000D01*
X1289077Y420000D01*
X1289074Y420029D01*
X1289075Y420075D01*
X1288750Y426696D01*
X1288745Y426727D01*
X1288723Y426919D01*
X1286139Y439907D01*
X1286131Y439933D01*
X1286128Y439960D01*
X1286052Y440193D01*
X1280985Y452428D01*
X1280971Y452452D01*
X1280963Y452477D01*
X1280844Y452691D01*
X1273486Y463702D01*
X1273469Y463723D01*
X1273456Y463747D01*
X1273297Y463933D01*
X1263933Y473297D01*
X1263912Y473314D01*
X1263894Y473335D01*
X1263702Y473486D01*
X1252691Y480844D01*
X1252667Y480856D01*
X1252645Y480873D01*
X1252428Y480985D01*
X1240193Y486052D01*
X1240166Y486060D01*
X1240142Y486072D01*
X1239907Y486139D01*
X1226919Y488723D01*
X1226887Y488725D01*
X1226696Y488750D01*
X1220075Y489075D01*
X1220046Y489074D01*
X1220000Y489077D01*
X80000Y489077D01*
X79971Y489074D01*
X79925Y489075D01*
X73304Y488750D01*
X73273Y488745D01*
X73081Y488723D01*
X60093Y486139D01*
X60086Y486137D01*
X60083Y486136D01*
X60067Y486131D01*
X60040Y486128D01*
X59807Y486052D01*
X47572Y480985D01*
X47548Y480971D01*
X47523Y480963D01*
X47309Y480844D01*
X36298Y473486D01*
X36277Y473469D01*
X36253Y473456D01*
X36067Y473297D01*
X26703Y463933D01*
X26686Y463912D01*
X26665Y463894D01*
X26514Y463702D01*
X19156Y452691D01*
X19144Y452667D01*
X19127Y452645D01*
X19015Y452428D01*
X13948Y440193D01*
X13940Y440167D01*
X13928Y440142D01*
X13861Y439907D01*
X13730Y439251D01*
X13427Y437728D01*
X13124Y436205D01*
X13124Y436204D01*
X12821Y434682D01*
X12821Y434681D01*
X12518Y433158D01*
X12215Y431635D01*
X11912Y430112D01*
X11912Y430111D01*
X11610Y428589D01*
X11609Y428588D01*
X11306Y427065D01*
X11277Y426919D01*
X11275Y426887D01*
X11250Y426696D01*
X10925Y420075D01*
X10926Y420046D01*
X10923Y420000D01*
X10923Y80000D01*
X10926Y79971D01*
X10925Y79925D01*
X11250Y73304D01*
X11255Y73273D01*
X11277Y73081D01*
X13861Y60093D01*
X13869Y60067D01*
X13872Y60040D01*
X13948Y59807D01*
X19015Y47572D01*
X19029Y47548D01*
X19037Y47523D01*
X19156Y47309D01*
X26514Y36298D01*
X26531Y36277D01*
X26544Y36253D01*
X26703Y36067D01*
X36067Y26703D01*
X36088Y26686D01*
X36106Y26665D01*
X36298Y26514D01*
X47309Y19156D01*
X47333Y19144D01*
X47355Y19127D01*
X47572Y19015D01*
X59807Y13948D01*
X59834Y13940D01*
X59858Y13928D01*
X60093Y13861D01*
X73081Y11277D01*
X73113Y11275D01*
X73304Y11250D01*
X79925Y10925D01*
X79954Y10926D01*
X80000Y10923D01*
X1220000Y10923D01*
X1220029Y10926D01*
G37*
%LPC*%
G36*
X148226Y188975D02*
X148226Y188975D01*
X145399Y191802D01*
X120762Y216439D01*
X117935Y219266D01*
X117935Y222936D01*
X117932Y222962D01*
X117934Y222988D01*
X117912Y223135D01*
X117895Y223282D01*
X117887Y223307D01*
X117883Y223333D01*
X117828Y223471D01*
X117778Y223610D01*
X117764Y223632D01*
X117754Y223657D01*
X117669Y223778D01*
X117589Y223903D01*
X117570Y223921D01*
X117555Y223943D01*
X117445Y224042D01*
X117338Y224145D01*
X117316Y224159D01*
X117296Y224176D01*
X117166Y224248D01*
X117039Y224324D01*
X117014Y224332D01*
X116991Y224345D01*
X116848Y224385D01*
X116707Y224430D01*
X116681Y224432D01*
X116656Y224440D01*
X116412Y224459D01*
X107948Y224459D01*
X106459Y225948D01*
X106459Y254052D01*
X107948Y255541D01*
X116412Y255541D01*
X116438Y255544D01*
X116464Y255542D01*
X116611Y255564D01*
X116758Y255581D01*
X116783Y255589D01*
X116809Y255593D01*
X116947Y255648D01*
X117086Y255698D01*
X117108Y255712D01*
X117133Y255722D01*
X117254Y255807D01*
X117379Y255887D01*
X117397Y255906D01*
X117419Y255921D01*
X117518Y256031D01*
X117621Y256138D01*
X117635Y256160D01*
X117652Y256180D01*
X117724Y256310D01*
X117800Y256437D01*
X117808Y256462D01*
X117821Y256485D01*
X117861Y256628D01*
X117906Y256769D01*
X117908Y256795D01*
X117916Y256820D01*
X117935Y257064D01*
X117935Y302936D01*
X117932Y302962D01*
X117934Y302988D01*
X117912Y303135D01*
X117895Y303282D01*
X117887Y303307D01*
X117883Y303333D01*
X117828Y303471D01*
X117778Y303610D01*
X117764Y303632D01*
X117754Y303657D01*
X117669Y303778D01*
X117589Y303903D01*
X117570Y303921D01*
X117555Y303943D01*
X117445Y304042D01*
X117338Y304145D01*
X117316Y304159D01*
X117296Y304176D01*
X117166Y304248D01*
X117039Y304324D01*
X117014Y304332D01*
X116991Y304345D01*
X116848Y304385D01*
X116707Y304430D01*
X116681Y304432D01*
X116656Y304440D01*
X116412Y304459D01*
X107948Y304459D01*
X106459Y305948D01*
X106459Y334052D01*
X107948Y335541D01*
X116412Y335541D01*
X116438Y335544D01*
X116464Y335542D01*
X116611Y335564D01*
X116758Y335581D01*
X116783Y335589D01*
X116809Y335593D01*
X116947Y335648D01*
X117086Y335698D01*
X117108Y335712D01*
X117133Y335722D01*
X117254Y335807D01*
X117379Y335887D01*
X117397Y335906D01*
X117419Y335921D01*
X117518Y336031D01*
X117621Y336138D01*
X117635Y336160D01*
X117652Y336180D01*
X117724Y336310D01*
X117800Y336437D01*
X117808Y336462D01*
X117821Y336485D01*
X117861Y336628D01*
X117906Y336769D01*
X117908Y336795D01*
X117916Y336820D01*
X117935Y337064D01*
X117935Y382936D01*
X117932Y382962D01*
X117934Y382988D01*
X117912Y383135D01*
X117895Y383282D01*
X117887Y383307D01*
X117883Y383333D01*
X117828Y383471D01*
X117778Y383610D01*
X117764Y383632D01*
X117754Y383657D01*
X117669Y383778D01*
X117589Y383903D01*
X117570Y383921D01*
X117555Y383943D01*
X117445Y384042D01*
X117338Y384145D01*
X117316Y384159D01*
X117296Y384176D01*
X117166Y384248D01*
X117039Y384324D01*
X117014Y384332D01*
X116991Y384345D01*
X116848Y384385D01*
X116707Y384430D01*
X116681Y384432D01*
X116656Y384440D01*
X116412Y384459D01*
X107948Y384459D01*
X106459Y385948D01*
X106459Y414052D01*
X107948Y415541D01*
X133749Y415541D01*
X133874Y415555D01*
X134000Y415562D01*
X134047Y415575D01*
X134095Y415581D01*
X134214Y415623D01*
X134335Y415658D01*
X134377Y415682D01*
X134423Y415698D01*
X134529Y415767D01*
X134639Y415828D01*
X134686Y415868D01*
X134698Y415876D01*
X165309Y415876D01*
X165367Y415824D01*
X165409Y415800D01*
X165447Y415770D01*
X165561Y415716D01*
X165672Y415655D01*
X165719Y415642D01*
X165762Y415621D01*
X165886Y415595D01*
X166008Y415560D01*
X166068Y415555D01*
X166103Y415548D01*
X166151Y415549D01*
X166251Y415541D01*
X192052Y415541D01*
X193541Y414052D01*
X193541Y405588D01*
X193544Y405562D01*
X193542Y405536D01*
X193564Y405389D01*
X193581Y405242D01*
X193589Y405217D01*
X193593Y405191D01*
X193648Y405053D01*
X193698Y404914D01*
X193712Y404892D01*
X193722Y404867D01*
X193807Y404746D01*
X193887Y404621D01*
X193906Y404603D01*
X193921Y404581D01*
X194031Y404482D01*
X194138Y404379D01*
X194160Y404365D01*
X194180Y404348D01*
X194310Y404276D01*
X194437Y404200D01*
X194462Y404192D01*
X194485Y404179D01*
X194628Y404139D01*
X194769Y404094D01*
X194795Y404092D01*
X194820Y404084D01*
X195064Y404065D01*
X226792Y404065D01*
X226918Y404079D01*
X227044Y404086D01*
X227091Y404099D01*
X227139Y404105D01*
X227258Y404147D01*
X227379Y404182D01*
X227421Y404206D01*
X227467Y404222D01*
X227573Y404291D01*
X227683Y404352D01*
X227729Y404392D01*
X227759Y404411D01*
X227793Y404446D01*
X227869Y404511D01*
X233823Y410465D01*
X239395Y410465D01*
X239421Y410468D01*
X239447Y410466D01*
X239594Y410488D01*
X239741Y410505D01*
X239766Y410513D01*
X239792Y410517D01*
X239930Y410572D01*
X240069Y410622D01*
X240091Y410636D01*
X240116Y410646D01*
X240237Y410731D01*
X240362Y410811D01*
X240380Y410830D01*
X240402Y410845D01*
X240501Y410955D01*
X240604Y411062D01*
X240618Y411084D01*
X240635Y411104D01*
X240707Y411234D01*
X240783Y411361D01*
X240791Y411386D01*
X240804Y411409D01*
X240844Y411552D01*
X240889Y411693D01*
X240891Y411719D01*
X240899Y411744D01*
X240910Y411889D01*
X242407Y413386D01*
X250607Y413386D01*
X252096Y411897D01*
X252096Y400903D01*
X250607Y399414D01*
X242407Y399414D01*
X240910Y400910D01*
X240895Y401011D01*
X240878Y401158D01*
X240870Y401183D01*
X240866Y401209D01*
X240811Y401347D01*
X240761Y401486D01*
X240747Y401508D01*
X240737Y401533D01*
X240652Y401654D01*
X240572Y401779D01*
X240553Y401797D01*
X240538Y401819D01*
X240428Y401918D01*
X240321Y402021D01*
X240299Y402035D01*
X240279Y402052D01*
X240149Y402124D01*
X240022Y402200D01*
X239997Y402208D01*
X239974Y402221D01*
X239831Y402261D01*
X239690Y402306D01*
X239664Y402308D01*
X239639Y402316D01*
X239395Y402335D01*
X237822Y402335D01*
X237696Y402321D01*
X237570Y402314D01*
X237523Y402301D01*
X237475Y402295D01*
X237356Y402253D01*
X237235Y402218D01*
X237193Y402194D01*
X237147Y402178D01*
X237041Y402109D01*
X236931Y402048D01*
X236885Y402008D01*
X236855Y401989D01*
X236821Y401954D01*
X236745Y401889D01*
X230791Y395935D01*
X195064Y395935D01*
X195038Y395932D01*
X195012Y395934D01*
X194865Y395912D01*
X194718Y395895D01*
X194693Y395887D01*
X194667Y395883D01*
X194529Y395828D01*
X194390Y395778D01*
X194368Y395764D01*
X194343Y395754D01*
X194222Y395669D01*
X194097Y395589D01*
X194079Y395570D01*
X194057Y395555D01*
X193958Y395445D01*
X193855Y395338D01*
X193841Y395316D01*
X193824Y395296D01*
X193752Y395166D01*
X193676Y395039D01*
X193668Y395014D01*
X193655Y394991D01*
X193615Y394848D01*
X193570Y394707D01*
X193568Y394681D01*
X193560Y394656D01*
X193541Y394412D01*
X193541Y385948D01*
X192052Y384459D01*
X166251Y384459D01*
X166126Y384445D01*
X165999Y384438D01*
X165953Y384425D01*
X165905Y384419D01*
X165786Y384377D01*
X165665Y384342D01*
X165623Y384318D01*
X165577Y384302D01*
X165471Y384233D01*
X165360Y384172D01*
X165314Y384132D01*
X165302Y384124D01*
X134691Y384124D01*
X134633Y384176D01*
X134591Y384200D01*
X134553Y384230D01*
X134439Y384284D01*
X134328Y384345D01*
X134281Y384358D01*
X134238Y384379D01*
X134114Y384405D01*
X133992Y384440D01*
X133932Y384445D01*
X133897Y384452D01*
X133849Y384451D01*
X133749Y384459D01*
X127588Y384459D01*
X127562Y384456D01*
X127536Y384458D01*
X127389Y384436D01*
X127242Y384419D01*
X127217Y384411D01*
X127191Y384407D01*
X127053Y384352D01*
X126914Y384302D01*
X126892Y384288D01*
X126867Y384278D01*
X126746Y384193D01*
X126621Y384113D01*
X126603Y384094D01*
X126581Y384079D01*
X126482Y383969D01*
X126379Y383862D01*
X126365Y383840D01*
X126348Y383820D01*
X126276Y383690D01*
X126200Y383563D01*
X126192Y383538D01*
X126179Y383515D01*
X126139Y383372D01*
X126094Y383231D01*
X126092Y383205D01*
X126084Y383180D01*
X126065Y382936D01*
X126065Y337064D01*
X126068Y337038D01*
X126066Y337012D01*
X126088Y336865D01*
X126105Y336718D01*
X126113Y336693D01*
X126117Y336667D01*
X126172Y336529D01*
X126222Y336390D01*
X126236Y336368D01*
X126246Y336343D01*
X126331Y336222D01*
X126411Y336097D01*
X126430Y336079D01*
X126445Y336057D01*
X126555Y335958D01*
X126662Y335855D01*
X126684Y335841D01*
X126704Y335824D01*
X126834Y335752D01*
X126961Y335676D01*
X126986Y335668D01*
X127009Y335655D01*
X127152Y335615D01*
X127293Y335570D01*
X127319Y335568D01*
X127344Y335560D01*
X127588Y335541D01*
X133749Y335541D01*
X133874Y335555D01*
X134000Y335562D01*
X134047Y335575D01*
X134095Y335581D01*
X134214Y335623D01*
X134335Y335658D01*
X134377Y335682D01*
X134423Y335698D01*
X134529Y335767D01*
X134639Y335828D01*
X134686Y335868D01*
X134698Y335876D01*
X165309Y335876D01*
X165367Y335824D01*
X165409Y335800D01*
X165447Y335770D01*
X165561Y335716D01*
X165672Y335655D01*
X165719Y335642D01*
X165762Y335621D01*
X165886Y335595D01*
X166008Y335560D01*
X166068Y335555D01*
X166103Y335548D01*
X166151Y335549D01*
X166251Y335541D01*
X192052Y335541D01*
X193541Y334052D01*
X193541Y325588D01*
X193544Y325562D01*
X193542Y325536D01*
X193564Y325389D01*
X193581Y325242D01*
X193589Y325217D01*
X193593Y325191D01*
X193648Y325053D01*
X193698Y324914D01*
X193712Y324892D01*
X193722Y324867D01*
X193807Y324746D01*
X193887Y324621D01*
X193906Y324603D01*
X193921Y324581D01*
X194031Y324482D01*
X194138Y324379D01*
X194160Y324365D01*
X194180Y324348D01*
X194310Y324276D01*
X194437Y324200D01*
X194462Y324192D01*
X194485Y324179D01*
X194628Y324139D01*
X194769Y324094D01*
X194795Y324092D01*
X194820Y324084D01*
X195064Y324065D01*
X228392Y324065D01*
X228518Y324079D01*
X228644Y324086D01*
X228691Y324099D01*
X228739Y324105D01*
X228858Y324147D01*
X228979Y324182D01*
X229021Y324206D01*
X229067Y324222D01*
X229173Y324291D01*
X229283Y324352D01*
X229329Y324392D01*
X229359Y324411D01*
X229393Y324446D01*
X229469Y324511D01*
X232873Y327915D01*
X239395Y327915D01*
X239421Y327918D01*
X239447Y327916D01*
X239594Y327938D01*
X239741Y327955D01*
X239766Y327963D01*
X239792Y327967D01*
X239930Y328022D01*
X240069Y328072D01*
X240091Y328086D01*
X240116Y328096D01*
X240237Y328181D01*
X240362Y328261D01*
X240380Y328280D01*
X240402Y328295D01*
X240501Y328405D01*
X240604Y328512D01*
X240618Y328534D01*
X240635Y328554D01*
X240707Y328684D01*
X240783Y328811D01*
X240791Y328836D01*
X240804Y328859D01*
X240844Y329002D01*
X240889Y329143D01*
X240891Y329169D01*
X240899Y329194D01*
X240910Y329339D01*
X242407Y330836D01*
X250607Y330836D01*
X252096Y329347D01*
X252096Y318353D01*
X250607Y316864D01*
X242407Y316864D01*
X240910Y318360D01*
X240895Y318461D01*
X240878Y318608D01*
X240870Y318633D01*
X240866Y318659D01*
X240811Y318797D01*
X240761Y318936D01*
X240747Y318958D01*
X240737Y318983D01*
X240652Y319104D01*
X240572Y319229D01*
X240553Y319247D01*
X240538Y319269D01*
X240428Y319368D01*
X240321Y319471D01*
X240299Y319485D01*
X240279Y319502D01*
X240149Y319574D01*
X240022Y319650D01*
X239997Y319658D01*
X239974Y319671D01*
X239831Y319711D01*
X239690Y319756D01*
X239664Y319758D01*
X239639Y319766D01*
X239395Y319785D01*
X236872Y319785D01*
X236746Y319771D01*
X236620Y319764D01*
X236573Y319751D01*
X236525Y319745D01*
X236406Y319703D01*
X236285Y319668D01*
X236243Y319644D01*
X236197Y319628D01*
X236091Y319559D01*
X235981Y319498D01*
X235935Y319458D01*
X235905Y319439D01*
X235871Y319404D01*
X235795Y319339D01*
X232391Y315935D01*
X195064Y315935D01*
X195038Y315932D01*
X195012Y315934D01*
X194865Y315912D01*
X194718Y315895D01*
X194693Y315887D01*
X194667Y315883D01*
X194529Y315828D01*
X194390Y315778D01*
X194368Y315764D01*
X194343Y315754D01*
X194222Y315669D01*
X194097Y315589D01*
X194079Y315570D01*
X194057Y315555D01*
X193958Y315445D01*
X193855Y315338D01*
X193841Y315316D01*
X193824Y315296D01*
X193752Y315166D01*
X193676Y315039D01*
X193668Y315014D01*
X193655Y314991D01*
X193615Y314848D01*
X193570Y314707D01*
X193568Y314681D01*
X193560Y314656D01*
X193541Y314412D01*
X193541Y305948D01*
X192052Y304459D01*
X166251Y304459D01*
X166126Y304445D01*
X166000Y304438D01*
X165953Y304425D01*
X165905Y304419D01*
X165786Y304377D01*
X165665Y304342D01*
X165623Y304318D01*
X165577Y304302D01*
X165471Y304233D01*
X165361Y304172D01*
X165314Y304132D01*
X165302Y304124D01*
X134691Y304124D01*
X134633Y304176D01*
X134591Y304200D01*
X134553Y304230D01*
X134439Y304284D01*
X134328Y304345D01*
X134281Y304358D01*
X134238Y304379D01*
X134114Y304405D01*
X133992Y304440D01*
X133932Y304445D01*
X133897Y304452D01*
X133849Y304451D01*
X133749Y304459D01*
X127588Y304459D01*
X127562Y304456D01*
X127536Y304458D01*
X127389Y304436D01*
X127242Y304419D01*
X127217Y304411D01*
X127191Y304407D01*
X127053Y304352D01*
X126914Y304302D01*
X126892Y304288D01*
X126867Y304278D01*
X126746Y304193D01*
X126621Y304113D01*
X126603Y304094D01*
X126581Y304079D01*
X126482Y303969D01*
X126379Y303862D01*
X126365Y303840D01*
X126348Y303820D01*
X126276Y303690D01*
X126200Y303563D01*
X126192Y303538D01*
X126179Y303515D01*
X126139Y303372D01*
X126094Y303231D01*
X126092Y303205D01*
X126084Y303180D01*
X126065Y302936D01*
X126065Y257064D01*
X126068Y257038D01*
X126066Y257012D01*
X126088Y256865D01*
X126105Y256718D01*
X126113Y256693D01*
X126117Y256667D01*
X126172Y256529D01*
X126222Y256390D01*
X126236Y256368D01*
X126246Y256343D01*
X126331Y256222D01*
X126411Y256097D01*
X126430Y256079D01*
X126445Y256057D01*
X126555Y255958D01*
X126662Y255855D01*
X126684Y255841D01*
X126704Y255824D01*
X126834Y255752D01*
X126961Y255676D01*
X126986Y255668D01*
X127009Y255655D01*
X127152Y255615D01*
X127293Y255570D01*
X127319Y255568D01*
X127344Y255560D01*
X127588Y255541D01*
X133749Y255541D01*
X133874Y255555D01*
X134000Y255562D01*
X134047Y255575D01*
X134095Y255581D01*
X134214Y255623D01*
X134335Y255658D01*
X134377Y255682D01*
X134423Y255698D01*
X134529Y255767D01*
X134639Y255828D01*
X134686Y255868D01*
X134698Y255876D01*
X165309Y255876D01*
X165367Y255824D01*
X165409Y255800D01*
X165447Y255770D01*
X165561Y255716D01*
X165672Y255655D01*
X165719Y255642D01*
X165762Y255621D01*
X165886Y255595D01*
X166008Y255560D01*
X166068Y255555D01*
X166103Y255548D01*
X166151Y255549D01*
X166251Y255541D01*
X192052Y255541D01*
X193541Y254052D01*
X193541Y245588D01*
X193544Y245562D01*
X193542Y245536D01*
X193564Y245389D01*
X193581Y245242D01*
X193589Y245217D01*
X193593Y245191D01*
X193648Y245053D01*
X193698Y244914D01*
X193712Y244892D01*
X193722Y244867D01*
X193807Y244746D01*
X193887Y244621D01*
X193906Y244603D01*
X193921Y244581D01*
X194031Y244482D01*
X194138Y244379D01*
X194160Y244365D01*
X194180Y244348D01*
X194310Y244276D01*
X194437Y244200D01*
X194462Y244192D01*
X194485Y244179D01*
X194628Y244139D01*
X194769Y244094D01*
X194795Y244092D01*
X194820Y244084D01*
X195064Y244065D01*
X229992Y244065D01*
X230118Y244079D01*
X230244Y244086D01*
X230291Y244099D01*
X230339Y244105D01*
X230458Y244147D01*
X230579Y244182D01*
X230621Y244206D01*
X230667Y244222D01*
X230773Y244291D01*
X230883Y244352D01*
X230929Y244392D01*
X230959Y244411D01*
X230993Y244446D01*
X231069Y244511D01*
X234223Y247665D01*
X238795Y247665D01*
X238821Y247668D01*
X238847Y247666D01*
X238994Y247688D01*
X239141Y247705D01*
X239166Y247713D01*
X239192Y247717D01*
X239330Y247772D01*
X239469Y247822D01*
X239491Y247836D01*
X239516Y247846D01*
X239637Y247931D01*
X239762Y248011D01*
X239780Y248030D01*
X239802Y248045D01*
X239901Y248155D01*
X240004Y248262D01*
X240018Y248284D01*
X240035Y248304D01*
X240107Y248434D01*
X240183Y248561D01*
X240191Y248586D01*
X240204Y248609D01*
X240244Y248752D01*
X240289Y248893D01*
X240291Y248919D01*
X240299Y248944D01*
X240310Y249089D01*
X241807Y250586D01*
X250007Y250586D01*
X251496Y249097D01*
X251496Y238103D01*
X250007Y236614D01*
X241807Y236614D01*
X240310Y238110D01*
X240295Y238211D01*
X240278Y238358D01*
X240270Y238383D01*
X240266Y238409D01*
X240211Y238547D01*
X240161Y238686D01*
X240147Y238708D01*
X240137Y238733D01*
X240052Y238854D01*
X239972Y238979D01*
X239953Y238997D01*
X239938Y239019D01*
X239828Y239118D01*
X239721Y239221D01*
X239699Y239235D01*
X239679Y239252D01*
X239549Y239324D01*
X239422Y239400D01*
X239397Y239408D01*
X239374Y239421D01*
X239231Y239461D01*
X239090Y239506D01*
X239064Y239508D01*
X239039Y239516D01*
X238795Y239535D01*
X238222Y239535D01*
X238096Y239521D01*
X237970Y239514D01*
X237923Y239501D01*
X237875Y239495D01*
X237756Y239453D01*
X237635Y239418D01*
X237593Y239394D01*
X237547Y239378D01*
X237441Y239309D01*
X237331Y239248D01*
X237285Y239208D01*
X237255Y239189D01*
X237221Y239154D01*
X237145Y239089D01*
X233991Y235935D01*
X195064Y235935D01*
X195038Y235932D01*
X195012Y235934D01*
X194865Y235912D01*
X194718Y235895D01*
X194693Y235887D01*
X194667Y235883D01*
X194529Y235828D01*
X194390Y235778D01*
X194368Y235764D01*
X194343Y235754D01*
X194222Y235669D01*
X194097Y235589D01*
X194079Y235570D01*
X194057Y235555D01*
X193958Y235445D01*
X193855Y235338D01*
X193841Y235316D01*
X193824Y235296D01*
X193752Y235166D01*
X193676Y235039D01*
X193668Y235014D01*
X193655Y234991D01*
X193615Y234848D01*
X193570Y234707D01*
X193568Y234681D01*
X193560Y234656D01*
X193541Y234412D01*
X193541Y225948D01*
X192052Y224459D01*
X166251Y224459D01*
X166126Y224445D01*
X166000Y224438D01*
X165953Y224425D01*
X165905Y224419D01*
X165786Y224377D01*
X165665Y224342D01*
X165623Y224318D01*
X165577Y224302D01*
X165471Y224233D01*
X165361Y224172D01*
X165314Y224132D01*
X165302Y224124D01*
X134691Y224124D01*
X134633Y224176D01*
X134591Y224200D01*
X134553Y224230D01*
X134439Y224284D01*
X134328Y224345D01*
X134281Y224358D01*
X134238Y224379D01*
X134114Y224405D01*
X133992Y224440D01*
X133932Y224445D01*
X133897Y224452D01*
X133849Y224451D01*
X133749Y224459D01*
X127917Y224459D01*
X127817Y224448D01*
X127716Y224446D01*
X127644Y224428D01*
X127570Y224419D01*
X127476Y224386D01*
X127378Y224361D01*
X127312Y224327D01*
X127242Y224302D01*
X127158Y224247D01*
X127069Y224201D01*
X127012Y224153D01*
X126949Y224113D01*
X126880Y224041D01*
X126803Y223976D01*
X126759Y223916D01*
X126707Y223862D01*
X126656Y223776D01*
X126596Y223695D01*
X126567Y223627D01*
X126528Y223563D01*
X126498Y223467D01*
X126458Y223375D01*
X126445Y223302D01*
X126422Y223231D01*
X126414Y223131D01*
X126396Y223032D01*
X126400Y222958D01*
X126394Y222884D01*
X126409Y222784D01*
X126414Y222684D01*
X126435Y222613D01*
X126446Y222539D01*
X126483Y222446D01*
X126511Y222349D01*
X126547Y222284D01*
X126575Y222215D01*
X126632Y222133D01*
X126681Y222045D01*
X126746Y221969D01*
X126774Y221929D01*
X126800Y221905D01*
X126839Y221859D01*
X151148Y197551D01*
X151247Y197472D01*
X151340Y197388D01*
X151383Y197364D01*
X151421Y197334D01*
X151535Y197280D01*
X151645Y197219D01*
X151692Y197206D01*
X151736Y197185D01*
X151859Y197159D01*
X151981Y197124D01*
X152042Y197119D01*
X152076Y197112D01*
X152124Y197113D01*
X152225Y197105D01*
X352015Y197105D01*
X352141Y197119D01*
X352267Y197126D01*
X352314Y197139D01*
X352362Y197145D01*
X352481Y197187D01*
X352602Y197222D01*
X352644Y197246D01*
X352690Y197262D01*
X352796Y197331D01*
X352906Y197392D01*
X352952Y197432D01*
X352982Y197451D01*
X353016Y197486D01*
X353092Y197551D01*
X404429Y248888D01*
X404508Y248987D01*
X404592Y249080D01*
X404616Y249123D01*
X404646Y249161D01*
X404700Y249275D01*
X404761Y249385D01*
X404774Y249432D01*
X404795Y249476D01*
X404821Y249599D01*
X404856Y249721D01*
X404861Y249782D01*
X404868Y249816D01*
X404867Y249864D01*
X404875Y249965D01*
X404875Y309024D01*
X407449Y311597D01*
X407511Y311675D01*
X407581Y311748D01*
X407619Y311812D01*
X407665Y311870D01*
X407708Y311961D01*
X407760Y312047D01*
X407782Y312118D01*
X407814Y312185D01*
X407835Y312283D01*
X407866Y312379D01*
X407872Y312453D01*
X407887Y312526D01*
X407886Y312626D01*
X407894Y312726D01*
X407883Y312800D01*
X407881Y312874D01*
X407857Y312971D01*
X407842Y313071D01*
X407815Y313140D01*
X407796Y313212D01*
X407750Y313301D01*
X407713Y313395D01*
X407671Y313456D01*
X407637Y313522D01*
X407572Y313598D01*
X407514Y313681D01*
X407459Y313731D01*
X407411Y313787D01*
X407330Y313847D01*
X407256Y313914D01*
X407191Y313950D01*
X407131Y313995D01*
X407038Y314034D01*
X406951Y314083D01*
X406879Y314103D01*
X406811Y314133D01*
X406712Y314150D01*
X406615Y314178D01*
X406515Y314186D01*
X406468Y314194D01*
X406432Y314192D01*
X406371Y314197D01*
X403589Y314197D01*
X403463Y314183D01*
X403337Y314176D01*
X403291Y314163D01*
X403243Y314157D01*
X403124Y314115D01*
X403002Y314080D01*
X402960Y314056D01*
X402915Y314040D01*
X402808Y313971D01*
X402698Y313910D01*
X402652Y313870D01*
X402622Y313851D01*
X402588Y313816D01*
X402512Y313751D01*
X396179Y307418D01*
X396100Y307319D01*
X396016Y307225D01*
X395992Y307183D01*
X395962Y307145D01*
X395908Y307031D01*
X395847Y306920D01*
X395834Y306874D01*
X395813Y306830D01*
X395787Y306707D01*
X395752Y306585D01*
X395747Y306524D01*
X395740Y306489D01*
X395741Y306441D01*
X395733Y306341D01*
X395733Y255172D01*
X384908Y244347D01*
X370205Y244347D01*
X370179Y244344D01*
X370153Y244346D01*
X370006Y244324D01*
X369859Y244307D01*
X369834Y244299D01*
X369808Y244295D01*
X369670Y244240D01*
X369531Y244190D01*
X369509Y244176D01*
X369484Y244166D01*
X369363Y244081D01*
X369238Y244001D01*
X369220Y243982D01*
X369198Y243967D01*
X369099Y243857D01*
X368996Y243750D01*
X368982Y243728D01*
X368965Y243708D01*
X368893Y243578D01*
X368817Y243451D01*
X368809Y243426D01*
X368796Y243403D01*
X368756Y243260D01*
X368711Y243119D01*
X368709Y243093D01*
X368701Y243068D01*
X368682Y242824D01*
X368682Y242153D01*
X367193Y240664D01*
X358993Y240664D01*
X357504Y242153D01*
X357504Y253147D01*
X358993Y254636D01*
X367193Y254636D01*
X368682Y253147D01*
X368682Y252476D01*
X368685Y252450D01*
X368683Y252424D01*
X368705Y252277D01*
X368722Y252130D01*
X368730Y252105D01*
X368734Y252079D01*
X368789Y251941D01*
X368839Y251802D01*
X368853Y251780D01*
X368863Y251755D01*
X368948Y251634D01*
X369028Y251509D01*
X369047Y251491D01*
X369062Y251469D01*
X369172Y251370D01*
X369279Y251267D01*
X369301Y251253D01*
X369321Y251236D01*
X369451Y251164D01*
X369578Y251088D01*
X369603Y251080D01*
X369626Y251067D01*
X369769Y251027D01*
X369910Y250982D01*
X369936Y250980D01*
X369961Y250972D01*
X370205Y250953D01*
X381541Y250953D01*
X381667Y250967D01*
X381793Y250974D01*
X381839Y250987D01*
X381887Y250993D01*
X382006Y251035D01*
X382128Y251070D01*
X382170Y251094D01*
X382215Y251110D01*
X382322Y251179D01*
X382432Y251240D01*
X382478Y251280D01*
X382508Y251299D01*
X382542Y251334D01*
X382618Y251399D01*
X388681Y257462D01*
X388760Y257561D01*
X388844Y257655D01*
X388868Y257697D01*
X388898Y257735D01*
X388952Y257849D01*
X389013Y257960D01*
X389026Y258006D01*
X389047Y258050D01*
X389073Y258173D01*
X389108Y258295D01*
X389113Y258356D01*
X389120Y258391D01*
X389119Y258439D01*
X389127Y258539D01*
X389127Y309708D01*
X396016Y316597D01*
X396079Y316675D01*
X396148Y316748D01*
X396187Y316812D01*
X396233Y316870D01*
X396276Y316961D01*
X396327Y317047D01*
X396350Y317118D01*
X396382Y317185D01*
X396403Y317283D01*
X396433Y317379D01*
X396439Y317453D01*
X396455Y317526D01*
X396453Y317626D01*
X396461Y317726D01*
X396450Y317800D01*
X396449Y317874D01*
X396425Y317971D01*
X396410Y318071D01*
X396382Y318140D01*
X396364Y318212D01*
X396318Y318302D01*
X396281Y318395D01*
X396239Y318456D01*
X396204Y318522D01*
X396139Y318599D01*
X396082Y318681D01*
X396027Y318731D01*
X395979Y318787D01*
X395898Y318847D01*
X395823Y318914D01*
X395758Y318950D01*
X395698Y318995D01*
X395606Y319034D01*
X395518Y319083D01*
X395447Y319103D01*
X395378Y319133D01*
X395280Y319150D01*
X395183Y319178D01*
X395083Y319186D01*
X395035Y319194D01*
X395000Y319192D01*
X394939Y319197D01*
X369425Y319197D01*
X367044Y321578D01*
X365854Y322768D01*
X365755Y322847D01*
X365661Y322931D01*
X365619Y322955D01*
X365581Y322985D01*
X365467Y323039D01*
X365356Y323100D01*
X365310Y323113D01*
X365266Y323134D01*
X365143Y323160D01*
X365021Y323195D01*
X364960Y323200D01*
X364925Y323207D01*
X364877Y323206D01*
X364777Y323214D01*
X358993Y323214D01*
X357504Y324703D01*
X357504Y335697D01*
X358993Y337186D01*
X367193Y337186D01*
X368682Y335697D01*
X368682Y329913D01*
X368696Y329787D01*
X368703Y329661D01*
X368716Y329615D01*
X368722Y329567D01*
X368764Y329448D01*
X368799Y329326D01*
X368823Y329284D01*
X368839Y329239D01*
X368908Y329132D01*
X368969Y329022D01*
X369009Y328976D01*
X369028Y328946D01*
X369063Y328912D01*
X369128Y328836D01*
X371715Y326249D01*
X371814Y326170D01*
X371908Y326086D01*
X371950Y326062D01*
X371988Y326032D01*
X372102Y325978D01*
X372213Y325917D01*
X372259Y325904D01*
X372303Y325883D01*
X372426Y325857D01*
X372548Y325822D01*
X372609Y325817D01*
X372644Y325810D01*
X372692Y325811D01*
X372792Y325803D01*
X395899Y325803D01*
X395999Y325814D01*
X396099Y325816D01*
X396171Y325834D01*
X396245Y325843D01*
X396340Y325876D01*
X396437Y325901D01*
X396503Y325935D01*
X396573Y325960D01*
X396658Y326015D01*
X396747Y326061D01*
X396804Y326109D01*
X396866Y326149D01*
X396936Y326221D01*
X397012Y326286D01*
X397057Y326346D01*
X397108Y326400D01*
X397160Y326486D01*
X397220Y326567D01*
X397249Y326635D01*
X397287Y326699D01*
X397318Y326795D01*
X397358Y326887D01*
X397371Y326960D01*
X397393Y327031D01*
X397402Y327131D01*
X397419Y327230D01*
X397415Y327304D01*
X397421Y327378D01*
X397407Y327478D01*
X397401Y327578D01*
X397381Y327649D01*
X397370Y327723D01*
X397333Y327816D01*
X397305Y327913D01*
X397268Y327978D01*
X397241Y328047D01*
X397184Y328129D01*
X397135Y328217D01*
X397070Y328293D01*
X397042Y328333D01*
X397016Y328357D01*
X396976Y328403D01*
X392178Y333201D01*
X389797Y335582D01*
X389797Y398451D01*
X389783Y398577D01*
X389776Y398703D01*
X389763Y398749D01*
X389757Y398797D01*
X389715Y398916D01*
X389680Y399038D01*
X389656Y399080D01*
X389640Y399125D01*
X389571Y399232D01*
X389510Y399342D01*
X389470Y399388D01*
X389451Y399418D01*
X389416Y399452D01*
X389351Y399528D01*
X379878Y409001D01*
X379779Y409080D01*
X379685Y409164D01*
X379643Y409188D01*
X379605Y409218D01*
X379491Y409272D01*
X379380Y409333D01*
X379334Y409346D01*
X379290Y409367D01*
X379167Y409393D01*
X379045Y409428D01*
X378984Y409433D01*
X378949Y409440D01*
X378901Y409439D01*
X378801Y409447D01*
X370205Y409447D01*
X370179Y409444D01*
X370153Y409446D01*
X370006Y409424D01*
X369859Y409407D01*
X369834Y409399D01*
X369808Y409395D01*
X369670Y409340D01*
X369531Y409290D01*
X369509Y409276D01*
X369484Y409266D01*
X369363Y409181D01*
X369238Y409101D01*
X369220Y409082D01*
X369198Y409067D01*
X369099Y408957D01*
X368996Y408850D01*
X368982Y408828D01*
X368965Y408808D01*
X368893Y408678D01*
X368817Y408551D01*
X368809Y408526D01*
X368796Y408503D01*
X368756Y408360D01*
X368711Y408219D01*
X368709Y408193D01*
X368701Y408168D01*
X368682Y407924D01*
X368682Y407253D01*
X367193Y405764D01*
X358993Y405764D01*
X357504Y407253D01*
X357504Y418247D01*
X358993Y419736D01*
X367193Y419736D01*
X368682Y418247D01*
X368682Y417576D01*
X368685Y417550D01*
X368683Y417524D01*
X368705Y417377D01*
X368722Y417230D01*
X368730Y417205D01*
X368734Y417179D01*
X368789Y417041D01*
X368839Y416902D01*
X368853Y416880D01*
X368863Y416855D01*
X368948Y416734D01*
X369028Y416609D01*
X369047Y416591D01*
X369062Y416569D01*
X369172Y416470D01*
X369279Y416367D01*
X369301Y416353D01*
X369321Y416336D01*
X369451Y416264D01*
X369578Y416188D01*
X369603Y416180D01*
X369626Y416167D01*
X369769Y416127D01*
X369910Y416082D01*
X369936Y416080D01*
X369961Y416072D01*
X370205Y416053D01*
X382168Y416053D01*
X384549Y413672D01*
X394022Y404199D01*
X396403Y401818D01*
X396403Y338949D01*
X396417Y338823D01*
X396424Y338697D01*
X396437Y338651D01*
X396443Y338603D01*
X396485Y338484D01*
X396520Y338362D01*
X396544Y338320D01*
X396560Y338275D01*
X396629Y338168D01*
X396690Y338058D01*
X396730Y338012D01*
X396749Y337982D01*
X396784Y337948D01*
X396849Y337872D01*
X403472Y331249D01*
X403571Y331170D01*
X403665Y331086D01*
X403707Y331062D01*
X403745Y331032D01*
X403859Y330978D01*
X403970Y330917D01*
X404016Y330904D01*
X404060Y330883D01*
X404183Y330857D01*
X404305Y330822D01*
X404366Y330817D01*
X404401Y330810D01*
X404449Y330811D01*
X404549Y330803D01*
X431479Y330803D01*
X431604Y330817D01*
X431730Y330824D01*
X431777Y330837D01*
X431825Y330843D01*
X431944Y330885D01*
X432065Y330920D01*
X432107Y330944D01*
X432153Y330960D01*
X432259Y331029D01*
X432369Y331090D01*
X432416Y331130D01*
X432446Y331149D01*
X432448Y331151D01*
X432448Y331152D01*
X432480Y331184D01*
X432556Y331249D01*
X432848Y331541D01*
X443452Y331541D01*
X444941Y330052D01*
X444941Y309023D01*
X444647Y309023D01*
X444558Y309013D01*
X444467Y309013D01*
X444385Y308993D01*
X444301Y308984D01*
X444216Y308953D01*
X444128Y308932D01*
X444053Y308895D01*
X443973Y308866D01*
X443897Y308817D01*
X443816Y308777D01*
X443722Y308704D01*
X443680Y308677D01*
X443660Y308656D01*
X443623Y308627D01*
X443622Y308627D01*
X443533Y308524D01*
X443438Y308426D01*
X443418Y308393D01*
X443393Y308365D01*
X443329Y308244D01*
X443259Y308127D01*
X443247Y308091D01*
X443229Y308057D01*
X443194Y307925D01*
X443153Y307795D01*
X443150Y307757D01*
X443140Y307720D01*
X443136Y307584D01*
X443125Y307448D01*
X443130Y307410D01*
X443129Y307372D01*
X443156Y307238D01*
X443176Y307103D01*
X443191Y307067D01*
X443198Y307030D01*
X443255Y306906D01*
X443305Y306779D01*
X443327Y306748D01*
X443343Y306713D01*
X443426Y306605D01*
X443504Y306493D01*
X443532Y306467D01*
X443556Y306437D01*
X443662Y306351D01*
X443763Y306259D01*
X443796Y306241D01*
X443826Y306217D01*
X443948Y306157D01*
X444068Y306091D01*
X444105Y306081D01*
X444139Y306064D01*
X444272Y306033D01*
X444403Y305996D01*
X444450Y305992D01*
X444479Y305986D01*
X444529Y305986D01*
X444647Y305977D01*
X444941Y305977D01*
X444941Y305665D01*
X444768Y305019D01*
X444433Y304440D01*
X443960Y303967D01*
X443381Y303632D01*
X442735Y303459D01*
X439673Y303459D01*
X439673Y306912D01*
X439670Y306938D01*
X439672Y306964D01*
X439650Y307111D01*
X439634Y307258D01*
X439625Y307283D01*
X439621Y307309D01*
X439566Y307447D01*
X439516Y307586D01*
X439502Y307608D01*
X439492Y307633D01*
X439408Y307754D01*
X439327Y307879D01*
X439308Y307897D01*
X439293Y307919D01*
X439183Y308018D01*
X439076Y308121D01*
X439054Y308135D01*
X439034Y308152D01*
X438904Y308224D01*
X438777Y308300D01*
X438752Y308308D01*
X438729Y308321D01*
X438586Y308361D01*
X438445Y308406D01*
X438419Y308408D01*
X438394Y308416D01*
X438150Y308435D01*
X438124Y308432D01*
X438098Y308434D01*
X437951Y308412D01*
X437804Y308395D01*
X437779Y308387D01*
X437753Y308383D01*
X437615Y308328D01*
X437476Y308278D01*
X437453Y308264D01*
X437429Y308254D01*
X437308Y308169D01*
X437183Y308089D01*
X437164Y308070D01*
X437143Y308055D01*
X437044Y307945D01*
X436941Y307838D01*
X436927Y307816D01*
X436909Y307796D01*
X436838Y307666D01*
X436762Y307539D01*
X436754Y307514D01*
X436741Y307491D01*
X436701Y307348D01*
X436655Y307207D01*
X436653Y307181D01*
X436646Y307156D01*
X436627Y306912D01*
X436627Y303459D01*
X433565Y303459D01*
X432919Y303632D01*
X432340Y303967D01*
X431867Y304440D01*
X431532Y305019D01*
X431359Y305665D01*
X431359Y306912D01*
X431356Y306938D01*
X431358Y306964D01*
X431336Y307111D01*
X431319Y307258D01*
X431311Y307283D01*
X431307Y307309D01*
X431252Y307447D01*
X431202Y307586D01*
X431188Y307608D01*
X431178Y307633D01*
X431093Y307754D01*
X431013Y307879D01*
X430994Y307897D01*
X430979Y307919D01*
X430869Y308018D01*
X430762Y308121D01*
X430740Y308135D01*
X430720Y308152D01*
X430590Y308224D01*
X430463Y308300D01*
X430438Y308308D01*
X430415Y308321D01*
X430272Y308361D01*
X430131Y308406D01*
X430105Y308408D01*
X430080Y308416D01*
X429836Y308435D01*
X416415Y308435D01*
X416289Y308421D01*
X416163Y308414D01*
X416116Y308401D01*
X416068Y308395D01*
X415949Y308353D01*
X415828Y308318D01*
X415786Y308294D01*
X415740Y308278D01*
X415634Y308209D01*
X415524Y308148D01*
X415478Y308108D01*
X415448Y308089D01*
X415414Y308054D01*
X415338Y307989D01*
X413451Y306102D01*
X413372Y306003D01*
X413288Y305910D01*
X413264Y305867D01*
X413234Y305829D01*
X413180Y305715D01*
X413119Y305605D01*
X413106Y305558D01*
X413085Y305514D01*
X413059Y305391D01*
X413024Y305269D01*
X413019Y305208D01*
X413012Y305174D01*
X413013Y305126D01*
X413005Y305025D01*
X413005Y245966D01*
X356014Y188975D01*
X148226Y188975D01*
G37*
%LPD*%
%LPC*%
G36*
X964321Y85689D02*
X964321Y85689D01*
X953181Y87905D01*
X942687Y92252D01*
X933243Y98562D01*
X925212Y106593D01*
X918902Y116037D01*
X914555Y126531D01*
X912339Y137671D01*
X912339Y149029D01*
X912382Y149243D01*
X912382Y149244D01*
X912988Y152290D01*
X913291Y153813D01*
X913594Y155336D01*
X913594Y155337D01*
X913897Y156859D01*
X913897Y156860D01*
X914503Y159906D01*
X914555Y160169D01*
X918902Y170663D01*
X925212Y180107D01*
X933243Y188138D01*
X942687Y194448D01*
X953181Y198795D01*
X964321Y201011D01*
X975679Y201011D01*
X986819Y198795D01*
X997313Y194448D01*
X1006757Y188138D01*
X1014788Y180107D01*
X1021098Y170663D01*
X1025445Y160169D01*
X1027661Y149029D01*
X1027661Y137671D01*
X1027353Y136125D01*
X1027353Y136124D01*
X1027050Y134601D01*
X1026747Y133078D01*
X1026444Y131555D01*
X1026444Y131554D01*
X1025535Y126985D01*
X1025445Y126531D01*
X1021098Y116037D01*
X1014788Y106593D01*
X1006757Y98562D01*
X997313Y92252D01*
X986819Y87905D01*
X975679Y85689D01*
X964321Y85689D01*
G37*
%LPD*%
%LPC*%
G36*
X315042Y72339D02*
X315042Y72339D01*
X305464Y74906D01*
X296876Y79864D01*
X289864Y86876D01*
X284906Y95464D01*
X282339Y105042D01*
X282339Y114958D01*
X284906Y124536D01*
X289864Y133124D01*
X296876Y140136D01*
X305464Y145094D01*
X315042Y147661D01*
X324958Y147661D01*
X334536Y145094D01*
X343124Y140136D01*
X350136Y133124D01*
X355094Y124536D01*
X357661Y114958D01*
X357661Y105042D01*
X355094Y95464D01*
X350136Y86876D01*
X343124Y79864D01*
X334536Y74906D01*
X324958Y72339D01*
X315042Y72339D01*
G37*
%LPD*%
%LPC*%
G36*
X344007Y323214D02*
X344007Y323214D01*
X342518Y324703D01*
X342518Y325374D01*
X342515Y325400D01*
X342517Y325426D01*
X342495Y325573D01*
X342478Y325720D01*
X342470Y325745D01*
X342466Y325771D01*
X342411Y325909D01*
X342361Y326048D01*
X342347Y326070D01*
X342337Y326095D01*
X342253Y326216D01*
X342172Y326341D01*
X342153Y326359D01*
X342138Y326381D01*
X342028Y326480D01*
X341921Y326583D01*
X341899Y326597D01*
X341879Y326614D01*
X341749Y326686D01*
X341622Y326762D01*
X341597Y326770D01*
X341574Y326783D01*
X341431Y326823D01*
X341290Y326868D01*
X341264Y326870D01*
X341239Y326878D01*
X340995Y326897D01*
X330725Y326897D01*
X330028Y327594D01*
X329929Y327673D01*
X329835Y327757D01*
X329793Y327781D01*
X329755Y327811D01*
X329641Y327865D01*
X329530Y327926D01*
X329484Y327939D01*
X329440Y327960D01*
X329317Y327986D01*
X329195Y328021D01*
X329134Y328026D01*
X329099Y328033D01*
X329051Y328032D01*
X328951Y328040D01*
X325914Y328040D01*
X325789Y328026D01*
X325663Y328019D01*
X325616Y328006D01*
X325568Y328000D01*
X325449Y327958D01*
X325328Y327923D01*
X325285Y327899D01*
X325240Y327883D01*
X325134Y327814D01*
X325023Y327753D01*
X324977Y327713D01*
X324947Y327694D01*
X324914Y327659D01*
X324837Y327594D01*
X322997Y325754D01*
X312003Y325754D01*
X310445Y327312D01*
X310424Y327329D01*
X310407Y327349D01*
X310288Y327437D01*
X310172Y327529D01*
X310148Y327540D01*
X310127Y327556D01*
X309991Y327614D01*
X309857Y327678D01*
X309831Y327683D01*
X309807Y327694D01*
X309661Y327720D01*
X309516Y327751D01*
X309490Y327751D01*
X309464Y327755D01*
X309315Y327748D01*
X309167Y327745D01*
X309142Y327739D01*
X309116Y327737D01*
X308973Y327696D01*
X308829Y327660D01*
X308806Y327648D01*
X308781Y327641D01*
X308651Y327568D01*
X308520Y327501D01*
X308500Y327484D01*
X308477Y327471D01*
X308290Y327312D01*
X307685Y326707D01*
X296581Y326707D01*
X295092Y328196D01*
X295092Y338300D01*
X296581Y339789D01*
X307685Y339789D01*
X309174Y338300D01*
X309174Y338074D01*
X309177Y338048D01*
X309175Y338022D01*
X309197Y337875D01*
X309214Y337728D01*
X309222Y337703D01*
X309226Y337677D01*
X309281Y337539D01*
X309331Y337400D01*
X309345Y337378D01*
X309355Y337353D01*
X309440Y337232D01*
X309520Y337107D01*
X309539Y337089D01*
X309554Y337067D01*
X309664Y336968D01*
X309771Y336865D01*
X309793Y336851D01*
X309813Y336834D01*
X309943Y336762D01*
X310070Y336686D01*
X310095Y336678D01*
X310118Y336665D01*
X310261Y336625D01*
X310402Y336580D01*
X310428Y336578D01*
X310453Y336570D01*
X310697Y336551D01*
X310991Y336551D01*
X311116Y336565D01*
X311243Y336572D01*
X311289Y336585D01*
X311337Y336591D01*
X311456Y336633D01*
X311577Y336668D01*
X311619Y336692D01*
X311665Y336708D01*
X311771Y336777D01*
X311882Y336838D01*
X311928Y336878D01*
X311958Y336897D01*
X311991Y336932D01*
X322997Y336932D01*
X324837Y335092D01*
X324936Y335013D01*
X325030Y334929D01*
X325072Y334905D01*
X325110Y334875D01*
X325224Y334821D01*
X325335Y334760D01*
X325382Y334747D01*
X325425Y334726D01*
X325549Y334700D01*
X325671Y334665D01*
X325731Y334660D01*
X325766Y334653D01*
X325814Y334654D01*
X325914Y334646D01*
X332318Y334646D01*
X333015Y333949D01*
X333114Y333870D01*
X333208Y333786D01*
X333250Y333762D01*
X333288Y333732D01*
X333402Y333678D01*
X333513Y333617D01*
X333559Y333604D01*
X333603Y333583D01*
X333726Y333557D01*
X333848Y333522D01*
X333909Y333517D01*
X333944Y333510D01*
X333992Y333511D01*
X334092Y333503D01*
X340995Y333503D01*
X341021Y333506D01*
X341047Y333504D01*
X341194Y333526D01*
X341341Y333543D01*
X341366Y333551D01*
X341392Y333555D01*
X341530Y333610D01*
X341669Y333660D01*
X341691Y333674D01*
X341716Y333684D01*
X341837Y333769D01*
X341962Y333849D01*
X341980Y333868D01*
X342002Y333883D01*
X342101Y333993D01*
X342204Y334100D01*
X342218Y334122D01*
X342235Y334142D01*
X342307Y334272D01*
X342383Y334399D01*
X342391Y334424D01*
X342404Y334447D01*
X342444Y334590D01*
X342489Y334731D01*
X342491Y334757D01*
X342499Y334782D01*
X342518Y335026D01*
X342518Y335697D01*
X344007Y337186D01*
X352207Y337186D01*
X353696Y335697D01*
X353696Y324703D01*
X352207Y323214D01*
X344007Y323214D01*
G37*
%LPD*%
%LPC*%
G36*
X344007Y405764D02*
X344007Y405764D01*
X342518Y407253D01*
X342518Y407924D01*
X342515Y407950D01*
X342517Y407976D01*
X342495Y408123D01*
X342478Y408270D01*
X342470Y408295D01*
X342466Y408321D01*
X342411Y408459D01*
X342361Y408598D01*
X342347Y408620D01*
X342337Y408645D01*
X342252Y408766D01*
X342172Y408891D01*
X342153Y408909D01*
X342138Y408931D01*
X342028Y409030D01*
X341921Y409133D01*
X341899Y409147D01*
X341879Y409164D01*
X341749Y409236D01*
X341622Y409312D01*
X341597Y409320D01*
X341574Y409333D01*
X341431Y409373D01*
X341290Y409418D01*
X341264Y409420D01*
X341239Y409428D01*
X340995Y409447D01*
X329775Y409447D01*
X329078Y410144D01*
X328979Y410223D01*
X328885Y410307D01*
X328843Y410331D01*
X328805Y410361D01*
X328691Y410415D01*
X328580Y410476D01*
X328534Y410489D01*
X328490Y410510D01*
X328367Y410536D01*
X328245Y410571D01*
X328184Y410576D01*
X328149Y410583D01*
X328101Y410582D01*
X328001Y410590D01*
X325914Y410590D01*
X325789Y410576D01*
X325663Y410569D01*
X325616Y410556D01*
X325568Y410550D01*
X325449Y410508D01*
X325328Y410473D01*
X325286Y410449D01*
X325240Y410433D01*
X325134Y410364D01*
X325024Y410303D01*
X324977Y410263D01*
X324947Y410244D01*
X324914Y410209D01*
X324837Y410144D01*
X322997Y408304D01*
X312003Y408304D01*
X310445Y409862D01*
X310424Y409879D01*
X310407Y409899D01*
X310288Y409987D01*
X310172Y410079D01*
X310148Y410090D01*
X310127Y410106D01*
X309991Y410164D01*
X309857Y410228D01*
X309831Y410233D01*
X309807Y410244D01*
X309661Y410270D01*
X309516Y410301D01*
X309490Y410301D01*
X309464Y410305D01*
X309315Y410298D01*
X309167Y410295D01*
X309142Y410289D01*
X309116Y410287D01*
X308973Y410246D01*
X308829Y410210D01*
X308806Y410198D01*
X308781Y410191D01*
X308651Y410118D01*
X308520Y410051D01*
X308500Y410034D01*
X308477Y410021D01*
X308290Y409862D01*
X307685Y409257D01*
X296581Y409257D01*
X295092Y410746D01*
X295092Y420850D01*
X296581Y422339D01*
X307685Y422339D01*
X309174Y420850D01*
X309174Y420330D01*
X309185Y420231D01*
X309187Y420130D01*
X309205Y420058D01*
X309214Y419984D01*
X309247Y419889D01*
X309272Y419792D01*
X309306Y419726D01*
X309331Y419656D01*
X309386Y419572D01*
X309432Y419482D01*
X309480Y419426D01*
X309520Y419363D01*
X309592Y419293D01*
X309657Y419217D01*
X309717Y419173D01*
X309771Y419121D01*
X309857Y419069D01*
X309938Y419010D01*
X310006Y418980D01*
X310070Y418942D01*
X310165Y418912D01*
X310258Y418872D01*
X310331Y418859D01*
X310402Y418836D01*
X310502Y418828D01*
X310601Y418810D01*
X310675Y418814D01*
X310749Y418808D01*
X310848Y418823D01*
X310949Y418828D01*
X311020Y418849D01*
X311094Y418860D01*
X311187Y418897D01*
X311284Y418925D01*
X311349Y418961D01*
X311418Y418988D01*
X311500Y419046D01*
X311588Y419095D01*
X311664Y419160D01*
X311704Y419187D01*
X311728Y419214D01*
X311774Y419253D01*
X312003Y419482D01*
X322997Y419482D01*
X324837Y417642D01*
X324936Y417563D01*
X325030Y417479D01*
X325072Y417455D01*
X325110Y417425D01*
X325224Y417371D01*
X325335Y417310D01*
X325382Y417297D01*
X325425Y417276D01*
X325549Y417250D01*
X325671Y417215D01*
X325731Y417210D01*
X325766Y417203D01*
X325814Y417204D01*
X325914Y417196D01*
X331368Y417196D01*
X332065Y416499D01*
X332164Y416420D01*
X332258Y416336D01*
X332300Y416312D01*
X332338Y416282D01*
X332452Y416228D01*
X332563Y416167D01*
X332609Y416154D01*
X332653Y416133D01*
X332776Y416107D01*
X332898Y416072D01*
X332959Y416067D01*
X332994Y416060D01*
X333042Y416061D01*
X333142Y416053D01*
X340995Y416053D01*
X341021Y416056D01*
X341047Y416054D01*
X341194Y416076D01*
X341341Y416093D01*
X341366Y416101D01*
X341392Y416105D01*
X341530Y416160D01*
X341669Y416210D01*
X341691Y416224D01*
X341716Y416234D01*
X341837Y416319D01*
X341962Y416399D01*
X341980Y416418D01*
X342002Y416433D01*
X342101Y416543D01*
X342204Y416650D01*
X342218Y416672D01*
X342235Y416692D01*
X342307Y416822D01*
X342383Y416949D01*
X342391Y416974D01*
X342404Y416997D01*
X342444Y417140D01*
X342489Y417281D01*
X342491Y417307D01*
X342499Y417332D01*
X342518Y417576D01*
X342518Y418247D01*
X344007Y419736D01*
X352207Y419736D01*
X353696Y418247D01*
X353696Y407253D01*
X352207Y405764D01*
X344007Y405764D01*
G37*
%LPD*%
%LPC*%
G36*
X344007Y240664D02*
X344007Y240664D01*
X342518Y242153D01*
X342518Y242824D01*
X342515Y242850D01*
X342517Y242876D01*
X342495Y243023D01*
X342478Y243170D01*
X342470Y243195D01*
X342466Y243221D01*
X342411Y243359D01*
X342361Y243498D01*
X342347Y243520D01*
X342337Y243545D01*
X342252Y243666D01*
X342172Y243791D01*
X342153Y243809D01*
X342138Y243831D01*
X342028Y243930D01*
X341921Y244033D01*
X341899Y244047D01*
X341879Y244064D01*
X341749Y244136D01*
X341622Y244212D01*
X341597Y244220D01*
X341574Y244233D01*
X341431Y244273D01*
X341290Y244318D01*
X341264Y244320D01*
X341239Y244328D01*
X340995Y244347D01*
X324771Y244347D01*
X324646Y244333D01*
X324520Y244326D01*
X324473Y244313D01*
X324425Y244307D01*
X324306Y244265D01*
X324185Y244230D01*
X324143Y244206D01*
X324097Y244190D01*
X323991Y244121D01*
X323881Y244060D01*
X323834Y244020D01*
X323804Y244001D01*
X323771Y243966D01*
X323694Y243901D01*
X322997Y243204D01*
X312003Y243204D01*
X310445Y244762D01*
X310424Y244779D01*
X310407Y244799D01*
X310288Y244887D01*
X310172Y244979D01*
X310148Y244990D01*
X310127Y245006D01*
X309991Y245064D01*
X309857Y245128D01*
X309831Y245133D01*
X309807Y245144D01*
X309661Y245170D01*
X309516Y245201D01*
X309490Y245201D01*
X309464Y245205D01*
X309315Y245198D01*
X309167Y245195D01*
X309142Y245189D01*
X309116Y245187D01*
X308973Y245146D01*
X308829Y245110D01*
X308806Y245098D01*
X308781Y245091D01*
X308651Y245018D01*
X308520Y244951D01*
X308500Y244934D01*
X308477Y244921D01*
X308290Y244762D01*
X307685Y244157D01*
X296581Y244157D01*
X295092Y245646D01*
X295092Y255750D01*
X296581Y257239D01*
X307685Y257239D01*
X309174Y255750D01*
X309174Y255230D01*
X309185Y255131D01*
X309187Y255030D01*
X309205Y254958D01*
X309214Y254884D01*
X309247Y254789D01*
X309272Y254692D01*
X309306Y254626D01*
X309331Y254556D01*
X309386Y254472D01*
X309432Y254382D01*
X309480Y254326D01*
X309520Y254263D01*
X309592Y254193D01*
X309657Y254117D01*
X309717Y254073D01*
X309771Y254021D01*
X309857Y253969D01*
X309938Y253910D01*
X310006Y253880D01*
X310070Y253842D01*
X310165Y253812D01*
X310258Y253772D01*
X310331Y253759D01*
X310402Y253736D01*
X310502Y253728D01*
X310601Y253710D01*
X310675Y253714D01*
X310749Y253708D01*
X310848Y253723D01*
X310949Y253728D01*
X311020Y253749D01*
X311094Y253760D01*
X311187Y253797D01*
X311284Y253825D01*
X311349Y253861D01*
X311418Y253888D01*
X311500Y253946D01*
X311588Y253995D01*
X311664Y254060D01*
X311704Y254087D01*
X311728Y254114D01*
X311774Y254153D01*
X312003Y254382D01*
X322997Y254382D01*
X324486Y252893D01*
X324486Y252476D01*
X324489Y252450D01*
X324487Y252424D01*
X324509Y252277D01*
X324526Y252130D01*
X324534Y252105D01*
X324538Y252079D01*
X324593Y251941D01*
X324643Y251802D01*
X324657Y251780D01*
X324667Y251755D01*
X324752Y251634D01*
X324832Y251509D01*
X324851Y251491D01*
X324866Y251469D01*
X324976Y251370D01*
X325083Y251267D01*
X325105Y251253D01*
X325125Y251236D01*
X325255Y251164D01*
X325382Y251088D01*
X325407Y251080D01*
X325430Y251067D01*
X325573Y251027D01*
X325714Y250982D01*
X325740Y250980D01*
X325765Y250972D01*
X326009Y250953D01*
X340995Y250953D01*
X341021Y250956D01*
X341047Y250954D01*
X341194Y250976D01*
X341341Y250993D01*
X341366Y251001D01*
X341392Y251005D01*
X341530Y251060D01*
X341669Y251110D01*
X341691Y251124D01*
X341716Y251134D01*
X341837Y251219D01*
X341962Y251299D01*
X341980Y251318D01*
X342002Y251333D01*
X342101Y251443D01*
X342204Y251550D01*
X342218Y251572D01*
X342235Y251592D01*
X342307Y251722D01*
X342383Y251849D01*
X342391Y251874D01*
X342404Y251897D01*
X342444Y252040D01*
X342489Y252181D01*
X342491Y252207D01*
X342499Y252232D01*
X342518Y252476D01*
X342518Y253147D01*
X344007Y254636D01*
X352207Y254636D01*
X353696Y253147D01*
X353696Y242153D01*
X352207Y240664D01*
X344007Y240664D01*
G37*
%LPD*%
%LPC*%
G36*
X257393Y316864D02*
X257393Y316864D01*
X255904Y318353D01*
X255904Y329347D01*
X257393Y330836D01*
X265593Y330836D01*
X267090Y329340D01*
X267105Y329239D01*
X267122Y329092D01*
X267130Y329067D01*
X267134Y329041D01*
X267189Y328903D01*
X267239Y328764D01*
X267253Y328742D01*
X267263Y328717D01*
X267348Y328596D01*
X267428Y328471D01*
X267447Y328453D01*
X267462Y328431D01*
X267572Y328332D01*
X267679Y328229D01*
X267701Y328215D01*
X267721Y328198D01*
X267851Y328126D01*
X267978Y328050D01*
X268003Y328042D01*
X268026Y328029D01*
X268169Y327989D01*
X268310Y327944D01*
X268336Y327942D01*
X268361Y327934D01*
X268605Y327915D01*
X273503Y327915D01*
X273529Y327918D01*
X273555Y327916D01*
X273702Y327938D01*
X273849Y327955D01*
X273874Y327963D01*
X273900Y327967D01*
X274038Y328022D01*
X274177Y328072D01*
X274199Y328086D01*
X274224Y328096D01*
X274345Y328181D01*
X274470Y328261D01*
X274488Y328280D01*
X274510Y328295D01*
X274609Y328405D01*
X274712Y328512D01*
X274726Y328534D01*
X274743Y328554D01*
X274815Y328684D01*
X274826Y328703D01*
X276515Y330391D01*
X287619Y330391D01*
X289108Y328902D01*
X289108Y318798D01*
X287619Y317309D01*
X276515Y317309D01*
X274848Y318976D01*
X274845Y318983D01*
X274760Y319104D01*
X274680Y319229D01*
X274661Y319247D01*
X274646Y319269D01*
X274536Y319368D01*
X274429Y319471D01*
X274407Y319485D01*
X274387Y319502D01*
X274257Y319574D01*
X274130Y319650D01*
X274105Y319658D01*
X274082Y319671D01*
X273939Y319711D01*
X273798Y319756D01*
X273772Y319758D01*
X273747Y319766D01*
X273503Y319785D01*
X268605Y319785D01*
X268579Y319782D01*
X268553Y319784D01*
X268406Y319762D01*
X268259Y319745D01*
X268234Y319737D01*
X268208Y319733D01*
X268070Y319678D01*
X267931Y319628D01*
X267909Y319614D01*
X267884Y319604D01*
X267763Y319519D01*
X267638Y319439D01*
X267620Y319420D01*
X267598Y319405D01*
X267499Y319295D01*
X267396Y319188D01*
X267382Y319166D01*
X267365Y319146D01*
X267293Y319016D01*
X267217Y318889D01*
X267209Y318864D01*
X267196Y318841D01*
X267156Y318698D01*
X267111Y318557D01*
X267109Y318531D01*
X267101Y318506D01*
X267090Y318361D01*
X265593Y316864D01*
X257393Y316864D01*
G37*
%LPD*%
%LPC*%
G36*
X257393Y399414D02*
X257393Y399414D01*
X255904Y400903D01*
X255904Y411897D01*
X257393Y413386D01*
X265593Y413386D01*
X267090Y411890D01*
X267105Y411789D01*
X267122Y411642D01*
X267130Y411617D01*
X267134Y411591D01*
X267189Y411453D01*
X267239Y411314D01*
X267253Y411292D01*
X267263Y411267D01*
X267348Y411146D01*
X267428Y411021D01*
X267447Y411003D01*
X267462Y410981D01*
X267572Y410882D01*
X267679Y410779D01*
X267701Y410765D01*
X267721Y410748D01*
X267851Y410676D01*
X267978Y410600D01*
X268003Y410592D01*
X268026Y410579D01*
X268169Y410539D01*
X268310Y410494D01*
X268336Y410492D01*
X268361Y410484D01*
X268605Y410465D01*
X273503Y410465D01*
X273529Y410468D01*
X273555Y410466D01*
X273702Y410488D01*
X273849Y410505D01*
X273874Y410513D01*
X273900Y410517D01*
X274038Y410572D01*
X274177Y410622D01*
X274199Y410636D01*
X274224Y410646D01*
X274345Y410731D01*
X274470Y410811D01*
X274488Y410830D01*
X274510Y410845D01*
X274609Y410955D01*
X274712Y411062D01*
X274726Y411084D01*
X274743Y411104D01*
X274815Y411234D01*
X274826Y411253D01*
X276515Y412941D01*
X287619Y412941D01*
X289108Y411452D01*
X289108Y401348D01*
X287619Y399859D01*
X276515Y399859D01*
X274848Y401526D01*
X274845Y401533D01*
X274760Y401654D01*
X274680Y401779D01*
X274661Y401797D01*
X274646Y401819D01*
X274536Y401918D01*
X274429Y402021D01*
X274407Y402035D01*
X274387Y402052D01*
X274257Y402124D01*
X274130Y402200D01*
X274105Y402208D01*
X274082Y402221D01*
X273939Y402261D01*
X273798Y402306D01*
X273772Y402308D01*
X273747Y402316D01*
X273503Y402335D01*
X268605Y402335D01*
X268579Y402332D01*
X268553Y402334D01*
X268406Y402312D01*
X268259Y402295D01*
X268234Y402287D01*
X268208Y402283D01*
X268070Y402228D01*
X267931Y402178D01*
X267909Y402164D01*
X267884Y402154D01*
X267763Y402069D01*
X267638Y401989D01*
X267620Y401970D01*
X267598Y401955D01*
X267499Y401845D01*
X267396Y401738D01*
X267382Y401716D01*
X267365Y401696D01*
X267293Y401566D01*
X267217Y401439D01*
X267209Y401414D01*
X267196Y401391D01*
X267156Y401248D01*
X267111Y401107D01*
X267109Y401081D01*
X267101Y401056D01*
X267090Y400911D01*
X265593Y399414D01*
X257393Y399414D01*
G37*
%LPD*%
%LPC*%
G36*
X276515Y234759D02*
X276515Y234759D01*
X275026Y236248D01*
X275026Y236474D01*
X275023Y236500D01*
X275025Y236526D01*
X275003Y236673D01*
X274986Y236820D01*
X274978Y236845D01*
X274974Y236871D01*
X274919Y237009D01*
X274869Y237148D01*
X274855Y237170D01*
X274845Y237195D01*
X274760Y237316D01*
X274680Y237441D01*
X274661Y237459D01*
X274646Y237481D01*
X274536Y237580D01*
X274429Y237683D01*
X274407Y237697D01*
X274387Y237714D01*
X274257Y237786D01*
X274130Y237862D01*
X274105Y237870D01*
X274082Y237883D01*
X273939Y237923D01*
X273798Y237968D01*
X273772Y237970D01*
X273747Y237978D01*
X273503Y237997D01*
X267007Y237997D01*
X266882Y237983D01*
X266756Y237976D01*
X266709Y237963D01*
X266661Y237957D01*
X266542Y237915D01*
X266421Y237880D01*
X266379Y237856D01*
X266333Y237840D01*
X266227Y237771D01*
X266117Y237710D01*
X266070Y237670D01*
X266040Y237651D01*
X266007Y237616D01*
X265930Y237551D01*
X264993Y236614D01*
X256793Y236614D01*
X255304Y238103D01*
X255304Y249097D01*
X256793Y250586D01*
X264993Y250586D01*
X266482Y249097D01*
X266482Y246126D01*
X266485Y246100D01*
X266483Y246074D01*
X266505Y245927D01*
X266522Y245780D01*
X266530Y245755D01*
X266534Y245729D01*
X266589Y245591D01*
X266639Y245452D01*
X266653Y245430D01*
X266663Y245405D01*
X266748Y245284D01*
X266828Y245159D01*
X266847Y245141D01*
X266862Y245119D01*
X266972Y245020D01*
X267079Y244917D01*
X267101Y244903D01*
X267121Y244886D01*
X267251Y244814D01*
X267378Y244738D01*
X267403Y244730D01*
X267426Y244717D01*
X267569Y244677D01*
X267710Y244632D01*
X267736Y244630D01*
X267761Y244622D01*
X268005Y244603D01*
X273503Y244603D01*
X273529Y244606D01*
X273555Y244604D01*
X273702Y244626D01*
X273849Y244643D01*
X273874Y244651D01*
X273900Y244655D01*
X274038Y244710D01*
X274177Y244760D01*
X274199Y244774D01*
X274224Y244784D01*
X274345Y244869D01*
X274470Y244949D01*
X274488Y244968D01*
X274510Y244983D01*
X274609Y245093D01*
X274712Y245200D01*
X274726Y245222D01*
X274743Y245242D01*
X274815Y245372D01*
X274891Y245499D01*
X274899Y245524D01*
X274912Y245547D01*
X274952Y245690D01*
X274997Y245831D01*
X274999Y245857D01*
X275007Y245882D01*
X275026Y246126D01*
X275026Y246352D01*
X276515Y247841D01*
X287619Y247841D01*
X289108Y246352D01*
X289108Y236248D01*
X287619Y234759D01*
X276515Y234759D01*
G37*
%LPD*%
%LPC*%
G36*
X304132Y229903D02*
X304132Y229903D01*
X308991Y229903D01*
X309017Y229906D01*
X309043Y229904D01*
X309190Y229926D01*
X309337Y229943D01*
X309362Y229951D01*
X309388Y229955D01*
X309526Y230010D01*
X309665Y230060D01*
X309687Y230074D01*
X309712Y230084D01*
X309833Y230169D01*
X309958Y230249D01*
X309976Y230268D01*
X309998Y230283D01*
X310097Y230393D01*
X310200Y230500D01*
X310214Y230522D01*
X310231Y230542D01*
X310303Y230672D01*
X310379Y230799D01*
X310387Y230824D01*
X310400Y230847D01*
X310440Y230990D01*
X310485Y231131D01*
X310487Y231157D01*
X310495Y231182D01*
X310514Y231426D01*
X310514Y232378D01*
X310511Y232404D01*
X310513Y232430D01*
X310491Y232577D01*
X310474Y232724D01*
X310466Y232749D01*
X310462Y232775D01*
X310407Y232913D01*
X310357Y233052D01*
X310343Y233074D01*
X310333Y233099D01*
X310248Y233220D01*
X310168Y233345D01*
X310149Y233363D01*
X310134Y233385D01*
X310024Y233484D01*
X309917Y233587D01*
X309895Y233601D01*
X309875Y233618D01*
X309745Y233690D01*
X309618Y233766D01*
X309593Y233774D01*
X309570Y233787D01*
X309427Y233827D01*
X309286Y233872D01*
X309260Y233874D01*
X309235Y233882D01*
X308991Y233901D01*
X304132Y233901D01*
X304132Y238443D01*
X306968Y238443D01*
X307614Y238270D01*
X308193Y237935D01*
X308407Y237721D01*
X308447Y237689D01*
X308481Y237652D01*
X308583Y237581D01*
X308680Y237504D01*
X308726Y237483D01*
X308768Y237454D01*
X308883Y237408D01*
X308995Y237356D01*
X309045Y237345D01*
X309093Y237326D01*
X309215Y237308D01*
X309336Y237282D01*
X309387Y237283D01*
X309437Y237276D01*
X309561Y237286D01*
X309684Y237288D01*
X309734Y237301D01*
X309785Y237305D01*
X309902Y237343D01*
X310022Y237373D01*
X310068Y237396D01*
X310116Y237412D01*
X310222Y237476D01*
X310332Y237533D01*
X310371Y237566D01*
X310415Y237592D01*
X310503Y237678D01*
X310598Y237759D01*
X310628Y237800D01*
X310664Y237835D01*
X310803Y238037D01*
X311022Y238415D01*
X311495Y238888D01*
X312074Y239223D01*
X312720Y239396D01*
X315977Y239396D01*
X315977Y233807D01*
X315977Y228218D01*
X312720Y228218D01*
X312074Y228391D01*
X311459Y228747D01*
X311389Y228777D01*
X311324Y228816D01*
X311230Y228846D01*
X311139Y228885D01*
X311064Y228899D01*
X310992Y228922D01*
X310894Y228930D01*
X310796Y228948D01*
X310720Y228944D01*
X310645Y228950D01*
X310547Y228935D01*
X310448Y228930D01*
X310375Y228910D01*
X310300Y228898D01*
X310208Y228862D01*
X310113Y228835D01*
X310047Y228798D01*
X309976Y228770D01*
X309895Y228713D01*
X309808Y228665D01*
X309752Y228614D01*
X309690Y228571D01*
X309624Y228497D01*
X309550Y228431D01*
X309507Y228368D01*
X309457Y228312D01*
X309409Y228225D01*
X309353Y228144D01*
X309325Y228073D01*
X309288Y228007D01*
X309261Y227912D01*
X309225Y227819D01*
X309214Y227744D01*
X309193Y227672D01*
X309190Y227627D01*
X309001Y226921D01*
X308666Y226342D01*
X308193Y225869D01*
X307614Y225534D01*
X306968Y225361D01*
X304132Y225361D01*
X304132Y229903D01*
G37*
%LPD*%
%LPC*%
G36*
X304132Y312453D02*
X304132Y312453D01*
X308991Y312453D01*
X309017Y312456D01*
X309043Y312454D01*
X309190Y312476D01*
X309337Y312493D01*
X309362Y312501D01*
X309388Y312505D01*
X309526Y312560D01*
X309665Y312610D01*
X309687Y312624D01*
X309712Y312634D01*
X309833Y312719D01*
X309958Y312799D01*
X309976Y312818D01*
X309998Y312833D01*
X310097Y312943D01*
X310200Y313050D01*
X310214Y313072D01*
X310231Y313092D01*
X310303Y313222D01*
X310379Y313349D01*
X310387Y313374D01*
X310400Y313397D01*
X310440Y313540D01*
X310485Y313681D01*
X310487Y313707D01*
X310495Y313732D01*
X310514Y313976D01*
X310514Y314928D01*
X310511Y314954D01*
X310513Y314980D01*
X310491Y315127D01*
X310474Y315274D01*
X310466Y315299D01*
X310462Y315325D01*
X310407Y315463D01*
X310357Y315602D01*
X310343Y315624D01*
X310333Y315649D01*
X310248Y315770D01*
X310168Y315895D01*
X310149Y315913D01*
X310134Y315935D01*
X310024Y316034D01*
X309917Y316137D01*
X309895Y316151D01*
X309875Y316168D01*
X309745Y316240D01*
X309618Y316316D01*
X309593Y316324D01*
X309570Y316337D01*
X309427Y316377D01*
X309286Y316422D01*
X309260Y316424D01*
X309235Y316432D01*
X308991Y316451D01*
X304132Y316451D01*
X304132Y320993D01*
X306968Y320993D01*
X307614Y320820D01*
X308193Y320485D01*
X308407Y320271D01*
X308447Y320239D01*
X308481Y320202D01*
X308583Y320131D01*
X308680Y320054D01*
X308726Y320033D01*
X308768Y320004D01*
X308883Y319958D01*
X308995Y319906D01*
X309045Y319895D01*
X309093Y319876D01*
X309215Y319858D01*
X309336Y319832D01*
X309387Y319833D01*
X309437Y319826D01*
X309561Y319836D01*
X309684Y319838D01*
X309734Y319851D01*
X309785Y319855D01*
X309902Y319893D01*
X310022Y319923D01*
X310068Y319946D01*
X310116Y319962D01*
X310222Y320026D01*
X310332Y320083D01*
X310371Y320116D01*
X310415Y320142D01*
X310503Y320228D01*
X310598Y320309D01*
X310628Y320350D01*
X310664Y320385D01*
X310803Y320587D01*
X311022Y320965D01*
X311495Y321438D01*
X312074Y321773D01*
X312720Y321946D01*
X315977Y321946D01*
X315977Y316357D01*
X315977Y310768D01*
X312720Y310768D01*
X312074Y310941D01*
X311459Y311297D01*
X311389Y311327D01*
X311324Y311366D01*
X311230Y311396D01*
X311139Y311435D01*
X311064Y311449D01*
X310992Y311472D01*
X310894Y311480D01*
X310796Y311498D01*
X310720Y311494D01*
X310645Y311500D01*
X310547Y311485D01*
X310448Y311480D01*
X310375Y311460D01*
X310300Y311448D01*
X310208Y311412D01*
X310113Y311385D01*
X310047Y311348D01*
X309976Y311320D01*
X309895Y311263D01*
X309808Y311215D01*
X309752Y311164D01*
X309690Y311121D01*
X309624Y311047D01*
X309550Y310981D01*
X309507Y310918D01*
X309457Y310862D01*
X309409Y310775D01*
X309353Y310694D01*
X309325Y310623D01*
X309288Y310557D01*
X309261Y310462D01*
X309225Y310369D01*
X309214Y310294D01*
X309193Y310222D01*
X309190Y310177D01*
X309001Y309471D01*
X308666Y308892D01*
X308193Y308419D01*
X307614Y308084D01*
X306968Y307911D01*
X304132Y307911D01*
X304132Y312453D01*
G37*
%LPD*%
%LPC*%
G36*
X304132Y395003D02*
X304132Y395003D01*
X308991Y395003D01*
X309017Y395006D01*
X309043Y395004D01*
X309190Y395026D01*
X309337Y395043D01*
X309362Y395051D01*
X309388Y395055D01*
X309526Y395110D01*
X309665Y395160D01*
X309687Y395174D01*
X309712Y395184D01*
X309833Y395269D01*
X309958Y395349D01*
X309976Y395368D01*
X309998Y395383D01*
X310097Y395493D01*
X310200Y395600D01*
X310214Y395622D01*
X310231Y395642D01*
X310303Y395772D01*
X310379Y395899D01*
X310387Y395924D01*
X310400Y395947D01*
X310440Y396090D01*
X310485Y396231D01*
X310487Y396257D01*
X310495Y396282D01*
X310514Y396526D01*
X310514Y397478D01*
X310511Y397504D01*
X310513Y397530D01*
X310491Y397677D01*
X310474Y397824D01*
X310466Y397849D01*
X310462Y397875D01*
X310407Y398013D01*
X310357Y398152D01*
X310343Y398174D01*
X310333Y398199D01*
X310248Y398320D01*
X310168Y398445D01*
X310149Y398463D01*
X310134Y398485D01*
X310024Y398584D01*
X309917Y398687D01*
X309895Y398701D01*
X309875Y398718D01*
X309745Y398790D01*
X309618Y398866D01*
X309593Y398874D01*
X309570Y398887D01*
X309427Y398927D01*
X309286Y398972D01*
X309260Y398974D01*
X309235Y398982D01*
X308991Y399001D01*
X304132Y399001D01*
X304132Y403543D01*
X306968Y403543D01*
X307614Y403370D01*
X308193Y403035D01*
X308407Y402821D01*
X308447Y402789D01*
X308481Y402752D01*
X308554Y402701D01*
X308577Y402681D01*
X308599Y402668D01*
X308680Y402604D01*
X308726Y402583D01*
X308768Y402554D01*
X308883Y402508D01*
X308995Y402456D01*
X309045Y402445D01*
X309093Y402426D01*
X309215Y402408D01*
X309336Y402382D01*
X309387Y402383D01*
X309437Y402376D01*
X309561Y402386D01*
X309684Y402388D01*
X309734Y402401D01*
X309785Y402405D01*
X309902Y402443D01*
X310022Y402473D01*
X310068Y402496D01*
X310116Y402512D01*
X310222Y402576D01*
X310332Y402633D01*
X310371Y402666D01*
X310415Y402692D01*
X310503Y402778D01*
X310598Y402859D01*
X310628Y402900D01*
X310664Y402935D01*
X310703Y402991D01*
X310707Y402995D01*
X310714Y403007D01*
X310803Y403137D01*
X311022Y403515D01*
X311495Y403988D01*
X312074Y404323D01*
X312720Y404496D01*
X315977Y404496D01*
X315977Y398907D01*
X315977Y393318D01*
X312720Y393318D01*
X312074Y393491D01*
X311459Y393847D01*
X311389Y393877D01*
X311324Y393916D01*
X311230Y393946D01*
X311139Y393985D01*
X311064Y393999D01*
X310992Y394022D01*
X310894Y394030D01*
X310796Y394048D01*
X310720Y394044D01*
X310645Y394050D01*
X310547Y394035D01*
X310448Y394030D01*
X310375Y394010D01*
X310300Y393998D01*
X310208Y393962D01*
X310113Y393935D01*
X310047Y393898D01*
X309976Y393870D01*
X309895Y393813D01*
X309808Y393765D01*
X309752Y393714D01*
X309690Y393671D01*
X309624Y393597D01*
X309550Y393531D01*
X309507Y393468D01*
X309457Y393412D01*
X309409Y393325D01*
X309353Y393244D01*
X309325Y393173D01*
X309288Y393107D01*
X309261Y393012D01*
X309225Y392919D01*
X309214Y392844D01*
X309193Y392772D01*
X309190Y392727D01*
X309001Y392021D01*
X308666Y391442D01*
X308193Y390969D01*
X307614Y390634D01*
X306968Y390461D01*
X304132Y390461D01*
X304132Y395003D01*
G37*
%LPD*%
%LPC*%
G36*
X295092Y399001D02*
X295092Y399001D01*
X295092Y401337D01*
X295265Y401983D01*
X295600Y402562D01*
X296073Y403035D01*
X296652Y403370D01*
X297298Y403543D01*
X300134Y403543D01*
X300134Y399001D01*
X295092Y399001D01*
G37*
%LPD*%
%LPC*%
G36*
X295092Y316451D02*
X295092Y316451D01*
X295092Y318787D01*
X295265Y319433D01*
X295600Y320012D01*
X296073Y320485D01*
X296652Y320820D01*
X297298Y320993D01*
X300134Y320993D01*
X300134Y316451D01*
X295092Y316451D01*
G37*
%LPD*%
%LPC*%
G36*
X295092Y233901D02*
X295092Y233901D01*
X295092Y236237D01*
X295265Y236883D01*
X295600Y237462D01*
X296073Y237935D01*
X296652Y238270D01*
X297298Y238443D01*
X300134Y238443D01*
X300134Y233901D01*
X295092Y233901D01*
G37*
%LPD*%
%LPC*%
G36*
X297298Y390461D02*
X297298Y390461D01*
X296652Y390634D01*
X296073Y390969D01*
X295600Y391442D01*
X295265Y392021D01*
X295236Y392132D01*
X295092Y392667D01*
X295092Y395003D01*
X300134Y395003D01*
X300134Y390461D01*
X297298Y390461D01*
G37*
%LPD*%
%LPC*%
G36*
X297298Y307911D02*
X297298Y307911D01*
X296652Y308084D01*
X296073Y308419D01*
X295600Y308892D01*
X295265Y309471D01*
X295092Y310117D01*
X295092Y312453D01*
X300134Y312453D01*
X300134Y307911D01*
X297298Y307911D01*
G37*
%LPD*%
%LPC*%
G36*
X297298Y225361D02*
X297298Y225361D01*
X296652Y225534D01*
X296073Y225869D01*
X295600Y226342D01*
X295265Y226921D01*
X295092Y227567D01*
X295092Y229903D01*
X300134Y229903D01*
X300134Y225361D01*
X297298Y225361D01*
G37*
%LPD*%
%LPC*%
G36*
X319023Y400430D02*
X319023Y400430D01*
X319023Y404496D01*
X322280Y404496D01*
X322926Y404323D01*
X323505Y403988D01*
X323978Y403515D01*
X324313Y402936D01*
X324486Y402290D01*
X324486Y400430D01*
X319023Y400430D01*
G37*
%LPD*%
%LPC*%
G36*
X319023Y235330D02*
X319023Y235330D01*
X319023Y239396D01*
X322280Y239396D01*
X322926Y239223D01*
X323505Y238888D01*
X323978Y238415D01*
X324313Y237836D01*
X324486Y237190D01*
X324486Y235330D01*
X319023Y235330D01*
G37*
%LPD*%
%LPC*%
G36*
X319023Y317880D02*
X319023Y317880D01*
X319023Y321946D01*
X322280Y321946D01*
X322926Y321773D01*
X323505Y321438D01*
X323978Y320965D01*
X324313Y320386D01*
X324486Y319740D01*
X324486Y317880D01*
X319023Y317880D01*
G37*
%LPD*%
%LPC*%
G36*
X319023Y393318D02*
X319023Y393318D01*
X319023Y397384D01*
X324486Y397384D01*
X324486Y395524D01*
X324313Y394878D01*
X323978Y394299D01*
X323505Y393826D01*
X322926Y393491D01*
X322280Y393318D01*
X319023Y393318D01*
G37*
%LPD*%
%LPC*%
G36*
X319023Y310768D02*
X319023Y310768D01*
X319023Y314834D01*
X324486Y314834D01*
X324486Y312974D01*
X324313Y312328D01*
X323978Y311749D01*
X323505Y311276D01*
X322926Y310941D01*
X322280Y310768D01*
X319023Y310768D01*
G37*
%LPD*%
%LPC*%
G36*
X319023Y228218D02*
X319023Y228218D01*
X319023Y232284D01*
X324486Y232284D01*
X324486Y230424D01*
X324313Y229778D01*
X323978Y229199D01*
X323505Y228726D01*
X322926Y228391D01*
X322280Y228218D01*
X319023Y228218D01*
G37*
%LPD*%
%LPC*%
G36*
X468423Y339023D02*
X468423Y339023D01*
X468423Y342041D01*
X471984Y342041D01*
X472631Y341868D01*
X473210Y341533D01*
X473683Y341060D01*
X474018Y340481D01*
X474191Y339834D01*
X474191Y339023D01*
X468423Y339023D01*
G37*
%LPD*%
%LPC*%
G36*
X468423Y299023D02*
X468423Y299023D01*
X468423Y302041D01*
X471984Y302041D01*
X472631Y301868D01*
X473210Y301533D01*
X473683Y301060D01*
X474018Y300481D01*
X474191Y299834D01*
X474191Y299023D01*
X468423Y299023D01*
G37*
%LPD*%
%LPC*%
G36*
X459609Y339023D02*
X459609Y339023D01*
X459609Y339834D01*
X459782Y340481D01*
X460117Y341060D01*
X460590Y341533D01*
X461169Y341868D01*
X461816Y342041D01*
X465377Y342041D01*
X465377Y339023D01*
X459609Y339023D01*
G37*
%LPD*%
%LPC*%
G36*
X459609Y299023D02*
X459609Y299023D01*
X459609Y299834D01*
X459782Y300481D01*
X460117Y301060D01*
X460590Y301533D01*
X461169Y301868D01*
X461816Y302041D01*
X465377Y302041D01*
X465377Y299023D01*
X459609Y299023D01*
G37*
%LPD*%
%LPC*%
G36*
X468423Y332959D02*
X468423Y332959D01*
X468423Y335977D01*
X474191Y335977D01*
X474191Y335165D01*
X474018Y334519D01*
X473683Y333940D01*
X473210Y333467D01*
X472631Y333132D01*
X471984Y332959D01*
X468423Y332959D01*
G37*
%LPD*%
%LPC*%
G36*
X468423Y292959D02*
X468423Y292959D01*
X468423Y295977D01*
X474191Y295977D01*
X474191Y295165D01*
X474018Y294519D01*
X473683Y293940D01*
X473210Y293467D01*
X472631Y293132D01*
X471984Y292959D01*
X468423Y292959D01*
G37*
%LPD*%
%LPC*%
G36*
X461816Y332959D02*
X461816Y332959D01*
X461169Y333132D01*
X460590Y333467D01*
X460117Y333940D01*
X459782Y334519D01*
X459609Y335165D01*
X459609Y335977D01*
X465377Y335977D01*
X465377Y332959D01*
X461816Y332959D01*
G37*
%LPD*%
%LPC*%
G36*
X461816Y292959D02*
X461816Y292959D01*
X461169Y293132D01*
X460590Y293467D01*
X460117Y293940D01*
X459782Y294519D01*
X459609Y295165D01*
X459609Y295977D01*
X465377Y295977D01*
X465377Y292959D01*
X461816Y292959D01*
G37*
%LPD*%
D10*
X178000Y240000D03*
X122000Y240000D03*
D11*
X438150Y327500D03*
X438150Y322500D03*
X438150Y317500D03*
X438150Y312500D03*
D12*
X466900Y337500D03*
X466900Y297500D03*
D11*
X438150Y307500D03*
D13*
X302133Y333248D03*
X302133Y314452D03*
X282067Y323850D03*
X302133Y415798D03*
X302133Y397002D03*
X282067Y406400D03*
X302133Y250698D03*
X302133Y231902D03*
X282067Y241300D03*
D14*
X317500Y316357D03*
X317500Y331343D03*
D15*
X348107Y330200D03*
X363093Y330200D03*
D14*
X317500Y233807D03*
X317500Y248793D03*
D15*
X348107Y247650D03*
X363093Y247650D03*
D14*
X317500Y398907D03*
X317500Y413893D03*
D15*
X348107Y412750D03*
X363093Y412750D03*
X245907Y243600D03*
X260893Y243600D03*
D10*
X178000Y320000D03*
X122000Y320000D03*
D15*
X246507Y323850D03*
X261493Y323850D03*
D10*
X178000Y400000D03*
X122000Y400000D03*
D15*
X246507Y406400D03*
X261493Y406400D03*
D16*
X302133Y397002D02*
X308753Y397002D01*
X310658Y398907D01*
X317500Y398907D01*
X317500Y316357D02*
X309880Y316357D01*
X307975Y314452D01*
X302133Y314452D01*
X302133Y231902D02*
X306853Y231902D01*
X311058Y236107D01*
X316230Y236107D01*
X317500Y234837D01*
X317500Y233807D01*
D17*
X438150Y307500D02*
X456900Y307500D01*
X466900Y297500D01*
X292100Y321425D02*
X292100Y388620D01*
X299073Y314452D02*
X302133Y314452D01*
X299073Y314452D02*
X292100Y321425D01*
X302133Y314452D02*
X292100Y304419D01*
X295783Y231902D02*
X302133Y231902D01*
X295783Y231902D02*
X292100Y235585D01*
X292100Y304419D01*
X466900Y337500D02*
X466900Y401780D01*
X434340Y434340D01*
X299720Y434340D01*
X292100Y426720D01*
X292100Y403225D01*
X298323Y397002D01*
X302133Y397002D01*
X300482Y397002D02*
X292100Y388620D01*
X300482Y397002D02*
X302133Y397002D01*
X414100Y312500D02*
X438150Y312500D01*
X149910Y193040D02*
X122000Y220950D01*
X122000Y240000D01*
X408940Y307340D02*
X414100Y312500D01*
X408940Y307340D02*
X408940Y247650D01*
X354330Y193040D01*
X149910Y193040D01*
X122000Y240000D02*
X122000Y320000D01*
X122000Y400000D01*
D16*
X318643Y247650D02*
X348107Y247650D01*
X318643Y247650D02*
X317500Y248793D01*
X304038Y248793D01*
X302133Y250698D01*
X332093Y330200D02*
X348107Y330200D01*
X330950Y331343D02*
X317500Y331343D01*
X330950Y331343D02*
X332093Y330200D01*
X317500Y331343D02*
X311138Y331343D01*
X309233Y333248D02*
X302133Y333248D01*
X309233Y333248D02*
X311138Y331343D01*
X331143Y412750D02*
X348107Y412750D01*
X330000Y413893D02*
X317500Y413893D01*
X330000Y413893D02*
X331143Y412750D01*
X317500Y413893D02*
X310188Y413893D01*
X308283Y415798D02*
X302133Y415798D01*
X308283Y415798D02*
X310188Y413893D01*
X401590Y317500D02*
X438150Y317500D01*
X392430Y308340D02*
X392430Y256540D01*
X383540Y247650D01*
X363093Y247650D01*
X392430Y308340D02*
X401590Y317500D01*
X370793Y322500D02*
X438150Y322500D01*
X370793Y322500D02*
X363093Y330200D01*
X402550Y327500D02*
X438150Y327500D01*
X393100Y400450D02*
X380800Y412750D01*
X363093Y412750D01*
X393100Y336950D02*
X402550Y327500D01*
X393100Y336950D02*
X393100Y400450D01*
D17*
X232307Y240000D02*
X178000Y240000D01*
X232307Y240000D02*
X235907Y243600D01*
X245907Y243600D01*
D16*
X263193Y241300D02*
X282067Y241300D01*
X263193Y241300D02*
X260893Y243600D01*
D17*
X246507Y323850D02*
X234557Y323850D01*
X230707Y320000D01*
X178000Y320000D01*
X261493Y323850D02*
X282067Y323850D01*
X229107Y400000D02*
X178000Y400000D01*
X235507Y406400D02*
X246507Y406400D01*
X235507Y406400D02*
X229107Y400000D01*
X261493Y406400D02*
X282067Y406400D01*
M02*
