G04 EAGLE Gerber RS-274X export*
G75*
%MOMM*%
%FSLAX34Y34*%
%LPD*%
%INTop Copper*%
%IPPOS*%
%AMOC8*
5,1,8,0,0,1.08239X$1,22.5*%
G01*
%ADD10R,16.784322X0.005081*%
%ADD11R,16.824959X0.005078*%
%ADD12R,16.840200X0.005081*%
%ADD13R,16.850359X0.005081*%
%ADD14R,16.855441X0.005078*%
%ADD15R,16.865600X0.005081*%
%ADD16R,0.010159X0.005081*%
%ADD17R,16.870681X0.005078*%
%ADD18R,0.020322X0.005078*%
%ADD19R,16.875759X0.005081*%
%ADD20R,0.030481X0.005081*%
%ADD21R,16.880841X0.005081*%
%ADD22R,0.045719X0.005081*%
%ADD23R,16.885922X0.005078*%
%ADD24R,0.055878X0.005078*%
%ADD25R,16.891000X0.005081*%
%ADD26R,0.066041X0.005081*%
%ADD27R,16.896081X0.005078*%
%ADD28R,0.076200X0.005078*%
%ADD29R,16.901159X0.005081*%
%ADD30R,0.091438X0.005081*%
%ADD31R,0.096519X0.005081*%
%ADD32R,16.906241X0.005078*%
%ADD33R,0.111759X0.005078*%
%ADD34R,16.911322X0.005081*%
%ADD35R,0.127000X0.005081*%
%ADD36R,16.916400X0.005078*%
%ADD37R,0.137162X0.005078*%
%ADD38R,16.916400X0.005081*%
%ADD39R,0.142241X0.005081*%
%ADD40R,16.921481X0.005081*%
%ADD41R,0.157478X0.005081*%
%ADD42R,16.926559X0.005078*%
%ADD43R,0.172722X0.005078*%
%ADD44R,0.269238X0.005081*%
%ADD45R,0.177800X0.005081*%
%ADD46R,0.274319X0.005078*%
%ADD47R,0.193038X0.005078*%
%ADD48R,0.269241X0.005081*%
%ADD49R,0.203200X0.005081*%
%ADD50R,0.274322X0.005081*%
%ADD51R,0.213359X0.005081*%
%ADD52R,0.223519X0.005078*%
%ADD53R,0.238763X0.005081*%
%ADD54R,0.269241X0.005078*%
%ADD55R,0.248922X0.005078*%
%ADD56R,0.259081X0.005081*%
%ADD57R,0.259078X0.005081*%
%ADD58R,0.254000X0.005081*%
%ADD59R,0.243838X0.005078*%
%ADD60R,0.284481X0.005078*%
%ADD61R,0.238759X0.005081*%
%ADD62R,0.294641X0.005081*%
%ADD63R,0.228600X0.005078*%
%ADD64R,0.304800X0.005078*%
%ADD65R,0.223522X0.005081*%
%ADD66R,0.314959X0.005081*%
%ADD67R,0.213363X0.005081*%
%ADD68R,0.314963X0.005081*%
%ADD69R,0.213359X0.005078*%
%ADD70R,0.320041X0.005078*%
%ADD71R,0.208278X0.005081*%
%ADD72R,0.325119X0.005081*%
%ADD73R,0.208281X0.005078*%
%ADD74R,0.340359X0.005078*%
%ADD75R,0.198122X0.005081*%
%ADD76R,0.350519X0.005081*%
%ADD77R,0.198119X0.005081*%
%ADD78R,0.365759X0.005081*%
%ADD79R,0.386078X0.005078*%
%ADD80R,0.187959X0.005081*%
%ADD81R,0.406400X0.005081*%
%ADD82R,0.187959X0.005078*%
%ADD83R,0.005081X0.005078*%
%ADD84R,0.436878X0.005078*%
%ADD85R,0.553722X0.005081*%
%ADD86R,0.187963X0.005081*%
%ADD87R,0.579122X0.005081*%
%ADD88R,0.182881X0.005078*%
%ADD89R,0.599441X0.005078*%
%ADD90R,0.614678X0.005081*%
%ADD91R,0.177800X0.005078*%
%ADD92R,0.629919X0.005078*%
%ADD93R,0.640081X0.005081*%
%ADD94R,0.172719X0.005081*%
%ADD95R,0.655322X0.005081*%
%ADD96R,0.665481X0.005078*%
%ADD97R,0.172722X0.005081*%
%ADD98R,0.675641X0.005081*%
%ADD99R,0.172719X0.005078*%
%ADD100R,0.685800X0.005078*%
%ADD101R,0.701037X0.005081*%
%ADD102R,0.167637X0.005081*%
%ADD103R,0.706122X0.005081*%
%ADD104R,0.162559X0.005078*%
%ADD105R,0.711200X0.005078*%
%ADD106R,0.167641X0.005081*%
%ADD107R,0.716281X0.005081*%
%ADD108R,0.716281X0.005078*%
%ADD109R,0.162559X0.005081*%
%ADD110R,0.711200X0.005081*%
%ADD111R,0.162562X0.005081*%
%ADD112R,0.695959X0.005081*%
%ADD113R,0.162562X0.005078*%
%ADD114R,0.690881X0.005078*%
%ADD115R,0.157481X0.005081*%
%ADD116R,0.680722X0.005081*%
%ADD117R,0.675641X0.005078*%
%ADD118R,0.670559X0.005081*%
%ADD119R,0.665478X0.005081*%
%ADD120R,0.157478X0.005078*%
%ADD121R,0.670559X0.005078*%
%ADD122R,0.157481X0.005078*%
%ADD123R,0.670563X0.005078*%
%ADD124R,0.152400X0.005081*%
%ADD125R,0.152400X0.005078*%
%ADD126R,0.147319X0.005081*%
%ADD127R,0.660400X0.005081*%
%ADD128R,0.147319X0.005078*%
%ADD129R,0.655322X0.005078*%
%ADD130R,0.650241X0.005081*%
%ADD131R,0.640078X0.005078*%
%ADD132R,0.629919X0.005081*%
%ADD133R,0.614681X0.005081*%
%ADD134R,0.594359X0.005078*%
%ADD135R,0.528322X0.005081*%
%ADD136R,0.147322X0.005078*%
%ADD137R,0.508000X0.005078*%
%ADD138R,0.147322X0.005081*%
%ADD139R,0.497841X0.005081*%
%ADD140R,0.487678X0.005081*%
%ADD141R,0.482600X0.005078*%
%ADD142R,0.472441X0.005081*%
%ADD143R,0.467359X0.005078*%
%ADD144R,0.467359X0.005081*%
%ADD145R,0.462278X0.005081*%
%ADD146R,0.142241X0.005078*%
%ADD147R,0.457200X0.005078*%
%ADD148R,0.457200X0.005081*%
%ADD149R,0.452122X0.005078*%
%ADD150R,0.452122X0.005081*%
%ADD151R,0.452119X0.005078*%
%ADD152R,0.447041X0.005081*%
%ADD153R,0.447038X0.005078*%
%ADD154R,0.142238X0.005081*%
%ADD155R,0.441959X0.005081*%
%ADD156R,0.142238X0.005078*%
%ADD157R,0.441959X0.005078*%
%ADD158R,0.441963X0.005078*%
%ADD159R,0.436881X0.005081*%
%ADD160R,0.436881X0.005078*%
%ADD161R,0.436878X0.005081*%
%ADD162R,0.452119X0.005081*%
%ADD163R,0.447038X0.005081*%
%ADD164R,0.447041X0.005078*%
%ADD165R,0.137159X0.005078*%
%ADD166R,0.462278X0.005078*%
%ADD167R,0.137159X0.005081*%
%ADD168R,0.472441X0.005078*%
%ADD169R,0.477519X0.005078*%
%ADD170R,0.482600X0.005081*%
%ADD171R,0.487681X0.005081*%
%ADD172R,0.492759X0.005078*%
%ADD173R,0.502922X0.005078*%
%ADD174R,0.508000X0.005081*%
%ADD175R,0.513078X0.005081*%
%ADD176R,0.518162X0.005078*%
%ADD177R,0.523238X0.005081*%
%ADD178R,0.533400X0.005078*%
%ADD179R,0.533400X0.005081*%
%ADD180R,0.543559X0.005081*%
%ADD181R,0.553719X0.005078*%
%ADD182R,0.558800X0.005081*%
%ADD183R,0.574041X0.005078*%
%ADD184R,0.584200X0.005081*%
%ADD185R,0.594359X0.005081*%
%ADD186R,0.604522X0.005078*%
%ADD187R,0.629922X0.005078*%
%ADD188R,0.680722X0.005078*%
%ADD189R,0.690881X0.005081*%
%ADD190R,0.726441X0.005081*%
%ADD191R,0.736600X0.005081*%
%ADD192R,0.751841X0.005078*%
%ADD193R,0.762000X0.005081*%
%ADD194R,0.772159X0.005078*%
%ADD195R,0.777241X0.005081*%
%ADD196R,0.782319X0.005081*%
%ADD197R,0.787400X0.005078*%
%ADD198R,0.787400X0.005081*%
%ADD199R,0.777238X0.005078*%
%ADD200R,0.772159X0.005081*%
%ADD201R,0.767081X0.005078*%
%ADD202R,0.756922X0.005081*%
%ADD203R,0.746759X0.005081*%
%ADD204R,0.726441X0.005078*%
%ADD205R,0.716278X0.005081*%
%ADD206R,0.701037X0.005078*%
%ADD207R,0.665478X0.005078*%
%ADD208R,0.635000X0.005078*%
%ADD209R,0.619759X0.005081*%
%ADD210R,0.599441X0.005081*%
%ADD211R,0.584200X0.005078*%
%ADD212R,0.543559X0.005078*%
%ADD213R,0.523241X0.005081*%
%ADD214R,0.502922X0.005081*%
%ADD215R,0.462281X0.005081*%
%ADD216R,0.421641X0.005081*%
%ADD217R,0.411481X0.005081*%
%ADD218R,0.396241X0.005078*%
%ADD219R,0.381000X0.005081*%
%ADD220R,0.370838X0.005078*%
%ADD221R,0.360681X0.005081*%
%ADD222R,0.350522X0.005081*%
%ADD223R,0.350522X0.005078*%
%ADD224R,0.340359X0.005081*%
%ADD225R,0.335281X0.005078*%
%ADD226R,0.330200X0.005081*%
%ADD227R,0.325122X0.005081*%
%ADD228R,0.320038X0.005078*%
%ADD229R,0.314959X0.005078*%
%ADD230R,0.309878X0.005081*%
%ADD231R,0.304800X0.005081*%
%ADD232R,0.299719X0.005081*%
%ADD233R,0.294641X0.005078*%
%ADD234R,0.299722X0.005081*%
%ADD235R,0.294637X0.005078*%
%ADD236R,0.289563X0.005081*%
%ADD237R,0.289559X0.005078*%
%ADD238R,0.289559X0.005081*%
%ADD239R,0.284478X0.005081*%
%ADD240R,0.284481X0.005081*%
%ADD241R,0.279400X0.005078*%
%ADD242R,0.279400X0.005081*%
%ADD243R,0.284478X0.005078*%
%ADD244R,0.274319X0.005081*%
%ADD245R,0.274322X0.005078*%
%ADD246R,0.269238X0.005078*%
%ADD247R,0.264159X0.005078*%
%ADD248R,0.264159X0.005081*%
%ADD249R,0.264163X0.005078*%
%ADD250R,0.264163X0.005081*%
%ADD251R,0.259081X0.005078*%
%ADD252R,0.259078X0.005078*%
%ADD253R,0.254000X0.005078*%
%ADD254R,0.248919X0.005081*%
%ADD255R,0.248919X0.005078*%
%ADD256R,0.248922X0.005081*%
%ADD257R,0.243841X0.005081*%
%ADD258R,0.243841X0.005078*%
%ADD259R,0.243838X0.005081*%
%ADD260R,0.238759X0.005078*%
%ADD261R,0.233681X0.005081*%
%ADD262R,0.233678X0.005081*%
%ADD263R,0.233681X0.005078*%
%ADD264R,0.233678X0.005078*%
%ADD265R,0.228600X0.005081*%
%ADD266R,0.223519X0.005081*%
%ADD267R,0.223522X0.005078*%
%ADD268R,0.218441X0.005078*%
%ADD269R,0.218441X0.005081*%
%ADD270R,0.218438X0.005081*%
%ADD271R,0.208281X0.005081*%
%ADD272R,0.213363X0.005078*%
%ADD273R,0.208278X0.005078*%
%ADD274R,0.203200X0.005078*%
%ADD275R,0.198122X0.005078*%
%ADD276R,0.198119X0.005078*%
%ADD277R,0.193041X0.005081*%
%ADD278R,0.193041X0.005078*%
%ADD279R,0.193038X0.005081*%
%ADD280R,0.132078X0.005078*%
%ADD281R,0.182881X0.005081*%
%ADD282R,0.370841X0.005078*%
%ADD283R,0.386078X0.005081*%
%ADD284R,0.406400X0.005078*%
%ADD285R,0.426719X0.005081*%
%ADD286R,0.441963X0.005081*%
%ADD287R,0.487678X0.005078*%
%ADD288R,0.502919X0.005081*%
%ADD289R,0.518162X0.005081*%
%ADD290R,0.558800X0.005078*%
%ADD291R,0.568959X0.005081*%
%ADD292R,0.604522X0.005081*%
%ADD293R,0.619759X0.005078*%
%ADD294R,0.635000X0.005081*%
%ADD295R,0.645159X0.005081*%
%ADD296R,0.655319X0.005078*%
%ADD297R,0.665481X0.005081*%
%ADD298R,0.685800X0.005081*%
%ADD299R,0.701041X0.005081*%
%ADD300R,0.721359X0.005081*%
%ADD301R,0.731519X0.005078*%
%ADD302R,0.431800X0.005081*%
%ADD303R,0.401319X0.005078*%
%ADD304R,0.386081X0.005081*%
%ADD305R,0.375919X0.005078*%
%ADD306R,0.370838X0.005081*%
%ADD307R,0.355600X0.005078*%
%ADD308R,0.345438X0.005078*%
%ADD309R,0.330200X0.005078*%
%ADD310R,0.320041X0.005081*%
%ADD311R,0.325119X0.005078*%
%ADD312R,0.309881X0.005081*%
%ADD313R,0.309881X0.005078*%
%ADD314R,0.182878X0.005078*%
%ADD315R,0.309878X0.005078*%
%ADD316R,0.299719X0.005078*%
%ADD317R,0.167641X0.005078*%
%ADD318R,0.335281X0.005081*%
%ADD319R,0.340363X0.005081*%
%ADD320R,0.690878X0.005078*%
%ADD321R,0.167637X0.005078*%
%ADD322R,0.609600X0.005081*%
%ADD323R,0.594363X0.005078*%
%ADD324R,0.568959X0.005078*%
%ADD325R,0.518159X0.005081*%
%ADD326R,0.477522X0.005081*%
%ADD327R,0.462281X0.005078*%
%ADD328R,0.431800X0.005078*%
%ADD329R,0.416563X0.005081*%
%ADD330R,0.401319X0.005081*%
%ADD331R,0.381000X0.005078*%
%ADD332R,0.345441X0.005078*%
%ADD333R,0.086363X0.005081*%
%ADD334R,0.137162X0.005081*%
%ADD335R,0.182878X0.005081*%
%ADD336R,0.187963X0.005078*%
%ADD337R,0.391159X0.005081*%
%ADD338R,0.375922X0.005081*%
%ADD339R,0.360678X0.005081*%
%ADD340R,0.345441X0.005081*%
%ADD341R,0.335278X0.005081*%
%ADD342R,0.325122X0.005078*%
%ADD343R,0.132081X0.005078*%
%ADD344R,0.106681X0.005081*%
%ADD345R,0.081281X0.005078*%


D10*
X325072Y600000D03*
D11*
X325275Y600051D03*
D12*
X325352Y600102D03*
D13*
X325402Y600152D03*
D14*
X325428Y600203D03*
D15*
X325479Y600254D03*
D16*
X510238Y600254D03*
D17*
X325504Y600305D03*
D18*
X510238Y600305D03*
D19*
X325529Y600356D03*
D20*
X510187Y600356D03*
D21*
X325555Y600406D03*
D22*
X510162Y600406D03*
D23*
X325580Y600457D03*
D24*
X510111Y600457D03*
D25*
X325606Y600508D03*
D26*
X510111Y600508D03*
D27*
X325631Y600559D03*
D28*
X510060Y600559D03*
D29*
X325656Y600610D03*
D30*
X510035Y600610D03*
D29*
X325656Y600660D03*
D31*
X510010Y600660D03*
D32*
X325682Y600711D03*
D33*
X509984Y600711D03*
D34*
X325707Y600762D03*
D35*
X509959Y600762D03*
D36*
X325733Y600813D03*
D37*
X509908Y600813D03*
D38*
X325733Y600864D03*
D39*
X509883Y600864D03*
D40*
X325758Y600914D03*
D41*
X509857Y600914D03*
D42*
X325783Y600965D03*
D43*
X509832Y600965D03*
D44*
X409070Y601016D03*
D45*
X509806Y601016D03*
D46*
X409095Y601067D03*
D47*
X509781Y601067D03*
D48*
X409121Y601118D03*
D49*
X509730Y601118D03*
D50*
X409146Y601168D03*
D51*
X509730Y601168D03*
D46*
X409197Y601219D03*
D52*
X509679Y601219D03*
D48*
X409222Y601270D03*
D53*
X509654Y601270D03*
D54*
X409273Y601321D03*
D55*
X509603Y601321D03*
D56*
X409324Y601372D03*
D57*
X509603Y601372D03*
D58*
X409400Y601422D03*
D48*
X509552Y601422D03*
D59*
X409451Y601473D03*
D60*
X509527Y601473D03*
D61*
X409527Y601524D03*
D62*
X509476Y601524D03*
D63*
X409578Y601575D03*
D64*
X509425Y601575D03*
D65*
X409654Y601626D03*
D66*
X509375Y601626D03*
D67*
X409705Y601676D03*
D68*
X509273Y601676D03*
D69*
X409756Y601727D03*
D70*
X509197Y601727D03*
D71*
X409781Y601778D03*
D72*
X509121Y601778D03*
D73*
X409832Y601829D03*
D74*
X509044Y601829D03*
D75*
X409883Y601880D03*
D76*
X508994Y601880D03*
D77*
X409934Y601930D03*
D78*
X508917Y601930D03*
D47*
X409959Y601981D03*
D79*
X508816Y601981D03*
D80*
X409984Y602032D03*
D81*
X508714Y602032D03*
D82*
X410035Y602083D03*
D83*
X505742Y602083D03*
D84*
X508562Y602083D03*
D80*
X410035Y602134D03*
D85*
X507927Y602134D03*
D86*
X410086Y602184D03*
D87*
X507800Y602184D03*
D88*
X410111Y602235D03*
D89*
X507698Y602235D03*
D45*
X410137Y602286D03*
D90*
X507571Y602286D03*
D91*
X410188Y602337D03*
D92*
X507495Y602337D03*
D45*
X410188Y602388D03*
D93*
X507393Y602388D03*
D94*
X410213Y602438D03*
D95*
X507317Y602438D03*
D43*
X410264Y602489D03*
D96*
X507216Y602489D03*
D97*
X410264Y602540D03*
D98*
X507165Y602540D03*
D99*
X410315Y602591D03*
D100*
X507063Y602591D03*
D94*
X410315Y602642D03*
D101*
X506987Y602642D03*
D102*
X410340Y602692D03*
D103*
X506911Y602692D03*
D104*
X410365Y602743D03*
D105*
X506784Y602743D03*
D106*
X410391Y602794D03*
D107*
X506708Y602794D03*
D104*
X410416Y602845D03*
D108*
X506606Y602845D03*
D109*
X410416Y602896D03*
D110*
X506428Y602896D03*
D111*
X410467Y602946D03*
D112*
X506250Y602946D03*
D113*
X410467Y602997D03*
D114*
X506073Y602997D03*
D115*
X410492Y603048D03*
D116*
X505920Y603048D03*
D104*
X410518Y603099D03*
D117*
X505793Y603099D03*
D41*
X410543Y603150D03*
D118*
X505666Y603150D03*
D41*
X410543Y603200D03*
D119*
X505539Y603200D03*
D120*
X410543Y603251D03*
D121*
X505412Y603251D03*
D115*
X410594Y603302D03*
D118*
X505311Y603302D03*
D122*
X410594Y603353D03*
D123*
X505209Y603353D03*
D124*
X410619Y603404D03*
D118*
X505107Y603404D03*
D124*
X410619Y603454D03*
D118*
X505006Y603454D03*
D125*
X410619Y603505D03*
D117*
X504879Y603505D03*
D124*
X410670Y603556D03*
D118*
X504752Y603556D03*
D125*
X410670Y603607D03*
D121*
X504650Y603607D03*
D124*
X410670Y603658D03*
D119*
X504523Y603658D03*
D126*
X410696Y603708D03*
D127*
X504396Y603708D03*
D128*
X410696Y603759D03*
D129*
X504269Y603759D03*
D124*
X410721Y603810D03*
D130*
X504142Y603810D03*
D125*
X410721Y603861D03*
D131*
X503990Y603861D03*
D126*
X410746Y603912D03*
D132*
X503837Y603912D03*
D126*
X410746Y603962D03*
D133*
X503660Y603962D03*
D128*
X410746Y604013D03*
D134*
X503456Y604013D03*
D124*
X410772Y604064D03*
D135*
X502974Y604064D03*
D136*
X410797Y604115D03*
D137*
X502771Y604115D03*
D138*
X410797Y604166D03*
D139*
X502618Y604166D03*
D138*
X410797Y604216D03*
D140*
X502466Y604216D03*
D136*
X410797Y604267D03*
D141*
X502339Y604267D03*
D126*
X410848Y604318D03*
D142*
X502186Y604318D03*
D128*
X410848Y604369D03*
D143*
X502059Y604369D03*
D126*
X410848Y604420D03*
D144*
X501958Y604420D03*
D126*
X410848Y604470D03*
D145*
X501831Y604470D03*
D146*
X410873Y604521D03*
D147*
X501704Y604521D03*
D138*
X410899Y604572D03*
D148*
X501602Y604572D03*
D136*
X410899Y604623D03*
D149*
X501475Y604623D03*
D138*
X410899Y604674D03*
D148*
X501348Y604674D03*
D138*
X410899Y604724D03*
D150*
X501221Y604724D03*
D146*
X410924Y604775D03*
D151*
X501120Y604775D03*
D126*
X410950Y604826D03*
D152*
X500993Y604826D03*
D128*
X410950Y604877D03*
D153*
X500891Y604877D03*
D126*
X410950Y604928D03*
D152*
X500789Y604928D03*
D154*
X410975Y604978D03*
D155*
X500662Y604978D03*
D156*
X410975Y605029D03*
D157*
X500561Y605029D03*
D154*
X410975Y605080D03*
D155*
X500459Y605080D03*
D128*
X411000Y605131D03*
D157*
X500307Y605131D03*
D126*
X411000Y605182D03*
D155*
X500205Y605182D03*
D39*
X411026Y605232D03*
D155*
X500104Y605232D03*
D146*
X411026Y605283D03*
D158*
X500002Y605283D03*
D39*
X411026Y605334D03*
D159*
X499875Y605334D03*
D136*
X411051Y605385D03*
D160*
X499773Y605385D03*
D138*
X411051Y605436D03*
D155*
X499646Y605436D03*
D39*
X411077Y605486D03*
D155*
X499545Y605486D03*
D146*
X411077Y605537D03*
D157*
X499443Y605537D03*
D39*
X411077Y605588D03*
D161*
X499316Y605588D03*
D146*
X411077Y605639D03*
D157*
X499189Y605639D03*
D126*
X411102Y605690D03*
D152*
X499062Y605690D03*
D39*
X411127Y605740D03*
D152*
X498961Y605740D03*
D146*
X411127Y605791D03*
D153*
X498859Y605791D03*
D39*
X411127Y605842D03*
D162*
X498732Y605842D03*
D146*
X411127Y605893D03*
D153*
X498605Y605893D03*
D138*
X411153Y605944D03*
D152*
X498503Y605944D03*
D138*
X411153Y605994D03*
D152*
X498402Y605994D03*
D146*
X411178Y606045D03*
D149*
X498275Y606045D03*
D39*
X411178Y606096D03*
D150*
X498173Y606096D03*
D146*
X411178Y606147D03*
D151*
X498072Y606147D03*
D39*
X411178Y606198D03*
D152*
X497945Y606198D03*
D39*
X411178Y606248D03*
D163*
X497843Y606248D03*
D156*
X411229Y606299D03*
D151*
X497716Y606299D03*
D154*
X411229Y606350D03*
D162*
X497614Y606350D03*
D156*
X411229Y606401D03*
D149*
X497513Y606401D03*
D154*
X411229Y606452D03*
D150*
X497411Y606452D03*
D154*
X411229Y606502D03*
D162*
X497310Y606502D03*
D156*
X411229Y606553D03*
D164*
X497183Y606553D03*
D39*
X411280Y606604D03*
D162*
X497056Y606604D03*
D146*
X411280Y606655D03*
D151*
X496954Y606655D03*
D39*
X411280Y606706D03*
D162*
X496852Y606706D03*
D39*
X411280Y606756D03*
D150*
X496751Y606756D03*
D146*
X411280Y606807D03*
D149*
X496649Y606807D03*
D39*
X411280Y606858D03*
D162*
X496548Y606858D03*
D146*
X411331Y606909D03*
D151*
X496446Y606909D03*
D39*
X411331Y606960D03*
D162*
X496294Y606960D03*
D39*
X411331Y607010D03*
D162*
X496192Y607010D03*
D146*
X411331Y607061D03*
D151*
X496090Y607061D03*
D39*
X411331Y607112D03*
D150*
X495989Y607112D03*
D146*
X411331Y607163D03*
D149*
X495887Y607163D03*
D39*
X411381Y607214D03*
D162*
X495786Y607214D03*
D39*
X411381Y607264D03*
D162*
X495684Y607264D03*
D146*
X411381Y607315D03*
D151*
X495532Y607315D03*
D39*
X411381Y607366D03*
D162*
X495430Y607366D03*
D146*
X411381Y607417D03*
D151*
X495328Y607417D03*
D39*
X411381Y607468D03*
D150*
X495227Y607468D03*
D39*
X411432Y607518D03*
D150*
X495125Y607518D03*
D146*
X411432Y607569D03*
D151*
X495024Y607569D03*
D39*
X411432Y607620D03*
D150*
X494871Y607620D03*
D146*
X411432Y607671D03*
D151*
X494770Y607671D03*
D39*
X411432Y607722D03*
D162*
X494668Y607722D03*
D39*
X411432Y607772D03*
D162*
X494566Y607772D03*
D165*
X411458Y607823D03*
D149*
X494465Y607823D03*
D154*
X411483Y607874D03*
D150*
X494363Y607874D03*
D156*
X411483Y607925D03*
D149*
X494211Y607925D03*
D154*
X411483Y607976D03*
D150*
X494109Y607976D03*
D154*
X411483Y608026D03*
D162*
X494008Y608026D03*
D156*
X411483Y608077D03*
D147*
X493881Y608077D03*
D154*
X411483Y608128D03*
D148*
X493779Y608128D03*
D146*
X411534Y608179D03*
D147*
X493677Y608179D03*
D39*
X411534Y608230D03*
D148*
X493525Y608230D03*
D39*
X411534Y608280D03*
D148*
X493423Y608280D03*
D146*
X411534Y608331D03*
D147*
X493322Y608331D03*
D39*
X411534Y608382D03*
D145*
X493195Y608382D03*
D146*
X411534Y608433D03*
D166*
X493093Y608433D03*
D167*
X411559Y608484D03*
D145*
X492941Y608484D03*
D39*
X411585Y608534D03*
D145*
X492839Y608534D03*
D146*
X411585Y608585D03*
D143*
X492712Y608585D03*
D39*
X411585Y608636D03*
D144*
X492611Y608636D03*
D146*
X411585Y608687D03*
D168*
X492484Y608687D03*
D39*
X411585Y608738D03*
D142*
X492331Y608738D03*
D39*
X411585Y608788D03*
D142*
X492230Y608788D03*
D37*
X411610Y608839D03*
D169*
X492103Y608839D03*
D39*
X411635Y608890D03*
D170*
X491976Y608890D03*
D146*
X411635Y608941D03*
D141*
X491823Y608941D03*
D39*
X411635Y608992D03*
D140*
X491696Y608992D03*
D39*
X411635Y609042D03*
D171*
X491595Y609042D03*
D146*
X411635Y609093D03*
D172*
X491468Y609093D03*
D167*
X411661Y609144D03*
D139*
X491290Y609144D03*
D146*
X411686Y609195D03*
D173*
X491163Y609195D03*
D39*
X411686Y609246D03*
D174*
X491036Y609246D03*
D39*
X411686Y609296D03*
D175*
X490909Y609296D03*
D146*
X411686Y609347D03*
D176*
X490731Y609347D03*
D39*
X411686Y609398D03*
D177*
X490604Y609398D03*
D146*
X411686Y609449D03*
D178*
X490452Y609449D03*
D167*
X411712Y609500D03*
D179*
X490299Y609500D03*
D154*
X411737Y609550D03*
D180*
X490147Y609550D03*
D156*
X411737Y609601D03*
D181*
X489994Y609601D03*
D154*
X411737Y609652D03*
D182*
X489817Y609652D03*
D156*
X411737Y609703D03*
D183*
X489639Y609703D03*
D154*
X411737Y609754D03*
D184*
X489486Y609754D03*
D154*
X411737Y609804D03*
D185*
X489283Y609804D03*
D165*
X411762Y609855D03*
D186*
X489131Y609855D03*
D167*
X411762Y609906D03*
D133*
X488928Y609906D03*
D146*
X411788Y609957D03*
D187*
X488750Y609957D03*
D39*
X411788Y610008D03*
D130*
X488547Y610008D03*
D39*
X411788Y610058D03*
D127*
X488343Y610058D03*
D146*
X411788Y610109D03*
D188*
X488140Y610109D03*
D39*
X411788Y610160D03*
D189*
X487937Y610160D03*
D146*
X411788Y610211D03*
D105*
X487734Y610211D03*
D167*
X411813Y610262D03*
D190*
X487505Y610262D03*
D39*
X411839Y610312D03*
D191*
X487302Y610312D03*
D146*
X411839Y610363D03*
D192*
X487124Y610363D03*
D39*
X411839Y610414D03*
D193*
X486921Y610414D03*
D146*
X411839Y610465D03*
D194*
X486769Y610465D03*
D39*
X411839Y610516D03*
D195*
X486591Y610516D03*
D39*
X411839Y610566D03*
D196*
X486413Y610566D03*
D37*
X411864Y610617D03*
D197*
X486286Y610617D03*
D39*
X411889Y610668D03*
D198*
X486134Y610668D03*
D146*
X411889Y610719D03*
D197*
X485981Y610719D03*
D39*
X411889Y610770D03*
D198*
X485829Y610770D03*
D39*
X411889Y610820D03*
D198*
X485676Y610820D03*
D146*
X411889Y610871D03*
D197*
X485524Y610871D03*
D39*
X411889Y610922D03*
D196*
X485397Y610922D03*
D165*
X411915Y610973D03*
D199*
X485270Y610973D03*
D39*
X411940Y611024D03*
D195*
X485118Y611024D03*
D39*
X411940Y611074D03*
D200*
X484991Y611074D03*
D146*
X411940Y611125D03*
D201*
X484864Y611125D03*
D39*
X411940Y611176D03*
D202*
X484711Y611176D03*
D146*
X411940Y611227D03*
D192*
X484584Y611227D03*
D39*
X411940Y611278D03*
D203*
X484457Y611278D03*
D167*
X411966Y611328D03*
D191*
X484305Y611328D03*
D165*
X411966Y611379D03*
D204*
X484152Y611379D03*
D154*
X411991Y611430D03*
D205*
X484051Y611430D03*
D156*
X411991Y611481D03*
D206*
X483873Y611481D03*
D154*
X411991Y611532D03*
D189*
X483721Y611532D03*
D154*
X411991Y611582D03*
D116*
X483568Y611582D03*
D156*
X411991Y611633D03*
D207*
X483441Y611633D03*
D154*
X411991Y611684D03*
D130*
X483263Y611684D03*
D165*
X412016Y611735D03*
D208*
X483136Y611735D03*
D39*
X412042Y611786D03*
D209*
X482959Y611786D03*
D39*
X412042Y611836D03*
D210*
X482806Y611836D03*
D146*
X412042Y611887D03*
D211*
X482628Y611887D03*
D39*
X412042Y611938D03*
D182*
X482451Y611938D03*
D146*
X412042Y611989D03*
D212*
X482273Y611989D03*
D39*
X412042Y612040D03*
D213*
X482120Y612040D03*
D39*
X412042Y612090D03*
D214*
X481917Y612090D03*
D165*
X412067Y612141D03*
D169*
X481739Y612141D03*
D39*
X412093Y612192D03*
D215*
X481562Y612192D03*
D146*
X412093Y612243D03*
D157*
X481409Y612243D03*
D39*
X412093Y612294D03*
D216*
X481257Y612294D03*
D39*
X412093Y612344D03*
D217*
X481104Y612344D03*
D146*
X412093Y612395D03*
D218*
X480977Y612395D03*
D39*
X412093Y612446D03*
D219*
X480850Y612446D03*
D146*
X412093Y612497D03*
D220*
X480698Y612497D03*
D39*
X412143Y612548D03*
D221*
X480596Y612548D03*
D39*
X412143Y612598D03*
D222*
X480495Y612598D03*
D146*
X412143Y612649D03*
D223*
X480393Y612649D03*
D39*
X412143Y612700D03*
D224*
X480292Y612700D03*
D146*
X412143Y612751D03*
D225*
X480215Y612751D03*
D39*
X412143Y612802D03*
D226*
X480088Y612802D03*
D39*
X412143Y612852D03*
D227*
X480012Y612852D03*
D165*
X412169Y612903D03*
D228*
X479936Y612903D03*
D39*
X412194Y612954D03*
D66*
X479860Y612954D03*
D146*
X412194Y613005D03*
D229*
X479758Y613005D03*
D39*
X412194Y613056D03*
D66*
X479707Y613056D03*
D39*
X412194Y613106D03*
D230*
X479631Y613106D03*
D146*
X412194Y613157D03*
D64*
X479555Y613157D03*
D39*
X412194Y613208D03*
D231*
X479453Y613208D03*
D146*
X412194Y613259D03*
D64*
X479403Y613259D03*
D167*
X412220Y613310D03*
D232*
X479326Y613310D03*
D154*
X412245Y613360D03*
D232*
X479276Y613360D03*
D156*
X412245Y613411D03*
D233*
X479199Y613411D03*
D154*
X412245Y613462D03*
D234*
X479123Y613462D03*
D156*
X412245Y613513D03*
D235*
X479047Y613513D03*
D154*
X412245Y613564D03*
D62*
X478996Y613564D03*
D154*
X412245Y613614D03*
D236*
X478920Y613614D03*
D156*
X412245Y613665D03*
D237*
X478869Y613665D03*
D167*
X412270Y613716D03*
D238*
X478768Y613716D03*
D146*
X412296Y613767D03*
D237*
X478717Y613767D03*
D39*
X412296Y613818D03*
D236*
X478666Y613818D03*
D39*
X412296Y613868D03*
D239*
X478590Y613868D03*
D146*
X412296Y613919D03*
D60*
X478539Y613919D03*
D39*
X412296Y613970D03*
D240*
X478437Y613970D03*
D146*
X412296Y614021D03*
D60*
X478387Y614021D03*
D39*
X412296Y614072D03*
D239*
X478336Y614072D03*
D167*
X412321Y614122D03*
D240*
X478285Y614122D03*
D146*
X412347Y614173D03*
D241*
X478209Y614173D03*
D39*
X412347Y614224D03*
D242*
X478158Y614224D03*
D146*
X412347Y614275D03*
D243*
X478082Y614275D03*
D39*
X412347Y614326D03*
D242*
X478006Y614326D03*
D39*
X412347Y614376D03*
D242*
X477955Y614376D03*
D146*
X412347Y614427D03*
D241*
X477904Y614427D03*
D39*
X412347Y614478D03*
D242*
X477853Y614478D03*
D146*
X412347Y614529D03*
D46*
X477777Y614529D03*
D39*
X412397Y614580D03*
D50*
X477726Y614580D03*
D39*
X412397Y614630D03*
D242*
X477650Y614630D03*
D146*
X412397Y614681D03*
D241*
X477599Y614681D03*
D39*
X412397Y614732D03*
D244*
X477523Y614732D03*
D146*
X412397Y614783D03*
D245*
X477472Y614783D03*
D39*
X412397Y614834D03*
D244*
X477421Y614834D03*
D39*
X412397Y614884D03*
D244*
X477371Y614884D03*
D146*
X412397Y614935D03*
D54*
X477294Y614935D03*
D39*
X412448Y614986D03*
D50*
X477218Y614986D03*
D146*
X412448Y615037D03*
D46*
X477167Y615037D03*
D39*
X412448Y615088D03*
D244*
X477117Y615088D03*
D39*
X412448Y615138D03*
D48*
X477040Y615138D03*
D146*
X412448Y615189D03*
D54*
X476990Y615189D03*
D39*
X412448Y615240D03*
D48*
X476939Y615240D03*
D146*
X412448Y615291D03*
D246*
X476888Y615291D03*
D39*
X412448Y615342D03*
D50*
X476812Y615342D03*
D167*
X412474Y615392D03*
D244*
X476761Y615392D03*
D156*
X412499Y615443D03*
D54*
X476685Y615443D03*
D154*
X412499Y615494D03*
D44*
X476634Y615494D03*
D156*
X412499Y615545D03*
D54*
X476583Y615545D03*
D154*
X412499Y615596D03*
D48*
X476532Y615596D03*
D154*
X412499Y615646D03*
D48*
X476482Y615646D03*
D156*
X412499Y615697D03*
D247*
X476405Y615697D03*
D154*
X412499Y615748D03*
D48*
X476329Y615748D03*
D156*
X412499Y615799D03*
D54*
X476278Y615799D03*
D39*
X412550Y615850D03*
D48*
X476228Y615850D03*
D39*
X412550Y615900D03*
D48*
X476177Y615900D03*
D146*
X412550Y615951D03*
D246*
X476126Y615951D03*
D39*
X412550Y616002D03*
D248*
X476050Y616002D03*
D146*
X412550Y616053D03*
D249*
X475999Y616053D03*
D39*
X412550Y616104D03*
D248*
X475948Y616104D03*
D39*
X412550Y616154D03*
D44*
X475872Y616154D03*
D146*
X412550Y616205D03*
D54*
X475821Y616205D03*
D39*
X412601Y616256D03*
D48*
X475770Y616256D03*
D146*
X412601Y616307D03*
D247*
X475694Y616307D03*
D39*
X412601Y616358D03*
D248*
X475643Y616358D03*
D39*
X412601Y616408D03*
D248*
X475593Y616408D03*
D146*
X412601Y616459D03*
D247*
X475542Y616459D03*
D39*
X412601Y616510D03*
D250*
X475491Y616510D03*
D146*
X412601Y616561D03*
D247*
X475440Y616561D03*
D39*
X412601Y616612D03*
D248*
X475339Y616612D03*
D39*
X412601Y616662D03*
D248*
X475288Y616662D03*
D146*
X412651Y616713D03*
D249*
X475237Y616713D03*
D39*
X412651Y616764D03*
D248*
X475186Y616764D03*
D146*
X412651Y616815D03*
D247*
X475135Y616815D03*
D39*
X412651Y616866D03*
D248*
X475085Y616866D03*
D39*
X412651Y616916D03*
D56*
X475008Y616916D03*
D146*
X412651Y616967D03*
D251*
X474958Y616967D03*
D39*
X412651Y617018D03*
D248*
X474881Y617018D03*
D146*
X412651Y617069D03*
D247*
X474831Y617069D03*
D138*
X412677Y617120D03*
D248*
X474780Y617120D03*
D39*
X412702Y617170D03*
D250*
X474729Y617170D03*
D146*
X412702Y617221D03*
D247*
X474678Y617221D03*
D39*
X412702Y617272D03*
D56*
X474602Y617272D03*
D146*
X412702Y617323D03*
D252*
X474551Y617323D03*
D39*
X412702Y617374D03*
D56*
X474500Y617374D03*
D39*
X412702Y617424D03*
D56*
X474450Y617424D03*
D146*
X412702Y617475D03*
D252*
X474399Y617475D03*
D39*
X412702Y617526D03*
D248*
X474323Y617526D03*
D156*
X412753Y617577D03*
D247*
X474272Y617577D03*
D154*
X412753Y617628D03*
D56*
X474196Y617628D03*
D154*
X412753Y617678D03*
D57*
X474145Y617678D03*
D156*
X412753Y617729D03*
D251*
X474094Y617729D03*
D154*
X412753Y617780D03*
D57*
X474043Y617780D03*
D156*
X412753Y617831D03*
D251*
X473992Y617831D03*
D154*
X412753Y617882D03*
D56*
X473942Y617882D03*
D154*
X412753Y617932D03*
D57*
X473891Y617932D03*
D156*
X412753Y617983D03*
D252*
X473789Y617983D03*
D39*
X412804Y618034D03*
D56*
X473738Y618034D03*
D146*
X412804Y618085D03*
D251*
X473688Y618085D03*
D39*
X412804Y618136D03*
D57*
X473637Y618136D03*
D39*
X412804Y618186D03*
D56*
X473586Y618186D03*
D146*
X412804Y618237D03*
D252*
X473535Y618237D03*
D39*
X412804Y618288D03*
D56*
X473484Y618288D03*
D146*
X412804Y618339D03*
D253*
X473408Y618339D03*
D39*
X412804Y618390D03*
D58*
X473357Y618390D03*
D39*
X412804Y618440D03*
D58*
X473307Y618440D03*
D146*
X412855Y618491D03*
D253*
X473256Y618491D03*
D39*
X412855Y618542D03*
D56*
X473180Y618542D03*
D146*
X412855Y618593D03*
D252*
X473129Y618593D03*
D39*
X412855Y618644D03*
D56*
X473078Y618644D03*
D39*
X412855Y618694D03*
D57*
X473027Y618694D03*
D146*
X412855Y618745D03*
D253*
X472951Y618745D03*
D39*
X412855Y618796D03*
D58*
X472900Y618796D03*
D146*
X412855Y618847D03*
D253*
X472849Y618847D03*
D39*
X412855Y618898D03*
D58*
X472799Y618898D03*
D39*
X412905Y618948D03*
D58*
X472748Y618948D03*
D146*
X412905Y618999D03*
D253*
X472697Y618999D03*
D39*
X412905Y619050D03*
D58*
X472646Y619050D03*
D146*
X412905Y619101D03*
D253*
X472545Y619101D03*
D39*
X412905Y619152D03*
D58*
X472494Y619152D03*
D39*
X412905Y619202D03*
D58*
X472443Y619202D03*
D146*
X412905Y619253D03*
D253*
X472392Y619253D03*
D39*
X412905Y619304D03*
D58*
X472341Y619304D03*
D146*
X412905Y619355D03*
D253*
X472291Y619355D03*
D39*
X412956Y619406D03*
D58*
X472240Y619406D03*
D39*
X412956Y619456D03*
D254*
X472164Y619456D03*
D146*
X412956Y619507D03*
D55*
X472113Y619507D03*
D39*
X412956Y619558D03*
D254*
X472062Y619558D03*
D146*
X412956Y619609D03*
D55*
X472011Y619609D03*
D39*
X412956Y619660D03*
D254*
X471960Y619660D03*
D39*
X412956Y619710D03*
D254*
X471910Y619710D03*
D146*
X412956Y619761D03*
D55*
X471859Y619761D03*
D126*
X412982Y619812D03*
D58*
X471783Y619812D03*
D156*
X413007Y619863D03*
D255*
X471706Y619863D03*
D154*
X413007Y619914D03*
D254*
X471656Y619914D03*
D154*
X413007Y619964D03*
D256*
X471605Y619964D03*
D156*
X413007Y620015D03*
D255*
X471554Y620015D03*
D154*
X413007Y620066D03*
D256*
X471503Y620066D03*
D156*
X413007Y620117D03*
D255*
X471452Y620117D03*
D154*
X413007Y620168D03*
D254*
X471402Y620168D03*
D154*
X413007Y620218D03*
D257*
X471325Y620218D03*
D156*
X413007Y620269D03*
D258*
X471275Y620269D03*
D126*
X413032Y620320D03*
D257*
X471224Y620320D03*
D146*
X413058Y620371D03*
D59*
X471173Y620371D03*
D39*
X413058Y620422D03*
D257*
X471122Y620422D03*
D39*
X413058Y620472D03*
D257*
X471071Y620472D03*
D146*
X413058Y620523D03*
D258*
X471021Y620523D03*
D39*
X413058Y620574D03*
D257*
X470970Y620574D03*
D146*
X413058Y620625D03*
D258*
X470868Y620625D03*
D39*
X413058Y620676D03*
D257*
X470817Y620676D03*
D39*
X413058Y620726D03*
D257*
X470767Y620726D03*
D136*
X413083Y620777D03*
D258*
X470716Y620777D03*
D39*
X413109Y620828D03*
D259*
X470665Y620828D03*
D146*
X413109Y620879D03*
D258*
X470614Y620879D03*
D39*
X413109Y620930D03*
D257*
X470563Y620930D03*
D39*
X413109Y620980D03*
D61*
X470487Y620980D03*
D146*
X413109Y621031D03*
D260*
X470436Y621031D03*
D39*
X413109Y621082D03*
D61*
X470386Y621082D03*
D146*
X413109Y621133D03*
D260*
X470335Y621133D03*
D39*
X413109Y621184D03*
D53*
X470284Y621184D03*
D126*
X413134Y621234D03*
D61*
X470233Y621234D03*
D146*
X413159Y621285D03*
D260*
X470182Y621285D03*
D39*
X413159Y621336D03*
D61*
X470132Y621336D03*
D146*
X413159Y621387D03*
D260*
X470081Y621387D03*
D39*
X413159Y621438D03*
D261*
X470005Y621438D03*
D39*
X413159Y621488D03*
D262*
X469954Y621488D03*
D146*
X413159Y621539D03*
D263*
X469903Y621539D03*
D39*
X413159Y621590D03*
D262*
X469852Y621590D03*
D146*
X413159Y621641D03*
D263*
X469801Y621641D03*
D138*
X413185Y621692D03*
D261*
X469751Y621692D03*
D138*
X413185Y621742D03*
D262*
X469700Y621742D03*
D146*
X413210Y621793D03*
D263*
X469649Y621793D03*
D39*
X413210Y621844D03*
D262*
X469598Y621844D03*
D146*
X413210Y621895D03*
D63*
X469522Y621895D03*
D39*
X413210Y621946D03*
D262*
X469446Y621946D03*
D39*
X413210Y621996D03*
D261*
X469395Y621996D03*
D146*
X413210Y622047D03*
D264*
X469344Y622047D03*
D39*
X413210Y622098D03*
D261*
X469293Y622098D03*
D146*
X413210Y622149D03*
D263*
X469243Y622149D03*
D126*
X413236Y622200D03*
D262*
X469192Y622200D03*
D154*
X413261Y622250D03*
D261*
X469141Y622250D03*
D156*
X413261Y622301D03*
D264*
X469090Y622301D03*
D154*
X413261Y622352D03*
D261*
X469039Y622352D03*
D156*
X413261Y622403D03*
D263*
X468989Y622403D03*
D154*
X413261Y622454D03*
D265*
X468912Y622454D03*
D154*
X413261Y622504D03*
D265*
X468862Y622504D03*
D156*
X413261Y622555D03*
D63*
X468811Y622555D03*
D154*
X413261Y622606D03*
D265*
X468760Y622606D03*
D128*
X413286Y622657D03*
D63*
X468709Y622657D03*
D126*
X413286Y622708D03*
D265*
X468658Y622708D03*
D39*
X413312Y622758D03*
D265*
X468608Y622758D03*
D146*
X413312Y622809D03*
D63*
X468557Y622809D03*
D39*
X413312Y622860D03*
D265*
X468506Y622860D03*
D146*
X413312Y622911D03*
D63*
X468455Y622911D03*
D39*
X413312Y622962D03*
D265*
X468404Y622962D03*
D39*
X413312Y623012D03*
D265*
X468354Y623012D03*
D146*
X413312Y623063D03*
D63*
X468303Y623063D03*
D39*
X413312Y623114D03*
D265*
X468252Y623114D03*
D136*
X413337Y623165D03*
D63*
X468201Y623165D03*
D39*
X413363Y623216D03*
D266*
X468125Y623216D03*
D39*
X413363Y623266D03*
D65*
X468074Y623266D03*
D146*
X413363Y623317D03*
D52*
X468023Y623317D03*
D39*
X413363Y623368D03*
D266*
X467973Y623368D03*
D146*
X413363Y623419D03*
D267*
X467922Y623419D03*
D39*
X413363Y623470D03*
D266*
X467871Y623470D03*
D39*
X413363Y623520D03*
D65*
X467820Y623520D03*
D146*
X413363Y623571D03*
D52*
X467769Y623571D03*
D126*
X413388Y623622D03*
D266*
X467719Y623622D03*
D128*
X413388Y623673D03*
D268*
X467693Y623673D03*
D39*
X413413Y623724D03*
D269*
X467642Y623724D03*
D39*
X413413Y623774D03*
D269*
X467592Y623774D03*
D146*
X413413Y623825D03*
D268*
X467541Y623825D03*
D39*
X413413Y623876D03*
D270*
X467490Y623876D03*
D146*
X413413Y623927D03*
D268*
X467439Y623927D03*
D39*
X413413Y623978D03*
D269*
X467388Y623978D03*
D39*
X413413Y624028D03*
D269*
X467338Y624028D03*
D146*
X413413Y624079D03*
D268*
X467287Y624079D03*
D138*
X413439Y624130D03*
D270*
X467236Y624130D03*
D136*
X413439Y624181D03*
D268*
X467185Y624181D03*
D39*
X413464Y624232D03*
D269*
X467134Y624232D03*
D39*
X413464Y624282D03*
D269*
X467084Y624282D03*
D146*
X413464Y624333D03*
D268*
X467033Y624333D03*
D39*
X413464Y624384D03*
D270*
X466982Y624384D03*
D146*
X413464Y624435D03*
D268*
X466931Y624435D03*
D39*
X413464Y624486D03*
D269*
X466880Y624486D03*
D39*
X413464Y624536D03*
D269*
X466830Y624536D03*
D146*
X413464Y624587D03*
D268*
X466779Y624587D03*
D126*
X413490Y624638D03*
D270*
X466728Y624638D03*
D128*
X413490Y624689D03*
D268*
X466677Y624689D03*
D154*
X413515Y624740D03*
D269*
X466626Y624740D03*
D154*
X413515Y624790D03*
D269*
X466576Y624790D03*
D156*
X413515Y624841D03*
D69*
X466550Y624841D03*
D154*
X413515Y624892D03*
D51*
X466499Y624892D03*
D156*
X413515Y624943D03*
D69*
X466449Y624943D03*
D154*
X413515Y624994D03*
D51*
X466398Y624994D03*
D154*
X413515Y625044D03*
D67*
X466347Y625044D03*
D128*
X413540Y625095D03*
D69*
X466296Y625095D03*
D126*
X413540Y625146D03*
D51*
X466245Y625146D03*
D146*
X413566Y625197D03*
D69*
X466195Y625197D03*
D39*
X413566Y625248D03*
D51*
X466144Y625248D03*
D39*
X413566Y625298D03*
D67*
X466093Y625298D03*
D146*
X413566Y625349D03*
D69*
X466042Y625349D03*
D39*
X413566Y625400D03*
D51*
X465991Y625400D03*
D146*
X413566Y625451D03*
D69*
X465941Y625451D03*
D39*
X413566Y625502D03*
D71*
X465915Y625502D03*
D39*
X413566Y625552D03*
D271*
X465864Y625552D03*
D136*
X413591Y625603D03*
D272*
X465839Y625603D03*
D138*
X413591Y625654D03*
D51*
X465788Y625654D03*
D146*
X413617Y625705D03*
D69*
X465737Y625705D03*
D39*
X413617Y625756D03*
D51*
X465687Y625756D03*
D39*
X413617Y625806D03*
D51*
X465636Y625806D03*
D146*
X413617Y625857D03*
D272*
X465585Y625857D03*
D39*
X413617Y625908D03*
D51*
X465534Y625908D03*
D146*
X413617Y625959D03*
D273*
X465509Y625959D03*
D39*
X413617Y626010D03*
D271*
X465458Y626010D03*
D39*
X413617Y626060D03*
D71*
X465407Y626060D03*
D128*
X413642Y626111D03*
D73*
X465356Y626111D03*
D126*
X413642Y626162D03*
D271*
X465306Y626162D03*
D146*
X413667Y626213D03*
D273*
X465255Y626213D03*
D39*
X413667Y626264D03*
D51*
X465229Y626264D03*
D39*
X413667Y626314D03*
D51*
X465179Y626314D03*
D146*
X413667Y626365D03*
D69*
X465128Y626365D03*
D39*
X413667Y626416D03*
D271*
X465102Y626416D03*
D146*
X413667Y626467D03*
D73*
X465052Y626467D03*
D39*
X413667Y626518D03*
D71*
X465001Y626518D03*
D39*
X413667Y626568D03*
D271*
X464950Y626568D03*
D136*
X413693Y626619D03*
D273*
X464899Y626619D03*
D138*
X413693Y626670D03*
D271*
X464848Y626670D03*
D146*
X413718Y626721D03*
D73*
X464798Y626721D03*
D39*
X413718Y626772D03*
D271*
X464798Y626772D03*
D39*
X413718Y626822D03*
D71*
X464747Y626822D03*
D146*
X413718Y626873D03*
D73*
X464696Y626873D03*
D39*
X413718Y626924D03*
D71*
X464645Y626924D03*
D146*
X413718Y626975D03*
D73*
X464594Y626975D03*
D39*
X413718Y627026D03*
D271*
X464544Y627026D03*
D39*
X413718Y627076D03*
D71*
X464493Y627076D03*
D128*
X413744Y627127D03*
D274*
X464467Y627127D03*
D126*
X413744Y627178D03*
D271*
X464442Y627178D03*
D156*
X413769Y627229D03*
D273*
X464391Y627229D03*
D154*
X413769Y627280D03*
D271*
X464340Y627280D03*
D154*
X413769Y627330D03*
D271*
X464290Y627330D03*
D156*
X413769Y627381D03*
D274*
X464264Y627381D03*
D154*
X413769Y627432D03*
D49*
X464213Y627432D03*
D156*
X413769Y627483D03*
D274*
X464163Y627483D03*
D154*
X413769Y627534D03*
D71*
X464137Y627534D03*
D154*
X413769Y627584D03*
D271*
X464086Y627584D03*
D128*
X413794Y627635D03*
D73*
X464036Y627635D03*
D126*
X413794Y627686D03*
D49*
X464010Y627686D03*
D146*
X413820Y627737D03*
D274*
X463959Y627737D03*
D39*
X413820Y627788D03*
D49*
X463909Y627788D03*
D39*
X413820Y627838D03*
D71*
X463883Y627838D03*
D146*
X413820Y627889D03*
D73*
X463832Y627889D03*
D39*
X413820Y627940D03*
D49*
X463807Y627940D03*
D146*
X413820Y627991D03*
D274*
X463756Y627991D03*
D39*
X413820Y628042D03*
D49*
X463705Y628042D03*
D39*
X413820Y628092D03*
D49*
X463655Y628092D03*
D136*
X413845Y628143D03*
D273*
X463629Y628143D03*
D138*
X413845Y628194D03*
D49*
X463604Y628194D03*
D136*
X413845Y628245D03*
D274*
X463553Y628245D03*
D39*
X413871Y628296D03*
D49*
X463502Y628296D03*
D39*
X413871Y628346D03*
D49*
X463451Y628346D03*
D146*
X413871Y628397D03*
D274*
X463451Y628397D03*
D39*
X413871Y628448D03*
D49*
X463401Y628448D03*
D146*
X413871Y628499D03*
D274*
X463350Y628499D03*
D39*
X413871Y628550D03*
D49*
X463299Y628550D03*
D39*
X413871Y628600D03*
D77*
X463274Y628600D03*
D146*
X413871Y628651D03*
D274*
X463248Y628651D03*
D126*
X413896Y628702D03*
D49*
X463197Y628702D03*
D128*
X413896Y628753D03*
D274*
X463147Y628753D03*
D39*
X413921Y628804D03*
D75*
X463121Y628804D03*
D39*
X413921Y628854D03*
D77*
X463070Y628854D03*
D146*
X413921Y628905D03*
D274*
X463045Y628905D03*
D39*
X413921Y628956D03*
D49*
X462994Y628956D03*
D146*
X413921Y629007D03*
D275*
X462969Y629007D03*
D39*
X413921Y629058D03*
D77*
X462918Y629058D03*
D39*
X413921Y629108D03*
D49*
X462893Y629108D03*
D146*
X413921Y629159D03*
D274*
X462842Y629159D03*
D138*
X413947Y629210D03*
D77*
X462816Y629210D03*
D136*
X413947Y629261D03*
D276*
X462766Y629261D03*
D39*
X413972Y629312D03*
D49*
X462740Y629312D03*
D39*
X413972Y629362D03*
D75*
X462715Y629362D03*
D146*
X413972Y629413D03*
D276*
X462664Y629413D03*
D39*
X413972Y629464D03*
D75*
X462613Y629464D03*
D146*
X413972Y629515D03*
D274*
X462588Y629515D03*
D39*
X413972Y629566D03*
D77*
X462562Y629566D03*
D39*
X413972Y629616D03*
D77*
X462512Y629616D03*
D146*
X413972Y629667D03*
D275*
X462461Y629667D03*
D126*
X413998Y629718D03*
D277*
X462435Y629718D03*
D128*
X413998Y629769D03*
D276*
X462410Y629769D03*
D154*
X414023Y629820D03*
D75*
X462359Y629820D03*
D154*
X414023Y629870D03*
D277*
X462334Y629870D03*
D156*
X414023Y629921D03*
D276*
X462308Y629921D03*
D154*
X414023Y629972D03*
D77*
X462258Y629972D03*
D156*
X414023Y630023D03*
D278*
X462232Y630023D03*
D154*
X414023Y630074D03*
D277*
X462181Y630074D03*
D154*
X414023Y630124D03*
D77*
X462156Y630124D03*
D156*
X414023Y630175D03*
D278*
X462131Y630175D03*
D154*
X414023Y630226D03*
D277*
X462080Y630226D03*
D128*
X414048Y630277D03*
D47*
X462029Y630277D03*
D126*
X414048Y630328D03*
D77*
X462004Y630328D03*
D39*
X414074Y630378D03*
D277*
X461978Y630378D03*
D146*
X414074Y630429D03*
D278*
X461927Y630429D03*
D39*
X414074Y630480D03*
D77*
X461902Y630480D03*
D146*
X414074Y630531D03*
D278*
X461877Y630531D03*
D39*
X414074Y630582D03*
D277*
X461826Y630582D03*
D39*
X414074Y630632D03*
D279*
X461775Y630632D03*
D146*
X414074Y630683D03*
D47*
X461775Y630683D03*
D39*
X414074Y630734D03*
D22*
X446560Y630734D03*
D277*
X461724Y630734D03*
D136*
X414099Y630785D03*
D280*
X446586Y630785D03*
D278*
X461673Y630785D03*
D138*
X414099Y630836D03*
D281*
X446637Y630836D03*
D277*
X461673Y630836D03*
D39*
X414125Y630886D03*
D266*
X446637Y630886D03*
D277*
X461623Y630886D03*
D146*
X414125Y630937D03*
D253*
X446687Y630937D03*
D278*
X461572Y630937D03*
D39*
X414125Y630988D03*
D242*
X446713Y630988D03*
D77*
X461546Y630988D03*
D146*
X414125Y631039D03*
D64*
X446738Y631039D03*
D47*
X461521Y631039D03*
D39*
X414125Y631090D03*
D226*
X446764Y631090D03*
D277*
X461470Y631090D03*
D39*
X414125Y631140D03*
D76*
X446814Y631140D03*
D277*
X461419Y631140D03*
D146*
X414125Y631191D03*
D282*
X446814Y631191D03*
D278*
X461419Y631191D03*
D39*
X414125Y631242D03*
D283*
X446840Y631242D03*
D277*
X461369Y631242D03*
D146*
X414125Y631293D03*
D284*
X446891Y631293D03*
D278*
X461318Y631293D03*
D126*
X414150Y631344D03*
D285*
X446891Y631344D03*
D77*
X461292Y631344D03*
D126*
X414150Y631394D03*
D286*
X446916Y631394D03*
D279*
X461267Y631394D03*
D146*
X414175Y631445D03*
D147*
X446941Y631445D03*
D278*
X461216Y631445D03*
D39*
X414175Y631496D03*
D142*
X446967Y631496D03*
D75*
X461191Y631496D03*
D146*
X414175Y631547D03*
D287*
X446992Y631547D03*
D278*
X461165Y631547D03*
D39*
X414175Y631598D03*
D288*
X447018Y631598D03*
D277*
X461115Y631598D03*
D39*
X414175Y631648D03*
D289*
X447043Y631648D03*
D75*
X461089Y631648D03*
D146*
X414175Y631699D03*
D178*
X447068Y631699D03*
D276*
X461038Y631699D03*
D39*
X414175Y631750D03*
D180*
X447119Y631750D03*
D279*
X461013Y631750D03*
D146*
X414175Y631801D03*
D290*
X447145Y631801D03*
D276*
X460988Y631801D03*
D138*
X414201Y631852D03*
D291*
X447145Y631852D03*
D75*
X460937Y631852D03*
D138*
X414201Y631902D03*
D184*
X447170Y631902D03*
D77*
X460886Y631902D03*
D146*
X414226Y631953D03*
D89*
X447195Y631953D03*
D276*
X460886Y631953D03*
D39*
X414226Y632004D03*
D292*
X447221Y632004D03*
D75*
X460835Y632004D03*
D146*
X414226Y632055D03*
D293*
X447246Y632055D03*
D276*
X460784Y632055D03*
D39*
X414226Y632106D03*
D294*
X447272Y632106D03*
D49*
X460759Y632106D03*
D39*
X414226Y632156D03*
D295*
X447272Y632156D03*
D77*
X460734Y632156D03*
D146*
X414226Y632207D03*
D296*
X447322Y632207D03*
D275*
X460683Y632207D03*
D39*
X414226Y632258D03*
D297*
X447322Y632258D03*
D49*
X460657Y632258D03*
D146*
X414226Y632309D03*
D188*
X447348Y632309D03*
D274*
X460607Y632309D03*
D39*
X414226Y632360D03*
D298*
X447373Y632360D03*
D75*
X460581Y632360D03*
D126*
X414252Y632410D03*
D299*
X447399Y632410D03*
D77*
X460530Y632410D03*
D128*
X414252Y632461D03*
D105*
X447399Y632461D03*
D274*
X460505Y632461D03*
D154*
X414277Y632512D03*
D300*
X447449Y632512D03*
D49*
X460454Y632512D03*
D156*
X414277Y632563D03*
D301*
X447449Y632563D03*
D274*
X460403Y632563D03*
D154*
X414277Y632614D03*
D203*
X447475Y632614D03*
D49*
X460403Y632614D03*
D154*
X414277Y632664D03*
D62*
X445214Y632664D03*
D302*
X449100Y632664D03*
D49*
X460353Y632664D03*
D156*
X414277Y632715D03*
D54*
X445036Y632715D03*
D303*
X449304Y632715D03*
D274*
X460302Y632715D03*
D154*
X414277Y632766D03*
D58*
X444960Y632766D03*
D304*
X449481Y632766D03*
D271*
X460276Y632766D03*
D156*
X414277Y632817D03*
D258*
X444859Y632817D03*
D305*
X449583Y632817D03*
D274*
X460251Y632817D03*
D154*
X414277Y632868D03*
D262*
X444808Y632868D03*
D306*
X449710Y632868D03*
D49*
X460200Y632868D03*
D154*
X414277Y632918D03*
D261*
X444757Y632918D03*
D221*
X449812Y632918D03*
D71*
X460175Y632918D03*
D128*
X414302Y632969D03*
D63*
X444681Y632969D03*
D307*
X449888Y632969D03*
D73*
X460124Y632969D03*
D39*
X414328Y633020D03*
D270*
X444630Y633020D03*
D222*
X450015Y633020D03*
D71*
X460073Y633020D03*
D146*
X414328Y633071D03*
D268*
X444579Y633071D03*
D308*
X450091Y633071D03*
D69*
X460048Y633071D03*
D39*
X414328Y633122D03*
D51*
X444554Y633122D03*
D224*
X450167Y633122D03*
D271*
X460022Y633122D03*
D39*
X414328Y633172D03*
D271*
X444478Y633172D03*
D224*
X450269Y633172D03*
D271*
X459972Y633172D03*
D146*
X414328Y633223D03*
D274*
X444452Y633223D03*
D225*
X450345Y633223D03*
D69*
X459946Y633223D03*
D39*
X414328Y633274D03*
D49*
X444401Y633274D03*
D226*
X450421Y633274D03*
D51*
X459895Y633274D03*
D146*
X414328Y633325D03*
D276*
X444376Y633325D03*
D309*
X450523Y633325D03*
D69*
X459845Y633325D03*
D39*
X414328Y633376D03*
D75*
X444325Y633376D03*
D72*
X450599Y633376D03*
D51*
X459794Y633376D03*
D39*
X414328Y633426D03*
D277*
X444300Y633426D03*
D310*
X450675Y633426D03*
D51*
X459794Y633426D03*
D136*
X414353Y633477D03*
D47*
X444249Y633477D03*
D311*
X450751Y633477D03*
D272*
X459743Y633477D03*
D138*
X414353Y633528D03*
D279*
X444249Y633528D03*
D310*
X450828Y633528D03*
D51*
X459692Y633528D03*
D146*
X414379Y633579D03*
D278*
X444198Y633579D03*
D229*
X450904Y633579D03*
D268*
X459667Y633579D03*
D39*
X414379Y633630D03*
D80*
X444173Y633630D03*
D312*
X450980Y633630D03*
D270*
X459616Y633630D03*
D39*
X414379Y633680D03*
D86*
X444122Y633680D03*
D66*
X451056Y633680D03*
D269*
X459565Y633680D03*
D146*
X414379Y633731D03*
D88*
X444097Y633731D03*
D313*
X451132Y633731D03*
D267*
X459540Y633731D03*
D39*
X414379Y633782D03*
D80*
X444071Y633782D03*
D231*
X451209Y633782D03*
D266*
X459489Y633782D03*
D146*
X414379Y633833D03*
D314*
X444046Y633833D03*
D315*
X451285Y633833D03*
D268*
X459464Y633833D03*
D39*
X414379Y633884D03*
D281*
X443995Y633884D03*
D231*
X451361Y633884D03*
D269*
X459413Y633884D03*
D39*
X414379Y633934D03*
D45*
X443970Y633934D03*
D231*
X451412Y633934D03*
D266*
X459387Y633934D03*
D146*
X414379Y633985D03*
D314*
X443944Y633985D03*
D64*
X451513Y633985D03*
D52*
X459337Y633985D03*
D126*
X414404Y634036D03*
D45*
X443919Y634036D03*
D231*
X451564Y634036D03*
D65*
X459286Y634036D03*
D146*
X414429Y634087D03*
D88*
X443893Y634087D03*
D64*
X451666Y634087D03*
D63*
X459260Y634087D03*
D39*
X414429Y634138D03*
D45*
X443868Y634138D03*
D231*
X451717Y634138D03*
D265*
X459210Y634138D03*
D39*
X414429Y634188D03*
D45*
X443817Y634188D03*
D234*
X451793Y634188D03*
D265*
X459159Y634188D03*
D146*
X414429Y634239D03*
D91*
X443817Y634239D03*
D64*
X451869Y634239D03*
D63*
X459108Y634239D03*
D39*
X414429Y634290D03*
D97*
X443792Y634290D03*
D234*
X451945Y634290D03*
D261*
X459083Y634290D03*
D146*
X414429Y634341D03*
D91*
X443766Y634341D03*
D316*
X451996Y634341D03*
D264*
X459032Y634341D03*
D39*
X414429Y634392D03*
D94*
X443741Y634392D03*
D232*
X452098Y634392D03*
D261*
X458981Y634392D03*
D39*
X414429Y634442D03*
D97*
X443690Y634442D03*
D232*
X452148Y634442D03*
D262*
X458930Y634442D03*
D146*
X414429Y634493D03*
D43*
X443690Y634493D03*
D316*
X452250Y634493D03*
D260*
X458905Y634493D03*
D39*
X414429Y634544D03*
D94*
X443639Y634544D03*
D234*
X452301Y634544D03*
D53*
X458854Y634544D03*
D136*
X414455Y634595D03*
D99*
X443639Y634595D03*
D64*
X452377Y634595D03*
D260*
X458803Y634595D03*
D39*
X414480Y634646D03*
D94*
X443589Y634646D03*
D234*
X452453Y634646D03*
D61*
X458752Y634646D03*
D39*
X414480Y634696D03*
D94*
X443589Y634696D03*
D231*
X452529Y634696D03*
D61*
X458702Y634696D03*
D146*
X414480Y634747D03*
D317*
X443563Y634747D03*
D316*
X452606Y634747D03*
D55*
X458651Y634747D03*
D39*
X414480Y634798D03*
D97*
X443538Y634798D03*
D231*
X452682Y634798D03*
D254*
X458600Y634798D03*
D146*
X414480Y634849D03*
D317*
X443512Y634849D03*
D64*
X452733Y634849D03*
D55*
X458549Y634849D03*
D39*
X414480Y634900D03*
D94*
X443487Y634900D03*
D231*
X452834Y634900D03*
D254*
X458498Y634900D03*
D39*
X414480Y634950D03*
D106*
X443462Y634950D03*
D231*
X452885Y634950D03*
D58*
X458473Y634950D03*
D146*
X414480Y635001D03*
D317*
X443462Y635001D03*
D315*
X452961Y635001D03*
D252*
X458397Y635001D03*
D39*
X414480Y635052D03*
D106*
X443411Y635052D03*
D230*
X453063Y635052D03*
D56*
X458346Y635052D03*
D146*
X414480Y635103D03*
D317*
X443411Y635103D03*
D313*
X453114Y635103D03*
D252*
X458295Y635103D03*
D126*
X414506Y635154D03*
D102*
X443360Y635154D03*
D66*
X453190Y635154D03*
D250*
X458219Y635154D03*
D154*
X414531Y635204D03*
D102*
X443360Y635204D03*
D66*
X453291Y635204D03*
D248*
X458168Y635204D03*
D156*
X414531Y635255D03*
D317*
X443309Y635255D03*
D70*
X453368Y635255D03*
D46*
X458117Y635255D03*
D154*
X414531Y635306D03*
D106*
X443309Y635306D03*
D227*
X453444Y635306D03*
D244*
X458067Y635306D03*
D156*
X414531Y635357D03*
D104*
X443284Y635357D03*
D311*
X453545Y635357D03*
D241*
X457990Y635357D03*
D154*
X414531Y635408D03*
D106*
X443258Y635408D03*
D318*
X453647Y635408D03*
D239*
X457914Y635408D03*
D154*
X414531Y635458D03*
D111*
X443233Y635458D03*
D319*
X453774Y635458D03*
D236*
X457838Y635458D03*
D156*
X414531Y635509D03*
D317*
X443208Y635509D03*
D307*
X453901Y635509D03*
D316*
X457736Y635509D03*
D154*
X414531Y635560D03*
D106*
X443208Y635560D03*
D101*
X455679Y635560D03*
D156*
X414531Y635611D03*
D104*
X443182Y635611D03*
D320*
X455730Y635611D03*
D154*
X414531Y635662D03*
D106*
X443157Y635662D03*
D116*
X455730Y635662D03*
D126*
X414556Y635712D03*
D109*
X443131Y635712D03*
D118*
X455730Y635712D03*
D146*
X414582Y635763D03*
D321*
X443106Y635763D03*
D129*
X455755Y635763D03*
D39*
X414582Y635814D03*
D109*
X443081Y635814D03*
D295*
X455755Y635814D03*
D146*
X414582Y635865D03*
D104*
X443081Y635865D03*
D208*
X455755Y635865D03*
D39*
X414582Y635916D03*
D109*
X443030Y635916D03*
D209*
X455781Y635916D03*
D39*
X414582Y635966D03*
D109*
X443030Y635966D03*
D322*
X455781Y635966D03*
D146*
X414582Y636017D03*
D104*
X443030Y636017D03*
D323*
X455806Y636017D03*
D39*
X414582Y636068D03*
D111*
X442979Y636068D03*
D184*
X455806Y636068D03*
D146*
X414582Y636119D03*
D113*
X442979Y636119D03*
D324*
X455831Y636119D03*
D39*
X414582Y636170D03*
D109*
X442928Y636170D03*
D182*
X455831Y636170D03*
D39*
X414582Y636220D03*
D109*
X442928Y636220D03*
D180*
X455857Y636220D03*
D136*
X414607Y636271D03*
D104*
X442928Y636271D03*
D178*
X455857Y636271D03*
D39*
X414633Y636322D03*
D109*
X442877Y636322D03*
D325*
X455882Y636322D03*
D146*
X414633Y636373D03*
D104*
X442877Y636373D03*
D137*
X455882Y636373D03*
D39*
X414633Y636424D03*
D109*
X442827Y636424D03*
D140*
X455882Y636424D03*
D39*
X414633Y636474D03*
D109*
X442827Y636474D03*
D326*
X455882Y636474D03*
D146*
X414633Y636525D03*
D120*
X442801Y636525D03*
D327*
X455908Y636525D03*
D39*
X414633Y636576D03*
D109*
X442776Y636576D03*
D163*
X455933Y636576D03*
D146*
X414633Y636627D03*
D104*
X442776Y636627D03*
D328*
X455908Y636627D03*
D39*
X414633Y636678D03*
D115*
X442750Y636678D03*
D329*
X455933Y636678D03*
D39*
X414633Y636728D03*
D111*
X442725Y636728D03*
D330*
X455958Y636728D03*
D146*
X414633Y636779D03*
D122*
X442700Y636779D03*
D331*
X455958Y636779D03*
D126*
X414658Y636830D03*
D109*
X442674Y636830D03*
D78*
X455984Y636830D03*
D146*
X414683Y636881D03*
D104*
X442674Y636881D03*
D332*
X455984Y636881D03*
D39*
X414683Y636932D03*
D41*
X442649Y636932D03*
D227*
X455984Y636932D03*
D39*
X414683Y636982D03*
D109*
X442623Y636982D03*
D230*
X456009Y636982D03*
D146*
X414683Y637033D03*
D104*
X442623Y637033D03*
D237*
X456009Y637033D03*
D39*
X414683Y637084D03*
D115*
X442598Y637084D03*
D248*
X456035Y637084D03*
D146*
X414683Y637135D03*
D104*
X442573Y637135D03*
D260*
X456009Y637135D03*
D39*
X414683Y637186D03*
D41*
X442547Y637186D03*
D51*
X456035Y637186D03*
D39*
X414683Y637236D03*
D41*
X442547Y637236D03*
D281*
X456035Y637236D03*
D146*
X414683Y637287D03*
D104*
X442522Y637287D03*
D128*
X456060Y637287D03*
D39*
X414683Y637338D03*
D115*
X442496Y637338D03*
D333*
X456060Y637338D03*
D136*
X414709Y637389D03*
D113*
X442471Y637389D03*
D39*
X414734Y637440D03*
D115*
X442446Y637440D03*
D39*
X414734Y637490D03*
D115*
X442446Y637490D03*
D146*
X414734Y637541D03*
D104*
X442420Y637541D03*
D39*
X414734Y637592D03*
D41*
X442395Y637592D03*
D146*
X414734Y637643D03*
D120*
X442395Y637643D03*
D39*
X414734Y637694D03*
D109*
X442369Y637694D03*
D39*
X414734Y637744D03*
D115*
X442344Y637744D03*
D146*
X414734Y637795D03*
D122*
X442344Y637795D03*
D39*
X414734Y637846D03*
D41*
X442293Y637846D03*
D146*
X414734Y637897D03*
D120*
X442293Y637897D03*
D126*
X414760Y637948D03*
D41*
X442293Y637948D03*
D154*
X414785Y637998D03*
D115*
X442242Y637998D03*
D156*
X414785Y638049D03*
D122*
X442242Y638049D03*
D154*
X414785Y638100D03*
D111*
X442217Y638100D03*
D156*
X414785Y638151D03*
D122*
X442192Y638151D03*
D154*
X414785Y638202D03*
D115*
X442192Y638202D03*
D154*
X414785Y638252D03*
D109*
X442166Y638252D03*
D156*
X414785Y638303D03*
D120*
X442141Y638303D03*
D154*
X414785Y638354D03*
D41*
X442141Y638354D03*
D156*
X414785Y638405D03*
D122*
X442090Y638405D03*
D154*
X414785Y638456D03*
D115*
X442090Y638456D03*
D126*
X414810Y638506D03*
D115*
X442090Y638506D03*
D146*
X414836Y638557D03*
D120*
X442039Y638557D03*
D39*
X414836Y638608D03*
D41*
X442039Y638608D03*
D146*
X414836Y638659D03*
D120*
X442039Y638659D03*
D39*
X414836Y638710D03*
D115*
X441988Y638710D03*
D39*
X414836Y638760D03*
D115*
X441988Y638760D03*
D146*
X414836Y638811D03*
D122*
X441988Y638811D03*
D39*
X414836Y638862D03*
D115*
X441938Y638862D03*
D146*
X414836Y638913D03*
D122*
X441938Y638913D03*
D39*
X414836Y638964D03*
D115*
X441938Y638964D03*
D39*
X414836Y639014D03*
D41*
X441887Y639014D03*
D146*
X414836Y639065D03*
D120*
X441887Y639065D03*
D39*
X414887Y639116D03*
D124*
X441861Y639116D03*
D146*
X414887Y639167D03*
D122*
X441836Y639167D03*
D39*
X414887Y639218D03*
D115*
X441836Y639218D03*
D39*
X414887Y639268D03*
D124*
X441811Y639268D03*
D146*
X414887Y639319D03*
D120*
X441785Y639319D03*
D39*
X414887Y639370D03*
D41*
X441785Y639370D03*
D146*
X414887Y639421D03*
D125*
X441760Y639421D03*
D39*
X414887Y639472D03*
D115*
X441734Y639472D03*
D39*
X414887Y639522D03*
D115*
X441734Y639522D03*
D146*
X414887Y639573D03*
D125*
X441709Y639573D03*
D39*
X414887Y639624D03*
D115*
X441684Y639624D03*
D146*
X414937Y639675D03*
D122*
X441684Y639675D03*
D39*
X414937Y639726D03*
D124*
X441658Y639726D03*
D39*
X414937Y639776D03*
D41*
X441633Y639776D03*
D146*
X414937Y639827D03*
D120*
X441633Y639827D03*
D39*
X414937Y639878D03*
D124*
X441607Y639878D03*
D146*
X414937Y639929D03*
D122*
X441582Y639929D03*
D39*
X414937Y639980D03*
D115*
X441582Y639980D03*
D39*
X414937Y640030D03*
D124*
X441557Y640030D03*
D146*
X414937Y640081D03*
D120*
X441531Y640081D03*
D39*
X414937Y640132D03*
D41*
X441531Y640132D03*
D146*
X414937Y640183D03*
D125*
X441506Y640183D03*
D39*
X414988Y640234D03*
D115*
X441480Y640234D03*
D39*
X414988Y640284D03*
D115*
X441480Y640284D03*
D146*
X414988Y640335D03*
D125*
X441455Y640335D03*
D39*
X414988Y640386D03*
D115*
X441430Y640386D03*
D146*
X414988Y640437D03*
D122*
X441430Y640437D03*
D39*
X414988Y640488D03*
D124*
X441404Y640488D03*
D39*
X414988Y640538D03*
D41*
X441379Y640538D03*
D146*
X414988Y640589D03*
D120*
X441379Y640589D03*
D39*
X414988Y640640D03*
D124*
X441353Y640640D03*
D146*
X414988Y640691D03*
D122*
X441328Y640691D03*
D39*
X414988Y640742D03*
D115*
X441328Y640742D03*
D167*
X415014Y640792D03*
D124*
X441303Y640792D03*
D156*
X415039Y640843D03*
D120*
X441277Y640843D03*
D154*
X415039Y640894D03*
D41*
X441277Y640894D03*
D156*
X415039Y640945D03*
D125*
X441252Y640945D03*
D154*
X415039Y640996D03*
D115*
X441226Y640996D03*
D154*
X415039Y641046D03*
D115*
X441226Y641046D03*
D156*
X415039Y641097D03*
D125*
X441201Y641097D03*
D154*
X415039Y641148D03*
D115*
X441176Y641148D03*
D156*
X415039Y641199D03*
D122*
X441176Y641199D03*
D154*
X415039Y641250D03*
D124*
X441150Y641250D03*
D154*
X415039Y641300D03*
D41*
X441125Y641300D03*
D156*
X415039Y641351D03*
D125*
X441099Y641351D03*
D39*
X415090Y641402D03*
D124*
X441099Y641402D03*
D146*
X415090Y641453D03*
D122*
X441074Y641453D03*
D39*
X415090Y641504D03*
D115*
X441074Y641504D03*
D39*
X415090Y641554D03*
D124*
X441049Y641554D03*
D146*
X415090Y641605D03*
D120*
X441023Y641605D03*
D39*
X415090Y641656D03*
D124*
X440998Y641656D03*
D146*
X415090Y641707D03*
D125*
X440998Y641707D03*
D39*
X415090Y641758D03*
D115*
X440972Y641758D03*
D39*
X415090Y641808D03*
D124*
X440947Y641808D03*
D146*
X415090Y641859D03*
D125*
X440947Y641859D03*
D39*
X415090Y641910D03*
D115*
X440922Y641910D03*
D165*
X415115Y641961D03*
D125*
X440896Y641961D03*
D39*
X415141Y642012D03*
D124*
X440896Y642012D03*
D39*
X415141Y642062D03*
D41*
X440871Y642062D03*
D146*
X415141Y642113D03*
D125*
X440845Y642113D03*
D39*
X415141Y642164D03*
D124*
X440845Y642164D03*
D146*
X415141Y642215D03*
D122*
X440820Y642215D03*
D39*
X415141Y642266D03*
D124*
X440795Y642266D03*
D39*
X415141Y642316D03*
D124*
X440795Y642316D03*
D146*
X415141Y642367D03*
D120*
X440769Y642367D03*
D39*
X415141Y642418D03*
D124*
X440744Y642418D03*
D146*
X415141Y642469D03*
D125*
X440744Y642469D03*
D334*
X415166Y642520D03*
D115*
X440718Y642520D03*
D39*
X415191Y642570D03*
D124*
X440693Y642570D03*
D146*
X415191Y642621D03*
D125*
X440693Y642621D03*
D39*
X415191Y642672D03*
D115*
X440668Y642672D03*
D146*
X415191Y642723D03*
D125*
X440642Y642723D03*
D39*
X415191Y642774D03*
D124*
X440642Y642774D03*
D39*
X415191Y642824D03*
D41*
X440617Y642824D03*
D146*
X415191Y642875D03*
D125*
X440591Y642875D03*
D39*
X415191Y642926D03*
D124*
X440591Y642926D03*
D146*
X415191Y642977D03*
D122*
X440566Y642977D03*
D39*
X415191Y643028D03*
D124*
X440541Y643028D03*
D167*
X415217Y643078D03*
D124*
X440541Y643078D03*
D146*
X415242Y643129D03*
D120*
X440515Y643129D03*
D39*
X415242Y643180D03*
D124*
X440490Y643180D03*
D146*
X415242Y643231D03*
D125*
X440490Y643231D03*
D39*
X415242Y643282D03*
D115*
X440464Y643282D03*
D39*
X415242Y643332D03*
D124*
X440439Y643332D03*
D146*
X415242Y643383D03*
D125*
X440439Y643383D03*
D39*
X415242Y643434D03*
D115*
X440414Y643434D03*
D146*
X415242Y643485D03*
D125*
X440388Y643485D03*
D39*
X415242Y643536D03*
D124*
X440388Y643536D03*
D39*
X415242Y643586D03*
D41*
X440363Y643586D03*
D165*
X415268Y643637D03*
D125*
X440337Y643637D03*
D167*
X415268Y643688D03*
D124*
X440337Y643688D03*
D156*
X415293Y643739D03*
D122*
X440312Y643739D03*
D154*
X415293Y643790D03*
D124*
X440287Y643790D03*
D154*
X415293Y643840D03*
D124*
X440287Y643840D03*
D156*
X415293Y643891D03*
D120*
X440261Y643891D03*
D154*
X415293Y643942D03*
D124*
X440236Y643942D03*
D156*
X415293Y643993D03*
D125*
X440236Y643993D03*
D154*
X415293Y644044D03*
D115*
X440210Y644044D03*
D154*
X415293Y644094D03*
D115*
X440210Y644094D03*
D156*
X415293Y644145D03*
D125*
X440185Y644145D03*
D167*
X415318Y644196D03*
D115*
X440160Y644196D03*
D165*
X415318Y644247D03*
D122*
X440160Y644247D03*
D39*
X415344Y644298D03*
D124*
X440134Y644298D03*
D39*
X415344Y644348D03*
D41*
X440109Y644348D03*
D146*
X415344Y644399D03*
D120*
X440109Y644399D03*
D39*
X415344Y644450D03*
D124*
X440083Y644450D03*
D146*
X415344Y644501D03*
D122*
X440058Y644501D03*
D39*
X415344Y644552D03*
D115*
X440058Y644552D03*
D39*
X415344Y644602D03*
D124*
X440033Y644602D03*
D146*
X415344Y644653D03*
D120*
X440007Y644653D03*
D39*
X415344Y644704D03*
D41*
X440007Y644704D03*
D165*
X415369Y644755D03*
D125*
X439982Y644755D03*
D167*
X415369Y644806D03*
D115*
X439956Y644806D03*
D39*
X415395Y644856D03*
D115*
X439956Y644856D03*
D146*
X415395Y644907D03*
D125*
X439931Y644907D03*
D39*
X415395Y644958D03*
D115*
X439906Y644958D03*
D146*
X415395Y645009D03*
D122*
X439906Y645009D03*
D39*
X415395Y645060D03*
D124*
X439880Y645060D03*
D39*
X415395Y645110D03*
D41*
X439855Y645110D03*
D146*
X415395Y645161D03*
D120*
X439855Y645161D03*
D39*
X415395Y645212D03*
D124*
X439829Y645212D03*
D146*
X415395Y645263D03*
D122*
X439804Y645263D03*
D39*
X415395Y645314D03*
D115*
X439804Y645314D03*
D334*
X415420Y645364D03*
D124*
X439779Y645364D03*
D37*
X415420Y645415D03*
D120*
X439753Y645415D03*
D39*
X415445Y645466D03*
D41*
X439753Y645466D03*
D146*
X415445Y645517D03*
D125*
X439728Y645517D03*
D39*
X415445Y645568D03*
D115*
X439702Y645568D03*
D39*
X415445Y645618D03*
D115*
X439702Y645618D03*
D146*
X415445Y645669D03*
D125*
X439677Y645669D03*
D39*
X415445Y645720D03*
D115*
X439652Y645720D03*
D146*
X415445Y645771D03*
D122*
X439652Y645771D03*
D39*
X415445Y645822D03*
D41*
X439601Y645822D03*
D39*
X415445Y645872D03*
D41*
X439601Y645872D03*
D165*
X415471Y645923D03*
D120*
X439601Y645923D03*
D167*
X415471Y645974D03*
D115*
X439550Y645974D03*
D146*
X415496Y646025D03*
D122*
X439550Y646025D03*
D39*
X415496Y646076D03*
D124*
X439525Y646076D03*
D39*
X415496Y646126D03*
D41*
X439499Y646126D03*
D146*
X415496Y646177D03*
D120*
X439499Y646177D03*
D39*
X415496Y646228D03*
D124*
X439474Y646228D03*
D146*
X415496Y646279D03*
D122*
X439448Y646279D03*
D39*
X415496Y646330D03*
D115*
X439448Y646330D03*
D39*
X415496Y646380D03*
D124*
X439423Y646380D03*
D146*
X415496Y646431D03*
D122*
X439398Y646431D03*
D167*
X415522Y646482D03*
D115*
X439398Y646482D03*
D165*
X415522Y646533D03*
D125*
X439372Y646533D03*
D154*
X415547Y646584D03*
D41*
X439347Y646584D03*
D154*
X415547Y646634D03*
D41*
X439347Y646634D03*
D156*
X415547Y646685D03*
D122*
X439296Y646685D03*
D154*
X415547Y646736D03*
D115*
X439296Y646736D03*
D156*
X415547Y646787D03*
D122*
X439296Y646787D03*
D154*
X415547Y646838D03*
D41*
X439245Y646838D03*
D154*
X415547Y646888D03*
D41*
X439245Y646888D03*
D156*
X415547Y646939D03*
D120*
X439245Y646939D03*
D154*
X415547Y646990D03*
D115*
X439194Y646990D03*
D165*
X415572Y647041D03*
D122*
X439194Y647041D03*
D167*
X415572Y647092D03*
D115*
X439194Y647092D03*
D39*
X415598Y647142D03*
D115*
X439144Y647142D03*
D146*
X415598Y647193D03*
D122*
X439144Y647193D03*
D39*
X415598Y647244D03*
D115*
X439144Y647244D03*
D146*
X415598Y647295D03*
D120*
X439093Y647295D03*
D39*
X415598Y647346D03*
D41*
X439093Y647346D03*
D39*
X415598Y647396D03*
D109*
X439067Y647396D03*
D146*
X415598Y647447D03*
D122*
X439042Y647447D03*
D39*
X415598Y647498D03*
D115*
X439042Y647498D03*
D146*
X415598Y647549D03*
D104*
X439017Y647549D03*
D167*
X415623Y647600D03*
D41*
X438991Y647600D03*
D167*
X415623Y647650D03*
D41*
X438991Y647650D03*
D146*
X415649Y647701D03*
D122*
X438940Y647701D03*
D39*
X415649Y647752D03*
D115*
X438940Y647752D03*
D146*
X415649Y647803D03*
D113*
X438915Y647803D03*
D39*
X415649Y647854D03*
D115*
X438890Y647854D03*
D39*
X415649Y647904D03*
D115*
X438890Y647904D03*
D146*
X415649Y647955D03*
D104*
X438864Y647955D03*
D39*
X415649Y648006D03*
D41*
X438839Y648006D03*
D146*
X415649Y648057D03*
D120*
X438839Y648057D03*
D39*
X415649Y648108D03*
D109*
X438813Y648108D03*
D334*
X415674Y648158D03*
D115*
X438788Y648158D03*
D37*
X415674Y648209D03*
D104*
X438763Y648209D03*
D39*
X415699Y648260D03*
D109*
X438763Y648260D03*
D146*
X415699Y648311D03*
D120*
X438737Y648311D03*
D39*
X415699Y648362D03*
D109*
X438712Y648362D03*
D39*
X415699Y648412D03*
D115*
X438686Y648412D03*
D146*
X415699Y648463D03*
D122*
X438686Y648463D03*
D39*
X415699Y648514D03*
D111*
X438661Y648514D03*
D146*
X415699Y648565D03*
D122*
X438636Y648565D03*
D39*
X415699Y648616D03*
D109*
X438610Y648616D03*
D39*
X415699Y648666D03*
D109*
X438610Y648666D03*
D165*
X415725Y648717D03*
D120*
X438585Y648717D03*
D167*
X415725Y648768D03*
D109*
X438559Y648768D03*
D146*
X415750Y648819D03*
D104*
X438559Y648819D03*
D39*
X415750Y648870D03*
D109*
X438509Y648870D03*
D39*
X415750Y648920D03*
D109*
X438509Y648920D03*
D146*
X415750Y648971D03*
D120*
X438483Y648971D03*
D39*
X415750Y649022D03*
D109*
X438458Y649022D03*
D146*
X415750Y649073D03*
D104*
X438458Y649073D03*
D39*
X415750Y649124D03*
D115*
X438432Y649124D03*
D39*
X415750Y649174D03*
D111*
X438407Y649174D03*
D146*
X415750Y649225D03*
D113*
X438407Y649225D03*
D167*
X415776Y649276D03*
D109*
X438356Y649276D03*
D165*
X415776Y649327D03*
D104*
X438356Y649327D03*
D154*
X415801Y649378D03*
D109*
X438356Y649378D03*
D154*
X415801Y649428D03*
D109*
X438305Y649428D03*
D156*
X415801Y649479D03*
D104*
X438305Y649479D03*
D154*
X415801Y649530D03*
D109*
X438255Y649530D03*
D156*
X415801Y649581D03*
D104*
X438255Y649581D03*
D154*
X415801Y649632D03*
D109*
X438255Y649632D03*
D154*
X415801Y649682D03*
D109*
X438204Y649682D03*
D156*
X415801Y649733D03*
D104*
X438204Y649733D03*
D154*
X415801Y649784D03*
D106*
X438178Y649784D03*
D165*
X415826Y649835D03*
D113*
X438153Y649835D03*
D167*
X415826Y649886D03*
D111*
X438153Y649886D03*
D39*
X415852Y649936D03*
D109*
X438102Y649936D03*
D146*
X415852Y649987D03*
D104*
X438102Y649987D03*
D39*
X415852Y650038D03*
D106*
X438077Y650038D03*
D146*
X415852Y650089D03*
D104*
X438051Y650089D03*
D39*
X415852Y650140D03*
D102*
X438026Y650140D03*
D39*
X415852Y650190D03*
D109*
X438001Y650190D03*
D146*
X415852Y650241D03*
D104*
X438001Y650241D03*
D39*
X415852Y650292D03*
D106*
X437975Y650292D03*
D165*
X415877Y650343D03*
D104*
X437950Y650343D03*
D167*
X415877Y650394D03*
D106*
X437924Y650394D03*
D167*
X415877Y650444D03*
D111*
X437899Y650444D03*
D146*
X415903Y650495D03*
D317*
X437874Y650495D03*
D39*
X415903Y650546D03*
D106*
X437874Y650546D03*
D146*
X415903Y650597D03*
D104*
X437848Y650597D03*
D39*
X415903Y650648D03*
D106*
X437823Y650648D03*
D39*
X415903Y650698D03*
D109*
X437797Y650698D03*
D146*
X415903Y650749D03*
D321*
X437772Y650749D03*
D39*
X415903Y650800D03*
D102*
X437772Y650800D03*
D146*
X415903Y650851D03*
D104*
X437747Y650851D03*
D334*
X415928Y650902D03*
D106*
X437721Y650902D03*
D334*
X415928Y650952D03*
D109*
X437696Y650952D03*
D146*
X415953Y651003D03*
D317*
X437670Y651003D03*
D39*
X415953Y651054D03*
D106*
X437670Y651054D03*
D146*
X415953Y651105D03*
D317*
X437620Y651105D03*
D39*
X415953Y651156D03*
D106*
X437620Y651156D03*
D39*
X415953Y651206D03*
D106*
X437569Y651206D03*
D146*
X415953Y651257D03*
D317*
X437569Y651257D03*
D39*
X415953Y651308D03*
D106*
X437569Y651308D03*
D146*
X415953Y651359D03*
D321*
X437518Y651359D03*
D39*
X415953Y651410D03*
D102*
X437518Y651410D03*
D167*
X415979Y651460D03*
D106*
X437467Y651460D03*
D165*
X415979Y651511D03*
D317*
X437467Y651511D03*
D39*
X416004Y651562D03*
D106*
X437416Y651562D03*
D146*
X416004Y651613D03*
D317*
X437416Y651613D03*
D39*
X416004Y651664D03*
D106*
X437366Y651664D03*
D39*
X416004Y651714D03*
D106*
X437366Y651714D03*
D146*
X416004Y651765D03*
D317*
X437366Y651765D03*
D39*
X416004Y651816D03*
D106*
X437315Y651816D03*
D146*
X416004Y651867D03*
D317*
X437315Y651867D03*
D39*
X416004Y651918D03*
D102*
X437264Y651918D03*
D167*
X416030Y651968D03*
D102*
X437264Y651968D03*
D165*
X416030Y652019D03*
D317*
X437213Y652019D03*
D167*
X416030Y652070D03*
D106*
X437213Y652070D03*
D156*
X416055Y652121D03*
D43*
X437188Y652121D03*
D154*
X416055Y652172D03*
D106*
X437162Y652172D03*
D154*
X416055Y652222D03*
D94*
X437137Y652222D03*
D156*
X416055Y652273D03*
D317*
X437112Y652273D03*
D154*
X416055Y652324D03*
D97*
X437086Y652324D03*
D156*
X416055Y652375D03*
D317*
X437061Y652375D03*
D154*
X416055Y652426D03*
D94*
X437035Y652426D03*
D154*
X416055Y652476D03*
D102*
X437010Y652476D03*
D165*
X416080Y652527D03*
D321*
X437010Y652527D03*
D167*
X416080Y652578D03*
D106*
X436959Y652578D03*
D165*
X416080Y652629D03*
D317*
X436959Y652629D03*
D39*
X416106Y652680D03*
D97*
X436934Y652680D03*
D39*
X416106Y652730D03*
D106*
X436908Y652730D03*
D146*
X416106Y652781D03*
D99*
X436883Y652781D03*
D39*
X416106Y652832D03*
D106*
X436858Y652832D03*
D146*
X416106Y652883D03*
D43*
X436832Y652883D03*
D39*
X416106Y652934D03*
D106*
X436807Y652934D03*
D39*
X416106Y652984D03*
D94*
X436781Y652984D03*
D146*
X416106Y653035D03*
D321*
X436756Y653035D03*
D167*
X416131Y653086D03*
D94*
X436731Y653086D03*
D165*
X416131Y653137D03*
D317*
X436705Y653137D03*
D39*
X416157Y653188D03*
D97*
X436680Y653188D03*
D39*
X416157Y653238D03*
D106*
X436654Y653238D03*
D146*
X416157Y653289D03*
D99*
X436629Y653289D03*
D39*
X416157Y653340D03*
D106*
X436604Y653340D03*
D146*
X416157Y653391D03*
D43*
X436578Y653391D03*
D39*
X416157Y653442D03*
D106*
X436553Y653442D03*
D39*
X416157Y653492D03*
D94*
X436527Y653492D03*
D146*
X416157Y653543D03*
D99*
X436527Y653543D03*
D39*
X416157Y653594D03*
D94*
X436477Y653594D03*
D37*
X416182Y653645D03*
D99*
X436477Y653645D03*
D334*
X416182Y653696D03*
D97*
X436426Y653696D03*
D39*
X416207Y653746D03*
D97*
X436426Y653746D03*
D146*
X416207Y653797D03*
D99*
X436375Y653797D03*
D39*
X416207Y653848D03*
D94*
X436375Y653848D03*
D146*
X416207Y653899D03*
D43*
X436324Y653899D03*
D39*
X416207Y653950D03*
D97*
X436324Y653950D03*
D39*
X416207Y654000D03*
D94*
X436273Y654000D03*
D146*
X416207Y654051D03*
D99*
X436273Y654051D03*
D39*
X416207Y654102D03*
D94*
X436223Y654102D03*
D165*
X416233Y654153D03*
D91*
X436197Y654153D03*
D167*
X416233Y654204D03*
D97*
X436172Y654204D03*
D39*
X416258Y654254D03*
D45*
X436146Y654254D03*
D146*
X416258Y654305D03*
D99*
X436121Y654305D03*
D39*
X416258Y654356D03*
D45*
X436096Y654356D03*
D146*
X416258Y654407D03*
D43*
X436070Y654407D03*
D39*
X416258Y654458D03*
D45*
X436045Y654458D03*
D39*
X416258Y654508D03*
D94*
X436019Y654508D03*
D146*
X416258Y654559D03*
D91*
X435994Y654559D03*
D39*
X416258Y654610D03*
D94*
X435969Y654610D03*
D146*
X416258Y654661D03*
D43*
X435918Y654661D03*
D167*
X416284Y654712D03*
D97*
X435918Y654712D03*
D167*
X416284Y654762D03*
D94*
X435867Y654762D03*
D156*
X416309Y654813D03*
D99*
X435867Y654813D03*
D154*
X416309Y654864D03*
D97*
X435816Y654864D03*
D156*
X416309Y654915D03*
D91*
X435791Y654915D03*
D154*
X416309Y654966D03*
D94*
X435765Y654966D03*
D154*
X416309Y655016D03*
D45*
X435740Y655016D03*
D156*
X416309Y655067D03*
D99*
X435715Y655067D03*
D154*
X416309Y655118D03*
D45*
X435689Y655118D03*
D156*
X416309Y655169D03*
D43*
X435664Y655169D03*
D167*
X416334Y655220D03*
D45*
X435638Y655220D03*
D167*
X416334Y655270D03*
D94*
X435613Y655270D03*
D146*
X416360Y655321D03*
D91*
X435588Y655321D03*
D39*
X416360Y655372D03*
D45*
X435537Y655372D03*
D146*
X416360Y655423D03*
D91*
X435537Y655423D03*
D39*
X416360Y655474D03*
D45*
X435486Y655474D03*
D39*
X416360Y655524D03*
D45*
X435486Y655524D03*
D146*
X416360Y655575D03*
D91*
X435435Y655575D03*
D39*
X416360Y655626D03*
D45*
X435435Y655626D03*
D146*
X416360Y655677D03*
D91*
X435384Y655677D03*
D167*
X416385Y655728D03*
D94*
X435359Y655728D03*
D167*
X416385Y655778D03*
D45*
X435334Y655778D03*
D165*
X416385Y655829D03*
D91*
X435283Y655829D03*
D39*
X416411Y655880D03*
D45*
X435283Y655880D03*
D146*
X416411Y655931D03*
D91*
X435232Y655931D03*
D39*
X416411Y655982D03*
D45*
X435232Y655982D03*
D39*
X416411Y656032D03*
D45*
X435181Y656032D03*
D146*
X416411Y656083D03*
D91*
X435181Y656083D03*
D39*
X416411Y656134D03*
D45*
X435130Y656134D03*
D146*
X416411Y656185D03*
D88*
X435105Y656185D03*
D334*
X416436Y656236D03*
D45*
X435080Y656236D03*
D334*
X416436Y656286D03*
D335*
X435054Y656286D03*
D37*
X416436Y656337D03*
D91*
X435029Y656337D03*
D39*
X416461Y656388D03*
D281*
X435003Y656388D03*
D146*
X416461Y656439D03*
D91*
X434978Y656439D03*
D39*
X416461Y656490D03*
D45*
X434927Y656490D03*
D39*
X416461Y656540D03*
D45*
X434927Y656540D03*
D146*
X416461Y656591D03*
D91*
X434876Y656591D03*
D39*
X416461Y656642D03*
D281*
X434851Y656642D03*
D146*
X416461Y656693D03*
D91*
X434826Y656693D03*
D39*
X416461Y656744D03*
D335*
X434800Y656744D03*
D167*
X416487Y656794D03*
D45*
X434775Y656794D03*
D165*
X416487Y656845D03*
D88*
X434749Y656845D03*
D39*
X416512Y656896D03*
D45*
X434724Y656896D03*
D146*
X416512Y656947D03*
D88*
X434699Y656947D03*
D39*
X416512Y656998D03*
D335*
X434648Y656998D03*
D39*
X416512Y657048D03*
D45*
X434622Y657048D03*
D146*
X416512Y657099D03*
D88*
X434597Y657099D03*
D39*
X416512Y657150D03*
D45*
X434572Y657150D03*
D146*
X416512Y657201D03*
D314*
X434546Y657201D03*
D39*
X416512Y657252D03*
D45*
X434521Y657252D03*
D167*
X416538Y657302D03*
D281*
X434495Y657302D03*
D165*
X416538Y657353D03*
D91*
X434470Y657353D03*
D154*
X416563Y657404D03*
D281*
X434445Y657404D03*
D156*
X416563Y657455D03*
D314*
X434394Y657455D03*
D154*
X416563Y657506D03*
D335*
X434394Y657506D03*
D154*
X416563Y657556D03*
D281*
X434343Y657556D03*
D156*
X416563Y657607D03*
D91*
X434318Y657607D03*
D154*
X416563Y657658D03*
D335*
X434292Y657658D03*
D156*
X416563Y657709D03*
D91*
X434267Y657709D03*
D154*
X416563Y657760D03*
D281*
X434241Y657760D03*
D167*
X416588Y657810D03*
D45*
X434216Y657810D03*
D165*
X416588Y657861D03*
D88*
X434191Y657861D03*
D39*
X416614Y657912D03*
D45*
X434165Y657912D03*
D146*
X416614Y657963D03*
D314*
X434140Y657963D03*
D39*
X416614Y658014D03*
D281*
X434089Y658014D03*
D39*
X416614Y658064D03*
D281*
X434089Y658064D03*
D146*
X416614Y658115D03*
D314*
X434038Y658115D03*
D39*
X416614Y658166D03*
D45*
X434013Y658166D03*
D146*
X416614Y658217D03*
D88*
X433987Y658217D03*
D39*
X416614Y658268D03*
D45*
X433962Y658268D03*
D39*
X416614Y658318D03*
D281*
X433937Y658318D03*
D165*
X416639Y658369D03*
D91*
X433911Y658369D03*
D39*
X416665Y658420D03*
D335*
X433886Y658420D03*
D146*
X416665Y658471D03*
D91*
X433860Y658471D03*
D39*
X416665Y658522D03*
D281*
X433835Y658522D03*
D39*
X416665Y658572D03*
D45*
X433810Y658572D03*
D146*
X416665Y658623D03*
D314*
X433784Y658623D03*
D39*
X416665Y658674D03*
D281*
X433733Y658674D03*
D146*
X416665Y658725D03*
D91*
X433708Y658725D03*
D39*
X416665Y658776D03*
D281*
X433683Y658776D03*
D39*
X416665Y658826D03*
D45*
X433657Y658826D03*
D37*
X416690Y658877D03*
D314*
X433632Y658877D03*
D39*
X416715Y658928D03*
D45*
X433606Y658928D03*
D146*
X416715Y658979D03*
D88*
X433581Y658979D03*
D39*
X416715Y659030D03*
D45*
X433556Y659030D03*
D39*
X416715Y659080D03*
D335*
X433530Y659080D03*
D146*
X416715Y659131D03*
D91*
X433505Y659131D03*
D39*
X416715Y659182D03*
D281*
X433479Y659182D03*
D146*
X416715Y659233D03*
D91*
X433454Y659233D03*
D39*
X416715Y659284D03*
D281*
X433429Y659284D03*
D39*
X416715Y659334D03*
D45*
X433403Y659334D03*
D165*
X416741Y659385D03*
D314*
X433378Y659385D03*
D167*
X416741Y659436D03*
D45*
X433352Y659436D03*
D146*
X416766Y659487D03*
D91*
X433302Y659487D03*
D39*
X416766Y659538D03*
D45*
X433302Y659538D03*
D39*
X416766Y659588D03*
D45*
X433251Y659588D03*
D146*
X416766Y659639D03*
D91*
X433251Y659639D03*
D39*
X416766Y659690D03*
D45*
X433200Y659690D03*
D146*
X416766Y659741D03*
D91*
X433200Y659741D03*
D39*
X416766Y659792D03*
D45*
X433149Y659792D03*
D39*
X416766Y659842D03*
D45*
X433149Y659842D03*
D165*
X416792Y659893D03*
D91*
X433098Y659893D03*
D154*
X416817Y659944D03*
D45*
X433098Y659944D03*
D156*
X416817Y659995D03*
D91*
X433048Y659995D03*
D154*
X416817Y660046D03*
D45*
X433048Y660046D03*
D154*
X416817Y660096D03*
D45*
X432997Y660096D03*
D156*
X416817Y660147D03*
D91*
X432997Y660147D03*
D154*
X416817Y660198D03*
D94*
X432971Y660198D03*
D156*
X416817Y660249D03*
D91*
X432946Y660249D03*
D154*
X416817Y660300D03*
D94*
X432921Y660300D03*
D154*
X416817Y660350D03*
D45*
X432895Y660350D03*
D165*
X416842Y660401D03*
D43*
X432870Y660401D03*
D39*
X416868Y660452D03*
D45*
X432844Y660452D03*
D146*
X416868Y660503D03*
D99*
X432819Y660503D03*
D39*
X416868Y660554D03*
D45*
X432794Y660554D03*
D39*
X416868Y660604D03*
D97*
X432768Y660604D03*
D146*
X416868Y660655D03*
D91*
X432743Y660655D03*
D39*
X416868Y660706D03*
D94*
X432717Y660706D03*
D146*
X416868Y660757D03*
D91*
X432692Y660757D03*
D39*
X416868Y660808D03*
D94*
X432667Y660808D03*
D167*
X416893Y660858D03*
D45*
X432641Y660858D03*
D165*
X416893Y660909D03*
D43*
X432616Y660909D03*
D39*
X416919Y660960D03*
D45*
X432590Y660960D03*
D146*
X416919Y661011D03*
D99*
X432565Y661011D03*
D39*
X416919Y661062D03*
D45*
X432540Y661062D03*
D39*
X416919Y661112D03*
D97*
X432514Y661112D03*
D146*
X416919Y661163D03*
D43*
X432514Y661163D03*
D39*
X416919Y661214D03*
D94*
X432463Y661214D03*
D146*
X416919Y661265D03*
D99*
X432463Y661265D03*
D39*
X416919Y661316D03*
D94*
X432413Y661316D03*
D334*
X416944Y661366D03*
D94*
X432413Y661366D03*
D37*
X416944Y661417D03*
D43*
X432362Y661417D03*
D39*
X416969Y661468D03*
D97*
X432362Y661468D03*
D146*
X416969Y661519D03*
D91*
X432336Y661519D03*
D39*
X416969Y661570D03*
D94*
X432311Y661570D03*
D39*
X416969Y661620D03*
D94*
X432311Y661620D03*
D146*
X416969Y661671D03*
D43*
X432260Y661671D03*
D39*
X416969Y661722D03*
D97*
X432260Y661722D03*
D146*
X416969Y661773D03*
D99*
X432209Y661773D03*
D39*
X416969Y661824D03*
D94*
X432209Y661824D03*
D167*
X416995Y661874D03*
D94*
X432159Y661874D03*
D146*
X417020Y661925D03*
D99*
X432159Y661925D03*
D39*
X417020Y661976D03*
D97*
X432108Y661976D03*
D146*
X417020Y662027D03*
D43*
X432108Y662027D03*
D39*
X417020Y662078D03*
D106*
X432082Y662078D03*
D39*
X417020Y662128D03*
D94*
X432057Y662128D03*
D146*
X417020Y662179D03*
D317*
X432032Y662179D03*
D39*
X417020Y662230D03*
D97*
X432006Y662230D03*
D146*
X417020Y662281D03*
D43*
X432006Y662281D03*
D39*
X417020Y662332D03*
D94*
X431955Y662332D03*
D167*
X417046Y662382D03*
D94*
X431955Y662382D03*
D156*
X417071Y662433D03*
D321*
X431930Y662433D03*
D154*
X417071Y662484D03*
D94*
X431905Y662484D03*
D156*
X417071Y662535D03*
D317*
X431879Y662535D03*
D154*
X417071Y662586D03*
D97*
X431854Y662586D03*
D154*
X417071Y662636D03*
D106*
X431828Y662636D03*
D156*
X417071Y662687D03*
D99*
X431803Y662687D03*
D154*
X417071Y662738D03*
D94*
X431803Y662738D03*
D156*
X417071Y662789D03*
D317*
X431778Y662789D03*
D167*
X417096Y662840D03*
D97*
X431752Y662840D03*
D39*
X417122Y662890D03*
D106*
X431727Y662890D03*
D146*
X417122Y662941D03*
D99*
X431701Y662941D03*
D39*
X417122Y662992D03*
D102*
X431676Y662992D03*
D146*
X417122Y663043D03*
D321*
X431676Y663043D03*
D39*
X417122Y663094D03*
D94*
X431651Y663094D03*
D39*
X417122Y663144D03*
D106*
X431625Y663144D03*
D146*
X417122Y663195D03*
D43*
X431600Y663195D03*
D39*
X417122Y663246D03*
D106*
X431574Y663246D03*
D146*
X417122Y663297D03*
D317*
X431574Y663297D03*
D167*
X417147Y663348D03*
D106*
X431524Y663348D03*
D39*
X417173Y663398D03*
D106*
X431524Y663398D03*
D146*
X417173Y663449D03*
D43*
X431498Y663449D03*
D39*
X417173Y663500D03*
D106*
X431473Y663500D03*
D146*
X417173Y663551D03*
D317*
X431473Y663551D03*
D39*
X417173Y663602D03*
D102*
X431422Y663602D03*
D39*
X417173Y663652D03*
D102*
X431422Y663652D03*
D146*
X417173Y663703D03*
D317*
X431371Y663703D03*
D39*
X417173Y663754D03*
D106*
X431371Y663754D03*
D146*
X417173Y663805D03*
D317*
X431371Y663805D03*
D39*
X417223Y663856D03*
D106*
X431320Y663856D03*
D39*
X417223Y663906D03*
D106*
X431320Y663906D03*
D146*
X417223Y663957D03*
D317*
X431270Y663957D03*
D39*
X417223Y664008D03*
D106*
X431270Y664008D03*
D146*
X417223Y664059D03*
D317*
X431270Y664059D03*
D39*
X417223Y664110D03*
D106*
X431219Y664110D03*
D39*
X417223Y664160D03*
D106*
X431219Y664160D03*
D146*
X417223Y664211D03*
D321*
X431168Y664211D03*
D39*
X417223Y664262D03*
D102*
X431168Y664262D03*
D165*
X417249Y664313D03*
D104*
X431143Y664313D03*
D39*
X417274Y664364D03*
D106*
X431117Y664364D03*
D39*
X417274Y664414D03*
D106*
X431117Y664414D03*
D146*
X417274Y664465D03*
D104*
X431092Y664465D03*
D39*
X417274Y664516D03*
D106*
X431066Y664516D03*
D146*
X417274Y664567D03*
D317*
X431066Y664567D03*
D39*
X417274Y664618D03*
D106*
X431016Y664618D03*
D39*
X417274Y664668D03*
D106*
X431016Y664668D03*
D146*
X417274Y664719D03*
D104*
X430990Y664719D03*
D39*
X417274Y664770D03*
D106*
X430965Y664770D03*
D156*
X417325Y664821D03*
D317*
X430965Y664821D03*
D154*
X417325Y664872D03*
D102*
X430914Y664872D03*
D154*
X417325Y664922D03*
D102*
X430914Y664922D03*
D156*
X417325Y664973D03*
D104*
X430889Y664973D03*
D154*
X417325Y665024D03*
D106*
X430863Y665024D03*
D156*
X417325Y665075D03*
D317*
X430863Y665075D03*
D154*
X417325Y665126D03*
D109*
X430838Y665126D03*
D154*
X417325Y665176D03*
D106*
X430812Y665176D03*
D156*
X417325Y665227D03*
D113*
X430787Y665227D03*
D39*
X417376Y665278D03*
D111*
X430787Y665278D03*
D146*
X417376Y665329D03*
D317*
X430762Y665329D03*
D39*
X417376Y665380D03*
D109*
X430736Y665380D03*
D39*
X417376Y665430D03*
D106*
X430711Y665430D03*
D146*
X417376Y665481D03*
D317*
X430711Y665481D03*
D39*
X417376Y665532D03*
D109*
X430685Y665532D03*
D146*
X417376Y665583D03*
D321*
X430660Y665583D03*
D39*
X417376Y665634D03*
D109*
X430635Y665634D03*
D39*
X417376Y665684D03*
D109*
X430635Y665684D03*
D146*
X417427Y665735D03*
D317*
X430609Y665735D03*
D39*
X417427Y665786D03*
D109*
X430584Y665786D03*
D146*
X417427Y665837D03*
D104*
X430584Y665837D03*
D39*
X417427Y665888D03*
D106*
X430558Y665888D03*
D39*
X417427Y665938D03*
D111*
X430533Y665938D03*
D146*
X417427Y665989D03*
D113*
X430533Y665989D03*
D39*
X417427Y666040D03*
D106*
X430508Y666040D03*
D146*
X417427Y666091D03*
D104*
X430482Y666091D03*
D39*
X417427Y666142D03*
D106*
X430457Y666142D03*
D39*
X417477Y666192D03*
D109*
X430431Y666192D03*
D146*
X417477Y666243D03*
D104*
X430431Y666243D03*
D39*
X417477Y666294D03*
D102*
X430406Y666294D03*
D146*
X417477Y666345D03*
D104*
X430381Y666345D03*
D39*
X417477Y666396D03*
D109*
X430381Y666396D03*
D39*
X417477Y666446D03*
D106*
X430355Y666446D03*
D146*
X417477Y666497D03*
D104*
X430330Y666497D03*
D39*
X417477Y666548D03*
D109*
X430330Y666548D03*
D146*
X417477Y666599D03*
D317*
X430304Y666599D03*
D138*
X417503Y666650D03*
D111*
X430279Y666650D03*
D39*
X417528Y666700D03*
D111*
X430279Y666700D03*
D146*
X417528Y666751D03*
D104*
X430228Y666751D03*
D39*
X417528Y666802D03*
D109*
X430228Y666802D03*
D146*
X417528Y666853D03*
D104*
X430228Y666853D03*
D39*
X417528Y666904D03*
D109*
X430177Y666904D03*
D39*
X417528Y666954D03*
D109*
X430177Y666954D03*
D146*
X417528Y667005D03*
D104*
X430177Y667005D03*
D39*
X417528Y667056D03*
D109*
X430127Y667056D03*
D128*
X417554Y667107D03*
D104*
X430127Y667107D03*
D154*
X417579Y667158D03*
D109*
X430127Y667158D03*
D154*
X417579Y667208D03*
D109*
X430076Y667208D03*
D156*
X417579Y667259D03*
D104*
X430076Y667259D03*
D154*
X417579Y667310D03*
D109*
X430076Y667310D03*
D156*
X417579Y667361D03*
D113*
X430025Y667361D03*
D154*
X417579Y667412D03*
D111*
X430025Y667412D03*
D154*
X417579Y667462D03*
D111*
X430025Y667462D03*
D156*
X417579Y667513D03*
D104*
X429974Y667513D03*
D126*
X417604Y667564D03*
D109*
X429974Y667564D03*
D146*
X417630Y667615D03*
D104*
X429974Y667615D03*
D39*
X417630Y667666D03*
D109*
X429923Y667666D03*
D39*
X417630Y667716D03*
D109*
X429923Y667716D03*
D146*
X417630Y667767D03*
D104*
X429923Y667767D03*
D39*
X417630Y667818D03*
D109*
X429873Y667818D03*
D146*
X417630Y667869D03*
D104*
X429873Y667869D03*
D39*
X417630Y667920D03*
D109*
X429873Y667920D03*
D39*
X417630Y667970D03*
D109*
X429822Y667970D03*
D146*
X417681Y668021D03*
D104*
X429822Y668021D03*
D39*
X417681Y668072D03*
D109*
X429822Y668072D03*
D146*
X417681Y668123D03*
D113*
X429771Y668123D03*
D39*
X417681Y668174D03*
D111*
X429771Y668174D03*
D39*
X417681Y668224D03*
D111*
X429771Y668224D03*
D146*
X417681Y668275D03*
D122*
X429746Y668275D03*
D39*
X417681Y668326D03*
D109*
X429720Y668326D03*
D146*
X417681Y668377D03*
D104*
X429720Y668377D03*
D39*
X417681Y668428D03*
D41*
X429695Y668428D03*
D39*
X417731Y668478D03*
D109*
X429669Y668478D03*
D146*
X417731Y668529D03*
D104*
X429669Y668529D03*
D39*
X417731Y668580D03*
D115*
X429644Y668580D03*
D146*
X417731Y668631D03*
D104*
X429619Y668631D03*
D39*
X417731Y668682D03*
D109*
X429619Y668682D03*
D39*
X417731Y668732D03*
D41*
X429593Y668732D03*
D146*
X417731Y668783D03*
D104*
X429568Y668783D03*
D39*
X417731Y668834D03*
D109*
X429568Y668834D03*
D146*
X417731Y668885D03*
D122*
X429542Y668885D03*
D39*
X417782Y668936D03*
D111*
X429517Y668936D03*
D39*
X417782Y668986D03*
D111*
X429517Y668986D03*
D146*
X417782Y669037D03*
D122*
X429492Y669037D03*
D39*
X417782Y669088D03*
D115*
X429492Y669088D03*
D146*
X417782Y669139D03*
D104*
X429466Y669139D03*
D39*
X417782Y669190D03*
D41*
X429441Y669190D03*
D39*
X417782Y669240D03*
D41*
X429441Y669240D03*
D146*
X417782Y669291D03*
D104*
X429415Y669291D03*
D126*
X417808Y669342D03*
D109*
X429415Y669342D03*
D156*
X417833Y669393D03*
D122*
X429390Y669393D03*
D154*
X417833Y669444D03*
D109*
X429365Y669444D03*
D154*
X417833Y669494D03*
D109*
X429365Y669494D03*
D156*
X417833Y669545D03*
D120*
X429339Y669545D03*
D154*
X417833Y669596D03*
D41*
X429339Y669596D03*
D156*
X417833Y669647D03*
D104*
X429314Y669647D03*
D154*
X417833Y669698D03*
D115*
X429288Y669698D03*
D154*
X417833Y669748D03*
D115*
X429288Y669748D03*
D146*
X417884Y669799D03*
D113*
X429263Y669799D03*
D39*
X417884Y669850D03*
D115*
X429238Y669850D03*
D146*
X417884Y669901D03*
D122*
X429238Y669901D03*
D39*
X417884Y669952D03*
D109*
X429212Y669952D03*
D39*
X417884Y670002D03*
D41*
X429187Y670002D03*
D146*
X417884Y670053D03*
D120*
X429187Y670053D03*
D39*
X417884Y670104D03*
D41*
X429187Y670104D03*
D146*
X417884Y670155D03*
D104*
X429161Y670155D03*
D138*
X417909Y670206D03*
D115*
X429136Y670206D03*
D39*
X417935Y670256D03*
D115*
X429136Y670256D03*
D146*
X417935Y670307D03*
D104*
X429111Y670307D03*
D39*
X417935Y670358D03*
D41*
X429085Y670358D03*
D146*
X417935Y670409D03*
D120*
X429085Y670409D03*
D39*
X417935Y670460D03*
D109*
X429060Y670460D03*
D39*
X417935Y670510D03*
D115*
X429034Y670510D03*
D146*
X417935Y670561D03*
D122*
X429034Y670561D03*
D39*
X417935Y670612D03*
D115*
X429034Y670612D03*
D146*
X417985Y670663D03*
D113*
X429009Y670663D03*
D39*
X417985Y670714D03*
D115*
X428984Y670714D03*
D39*
X417985Y670764D03*
D115*
X428984Y670764D03*
D146*
X417985Y670815D03*
D104*
X428958Y670815D03*
D39*
X417985Y670866D03*
D41*
X428933Y670866D03*
D146*
X417985Y670917D03*
D120*
X428933Y670917D03*
D39*
X417985Y670968D03*
D41*
X428933Y670968D03*
D39*
X417985Y671018D03*
D115*
X428882Y671018D03*
D136*
X418011Y671069D03*
D122*
X428882Y671069D03*
D39*
X418036Y671120D03*
D115*
X428882Y671120D03*
D146*
X418036Y671171D03*
D104*
X428857Y671171D03*
D39*
X418036Y671222D03*
D41*
X428831Y671222D03*
D39*
X418036Y671272D03*
D41*
X428831Y671272D03*
D146*
X418036Y671323D03*
D120*
X428831Y671323D03*
D39*
X418036Y671374D03*
D115*
X428780Y671374D03*
D146*
X418036Y671425D03*
D122*
X428780Y671425D03*
D126*
X418062Y671476D03*
D115*
X428780Y671476D03*
D154*
X418087Y671526D03*
D115*
X428730Y671526D03*
D156*
X418087Y671577D03*
D122*
X428730Y671577D03*
D154*
X418087Y671628D03*
D115*
X428730Y671628D03*
D156*
X418087Y671679D03*
D122*
X428730Y671679D03*
D154*
X418087Y671730D03*
D41*
X428679Y671730D03*
D154*
X418087Y671780D03*
D41*
X428679Y671780D03*
D156*
X418087Y671831D03*
D120*
X428679Y671831D03*
D126*
X418112Y671882D03*
D115*
X428628Y671882D03*
D146*
X418138Y671933D03*
D122*
X428628Y671933D03*
D39*
X418138Y671984D03*
D115*
X428628Y671984D03*
D39*
X418138Y672034D03*
D115*
X428628Y672034D03*
D146*
X418138Y672085D03*
D120*
X428577Y672085D03*
D39*
X418138Y672136D03*
D41*
X428577Y672136D03*
D146*
X418138Y672187D03*
D120*
X428577Y672187D03*
D39*
X418138Y672238D03*
D124*
X428552Y672238D03*
D39*
X418138Y672288D03*
D115*
X428526Y672288D03*
D146*
X418189Y672339D03*
D122*
X428526Y672339D03*
D39*
X418189Y672390D03*
D115*
X428526Y672390D03*
D146*
X418189Y672441D03*
D122*
X428476Y672441D03*
D39*
X418189Y672492D03*
D115*
X428476Y672492D03*
D39*
X418189Y672542D03*
D115*
X428476Y672542D03*
D146*
X418189Y672593D03*
D125*
X428450Y672593D03*
D39*
X418189Y672644D03*
D41*
X428425Y672644D03*
D146*
X418189Y672695D03*
D120*
X428425Y672695D03*
D39*
X418239Y672746D03*
D41*
X428425Y672746D03*
D39*
X418239Y672796D03*
D124*
X428399Y672796D03*
D146*
X418239Y672847D03*
D122*
X428374Y672847D03*
D39*
X418239Y672898D03*
D115*
X428374Y672898D03*
D146*
X418239Y672949D03*
D125*
X428349Y672949D03*
D39*
X418239Y673000D03*
D41*
X428323Y673000D03*
D39*
X418239Y673050D03*
D41*
X428323Y673050D03*
D136*
X418265Y673101D03*
D120*
X428323Y673101D03*
D39*
X418290Y673152D03*
D124*
X428298Y673152D03*
D146*
X418290Y673203D03*
D122*
X428272Y673203D03*
D39*
X418290Y673254D03*
D115*
X428272Y673254D03*
D39*
X418290Y673304D03*
D124*
X428247Y673304D03*
D146*
X418290Y673355D03*
D125*
X428247Y673355D03*
D39*
X418290Y673406D03*
D115*
X428222Y673406D03*
D146*
X418290Y673457D03*
D122*
X428222Y673457D03*
D126*
X418316Y673508D03*
D124*
X428196Y673508D03*
D154*
X418341Y673558D03*
D124*
X428196Y673558D03*
D156*
X418341Y673609D03*
D120*
X428171Y673609D03*
D154*
X418341Y673660D03*
D41*
X428171Y673660D03*
D156*
X418341Y673711D03*
D125*
X428145Y673711D03*
D154*
X418341Y673762D03*
D115*
X428120Y673762D03*
D154*
X418341Y673812D03*
D115*
X428120Y673812D03*
D156*
X418341Y673863D03*
D125*
X428095Y673863D03*
D126*
X418366Y673914D03*
D124*
X428095Y673914D03*
D146*
X418392Y673965D03*
D120*
X428069Y673965D03*
D39*
X418392Y674016D03*
D41*
X428069Y674016D03*
D39*
X418392Y674066D03*
D124*
X428044Y674066D03*
D146*
X418392Y674117D03*
D125*
X428044Y674117D03*
D39*
X418392Y674168D03*
D115*
X428018Y674168D03*
D146*
X418392Y674219D03*
D125*
X427993Y674219D03*
D39*
X418392Y674270D03*
D124*
X427993Y674270D03*
D138*
X418417Y674320D03*
D124*
X427993Y674320D03*
D146*
X418443Y674371D03*
D122*
X427968Y674371D03*
D39*
X418443Y674422D03*
D124*
X427942Y674422D03*
D146*
X418443Y674473D03*
D125*
X427942Y674473D03*
D39*
X418443Y674524D03*
D124*
X427942Y674524D03*
D39*
X418443Y674574D03*
D41*
X427917Y674574D03*
D146*
X418443Y674625D03*
D125*
X427891Y674625D03*
D126*
X418468Y674676D03*
D124*
X427891Y674676D03*
D146*
X418493Y674727D03*
D125*
X427891Y674727D03*
D39*
X418493Y674778D03*
D124*
X427841Y674778D03*
D39*
X418493Y674828D03*
D124*
X427841Y674828D03*
D146*
X418493Y674879D03*
D125*
X427841Y674879D03*
D39*
X418493Y674930D03*
D41*
X427815Y674930D03*
D146*
X418493Y674981D03*
D125*
X427790Y674981D03*
D39*
X418493Y675032D03*
D124*
X427790Y675032D03*
D138*
X418519Y675082D03*
D124*
X427790Y675082D03*
D146*
X418544Y675133D03*
D122*
X427764Y675133D03*
D39*
X418544Y675184D03*
D124*
X427739Y675184D03*
D146*
X418544Y675235D03*
D125*
X427739Y675235D03*
D39*
X418544Y675286D03*
D124*
X427739Y675286D03*
D39*
X418544Y675336D03*
D115*
X427714Y675336D03*
D146*
X418544Y675387D03*
D125*
X427688Y675387D03*
D126*
X418570Y675438D03*
D124*
X427688Y675438D03*
D156*
X418595Y675489D03*
D125*
X427688Y675489D03*
D154*
X418595Y675540D03*
D124*
X427637Y675540D03*
D154*
X418595Y675590D03*
D124*
X427637Y675590D03*
D156*
X418595Y675641D03*
D125*
X427637Y675641D03*
D154*
X418595Y675692D03*
D124*
X427637Y675692D03*
D156*
X418595Y675743D03*
D125*
X427587Y675743D03*
D126*
X418620Y675794D03*
D124*
X427587Y675794D03*
D126*
X418620Y675844D03*
D124*
X427587Y675844D03*
D146*
X418646Y675895D03*
D125*
X427587Y675895D03*
D39*
X418646Y675946D03*
D124*
X427536Y675946D03*
D146*
X418646Y675997D03*
D125*
X427536Y675997D03*
D39*
X418646Y676048D03*
D124*
X427536Y676048D03*
D39*
X418646Y676098D03*
D126*
X427510Y676098D03*
D136*
X418671Y676149D03*
D125*
X427485Y676149D03*
D138*
X418671Y676200D03*
D124*
X427485Y676200D03*
D146*
X418697Y676251D03*
D125*
X427485Y676251D03*
D39*
X418697Y676302D03*
D126*
X427460Y676302D03*
D39*
X418697Y676352D03*
D124*
X427434Y676352D03*
D146*
X418697Y676403D03*
D125*
X427434Y676403D03*
D39*
X418697Y676454D03*
D124*
X427434Y676454D03*
D146*
X418697Y676505D03*
D136*
X427409Y676505D03*
D126*
X418722Y676556D03*
D124*
X427383Y676556D03*
D39*
X418747Y676606D03*
D124*
X427383Y676606D03*
D146*
X418747Y676657D03*
D125*
X427383Y676657D03*
D39*
X418747Y676708D03*
D126*
X427358Y676708D03*
D146*
X418747Y676759D03*
D125*
X427333Y676759D03*
D39*
X418747Y676810D03*
D124*
X427333Y676810D03*
D39*
X418747Y676860D03*
D124*
X427333Y676860D03*
D136*
X418773Y676911D03*
X427307Y676911D03*
D39*
X418798Y676962D03*
D124*
X427282Y676962D03*
D146*
X418798Y677013D03*
D125*
X427282Y677013D03*
D39*
X418798Y677064D03*
D126*
X427256Y677064D03*
D39*
X418798Y677114D03*
D126*
X427256Y677114D03*
D146*
X418798Y677165D03*
D125*
X427231Y677165D03*
D126*
X418824Y677216D03*
D124*
X427231Y677216D03*
D128*
X418824Y677267D03*
X427206Y677267D03*
D154*
X418849Y677318D03*
D126*
X427206Y677318D03*
D154*
X418849Y677368D03*
D124*
X427180Y677368D03*
D156*
X418849Y677419D03*
D125*
X427180Y677419D03*
D154*
X418849Y677470D03*
D138*
X427155Y677470D03*
D156*
X418849Y677521D03*
D136*
X427155Y677521D03*
D126*
X418874Y677572D03*
D124*
X427129Y677572D03*
D126*
X418874Y677622D03*
D124*
X427129Y677622D03*
D146*
X418900Y677673D03*
D128*
X427104Y677673D03*
D39*
X418900Y677724D03*
D126*
X427104Y677724D03*
D146*
X418900Y677775D03*
D125*
X427079Y677775D03*
D39*
X418900Y677826D03*
D124*
X427079Y677826D03*
D39*
X418900Y677876D03*
D138*
X427053Y677876D03*
D136*
X418925Y677927D03*
X427053Y677927D03*
D39*
X418951Y677978D03*
D124*
X427028Y677978D03*
D146*
X418951Y678029D03*
D125*
X427028Y678029D03*
D39*
X418951Y678080D03*
D126*
X427002Y678080D03*
D39*
X418951Y678130D03*
D126*
X427002Y678130D03*
D146*
X418951Y678181D03*
D125*
X426977Y678181D03*
D39*
X418951Y678232D03*
D126*
X426952Y678232D03*
D128*
X418976Y678283D03*
X426952Y678283D03*
D39*
X419001Y678334D03*
D126*
X426952Y678334D03*
D39*
X419001Y678384D03*
D124*
X426926Y678384D03*
D146*
X419001Y678435D03*
D136*
X426901Y678435D03*
D39*
X419001Y678486D03*
D138*
X426901Y678486D03*
D146*
X419001Y678537D03*
D136*
X426901Y678537D03*
D138*
X419027Y678588D03*
D124*
X426875Y678588D03*
D138*
X419027Y678638D03*
D126*
X426850Y678638D03*
D146*
X419052Y678689D03*
D128*
X426850Y678689D03*
D39*
X419052Y678740D03*
D126*
X426850Y678740D03*
D146*
X419052Y678791D03*
D125*
X426825Y678791D03*
D39*
X419052Y678842D03*
D138*
X426799Y678842D03*
D126*
X419078Y678892D03*
D138*
X426799Y678892D03*
D128*
X419078Y678943D03*
D136*
X426799Y678943D03*
D154*
X419103Y678994D03*
D124*
X426774Y678994D03*
D156*
X419103Y679045D03*
D128*
X426748Y679045D03*
D154*
X419103Y679096D03*
D126*
X426748Y679096D03*
D154*
X419103Y679146D03*
D124*
X426723Y679146D03*
D156*
X419103Y679197D03*
D128*
X426698Y679197D03*
D126*
X419128Y679248D03*
X426698Y679248D03*
D146*
X419154Y679299D03*
D128*
X426698Y679299D03*
D39*
X419154Y679350D03*
D124*
X426672Y679350D03*
D39*
X419154Y679400D03*
D138*
X426647Y679400D03*
D146*
X419154Y679451D03*
D136*
X426647Y679451D03*
D39*
X419154Y679502D03*
D138*
X426647Y679502D03*
D136*
X419179Y679553D03*
D125*
X426621Y679553D03*
D138*
X419179Y679604D03*
D126*
X426596Y679604D03*
D39*
X419205Y679654D03*
D126*
X426596Y679654D03*
D146*
X419205Y679705D03*
D128*
X426596Y679705D03*
D39*
X419205Y679756D03*
D124*
X426571Y679756D03*
D146*
X419205Y679807D03*
D136*
X426545Y679807D03*
D126*
X419230Y679858D03*
D138*
X426545Y679858D03*
D126*
X419230Y679908D03*
D138*
X426545Y679908D03*
D146*
X419255Y679959D03*
D125*
X426520Y679959D03*
D39*
X419255Y680010D03*
D126*
X426494Y680010D03*
D146*
X419255Y680061D03*
D128*
X426494Y680061D03*
D39*
X419255Y680112D03*
D126*
X426494Y680112D03*
D138*
X419281Y680162D03*
D126*
X426444Y680162D03*
D136*
X419281Y680213D03*
D128*
X426444Y680213D03*
D39*
X419306Y680264D03*
D126*
X426444Y680264D03*
D146*
X419306Y680315D03*
D125*
X426418Y680315D03*
D39*
X419306Y680366D03*
D138*
X426393Y680366D03*
D39*
X419306Y680416D03*
D138*
X426393Y680416D03*
D128*
X419332Y680467D03*
D136*
X426393Y680467D03*
D126*
X419332Y680518D03*
D124*
X426367Y680518D03*
D156*
X419357Y680569D03*
D128*
X426342Y680569D03*
D154*
X419357Y680620D03*
D126*
X426342Y680620D03*
D154*
X419357Y680670D03*
D126*
X426342Y680670D03*
D128*
X419382Y680721D03*
D125*
X426317Y680721D03*
D126*
X419382Y680772D03*
D138*
X426291Y680772D03*
D128*
X419382Y680823D03*
D136*
X426291Y680823D03*
D39*
X419408Y680874D03*
D124*
X426266Y680874D03*
D39*
X419408Y680924D03*
D126*
X426240Y680924D03*
D146*
X419408Y680975D03*
D128*
X426240Y680975D03*
D138*
X419433Y681026D03*
D126*
X426240Y681026D03*
D136*
X419433Y681077D03*
D125*
X426215Y681077D03*
D138*
X419433Y681128D03*
D126*
X426190Y681128D03*
D39*
X419459Y681178D03*
D126*
X426190Y681178D03*
D146*
X419459Y681229D03*
D128*
X426190Y681229D03*
D126*
X419484Y681280D03*
D124*
X426164Y681280D03*
D128*
X419484Y681331D03*
D136*
X426139Y681331D03*
D126*
X419484Y681382D03*
D138*
X426139Y681382D03*
D39*
X419509Y681432D03*
D124*
X426113Y681432D03*
D146*
X419509Y681483D03*
D128*
X426088Y681483D03*
D39*
X419509Y681534D03*
D126*
X426088Y681534D03*
D136*
X419535Y681585D03*
D128*
X426088Y681585D03*
D138*
X419535Y681636D03*
D124*
X426063Y681636D03*
D138*
X419535Y681686D03*
X426037Y681686D03*
D146*
X419560Y681737D03*
D136*
X426037Y681737D03*
D39*
X419560Y681788D03*
D138*
X426037Y681788D03*
D128*
X419586Y681839D03*
D125*
X426012Y681839D03*
D126*
X419586Y681890D03*
X425986Y681890D03*
X419586Y681940D03*
X425986Y681940D03*
D156*
X419611Y681991D03*
D125*
X425961Y681991D03*
D154*
X419611Y682042D03*
D126*
X425936Y682042D03*
D128*
X419636Y682093D03*
X425936Y682093D03*
D126*
X419636Y682144D03*
X425936Y682144D03*
X419636Y682194D03*
D124*
X425910Y682194D03*
D128*
X419636Y682245D03*
D136*
X425885Y682245D03*
D39*
X419662Y682296D03*
D138*
X425885Y682296D03*
D136*
X419687Y682347D03*
D125*
X425859Y682347D03*
D138*
X419687Y682398D03*
D126*
X425834Y682398D03*
D138*
X419687Y682448D03*
D126*
X425834Y682448D03*
D136*
X419687Y682499D03*
D128*
X425834Y682499D03*
D39*
X419713Y682550D03*
D124*
X425809Y682550D03*
D128*
X419738Y682601D03*
D136*
X425783Y682601D03*
D126*
X419738Y682652D03*
D138*
X425783Y682652D03*
D126*
X419738Y682702D03*
D124*
X425758Y682702D03*
D128*
X419738Y682753D03*
D125*
X425758Y682753D03*
D138*
X419789Y682804D03*
D126*
X425732Y682804D03*
D136*
X419789Y682855D03*
D125*
X425707Y682855D03*
D138*
X419789Y682906D03*
D124*
X425707Y682906D03*
D138*
X419789Y682956D03*
D126*
X425682Y682956D03*
D136*
X419789Y683007D03*
D128*
X425682Y683007D03*
D126*
X419840Y683058D03*
D124*
X425656Y683058D03*
D128*
X419840Y683109D03*
D125*
X425656Y683109D03*
D126*
X419840Y683160D03*
D138*
X425631Y683160D03*
D126*
X419840Y683210D03*
D124*
X425605Y683210D03*
D125*
X419865Y683261D03*
X425605Y683261D03*
D126*
X419890Y683312D03*
X425580Y683312D03*
D128*
X419890Y683363D03*
X425580Y683363D03*
D126*
X419890Y683414D03*
D124*
X425555Y683414D03*
X419916Y683464D03*
X425555Y683464D03*
D125*
X419916Y683515D03*
D136*
X425529Y683515D03*
D138*
X419941Y683566D03*
D124*
X425504Y683566D03*
D136*
X419941Y683617D03*
D125*
X425504Y683617D03*
D124*
X419967Y683668D03*
D126*
X425478Y683668D03*
D124*
X419967Y683718D03*
X425453Y683718D03*
D125*
X419967Y683769D03*
X425453Y683769D03*
D126*
X419992Y683820D03*
X425428Y683820D03*
D125*
X420017Y683871D03*
X425402Y683871D03*
D124*
X420017Y683922D03*
X425402Y683922D03*
X420017Y683972D03*
X425402Y683972D03*
D136*
X420043Y684023D03*
D125*
X425351Y684023D03*
D124*
X420068Y684074D03*
X425351Y684074D03*
D125*
X420068Y684125D03*
X425351Y684125D03*
D124*
X420068Y684176D03*
D126*
X425326Y684176D03*
D124*
X420068Y684226D03*
X425301Y684226D03*
D125*
X420119Y684277D03*
X425301Y684277D03*
D124*
X420119Y684328D03*
X425301Y684328D03*
D125*
X420119Y684379D03*
X425250Y684379D03*
D124*
X420119Y684430D03*
X425250Y684430D03*
X420170Y684480D03*
X425250Y684480D03*
D125*
X420170Y684531D03*
X425199Y684531D03*
D124*
X420170Y684582D03*
X425199Y684582D03*
D120*
X420195Y684633D03*
D125*
X425199Y684633D03*
D41*
X420195Y684684D03*
D124*
X425148Y684684D03*
X420221Y684734D03*
X425148Y684734D03*
D125*
X420221Y684785D03*
X425148Y684785D03*
D115*
X420246Y684836D03*
D124*
X425097Y684836D03*
D122*
X420246Y684887D03*
D125*
X425097Y684887D03*
D124*
X420271Y684938D03*
X425097Y684938D03*
D41*
X420297Y684988D03*
D115*
X425072Y684988D03*
D120*
X420297Y685039D03*
D125*
X425047Y685039D03*
D41*
X420297Y685090D03*
D124*
X425047Y685090D03*
D125*
X420322Y685141D03*
D120*
X425021Y685141D03*
D115*
X420348Y685192D03*
D124*
X424996Y685192D03*
D115*
X420348Y685242D03*
D124*
X424996Y685242D03*
D122*
X420348Y685293D03*
X424970Y685293D03*
D115*
X420398Y685344D03*
D124*
X424945Y685344D03*
D122*
X420398Y685395D03*
X424920Y685395D03*
D115*
X420398Y685446D03*
X424920Y685446D03*
D109*
X420424Y685496D03*
D124*
X424894Y685496D03*
D120*
X420449Y685547D03*
X424869Y685547D03*
D41*
X420449Y685598D03*
X424869Y685598D03*
D104*
X420475Y685649D03*
D125*
X424843Y685649D03*
D109*
X420475Y685700D03*
D115*
X424818Y685700D03*
X420500Y685750D03*
X424818Y685750D03*
D104*
X420525Y685801D03*
D125*
X424793Y685801D03*
D109*
X420525Y685852D03*
D41*
X424767Y685852D03*
D120*
X420551Y685903D03*
X424767Y685903D03*
D109*
X420576Y685954D03*
D115*
X424716Y685954D03*
D109*
X420576Y686004D03*
D115*
X424716Y686004D03*
D104*
X420576Y686055D03*
D122*
X424716Y686055D03*
D111*
X420627Y686106D03*
D115*
X424666Y686106D03*
D113*
X420627Y686157D03*
D122*
X424666Y686157D03*
D111*
X420627Y686208D03*
D109*
X424640Y686208D03*
X420678Y686258D03*
X424640Y686258D03*
D104*
X420678Y686309D03*
D120*
X424615Y686309D03*
D109*
X420678Y686360D03*
X424589Y686360D03*
D317*
X420703Y686411D03*
D122*
X424564Y686411D03*
D109*
X420729Y686462D03*
X424539Y686462D03*
X420729Y686512D03*
X424539Y686512D03*
D321*
X420754Y686563D03*
D120*
X424513Y686563D03*
D109*
X420779Y686614D03*
X424488Y686614D03*
D104*
X420779Y686665D03*
X424488Y686665D03*
D106*
X420805Y686716D03*
D111*
X424437Y686716D03*
D109*
X420830Y686766D03*
D111*
X424437Y686766D03*
D317*
X420856Y686817D03*
X424412Y686817D03*
D106*
X420856Y686868D03*
D109*
X424386Y686868D03*
D317*
X420856Y686919D03*
D104*
X424386Y686919D03*
D106*
X420906Y686970D03*
X424361Y686970D03*
X420906Y687020D03*
D109*
X424335Y687020D03*
D43*
X420932Y687071D03*
D321*
X424310Y687071D03*
D106*
X420957Y687122D03*
D109*
X424285Y687122D03*
D317*
X420957Y687173D03*
X424259Y687173D03*
D94*
X420983Y687224D03*
D106*
X424259Y687224D03*
D102*
X421008Y687274D03*
D106*
X424208Y687274D03*
D99*
X421033Y687325D03*
D317*
X424208Y687325D03*
D106*
X421059Y687376D03*
D94*
X424183Y687376D03*
D43*
X421084Y687427D03*
D317*
X424158Y687427D03*
D97*
X421084Y687478D03*
X424132Y687478D03*
D106*
X421110Y687528D03*
D94*
X424081Y687528D03*
D99*
X421135Y687579D03*
X424081Y687579D03*
D94*
X421135Y687630D03*
D45*
X424056Y687630D03*
D43*
X421186Y687681D03*
D99*
X424031Y687681D03*
D97*
X421186Y687732D03*
D45*
X424005Y687732D03*
X421211Y687782D03*
D97*
X423980Y687782D03*
D99*
X421237Y687833D03*
D91*
X423954Y687833D03*
D45*
X421262Y687884D03*
D281*
X423929Y687884D03*
D99*
X421287Y687935D03*
D91*
X423904Y687935D03*
D45*
X421313Y687986D03*
D335*
X423878Y687986D03*
D45*
X421313Y688036D03*
D281*
X423827Y688036D03*
D91*
X421364Y688087D03*
D336*
X423802Y688087D03*
D281*
X421389Y688138D03*
D80*
X423751Y688138D03*
D91*
X421414Y688189D03*
D82*
X423751Y688189D03*
D335*
X421440Y688240D03*
D277*
X423726Y688240D03*
D281*
X421491Y688290D03*
D77*
X423650Y688290D03*
D88*
X421491Y688341D03*
D274*
X423624Y688341D03*
D86*
X421516Y688392D03*
D49*
X423573Y688392D03*
D218*
X422608Y688443D03*
D337*
X422583Y688494D03*
D283*
X422608Y688544D03*
D331*
X422583Y688595D03*
D338*
X422608Y688646D03*
D282*
X422583Y688697D03*
D78*
X422608Y688748D03*
D339*
X422583Y688798D03*
D307*
X422608Y688849D03*
D340*
X422608Y688900D03*
D332*
X422608Y688951D03*
D341*
X422608Y689002D03*
D226*
X422583Y689052D03*
D342*
X422608Y689103D03*
D66*
X422608Y689154D03*
D229*
X422608Y689205D03*
D231*
X422608Y689256D03*
D62*
X422608Y689306D03*
D233*
X422608Y689357D03*
D239*
X422608Y689408D03*
D245*
X422608Y689459D03*
D248*
X422608Y689510D03*
X422608Y689560D03*
D253*
X422608Y689611D03*
D257*
X422608Y689662D03*
D264*
X422608Y689713D03*
D65*
X422608Y689764D03*
D51*
X422608Y689814D03*
D274*
X422608Y689865D03*
D80*
X422634Y689916D03*
D91*
X422634Y689967D03*
D106*
X422634Y690018D03*
D126*
X422634Y690068D03*
D343*
X422659Y690119D03*
D344*
X422634Y690170D03*
D345*
X422659Y690221D03*
M02*
