G04 EAGLE Gerber RS-274X export*
G75*
%MOMM*%
%FSLAX34Y34*%
%LPD*%
%INSilkscreen Bottom*%
%IPPOS*%
%AMOC8*
5,1,8,0,0,1.08239X$1,22.5*%
G01*
%ADD10C,0.152400*%
%ADD11C,0.127000*%
%ADD12C,0.101600*%
%ADD13C,0.076200*%

G36*
X164035Y386677D02*
X164035Y386677D01*
X164101Y386679D01*
X164144Y386697D01*
X164191Y386705D01*
X164248Y386739D01*
X164308Y386764D01*
X164343Y386795D01*
X164384Y386820D01*
X164426Y386871D01*
X164474Y386915D01*
X164496Y386957D01*
X164525Y386994D01*
X164546Y387056D01*
X164577Y387115D01*
X164585Y387169D01*
X164597Y387206D01*
X164596Y387246D01*
X164604Y387300D01*
X164604Y393650D01*
X164592Y393716D01*
X164591Y393773D01*
X164583Y393792D01*
X164579Y393826D01*
X164569Y393847D01*
X164565Y393871D01*
X164521Y393944D01*
X164506Y393981D01*
X164498Y393990D01*
X164480Y394027D01*
X164463Y394044D01*
X164450Y394064D01*
X164381Y394120D01*
X164365Y394135D01*
X164355Y394147D01*
X164351Y394148D01*
X164317Y394181D01*
X164295Y394190D01*
X164276Y394205D01*
X164192Y394234D01*
X164110Y394269D01*
X164086Y394270D01*
X164064Y394277D01*
X163983Y394275D01*
X163970Y394277D01*
X163963Y394277D01*
X163956Y394276D01*
X163886Y394279D01*
X163863Y394271D01*
X163839Y394271D01*
X163768Y394242D01*
X163742Y394237D01*
X163724Y394227D01*
X163672Y394210D01*
X163651Y394194D01*
X163632Y394186D01*
X163594Y394152D01*
X163579Y394141D01*
X163548Y394123D01*
X163539Y394112D01*
X163522Y394098D01*
X157172Y387748D01*
X157121Y387675D01*
X157065Y387606D01*
X157057Y387584D01*
X157043Y387564D01*
X157021Y387478D01*
X156993Y387394D01*
X156993Y387370D01*
X156988Y387347D01*
X156997Y387258D01*
X156999Y387169D01*
X157008Y387147D01*
X157011Y387124D01*
X157050Y387044D01*
X157084Y386962D01*
X157100Y386944D01*
X157110Y386923D01*
X157175Y386862D01*
X157235Y386796D01*
X157256Y386785D01*
X157273Y386769D01*
X157355Y386734D01*
X157435Y386693D01*
X157461Y386690D01*
X157480Y386681D01*
X157530Y386679D01*
X157620Y386666D01*
X163970Y386666D01*
X164035Y386677D01*
G37*
G36*
X164035Y306677D02*
X164035Y306677D01*
X164101Y306679D01*
X164144Y306697D01*
X164191Y306705D01*
X164248Y306739D01*
X164308Y306764D01*
X164343Y306795D01*
X164384Y306820D01*
X164426Y306871D01*
X164474Y306915D01*
X164496Y306957D01*
X164525Y306994D01*
X164546Y307056D01*
X164577Y307115D01*
X164585Y307169D01*
X164597Y307206D01*
X164596Y307246D01*
X164604Y307300D01*
X164604Y313650D01*
X164592Y313716D01*
X164591Y313773D01*
X164583Y313792D01*
X164579Y313826D01*
X164569Y313847D01*
X164565Y313871D01*
X164521Y313944D01*
X164506Y313981D01*
X164498Y313990D01*
X164480Y314027D01*
X164463Y314044D01*
X164450Y314064D01*
X164381Y314120D01*
X164365Y314135D01*
X164355Y314147D01*
X164351Y314148D01*
X164317Y314181D01*
X164295Y314190D01*
X164276Y314205D01*
X164192Y314234D01*
X164110Y314269D01*
X164086Y314270D01*
X164064Y314277D01*
X163983Y314275D01*
X163970Y314277D01*
X163963Y314277D01*
X163956Y314276D01*
X163886Y314279D01*
X163863Y314271D01*
X163839Y314271D01*
X163768Y314242D01*
X163742Y314237D01*
X163724Y314227D01*
X163672Y314210D01*
X163651Y314194D01*
X163632Y314186D01*
X163594Y314152D01*
X163579Y314141D01*
X163548Y314123D01*
X163539Y314112D01*
X163522Y314098D01*
X157172Y307748D01*
X157121Y307675D01*
X157065Y307606D01*
X157057Y307584D01*
X157043Y307564D01*
X157021Y307478D01*
X156993Y307394D01*
X156993Y307370D01*
X156988Y307347D01*
X156997Y307258D01*
X156999Y307169D01*
X157008Y307147D01*
X157011Y307124D01*
X157050Y307044D01*
X157084Y306962D01*
X157100Y306944D01*
X157110Y306923D01*
X157175Y306862D01*
X157235Y306796D01*
X157256Y306785D01*
X157273Y306769D01*
X157355Y306734D01*
X157435Y306693D01*
X157461Y306690D01*
X157480Y306681D01*
X157530Y306679D01*
X157620Y306666D01*
X163970Y306666D01*
X164035Y306677D01*
G37*
G36*
X164035Y226677D02*
X164035Y226677D01*
X164101Y226679D01*
X164144Y226697D01*
X164191Y226705D01*
X164248Y226739D01*
X164308Y226764D01*
X164343Y226795D01*
X164384Y226820D01*
X164426Y226871D01*
X164474Y226915D01*
X164496Y226957D01*
X164525Y226994D01*
X164546Y227056D01*
X164577Y227115D01*
X164585Y227169D01*
X164597Y227206D01*
X164596Y227246D01*
X164604Y227300D01*
X164604Y233650D01*
X164592Y233716D01*
X164591Y233773D01*
X164583Y233792D01*
X164579Y233826D01*
X164569Y233847D01*
X164565Y233871D01*
X164521Y233944D01*
X164506Y233981D01*
X164498Y233990D01*
X164480Y234027D01*
X164463Y234044D01*
X164450Y234064D01*
X164381Y234120D01*
X164365Y234135D01*
X164355Y234147D01*
X164351Y234148D01*
X164317Y234181D01*
X164295Y234190D01*
X164276Y234205D01*
X164192Y234234D01*
X164110Y234269D01*
X164086Y234270D01*
X164064Y234277D01*
X163983Y234275D01*
X163970Y234277D01*
X163963Y234277D01*
X163956Y234276D01*
X163886Y234279D01*
X163863Y234271D01*
X163839Y234271D01*
X163768Y234242D01*
X163742Y234237D01*
X163724Y234227D01*
X163672Y234210D01*
X163651Y234194D01*
X163632Y234186D01*
X163594Y234152D01*
X163579Y234141D01*
X163548Y234123D01*
X163539Y234112D01*
X163522Y234098D01*
X157172Y227748D01*
X157121Y227675D01*
X157065Y227606D01*
X157057Y227584D01*
X157043Y227564D01*
X157021Y227478D01*
X156993Y227394D01*
X156993Y227370D01*
X156988Y227347D01*
X156997Y227258D01*
X156999Y227169D01*
X157008Y227147D01*
X157011Y227124D01*
X157050Y227044D01*
X157084Y226962D01*
X157100Y226944D01*
X157110Y226923D01*
X157175Y226862D01*
X157235Y226796D01*
X157256Y226785D01*
X157273Y226769D01*
X157355Y226734D01*
X157435Y226693D01*
X157461Y226690D01*
X157480Y226681D01*
X157530Y226679D01*
X157620Y226666D01*
X163970Y226666D01*
X164035Y226677D01*
G37*
D10*
X1241552Y72389D02*
X1257808Y72389D01*
X1257808Y76904D01*
X1257806Y77035D01*
X1257800Y77167D01*
X1257791Y77298D01*
X1257777Y77428D01*
X1257760Y77559D01*
X1257739Y77688D01*
X1257715Y77817D01*
X1257686Y77945D01*
X1257654Y78073D01*
X1257618Y78199D01*
X1257579Y78324D01*
X1257536Y78449D01*
X1257489Y78571D01*
X1257439Y78693D01*
X1257385Y78813D01*
X1257328Y78931D01*
X1257267Y79047D01*
X1257203Y79162D01*
X1257136Y79275D01*
X1257065Y79386D01*
X1256991Y79494D01*
X1256914Y79601D01*
X1256834Y79705D01*
X1256751Y79807D01*
X1256666Y79906D01*
X1256577Y80003D01*
X1256485Y80097D01*
X1256391Y80189D01*
X1256294Y80278D01*
X1256195Y80363D01*
X1256093Y80446D01*
X1255989Y80526D01*
X1255882Y80603D01*
X1255774Y80677D01*
X1255663Y80748D01*
X1255550Y80815D01*
X1255435Y80879D01*
X1255319Y80940D01*
X1255201Y80997D01*
X1255081Y81051D01*
X1254959Y81101D01*
X1254837Y81148D01*
X1254712Y81191D01*
X1254587Y81230D01*
X1254461Y81266D01*
X1254333Y81298D01*
X1254205Y81327D01*
X1254076Y81351D01*
X1253947Y81372D01*
X1253816Y81389D01*
X1253686Y81403D01*
X1253555Y81412D01*
X1253423Y81418D01*
X1253292Y81420D01*
X1246068Y81420D01*
X1245937Y81418D01*
X1245805Y81412D01*
X1245674Y81403D01*
X1245544Y81389D01*
X1245413Y81372D01*
X1245284Y81351D01*
X1245155Y81327D01*
X1245027Y81298D01*
X1244899Y81266D01*
X1244773Y81230D01*
X1244648Y81191D01*
X1244523Y81148D01*
X1244401Y81101D01*
X1244279Y81051D01*
X1244159Y80997D01*
X1244041Y80940D01*
X1243925Y80879D01*
X1243810Y80815D01*
X1243697Y80748D01*
X1243586Y80677D01*
X1243478Y80603D01*
X1243371Y80526D01*
X1243267Y80446D01*
X1243165Y80363D01*
X1243066Y80278D01*
X1242969Y80189D01*
X1242875Y80097D01*
X1242783Y80003D01*
X1242694Y79906D01*
X1242609Y79807D01*
X1242526Y79705D01*
X1242446Y79601D01*
X1242369Y79494D01*
X1242295Y79386D01*
X1242224Y79275D01*
X1242157Y79162D01*
X1242093Y79047D01*
X1242032Y78931D01*
X1241975Y78813D01*
X1241921Y78693D01*
X1241871Y78571D01*
X1241824Y78449D01*
X1241781Y78324D01*
X1241742Y78199D01*
X1241706Y78073D01*
X1241674Y77945D01*
X1241645Y77817D01*
X1241621Y77688D01*
X1241600Y77559D01*
X1241583Y77428D01*
X1241569Y77298D01*
X1241560Y77167D01*
X1241554Y77035D01*
X1241552Y76904D01*
X1241552Y72389D01*
X1241552Y88367D02*
X1252389Y88367D01*
X1256905Y87916D02*
X1257808Y87916D01*
X1257808Y88819D01*
X1256905Y88819D01*
X1256905Y87916D01*
X1247874Y96009D02*
X1246068Y100525D01*
X1247874Y96009D02*
X1247911Y95921D01*
X1247952Y95835D01*
X1247996Y95750D01*
X1248044Y95667D01*
X1248095Y95587D01*
X1248149Y95508D01*
X1248207Y95432D01*
X1248267Y95358D01*
X1248331Y95286D01*
X1248397Y95218D01*
X1248467Y95152D01*
X1248538Y95089D01*
X1248613Y95028D01*
X1248689Y94971D01*
X1248768Y94918D01*
X1248849Y94867D01*
X1248932Y94820D01*
X1249017Y94776D01*
X1249104Y94736D01*
X1249192Y94699D01*
X1249282Y94666D01*
X1249373Y94636D01*
X1249465Y94611D01*
X1249558Y94589D01*
X1249652Y94571D01*
X1249746Y94556D01*
X1249841Y94546D01*
X1249937Y94540D01*
X1250032Y94537D01*
X1250128Y94538D01*
X1250223Y94544D01*
X1250319Y94553D01*
X1250413Y94566D01*
X1250507Y94582D01*
X1250601Y94603D01*
X1250693Y94628D01*
X1250784Y94656D01*
X1250874Y94688D01*
X1250963Y94723D01*
X1251050Y94762D01*
X1251136Y94805D01*
X1251220Y94851D01*
X1251301Y94901D01*
X1251381Y94953D01*
X1251459Y95009D01*
X1251534Y95069D01*
X1251606Y95131D01*
X1251676Y95196D01*
X1251744Y95264D01*
X1251808Y95334D01*
X1251870Y95407D01*
X1251928Y95483D01*
X1251984Y95561D01*
X1252036Y95641D01*
X1252085Y95723D01*
X1252130Y95807D01*
X1252172Y95893D01*
X1252211Y95980D01*
X1252246Y96069D01*
X1252277Y96160D01*
X1252304Y96251D01*
X1252328Y96344D01*
X1252348Y96437D01*
X1252364Y96531D01*
X1252376Y96626D01*
X1252385Y96721D01*
X1252389Y96817D01*
X1252390Y96912D01*
X1252383Y97159D01*
X1252371Y97405D01*
X1252353Y97651D01*
X1252328Y97897D01*
X1252298Y98141D01*
X1252262Y98385D01*
X1252221Y98628D01*
X1252173Y98870D01*
X1252119Y99111D01*
X1252060Y99350D01*
X1251995Y99588D01*
X1251924Y99824D01*
X1251848Y100059D01*
X1251766Y100292D01*
X1251678Y100522D01*
X1251585Y100750D01*
X1251487Y100977D01*
X1246067Y100525D02*
X1246030Y100613D01*
X1245989Y100699D01*
X1245945Y100784D01*
X1245897Y100867D01*
X1245846Y100947D01*
X1245792Y101026D01*
X1245734Y101102D01*
X1245674Y101176D01*
X1245610Y101248D01*
X1245544Y101316D01*
X1245474Y101382D01*
X1245403Y101445D01*
X1245328Y101506D01*
X1245252Y101563D01*
X1245173Y101616D01*
X1245092Y101667D01*
X1245009Y101714D01*
X1244924Y101758D01*
X1244837Y101798D01*
X1244749Y101835D01*
X1244659Y101868D01*
X1244568Y101898D01*
X1244476Y101923D01*
X1244383Y101945D01*
X1244289Y101963D01*
X1244195Y101978D01*
X1244100Y101988D01*
X1244004Y101994D01*
X1243909Y101997D01*
X1243813Y101996D01*
X1243718Y101990D01*
X1243622Y101981D01*
X1243528Y101968D01*
X1243434Y101952D01*
X1243340Y101931D01*
X1243248Y101906D01*
X1243157Y101878D01*
X1243067Y101846D01*
X1242978Y101811D01*
X1242891Y101772D01*
X1242805Y101729D01*
X1242721Y101683D01*
X1242640Y101633D01*
X1242560Y101581D01*
X1242482Y101525D01*
X1242407Y101465D01*
X1242335Y101403D01*
X1242265Y101338D01*
X1242197Y101270D01*
X1242133Y101200D01*
X1242071Y101127D01*
X1242013Y101051D01*
X1241957Y100973D01*
X1241905Y100893D01*
X1241856Y100811D01*
X1241811Y100727D01*
X1241769Y100641D01*
X1241730Y100554D01*
X1241695Y100465D01*
X1241664Y100374D01*
X1241637Y100283D01*
X1241613Y100190D01*
X1241593Y100097D01*
X1241577Y100003D01*
X1241565Y99908D01*
X1241556Y99813D01*
X1241552Y99717D01*
X1241551Y99622D01*
X1241552Y99621D02*
X1241561Y99259D01*
X1241579Y98897D01*
X1241606Y98536D01*
X1241641Y98176D01*
X1241684Y97816D01*
X1241736Y97457D01*
X1241797Y97100D01*
X1241866Y96745D01*
X1241943Y96391D01*
X1242029Y96039D01*
X1242123Y95689D01*
X1242226Y95341D01*
X1242336Y94996D01*
X1242455Y94654D01*
X1241552Y110911D02*
X1241552Y115427D01*
X1241552Y110911D02*
X1241554Y110810D01*
X1241560Y110709D01*
X1241569Y110608D01*
X1241582Y110507D01*
X1241599Y110407D01*
X1241620Y110308D01*
X1241644Y110210D01*
X1241672Y110113D01*
X1241704Y110016D01*
X1241739Y109921D01*
X1241778Y109828D01*
X1241820Y109736D01*
X1241866Y109645D01*
X1241915Y109557D01*
X1241967Y109470D01*
X1242023Y109385D01*
X1242081Y109302D01*
X1242143Y109222D01*
X1242208Y109144D01*
X1242275Y109068D01*
X1242345Y108995D01*
X1242418Y108925D01*
X1242494Y108858D01*
X1242572Y108793D01*
X1242652Y108731D01*
X1242735Y108673D01*
X1242820Y108617D01*
X1242907Y108565D01*
X1242995Y108516D01*
X1243086Y108470D01*
X1243178Y108428D01*
X1243271Y108389D01*
X1243366Y108354D01*
X1243463Y108322D01*
X1243560Y108294D01*
X1243658Y108270D01*
X1243757Y108249D01*
X1243857Y108232D01*
X1243958Y108219D01*
X1244059Y108210D01*
X1244160Y108204D01*
X1244261Y108202D01*
X1248777Y108202D01*
X1248896Y108204D01*
X1249016Y108210D01*
X1249135Y108220D01*
X1249253Y108234D01*
X1249372Y108251D01*
X1249489Y108273D01*
X1249606Y108298D01*
X1249721Y108328D01*
X1249836Y108361D01*
X1249950Y108398D01*
X1250062Y108438D01*
X1250173Y108483D01*
X1250282Y108531D01*
X1250390Y108582D01*
X1250496Y108637D01*
X1250600Y108696D01*
X1250702Y108758D01*
X1250802Y108823D01*
X1250900Y108892D01*
X1250996Y108964D01*
X1251089Y109039D01*
X1251179Y109116D01*
X1251267Y109197D01*
X1251352Y109281D01*
X1251434Y109368D01*
X1251514Y109457D01*
X1251590Y109549D01*
X1251664Y109643D01*
X1251734Y109740D01*
X1251801Y109838D01*
X1251865Y109939D01*
X1251925Y110043D01*
X1251982Y110148D01*
X1252035Y110255D01*
X1252085Y110363D01*
X1252131Y110473D01*
X1252173Y110585D01*
X1252212Y110698D01*
X1252247Y110812D01*
X1252278Y110927D01*
X1252306Y111044D01*
X1252329Y111161D01*
X1252349Y111278D01*
X1252365Y111397D01*
X1252377Y111516D01*
X1252385Y111635D01*
X1252389Y111754D01*
X1252389Y111874D01*
X1252385Y111993D01*
X1252377Y112112D01*
X1252365Y112231D01*
X1252349Y112350D01*
X1252329Y112467D01*
X1252306Y112584D01*
X1252278Y112701D01*
X1252247Y112816D01*
X1252212Y112930D01*
X1252173Y113043D01*
X1252131Y113155D01*
X1252085Y113265D01*
X1252035Y113373D01*
X1251982Y113480D01*
X1251925Y113585D01*
X1251865Y113689D01*
X1251801Y113790D01*
X1251734Y113888D01*
X1251664Y113985D01*
X1251590Y114079D01*
X1251514Y114171D01*
X1251434Y114260D01*
X1251352Y114347D01*
X1251267Y114431D01*
X1251179Y114512D01*
X1251089Y114589D01*
X1250996Y114664D01*
X1250900Y114736D01*
X1250802Y114805D01*
X1250702Y114870D01*
X1250600Y114932D01*
X1250496Y114991D01*
X1250390Y115046D01*
X1250282Y115097D01*
X1250173Y115145D01*
X1250062Y115190D01*
X1249950Y115230D01*
X1249836Y115267D01*
X1249721Y115300D01*
X1249606Y115330D01*
X1249489Y115355D01*
X1249372Y115377D01*
X1249253Y115394D01*
X1249135Y115408D01*
X1249016Y115418D01*
X1248896Y115424D01*
X1248777Y115426D01*
X1248777Y115427D02*
X1246971Y115427D01*
X1246971Y108202D01*
X1241552Y122270D02*
X1252389Y122270D01*
X1252389Y126785D01*
X1252387Y126886D01*
X1252381Y126987D01*
X1252372Y127088D01*
X1252359Y127189D01*
X1252342Y127289D01*
X1252321Y127388D01*
X1252297Y127486D01*
X1252269Y127583D01*
X1252237Y127680D01*
X1252202Y127775D01*
X1252163Y127868D01*
X1252121Y127960D01*
X1252075Y128051D01*
X1252026Y128140D01*
X1251974Y128226D01*
X1251918Y128311D01*
X1251860Y128394D01*
X1251798Y128474D01*
X1251733Y128552D01*
X1251666Y128628D01*
X1251596Y128701D01*
X1251523Y128771D01*
X1251447Y128838D01*
X1251369Y128903D01*
X1251289Y128965D01*
X1251206Y129023D01*
X1251121Y129079D01*
X1251035Y129131D01*
X1250946Y129180D01*
X1250855Y129226D01*
X1250763Y129268D01*
X1250670Y129307D01*
X1250575Y129342D01*
X1250478Y129374D01*
X1250381Y129402D01*
X1250283Y129426D01*
X1250184Y129447D01*
X1250084Y129464D01*
X1249983Y129477D01*
X1249882Y129486D01*
X1249781Y129492D01*
X1249680Y129494D01*
X1249680Y129495D02*
X1241552Y129495D01*
X1256453Y122270D02*
X1256536Y122272D01*
X1256620Y122278D01*
X1256703Y122287D01*
X1256785Y122301D01*
X1256866Y122318D01*
X1256947Y122339D01*
X1257027Y122364D01*
X1257105Y122392D01*
X1257182Y122424D01*
X1257258Y122459D01*
X1257332Y122498D01*
X1257404Y122541D01*
X1257474Y122586D01*
X1257541Y122635D01*
X1257607Y122687D01*
X1257670Y122741D01*
X1257730Y122799D01*
X1257788Y122859D01*
X1257842Y122922D01*
X1257894Y122988D01*
X1257943Y123055D01*
X1257989Y123125D01*
X1258031Y123197D01*
X1258070Y123271D01*
X1258105Y123347D01*
X1258137Y123424D01*
X1258165Y123502D01*
X1258190Y123582D01*
X1258211Y123663D01*
X1258228Y123744D01*
X1258242Y123827D01*
X1258251Y123909D01*
X1258257Y123993D01*
X1258259Y124076D01*
X1258260Y124076D02*
X1258258Y124151D01*
X1258252Y124226D01*
X1258243Y124300D01*
X1258229Y124374D01*
X1258212Y124447D01*
X1258191Y124519D01*
X1258167Y124590D01*
X1258139Y124660D01*
X1258107Y124728D01*
X1258072Y124794D01*
X1258034Y124859D01*
X1257992Y124921D01*
X1257947Y124981D01*
X1257900Y125039D01*
X1257849Y125095D01*
X1257796Y125147D01*
X1257739Y125197D01*
X1257681Y125244D01*
X1257620Y125288D01*
X1257557Y125329D01*
X1257492Y125366D01*
X1257425Y125400D01*
X1257357Y125431D01*
X1257356Y125430D02*
X1257288Y125461D01*
X1257221Y125495D01*
X1257156Y125532D01*
X1257093Y125573D01*
X1257032Y125617D01*
X1256974Y125664D01*
X1256917Y125714D01*
X1256864Y125766D01*
X1256813Y125822D01*
X1256766Y125879D01*
X1256721Y125940D01*
X1256679Y126002D01*
X1256641Y126067D01*
X1256606Y126133D01*
X1256574Y126201D01*
X1256546Y126271D01*
X1256522Y126342D01*
X1256501Y126414D01*
X1256484Y126487D01*
X1256470Y126561D01*
X1256461Y126635D01*
X1256455Y126710D01*
X1256453Y126785D01*
X1256455Y126868D01*
X1256461Y126952D01*
X1256470Y127034D01*
X1256484Y127117D01*
X1256501Y127198D01*
X1256522Y127279D01*
X1256547Y127359D01*
X1256575Y127437D01*
X1256607Y127514D01*
X1256642Y127590D01*
X1256681Y127664D01*
X1256724Y127736D01*
X1256769Y127806D01*
X1256818Y127873D01*
X1256870Y127939D01*
X1256924Y128002D01*
X1256982Y128062D01*
X1257042Y128120D01*
X1257105Y128174D01*
X1257171Y128226D01*
X1257238Y128275D01*
X1257308Y128321D01*
X1257380Y128363D01*
X1257454Y128402D01*
X1257530Y128437D01*
X1257607Y128469D01*
X1257685Y128497D01*
X1257765Y128522D01*
X1257846Y128543D01*
X1257927Y128560D01*
X1258010Y128574D01*
X1258092Y128583D01*
X1258176Y128589D01*
X1258259Y128591D01*
X1247874Y139425D02*
X1247874Y143489D01*
X1247874Y139425D02*
X1247872Y139313D01*
X1247866Y139202D01*
X1247856Y139091D01*
X1247843Y138980D01*
X1247825Y138870D01*
X1247803Y138761D01*
X1247778Y138652D01*
X1247749Y138544D01*
X1247716Y138438D01*
X1247679Y138332D01*
X1247639Y138228D01*
X1247595Y138126D01*
X1247547Y138025D01*
X1247496Y137926D01*
X1247441Y137828D01*
X1247383Y137733D01*
X1247322Y137640D01*
X1247257Y137549D01*
X1247189Y137460D01*
X1247118Y137374D01*
X1247045Y137291D01*
X1246968Y137210D01*
X1246888Y137131D01*
X1246806Y137056D01*
X1246721Y136984D01*
X1246634Y136914D01*
X1246544Y136848D01*
X1246452Y136785D01*
X1246357Y136725D01*
X1246261Y136669D01*
X1246163Y136616D01*
X1246063Y136567D01*
X1245961Y136521D01*
X1245858Y136479D01*
X1245753Y136440D01*
X1245647Y136405D01*
X1245540Y136374D01*
X1245432Y136347D01*
X1245323Y136323D01*
X1245213Y136304D01*
X1245103Y136288D01*
X1244992Y136276D01*
X1244880Y136268D01*
X1244769Y136264D01*
X1244657Y136264D01*
X1244546Y136268D01*
X1244434Y136276D01*
X1244323Y136288D01*
X1244213Y136304D01*
X1244103Y136323D01*
X1243994Y136347D01*
X1243886Y136374D01*
X1243779Y136405D01*
X1243673Y136440D01*
X1243568Y136479D01*
X1243465Y136521D01*
X1243363Y136567D01*
X1243263Y136616D01*
X1243165Y136669D01*
X1243069Y136725D01*
X1242974Y136785D01*
X1242882Y136848D01*
X1242792Y136914D01*
X1242705Y136984D01*
X1242620Y137056D01*
X1242538Y137131D01*
X1242458Y137210D01*
X1242381Y137291D01*
X1242308Y137374D01*
X1242237Y137460D01*
X1242169Y137549D01*
X1242104Y137640D01*
X1242043Y137733D01*
X1241985Y137828D01*
X1241930Y137926D01*
X1241879Y138025D01*
X1241831Y138126D01*
X1241787Y138228D01*
X1241747Y138332D01*
X1241710Y138438D01*
X1241677Y138544D01*
X1241648Y138652D01*
X1241623Y138761D01*
X1241601Y138870D01*
X1241583Y138980D01*
X1241570Y139091D01*
X1241560Y139202D01*
X1241554Y139313D01*
X1241552Y139425D01*
X1241552Y143489D01*
X1249680Y143489D01*
X1249781Y143487D01*
X1249882Y143481D01*
X1249983Y143472D01*
X1250084Y143459D01*
X1250184Y143442D01*
X1250283Y143421D01*
X1250381Y143397D01*
X1250478Y143369D01*
X1250575Y143337D01*
X1250670Y143302D01*
X1250763Y143263D01*
X1250855Y143221D01*
X1250946Y143175D01*
X1251035Y143126D01*
X1251121Y143074D01*
X1251206Y143018D01*
X1251289Y142960D01*
X1251369Y142898D01*
X1251447Y142833D01*
X1251523Y142766D01*
X1251596Y142696D01*
X1251666Y142623D01*
X1251733Y142547D01*
X1251798Y142469D01*
X1251860Y142389D01*
X1251918Y142306D01*
X1251974Y142221D01*
X1252026Y142135D01*
X1252075Y142046D01*
X1252121Y141955D01*
X1252163Y141863D01*
X1252202Y141770D01*
X1252237Y141675D01*
X1252269Y141578D01*
X1252297Y141481D01*
X1252321Y141383D01*
X1252342Y141284D01*
X1252359Y141184D01*
X1252372Y141083D01*
X1252381Y140982D01*
X1252387Y140881D01*
X1252389Y140780D01*
X1252389Y137168D01*
X1257808Y157558D02*
X1241552Y157558D01*
X1241552Y153042D01*
X1241554Y152941D01*
X1241560Y152840D01*
X1241569Y152739D01*
X1241582Y152638D01*
X1241599Y152538D01*
X1241620Y152439D01*
X1241644Y152341D01*
X1241672Y152244D01*
X1241704Y152147D01*
X1241739Y152052D01*
X1241778Y151959D01*
X1241820Y151867D01*
X1241866Y151776D01*
X1241915Y151688D01*
X1241967Y151601D01*
X1242023Y151516D01*
X1242081Y151433D01*
X1242143Y151353D01*
X1242208Y151275D01*
X1242275Y151199D01*
X1242345Y151126D01*
X1242418Y151056D01*
X1242494Y150989D01*
X1242572Y150924D01*
X1242652Y150862D01*
X1242735Y150804D01*
X1242820Y150748D01*
X1242907Y150696D01*
X1242995Y150647D01*
X1243086Y150601D01*
X1243178Y150559D01*
X1243271Y150520D01*
X1243366Y150485D01*
X1243463Y150453D01*
X1243560Y150425D01*
X1243658Y150401D01*
X1243757Y150380D01*
X1243857Y150363D01*
X1243958Y150350D01*
X1244059Y150341D01*
X1244160Y150335D01*
X1244261Y150333D01*
X1249680Y150333D01*
X1249781Y150335D01*
X1249882Y150341D01*
X1249983Y150350D01*
X1250084Y150363D01*
X1250184Y150380D01*
X1250283Y150401D01*
X1250381Y150425D01*
X1250478Y150453D01*
X1250575Y150485D01*
X1250670Y150520D01*
X1250763Y150559D01*
X1250855Y150601D01*
X1250946Y150647D01*
X1251035Y150696D01*
X1251121Y150748D01*
X1251206Y150804D01*
X1251289Y150862D01*
X1251369Y150924D01*
X1251447Y150989D01*
X1251523Y151056D01*
X1251596Y151126D01*
X1251666Y151199D01*
X1251733Y151275D01*
X1251798Y151353D01*
X1251860Y151433D01*
X1251918Y151516D01*
X1251974Y151601D01*
X1252026Y151687D01*
X1252075Y151776D01*
X1252121Y151867D01*
X1252163Y151959D01*
X1252202Y152052D01*
X1252237Y152147D01*
X1252269Y152244D01*
X1252297Y152341D01*
X1252321Y152439D01*
X1252342Y152538D01*
X1252359Y152638D01*
X1252372Y152739D01*
X1252381Y152840D01*
X1252387Y152941D01*
X1252389Y153042D01*
X1252389Y157558D01*
X1248777Y164474D02*
X1245164Y164474D01*
X1248777Y164474D02*
X1248896Y164476D01*
X1249016Y164482D01*
X1249135Y164492D01*
X1249253Y164506D01*
X1249372Y164523D01*
X1249489Y164545D01*
X1249606Y164570D01*
X1249721Y164600D01*
X1249836Y164633D01*
X1249950Y164670D01*
X1250062Y164710D01*
X1250173Y164755D01*
X1250282Y164803D01*
X1250390Y164854D01*
X1250496Y164909D01*
X1250600Y164968D01*
X1250702Y165030D01*
X1250802Y165095D01*
X1250900Y165164D01*
X1250996Y165236D01*
X1251089Y165311D01*
X1251179Y165388D01*
X1251267Y165469D01*
X1251352Y165553D01*
X1251434Y165640D01*
X1251514Y165729D01*
X1251590Y165821D01*
X1251664Y165915D01*
X1251734Y166012D01*
X1251801Y166110D01*
X1251865Y166211D01*
X1251925Y166315D01*
X1251982Y166420D01*
X1252035Y166527D01*
X1252085Y166635D01*
X1252131Y166745D01*
X1252173Y166857D01*
X1252212Y166970D01*
X1252247Y167084D01*
X1252278Y167199D01*
X1252306Y167316D01*
X1252329Y167433D01*
X1252349Y167550D01*
X1252365Y167669D01*
X1252377Y167788D01*
X1252385Y167907D01*
X1252389Y168026D01*
X1252389Y168146D01*
X1252385Y168265D01*
X1252377Y168384D01*
X1252365Y168503D01*
X1252349Y168622D01*
X1252329Y168739D01*
X1252306Y168856D01*
X1252278Y168973D01*
X1252247Y169088D01*
X1252212Y169202D01*
X1252173Y169315D01*
X1252131Y169427D01*
X1252085Y169537D01*
X1252035Y169645D01*
X1251982Y169752D01*
X1251925Y169857D01*
X1251865Y169961D01*
X1251801Y170062D01*
X1251734Y170160D01*
X1251664Y170257D01*
X1251590Y170351D01*
X1251514Y170443D01*
X1251434Y170532D01*
X1251352Y170619D01*
X1251267Y170703D01*
X1251179Y170784D01*
X1251089Y170861D01*
X1250996Y170936D01*
X1250900Y171008D01*
X1250802Y171077D01*
X1250702Y171142D01*
X1250600Y171204D01*
X1250496Y171263D01*
X1250390Y171318D01*
X1250282Y171369D01*
X1250173Y171417D01*
X1250062Y171462D01*
X1249950Y171502D01*
X1249836Y171539D01*
X1249721Y171572D01*
X1249606Y171602D01*
X1249489Y171627D01*
X1249372Y171649D01*
X1249253Y171666D01*
X1249135Y171680D01*
X1249016Y171690D01*
X1248896Y171696D01*
X1248777Y171698D01*
X1248777Y171699D02*
X1245164Y171699D01*
X1245164Y171698D02*
X1245045Y171696D01*
X1244925Y171690D01*
X1244806Y171680D01*
X1244688Y171666D01*
X1244569Y171649D01*
X1244452Y171627D01*
X1244335Y171602D01*
X1244220Y171572D01*
X1244105Y171539D01*
X1243991Y171502D01*
X1243879Y171462D01*
X1243768Y171417D01*
X1243659Y171369D01*
X1243551Y171318D01*
X1243445Y171263D01*
X1243341Y171204D01*
X1243239Y171142D01*
X1243139Y171077D01*
X1243041Y171008D01*
X1242945Y170936D01*
X1242852Y170861D01*
X1242762Y170784D01*
X1242674Y170703D01*
X1242589Y170619D01*
X1242507Y170532D01*
X1242427Y170443D01*
X1242351Y170351D01*
X1242277Y170257D01*
X1242207Y170160D01*
X1242140Y170062D01*
X1242076Y169961D01*
X1242016Y169857D01*
X1241959Y169752D01*
X1241906Y169645D01*
X1241856Y169537D01*
X1241810Y169427D01*
X1241768Y169315D01*
X1241729Y169202D01*
X1241694Y169088D01*
X1241663Y168973D01*
X1241635Y168856D01*
X1241612Y168739D01*
X1241592Y168622D01*
X1241576Y168503D01*
X1241564Y168384D01*
X1241556Y168265D01*
X1241552Y168146D01*
X1241552Y168026D01*
X1241556Y167907D01*
X1241564Y167788D01*
X1241576Y167669D01*
X1241592Y167550D01*
X1241612Y167433D01*
X1241635Y167316D01*
X1241663Y167199D01*
X1241694Y167084D01*
X1241729Y166970D01*
X1241768Y166857D01*
X1241810Y166745D01*
X1241856Y166635D01*
X1241906Y166527D01*
X1241959Y166420D01*
X1242016Y166315D01*
X1242076Y166211D01*
X1242140Y166110D01*
X1242207Y166012D01*
X1242277Y165915D01*
X1242351Y165821D01*
X1242427Y165729D01*
X1242507Y165640D01*
X1242589Y165553D01*
X1242674Y165469D01*
X1242762Y165388D01*
X1242852Y165311D01*
X1242945Y165236D01*
X1243041Y165164D01*
X1243139Y165095D01*
X1243239Y165030D01*
X1243341Y164968D01*
X1243445Y164909D01*
X1243551Y164854D01*
X1243659Y164803D01*
X1243768Y164755D01*
X1243879Y164710D01*
X1243991Y164670D01*
X1244105Y164633D01*
X1244220Y164600D01*
X1244335Y164570D01*
X1244452Y164545D01*
X1244569Y164523D01*
X1244688Y164506D01*
X1244806Y164492D01*
X1244925Y164482D01*
X1245045Y164476D01*
X1245164Y164474D01*
X1252389Y186952D02*
X1236133Y186952D01*
X1252389Y186952D02*
X1252389Y191468D01*
X1252387Y191569D01*
X1252381Y191670D01*
X1252372Y191771D01*
X1252359Y191872D01*
X1252342Y191972D01*
X1252321Y192071D01*
X1252297Y192169D01*
X1252269Y192266D01*
X1252237Y192363D01*
X1252202Y192458D01*
X1252163Y192551D01*
X1252121Y192643D01*
X1252075Y192734D01*
X1252026Y192823D01*
X1251974Y192909D01*
X1251918Y192994D01*
X1251860Y193077D01*
X1251798Y193157D01*
X1251733Y193235D01*
X1251666Y193311D01*
X1251596Y193384D01*
X1251523Y193454D01*
X1251447Y193521D01*
X1251369Y193586D01*
X1251289Y193648D01*
X1251206Y193706D01*
X1251121Y193762D01*
X1251035Y193814D01*
X1250946Y193863D01*
X1250855Y193909D01*
X1250763Y193951D01*
X1250670Y193990D01*
X1250575Y194025D01*
X1250478Y194057D01*
X1250381Y194085D01*
X1250283Y194109D01*
X1250184Y194130D01*
X1250084Y194147D01*
X1249983Y194160D01*
X1249882Y194169D01*
X1249781Y194175D01*
X1249680Y194177D01*
X1244261Y194177D01*
X1244160Y194175D01*
X1244059Y194169D01*
X1243958Y194160D01*
X1243857Y194147D01*
X1243757Y194130D01*
X1243658Y194109D01*
X1243560Y194085D01*
X1243463Y194057D01*
X1243366Y194025D01*
X1243271Y193990D01*
X1243178Y193951D01*
X1243086Y193909D01*
X1242995Y193863D01*
X1242907Y193814D01*
X1242820Y193762D01*
X1242735Y193706D01*
X1242652Y193648D01*
X1242572Y193586D01*
X1242494Y193521D01*
X1242418Y193454D01*
X1242345Y193384D01*
X1242275Y193311D01*
X1242208Y193235D01*
X1242143Y193157D01*
X1242081Y193077D01*
X1242023Y192994D01*
X1241967Y192909D01*
X1241915Y192823D01*
X1241866Y192734D01*
X1241820Y192643D01*
X1241778Y192551D01*
X1241739Y192458D01*
X1241704Y192363D01*
X1241672Y192266D01*
X1241644Y192169D01*
X1241620Y192071D01*
X1241599Y191972D01*
X1241582Y191872D01*
X1241569Y191771D01*
X1241560Y191670D01*
X1241554Y191569D01*
X1241552Y191468D01*
X1241552Y186952D01*
X1245164Y200426D02*
X1248777Y200426D01*
X1248896Y200428D01*
X1249016Y200434D01*
X1249135Y200444D01*
X1249253Y200458D01*
X1249372Y200475D01*
X1249489Y200497D01*
X1249606Y200522D01*
X1249721Y200552D01*
X1249836Y200585D01*
X1249950Y200622D01*
X1250062Y200662D01*
X1250173Y200707D01*
X1250282Y200755D01*
X1250390Y200806D01*
X1250496Y200861D01*
X1250600Y200920D01*
X1250702Y200982D01*
X1250802Y201047D01*
X1250900Y201116D01*
X1250996Y201188D01*
X1251089Y201263D01*
X1251179Y201340D01*
X1251267Y201421D01*
X1251352Y201505D01*
X1251434Y201592D01*
X1251514Y201681D01*
X1251590Y201773D01*
X1251664Y201867D01*
X1251734Y201964D01*
X1251801Y202062D01*
X1251865Y202163D01*
X1251925Y202267D01*
X1251982Y202372D01*
X1252035Y202479D01*
X1252085Y202587D01*
X1252131Y202697D01*
X1252173Y202809D01*
X1252212Y202922D01*
X1252247Y203036D01*
X1252278Y203151D01*
X1252306Y203268D01*
X1252329Y203385D01*
X1252349Y203502D01*
X1252365Y203621D01*
X1252377Y203740D01*
X1252385Y203859D01*
X1252389Y203978D01*
X1252389Y204098D01*
X1252385Y204217D01*
X1252377Y204336D01*
X1252365Y204455D01*
X1252349Y204574D01*
X1252329Y204691D01*
X1252306Y204808D01*
X1252278Y204925D01*
X1252247Y205040D01*
X1252212Y205154D01*
X1252173Y205267D01*
X1252131Y205379D01*
X1252085Y205489D01*
X1252035Y205597D01*
X1251982Y205704D01*
X1251925Y205809D01*
X1251865Y205913D01*
X1251801Y206014D01*
X1251734Y206112D01*
X1251664Y206209D01*
X1251590Y206303D01*
X1251514Y206395D01*
X1251434Y206484D01*
X1251352Y206571D01*
X1251267Y206655D01*
X1251179Y206736D01*
X1251089Y206813D01*
X1250996Y206888D01*
X1250900Y206960D01*
X1250802Y207029D01*
X1250702Y207094D01*
X1250600Y207156D01*
X1250496Y207215D01*
X1250390Y207270D01*
X1250282Y207321D01*
X1250173Y207369D01*
X1250062Y207414D01*
X1249950Y207454D01*
X1249836Y207491D01*
X1249721Y207524D01*
X1249606Y207554D01*
X1249489Y207579D01*
X1249372Y207601D01*
X1249253Y207618D01*
X1249135Y207632D01*
X1249016Y207642D01*
X1248896Y207648D01*
X1248777Y207650D01*
X1248777Y207651D02*
X1245164Y207651D01*
X1245164Y207650D02*
X1245045Y207648D01*
X1244925Y207642D01*
X1244806Y207632D01*
X1244688Y207618D01*
X1244569Y207601D01*
X1244452Y207579D01*
X1244335Y207554D01*
X1244220Y207524D01*
X1244105Y207491D01*
X1243991Y207454D01*
X1243879Y207414D01*
X1243768Y207369D01*
X1243659Y207321D01*
X1243551Y207270D01*
X1243445Y207215D01*
X1243341Y207156D01*
X1243239Y207094D01*
X1243139Y207029D01*
X1243041Y206960D01*
X1242945Y206888D01*
X1242852Y206813D01*
X1242762Y206736D01*
X1242674Y206655D01*
X1242589Y206571D01*
X1242507Y206484D01*
X1242427Y206395D01*
X1242351Y206303D01*
X1242277Y206209D01*
X1242207Y206112D01*
X1242140Y206014D01*
X1242076Y205913D01*
X1242016Y205809D01*
X1241959Y205704D01*
X1241906Y205597D01*
X1241856Y205489D01*
X1241810Y205379D01*
X1241768Y205267D01*
X1241729Y205154D01*
X1241694Y205040D01*
X1241663Y204925D01*
X1241635Y204808D01*
X1241612Y204691D01*
X1241592Y204574D01*
X1241576Y204455D01*
X1241564Y204336D01*
X1241556Y204217D01*
X1241552Y204098D01*
X1241552Y203978D01*
X1241556Y203859D01*
X1241564Y203740D01*
X1241576Y203621D01*
X1241592Y203502D01*
X1241612Y203385D01*
X1241635Y203268D01*
X1241663Y203151D01*
X1241694Y203036D01*
X1241729Y202922D01*
X1241768Y202809D01*
X1241810Y202697D01*
X1241856Y202587D01*
X1241906Y202479D01*
X1241959Y202372D01*
X1242016Y202267D01*
X1242076Y202163D01*
X1242140Y202062D01*
X1242207Y201964D01*
X1242277Y201867D01*
X1242351Y201773D01*
X1242427Y201681D01*
X1242507Y201592D01*
X1242589Y201505D01*
X1242674Y201421D01*
X1242762Y201340D01*
X1242852Y201263D01*
X1242945Y201188D01*
X1243041Y201116D01*
X1243139Y201047D01*
X1243239Y200982D01*
X1243341Y200920D01*
X1243445Y200861D01*
X1243551Y200806D01*
X1243659Y200755D01*
X1243768Y200707D01*
X1243879Y200662D01*
X1243991Y200622D01*
X1244105Y200585D01*
X1244220Y200552D01*
X1244335Y200522D01*
X1244452Y200497D01*
X1244569Y200475D01*
X1244688Y200458D01*
X1244806Y200444D01*
X1244925Y200434D01*
X1245045Y200428D01*
X1245164Y200426D01*
X1241552Y214579D02*
X1252389Y214579D01*
X1252389Y219997D01*
X1250583Y219997D01*
X1257808Y233941D02*
X1241552Y233941D01*
X1241552Y241166D01*
X1241552Y249508D02*
X1241552Y254023D01*
X1241552Y249508D02*
X1241554Y249407D01*
X1241560Y249306D01*
X1241569Y249205D01*
X1241582Y249104D01*
X1241599Y249004D01*
X1241620Y248905D01*
X1241644Y248807D01*
X1241672Y248710D01*
X1241704Y248613D01*
X1241739Y248518D01*
X1241778Y248425D01*
X1241820Y248333D01*
X1241866Y248242D01*
X1241915Y248154D01*
X1241967Y248067D01*
X1242023Y247982D01*
X1242081Y247899D01*
X1242143Y247819D01*
X1242208Y247741D01*
X1242275Y247665D01*
X1242345Y247592D01*
X1242418Y247522D01*
X1242494Y247455D01*
X1242572Y247390D01*
X1242652Y247328D01*
X1242735Y247270D01*
X1242820Y247214D01*
X1242907Y247162D01*
X1242995Y247113D01*
X1243086Y247067D01*
X1243178Y247025D01*
X1243271Y246986D01*
X1243366Y246951D01*
X1243463Y246919D01*
X1243560Y246891D01*
X1243658Y246867D01*
X1243757Y246846D01*
X1243857Y246829D01*
X1243958Y246816D01*
X1244059Y246807D01*
X1244160Y246801D01*
X1244261Y246799D01*
X1244261Y246798D02*
X1248777Y246798D01*
X1248777Y246799D02*
X1248896Y246801D01*
X1249016Y246807D01*
X1249135Y246817D01*
X1249253Y246831D01*
X1249372Y246848D01*
X1249489Y246870D01*
X1249606Y246895D01*
X1249721Y246925D01*
X1249836Y246958D01*
X1249950Y246995D01*
X1250062Y247035D01*
X1250173Y247080D01*
X1250282Y247128D01*
X1250390Y247179D01*
X1250496Y247234D01*
X1250600Y247293D01*
X1250702Y247355D01*
X1250802Y247420D01*
X1250900Y247489D01*
X1250996Y247561D01*
X1251089Y247636D01*
X1251179Y247713D01*
X1251267Y247794D01*
X1251352Y247878D01*
X1251434Y247965D01*
X1251514Y248054D01*
X1251590Y248146D01*
X1251664Y248240D01*
X1251734Y248337D01*
X1251801Y248435D01*
X1251865Y248536D01*
X1251925Y248640D01*
X1251982Y248745D01*
X1252035Y248852D01*
X1252085Y248960D01*
X1252131Y249070D01*
X1252173Y249182D01*
X1252212Y249295D01*
X1252247Y249409D01*
X1252278Y249524D01*
X1252306Y249641D01*
X1252329Y249758D01*
X1252349Y249875D01*
X1252365Y249994D01*
X1252377Y250113D01*
X1252385Y250232D01*
X1252389Y250351D01*
X1252389Y250471D01*
X1252385Y250590D01*
X1252377Y250709D01*
X1252365Y250828D01*
X1252349Y250947D01*
X1252329Y251064D01*
X1252306Y251181D01*
X1252278Y251298D01*
X1252247Y251413D01*
X1252212Y251527D01*
X1252173Y251640D01*
X1252131Y251752D01*
X1252085Y251862D01*
X1252035Y251970D01*
X1251982Y252077D01*
X1251925Y252182D01*
X1251865Y252286D01*
X1251801Y252387D01*
X1251734Y252485D01*
X1251664Y252582D01*
X1251590Y252676D01*
X1251514Y252768D01*
X1251434Y252857D01*
X1251352Y252944D01*
X1251267Y253028D01*
X1251179Y253109D01*
X1251089Y253186D01*
X1250996Y253261D01*
X1250900Y253333D01*
X1250802Y253402D01*
X1250702Y253467D01*
X1250600Y253529D01*
X1250496Y253588D01*
X1250390Y253643D01*
X1250282Y253694D01*
X1250173Y253742D01*
X1250062Y253787D01*
X1249950Y253827D01*
X1249836Y253864D01*
X1249721Y253897D01*
X1249606Y253927D01*
X1249489Y253952D01*
X1249372Y253974D01*
X1249253Y253991D01*
X1249135Y254005D01*
X1249016Y254015D01*
X1248896Y254021D01*
X1248777Y254023D01*
X1246971Y254023D01*
X1246971Y246798D01*
X1247874Y263433D02*
X1247874Y267497D01*
X1247874Y263433D02*
X1247872Y263321D01*
X1247866Y263210D01*
X1247856Y263099D01*
X1247843Y262988D01*
X1247825Y262878D01*
X1247803Y262769D01*
X1247778Y262660D01*
X1247749Y262552D01*
X1247716Y262446D01*
X1247679Y262340D01*
X1247639Y262236D01*
X1247595Y262134D01*
X1247547Y262033D01*
X1247496Y261934D01*
X1247441Y261836D01*
X1247383Y261741D01*
X1247322Y261648D01*
X1247257Y261557D01*
X1247189Y261468D01*
X1247118Y261382D01*
X1247045Y261299D01*
X1246968Y261218D01*
X1246888Y261139D01*
X1246806Y261064D01*
X1246721Y260992D01*
X1246634Y260922D01*
X1246544Y260856D01*
X1246452Y260793D01*
X1246357Y260733D01*
X1246261Y260677D01*
X1246163Y260624D01*
X1246063Y260575D01*
X1245961Y260529D01*
X1245858Y260487D01*
X1245753Y260448D01*
X1245647Y260413D01*
X1245540Y260382D01*
X1245432Y260355D01*
X1245323Y260331D01*
X1245213Y260312D01*
X1245103Y260296D01*
X1244992Y260284D01*
X1244880Y260276D01*
X1244769Y260272D01*
X1244657Y260272D01*
X1244546Y260276D01*
X1244434Y260284D01*
X1244323Y260296D01*
X1244213Y260312D01*
X1244103Y260331D01*
X1243994Y260355D01*
X1243886Y260382D01*
X1243779Y260413D01*
X1243673Y260448D01*
X1243568Y260487D01*
X1243465Y260529D01*
X1243363Y260575D01*
X1243263Y260624D01*
X1243165Y260677D01*
X1243069Y260733D01*
X1242974Y260793D01*
X1242882Y260856D01*
X1242792Y260922D01*
X1242705Y260992D01*
X1242620Y261064D01*
X1242538Y261139D01*
X1242458Y261218D01*
X1242381Y261299D01*
X1242308Y261382D01*
X1242237Y261468D01*
X1242169Y261557D01*
X1242104Y261648D01*
X1242043Y261741D01*
X1241985Y261836D01*
X1241930Y261934D01*
X1241879Y262033D01*
X1241831Y262134D01*
X1241787Y262236D01*
X1241747Y262340D01*
X1241710Y262446D01*
X1241677Y262552D01*
X1241648Y262660D01*
X1241623Y262769D01*
X1241601Y262878D01*
X1241583Y262988D01*
X1241570Y263099D01*
X1241560Y263210D01*
X1241554Y263321D01*
X1241552Y263433D01*
X1241552Y267497D01*
X1249680Y267497D01*
X1249781Y267495D01*
X1249882Y267489D01*
X1249983Y267480D01*
X1250084Y267467D01*
X1250184Y267450D01*
X1250283Y267429D01*
X1250381Y267405D01*
X1250478Y267377D01*
X1250575Y267345D01*
X1250670Y267310D01*
X1250763Y267271D01*
X1250855Y267229D01*
X1250946Y267183D01*
X1251035Y267134D01*
X1251121Y267082D01*
X1251206Y267026D01*
X1251289Y266968D01*
X1251369Y266906D01*
X1251447Y266841D01*
X1251523Y266774D01*
X1251596Y266704D01*
X1251666Y266631D01*
X1251733Y266555D01*
X1251798Y266477D01*
X1251860Y266397D01*
X1251918Y266314D01*
X1251974Y266229D01*
X1252026Y266143D01*
X1252075Y266054D01*
X1252121Y265963D01*
X1252163Y265871D01*
X1252202Y265778D01*
X1252237Y265683D01*
X1252269Y265586D01*
X1252297Y265489D01*
X1252321Y265391D01*
X1252342Y265292D01*
X1252359Y265192D01*
X1252372Y265091D01*
X1252381Y264990D01*
X1252387Y264889D01*
X1252389Y264788D01*
X1252389Y261175D01*
X1252389Y274935D02*
X1241552Y274935D01*
X1252389Y274935D02*
X1252389Y279450D01*
X1252387Y279551D01*
X1252381Y279652D01*
X1252372Y279753D01*
X1252359Y279854D01*
X1252342Y279954D01*
X1252321Y280053D01*
X1252297Y280151D01*
X1252269Y280248D01*
X1252237Y280345D01*
X1252202Y280440D01*
X1252163Y280533D01*
X1252121Y280625D01*
X1252075Y280716D01*
X1252026Y280805D01*
X1251974Y280891D01*
X1251918Y280976D01*
X1251860Y281059D01*
X1251798Y281139D01*
X1251733Y281217D01*
X1251666Y281293D01*
X1251596Y281366D01*
X1251523Y281436D01*
X1251447Y281503D01*
X1251369Y281568D01*
X1251289Y281630D01*
X1251206Y281688D01*
X1251121Y281744D01*
X1251035Y281796D01*
X1250946Y281845D01*
X1250855Y281891D01*
X1250763Y281933D01*
X1250670Y281972D01*
X1250575Y282007D01*
X1250478Y282039D01*
X1250381Y282067D01*
X1250283Y282091D01*
X1250184Y282112D01*
X1250084Y282129D01*
X1249983Y282142D01*
X1249882Y282151D01*
X1249781Y282157D01*
X1249680Y282159D01*
X1241552Y282159D01*
X1241552Y296154D02*
X1257808Y296154D01*
X1241552Y296154D02*
X1241552Y291639D01*
X1241554Y291538D01*
X1241560Y291437D01*
X1241569Y291336D01*
X1241582Y291235D01*
X1241599Y291135D01*
X1241620Y291036D01*
X1241644Y290938D01*
X1241672Y290841D01*
X1241704Y290744D01*
X1241739Y290649D01*
X1241778Y290556D01*
X1241820Y290464D01*
X1241866Y290373D01*
X1241915Y290285D01*
X1241967Y290198D01*
X1242023Y290113D01*
X1242081Y290030D01*
X1242143Y289950D01*
X1242208Y289872D01*
X1242275Y289796D01*
X1242345Y289723D01*
X1242418Y289653D01*
X1242494Y289586D01*
X1242572Y289521D01*
X1242652Y289459D01*
X1242735Y289401D01*
X1242820Y289345D01*
X1242907Y289293D01*
X1242995Y289244D01*
X1243086Y289198D01*
X1243178Y289156D01*
X1243271Y289117D01*
X1243366Y289082D01*
X1243463Y289050D01*
X1243560Y289022D01*
X1243658Y288998D01*
X1243757Y288977D01*
X1243857Y288960D01*
X1243958Y288947D01*
X1244059Y288938D01*
X1244160Y288932D01*
X1244261Y288930D01*
X1244261Y288929D02*
X1249680Y288929D01*
X1249680Y288930D02*
X1249781Y288932D01*
X1249882Y288938D01*
X1249983Y288947D01*
X1250084Y288960D01*
X1250184Y288977D01*
X1250283Y288998D01*
X1250381Y289022D01*
X1250478Y289050D01*
X1250575Y289082D01*
X1250670Y289117D01*
X1250763Y289156D01*
X1250855Y289198D01*
X1250946Y289244D01*
X1251035Y289293D01*
X1251121Y289345D01*
X1251206Y289401D01*
X1251289Y289459D01*
X1251369Y289521D01*
X1251447Y289586D01*
X1251523Y289653D01*
X1251596Y289723D01*
X1251666Y289796D01*
X1251733Y289872D01*
X1251798Y289950D01*
X1251860Y290030D01*
X1251918Y290113D01*
X1251974Y290198D01*
X1252026Y290285D01*
X1252075Y290373D01*
X1252121Y290464D01*
X1252163Y290556D01*
X1252202Y290649D01*
X1252237Y290744D01*
X1252269Y290841D01*
X1252297Y290938D01*
X1252321Y291036D01*
X1252342Y291135D01*
X1252359Y291235D01*
X1252372Y291336D01*
X1252381Y291437D01*
X1252387Y291538D01*
X1252389Y291639D01*
X1252389Y296154D01*
X1252389Y303677D02*
X1241552Y303677D01*
X1252389Y303677D02*
X1252389Y309095D01*
X1250583Y309095D01*
X1248777Y314013D02*
X1245164Y314013D01*
X1248777Y314013D02*
X1248896Y314015D01*
X1249016Y314021D01*
X1249135Y314031D01*
X1249253Y314045D01*
X1249372Y314062D01*
X1249489Y314084D01*
X1249606Y314109D01*
X1249721Y314139D01*
X1249836Y314172D01*
X1249950Y314209D01*
X1250062Y314249D01*
X1250173Y314294D01*
X1250282Y314342D01*
X1250390Y314393D01*
X1250496Y314448D01*
X1250600Y314507D01*
X1250702Y314569D01*
X1250802Y314634D01*
X1250900Y314703D01*
X1250996Y314775D01*
X1251089Y314850D01*
X1251179Y314927D01*
X1251267Y315008D01*
X1251352Y315092D01*
X1251434Y315179D01*
X1251514Y315268D01*
X1251590Y315360D01*
X1251664Y315454D01*
X1251734Y315551D01*
X1251801Y315649D01*
X1251865Y315750D01*
X1251925Y315854D01*
X1251982Y315959D01*
X1252035Y316066D01*
X1252085Y316174D01*
X1252131Y316284D01*
X1252173Y316396D01*
X1252212Y316509D01*
X1252247Y316623D01*
X1252278Y316738D01*
X1252306Y316855D01*
X1252329Y316972D01*
X1252349Y317089D01*
X1252365Y317208D01*
X1252377Y317327D01*
X1252385Y317446D01*
X1252389Y317565D01*
X1252389Y317685D01*
X1252385Y317804D01*
X1252377Y317923D01*
X1252365Y318042D01*
X1252349Y318161D01*
X1252329Y318278D01*
X1252306Y318395D01*
X1252278Y318512D01*
X1252247Y318627D01*
X1252212Y318741D01*
X1252173Y318854D01*
X1252131Y318966D01*
X1252085Y319076D01*
X1252035Y319184D01*
X1251982Y319291D01*
X1251925Y319396D01*
X1251865Y319500D01*
X1251801Y319601D01*
X1251734Y319699D01*
X1251664Y319796D01*
X1251590Y319890D01*
X1251514Y319982D01*
X1251434Y320071D01*
X1251352Y320158D01*
X1251267Y320242D01*
X1251179Y320323D01*
X1251089Y320400D01*
X1250996Y320475D01*
X1250900Y320547D01*
X1250802Y320616D01*
X1250702Y320681D01*
X1250600Y320743D01*
X1250496Y320802D01*
X1250390Y320857D01*
X1250282Y320908D01*
X1250173Y320956D01*
X1250062Y321001D01*
X1249950Y321041D01*
X1249836Y321078D01*
X1249721Y321111D01*
X1249606Y321141D01*
X1249489Y321166D01*
X1249372Y321188D01*
X1249253Y321205D01*
X1249135Y321219D01*
X1249016Y321229D01*
X1248896Y321235D01*
X1248777Y321237D01*
X1248777Y321238D02*
X1245164Y321238D01*
X1245164Y321237D02*
X1245045Y321235D01*
X1244925Y321229D01*
X1244806Y321219D01*
X1244688Y321205D01*
X1244569Y321188D01*
X1244452Y321166D01*
X1244335Y321141D01*
X1244220Y321111D01*
X1244105Y321078D01*
X1243991Y321041D01*
X1243879Y321001D01*
X1243768Y320956D01*
X1243659Y320908D01*
X1243551Y320857D01*
X1243445Y320802D01*
X1243341Y320743D01*
X1243239Y320681D01*
X1243139Y320616D01*
X1243041Y320547D01*
X1242945Y320475D01*
X1242852Y320400D01*
X1242762Y320323D01*
X1242674Y320242D01*
X1242589Y320158D01*
X1242507Y320071D01*
X1242427Y319982D01*
X1242351Y319890D01*
X1242277Y319796D01*
X1242207Y319699D01*
X1242140Y319601D01*
X1242076Y319500D01*
X1242016Y319396D01*
X1241959Y319291D01*
X1241906Y319184D01*
X1241856Y319076D01*
X1241810Y318966D01*
X1241768Y318854D01*
X1241729Y318741D01*
X1241694Y318627D01*
X1241663Y318512D01*
X1241635Y318395D01*
X1241612Y318278D01*
X1241592Y318161D01*
X1241576Y318042D01*
X1241564Y317923D01*
X1241556Y317804D01*
X1241552Y317685D01*
X1241552Y317565D01*
X1241556Y317446D01*
X1241564Y317327D01*
X1241576Y317208D01*
X1241592Y317089D01*
X1241612Y316972D01*
X1241635Y316855D01*
X1241663Y316738D01*
X1241694Y316623D01*
X1241729Y316509D01*
X1241768Y316396D01*
X1241810Y316284D01*
X1241856Y316174D01*
X1241906Y316066D01*
X1241959Y315959D01*
X1242016Y315854D01*
X1242076Y315750D01*
X1242140Y315649D01*
X1242207Y315551D01*
X1242277Y315454D01*
X1242351Y315360D01*
X1242427Y315268D01*
X1242507Y315179D01*
X1242589Y315092D01*
X1242674Y315008D01*
X1242762Y314927D01*
X1242852Y314850D01*
X1242945Y314775D01*
X1243041Y314703D01*
X1243139Y314634D01*
X1243239Y314569D01*
X1243341Y314507D01*
X1243445Y314448D01*
X1243551Y314393D01*
X1243659Y314342D01*
X1243768Y314294D01*
X1243879Y314249D01*
X1243991Y314209D01*
X1244105Y314172D01*
X1244220Y314139D01*
X1244335Y314109D01*
X1244452Y314084D01*
X1244569Y314062D01*
X1244688Y314045D01*
X1244806Y314031D01*
X1244925Y314021D01*
X1245045Y314015D01*
X1245164Y314013D01*
X1257808Y335514D02*
X1257808Y344545D01*
X1241552Y335514D01*
X1241552Y344545D01*
X1247874Y353573D02*
X1247874Y357637D01*
X1247874Y353573D02*
X1247872Y353461D01*
X1247866Y353350D01*
X1247856Y353239D01*
X1247843Y353128D01*
X1247825Y353018D01*
X1247803Y352909D01*
X1247778Y352800D01*
X1247749Y352692D01*
X1247716Y352586D01*
X1247679Y352480D01*
X1247639Y352376D01*
X1247595Y352274D01*
X1247547Y352173D01*
X1247496Y352074D01*
X1247441Y351976D01*
X1247383Y351881D01*
X1247322Y351788D01*
X1247257Y351697D01*
X1247189Y351608D01*
X1247118Y351522D01*
X1247045Y351439D01*
X1246968Y351358D01*
X1246888Y351279D01*
X1246806Y351204D01*
X1246721Y351132D01*
X1246634Y351062D01*
X1246544Y350996D01*
X1246452Y350933D01*
X1246357Y350873D01*
X1246261Y350817D01*
X1246163Y350764D01*
X1246063Y350715D01*
X1245961Y350669D01*
X1245858Y350627D01*
X1245753Y350588D01*
X1245647Y350553D01*
X1245540Y350522D01*
X1245432Y350495D01*
X1245323Y350471D01*
X1245213Y350452D01*
X1245103Y350436D01*
X1244992Y350424D01*
X1244880Y350416D01*
X1244769Y350412D01*
X1244657Y350412D01*
X1244546Y350416D01*
X1244434Y350424D01*
X1244323Y350436D01*
X1244213Y350452D01*
X1244103Y350471D01*
X1243994Y350495D01*
X1243886Y350522D01*
X1243779Y350553D01*
X1243673Y350588D01*
X1243568Y350627D01*
X1243465Y350669D01*
X1243363Y350715D01*
X1243263Y350764D01*
X1243165Y350817D01*
X1243069Y350873D01*
X1242974Y350933D01*
X1242882Y350996D01*
X1242792Y351062D01*
X1242705Y351132D01*
X1242620Y351204D01*
X1242538Y351279D01*
X1242458Y351358D01*
X1242381Y351439D01*
X1242308Y351522D01*
X1242237Y351608D01*
X1242169Y351697D01*
X1242104Y351788D01*
X1242043Y351881D01*
X1241985Y351976D01*
X1241930Y352074D01*
X1241879Y352173D01*
X1241831Y352274D01*
X1241787Y352376D01*
X1241747Y352480D01*
X1241710Y352586D01*
X1241677Y352692D01*
X1241648Y352800D01*
X1241623Y352909D01*
X1241601Y353018D01*
X1241583Y353128D01*
X1241570Y353239D01*
X1241560Y353350D01*
X1241554Y353461D01*
X1241552Y353573D01*
X1241552Y357637D01*
X1249680Y357637D01*
X1249781Y357635D01*
X1249882Y357629D01*
X1249983Y357620D01*
X1250084Y357607D01*
X1250184Y357590D01*
X1250283Y357569D01*
X1250381Y357545D01*
X1250478Y357517D01*
X1250575Y357485D01*
X1250670Y357450D01*
X1250763Y357411D01*
X1250855Y357369D01*
X1250946Y357323D01*
X1251035Y357274D01*
X1251121Y357222D01*
X1251206Y357166D01*
X1251289Y357108D01*
X1251369Y357046D01*
X1251447Y356981D01*
X1251523Y356914D01*
X1251596Y356844D01*
X1251666Y356771D01*
X1251733Y356695D01*
X1251798Y356617D01*
X1251860Y356537D01*
X1251918Y356454D01*
X1251974Y356369D01*
X1252026Y356283D01*
X1252075Y356194D01*
X1252121Y356103D01*
X1252163Y356011D01*
X1252202Y355918D01*
X1252237Y355823D01*
X1252269Y355726D01*
X1252297Y355629D01*
X1252321Y355531D01*
X1252342Y355432D01*
X1252359Y355332D01*
X1252372Y355231D01*
X1252381Y355130D01*
X1252387Y355029D01*
X1252389Y354928D01*
X1252389Y351315D01*
X1257808Y365148D02*
X1241552Y365148D01*
X1241552Y369663D01*
X1241554Y369767D01*
X1241560Y369870D01*
X1241570Y369974D01*
X1241584Y370077D01*
X1241602Y370179D01*
X1241623Y370280D01*
X1241649Y370381D01*
X1241678Y370480D01*
X1241711Y370579D01*
X1241748Y370676D01*
X1241789Y370771D01*
X1241833Y370865D01*
X1241881Y370957D01*
X1241932Y371047D01*
X1241987Y371136D01*
X1242045Y371222D01*
X1242107Y371305D01*
X1242171Y371387D01*
X1242239Y371465D01*
X1242309Y371541D01*
X1242382Y371615D01*
X1242459Y371685D01*
X1242537Y371753D01*
X1242619Y371817D01*
X1242702Y371879D01*
X1242788Y371937D01*
X1242877Y371992D01*
X1242967Y372043D01*
X1243059Y372091D01*
X1243153Y372135D01*
X1243248Y372176D01*
X1243345Y372213D01*
X1243444Y372246D01*
X1243543Y372275D01*
X1243644Y372301D01*
X1243745Y372322D01*
X1243847Y372340D01*
X1243950Y372354D01*
X1244054Y372364D01*
X1244157Y372370D01*
X1244261Y372372D01*
X1244261Y372373D02*
X1249680Y372373D01*
X1249680Y372372D02*
X1249781Y372370D01*
X1249882Y372364D01*
X1249983Y372355D01*
X1250084Y372342D01*
X1250184Y372325D01*
X1250283Y372304D01*
X1250381Y372280D01*
X1250478Y372252D01*
X1250575Y372220D01*
X1250670Y372185D01*
X1250763Y372146D01*
X1250855Y372104D01*
X1250946Y372058D01*
X1251035Y372009D01*
X1251121Y371957D01*
X1251206Y371901D01*
X1251289Y371843D01*
X1251369Y371781D01*
X1251447Y371716D01*
X1251523Y371649D01*
X1251596Y371579D01*
X1251666Y371506D01*
X1251733Y371430D01*
X1251798Y371352D01*
X1251860Y371272D01*
X1251918Y371189D01*
X1251974Y371104D01*
X1252026Y371018D01*
X1252075Y370929D01*
X1252121Y370838D01*
X1252163Y370746D01*
X1252202Y370653D01*
X1252237Y370558D01*
X1252269Y370461D01*
X1252297Y370364D01*
X1252321Y370266D01*
X1252342Y370167D01*
X1252359Y370067D01*
X1252372Y369966D01*
X1252381Y369865D01*
X1252387Y369764D01*
X1252389Y369663D01*
X1252389Y365148D01*
X1247874Y381709D02*
X1247874Y385773D01*
X1247874Y381709D02*
X1247872Y381597D01*
X1247866Y381486D01*
X1247856Y381375D01*
X1247843Y381264D01*
X1247825Y381154D01*
X1247803Y381045D01*
X1247778Y380936D01*
X1247749Y380828D01*
X1247716Y380722D01*
X1247679Y380616D01*
X1247639Y380512D01*
X1247595Y380410D01*
X1247547Y380309D01*
X1247496Y380210D01*
X1247441Y380112D01*
X1247383Y380017D01*
X1247322Y379924D01*
X1247257Y379833D01*
X1247189Y379744D01*
X1247118Y379658D01*
X1247045Y379575D01*
X1246968Y379494D01*
X1246888Y379415D01*
X1246806Y379340D01*
X1246721Y379268D01*
X1246634Y379198D01*
X1246544Y379132D01*
X1246452Y379069D01*
X1246357Y379009D01*
X1246261Y378953D01*
X1246163Y378900D01*
X1246063Y378851D01*
X1245961Y378805D01*
X1245858Y378763D01*
X1245753Y378724D01*
X1245647Y378689D01*
X1245540Y378658D01*
X1245432Y378631D01*
X1245323Y378607D01*
X1245213Y378588D01*
X1245103Y378572D01*
X1244992Y378560D01*
X1244880Y378552D01*
X1244769Y378548D01*
X1244657Y378548D01*
X1244546Y378552D01*
X1244434Y378560D01*
X1244323Y378572D01*
X1244213Y378588D01*
X1244103Y378607D01*
X1243994Y378631D01*
X1243886Y378658D01*
X1243779Y378689D01*
X1243673Y378724D01*
X1243568Y378763D01*
X1243465Y378805D01*
X1243363Y378851D01*
X1243263Y378900D01*
X1243165Y378953D01*
X1243069Y379009D01*
X1242974Y379069D01*
X1242882Y379132D01*
X1242792Y379198D01*
X1242705Y379268D01*
X1242620Y379340D01*
X1242538Y379415D01*
X1242458Y379494D01*
X1242381Y379575D01*
X1242308Y379658D01*
X1242237Y379744D01*
X1242169Y379833D01*
X1242104Y379924D01*
X1242043Y380017D01*
X1241985Y380112D01*
X1241930Y380210D01*
X1241879Y380309D01*
X1241831Y380410D01*
X1241787Y380512D01*
X1241747Y380616D01*
X1241710Y380722D01*
X1241677Y380828D01*
X1241648Y380936D01*
X1241623Y381045D01*
X1241601Y381154D01*
X1241583Y381264D01*
X1241570Y381375D01*
X1241560Y381486D01*
X1241554Y381597D01*
X1241552Y381709D01*
X1241552Y385773D01*
X1249680Y385773D01*
X1249781Y385771D01*
X1249882Y385765D01*
X1249983Y385756D01*
X1250084Y385743D01*
X1250184Y385726D01*
X1250283Y385705D01*
X1250381Y385681D01*
X1250478Y385653D01*
X1250575Y385621D01*
X1250670Y385586D01*
X1250763Y385547D01*
X1250855Y385505D01*
X1250946Y385459D01*
X1251035Y385410D01*
X1251121Y385358D01*
X1251206Y385302D01*
X1251289Y385244D01*
X1251369Y385182D01*
X1251447Y385117D01*
X1251523Y385050D01*
X1251596Y384980D01*
X1251666Y384907D01*
X1251733Y384831D01*
X1251798Y384753D01*
X1251860Y384673D01*
X1251918Y384590D01*
X1251974Y384505D01*
X1252026Y384419D01*
X1252075Y384330D01*
X1252121Y384239D01*
X1252163Y384147D01*
X1252202Y384054D01*
X1252237Y383959D01*
X1252269Y383862D01*
X1252297Y383765D01*
X1252321Y383667D01*
X1252342Y383568D01*
X1252359Y383468D01*
X1252372Y383367D01*
X1252381Y383266D01*
X1252387Y383165D01*
X1252389Y383064D01*
X1252389Y379451D01*
X1257808Y392927D02*
X1244261Y392927D01*
X1244160Y392929D01*
X1244059Y392935D01*
X1243958Y392944D01*
X1243857Y392957D01*
X1243757Y392974D01*
X1243658Y392995D01*
X1243560Y393019D01*
X1243463Y393047D01*
X1243366Y393079D01*
X1243271Y393114D01*
X1243178Y393153D01*
X1243086Y393195D01*
X1242995Y393241D01*
X1242907Y393290D01*
X1242820Y393342D01*
X1242735Y393398D01*
X1242652Y393456D01*
X1242572Y393518D01*
X1242494Y393583D01*
X1242418Y393650D01*
X1242345Y393720D01*
X1242275Y393793D01*
X1242208Y393869D01*
X1242143Y393947D01*
X1242081Y394027D01*
X1242023Y394110D01*
X1241967Y394195D01*
X1241915Y394282D01*
X1241866Y394370D01*
X1241820Y394461D01*
X1241778Y394553D01*
X1241739Y394646D01*
X1241704Y394741D01*
X1241672Y394838D01*
X1241644Y394935D01*
X1241620Y395033D01*
X1241599Y395132D01*
X1241582Y395232D01*
X1241569Y395333D01*
X1241560Y395434D01*
X1241554Y395535D01*
X1241552Y395636D01*
X1247874Y404114D02*
X1247874Y408178D01*
X1247874Y404114D02*
X1247872Y404002D01*
X1247866Y403891D01*
X1247856Y403780D01*
X1247843Y403669D01*
X1247825Y403559D01*
X1247803Y403450D01*
X1247778Y403341D01*
X1247749Y403233D01*
X1247716Y403127D01*
X1247679Y403021D01*
X1247639Y402917D01*
X1247595Y402815D01*
X1247547Y402714D01*
X1247496Y402615D01*
X1247441Y402517D01*
X1247383Y402422D01*
X1247322Y402329D01*
X1247257Y402238D01*
X1247189Y402149D01*
X1247118Y402063D01*
X1247045Y401980D01*
X1246968Y401899D01*
X1246888Y401820D01*
X1246806Y401745D01*
X1246721Y401673D01*
X1246634Y401603D01*
X1246544Y401537D01*
X1246452Y401474D01*
X1246357Y401414D01*
X1246261Y401358D01*
X1246163Y401305D01*
X1246063Y401256D01*
X1245961Y401210D01*
X1245858Y401168D01*
X1245753Y401129D01*
X1245647Y401094D01*
X1245540Y401063D01*
X1245432Y401036D01*
X1245323Y401012D01*
X1245213Y400993D01*
X1245103Y400977D01*
X1244992Y400965D01*
X1244880Y400957D01*
X1244769Y400953D01*
X1244657Y400953D01*
X1244546Y400957D01*
X1244434Y400965D01*
X1244323Y400977D01*
X1244213Y400993D01*
X1244103Y401012D01*
X1243994Y401036D01*
X1243886Y401063D01*
X1243779Y401094D01*
X1243673Y401129D01*
X1243568Y401168D01*
X1243465Y401210D01*
X1243363Y401256D01*
X1243263Y401305D01*
X1243165Y401358D01*
X1243069Y401414D01*
X1242974Y401474D01*
X1242882Y401537D01*
X1242792Y401603D01*
X1242705Y401673D01*
X1242620Y401745D01*
X1242538Y401820D01*
X1242458Y401899D01*
X1242381Y401980D01*
X1242308Y402063D01*
X1242237Y402149D01*
X1242169Y402238D01*
X1242104Y402329D01*
X1242043Y402422D01*
X1241985Y402517D01*
X1241930Y402615D01*
X1241879Y402714D01*
X1241831Y402815D01*
X1241787Y402917D01*
X1241747Y403021D01*
X1241710Y403127D01*
X1241677Y403233D01*
X1241648Y403341D01*
X1241623Y403450D01*
X1241601Y403559D01*
X1241583Y403669D01*
X1241570Y403780D01*
X1241560Y403891D01*
X1241554Y404002D01*
X1241552Y404114D01*
X1241552Y408178D01*
X1249680Y408178D01*
X1249781Y408176D01*
X1249882Y408170D01*
X1249983Y408161D01*
X1250084Y408148D01*
X1250184Y408131D01*
X1250283Y408110D01*
X1250381Y408086D01*
X1250478Y408058D01*
X1250575Y408026D01*
X1250670Y407991D01*
X1250763Y407952D01*
X1250855Y407910D01*
X1250946Y407864D01*
X1251035Y407815D01*
X1251121Y407763D01*
X1251206Y407707D01*
X1251289Y407649D01*
X1251369Y407587D01*
X1251447Y407522D01*
X1251523Y407455D01*
X1251596Y407385D01*
X1251666Y407312D01*
X1251733Y407236D01*
X1251798Y407158D01*
X1251860Y407078D01*
X1251918Y406995D01*
X1251974Y406910D01*
X1252026Y406824D01*
X1252075Y406735D01*
X1252121Y406644D01*
X1252163Y406552D01*
X1252202Y406459D01*
X1252237Y406364D01*
X1252269Y406267D01*
X1252297Y406170D01*
X1252321Y406072D01*
X1252342Y405973D01*
X1252359Y405873D01*
X1252372Y405772D01*
X1252381Y405671D01*
X1252387Y405570D01*
X1252389Y405469D01*
X1252389Y401856D01*
X67808Y582389D02*
X51552Y582389D01*
X67808Y582389D02*
X67808Y586904D01*
X67806Y587035D01*
X67800Y587167D01*
X67791Y587298D01*
X67777Y587428D01*
X67760Y587559D01*
X67739Y587688D01*
X67715Y587817D01*
X67686Y587945D01*
X67654Y588073D01*
X67618Y588199D01*
X67579Y588324D01*
X67536Y588449D01*
X67489Y588571D01*
X67439Y588693D01*
X67385Y588813D01*
X67328Y588931D01*
X67267Y589047D01*
X67203Y589162D01*
X67136Y589275D01*
X67065Y589386D01*
X66991Y589494D01*
X66914Y589601D01*
X66834Y589705D01*
X66751Y589807D01*
X66666Y589906D01*
X66577Y590003D01*
X66485Y590097D01*
X66391Y590189D01*
X66294Y590278D01*
X66195Y590363D01*
X66093Y590446D01*
X65989Y590526D01*
X65882Y590603D01*
X65774Y590677D01*
X65663Y590748D01*
X65550Y590815D01*
X65435Y590879D01*
X65319Y590940D01*
X65201Y590997D01*
X65081Y591051D01*
X64959Y591101D01*
X64837Y591148D01*
X64712Y591191D01*
X64587Y591230D01*
X64461Y591266D01*
X64333Y591298D01*
X64205Y591327D01*
X64076Y591351D01*
X63947Y591372D01*
X63816Y591389D01*
X63686Y591403D01*
X63555Y591412D01*
X63423Y591418D01*
X63292Y591420D01*
X56068Y591420D01*
X55937Y591418D01*
X55805Y591412D01*
X55674Y591403D01*
X55544Y591389D01*
X55413Y591372D01*
X55284Y591351D01*
X55155Y591327D01*
X55027Y591298D01*
X54899Y591266D01*
X54773Y591230D01*
X54648Y591191D01*
X54523Y591148D01*
X54401Y591101D01*
X54279Y591051D01*
X54159Y590997D01*
X54041Y590940D01*
X53925Y590879D01*
X53810Y590815D01*
X53697Y590748D01*
X53586Y590677D01*
X53478Y590603D01*
X53371Y590526D01*
X53267Y590446D01*
X53165Y590363D01*
X53066Y590278D01*
X52969Y590189D01*
X52875Y590097D01*
X52783Y590003D01*
X52694Y589906D01*
X52609Y589807D01*
X52526Y589705D01*
X52446Y589601D01*
X52369Y589494D01*
X52295Y589386D01*
X52224Y589275D01*
X52157Y589162D01*
X52093Y589047D01*
X52032Y588931D01*
X51975Y588813D01*
X51921Y588693D01*
X51871Y588571D01*
X51824Y588449D01*
X51781Y588324D01*
X51742Y588199D01*
X51706Y588073D01*
X51674Y587945D01*
X51645Y587817D01*
X51621Y587688D01*
X51600Y587559D01*
X51583Y587428D01*
X51569Y587298D01*
X51560Y587167D01*
X51554Y587035D01*
X51552Y586904D01*
X51552Y582389D01*
X51552Y598367D02*
X62389Y598367D01*
X66905Y597916D02*
X67808Y597916D01*
X67808Y598819D01*
X66905Y598819D01*
X66905Y597916D01*
X57874Y606009D02*
X56068Y610525D01*
X57874Y606009D02*
X57911Y605921D01*
X57952Y605835D01*
X57996Y605750D01*
X58044Y605667D01*
X58095Y605587D01*
X58149Y605508D01*
X58207Y605432D01*
X58267Y605358D01*
X58331Y605286D01*
X58397Y605218D01*
X58467Y605152D01*
X58538Y605089D01*
X58613Y605028D01*
X58689Y604971D01*
X58768Y604918D01*
X58849Y604867D01*
X58932Y604820D01*
X59017Y604776D01*
X59104Y604736D01*
X59192Y604699D01*
X59282Y604666D01*
X59373Y604636D01*
X59465Y604611D01*
X59558Y604589D01*
X59652Y604571D01*
X59746Y604556D01*
X59841Y604546D01*
X59937Y604540D01*
X60032Y604537D01*
X60128Y604538D01*
X60223Y604544D01*
X60319Y604553D01*
X60413Y604566D01*
X60507Y604582D01*
X60601Y604603D01*
X60693Y604628D01*
X60784Y604656D01*
X60874Y604688D01*
X60963Y604723D01*
X61050Y604762D01*
X61136Y604805D01*
X61220Y604851D01*
X61301Y604901D01*
X61381Y604953D01*
X61459Y605009D01*
X61534Y605069D01*
X61606Y605131D01*
X61676Y605196D01*
X61744Y605264D01*
X61808Y605334D01*
X61870Y605407D01*
X61928Y605483D01*
X61984Y605561D01*
X62036Y605641D01*
X62085Y605723D01*
X62130Y605807D01*
X62172Y605893D01*
X62211Y605980D01*
X62246Y606069D01*
X62277Y606160D01*
X62304Y606251D01*
X62328Y606344D01*
X62348Y606437D01*
X62364Y606531D01*
X62376Y606626D01*
X62385Y606721D01*
X62389Y606817D01*
X62390Y606912D01*
X62383Y607159D01*
X62371Y607405D01*
X62353Y607651D01*
X62328Y607897D01*
X62298Y608141D01*
X62262Y608385D01*
X62221Y608628D01*
X62173Y608870D01*
X62119Y609111D01*
X62060Y609350D01*
X61995Y609588D01*
X61924Y609824D01*
X61848Y610059D01*
X61766Y610292D01*
X61678Y610522D01*
X61585Y610750D01*
X61487Y610977D01*
X56067Y610525D02*
X56030Y610613D01*
X55989Y610699D01*
X55945Y610784D01*
X55897Y610867D01*
X55846Y610947D01*
X55792Y611026D01*
X55734Y611102D01*
X55674Y611176D01*
X55610Y611248D01*
X55544Y611316D01*
X55474Y611382D01*
X55403Y611445D01*
X55328Y611506D01*
X55252Y611563D01*
X55173Y611616D01*
X55092Y611667D01*
X55009Y611714D01*
X54924Y611758D01*
X54837Y611798D01*
X54749Y611835D01*
X54659Y611868D01*
X54568Y611898D01*
X54476Y611923D01*
X54383Y611945D01*
X54289Y611963D01*
X54195Y611978D01*
X54100Y611988D01*
X54004Y611994D01*
X53909Y611997D01*
X53813Y611996D01*
X53718Y611990D01*
X53622Y611981D01*
X53528Y611968D01*
X53434Y611952D01*
X53340Y611931D01*
X53248Y611906D01*
X53157Y611878D01*
X53067Y611846D01*
X52978Y611811D01*
X52891Y611772D01*
X52805Y611729D01*
X52721Y611683D01*
X52640Y611633D01*
X52560Y611581D01*
X52482Y611525D01*
X52407Y611465D01*
X52335Y611403D01*
X52265Y611338D01*
X52197Y611270D01*
X52133Y611200D01*
X52071Y611127D01*
X52013Y611051D01*
X51957Y610973D01*
X51905Y610893D01*
X51856Y610811D01*
X51811Y610727D01*
X51769Y610641D01*
X51730Y610554D01*
X51695Y610465D01*
X51664Y610374D01*
X51637Y610283D01*
X51613Y610190D01*
X51593Y610097D01*
X51577Y610003D01*
X51565Y609908D01*
X51556Y609813D01*
X51552Y609717D01*
X51551Y609622D01*
X51552Y609621D02*
X51561Y609259D01*
X51579Y608897D01*
X51606Y608536D01*
X51641Y608176D01*
X51684Y607816D01*
X51736Y607457D01*
X51797Y607100D01*
X51866Y606745D01*
X51943Y606391D01*
X52029Y606039D01*
X52123Y605689D01*
X52226Y605341D01*
X52336Y604996D01*
X52455Y604654D01*
X51552Y620911D02*
X51552Y625427D01*
X51552Y620911D02*
X51554Y620810D01*
X51560Y620709D01*
X51569Y620608D01*
X51582Y620507D01*
X51599Y620407D01*
X51620Y620308D01*
X51644Y620210D01*
X51672Y620113D01*
X51704Y620016D01*
X51739Y619921D01*
X51778Y619828D01*
X51820Y619736D01*
X51866Y619645D01*
X51915Y619557D01*
X51967Y619470D01*
X52023Y619385D01*
X52081Y619302D01*
X52143Y619222D01*
X52208Y619144D01*
X52275Y619068D01*
X52345Y618995D01*
X52418Y618925D01*
X52494Y618858D01*
X52572Y618793D01*
X52652Y618731D01*
X52735Y618673D01*
X52820Y618617D01*
X52907Y618565D01*
X52995Y618516D01*
X53086Y618470D01*
X53178Y618428D01*
X53271Y618389D01*
X53366Y618354D01*
X53463Y618322D01*
X53560Y618294D01*
X53658Y618270D01*
X53757Y618249D01*
X53857Y618232D01*
X53958Y618219D01*
X54059Y618210D01*
X54160Y618204D01*
X54261Y618202D01*
X58777Y618202D01*
X58896Y618204D01*
X59016Y618210D01*
X59135Y618220D01*
X59253Y618234D01*
X59372Y618251D01*
X59489Y618273D01*
X59606Y618298D01*
X59721Y618328D01*
X59836Y618361D01*
X59950Y618398D01*
X60062Y618438D01*
X60173Y618483D01*
X60282Y618531D01*
X60390Y618582D01*
X60496Y618637D01*
X60600Y618696D01*
X60702Y618758D01*
X60802Y618823D01*
X60900Y618892D01*
X60996Y618964D01*
X61089Y619039D01*
X61179Y619116D01*
X61267Y619197D01*
X61352Y619281D01*
X61434Y619368D01*
X61514Y619457D01*
X61590Y619549D01*
X61664Y619643D01*
X61734Y619740D01*
X61801Y619838D01*
X61865Y619939D01*
X61925Y620043D01*
X61982Y620148D01*
X62035Y620255D01*
X62085Y620363D01*
X62131Y620473D01*
X62173Y620585D01*
X62212Y620698D01*
X62247Y620812D01*
X62278Y620927D01*
X62306Y621044D01*
X62329Y621161D01*
X62349Y621278D01*
X62365Y621397D01*
X62377Y621516D01*
X62385Y621635D01*
X62389Y621754D01*
X62389Y621874D01*
X62385Y621993D01*
X62377Y622112D01*
X62365Y622231D01*
X62349Y622350D01*
X62329Y622467D01*
X62306Y622584D01*
X62278Y622701D01*
X62247Y622816D01*
X62212Y622930D01*
X62173Y623043D01*
X62131Y623155D01*
X62085Y623265D01*
X62035Y623373D01*
X61982Y623480D01*
X61925Y623585D01*
X61865Y623689D01*
X61801Y623790D01*
X61734Y623888D01*
X61664Y623985D01*
X61590Y624079D01*
X61514Y624171D01*
X61434Y624260D01*
X61352Y624347D01*
X61267Y624431D01*
X61179Y624512D01*
X61089Y624589D01*
X60996Y624664D01*
X60900Y624736D01*
X60802Y624805D01*
X60702Y624870D01*
X60600Y624932D01*
X60496Y624991D01*
X60390Y625046D01*
X60282Y625097D01*
X60173Y625145D01*
X60062Y625190D01*
X59950Y625230D01*
X59836Y625267D01*
X59721Y625300D01*
X59606Y625330D01*
X59489Y625355D01*
X59372Y625377D01*
X59253Y625394D01*
X59135Y625408D01*
X59016Y625418D01*
X58896Y625424D01*
X58777Y625426D01*
X58777Y625427D02*
X56971Y625427D01*
X56971Y618202D01*
X51552Y632270D02*
X62389Y632270D01*
X62389Y636785D01*
X62387Y636886D01*
X62381Y636987D01*
X62372Y637088D01*
X62359Y637189D01*
X62342Y637289D01*
X62321Y637388D01*
X62297Y637486D01*
X62269Y637583D01*
X62237Y637680D01*
X62202Y637775D01*
X62163Y637868D01*
X62121Y637960D01*
X62075Y638051D01*
X62026Y638140D01*
X61974Y638226D01*
X61918Y638311D01*
X61860Y638394D01*
X61798Y638474D01*
X61733Y638552D01*
X61666Y638628D01*
X61596Y638701D01*
X61523Y638771D01*
X61447Y638838D01*
X61369Y638903D01*
X61289Y638965D01*
X61206Y639023D01*
X61121Y639079D01*
X61035Y639131D01*
X60946Y639180D01*
X60855Y639226D01*
X60763Y639268D01*
X60670Y639307D01*
X60575Y639342D01*
X60478Y639374D01*
X60381Y639402D01*
X60283Y639426D01*
X60184Y639447D01*
X60084Y639464D01*
X59983Y639477D01*
X59882Y639486D01*
X59781Y639492D01*
X59680Y639494D01*
X59680Y639495D02*
X51552Y639495D01*
X66453Y632270D02*
X66536Y632272D01*
X66620Y632278D01*
X66703Y632287D01*
X66785Y632301D01*
X66866Y632318D01*
X66947Y632339D01*
X67027Y632364D01*
X67105Y632392D01*
X67182Y632424D01*
X67258Y632459D01*
X67332Y632498D01*
X67404Y632541D01*
X67474Y632586D01*
X67541Y632635D01*
X67607Y632687D01*
X67670Y632741D01*
X67730Y632799D01*
X67788Y632859D01*
X67842Y632922D01*
X67894Y632988D01*
X67943Y633055D01*
X67989Y633125D01*
X68031Y633197D01*
X68070Y633271D01*
X68105Y633347D01*
X68137Y633424D01*
X68165Y633502D01*
X68190Y633582D01*
X68211Y633663D01*
X68228Y633744D01*
X68242Y633827D01*
X68251Y633909D01*
X68257Y633993D01*
X68259Y634076D01*
X68260Y634076D02*
X68258Y634151D01*
X68252Y634226D01*
X68243Y634300D01*
X68229Y634374D01*
X68212Y634447D01*
X68191Y634519D01*
X68167Y634590D01*
X68139Y634660D01*
X68107Y634728D01*
X68072Y634794D01*
X68034Y634859D01*
X67992Y634921D01*
X67947Y634981D01*
X67900Y635039D01*
X67849Y635095D01*
X67796Y635147D01*
X67739Y635197D01*
X67681Y635244D01*
X67620Y635288D01*
X67557Y635329D01*
X67492Y635366D01*
X67425Y635400D01*
X67357Y635431D01*
X67356Y635430D02*
X67288Y635461D01*
X67221Y635495D01*
X67156Y635532D01*
X67093Y635573D01*
X67032Y635617D01*
X66974Y635664D01*
X66917Y635714D01*
X66864Y635766D01*
X66813Y635822D01*
X66766Y635879D01*
X66721Y635940D01*
X66679Y636002D01*
X66641Y636067D01*
X66606Y636133D01*
X66574Y636201D01*
X66546Y636271D01*
X66522Y636342D01*
X66501Y636414D01*
X66484Y636487D01*
X66470Y636561D01*
X66461Y636635D01*
X66455Y636710D01*
X66453Y636785D01*
X66455Y636868D01*
X66461Y636952D01*
X66470Y637034D01*
X66484Y637117D01*
X66501Y637198D01*
X66522Y637279D01*
X66547Y637359D01*
X66575Y637437D01*
X66607Y637514D01*
X66642Y637590D01*
X66681Y637664D01*
X66724Y637736D01*
X66769Y637806D01*
X66818Y637873D01*
X66870Y637939D01*
X66924Y638002D01*
X66982Y638062D01*
X67042Y638120D01*
X67105Y638174D01*
X67171Y638226D01*
X67238Y638275D01*
X67308Y638321D01*
X67380Y638363D01*
X67454Y638402D01*
X67530Y638437D01*
X67607Y638469D01*
X67685Y638497D01*
X67765Y638522D01*
X67846Y638543D01*
X67927Y638560D01*
X68010Y638574D01*
X68092Y638583D01*
X68176Y638589D01*
X68259Y638591D01*
X57874Y649425D02*
X57874Y653489D01*
X57874Y649425D02*
X57872Y649313D01*
X57866Y649202D01*
X57856Y649091D01*
X57843Y648980D01*
X57825Y648870D01*
X57803Y648761D01*
X57778Y648652D01*
X57749Y648544D01*
X57716Y648438D01*
X57679Y648332D01*
X57639Y648228D01*
X57595Y648126D01*
X57547Y648025D01*
X57496Y647926D01*
X57441Y647828D01*
X57383Y647733D01*
X57322Y647640D01*
X57257Y647549D01*
X57189Y647460D01*
X57118Y647374D01*
X57045Y647291D01*
X56968Y647210D01*
X56888Y647131D01*
X56806Y647056D01*
X56721Y646984D01*
X56634Y646914D01*
X56544Y646848D01*
X56452Y646785D01*
X56357Y646725D01*
X56261Y646669D01*
X56163Y646616D01*
X56063Y646567D01*
X55961Y646521D01*
X55858Y646479D01*
X55753Y646440D01*
X55647Y646405D01*
X55540Y646374D01*
X55432Y646347D01*
X55323Y646323D01*
X55213Y646304D01*
X55103Y646288D01*
X54992Y646276D01*
X54880Y646268D01*
X54769Y646264D01*
X54657Y646264D01*
X54546Y646268D01*
X54434Y646276D01*
X54323Y646288D01*
X54213Y646304D01*
X54103Y646323D01*
X53994Y646347D01*
X53886Y646374D01*
X53779Y646405D01*
X53673Y646440D01*
X53568Y646479D01*
X53465Y646521D01*
X53363Y646567D01*
X53263Y646616D01*
X53165Y646669D01*
X53069Y646725D01*
X52974Y646785D01*
X52882Y646848D01*
X52792Y646914D01*
X52705Y646984D01*
X52620Y647056D01*
X52538Y647131D01*
X52458Y647210D01*
X52381Y647291D01*
X52308Y647374D01*
X52237Y647460D01*
X52169Y647549D01*
X52104Y647640D01*
X52043Y647733D01*
X51985Y647828D01*
X51930Y647926D01*
X51879Y648025D01*
X51831Y648126D01*
X51787Y648228D01*
X51747Y648332D01*
X51710Y648438D01*
X51677Y648544D01*
X51648Y648652D01*
X51623Y648761D01*
X51601Y648870D01*
X51583Y648980D01*
X51570Y649091D01*
X51560Y649202D01*
X51554Y649313D01*
X51552Y649425D01*
X51552Y653489D01*
X59680Y653489D01*
X59781Y653487D01*
X59882Y653481D01*
X59983Y653472D01*
X60084Y653459D01*
X60184Y653442D01*
X60283Y653421D01*
X60381Y653397D01*
X60478Y653369D01*
X60575Y653337D01*
X60670Y653302D01*
X60763Y653263D01*
X60855Y653221D01*
X60946Y653175D01*
X61035Y653126D01*
X61121Y653074D01*
X61206Y653018D01*
X61289Y652960D01*
X61369Y652898D01*
X61447Y652833D01*
X61523Y652766D01*
X61596Y652696D01*
X61666Y652623D01*
X61733Y652547D01*
X61798Y652469D01*
X61860Y652389D01*
X61918Y652306D01*
X61974Y652221D01*
X62026Y652135D01*
X62075Y652046D01*
X62121Y651955D01*
X62163Y651863D01*
X62202Y651770D01*
X62237Y651675D01*
X62269Y651578D01*
X62297Y651481D01*
X62321Y651383D01*
X62342Y651284D01*
X62359Y651184D01*
X62372Y651083D01*
X62381Y650982D01*
X62387Y650881D01*
X62389Y650780D01*
X62389Y647168D01*
X67808Y667558D02*
X51552Y667558D01*
X51552Y663042D01*
X51554Y662941D01*
X51560Y662840D01*
X51569Y662739D01*
X51582Y662638D01*
X51599Y662538D01*
X51620Y662439D01*
X51644Y662341D01*
X51672Y662244D01*
X51704Y662147D01*
X51739Y662052D01*
X51778Y661959D01*
X51820Y661867D01*
X51866Y661776D01*
X51915Y661688D01*
X51967Y661601D01*
X52023Y661516D01*
X52081Y661433D01*
X52143Y661353D01*
X52208Y661275D01*
X52275Y661199D01*
X52345Y661126D01*
X52418Y661056D01*
X52494Y660989D01*
X52572Y660924D01*
X52652Y660862D01*
X52735Y660804D01*
X52820Y660748D01*
X52907Y660696D01*
X52995Y660647D01*
X53086Y660601D01*
X53178Y660559D01*
X53271Y660520D01*
X53366Y660485D01*
X53463Y660453D01*
X53560Y660425D01*
X53658Y660401D01*
X53757Y660380D01*
X53857Y660363D01*
X53958Y660350D01*
X54059Y660341D01*
X54160Y660335D01*
X54261Y660333D01*
X59680Y660333D01*
X59781Y660335D01*
X59882Y660341D01*
X59983Y660350D01*
X60084Y660363D01*
X60184Y660380D01*
X60283Y660401D01*
X60381Y660425D01*
X60478Y660453D01*
X60575Y660485D01*
X60670Y660520D01*
X60763Y660559D01*
X60855Y660601D01*
X60946Y660647D01*
X61034Y660696D01*
X61121Y660748D01*
X61206Y660804D01*
X61289Y660862D01*
X61369Y660924D01*
X61447Y660989D01*
X61523Y661056D01*
X61596Y661126D01*
X61666Y661199D01*
X61733Y661275D01*
X61798Y661353D01*
X61860Y661433D01*
X61918Y661516D01*
X61974Y661601D01*
X62026Y661688D01*
X62075Y661776D01*
X62121Y661867D01*
X62163Y661959D01*
X62202Y662052D01*
X62237Y662147D01*
X62269Y662244D01*
X62297Y662341D01*
X62321Y662439D01*
X62342Y662538D01*
X62359Y662638D01*
X62372Y662739D01*
X62381Y662840D01*
X62387Y662941D01*
X62389Y663042D01*
X62389Y667558D01*
X58777Y674474D02*
X55164Y674474D01*
X58777Y674474D02*
X58896Y674476D01*
X59016Y674482D01*
X59135Y674492D01*
X59253Y674506D01*
X59372Y674523D01*
X59489Y674545D01*
X59606Y674570D01*
X59721Y674600D01*
X59836Y674633D01*
X59950Y674670D01*
X60062Y674710D01*
X60173Y674755D01*
X60282Y674803D01*
X60390Y674854D01*
X60496Y674909D01*
X60600Y674968D01*
X60702Y675030D01*
X60802Y675095D01*
X60900Y675164D01*
X60996Y675236D01*
X61089Y675311D01*
X61179Y675388D01*
X61267Y675469D01*
X61352Y675553D01*
X61434Y675640D01*
X61514Y675729D01*
X61590Y675821D01*
X61664Y675915D01*
X61734Y676012D01*
X61801Y676110D01*
X61865Y676211D01*
X61925Y676315D01*
X61982Y676420D01*
X62035Y676527D01*
X62085Y676635D01*
X62131Y676745D01*
X62173Y676857D01*
X62212Y676970D01*
X62247Y677084D01*
X62278Y677199D01*
X62306Y677316D01*
X62329Y677433D01*
X62349Y677550D01*
X62365Y677669D01*
X62377Y677788D01*
X62385Y677907D01*
X62389Y678026D01*
X62389Y678146D01*
X62385Y678265D01*
X62377Y678384D01*
X62365Y678503D01*
X62349Y678622D01*
X62329Y678739D01*
X62306Y678856D01*
X62278Y678973D01*
X62247Y679088D01*
X62212Y679202D01*
X62173Y679315D01*
X62131Y679427D01*
X62085Y679537D01*
X62035Y679645D01*
X61982Y679752D01*
X61925Y679857D01*
X61865Y679961D01*
X61801Y680062D01*
X61734Y680160D01*
X61664Y680257D01*
X61590Y680351D01*
X61514Y680443D01*
X61434Y680532D01*
X61352Y680619D01*
X61267Y680703D01*
X61179Y680784D01*
X61089Y680861D01*
X60996Y680936D01*
X60900Y681008D01*
X60802Y681077D01*
X60702Y681142D01*
X60600Y681204D01*
X60496Y681263D01*
X60390Y681318D01*
X60282Y681369D01*
X60173Y681417D01*
X60062Y681462D01*
X59950Y681502D01*
X59836Y681539D01*
X59721Y681572D01*
X59606Y681602D01*
X59489Y681627D01*
X59372Y681649D01*
X59253Y681666D01*
X59135Y681680D01*
X59016Y681690D01*
X58896Y681696D01*
X58777Y681698D01*
X58777Y681699D02*
X55164Y681699D01*
X55164Y681698D02*
X55045Y681696D01*
X54925Y681690D01*
X54806Y681680D01*
X54688Y681666D01*
X54569Y681649D01*
X54452Y681627D01*
X54335Y681602D01*
X54220Y681572D01*
X54105Y681539D01*
X53991Y681502D01*
X53879Y681462D01*
X53768Y681417D01*
X53659Y681369D01*
X53551Y681318D01*
X53445Y681263D01*
X53341Y681204D01*
X53239Y681142D01*
X53139Y681077D01*
X53041Y681008D01*
X52945Y680936D01*
X52852Y680861D01*
X52762Y680784D01*
X52674Y680703D01*
X52589Y680619D01*
X52507Y680532D01*
X52427Y680443D01*
X52351Y680351D01*
X52277Y680257D01*
X52207Y680160D01*
X52140Y680062D01*
X52076Y679961D01*
X52016Y679857D01*
X51959Y679752D01*
X51906Y679645D01*
X51856Y679537D01*
X51810Y679427D01*
X51768Y679315D01*
X51729Y679202D01*
X51694Y679088D01*
X51663Y678973D01*
X51635Y678856D01*
X51612Y678739D01*
X51592Y678622D01*
X51576Y678503D01*
X51564Y678384D01*
X51556Y678265D01*
X51552Y678146D01*
X51552Y678026D01*
X51556Y677907D01*
X51564Y677788D01*
X51576Y677669D01*
X51592Y677550D01*
X51612Y677433D01*
X51635Y677316D01*
X51663Y677199D01*
X51694Y677084D01*
X51729Y676970D01*
X51768Y676857D01*
X51810Y676745D01*
X51856Y676635D01*
X51906Y676527D01*
X51959Y676420D01*
X52016Y676315D01*
X52076Y676211D01*
X52140Y676110D01*
X52207Y676012D01*
X52277Y675915D01*
X52351Y675821D01*
X52427Y675729D01*
X52507Y675640D01*
X52589Y675553D01*
X52674Y675469D01*
X52762Y675388D01*
X52852Y675311D01*
X52945Y675236D01*
X53041Y675164D01*
X53139Y675095D01*
X53239Y675030D01*
X53341Y674968D01*
X53445Y674909D01*
X53551Y674854D01*
X53659Y674803D01*
X53768Y674755D01*
X53879Y674710D01*
X53991Y674670D01*
X54105Y674633D01*
X54220Y674600D01*
X54335Y674570D01*
X54452Y674545D01*
X54569Y674523D01*
X54688Y674506D01*
X54806Y674492D01*
X54925Y674482D01*
X55045Y674476D01*
X55164Y674474D01*
X62389Y696952D02*
X46133Y696952D01*
X62389Y696952D02*
X62389Y701468D01*
X62387Y701569D01*
X62381Y701670D01*
X62372Y701771D01*
X62359Y701872D01*
X62342Y701972D01*
X62321Y702071D01*
X62297Y702169D01*
X62269Y702266D01*
X62237Y702363D01*
X62202Y702458D01*
X62163Y702551D01*
X62121Y702643D01*
X62075Y702734D01*
X62026Y702823D01*
X61974Y702909D01*
X61918Y702994D01*
X61860Y703077D01*
X61798Y703157D01*
X61733Y703235D01*
X61666Y703311D01*
X61596Y703384D01*
X61523Y703454D01*
X61447Y703521D01*
X61369Y703586D01*
X61289Y703648D01*
X61206Y703706D01*
X61121Y703762D01*
X61035Y703814D01*
X60946Y703863D01*
X60855Y703909D01*
X60763Y703951D01*
X60670Y703990D01*
X60575Y704025D01*
X60478Y704057D01*
X60381Y704085D01*
X60283Y704109D01*
X60184Y704130D01*
X60084Y704147D01*
X59983Y704160D01*
X59882Y704169D01*
X59781Y704175D01*
X59680Y704177D01*
X54261Y704177D01*
X54160Y704175D01*
X54059Y704169D01*
X53958Y704160D01*
X53857Y704147D01*
X53757Y704130D01*
X53658Y704109D01*
X53560Y704085D01*
X53463Y704057D01*
X53366Y704025D01*
X53271Y703990D01*
X53178Y703951D01*
X53086Y703909D01*
X52995Y703863D01*
X52907Y703814D01*
X52820Y703762D01*
X52735Y703706D01*
X52652Y703648D01*
X52572Y703586D01*
X52494Y703521D01*
X52418Y703454D01*
X52345Y703384D01*
X52275Y703311D01*
X52208Y703235D01*
X52143Y703157D01*
X52081Y703077D01*
X52023Y702994D01*
X51967Y702909D01*
X51915Y702823D01*
X51866Y702734D01*
X51820Y702643D01*
X51778Y702551D01*
X51739Y702458D01*
X51704Y702363D01*
X51672Y702266D01*
X51644Y702169D01*
X51620Y702071D01*
X51599Y701972D01*
X51582Y701872D01*
X51569Y701771D01*
X51560Y701670D01*
X51554Y701569D01*
X51552Y701468D01*
X51552Y696952D01*
X55164Y710426D02*
X58777Y710426D01*
X58896Y710428D01*
X59016Y710434D01*
X59135Y710444D01*
X59253Y710458D01*
X59372Y710475D01*
X59489Y710497D01*
X59606Y710522D01*
X59721Y710552D01*
X59836Y710585D01*
X59950Y710622D01*
X60062Y710662D01*
X60173Y710707D01*
X60282Y710755D01*
X60390Y710806D01*
X60496Y710861D01*
X60600Y710920D01*
X60702Y710982D01*
X60802Y711047D01*
X60900Y711116D01*
X60996Y711188D01*
X61089Y711263D01*
X61179Y711340D01*
X61267Y711421D01*
X61352Y711505D01*
X61434Y711592D01*
X61514Y711681D01*
X61590Y711773D01*
X61664Y711867D01*
X61734Y711964D01*
X61801Y712062D01*
X61865Y712163D01*
X61925Y712267D01*
X61982Y712372D01*
X62035Y712479D01*
X62085Y712587D01*
X62131Y712697D01*
X62173Y712809D01*
X62212Y712922D01*
X62247Y713036D01*
X62278Y713151D01*
X62306Y713268D01*
X62329Y713385D01*
X62349Y713502D01*
X62365Y713621D01*
X62377Y713740D01*
X62385Y713859D01*
X62389Y713978D01*
X62389Y714098D01*
X62385Y714217D01*
X62377Y714336D01*
X62365Y714455D01*
X62349Y714574D01*
X62329Y714691D01*
X62306Y714808D01*
X62278Y714925D01*
X62247Y715040D01*
X62212Y715154D01*
X62173Y715267D01*
X62131Y715379D01*
X62085Y715489D01*
X62035Y715597D01*
X61982Y715704D01*
X61925Y715809D01*
X61865Y715913D01*
X61801Y716014D01*
X61734Y716112D01*
X61664Y716209D01*
X61590Y716303D01*
X61514Y716395D01*
X61434Y716484D01*
X61352Y716571D01*
X61267Y716655D01*
X61179Y716736D01*
X61089Y716813D01*
X60996Y716888D01*
X60900Y716960D01*
X60802Y717029D01*
X60702Y717094D01*
X60600Y717156D01*
X60496Y717215D01*
X60390Y717270D01*
X60282Y717321D01*
X60173Y717369D01*
X60062Y717414D01*
X59950Y717454D01*
X59836Y717491D01*
X59721Y717524D01*
X59606Y717554D01*
X59489Y717579D01*
X59372Y717601D01*
X59253Y717618D01*
X59135Y717632D01*
X59016Y717642D01*
X58896Y717648D01*
X58777Y717650D01*
X58777Y717651D02*
X55164Y717651D01*
X55164Y717650D02*
X55045Y717648D01*
X54925Y717642D01*
X54806Y717632D01*
X54688Y717618D01*
X54569Y717601D01*
X54452Y717579D01*
X54335Y717554D01*
X54220Y717524D01*
X54105Y717491D01*
X53991Y717454D01*
X53879Y717414D01*
X53768Y717369D01*
X53659Y717321D01*
X53551Y717270D01*
X53445Y717215D01*
X53341Y717156D01*
X53239Y717094D01*
X53139Y717029D01*
X53041Y716960D01*
X52945Y716888D01*
X52852Y716813D01*
X52762Y716736D01*
X52674Y716655D01*
X52589Y716571D01*
X52507Y716484D01*
X52427Y716395D01*
X52351Y716303D01*
X52277Y716209D01*
X52207Y716112D01*
X52140Y716014D01*
X52076Y715913D01*
X52016Y715809D01*
X51959Y715704D01*
X51906Y715597D01*
X51856Y715489D01*
X51810Y715379D01*
X51768Y715267D01*
X51729Y715154D01*
X51694Y715040D01*
X51663Y714925D01*
X51635Y714808D01*
X51612Y714691D01*
X51592Y714574D01*
X51576Y714455D01*
X51564Y714336D01*
X51556Y714217D01*
X51552Y714098D01*
X51552Y713978D01*
X51556Y713859D01*
X51564Y713740D01*
X51576Y713621D01*
X51592Y713502D01*
X51612Y713385D01*
X51635Y713268D01*
X51663Y713151D01*
X51694Y713036D01*
X51729Y712922D01*
X51768Y712809D01*
X51810Y712697D01*
X51856Y712587D01*
X51906Y712479D01*
X51959Y712372D01*
X52016Y712267D01*
X52076Y712163D01*
X52140Y712062D01*
X52207Y711964D01*
X52277Y711867D01*
X52351Y711773D01*
X52427Y711681D01*
X52507Y711592D01*
X52589Y711505D01*
X52674Y711421D01*
X52762Y711340D01*
X52852Y711263D01*
X52945Y711188D01*
X53041Y711116D01*
X53139Y711047D01*
X53239Y710982D01*
X53341Y710920D01*
X53445Y710861D01*
X53551Y710806D01*
X53659Y710755D01*
X53768Y710707D01*
X53879Y710662D01*
X53991Y710622D01*
X54105Y710585D01*
X54220Y710552D01*
X54335Y710522D01*
X54452Y710497D01*
X54569Y710475D01*
X54688Y710458D01*
X54806Y710444D01*
X54925Y710434D01*
X55045Y710428D01*
X55164Y710426D01*
X51552Y724579D02*
X62389Y724579D01*
X62389Y729997D01*
X60583Y729997D01*
X67808Y743941D02*
X51552Y743941D01*
X51552Y751166D01*
X51552Y759508D02*
X51552Y764023D01*
X51552Y759508D02*
X51554Y759407D01*
X51560Y759306D01*
X51569Y759205D01*
X51582Y759104D01*
X51599Y759004D01*
X51620Y758905D01*
X51644Y758807D01*
X51672Y758710D01*
X51704Y758613D01*
X51739Y758518D01*
X51778Y758425D01*
X51820Y758333D01*
X51866Y758242D01*
X51915Y758154D01*
X51967Y758067D01*
X52023Y757982D01*
X52081Y757899D01*
X52143Y757819D01*
X52208Y757741D01*
X52275Y757665D01*
X52345Y757592D01*
X52418Y757522D01*
X52494Y757455D01*
X52572Y757390D01*
X52652Y757328D01*
X52735Y757270D01*
X52820Y757214D01*
X52907Y757162D01*
X52995Y757113D01*
X53086Y757067D01*
X53178Y757025D01*
X53271Y756986D01*
X53366Y756951D01*
X53463Y756919D01*
X53560Y756891D01*
X53658Y756867D01*
X53757Y756846D01*
X53857Y756829D01*
X53958Y756816D01*
X54059Y756807D01*
X54160Y756801D01*
X54261Y756799D01*
X54261Y756798D02*
X58777Y756798D01*
X58777Y756799D02*
X58896Y756801D01*
X59016Y756807D01*
X59135Y756817D01*
X59253Y756831D01*
X59372Y756848D01*
X59489Y756870D01*
X59606Y756895D01*
X59721Y756925D01*
X59836Y756958D01*
X59950Y756995D01*
X60062Y757035D01*
X60173Y757080D01*
X60282Y757128D01*
X60390Y757179D01*
X60496Y757234D01*
X60600Y757293D01*
X60702Y757355D01*
X60802Y757420D01*
X60900Y757489D01*
X60996Y757561D01*
X61089Y757636D01*
X61179Y757713D01*
X61267Y757794D01*
X61352Y757878D01*
X61434Y757965D01*
X61514Y758054D01*
X61590Y758146D01*
X61664Y758240D01*
X61734Y758337D01*
X61801Y758435D01*
X61865Y758536D01*
X61925Y758640D01*
X61982Y758745D01*
X62035Y758852D01*
X62085Y758960D01*
X62131Y759070D01*
X62173Y759182D01*
X62212Y759295D01*
X62247Y759409D01*
X62278Y759524D01*
X62306Y759641D01*
X62329Y759758D01*
X62349Y759875D01*
X62365Y759994D01*
X62377Y760113D01*
X62385Y760232D01*
X62389Y760351D01*
X62389Y760471D01*
X62385Y760590D01*
X62377Y760709D01*
X62365Y760828D01*
X62349Y760947D01*
X62329Y761064D01*
X62306Y761181D01*
X62278Y761298D01*
X62247Y761413D01*
X62212Y761527D01*
X62173Y761640D01*
X62131Y761752D01*
X62085Y761862D01*
X62035Y761970D01*
X61982Y762077D01*
X61925Y762182D01*
X61865Y762286D01*
X61801Y762387D01*
X61734Y762485D01*
X61664Y762582D01*
X61590Y762676D01*
X61514Y762768D01*
X61434Y762857D01*
X61352Y762944D01*
X61267Y763028D01*
X61179Y763109D01*
X61089Y763186D01*
X60996Y763261D01*
X60900Y763333D01*
X60802Y763402D01*
X60702Y763467D01*
X60600Y763529D01*
X60496Y763588D01*
X60390Y763643D01*
X60282Y763694D01*
X60173Y763742D01*
X60062Y763787D01*
X59950Y763827D01*
X59836Y763864D01*
X59721Y763897D01*
X59606Y763927D01*
X59489Y763952D01*
X59372Y763974D01*
X59253Y763991D01*
X59135Y764005D01*
X59016Y764015D01*
X58896Y764021D01*
X58777Y764023D01*
X56971Y764023D01*
X56971Y756798D01*
X57874Y773433D02*
X57874Y777497D01*
X57874Y773433D02*
X57872Y773321D01*
X57866Y773210D01*
X57856Y773099D01*
X57843Y772988D01*
X57825Y772878D01*
X57803Y772769D01*
X57778Y772660D01*
X57749Y772552D01*
X57716Y772446D01*
X57679Y772340D01*
X57639Y772236D01*
X57595Y772134D01*
X57547Y772033D01*
X57496Y771934D01*
X57441Y771836D01*
X57383Y771741D01*
X57322Y771648D01*
X57257Y771557D01*
X57189Y771468D01*
X57118Y771382D01*
X57045Y771299D01*
X56968Y771218D01*
X56888Y771139D01*
X56806Y771064D01*
X56721Y770992D01*
X56634Y770922D01*
X56544Y770856D01*
X56452Y770793D01*
X56357Y770733D01*
X56261Y770677D01*
X56163Y770624D01*
X56063Y770575D01*
X55961Y770529D01*
X55858Y770487D01*
X55753Y770448D01*
X55647Y770413D01*
X55540Y770382D01*
X55432Y770355D01*
X55323Y770331D01*
X55213Y770312D01*
X55103Y770296D01*
X54992Y770284D01*
X54880Y770276D01*
X54769Y770272D01*
X54657Y770272D01*
X54546Y770276D01*
X54434Y770284D01*
X54323Y770296D01*
X54213Y770312D01*
X54103Y770331D01*
X53994Y770355D01*
X53886Y770382D01*
X53779Y770413D01*
X53673Y770448D01*
X53568Y770487D01*
X53465Y770529D01*
X53363Y770575D01*
X53263Y770624D01*
X53165Y770677D01*
X53069Y770733D01*
X52974Y770793D01*
X52882Y770856D01*
X52792Y770922D01*
X52705Y770992D01*
X52620Y771064D01*
X52538Y771139D01*
X52458Y771218D01*
X52381Y771299D01*
X52308Y771382D01*
X52237Y771468D01*
X52169Y771557D01*
X52104Y771648D01*
X52043Y771741D01*
X51985Y771836D01*
X51930Y771934D01*
X51879Y772033D01*
X51831Y772134D01*
X51787Y772236D01*
X51747Y772340D01*
X51710Y772446D01*
X51677Y772552D01*
X51648Y772660D01*
X51623Y772769D01*
X51601Y772878D01*
X51583Y772988D01*
X51570Y773099D01*
X51560Y773210D01*
X51554Y773321D01*
X51552Y773433D01*
X51552Y777497D01*
X59680Y777497D01*
X59781Y777495D01*
X59882Y777489D01*
X59983Y777480D01*
X60084Y777467D01*
X60184Y777450D01*
X60283Y777429D01*
X60381Y777405D01*
X60478Y777377D01*
X60575Y777345D01*
X60670Y777310D01*
X60763Y777271D01*
X60855Y777229D01*
X60946Y777183D01*
X61035Y777134D01*
X61121Y777082D01*
X61206Y777026D01*
X61289Y776968D01*
X61369Y776906D01*
X61447Y776841D01*
X61523Y776774D01*
X61596Y776704D01*
X61666Y776631D01*
X61733Y776555D01*
X61798Y776477D01*
X61860Y776397D01*
X61918Y776314D01*
X61974Y776229D01*
X62026Y776143D01*
X62075Y776054D01*
X62121Y775963D01*
X62163Y775871D01*
X62202Y775778D01*
X62237Y775683D01*
X62269Y775586D01*
X62297Y775489D01*
X62321Y775391D01*
X62342Y775292D01*
X62359Y775192D01*
X62372Y775091D01*
X62381Y774990D01*
X62387Y774889D01*
X62389Y774788D01*
X62389Y771175D01*
X62389Y784935D02*
X51552Y784935D01*
X62389Y784935D02*
X62389Y789450D01*
X62387Y789551D01*
X62381Y789652D01*
X62372Y789753D01*
X62359Y789854D01*
X62342Y789954D01*
X62321Y790053D01*
X62297Y790151D01*
X62269Y790248D01*
X62237Y790345D01*
X62202Y790440D01*
X62163Y790533D01*
X62121Y790625D01*
X62075Y790716D01*
X62026Y790805D01*
X61974Y790891D01*
X61918Y790976D01*
X61860Y791059D01*
X61798Y791139D01*
X61733Y791217D01*
X61666Y791293D01*
X61596Y791366D01*
X61523Y791436D01*
X61447Y791503D01*
X61369Y791568D01*
X61289Y791630D01*
X61206Y791688D01*
X61121Y791744D01*
X61035Y791796D01*
X60946Y791845D01*
X60855Y791891D01*
X60763Y791933D01*
X60670Y791972D01*
X60575Y792007D01*
X60478Y792039D01*
X60381Y792067D01*
X60283Y792091D01*
X60184Y792112D01*
X60084Y792129D01*
X59983Y792142D01*
X59882Y792151D01*
X59781Y792157D01*
X59680Y792159D01*
X51552Y792159D01*
X51552Y806154D02*
X67808Y806154D01*
X51552Y806154D02*
X51552Y801639D01*
X51554Y801538D01*
X51560Y801437D01*
X51569Y801336D01*
X51582Y801235D01*
X51599Y801135D01*
X51620Y801036D01*
X51644Y800938D01*
X51672Y800841D01*
X51704Y800744D01*
X51739Y800649D01*
X51778Y800556D01*
X51820Y800464D01*
X51866Y800373D01*
X51915Y800285D01*
X51967Y800198D01*
X52023Y800113D01*
X52081Y800030D01*
X52143Y799950D01*
X52208Y799872D01*
X52275Y799796D01*
X52345Y799723D01*
X52418Y799653D01*
X52494Y799586D01*
X52572Y799521D01*
X52652Y799459D01*
X52735Y799401D01*
X52820Y799345D01*
X52907Y799293D01*
X52995Y799244D01*
X53086Y799198D01*
X53178Y799156D01*
X53271Y799117D01*
X53366Y799082D01*
X53463Y799050D01*
X53560Y799022D01*
X53658Y798998D01*
X53757Y798977D01*
X53857Y798960D01*
X53958Y798947D01*
X54059Y798938D01*
X54160Y798932D01*
X54261Y798930D01*
X54261Y798929D02*
X59680Y798929D01*
X59680Y798930D02*
X59781Y798932D01*
X59882Y798938D01*
X59983Y798947D01*
X60084Y798960D01*
X60184Y798977D01*
X60283Y798998D01*
X60381Y799022D01*
X60478Y799050D01*
X60575Y799082D01*
X60670Y799117D01*
X60763Y799156D01*
X60855Y799198D01*
X60946Y799244D01*
X61034Y799293D01*
X61121Y799345D01*
X61206Y799401D01*
X61289Y799459D01*
X61369Y799521D01*
X61447Y799586D01*
X61523Y799653D01*
X61596Y799723D01*
X61666Y799796D01*
X61733Y799872D01*
X61798Y799950D01*
X61860Y800030D01*
X61918Y800113D01*
X61974Y800198D01*
X62026Y800285D01*
X62075Y800373D01*
X62121Y800464D01*
X62163Y800556D01*
X62202Y800649D01*
X62237Y800744D01*
X62269Y800841D01*
X62297Y800938D01*
X62321Y801036D01*
X62342Y801135D01*
X62359Y801235D01*
X62372Y801336D01*
X62381Y801437D01*
X62387Y801538D01*
X62389Y801639D01*
X62389Y806154D01*
X62389Y813677D02*
X51552Y813677D01*
X62389Y813677D02*
X62389Y819095D01*
X60583Y819095D01*
X58777Y824013D02*
X55164Y824013D01*
X58777Y824013D02*
X58896Y824015D01*
X59016Y824021D01*
X59135Y824031D01*
X59253Y824045D01*
X59372Y824062D01*
X59489Y824084D01*
X59606Y824109D01*
X59721Y824139D01*
X59836Y824172D01*
X59950Y824209D01*
X60062Y824249D01*
X60173Y824294D01*
X60282Y824342D01*
X60390Y824393D01*
X60496Y824448D01*
X60600Y824507D01*
X60702Y824569D01*
X60802Y824634D01*
X60900Y824703D01*
X60996Y824775D01*
X61089Y824850D01*
X61179Y824927D01*
X61267Y825008D01*
X61352Y825092D01*
X61434Y825179D01*
X61514Y825268D01*
X61590Y825360D01*
X61664Y825454D01*
X61734Y825551D01*
X61801Y825649D01*
X61865Y825750D01*
X61925Y825854D01*
X61982Y825959D01*
X62035Y826066D01*
X62085Y826174D01*
X62131Y826284D01*
X62173Y826396D01*
X62212Y826509D01*
X62247Y826623D01*
X62278Y826738D01*
X62306Y826855D01*
X62329Y826972D01*
X62349Y827089D01*
X62365Y827208D01*
X62377Y827327D01*
X62385Y827446D01*
X62389Y827565D01*
X62389Y827685D01*
X62385Y827804D01*
X62377Y827923D01*
X62365Y828042D01*
X62349Y828161D01*
X62329Y828278D01*
X62306Y828395D01*
X62278Y828512D01*
X62247Y828627D01*
X62212Y828741D01*
X62173Y828854D01*
X62131Y828966D01*
X62085Y829076D01*
X62035Y829184D01*
X61982Y829291D01*
X61925Y829396D01*
X61865Y829500D01*
X61801Y829601D01*
X61734Y829699D01*
X61664Y829796D01*
X61590Y829890D01*
X61514Y829982D01*
X61434Y830071D01*
X61352Y830158D01*
X61267Y830242D01*
X61179Y830323D01*
X61089Y830400D01*
X60996Y830475D01*
X60900Y830547D01*
X60802Y830616D01*
X60702Y830681D01*
X60600Y830743D01*
X60496Y830802D01*
X60390Y830857D01*
X60282Y830908D01*
X60173Y830956D01*
X60062Y831001D01*
X59950Y831041D01*
X59836Y831078D01*
X59721Y831111D01*
X59606Y831141D01*
X59489Y831166D01*
X59372Y831188D01*
X59253Y831205D01*
X59135Y831219D01*
X59016Y831229D01*
X58896Y831235D01*
X58777Y831237D01*
X58777Y831238D02*
X55164Y831238D01*
X55164Y831237D02*
X55045Y831235D01*
X54925Y831229D01*
X54806Y831219D01*
X54688Y831205D01*
X54569Y831188D01*
X54452Y831166D01*
X54335Y831141D01*
X54220Y831111D01*
X54105Y831078D01*
X53991Y831041D01*
X53879Y831001D01*
X53768Y830956D01*
X53659Y830908D01*
X53551Y830857D01*
X53445Y830802D01*
X53341Y830743D01*
X53239Y830681D01*
X53139Y830616D01*
X53041Y830547D01*
X52945Y830475D01*
X52852Y830400D01*
X52762Y830323D01*
X52674Y830242D01*
X52589Y830158D01*
X52507Y830071D01*
X52427Y829982D01*
X52351Y829890D01*
X52277Y829796D01*
X52207Y829699D01*
X52140Y829601D01*
X52076Y829500D01*
X52016Y829396D01*
X51959Y829291D01*
X51906Y829184D01*
X51856Y829076D01*
X51810Y828966D01*
X51768Y828854D01*
X51729Y828741D01*
X51694Y828627D01*
X51663Y828512D01*
X51635Y828395D01*
X51612Y828278D01*
X51592Y828161D01*
X51576Y828042D01*
X51564Y827923D01*
X51556Y827804D01*
X51552Y827685D01*
X51552Y827565D01*
X51556Y827446D01*
X51564Y827327D01*
X51576Y827208D01*
X51592Y827089D01*
X51612Y826972D01*
X51635Y826855D01*
X51663Y826738D01*
X51694Y826623D01*
X51729Y826509D01*
X51768Y826396D01*
X51810Y826284D01*
X51856Y826174D01*
X51906Y826066D01*
X51959Y825959D01*
X52016Y825854D01*
X52076Y825750D01*
X52140Y825649D01*
X52207Y825551D01*
X52277Y825454D01*
X52351Y825360D01*
X52427Y825268D01*
X52507Y825179D01*
X52589Y825092D01*
X52674Y825008D01*
X52762Y824927D01*
X52852Y824850D01*
X52945Y824775D01*
X53041Y824703D01*
X53139Y824634D01*
X53239Y824569D01*
X53341Y824507D01*
X53445Y824448D01*
X53551Y824393D01*
X53659Y824342D01*
X53768Y824294D01*
X53879Y824249D01*
X53991Y824209D01*
X54105Y824172D01*
X54220Y824139D01*
X54335Y824109D01*
X54452Y824084D01*
X54569Y824062D01*
X54688Y824045D01*
X54806Y824031D01*
X54925Y824021D01*
X55045Y824015D01*
X55164Y824013D01*
X67808Y845514D02*
X67808Y854545D01*
X51552Y845514D01*
X51552Y854545D01*
X57874Y863573D02*
X57874Y867637D01*
X57874Y863573D02*
X57872Y863461D01*
X57866Y863350D01*
X57856Y863239D01*
X57843Y863128D01*
X57825Y863018D01*
X57803Y862909D01*
X57778Y862800D01*
X57749Y862692D01*
X57716Y862586D01*
X57679Y862480D01*
X57639Y862376D01*
X57595Y862274D01*
X57547Y862173D01*
X57496Y862074D01*
X57441Y861976D01*
X57383Y861881D01*
X57322Y861788D01*
X57257Y861697D01*
X57189Y861608D01*
X57118Y861522D01*
X57045Y861439D01*
X56968Y861358D01*
X56888Y861279D01*
X56806Y861204D01*
X56721Y861132D01*
X56634Y861062D01*
X56544Y860996D01*
X56452Y860933D01*
X56357Y860873D01*
X56261Y860817D01*
X56163Y860764D01*
X56063Y860715D01*
X55961Y860669D01*
X55858Y860627D01*
X55753Y860588D01*
X55647Y860553D01*
X55540Y860522D01*
X55432Y860495D01*
X55323Y860471D01*
X55213Y860452D01*
X55103Y860436D01*
X54992Y860424D01*
X54880Y860416D01*
X54769Y860412D01*
X54657Y860412D01*
X54546Y860416D01*
X54434Y860424D01*
X54323Y860436D01*
X54213Y860452D01*
X54103Y860471D01*
X53994Y860495D01*
X53886Y860522D01*
X53779Y860553D01*
X53673Y860588D01*
X53568Y860627D01*
X53465Y860669D01*
X53363Y860715D01*
X53263Y860764D01*
X53165Y860817D01*
X53069Y860873D01*
X52974Y860933D01*
X52882Y860996D01*
X52792Y861062D01*
X52705Y861132D01*
X52620Y861204D01*
X52538Y861279D01*
X52458Y861358D01*
X52381Y861439D01*
X52308Y861522D01*
X52237Y861608D01*
X52169Y861697D01*
X52104Y861788D01*
X52043Y861881D01*
X51985Y861976D01*
X51930Y862074D01*
X51879Y862173D01*
X51831Y862274D01*
X51787Y862376D01*
X51747Y862480D01*
X51710Y862586D01*
X51677Y862692D01*
X51648Y862800D01*
X51623Y862909D01*
X51601Y863018D01*
X51583Y863128D01*
X51570Y863239D01*
X51560Y863350D01*
X51554Y863461D01*
X51552Y863573D01*
X51552Y867637D01*
X59680Y867637D01*
X59781Y867635D01*
X59882Y867629D01*
X59983Y867620D01*
X60084Y867607D01*
X60184Y867590D01*
X60283Y867569D01*
X60381Y867545D01*
X60478Y867517D01*
X60575Y867485D01*
X60670Y867450D01*
X60763Y867411D01*
X60855Y867369D01*
X60946Y867323D01*
X61035Y867274D01*
X61121Y867222D01*
X61206Y867166D01*
X61289Y867108D01*
X61369Y867046D01*
X61447Y866981D01*
X61523Y866914D01*
X61596Y866844D01*
X61666Y866771D01*
X61733Y866695D01*
X61798Y866617D01*
X61860Y866537D01*
X61918Y866454D01*
X61974Y866369D01*
X62026Y866283D01*
X62075Y866194D01*
X62121Y866103D01*
X62163Y866011D01*
X62202Y865918D01*
X62237Y865823D01*
X62269Y865726D01*
X62297Y865629D01*
X62321Y865531D01*
X62342Y865432D01*
X62359Y865332D01*
X62372Y865231D01*
X62381Y865130D01*
X62387Y865029D01*
X62389Y864928D01*
X62389Y861315D01*
X67808Y875148D02*
X51552Y875148D01*
X51552Y879663D01*
X51554Y879767D01*
X51560Y879870D01*
X51570Y879974D01*
X51584Y880077D01*
X51602Y880179D01*
X51623Y880280D01*
X51649Y880381D01*
X51678Y880480D01*
X51711Y880579D01*
X51748Y880676D01*
X51789Y880771D01*
X51833Y880865D01*
X51881Y880957D01*
X51932Y881047D01*
X51987Y881136D01*
X52045Y881222D01*
X52107Y881305D01*
X52171Y881387D01*
X52239Y881465D01*
X52309Y881541D01*
X52382Y881615D01*
X52459Y881685D01*
X52537Y881753D01*
X52619Y881817D01*
X52702Y881879D01*
X52788Y881937D01*
X52877Y881992D01*
X52967Y882043D01*
X53059Y882091D01*
X53153Y882135D01*
X53248Y882176D01*
X53345Y882213D01*
X53444Y882246D01*
X53543Y882275D01*
X53644Y882301D01*
X53745Y882322D01*
X53847Y882340D01*
X53950Y882354D01*
X54054Y882364D01*
X54157Y882370D01*
X54261Y882372D01*
X54261Y882373D02*
X59680Y882373D01*
X59680Y882372D02*
X59781Y882370D01*
X59882Y882364D01*
X59983Y882355D01*
X60084Y882342D01*
X60184Y882325D01*
X60283Y882304D01*
X60381Y882280D01*
X60478Y882252D01*
X60575Y882220D01*
X60670Y882185D01*
X60763Y882146D01*
X60855Y882104D01*
X60946Y882058D01*
X61035Y882009D01*
X61121Y881957D01*
X61206Y881901D01*
X61289Y881843D01*
X61369Y881781D01*
X61447Y881716D01*
X61523Y881649D01*
X61596Y881579D01*
X61666Y881506D01*
X61733Y881430D01*
X61798Y881352D01*
X61860Y881272D01*
X61918Y881189D01*
X61974Y881104D01*
X62026Y881018D01*
X62075Y880929D01*
X62121Y880838D01*
X62163Y880746D01*
X62202Y880653D01*
X62237Y880558D01*
X62269Y880461D01*
X62297Y880364D01*
X62321Y880266D01*
X62342Y880167D01*
X62359Y880067D01*
X62372Y879966D01*
X62381Y879865D01*
X62387Y879764D01*
X62389Y879663D01*
X62389Y875148D01*
X57874Y891709D02*
X57874Y895773D01*
X57874Y891709D02*
X57872Y891597D01*
X57866Y891486D01*
X57856Y891375D01*
X57843Y891264D01*
X57825Y891154D01*
X57803Y891045D01*
X57778Y890936D01*
X57749Y890828D01*
X57716Y890722D01*
X57679Y890616D01*
X57639Y890512D01*
X57595Y890410D01*
X57547Y890309D01*
X57496Y890210D01*
X57441Y890112D01*
X57383Y890017D01*
X57322Y889924D01*
X57257Y889833D01*
X57189Y889744D01*
X57118Y889658D01*
X57045Y889575D01*
X56968Y889494D01*
X56888Y889415D01*
X56806Y889340D01*
X56721Y889268D01*
X56634Y889198D01*
X56544Y889132D01*
X56452Y889069D01*
X56357Y889009D01*
X56261Y888953D01*
X56163Y888900D01*
X56063Y888851D01*
X55961Y888805D01*
X55858Y888763D01*
X55753Y888724D01*
X55647Y888689D01*
X55540Y888658D01*
X55432Y888631D01*
X55323Y888607D01*
X55213Y888588D01*
X55103Y888572D01*
X54992Y888560D01*
X54880Y888552D01*
X54769Y888548D01*
X54657Y888548D01*
X54546Y888552D01*
X54434Y888560D01*
X54323Y888572D01*
X54213Y888588D01*
X54103Y888607D01*
X53994Y888631D01*
X53886Y888658D01*
X53779Y888689D01*
X53673Y888724D01*
X53568Y888763D01*
X53465Y888805D01*
X53363Y888851D01*
X53263Y888900D01*
X53165Y888953D01*
X53069Y889009D01*
X52974Y889069D01*
X52882Y889132D01*
X52792Y889198D01*
X52705Y889268D01*
X52620Y889340D01*
X52538Y889415D01*
X52458Y889494D01*
X52381Y889575D01*
X52308Y889658D01*
X52237Y889744D01*
X52169Y889833D01*
X52104Y889924D01*
X52043Y890017D01*
X51985Y890112D01*
X51930Y890210D01*
X51879Y890309D01*
X51831Y890410D01*
X51787Y890512D01*
X51747Y890616D01*
X51710Y890722D01*
X51677Y890828D01*
X51648Y890936D01*
X51623Y891045D01*
X51601Y891154D01*
X51583Y891264D01*
X51570Y891375D01*
X51560Y891486D01*
X51554Y891597D01*
X51552Y891709D01*
X51552Y895773D01*
X59680Y895773D01*
X59781Y895771D01*
X59882Y895765D01*
X59983Y895756D01*
X60084Y895743D01*
X60184Y895726D01*
X60283Y895705D01*
X60381Y895681D01*
X60478Y895653D01*
X60575Y895621D01*
X60670Y895586D01*
X60763Y895547D01*
X60855Y895505D01*
X60946Y895459D01*
X61035Y895410D01*
X61121Y895358D01*
X61206Y895302D01*
X61289Y895244D01*
X61369Y895182D01*
X61447Y895117D01*
X61523Y895050D01*
X61596Y894980D01*
X61666Y894907D01*
X61733Y894831D01*
X61798Y894753D01*
X61860Y894673D01*
X61918Y894590D01*
X61974Y894505D01*
X62026Y894419D01*
X62075Y894330D01*
X62121Y894239D01*
X62163Y894147D01*
X62202Y894054D01*
X62237Y893959D01*
X62269Y893862D01*
X62297Y893765D01*
X62321Y893667D01*
X62342Y893568D01*
X62359Y893468D01*
X62372Y893367D01*
X62381Y893266D01*
X62387Y893165D01*
X62389Y893064D01*
X62389Y889451D01*
X67808Y902927D02*
X54261Y902927D01*
X54160Y902929D01*
X54059Y902935D01*
X53958Y902944D01*
X53857Y902957D01*
X53757Y902974D01*
X53658Y902995D01*
X53560Y903019D01*
X53463Y903047D01*
X53366Y903079D01*
X53271Y903114D01*
X53178Y903153D01*
X53086Y903195D01*
X52995Y903241D01*
X52907Y903290D01*
X52820Y903342D01*
X52735Y903398D01*
X52652Y903456D01*
X52572Y903518D01*
X52494Y903583D01*
X52418Y903650D01*
X52345Y903720D01*
X52275Y903793D01*
X52208Y903869D01*
X52143Y903947D01*
X52081Y904027D01*
X52023Y904110D01*
X51967Y904195D01*
X51915Y904282D01*
X51866Y904370D01*
X51820Y904461D01*
X51778Y904553D01*
X51739Y904646D01*
X51704Y904741D01*
X51672Y904838D01*
X51644Y904935D01*
X51620Y905033D01*
X51599Y905132D01*
X51582Y905232D01*
X51569Y905333D01*
X51560Y905434D01*
X51554Y905535D01*
X51552Y905636D01*
X57874Y914114D02*
X57874Y918178D01*
X57874Y914114D02*
X57872Y914002D01*
X57866Y913891D01*
X57856Y913780D01*
X57843Y913669D01*
X57825Y913559D01*
X57803Y913450D01*
X57778Y913341D01*
X57749Y913233D01*
X57716Y913127D01*
X57679Y913021D01*
X57639Y912917D01*
X57595Y912815D01*
X57547Y912714D01*
X57496Y912615D01*
X57441Y912517D01*
X57383Y912422D01*
X57322Y912329D01*
X57257Y912238D01*
X57189Y912149D01*
X57118Y912063D01*
X57045Y911980D01*
X56968Y911899D01*
X56888Y911820D01*
X56806Y911745D01*
X56721Y911673D01*
X56634Y911603D01*
X56544Y911537D01*
X56452Y911474D01*
X56357Y911414D01*
X56261Y911358D01*
X56163Y911305D01*
X56063Y911256D01*
X55961Y911210D01*
X55858Y911168D01*
X55753Y911129D01*
X55647Y911094D01*
X55540Y911063D01*
X55432Y911036D01*
X55323Y911012D01*
X55213Y910993D01*
X55103Y910977D01*
X54992Y910965D01*
X54880Y910957D01*
X54769Y910953D01*
X54657Y910953D01*
X54546Y910957D01*
X54434Y910965D01*
X54323Y910977D01*
X54213Y910993D01*
X54103Y911012D01*
X53994Y911036D01*
X53886Y911063D01*
X53779Y911094D01*
X53673Y911129D01*
X53568Y911168D01*
X53465Y911210D01*
X53363Y911256D01*
X53263Y911305D01*
X53165Y911358D01*
X53069Y911414D01*
X52974Y911474D01*
X52882Y911537D01*
X52792Y911603D01*
X52705Y911673D01*
X52620Y911745D01*
X52538Y911820D01*
X52458Y911899D01*
X52381Y911980D01*
X52308Y912063D01*
X52237Y912149D01*
X52169Y912238D01*
X52104Y912329D01*
X52043Y912422D01*
X51985Y912517D01*
X51930Y912615D01*
X51879Y912714D01*
X51831Y912815D01*
X51787Y912917D01*
X51747Y913021D01*
X51710Y913127D01*
X51677Y913233D01*
X51648Y913341D01*
X51623Y913450D01*
X51601Y913559D01*
X51583Y913669D01*
X51570Y913780D01*
X51560Y913891D01*
X51554Y914002D01*
X51552Y914114D01*
X51552Y918178D01*
X59680Y918178D01*
X59781Y918176D01*
X59882Y918170D01*
X59983Y918161D01*
X60084Y918148D01*
X60184Y918131D01*
X60283Y918110D01*
X60381Y918086D01*
X60478Y918058D01*
X60575Y918026D01*
X60670Y917991D01*
X60763Y917952D01*
X60855Y917910D01*
X60946Y917864D01*
X61035Y917815D01*
X61121Y917763D01*
X61206Y917707D01*
X61289Y917649D01*
X61369Y917587D01*
X61447Y917522D01*
X61523Y917455D01*
X61596Y917385D01*
X61666Y917312D01*
X61733Y917236D01*
X61798Y917158D01*
X61860Y917078D01*
X61918Y916995D01*
X61974Y916910D01*
X62026Y916824D01*
X62075Y916735D01*
X62121Y916644D01*
X62163Y916552D01*
X62202Y916459D01*
X62237Y916364D01*
X62269Y916267D01*
X62297Y916170D01*
X62321Y916072D01*
X62342Y915973D01*
X62359Y915873D01*
X62372Y915772D01*
X62381Y915671D01*
X62387Y915570D01*
X62389Y915469D01*
X62389Y911856D01*
X945625Y527808D02*
X942012Y511552D01*
X938400Y522389D01*
X934788Y511552D01*
X931175Y527808D01*
X922252Y517874D02*
X918188Y517874D01*
X922252Y517874D02*
X922364Y517872D01*
X922475Y517866D01*
X922586Y517856D01*
X922697Y517843D01*
X922807Y517825D01*
X922916Y517803D01*
X923025Y517778D01*
X923133Y517749D01*
X923239Y517716D01*
X923345Y517679D01*
X923449Y517639D01*
X923551Y517595D01*
X923652Y517547D01*
X923751Y517496D01*
X923849Y517441D01*
X923944Y517383D01*
X924037Y517322D01*
X924128Y517257D01*
X924217Y517189D01*
X924303Y517118D01*
X924386Y517045D01*
X924467Y516968D01*
X924546Y516888D01*
X924621Y516806D01*
X924693Y516721D01*
X924763Y516634D01*
X924829Y516544D01*
X924892Y516452D01*
X924952Y516357D01*
X925008Y516261D01*
X925061Y516163D01*
X925110Y516063D01*
X925156Y515961D01*
X925198Y515858D01*
X925237Y515753D01*
X925272Y515647D01*
X925303Y515540D01*
X925330Y515432D01*
X925354Y515323D01*
X925373Y515213D01*
X925389Y515103D01*
X925401Y514992D01*
X925409Y514880D01*
X925413Y514769D01*
X925413Y514657D01*
X925409Y514546D01*
X925401Y514434D01*
X925389Y514323D01*
X925373Y514213D01*
X925354Y514103D01*
X925330Y513994D01*
X925303Y513886D01*
X925272Y513779D01*
X925237Y513673D01*
X925198Y513568D01*
X925156Y513465D01*
X925110Y513363D01*
X925061Y513263D01*
X925008Y513165D01*
X924952Y513069D01*
X924892Y512974D01*
X924829Y512882D01*
X924763Y512792D01*
X924693Y512705D01*
X924621Y512620D01*
X924546Y512538D01*
X924467Y512458D01*
X924386Y512381D01*
X924303Y512308D01*
X924217Y512237D01*
X924128Y512169D01*
X924037Y512104D01*
X923944Y512043D01*
X923849Y511985D01*
X923751Y511930D01*
X923652Y511879D01*
X923551Y511831D01*
X923449Y511787D01*
X923345Y511747D01*
X923239Y511710D01*
X923133Y511677D01*
X923025Y511648D01*
X922916Y511623D01*
X922807Y511601D01*
X922697Y511583D01*
X922586Y511570D01*
X922475Y511560D01*
X922364Y511554D01*
X922252Y511552D01*
X918188Y511552D01*
X918188Y519680D01*
X918190Y519781D01*
X918196Y519882D01*
X918205Y519983D01*
X918218Y520084D01*
X918235Y520184D01*
X918256Y520283D01*
X918280Y520381D01*
X918308Y520478D01*
X918340Y520575D01*
X918375Y520670D01*
X918414Y520763D01*
X918456Y520855D01*
X918502Y520946D01*
X918551Y521035D01*
X918603Y521121D01*
X918659Y521206D01*
X918717Y521289D01*
X918779Y521369D01*
X918844Y521447D01*
X918911Y521523D01*
X918981Y521596D01*
X919054Y521666D01*
X919130Y521733D01*
X919208Y521798D01*
X919288Y521860D01*
X919371Y521918D01*
X919456Y521974D01*
X919543Y522026D01*
X919631Y522075D01*
X919722Y522121D01*
X919814Y522163D01*
X919907Y522202D01*
X920002Y522237D01*
X920099Y522269D01*
X920196Y522297D01*
X920294Y522321D01*
X920393Y522342D01*
X920493Y522359D01*
X920594Y522372D01*
X920695Y522381D01*
X920796Y522387D01*
X920897Y522389D01*
X924509Y522389D01*
X911792Y506133D02*
X909986Y506133D01*
X904567Y522389D01*
X911792Y522389D02*
X908180Y511552D01*
X895640Y511552D02*
X899252Y527808D01*
X892027Y522389D02*
X895640Y511552D01*
X888415Y511552D02*
X892027Y522389D01*
X884803Y527808D02*
X888415Y511552D01*
X875879Y517874D02*
X871815Y517874D01*
X875879Y517874D02*
X875991Y517872D01*
X876102Y517866D01*
X876213Y517856D01*
X876324Y517843D01*
X876434Y517825D01*
X876543Y517803D01*
X876652Y517778D01*
X876760Y517749D01*
X876866Y517716D01*
X876972Y517679D01*
X877076Y517639D01*
X877178Y517595D01*
X877279Y517547D01*
X877378Y517496D01*
X877476Y517441D01*
X877571Y517383D01*
X877664Y517322D01*
X877755Y517257D01*
X877844Y517189D01*
X877930Y517118D01*
X878013Y517045D01*
X878094Y516968D01*
X878173Y516888D01*
X878248Y516806D01*
X878320Y516721D01*
X878390Y516634D01*
X878456Y516544D01*
X878519Y516452D01*
X878579Y516357D01*
X878635Y516261D01*
X878688Y516163D01*
X878737Y516063D01*
X878783Y515961D01*
X878825Y515858D01*
X878864Y515753D01*
X878899Y515647D01*
X878930Y515540D01*
X878957Y515432D01*
X878981Y515323D01*
X879000Y515213D01*
X879016Y515103D01*
X879028Y514992D01*
X879036Y514880D01*
X879040Y514769D01*
X879040Y514657D01*
X879036Y514546D01*
X879028Y514434D01*
X879016Y514323D01*
X879000Y514213D01*
X878981Y514103D01*
X878957Y513994D01*
X878930Y513886D01*
X878899Y513779D01*
X878864Y513673D01*
X878825Y513568D01*
X878783Y513465D01*
X878737Y513363D01*
X878688Y513263D01*
X878635Y513165D01*
X878579Y513069D01*
X878519Y512974D01*
X878456Y512882D01*
X878390Y512792D01*
X878320Y512705D01*
X878248Y512620D01*
X878173Y512538D01*
X878094Y512458D01*
X878013Y512381D01*
X877930Y512308D01*
X877844Y512237D01*
X877755Y512169D01*
X877664Y512104D01*
X877571Y512043D01*
X877476Y511985D01*
X877378Y511930D01*
X877279Y511879D01*
X877178Y511831D01*
X877076Y511787D01*
X876972Y511747D01*
X876866Y511710D01*
X876760Y511677D01*
X876652Y511648D01*
X876543Y511623D01*
X876434Y511601D01*
X876324Y511583D01*
X876213Y511570D01*
X876102Y511560D01*
X875991Y511554D01*
X875879Y511552D01*
X871815Y511552D01*
X871815Y519680D01*
X871817Y519781D01*
X871823Y519882D01*
X871832Y519983D01*
X871845Y520084D01*
X871862Y520184D01*
X871883Y520283D01*
X871907Y520381D01*
X871935Y520478D01*
X871967Y520575D01*
X872002Y520670D01*
X872041Y520763D01*
X872083Y520855D01*
X872129Y520946D01*
X872178Y521035D01*
X872230Y521121D01*
X872286Y521206D01*
X872344Y521289D01*
X872406Y521369D01*
X872471Y521447D01*
X872538Y521523D01*
X872608Y521596D01*
X872681Y521666D01*
X872757Y521733D01*
X872835Y521798D01*
X872915Y521860D01*
X872998Y521918D01*
X873083Y521974D01*
X873170Y522026D01*
X873258Y522075D01*
X873349Y522121D01*
X873441Y522163D01*
X873534Y522202D01*
X873629Y522237D01*
X873726Y522269D01*
X873823Y522297D01*
X873921Y522321D01*
X874020Y522342D01*
X874120Y522359D01*
X874221Y522372D01*
X874322Y522381D01*
X874423Y522387D01*
X874524Y522389D01*
X878137Y522389D01*
X865419Y506133D02*
X863613Y506133D01*
X858195Y522389D01*
X865419Y522389D02*
X861807Y511552D01*
X849267Y511552D02*
X852880Y527808D01*
X845655Y522389D02*
X849267Y511552D01*
X842042Y511552D02*
X845655Y522389D01*
X838430Y527808D02*
X842042Y511552D01*
X829506Y517874D02*
X825442Y517874D01*
X829506Y517874D02*
X829618Y517872D01*
X829729Y517866D01*
X829840Y517856D01*
X829951Y517843D01*
X830061Y517825D01*
X830170Y517803D01*
X830279Y517778D01*
X830387Y517749D01*
X830493Y517716D01*
X830599Y517679D01*
X830703Y517639D01*
X830805Y517595D01*
X830906Y517547D01*
X831005Y517496D01*
X831103Y517441D01*
X831198Y517383D01*
X831291Y517322D01*
X831382Y517257D01*
X831471Y517189D01*
X831557Y517118D01*
X831640Y517045D01*
X831721Y516968D01*
X831800Y516888D01*
X831875Y516806D01*
X831947Y516721D01*
X832017Y516634D01*
X832083Y516544D01*
X832146Y516452D01*
X832206Y516357D01*
X832262Y516261D01*
X832315Y516163D01*
X832364Y516063D01*
X832410Y515961D01*
X832452Y515858D01*
X832491Y515753D01*
X832526Y515647D01*
X832557Y515540D01*
X832584Y515432D01*
X832608Y515323D01*
X832627Y515213D01*
X832643Y515103D01*
X832655Y514992D01*
X832663Y514880D01*
X832667Y514769D01*
X832667Y514657D01*
X832663Y514546D01*
X832655Y514434D01*
X832643Y514323D01*
X832627Y514213D01*
X832608Y514103D01*
X832584Y513994D01*
X832557Y513886D01*
X832526Y513779D01*
X832491Y513673D01*
X832452Y513568D01*
X832410Y513465D01*
X832364Y513363D01*
X832315Y513263D01*
X832262Y513165D01*
X832206Y513069D01*
X832146Y512974D01*
X832083Y512882D01*
X832017Y512792D01*
X831947Y512705D01*
X831875Y512620D01*
X831800Y512538D01*
X831721Y512458D01*
X831640Y512381D01*
X831557Y512308D01*
X831471Y512237D01*
X831382Y512169D01*
X831291Y512104D01*
X831198Y512043D01*
X831103Y511985D01*
X831005Y511930D01*
X830906Y511879D01*
X830805Y511831D01*
X830703Y511787D01*
X830599Y511747D01*
X830493Y511710D01*
X830387Y511677D01*
X830279Y511648D01*
X830170Y511623D01*
X830061Y511601D01*
X829951Y511583D01*
X829840Y511570D01*
X829729Y511560D01*
X829618Y511554D01*
X829506Y511552D01*
X825442Y511552D01*
X825442Y519680D01*
X825443Y519680D02*
X825445Y519781D01*
X825451Y519882D01*
X825460Y519983D01*
X825473Y520084D01*
X825490Y520184D01*
X825511Y520283D01*
X825535Y520381D01*
X825563Y520478D01*
X825595Y520575D01*
X825630Y520670D01*
X825669Y520763D01*
X825711Y520855D01*
X825757Y520946D01*
X825806Y521035D01*
X825858Y521121D01*
X825914Y521206D01*
X825972Y521289D01*
X826034Y521369D01*
X826099Y521447D01*
X826166Y521523D01*
X826236Y521596D01*
X826309Y521666D01*
X826385Y521733D01*
X826463Y521798D01*
X826543Y521860D01*
X826626Y521918D01*
X826711Y521974D01*
X826798Y522026D01*
X826886Y522075D01*
X826977Y522121D01*
X827069Y522163D01*
X827162Y522202D01*
X827257Y522237D01*
X827354Y522269D01*
X827451Y522297D01*
X827549Y522321D01*
X827648Y522342D01*
X827748Y522359D01*
X827849Y522372D01*
X827950Y522381D01*
X828051Y522387D01*
X828152Y522389D01*
X831764Y522389D01*
X819047Y506133D02*
X817241Y506133D01*
X811822Y522389D01*
X819047Y522389D02*
X815434Y511552D01*
D11*
X166000Y226000D02*
X134000Y226000D01*
X134000Y254000D02*
X166000Y254000D01*
D12*
X98692Y245842D02*
X98692Y234158D01*
X98692Y245842D02*
X95446Y245842D01*
X95333Y245840D01*
X95220Y245834D01*
X95107Y245824D01*
X94994Y245810D01*
X94882Y245793D01*
X94771Y245771D01*
X94661Y245746D01*
X94551Y245716D01*
X94443Y245683D01*
X94336Y245646D01*
X94230Y245606D01*
X94126Y245561D01*
X94023Y245513D01*
X93922Y245462D01*
X93823Y245407D01*
X93726Y245349D01*
X93631Y245287D01*
X93538Y245222D01*
X93448Y245154D01*
X93360Y245083D01*
X93274Y245008D01*
X93191Y244931D01*
X93111Y244851D01*
X93034Y244768D01*
X92959Y244682D01*
X92888Y244594D01*
X92820Y244504D01*
X92755Y244411D01*
X92693Y244316D01*
X92635Y244219D01*
X92580Y244120D01*
X92529Y244019D01*
X92481Y243916D01*
X92436Y243812D01*
X92396Y243706D01*
X92359Y243599D01*
X92326Y243491D01*
X92296Y243381D01*
X92271Y243271D01*
X92249Y243160D01*
X92232Y243048D01*
X92218Y242935D01*
X92208Y242822D01*
X92202Y242709D01*
X92200Y242596D01*
X92201Y242596D02*
X92201Y237404D01*
X92200Y237404D02*
X92202Y237291D01*
X92208Y237178D01*
X92218Y237065D01*
X92232Y236952D01*
X92249Y236840D01*
X92271Y236729D01*
X92296Y236619D01*
X92326Y236509D01*
X92359Y236401D01*
X92396Y236294D01*
X92436Y236188D01*
X92481Y236084D01*
X92529Y235981D01*
X92580Y235880D01*
X92635Y235781D01*
X92693Y235684D01*
X92755Y235589D01*
X92820Y235496D01*
X92888Y235406D01*
X92959Y235318D01*
X93034Y235232D01*
X93111Y235149D01*
X93191Y235069D01*
X93274Y234992D01*
X93360Y234917D01*
X93448Y234846D01*
X93538Y234778D01*
X93631Y234713D01*
X93726Y234651D01*
X93823Y234593D01*
X93922Y234538D01*
X94023Y234487D01*
X94126Y234439D01*
X94230Y234394D01*
X94336Y234354D01*
X94443Y234317D01*
X94551Y234284D01*
X94661Y234254D01*
X94771Y234229D01*
X94882Y234207D01*
X94994Y234190D01*
X95107Y234176D01*
X95220Y234166D01*
X95333Y234160D01*
X95446Y234158D01*
X98692Y234158D01*
X86881Y236754D02*
X84285Y245842D01*
X86881Y236754D02*
X80390Y236754D01*
X82337Y239351D02*
X82337Y234158D01*
D11*
X474900Y297500D02*
X474900Y302500D01*
X474900Y332500D01*
X474900Y337500D01*
X474900Y332500D02*
X472400Y332500D01*
X472400Y302500D01*
X474900Y302500D01*
X459700Y340000D02*
X437400Y340000D01*
X437400Y332500D01*
X437400Y302500D02*
X437400Y295000D01*
X459700Y295000D01*
D12*
X426692Y325228D02*
X417604Y325228D01*
X417604Y325227D02*
X417505Y325225D01*
X417405Y325219D01*
X417306Y325210D01*
X417208Y325197D01*
X417110Y325180D01*
X417012Y325159D01*
X416916Y325134D01*
X416821Y325106D01*
X416727Y325074D01*
X416634Y325039D01*
X416542Y325000D01*
X416452Y324957D01*
X416364Y324912D01*
X416277Y324862D01*
X416193Y324810D01*
X416110Y324754D01*
X416030Y324696D01*
X415952Y324634D01*
X415877Y324569D01*
X415804Y324501D01*
X415734Y324431D01*
X415666Y324358D01*
X415601Y324283D01*
X415539Y324205D01*
X415481Y324125D01*
X415425Y324042D01*
X415373Y323958D01*
X415323Y323871D01*
X415278Y323783D01*
X415235Y323693D01*
X415196Y323601D01*
X415161Y323508D01*
X415129Y323414D01*
X415101Y323319D01*
X415076Y323223D01*
X415055Y323125D01*
X415038Y323027D01*
X415025Y322929D01*
X415016Y322830D01*
X415010Y322730D01*
X415008Y322631D01*
X415008Y321333D01*
X424096Y330501D02*
X426692Y333746D01*
X415008Y333746D01*
X415008Y330501D02*
X415008Y336992D01*
D11*
X285600Y338350D02*
X285600Y329850D01*
X285600Y338350D02*
X295600Y338350D01*
X285600Y317850D02*
X285600Y309350D01*
X295600Y309350D01*
X298600Y320850D02*
X298600Y326850D01*
D13*
X300284Y348432D02*
X300284Y352608D01*
X300282Y352709D01*
X300276Y352810D01*
X300266Y352911D01*
X300253Y353011D01*
X300235Y353111D01*
X300214Y353210D01*
X300188Y353308D01*
X300159Y353405D01*
X300127Y353501D01*
X300090Y353595D01*
X300050Y353688D01*
X300006Y353780D01*
X299959Y353869D01*
X299908Y353957D01*
X299854Y354043D01*
X299797Y354126D01*
X299737Y354208D01*
X299673Y354286D01*
X299607Y354363D01*
X299537Y354436D01*
X299465Y354507D01*
X299390Y354575D01*
X299312Y354640D01*
X299232Y354702D01*
X299150Y354761D01*
X299065Y354817D01*
X298979Y354869D01*
X298890Y354918D01*
X298799Y354964D01*
X298707Y355005D01*
X298613Y355044D01*
X298518Y355078D01*
X298422Y355109D01*
X298324Y355136D01*
X298226Y355160D01*
X298126Y355179D01*
X298026Y355195D01*
X297926Y355207D01*
X297825Y355215D01*
X297724Y355219D01*
X297622Y355219D01*
X297521Y355215D01*
X297420Y355207D01*
X297320Y355195D01*
X297220Y355179D01*
X297120Y355160D01*
X297022Y355136D01*
X296924Y355109D01*
X296828Y355078D01*
X296733Y355044D01*
X296639Y355005D01*
X296547Y354964D01*
X296456Y354918D01*
X296368Y354869D01*
X296281Y354817D01*
X296196Y354761D01*
X296114Y354702D01*
X296034Y354640D01*
X295956Y354575D01*
X295881Y354507D01*
X295809Y354436D01*
X295739Y354363D01*
X295673Y354286D01*
X295609Y354208D01*
X295549Y354126D01*
X295492Y354043D01*
X295438Y353957D01*
X295387Y353869D01*
X295340Y353780D01*
X295296Y353688D01*
X295256Y353595D01*
X295219Y353501D01*
X295187Y353405D01*
X295158Y353308D01*
X295132Y353210D01*
X295111Y353111D01*
X295093Y353011D01*
X295080Y352911D01*
X295070Y352810D01*
X295064Y352709D01*
X295062Y352608D01*
X295063Y352608D02*
X295063Y348432D01*
X295062Y348432D02*
X295064Y348331D01*
X295070Y348230D01*
X295080Y348129D01*
X295093Y348029D01*
X295111Y347929D01*
X295132Y347830D01*
X295158Y347732D01*
X295187Y347635D01*
X295219Y347539D01*
X295256Y347445D01*
X295296Y347352D01*
X295340Y347260D01*
X295387Y347171D01*
X295438Y347083D01*
X295492Y346997D01*
X295549Y346914D01*
X295609Y346832D01*
X295673Y346754D01*
X295739Y346677D01*
X295809Y346604D01*
X295881Y346533D01*
X295956Y346465D01*
X296034Y346400D01*
X296114Y346338D01*
X296196Y346279D01*
X296281Y346223D01*
X296368Y346171D01*
X296456Y346122D01*
X296547Y346076D01*
X296639Y346035D01*
X296733Y345996D01*
X296828Y345962D01*
X296924Y345931D01*
X297022Y345904D01*
X297120Y345880D01*
X297220Y345861D01*
X297320Y345845D01*
X297420Y345833D01*
X297521Y345825D01*
X297622Y345821D01*
X297724Y345821D01*
X297825Y345825D01*
X297926Y345833D01*
X298026Y345845D01*
X298126Y345861D01*
X298226Y345880D01*
X298324Y345904D01*
X298422Y345931D01*
X298518Y345962D01*
X298613Y345996D01*
X298707Y346035D01*
X298799Y346076D01*
X298890Y346122D01*
X298978Y346171D01*
X299065Y346223D01*
X299150Y346279D01*
X299232Y346338D01*
X299312Y346400D01*
X299390Y346465D01*
X299465Y346533D01*
X299537Y346604D01*
X299607Y346677D01*
X299673Y346754D01*
X299737Y346832D01*
X299797Y346914D01*
X299854Y346997D01*
X299908Y347083D01*
X299959Y347171D01*
X300006Y347260D01*
X300050Y347352D01*
X300090Y347445D01*
X300127Y347539D01*
X300159Y347635D01*
X300188Y347732D01*
X300214Y347830D01*
X300235Y347929D01*
X300253Y348029D01*
X300266Y348129D01*
X300276Y348230D01*
X300282Y348331D01*
X300284Y348432D01*
X296107Y347909D02*
X294019Y345821D01*
X286131Y352870D02*
X286133Y352965D01*
X286139Y353059D01*
X286148Y353153D01*
X286161Y353247D01*
X286178Y353340D01*
X286199Y353432D01*
X286224Y353524D01*
X286252Y353614D01*
X286284Y353703D01*
X286319Y353791D01*
X286358Y353877D01*
X286400Y353962D01*
X286446Y354045D01*
X286495Y354126D01*
X286547Y354205D01*
X286602Y354282D01*
X286661Y354356D01*
X286722Y354428D01*
X286786Y354498D01*
X286853Y354565D01*
X286923Y354629D01*
X286995Y354690D01*
X287069Y354749D01*
X287146Y354804D01*
X287225Y354856D01*
X287306Y354905D01*
X287389Y354951D01*
X287474Y354993D01*
X287560Y355032D01*
X287648Y355067D01*
X287737Y355099D01*
X287827Y355127D01*
X287919Y355152D01*
X288011Y355173D01*
X288104Y355190D01*
X288198Y355203D01*
X288292Y355212D01*
X288386Y355218D01*
X288481Y355220D01*
X288481Y355219D02*
X288589Y355217D01*
X288698Y355211D01*
X288806Y355201D01*
X288913Y355188D01*
X289020Y355170D01*
X289127Y355149D01*
X289232Y355124D01*
X289337Y355095D01*
X289440Y355063D01*
X289542Y355026D01*
X289643Y354986D01*
X289742Y354943D01*
X289840Y354896D01*
X289936Y354845D01*
X290030Y354791D01*
X290122Y354734D01*
X290212Y354673D01*
X290300Y354609D01*
X290385Y354543D01*
X290468Y354473D01*
X290548Y354400D01*
X290626Y354324D01*
X290701Y354246D01*
X290773Y354165D01*
X290842Y354081D01*
X290908Y353995D01*
X290971Y353907D01*
X291030Y353816D01*
X291087Y353724D01*
X291140Y353629D01*
X291189Y353532D01*
X291235Y353434D01*
X291278Y353335D01*
X291317Y353233D01*
X291352Y353131D01*
X286914Y351042D02*
X286845Y351111D01*
X286779Y351182D01*
X286715Y351255D01*
X286654Y351331D01*
X286596Y351410D01*
X286542Y351490D01*
X286490Y351573D01*
X286442Y351657D01*
X286396Y351743D01*
X286355Y351831D01*
X286316Y351921D01*
X286281Y352012D01*
X286250Y352104D01*
X286222Y352197D01*
X286198Y352291D01*
X286178Y352386D01*
X286161Y352482D01*
X286148Y352579D01*
X286139Y352676D01*
X286133Y352773D01*
X286131Y352870D01*
X286914Y351042D02*
X291352Y345821D01*
X286131Y345821D01*
D11*
X285600Y412400D02*
X285600Y420900D01*
X295600Y420900D01*
X285600Y400400D02*
X285600Y391900D01*
X295600Y391900D01*
X298600Y403400D02*
X298600Y409400D01*
D13*
X300284Y430982D02*
X300284Y435158D01*
X300282Y435259D01*
X300276Y435360D01*
X300266Y435461D01*
X300253Y435561D01*
X300235Y435661D01*
X300214Y435760D01*
X300188Y435858D01*
X300159Y435955D01*
X300127Y436051D01*
X300090Y436145D01*
X300050Y436238D01*
X300006Y436330D01*
X299959Y436419D01*
X299908Y436507D01*
X299854Y436593D01*
X299797Y436676D01*
X299737Y436758D01*
X299673Y436836D01*
X299607Y436913D01*
X299537Y436986D01*
X299465Y437057D01*
X299390Y437125D01*
X299312Y437190D01*
X299232Y437252D01*
X299150Y437311D01*
X299065Y437367D01*
X298979Y437419D01*
X298890Y437468D01*
X298799Y437514D01*
X298707Y437555D01*
X298613Y437594D01*
X298518Y437628D01*
X298422Y437659D01*
X298324Y437686D01*
X298226Y437710D01*
X298126Y437729D01*
X298026Y437745D01*
X297926Y437757D01*
X297825Y437765D01*
X297724Y437769D01*
X297622Y437769D01*
X297521Y437765D01*
X297420Y437757D01*
X297320Y437745D01*
X297220Y437729D01*
X297120Y437710D01*
X297022Y437686D01*
X296924Y437659D01*
X296828Y437628D01*
X296733Y437594D01*
X296639Y437555D01*
X296547Y437514D01*
X296456Y437468D01*
X296368Y437419D01*
X296281Y437367D01*
X296196Y437311D01*
X296114Y437252D01*
X296034Y437190D01*
X295956Y437125D01*
X295881Y437057D01*
X295809Y436986D01*
X295739Y436913D01*
X295673Y436836D01*
X295609Y436758D01*
X295549Y436676D01*
X295492Y436593D01*
X295438Y436507D01*
X295387Y436419D01*
X295340Y436330D01*
X295296Y436238D01*
X295256Y436145D01*
X295219Y436051D01*
X295187Y435955D01*
X295158Y435858D01*
X295132Y435760D01*
X295111Y435661D01*
X295093Y435561D01*
X295080Y435461D01*
X295070Y435360D01*
X295064Y435259D01*
X295062Y435158D01*
X295063Y435158D02*
X295063Y430982D01*
X295062Y430982D02*
X295064Y430881D01*
X295070Y430780D01*
X295080Y430679D01*
X295093Y430579D01*
X295111Y430479D01*
X295132Y430380D01*
X295158Y430282D01*
X295187Y430185D01*
X295219Y430089D01*
X295256Y429995D01*
X295296Y429902D01*
X295340Y429810D01*
X295387Y429721D01*
X295438Y429633D01*
X295492Y429547D01*
X295549Y429464D01*
X295609Y429382D01*
X295673Y429304D01*
X295739Y429227D01*
X295809Y429154D01*
X295881Y429083D01*
X295956Y429015D01*
X296034Y428950D01*
X296114Y428888D01*
X296196Y428829D01*
X296281Y428773D01*
X296368Y428721D01*
X296456Y428672D01*
X296547Y428626D01*
X296639Y428585D01*
X296733Y428546D01*
X296828Y428512D01*
X296924Y428481D01*
X297022Y428454D01*
X297120Y428430D01*
X297220Y428411D01*
X297320Y428395D01*
X297420Y428383D01*
X297521Y428375D01*
X297622Y428371D01*
X297724Y428371D01*
X297825Y428375D01*
X297926Y428383D01*
X298026Y428395D01*
X298126Y428411D01*
X298226Y428430D01*
X298324Y428454D01*
X298422Y428481D01*
X298518Y428512D01*
X298613Y428546D01*
X298707Y428585D01*
X298799Y428626D01*
X298890Y428672D01*
X298978Y428721D01*
X299065Y428773D01*
X299150Y428829D01*
X299232Y428888D01*
X299312Y428950D01*
X299390Y429015D01*
X299465Y429083D01*
X299537Y429154D01*
X299607Y429227D01*
X299673Y429304D01*
X299737Y429382D01*
X299797Y429464D01*
X299854Y429547D01*
X299908Y429633D01*
X299959Y429721D01*
X300006Y429810D01*
X300050Y429902D01*
X300090Y429995D01*
X300127Y430089D01*
X300159Y430185D01*
X300188Y430282D01*
X300214Y430380D01*
X300235Y430479D01*
X300253Y430579D01*
X300266Y430679D01*
X300276Y430780D01*
X300282Y430881D01*
X300284Y430982D01*
X296107Y430459D02*
X294019Y428371D01*
X291352Y428371D02*
X288742Y428371D01*
X288641Y428373D01*
X288540Y428379D01*
X288439Y428389D01*
X288339Y428402D01*
X288239Y428420D01*
X288140Y428441D01*
X288042Y428467D01*
X287945Y428496D01*
X287849Y428528D01*
X287755Y428565D01*
X287662Y428605D01*
X287570Y428649D01*
X287481Y428696D01*
X287393Y428747D01*
X287307Y428801D01*
X287224Y428858D01*
X287142Y428918D01*
X287064Y428982D01*
X286987Y429048D01*
X286914Y429118D01*
X286843Y429190D01*
X286775Y429265D01*
X286710Y429343D01*
X286648Y429423D01*
X286589Y429505D01*
X286533Y429590D01*
X286481Y429677D01*
X286432Y429765D01*
X286386Y429856D01*
X286345Y429948D01*
X286306Y430042D01*
X286272Y430137D01*
X286241Y430233D01*
X286214Y430331D01*
X286190Y430429D01*
X286171Y430529D01*
X286155Y430629D01*
X286143Y430729D01*
X286135Y430830D01*
X286131Y430931D01*
X286131Y431033D01*
X286135Y431134D01*
X286143Y431235D01*
X286155Y431335D01*
X286171Y431435D01*
X286190Y431535D01*
X286214Y431633D01*
X286241Y431731D01*
X286272Y431827D01*
X286306Y431922D01*
X286345Y432016D01*
X286386Y432108D01*
X286432Y432199D01*
X286481Y432288D01*
X286533Y432374D01*
X286589Y432459D01*
X286648Y432541D01*
X286710Y432621D01*
X286775Y432699D01*
X286843Y432774D01*
X286914Y432846D01*
X286987Y432916D01*
X287064Y432982D01*
X287142Y433046D01*
X287224Y433106D01*
X287307Y433163D01*
X287393Y433217D01*
X287481Y433268D01*
X287570Y433315D01*
X287662Y433359D01*
X287755Y433399D01*
X287849Y433436D01*
X287945Y433468D01*
X288042Y433497D01*
X288140Y433523D01*
X288239Y433544D01*
X288339Y433562D01*
X288439Y433575D01*
X288540Y433585D01*
X288641Y433591D01*
X288742Y433593D01*
X288219Y437769D02*
X291352Y437769D01*
X288219Y437769D02*
X288129Y437767D01*
X288040Y437761D01*
X287950Y437752D01*
X287861Y437738D01*
X287773Y437721D01*
X287686Y437700D01*
X287599Y437675D01*
X287514Y437646D01*
X287430Y437614D01*
X287348Y437579D01*
X287267Y437539D01*
X287188Y437497D01*
X287111Y437451D01*
X287036Y437401D01*
X286963Y437349D01*
X286892Y437293D01*
X286824Y437235D01*
X286759Y437173D01*
X286696Y437109D01*
X286636Y437042D01*
X286579Y436973D01*
X286525Y436901D01*
X286474Y436827D01*
X286426Y436751D01*
X286382Y436673D01*
X286341Y436593D01*
X286303Y436511D01*
X286269Y436428D01*
X286239Y436343D01*
X286212Y436257D01*
X286189Y436171D01*
X286170Y436083D01*
X286155Y435994D01*
X286143Y435905D01*
X286135Y435816D01*
X286131Y435726D01*
X286131Y435636D01*
X286135Y435546D01*
X286143Y435457D01*
X286155Y435368D01*
X286170Y435279D01*
X286189Y435191D01*
X286212Y435105D01*
X286239Y435019D01*
X286269Y434934D01*
X286303Y434851D01*
X286341Y434769D01*
X286382Y434689D01*
X286426Y434611D01*
X286474Y434535D01*
X286525Y434461D01*
X286579Y434389D01*
X286636Y434320D01*
X286696Y434253D01*
X286759Y434189D01*
X286824Y434127D01*
X286892Y434069D01*
X286963Y434013D01*
X287036Y433961D01*
X287111Y433911D01*
X287188Y433865D01*
X287267Y433823D01*
X287348Y433783D01*
X287430Y433748D01*
X287514Y433716D01*
X287599Y433687D01*
X287686Y433662D01*
X287773Y433641D01*
X287861Y433624D01*
X287950Y433610D01*
X288040Y433601D01*
X288129Y433595D01*
X288219Y433593D01*
X288219Y433592D02*
X290308Y433592D01*
D11*
X285600Y255800D02*
X285600Y247300D01*
X285600Y255800D02*
X295600Y255800D01*
X285600Y235300D02*
X285600Y226800D01*
X295600Y226800D01*
X298600Y238300D02*
X298600Y244300D01*
D13*
X300284Y265882D02*
X300284Y270058D01*
X300282Y270159D01*
X300276Y270260D01*
X300266Y270361D01*
X300253Y270461D01*
X300235Y270561D01*
X300214Y270660D01*
X300188Y270758D01*
X300159Y270855D01*
X300127Y270951D01*
X300090Y271045D01*
X300050Y271138D01*
X300006Y271230D01*
X299959Y271319D01*
X299908Y271407D01*
X299854Y271493D01*
X299797Y271576D01*
X299737Y271658D01*
X299673Y271736D01*
X299607Y271813D01*
X299537Y271886D01*
X299465Y271957D01*
X299390Y272025D01*
X299312Y272090D01*
X299232Y272152D01*
X299150Y272211D01*
X299065Y272267D01*
X298979Y272319D01*
X298890Y272368D01*
X298799Y272414D01*
X298707Y272455D01*
X298613Y272494D01*
X298518Y272528D01*
X298422Y272559D01*
X298324Y272586D01*
X298226Y272610D01*
X298126Y272629D01*
X298026Y272645D01*
X297926Y272657D01*
X297825Y272665D01*
X297724Y272669D01*
X297622Y272669D01*
X297521Y272665D01*
X297420Y272657D01*
X297320Y272645D01*
X297220Y272629D01*
X297120Y272610D01*
X297022Y272586D01*
X296924Y272559D01*
X296828Y272528D01*
X296733Y272494D01*
X296639Y272455D01*
X296547Y272414D01*
X296456Y272368D01*
X296368Y272319D01*
X296281Y272267D01*
X296196Y272211D01*
X296114Y272152D01*
X296034Y272090D01*
X295956Y272025D01*
X295881Y271957D01*
X295809Y271886D01*
X295739Y271813D01*
X295673Y271736D01*
X295609Y271658D01*
X295549Y271576D01*
X295492Y271493D01*
X295438Y271407D01*
X295387Y271319D01*
X295340Y271230D01*
X295296Y271138D01*
X295256Y271045D01*
X295219Y270951D01*
X295187Y270855D01*
X295158Y270758D01*
X295132Y270660D01*
X295111Y270561D01*
X295093Y270461D01*
X295080Y270361D01*
X295070Y270260D01*
X295064Y270159D01*
X295062Y270058D01*
X295063Y270058D02*
X295063Y265882D01*
X295062Y265882D02*
X295064Y265781D01*
X295070Y265680D01*
X295080Y265579D01*
X295093Y265479D01*
X295111Y265379D01*
X295132Y265280D01*
X295158Y265182D01*
X295187Y265085D01*
X295219Y264989D01*
X295256Y264895D01*
X295296Y264802D01*
X295340Y264710D01*
X295387Y264621D01*
X295438Y264533D01*
X295492Y264447D01*
X295549Y264364D01*
X295609Y264282D01*
X295673Y264204D01*
X295739Y264127D01*
X295809Y264054D01*
X295881Y263983D01*
X295956Y263915D01*
X296034Y263850D01*
X296114Y263788D01*
X296196Y263729D01*
X296281Y263673D01*
X296368Y263621D01*
X296456Y263572D01*
X296547Y263526D01*
X296639Y263485D01*
X296733Y263446D01*
X296828Y263412D01*
X296924Y263381D01*
X297022Y263354D01*
X297120Y263330D01*
X297220Y263311D01*
X297320Y263295D01*
X297420Y263283D01*
X297521Y263275D01*
X297622Y263271D01*
X297724Y263271D01*
X297825Y263275D01*
X297926Y263283D01*
X298026Y263295D01*
X298126Y263311D01*
X298226Y263330D01*
X298324Y263354D01*
X298422Y263381D01*
X298518Y263412D01*
X298613Y263446D01*
X298707Y263485D01*
X298799Y263526D01*
X298890Y263572D01*
X298978Y263621D01*
X299065Y263673D01*
X299150Y263729D01*
X299232Y263788D01*
X299312Y263850D01*
X299390Y263915D01*
X299465Y263983D01*
X299537Y264054D01*
X299607Y264127D01*
X299673Y264204D01*
X299737Y264282D01*
X299797Y264364D01*
X299854Y264447D01*
X299908Y264533D01*
X299959Y264621D01*
X300006Y264710D01*
X300050Y264802D01*
X300090Y264895D01*
X300127Y264989D01*
X300159Y265085D01*
X300188Y265182D01*
X300214Y265280D01*
X300235Y265379D01*
X300253Y265479D01*
X300266Y265579D01*
X300276Y265680D01*
X300282Y265781D01*
X300284Y265882D01*
X296107Y265359D02*
X294019Y263271D01*
X291352Y270581D02*
X288742Y272669D01*
X288742Y263271D01*
X291352Y263271D02*
X286131Y263271D01*
D11*
X313690Y321310D02*
X321310Y321310D01*
X313690Y321310D02*
X313690Y326390D01*
X321310Y326390D01*
X321310Y321310D01*
D13*
X322199Y292566D02*
X312801Y292566D01*
X322199Y292566D02*
X322199Y295177D01*
X322197Y295278D01*
X322191Y295379D01*
X322181Y295480D01*
X322168Y295580D01*
X322150Y295680D01*
X322129Y295779D01*
X322103Y295877D01*
X322074Y295974D01*
X322042Y296070D01*
X322005Y296164D01*
X321965Y296257D01*
X321921Y296349D01*
X321874Y296438D01*
X321823Y296526D01*
X321769Y296612D01*
X321712Y296695D01*
X321652Y296777D01*
X321588Y296855D01*
X321522Y296932D01*
X321452Y297005D01*
X321380Y297076D01*
X321305Y297144D01*
X321227Y297209D01*
X321147Y297271D01*
X321065Y297330D01*
X320980Y297386D01*
X320894Y297438D01*
X320805Y297487D01*
X320714Y297533D01*
X320622Y297574D01*
X320528Y297613D01*
X320433Y297647D01*
X320337Y297678D01*
X320239Y297705D01*
X320141Y297729D01*
X320041Y297748D01*
X319941Y297764D01*
X319841Y297776D01*
X319740Y297784D01*
X319639Y297788D01*
X319537Y297788D01*
X319436Y297784D01*
X319335Y297776D01*
X319235Y297764D01*
X319135Y297748D01*
X319035Y297729D01*
X318937Y297705D01*
X318839Y297678D01*
X318743Y297647D01*
X318648Y297613D01*
X318554Y297574D01*
X318462Y297533D01*
X318371Y297487D01*
X318283Y297438D01*
X318196Y297386D01*
X318111Y297330D01*
X318029Y297271D01*
X317949Y297209D01*
X317871Y297144D01*
X317796Y297076D01*
X317724Y297005D01*
X317654Y296932D01*
X317588Y296855D01*
X317524Y296777D01*
X317464Y296695D01*
X317407Y296612D01*
X317353Y296526D01*
X317302Y296438D01*
X317255Y296349D01*
X317211Y296257D01*
X317171Y296164D01*
X317134Y296070D01*
X317102Y295974D01*
X317073Y295877D01*
X317047Y295779D01*
X317026Y295680D01*
X317008Y295580D01*
X316995Y295480D01*
X316985Y295379D01*
X316979Y295278D01*
X316977Y295177D01*
X316978Y295177D02*
X316978Y292566D01*
X316978Y295699D02*
X312801Y297787D01*
X312801Y301653D02*
X312801Y304786D01*
X312803Y304875D01*
X312809Y304963D01*
X312818Y305051D01*
X312831Y305139D01*
X312848Y305226D01*
X312868Y305312D01*
X312893Y305397D01*
X312920Y305482D01*
X312952Y305565D01*
X312986Y305646D01*
X313025Y305726D01*
X313066Y305804D01*
X313111Y305881D01*
X313159Y305955D01*
X313210Y306028D01*
X313264Y306098D01*
X313322Y306165D01*
X313382Y306231D01*
X313444Y306293D01*
X313510Y306353D01*
X313577Y306411D01*
X313647Y306465D01*
X313720Y306516D01*
X313794Y306564D01*
X313871Y306609D01*
X313949Y306650D01*
X314029Y306689D01*
X314110Y306723D01*
X314193Y306755D01*
X314278Y306782D01*
X314363Y306807D01*
X314449Y306827D01*
X314536Y306844D01*
X314624Y306857D01*
X314712Y306866D01*
X314800Y306872D01*
X314889Y306874D01*
X315934Y306874D01*
X316023Y306872D01*
X316111Y306866D01*
X316199Y306857D01*
X316287Y306844D01*
X316374Y306827D01*
X316460Y306807D01*
X316545Y306782D01*
X316630Y306755D01*
X316713Y306723D01*
X316794Y306689D01*
X316874Y306650D01*
X316952Y306609D01*
X317029Y306564D01*
X317103Y306516D01*
X317176Y306465D01*
X317246Y306411D01*
X317313Y306353D01*
X317379Y306293D01*
X317441Y306231D01*
X317501Y306165D01*
X317559Y306098D01*
X317613Y306028D01*
X317664Y305955D01*
X317712Y305881D01*
X317757Y305804D01*
X317798Y305726D01*
X317837Y305646D01*
X317871Y305565D01*
X317903Y305482D01*
X317930Y305397D01*
X317955Y305312D01*
X317975Y305226D01*
X317992Y305139D01*
X318005Y305051D01*
X318014Y304963D01*
X318020Y304875D01*
X318022Y304786D01*
X318022Y301653D01*
X322199Y301653D01*
X322199Y306874D01*
D11*
X353060Y326390D02*
X353060Y334010D01*
X358140Y334010D01*
X358140Y326390D01*
X353060Y326390D01*
D13*
X362754Y317119D02*
X362754Y307721D01*
X362754Y317119D02*
X360143Y317119D01*
X360042Y317117D01*
X359941Y317111D01*
X359840Y317101D01*
X359740Y317088D01*
X359640Y317070D01*
X359541Y317049D01*
X359443Y317023D01*
X359346Y316994D01*
X359250Y316962D01*
X359156Y316925D01*
X359063Y316885D01*
X358971Y316841D01*
X358882Y316794D01*
X358794Y316743D01*
X358708Y316689D01*
X358625Y316632D01*
X358543Y316572D01*
X358465Y316508D01*
X358388Y316442D01*
X358315Y316372D01*
X358244Y316300D01*
X358176Y316225D01*
X358111Y316147D01*
X358049Y316067D01*
X357990Y315985D01*
X357934Y315900D01*
X357882Y315814D01*
X357833Y315725D01*
X357787Y315634D01*
X357746Y315542D01*
X357707Y315448D01*
X357673Y315353D01*
X357642Y315257D01*
X357615Y315159D01*
X357591Y315061D01*
X357572Y314961D01*
X357556Y314861D01*
X357544Y314761D01*
X357536Y314660D01*
X357532Y314559D01*
X357532Y314457D01*
X357536Y314356D01*
X357544Y314255D01*
X357556Y314155D01*
X357572Y314055D01*
X357591Y313955D01*
X357615Y313857D01*
X357642Y313759D01*
X357673Y313663D01*
X357707Y313568D01*
X357746Y313474D01*
X357787Y313382D01*
X357833Y313291D01*
X357882Y313203D01*
X357934Y313116D01*
X357990Y313031D01*
X358049Y312949D01*
X358111Y312869D01*
X358176Y312791D01*
X358244Y312716D01*
X358315Y312644D01*
X358388Y312574D01*
X358465Y312508D01*
X358543Y312444D01*
X358625Y312384D01*
X358708Y312327D01*
X358794Y312273D01*
X358882Y312222D01*
X358971Y312175D01*
X359063Y312131D01*
X359156Y312091D01*
X359250Y312054D01*
X359346Y312022D01*
X359443Y311993D01*
X359541Y311967D01*
X359640Y311946D01*
X359740Y311928D01*
X359840Y311915D01*
X359941Y311905D01*
X360042Y311899D01*
X360143Y311897D01*
X360143Y311898D02*
X362754Y311898D01*
X359621Y311898D02*
X357533Y307721D01*
X353667Y309809D02*
X351579Y317119D01*
X353667Y309809D02*
X348446Y309809D01*
X350012Y311898D02*
X350012Y307721D01*
D11*
X321310Y238760D02*
X313690Y238760D01*
X313690Y243840D01*
X321310Y243840D01*
X321310Y238760D01*
D13*
X322199Y210016D02*
X312801Y210016D01*
X322199Y210016D02*
X322199Y212627D01*
X322197Y212728D01*
X322191Y212829D01*
X322181Y212930D01*
X322168Y213030D01*
X322150Y213130D01*
X322129Y213229D01*
X322103Y213327D01*
X322074Y213424D01*
X322042Y213520D01*
X322005Y213614D01*
X321965Y213707D01*
X321921Y213799D01*
X321874Y213888D01*
X321823Y213976D01*
X321769Y214062D01*
X321712Y214145D01*
X321652Y214227D01*
X321588Y214305D01*
X321522Y214382D01*
X321452Y214455D01*
X321380Y214526D01*
X321305Y214594D01*
X321227Y214659D01*
X321147Y214721D01*
X321065Y214780D01*
X320980Y214836D01*
X320894Y214888D01*
X320805Y214937D01*
X320714Y214983D01*
X320622Y215024D01*
X320528Y215063D01*
X320433Y215097D01*
X320337Y215128D01*
X320239Y215155D01*
X320141Y215179D01*
X320041Y215198D01*
X319941Y215214D01*
X319841Y215226D01*
X319740Y215234D01*
X319639Y215238D01*
X319537Y215238D01*
X319436Y215234D01*
X319335Y215226D01*
X319235Y215214D01*
X319135Y215198D01*
X319035Y215179D01*
X318937Y215155D01*
X318839Y215128D01*
X318743Y215097D01*
X318648Y215063D01*
X318554Y215024D01*
X318462Y214983D01*
X318371Y214937D01*
X318283Y214888D01*
X318196Y214836D01*
X318111Y214780D01*
X318029Y214721D01*
X317949Y214659D01*
X317871Y214594D01*
X317796Y214526D01*
X317724Y214455D01*
X317654Y214382D01*
X317588Y214305D01*
X317524Y214227D01*
X317464Y214145D01*
X317407Y214062D01*
X317353Y213976D01*
X317302Y213888D01*
X317255Y213799D01*
X317211Y213707D01*
X317171Y213614D01*
X317134Y213520D01*
X317102Y213424D01*
X317073Y213327D01*
X317047Y213229D01*
X317026Y213130D01*
X317008Y213030D01*
X316995Y212930D01*
X316985Y212829D01*
X316979Y212728D01*
X316977Y212627D01*
X316978Y212627D02*
X316978Y210016D01*
X316978Y213149D02*
X312801Y215237D01*
X319850Y224325D02*
X319945Y224323D01*
X320039Y224317D01*
X320133Y224308D01*
X320227Y224295D01*
X320320Y224278D01*
X320412Y224257D01*
X320504Y224232D01*
X320594Y224204D01*
X320683Y224172D01*
X320771Y224137D01*
X320857Y224098D01*
X320942Y224056D01*
X321025Y224010D01*
X321106Y223961D01*
X321185Y223909D01*
X321262Y223854D01*
X321336Y223795D01*
X321408Y223734D01*
X321478Y223670D01*
X321545Y223603D01*
X321609Y223533D01*
X321670Y223461D01*
X321729Y223387D01*
X321784Y223310D01*
X321836Y223231D01*
X321885Y223150D01*
X321931Y223067D01*
X321973Y222982D01*
X322012Y222896D01*
X322047Y222808D01*
X322079Y222719D01*
X322107Y222629D01*
X322132Y222537D01*
X322153Y222445D01*
X322170Y222352D01*
X322183Y222258D01*
X322192Y222164D01*
X322198Y222070D01*
X322200Y221975D01*
X322199Y221975D02*
X322197Y221867D01*
X322191Y221758D01*
X322181Y221650D01*
X322168Y221543D01*
X322150Y221436D01*
X322129Y221329D01*
X322104Y221224D01*
X322075Y221119D01*
X322043Y221016D01*
X322006Y220914D01*
X321966Y220813D01*
X321923Y220714D01*
X321876Y220616D01*
X321825Y220520D01*
X321771Y220426D01*
X321714Y220334D01*
X321653Y220244D01*
X321589Y220156D01*
X321523Y220071D01*
X321453Y219988D01*
X321380Y219908D01*
X321304Y219830D01*
X321226Y219755D01*
X321145Y219683D01*
X321061Y219614D01*
X320975Y219548D01*
X320887Y219485D01*
X320796Y219426D01*
X320704Y219369D01*
X320609Y219316D01*
X320513Y219267D01*
X320414Y219221D01*
X320315Y219178D01*
X320213Y219139D01*
X320111Y219104D01*
X318022Y223541D02*
X318091Y223610D01*
X318162Y223676D01*
X318235Y223740D01*
X318311Y223801D01*
X318390Y223859D01*
X318470Y223913D01*
X318553Y223965D01*
X318637Y224013D01*
X318723Y224059D01*
X318811Y224100D01*
X318901Y224139D01*
X318992Y224174D01*
X319084Y224205D01*
X319177Y224233D01*
X319271Y224257D01*
X319366Y224277D01*
X319462Y224294D01*
X319559Y224307D01*
X319656Y224316D01*
X319753Y224322D01*
X319850Y224324D01*
X318022Y223541D02*
X312801Y219103D01*
X312801Y224324D01*
D11*
X353060Y243840D02*
X353060Y251460D01*
X358140Y251460D01*
X358140Y243840D01*
X353060Y243840D01*
D13*
X362754Y234569D02*
X362754Y225171D01*
X362754Y234569D02*
X360143Y234569D01*
X360042Y234567D01*
X359941Y234561D01*
X359840Y234551D01*
X359740Y234538D01*
X359640Y234520D01*
X359541Y234499D01*
X359443Y234473D01*
X359346Y234444D01*
X359250Y234412D01*
X359156Y234375D01*
X359063Y234335D01*
X358971Y234291D01*
X358882Y234244D01*
X358794Y234193D01*
X358708Y234139D01*
X358625Y234082D01*
X358543Y234022D01*
X358465Y233958D01*
X358388Y233892D01*
X358315Y233822D01*
X358244Y233750D01*
X358176Y233675D01*
X358111Y233597D01*
X358049Y233517D01*
X357990Y233435D01*
X357934Y233350D01*
X357882Y233264D01*
X357833Y233175D01*
X357787Y233084D01*
X357746Y232992D01*
X357707Y232898D01*
X357673Y232803D01*
X357642Y232707D01*
X357615Y232609D01*
X357591Y232511D01*
X357572Y232411D01*
X357556Y232311D01*
X357544Y232211D01*
X357536Y232110D01*
X357532Y232009D01*
X357532Y231907D01*
X357536Y231806D01*
X357544Y231705D01*
X357556Y231605D01*
X357572Y231505D01*
X357591Y231405D01*
X357615Y231307D01*
X357642Y231209D01*
X357673Y231113D01*
X357707Y231018D01*
X357746Y230924D01*
X357787Y230832D01*
X357833Y230741D01*
X357882Y230653D01*
X357934Y230566D01*
X357990Y230481D01*
X358049Y230399D01*
X358111Y230319D01*
X358176Y230241D01*
X358244Y230166D01*
X358315Y230094D01*
X358388Y230024D01*
X358465Y229958D01*
X358543Y229894D01*
X358625Y229834D01*
X358708Y229777D01*
X358794Y229723D01*
X358882Y229672D01*
X358971Y229625D01*
X359063Y229581D01*
X359156Y229541D01*
X359250Y229504D01*
X359346Y229472D01*
X359443Y229443D01*
X359541Y229417D01*
X359640Y229396D01*
X359740Y229378D01*
X359840Y229365D01*
X359941Y229355D01*
X360042Y229349D01*
X360143Y229347D01*
X360143Y229348D02*
X362754Y229348D01*
X359621Y229348D02*
X357533Y225171D01*
X353667Y232481D02*
X351057Y234569D01*
X351057Y225171D01*
X353667Y225171D02*
X348446Y225171D01*
D11*
X321310Y403860D02*
X313690Y403860D01*
X313690Y408940D01*
X321310Y408940D01*
X321310Y403860D01*
D13*
X322199Y375116D02*
X312801Y375116D01*
X322199Y375116D02*
X322199Y377727D01*
X322197Y377828D01*
X322191Y377929D01*
X322181Y378030D01*
X322168Y378130D01*
X322150Y378230D01*
X322129Y378329D01*
X322103Y378427D01*
X322074Y378524D01*
X322042Y378620D01*
X322005Y378714D01*
X321965Y378807D01*
X321921Y378899D01*
X321874Y378988D01*
X321823Y379076D01*
X321769Y379162D01*
X321712Y379245D01*
X321652Y379327D01*
X321588Y379405D01*
X321522Y379482D01*
X321452Y379555D01*
X321380Y379626D01*
X321305Y379694D01*
X321227Y379759D01*
X321147Y379821D01*
X321065Y379880D01*
X320980Y379936D01*
X320894Y379988D01*
X320805Y380037D01*
X320714Y380083D01*
X320622Y380124D01*
X320528Y380163D01*
X320433Y380197D01*
X320337Y380228D01*
X320239Y380255D01*
X320141Y380279D01*
X320041Y380298D01*
X319941Y380314D01*
X319841Y380326D01*
X319740Y380334D01*
X319639Y380338D01*
X319537Y380338D01*
X319436Y380334D01*
X319335Y380326D01*
X319235Y380314D01*
X319135Y380298D01*
X319035Y380279D01*
X318937Y380255D01*
X318839Y380228D01*
X318743Y380197D01*
X318648Y380163D01*
X318554Y380124D01*
X318462Y380083D01*
X318371Y380037D01*
X318283Y379988D01*
X318196Y379936D01*
X318111Y379880D01*
X318029Y379821D01*
X317949Y379759D01*
X317871Y379694D01*
X317796Y379626D01*
X317724Y379555D01*
X317654Y379482D01*
X317588Y379405D01*
X317524Y379327D01*
X317464Y379245D01*
X317407Y379162D01*
X317353Y379076D01*
X317302Y378988D01*
X317255Y378899D01*
X317211Y378807D01*
X317171Y378714D01*
X317134Y378620D01*
X317102Y378524D01*
X317073Y378427D01*
X317047Y378329D01*
X317026Y378230D01*
X317008Y378130D01*
X316995Y378030D01*
X316985Y377929D01*
X316979Y377828D01*
X316977Y377727D01*
X316978Y377727D02*
X316978Y375116D01*
X316978Y378249D02*
X312801Y380337D01*
X315412Y384202D02*
X315513Y384204D01*
X315614Y384210D01*
X315715Y384220D01*
X315815Y384233D01*
X315915Y384251D01*
X316014Y384272D01*
X316112Y384298D01*
X316209Y384327D01*
X316305Y384359D01*
X316399Y384396D01*
X316492Y384436D01*
X316584Y384480D01*
X316673Y384527D01*
X316761Y384578D01*
X316847Y384632D01*
X316930Y384689D01*
X317012Y384749D01*
X317090Y384813D01*
X317167Y384879D01*
X317240Y384949D01*
X317311Y385021D01*
X317379Y385096D01*
X317444Y385174D01*
X317506Y385254D01*
X317565Y385336D01*
X317621Y385421D01*
X317673Y385508D01*
X317722Y385596D01*
X317768Y385687D01*
X317809Y385779D01*
X317848Y385873D01*
X317882Y385968D01*
X317913Y386064D01*
X317940Y386162D01*
X317964Y386260D01*
X317983Y386360D01*
X317999Y386460D01*
X318011Y386560D01*
X318019Y386661D01*
X318023Y386762D01*
X318023Y386864D01*
X318019Y386965D01*
X318011Y387066D01*
X317999Y387166D01*
X317983Y387266D01*
X317964Y387366D01*
X317940Y387464D01*
X317913Y387562D01*
X317882Y387658D01*
X317848Y387753D01*
X317809Y387847D01*
X317768Y387939D01*
X317722Y388030D01*
X317673Y388118D01*
X317621Y388205D01*
X317565Y388290D01*
X317506Y388372D01*
X317444Y388452D01*
X317379Y388530D01*
X317311Y388605D01*
X317240Y388677D01*
X317167Y388747D01*
X317090Y388813D01*
X317012Y388877D01*
X316930Y388937D01*
X316847Y388994D01*
X316761Y389048D01*
X316673Y389099D01*
X316584Y389146D01*
X316492Y389190D01*
X316399Y389230D01*
X316305Y389267D01*
X316209Y389299D01*
X316112Y389328D01*
X316014Y389354D01*
X315915Y389375D01*
X315815Y389393D01*
X315715Y389406D01*
X315614Y389416D01*
X315513Y389422D01*
X315412Y389424D01*
X315311Y389422D01*
X315210Y389416D01*
X315109Y389406D01*
X315009Y389393D01*
X314909Y389375D01*
X314810Y389354D01*
X314712Y389328D01*
X314615Y389299D01*
X314519Y389267D01*
X314425Y389230D01*
X314332Y389190D01*
X314240Y389146D01*
X314151Y389099D01*
X314063Y389048D01*
X313977Y388994D01*
X313894Y388937D01*
X313812Y388877D01*
X313734Y388813D01*
X313657Y388747D01*
X313584Y388677D01*
X313513Y388605D01*
X313445Y388530D01*
X313380Y388452D01*
X313318Y388372D01*
X313259Y388290D01*
X313203Y388205D01*
X313151Y388119D01*
X313102Y388030D01*
X313056Y387939D01*
X313015Y387847D01*
X312976Y387753D01*
X312942Y387658D01*
X312911Y387562D01*
X312884Y387464D01*
X312860Y387366D01*
X312841Y387266D01*
X312825Y387166D01*
X312813Y387066D01*
X312805Y386965D01*
X312801Y386864D01*
X312801Y386762D01*
X312805Y386661D01*
X312813Y386560D01*
X312825Y386460D01*
X312841Y386360D01*
X312860Y386260D01*
X312884Y386162D01*
X312911Y386064D01*
X312942Y385968D01*
X312976Y385873D01*
X313015Y385779D01*
X313056Y385687D01*
X313102Y385596D01*
X313151Y385508D01*
X313203Y385421D01*
X313259Y385336D01*
X313318Y385254D01*
X313380Y385174D01*
X313445Y385096D01*
X313513Y385021D01*
X313584Y384949D01*
X313657Y384879D01*
X313734Y384813D01*
X313812Y384749D01*
X313894Y384689D01*
X313977Y384632D01*
X314063Y384578D01*
X314151Y384527D01*
X314240Y384480D01*
X314332Y384436D01*
X314425Y384396D01*
X314519Y384359D01*
X314615Y384327D01*
X314712Y384298D01*
X314810Y384272D01*
X314909Y384251D01*
X315009Y384233D01*
X315109Y384220D01*
X315210Y384210D01*
X315311Y384204D01*
X315412Y384202D01*
X320111Y384725D02*
X320201Y384727D01*
X320290Y384733D01*
X320380Y384742D01*
X320469Y384756D01*
X320557Y384773D01*
X320644Y384794D01*
X320731Y384819D01*
X320816Y384848D01*
X320900Y384880D01*
X320982Y384915D01*
X321063Y384955D01*
X321142Y384997D01*
X321219Y385043D01*
X321294Y385093D01*
X321367Y385145D01*
X321438Y385201D01*
X321506Y385259D01*
X321571Y385321D01*
X321634Y385385D01*
X321694Y385452D01*
X321751Y385521D01*
X321805Y385593D01*
X321856Y385667D01*
X321904Y385743D01*
X321948Y385821D01*
X321989Y385901D01*
X322027Y385983D01*
X322061Y386066D01*
X322091Y386151D01*
X322118Y386237D01*
X322141Y386323D01*
X322160Y386411D01*
X322175Y386500D01*
X322187Y386589D01*
X322195Y386678D01*
X322199Y386768D01*
X322199Y386858D01*
X322195Y386948D01*
X322187Y387037D01*
X322175Y387126D01*
X322160Y387215D01*
X322141Y387303D01*
X322118Y387389D01*
X322091Y387475D01*
X322061Y387560D01*
X322027Y387643D01*
X321989Y387725D01*
X321948Y387805D01*
X321904Y387883D01*
X321856Y387959D01*
X321805Y388033D01*
X321751Y388105D01*
X321694Y388174D01*
X321634Y388241D01*
X321571Y388305D01*
X321506Y388367D01*
X321438Y388425D01*
X321367Y388481D01*
X321294Y388533D01*
X321219Y388583D01*
X321142Y388629D01*
X321063Y388671D01*
X320982Y388711D01*
X320900Y388746D01*
X320816Y388778D01*
X320731Y388807D01*
X320644Y388832D01*
X320557Y388853D01*
X320469Y388870D01*
X320380Y388884D01*
X320290Y388893D01*
X320201Y388899D01*
X320111Y388901D01*
X320021Y388899D01*
X319932Y388893D01*
X319842Y388884D01*
X319753Y388870D01*
X319665Y388853D01*
X319578Y388832D01*
X319491Y388807D01*
X319406Y388778D01*
X319322Y388746D01*
X319240Y388711D01*
X319159Y388671D01*
X319080Y388629D01*
X319003Y388583D01*
X318928Y388533D01*
X318855Y388481D01*
X318784Y388425D01*
X318716Y388367D01*
X318651Y388305D01*
X318588Y388241D01*
X318528Y388174D01*
X318471Y388105D01*
X318417Y388033D01*
X318366Y387959D01*
X318318Y387883D01*
X318274Y387805D01*
X318233Y387725D01*
X318195Y387643D01*
X318161Y387560D01*
X318131Y387475D01*
X318104Y387389D01*
X318081Y387303D01*
X318062Y387215D01*
X318047Y387126D01*
X318035Y387037D01*
X318027Y386948D01*
X318023Y386858D01*
X318023Y386768D01*
X318027Y386678D01*
X318035Y386589D01*
X318047Y386500D01*
X318062Y386411D01*
X318081Y386323D01*
X318104Y386237D01*
X318131Y386151D01*
X318161Y386066D01*
X318195Y385983D01*
X318233Y385901D01*
X318274Y385821D01*
X318318Y385743D01*
X318366Y385667D01*
X318417Y385593D01*
X318471Y385521D01*
X318528Y385452D01*
X318588Y385385D01*
X318651Y385321D01*
X318716Y385259D01*
X318784Y385201D01*
X318855Y385145D01*
X318928Y385093D01*
X319003Y385043D01*
X319080Y384997D01*
X319159Y384955D01*
X319240Y384915D01*
X319322Y384880D01*
X319406Y384848D01*
X319491Y384819D01*
X319578Y384794D01*
X319665Y384773D01*
X319753Y384756D01*
X319842Y384742D01*
X319932Y384733D01*
X320021Y384727D01*
X320111Y384725D01*
D11*
X353060Y408940D02*
X353060Y416560D01*
X358140Y416560D01*
X358140Y408940D01*
X353060Y408940D01*
D13*
X362754Y399669D02*
X362754Y390271D01*
X362754Y399669D02*
X360143Y399669D01*
X360042Y399667D01*
X359941Y399661D01*
X359840Y399651D01*
X359740Y399638D01*
X359640Y399620D01*
X359541Y399599D01*
X359443Y399573D01*
X359346Y399544D01*
X359250Y399512D01*
X359156Y399475D01*
X359063Y399435D01*
X358971Y399391D01*
X358882Y399344D01*
X358794Y399293D01*
X358708Y399239D01*
X358625Y399182D01*
X358543Y399122D01*
X358465Y399058D01*
X358388Y398992D01*
X358315Y398922D01*
X358244Y398850D01*
X358176Y398775D01*
X358111Y398697D01*
X358049Y398617D01*
X357990Y398535D01*
X357934Y398450D01*
X357882Y398364D01*
X357833Y398275D01*
X357787Y398184D01*
X357746Y398092D01*
X357707Y397998D01*
X357673Y397903D01*
X357642Y397807D01*
X357615Y397709D01*
X357591Y397611D01*
X357572Y397511D01*
X357556Y397411D01*
X357544Y397311D01*
X357536Y397210D01*
X357532Y397109D01*
X357532Y397007D01*
X357536Y396906D01*
X357544Y396805D01*
X357556Y396705D01*
X357572Y396605D01*
X357591Y396505D01*
X357615Y396407D01*
X357642Y396309D01*
X357673Y396213D01*
X357707Y396118D01*
X357746Y396024D01*
X357787Y395932D01*
X357833Y395841D01*
X357882Y395753D01*
X357934Y395666D01*
X357990Y395581D01*
X358049Y395499D01*
X358111Y395419D01*
X358176Y395341D01*
X358244Y395266D01*
X358315Y395194D01*
X358388Y395124D01*
X358465Y395058D01*
X358543Y394994D01*
X358625Y394934D01*
X358708Y394877D01*
X358794Y394823D01*
X358882Y394772D01*
X358971Y394725D01*
X359063Y394681D01*
X359156Y394641D01*
X359250Y394604D01*
X359346Y394572D01*
X359443Y394543D01*
X359541Y394517D01*
X359640Y394496D01*
X359740Y394478D01*
X359840Y394465D01*
X359941Y394455D01*
X360042Y394449D01*
X360143Y394447D01*
X360143Y394448D02*
X362754Y394448D01*
X359621Y394448D02*
X357533Y390271D01*
X353667Y398625D02*
X353667Y399669D01*
X348446Y399669D01*
X351057Y390271D01*
D11*
X250860Y247410D02*
X250860Y239790D01*
X250860Y247410D02*
X255940Y247410D01*
X255940Y239790D01*
X250860Y239790D01*
D13*
X260554Y230519D02*
X260554Y221121D01*
X260554Y230519D02*
X257943Y230519D01*
X257842Y230517D01*
X257741Y230511D01*
X257640Y230501D01*
X257540Y230488D01*
X257440Y230470D01*
X257341Y230449D01*
X257243Y230423D01*
X257146Y230394D01*
X257050Y230362D01*
X256956Y230325D01*
X256863Y230285D01*
X256771Y230241D01*
X256682Y230194D01*
X256594Y230143D01*
X256508Y230089D01*
X256425Y230032D01*
X256343Y229972D01*
X256265Y229908D01*
X256188Y229842D01*
X256115Y229772D01*
X256044Y229700D01*
X255976Y229625D01*
X255911Y229547D01*
X255849Y229467D01*
X255790Y229385D01*
X255734Y229300D01*
X255682Y229214D01*
X255633Y229125D01*
X255587Y229034D01*
X255546Y228942D01*
X255507Y228848D01*
X255473Y228753D01*
X255442Y228657D01*
X255415Y228559D01*
X255391Y228461D01*
X255372Y228361D01*
X255356Y228261D01*
X255344Y228161D01*
X255336Y228060D01*
X255332Y227959D01*
X255332Y227857D01*
X255336Y227756D01*
X255344Y227655D01*
X255356Y227555D01*
X255372Y227455D01*
X255391Y227355D01*
X255415Y227257D01*
X255442Y227159D01*
X255473Y227063D01*
X255507Y226968D01*
X255546Y226874D01*
X255587Y226782D01*
X255633Y226691D01*
X255682Y226603D01*
X255734Y226516D01*
X255790Y226431D01*
X255849Y226349D01*
X255911Y226269D01*
X255976Y226191D01*
X256044Y226116D01*
X256115Y226044D01*
X256188Y225974D01*
X256265Y225908D01*
X256343Y225844D01*
X256425Y225784D01*
X256508Y225727D01*
X256594Y225673D01*
X256682Y225622D01*
X256771Y225575D01*
X256863Y225531D01*
X256956Y225491D01*
X257050Y225454D01*
X257146Y225422D01*
X257243Y225393D01*
X257341Y225367D01*
X257440Y225346D01*
X257540Y225328D01*
X257640Y225315D01*
X257741Y225305D01*
X257842Y225299D01*
X257943Y225297D01*
X257943Y225298D02*
X260554Y225298D01*
X257421Y225298D02*
X255333Y221121D01*
X251467Y221121D02*
X248857Y221121D01*
X248756Y221123D01*
X248655Y221129D01*
X248554Y221139D01*
X248454Y221152D01*
X248354Y221170D01*
X248255Y221191D01*
X248157Y221217D01*
X248060Y221246D01*
X247964Y221278D01*
X247870Y221315D01*
X247777Y221355D01*
X247685Y221399D01*
X247596Y221446D01*
X247508Y221497D01*
X247422Y221551D01*
X247339Y221608D01*
X247257Y221668D01*
X247179Y221732D01*
X247102Y221798D01*
X247029Y221868D01*
X246958Y221940D01*
X246890Y222015D01*
X246825Y222093D01*
X246763Y222173D01*
X246704Y222255D01*
X246648Y222340D01*
X246596Y222427D01*
X246547Y222515D01*
X246501Y222606D01*
X246460Y222698D01*
X246421Y222792D01*
X246387Y222887D01*
X246356Y222983D01*
X246329Y223081D01*
X246305Y223179D01*
X246286Y223279D01*
X246270Y223379D01*
X246258Y223479D01*
X246250Y223580D01*
X246246Y223681D01*
X246246Y223783D01*
X246250Y223884D01*
X246258Y223985D01*
X246270Y224085D01*
X246286Y224185D01*
X246305Y224285D01*
X246329Y224383D01*
X246356Y224481D01*
X246387Y224577D01*
X246421Y224672D01*
X246460Y224766D01*
X246501Y224858D01*
X246547Y224949D01*
X246596Y225038D01*
X246648Y225124D01*
X246704Y225209D01*
X246763Y225291D01*
X246825Y225371D01*
X246890Y225449D01*
X246958Y225524D01*
X247029Y225596D01*
X247102Y225666D01*
X247179Y225732D01*
X247257Y225796D01*
X247339Y225856D01*
X247422Y225913D01*
X247508Y225967D01*
X247596Y226018D01*
X247685Y226065D01*
X247777Y226109D01*
X247870Y226149D01*
X247964Y226186D01*
X248060Y226218D01*
X248157Y226247D01*
X248255Y226273D01*
X248354Y226294D01*
X248454Y226312D01*
X248554Y226325D01*
X248655Y226335D01*
X248756Y226341D01*
X248857Y226343D01*
X248334Y230519D02*
X251467Y230519D01*
X248334Y230519D02*
X248244Y230517D01*
X248155Y230511D01*
X248065Y230502D01*
X247976Y230488D01*
X247888Y230471D01*
X247801Y230450D01*
X247714Y230425D01*
X247629Y230396D01*
X247545Y230364D01*
X247463Y230329D01*
X247382Y230289D01*
X247303Y230247D01*
X247226Y230201D01*
X247151Y230151D01*
X247078Y230099D01*
X247007Y230043D01*
X246939Y229985D01*
X246874Y229923D01*
X246811Y229859D01*
X246751Y229792D01*
X246694Y229723D01*
X246640Y229651D01*
X246589Y229577D01*
X246541Y229501D01*
X246497Y229423D01*
X246456Y229343D01*
X246418Y229261D01*
X246384Y229178D01*
X246354Y229093D01*
X246327Y229007D01*
X246304Y228921D01*
X246285Y228833D01*
X246270Y228744D01*
X246258Y228655D01*
X246250Y228566D01*
X246246Y228476D01*
X246246Y228386D01*
X246250Y228296D01*
X246258Y228207D01*
X246270Y228118D01*
X246285Y228029D01*
X246304Y227941D01*
X246327Y227855D01*
X246354Y227769D01*
X246384Y227684D01*
X246418Y227601D01*
X246456Y227519D01*
X246497Y227439D01*
X246541Y227361D01*
X246589Y227285D01*
X246640Y227211D01*
X246694Y227139D01*
X246751Y227070D01*
X246811Y227003D01*
X246874Y226939D01*
X246939Y226877D01*
X247007Y226819D01*
X247078Y226763D01*
X247151Y226711D01*
X247226Y226661D01*
X247303Y226615D01*
X247382Y226573D01*
X247463Y226533D01*
X247545Y226498D01*
X247629Y226466D01*
X247714Y226437D01*
X247801Y226412D01*
X247888Y226391D01*
X247976Y226374D01*
X248065Y226360D01*
X248155Y226351D01*
X248244Y226345D01*
X248334Y226343D01*
X248334Y226342D02*
X250423Y226342D01*
D11*
X166000Y306000D02*
X134000Y306000D01*
X134000Y334000D02*
X166000Y334000D01*
D12*
X98692Y325842D02*
X98692Y314158D01*
X98692Y325842D02*
X95446Y325842D01*
X95333Y325840D01*
X95220Y325834D01*
X95107Y325824D01*
X94994Y325810D01*
X94882Y325793D01*
X94771Y325771D01*
X94661Y325746D01*
X94551Y325716D01*
X94443Y325683D01*
X94336Y325646D01*
X94230Y325606D01*
X94126Y325561D01*
X94023Y325513D01*
X93922Y325462D01*
X93823Y325407D01*
X93726Y325349D01*
X93631Y325287D01*
X93538Y325222D01*
X93448Y325154D01*
X93360Y325083D01*
X93274Y325008D01*
X93191Y324931D01*
X93111Y324851D01*
X93034Y324768D01*
X92959Y324682D01*
X92888Y324594D01*
X92820Y324504D01*
X92755Y324411D01*
X92693Y324316D01*
X92635Y324219D01*
X92580Y324120D01*
X92529Y324019D01*
X92481Y323916D01*
X92436Y323812D01*
X92396Y323706D01*
X92359Y323599D01*
X92326Y323491D01*
X92296Y323381D01*
X92271Y323271D01*
X92249Y323160D01*
X92232Y323048D01*
X92218Y322935D01*
X92208Y322822D01*
X92202Y322709D01*
X92200Y322596D01*
X92201Y322596D02*
X92201Y317404D01*
X92200Y317404D02*
X92202Y317291D01*
X92208Y317178D01*
X92218Y317065D01*
X92232Y316952D01*
X92249Y316840D01*
X92271Y316729D01*
X92296Y316619D01*
X92326Y316509D01*
X92359Y316401D01*
X92396Y316294D01*
X92436Y316188D01*
X92481Y316084D01*
X92529Y315981D01*
X92580Y315880D01*
X92635Y315781D01*
X92693Y315684D01*
X92755Y315589D01*
X92820Y315496D01*
X92888Y315406D01*
X92959Y315318D01*
X93034Y315232D01*
X93111Y315149D01*
X93191Y315069D01*
X93274Y314992D01*
X93360Y314917D01*
X93448Y314846D01*
X93538Y314778D01*
X93631Y314713D01*
X93726Y314651D01*
X93823Y314593D01*
X93922Y314538D01*
X94023Y314487D01*
X94126Y314439D01*
X94230Y314394D01*
X94336Y314354D01*
X94443Y314317D01*
X94551Y314284D01*
X94661Y314254D01*
X94771Y314229D01*
X94882Y314207D01*
X94994Y314190D01*
X95107Y314176D01*
X95220Y314166D01*
X95333Y314160D01*
X95446Y314158D01*
X98692Y314158D01*
X86881Y314158D02*
X82986Y314158D01*
X82887Y314160D01*
X82787Y314166D01*
X82688Y314175D01*
X82590Y314188D01*
X82492Y314205D01*
X82394Y314226D01*
X82298Y314251D01*
X82203Y314279D01*
X82109Y314311D01*
X82016Y314346D01*
X81924Y314385D01*
X81834Y314428D01*
X81746Y314473D01*
X81659Y314523D01*
X81575Y314575D01*
X81492Y314631D01*
X81412Y314689D01*
X81334Y314751D01*
X81259Y314816D01*
X81186Y314884D01*
X81116Y314954D01*
X81048Y315027D01*
X80983Y315102D01*
X80921Y315180D01*
X80863Y315260D01*
X80807Y315343D01*
X80755Y315427D01*
X80705Y315514D01*
X80660Y315602D01*
X80617Y315692D01*
X80578Y315784D01*
X80543Y315877D01*
X80511Y315971D01*
X80483Y316066D01*
X80458Y316162D01*
X80437Y316260D01*
X80420Y316358D01*
X80407Y316456D01*
X80398Y316555D01*
X80392Y316655D01*
X80390Y316754D01*
X80390Y318053D01*
X80392Y318152D01*
X80398Y318252D01*
X80407Y318351D01*
X80420Y318449D01*
X80437Y318547D01*
X80458Y318645D01*
X80483Y318741D01*
X80511Y318836D01*
X80543Y318930D01*
X80578Y319023D01*
X80617Y319115D01*
X80660Y319205D01*
X80705Y319293D01*
X80755Y319380D01*
X80807Y319464D01*
X80863Y319547D01*
X80921Y319627D01*
X80983Y319705D01*
X81048Y319780D01*
X81116Y319853D01*
X81186Y319923D01*
X81259Y319991D01*
X81334Y320056D01*
X81412Y320118D01*
X81492Y320176D01*
X81575Y320232D01*
X81659Y320284D01*
X81746Y320334D01*
X81834Y320379D01*
X81924Y320422D01*
X82016Y320461D01*
X82109Y320496D01*
X82203Y320528D01*
X82298Y320556D01*
X82394Y320581D01*
X82492Y320602D01*
X82590Y320619D01*
X82688Y320632D01*
X82787Y320641D01*
X82887Y320647D01*
X82986Y320649D01*
X86881Y320649D01*
X86881Y325842D01*
X80390Y325842D01*
D11*
X251460Y327660D02*
X251460Y320040D01*
X251460Y327660D02*
X256540Y327660D01*
X256540Y320040D01*
X251460Y320040D01*
D13*
X261154Y310769D02*
X261154Y301371D01*
X261154Y310769D02*
X258543Y310769D01*
X258442Y310767D01*
X258341Y310761D01*
X258240Y310751D01*
X258140Y310738D01*
X258040Y310720D01*
X257941Y310699D01*
X257843Y310673D01*
X257746Y310644D01*
X257650Y310612D01*
X257556Y310575D01*
X257463Y310535D01*
X257371Y310491D01*
X257282Y310444D01*
X257194Y310393D01*
X257108Y310339D01*
X257025Y310282D01*
X256943Y310222D01*
X256865Y310158D01*
X256788Y310092D01*
X256715Y310022D01*
X256644Y309950D01*
X256576Y309875D01*
X256511Y309797D01*
X256449Y309717D01*
X256390Y309635D01*
X256334Y309550D01*
X256282Y309464D01*
X256233Y309375D01*
X256187Y309284D01*
X256146Y309192D01*
X256107Y309098D01*
X256073Y309003D01*
X256042Y308907D01*
X256015Y308809D01*
X255991Y308711D01*
X255972Y308611D01*
X255956Y308511D01*
X255944Y308411D01*
X255936Y308310D01*
X255932Y308209D01*
X255932Y308107D01*
X255936Y308006D01*
X255944Y307905D01*
X255956Y307805D01*
X255972Y307705D01*
X255991Y307605D01*
X256015Y307507D01*
X256042Y307409D01*
X256073Y307313D01*
X256107Y307218D01*
X256146Y307124D01*
X256187Y307032D01*
X256233Y306941D01*
X256282Y306853D01*
X256334Y306766D01*
X256390Y306681D01*
X256449Y306599D01*
X256511Y306519D01*
X256576Y306441D01*
X256644Y306366D01*
X256715Y306294D01*
X256788Y306224D01*
X256865Y306158D01*
X256943Y306094D01*
X257025Y306034D01*
X257108Y305977D01*
X257194Y305923D01*
X257282Y305872D01*
X257371Y305825D01*
X257463Y305781D01*
X257556Y305741D01*
X257650Y305704D01*
X257746Y305672D01*
X257843Y305643D01*
X257941Y305617D01*
X258040Y305596D01*
X258140Y305578D01*
X258240Y305565D01*
X258341Y305555D01*
X258442Y305549D01*
X258543Y305547D01*
X258543Y305548D02*
X261154Y305548D01*
X258021Y305548D02*
X255933Y301371D01*
X252067Y306592D02*
X248934Y306592D01*
X248845Y306590D01*
X248757Y306584D01*
X248669Y306575D01*
X248581Y306562D01*
X248494Y306545D01*
X248408Y306525D01*
X248323Y306500D01*
X248238Y306473D01*
X248155Y306441D01*
X248074Y306407D01*
X247994Y306368D01*
X247916Y306327D01*
X247839Y306282D01*
X247765Y306234D01*
X247692Y306183D01*
X247622Y306129D01*
X247555Y306071D01*
X247489Y306011D01*
X247427Y305949D01*
X247367Y305883D01*
X247309Y305816D01*
X247255Y305746D01*
X247204Y305673D01*
X247156Y305599D01*
X247111Y305522D01*
X247070Y305444D01*
X247031Y305364D01*
X246997Y305283D01*
X246965Y305200D01*
X246938Y305115D01*
X246913Y305030D01*
X246893Y304944D01*
X246876Y304857D01*
X246863Y304769D01*
X246854Y304681D01*
X246848Y304593D01*
X246846Y304504D01*
X246846Y303982D01*
X246848Y303881D01*
X246854Y303780D01*
X246864Y303679D01*
X246877Y303579D01*
X246895Y303479D01*
X246916Y303380D01*
X246942Y303282D01*
X246971Y303185D01*
X247003Y303089D01*
X247040Y302995D01*
X247080Y302902D01*
X247124Y302810D01*
X247171Y302721D01*
X247222Y302633D01*
X247276Y302547D01*
X247333Y302464D01*
X247393Y302382D01*
X247457Y302304D01*
X247523Y302227D01*
X247593Y302154D01*
X247665Y302083D01*
X247740Y302015D01*
X247818Y301950D01*
X247898Y301888D01*
X247980Y301829D01*
X248065Y301773D01*
X248152Y301721D01*
X248240Y301672D01*
X248331Y301626D01*
X248423Y301585D01*
X248517Y301546D01*
X248612Y301512D01*
X248708Y301481D01*
X248806Y301454D01*
X248904Y301430D01*
X249004Y301411D01*
X249104Y301395D01*
X249204Y301383D01*
X249305Y301375D01*
X249406Y301371D01*
X249508Y301371D01*
X249609Y301375D01*
X249710Y301383D01*
X249810Y301395D01*
X249910Y301411D01*
X250010Y301430D01*
X250108Y301454D01*
X250206Y301481D01*
X250302Y301512D01*
X250397Y301546D01*
X250491Y301585D01*
X250583Y301626D01*
X250674Y301672D01*
X250762Y301721D01*
X250849Y301773D01*
X250934Y301829D01*
X251016Y301888D01*
X251096Y301950D01*
X251174Y302015D01*
X251249Y302083D01*
X251321Y302154D01*
X251391Y302227D01*
X251457Y302304D01*
X251521Y302382D01*
X251581Y302464D01*
X251638Y302547D01*
X251692Y302633D01*
X251743Y302721D01*
X251790Y302810D01*
X251834Y302902D01*
X251874Y302995D01*
X251911Y303089D01*
X251943Y303185D01*
X251972Y303282D01*
X251998Y303380D01*
X252019Y303479D01*
X252037Y303579D01*
X252050Y303679D01*
X252060Y303780D01*
X252066Y303881D01*
X252068Y303982D01*
X252067Y303982D02*
X252067Y306592D01*
X252065Y306718D01*
X252059Y306844D01*
X252050Y306970D01*
X252037Y307095D01*
X252019Y307220D01*
X251999Y307345D01*
X251974Y307469D01*
X251946Y307592D01*
X251914Y307714D01*
X251878Y307835D01*
X251839Y307955D01*
X251796Y308073D01*
X251749Y308190D01*
X251699Y308306D01*
X251645Y308421D01*
X251589Y308533D01*
X251528Y308644D01*
X251465Y308753D01*
X251398Y308860D01*
X251328Y308965D01*
X251254Y309068D01*
X251178Y309168D01*
X251099Y309266D01*
X251017Y309362D01*
X250931Y309455D01*
X250844Y309546D01*
X250753Y309633D01*
X250660Y309719D01*
X250564Y309801D01*
X250466Y309880D01*
X250366Y309956D01*
X250263Y310030D01*
X250158Y310100D01*
X250051Y310167D01*
X249942Y310230D01*
X249831Y310291D01*
X249719Y310347D01*
X249604Y310401D01*
X249488Y310451D01*
X249371Y310498D01*
X249253Y310541D01*
X249133Y310580D01*
X249012Y310616D01*
X248890Y310648D01*
X248767Y310676D01*
X248643Y310701D01*
X248518Y310721D01*
X248393Y310739D01*
X248268Y310752D01*
X248142Y310761D01*
X248016Y310767D01*
X247890Y310769D01*
D11*
X166000Y386000D02*
X134000Y386000D01*
X134000Y414000D02*
X166000Y414000D01*
D12*
X98692Y405842D02*
X98692Y394158D01*
X98692Y405842D02*
X95446Y405842D01*
X95333Y405840D01*
X95220Y405834D01*
X95107Y405824D01*
X94994Y405810D01*
X94882Y405793D01*
X94771Y405771D01*
X94661Y405746D01*
X94551Y405716D01*
X94443Y405683D01*
X94336Y405646D01*
X94230Y405606D01*
X94126Y405561D01*
X94023Y405513D01*
X93922Y405462D01*
X93823Y405407D01*
X93726Y405349D01*
X93631Y405287D01*
X93538Y405222D01*
X93448Y405154D01*
X93360Y405083D01*
X93274Y405008D01*
X93191Y404931D01*
X93111Y404851D01*
X93034Y404768D01*
X92959Y404682D01*
X92888Y404594D01*
X92820Y404504D01*
X92755Y404411D01*
X92693Y404316D01*
X92635Y404219D01*
X92580Y404120D01*
X92529Y404019D01*
X92481Y403916D01*
X92436Y403812D01*
X92396Y403706D01*
X92359Y403599D01*
X92326Y403491D01*
X92296Y403381D01*
X92271Y403271D01*
X92249Y403160D01*
X92232Y403048D01*
X92218Y402935D01*
X92208Y402822D01*
X92202Y402709D01*
X92200Y402596D01*
X92201Y402596D02*
X92201Y397404D01*
X92200Y397404D02*
X92202Y397291D01*
X92208Y397178D01*
X92218Y397065D01*
X92232Y396952D01*
X92249Y396840D01*
X92271Y396729D01*
X92296Y396619D01*
X92326Y396509D01*
X92359Y396401D01*
X92396Y396294D01*
X92436Y396188D01*
X92481Y396084D01*
X92529Y395981D01*
X92580Y395880D01*
X92635Y395781D01*
X92693Y395684D01*
X92755Y395589D01*
X92820Y395496D01*
X92888Y395406D01*
X92959Y395318D01*
X93034Y395232D01*
X93111Y395149D01*
X93191Y395069D01*
X93274Y394992D01*
X93360Y394917D01*
X93448Y394846D01*
X93538Y394778D01*
X93631Y394713D01*
X93726Y394651D01*
X93823Y394593D01*
X93922Y394538D01*
X94023Y394487D01*
X94126Y394439D01*
X94230Y394394D01*
X94336Y394354D01*
X94443Y394317D01*
X94551Y394284D01*
X94661Y394254D01*
X94771Y394229D01*
X94882Y394207D01*
X94994Y394190D01*
X95107Y394176D01*
X95220Y394166D01*
X95333Y394160D01*
X95446Y394158D01*
X98692Y394158D01*
X86881Y400649D02*
X82986Y400649D01*
X82887Y400647D01*
X82787Y400641D01*
X82688Y400632D01*
X82590Y400619D01*
X82492Y400602D01*
X82394Y400581D01*
X82298Y400556D01*
X82203Y400528D01*
X82109Y400496D01*
X82016Y400461D01*
X81924Y400422D01*
X81834Y400379D01*
X81746Y400334D01*
X81659Y400284D01*
X81575Y400232D01*
X81492Y400176D01*
X81412Y400118D01*
X81334Y400056D01*
X81259Y399991D01*
X81186Y399923D01*
X81116Y399853D01*
X81048Y399780D01*
X80983Y399705D01*
X80921Y399627D01*
X80863Y399547D01*
X80807Y399464D01*
X80755Y399380D01*
X80705Y399293D01*
X80660Y399205D01*
X80617Y399115D01*
X80578Y399023D01*
X80543Y398930D01*
X80511Y398836D01*
X80483Y398741D01*
X80458Y398645D01*
X80437Y398547D01*
X80420Y398449D01*
X80407Y398351D01*
X80398Y398252D01*
X80392Y398152D01*
X80390Y398053D01*
X80390Y397404D01*
X80389Y397404D02*
X80391Y397291D01*
X80397Y397178D01*
X80407Y397065D01*
X80421Y396952D01*
X80438Y396840D01*
X80460Y396729D01*
X80485Y396619D01*
X80515Y396509D01*
X80548Y396401D01*
X80585Y396294D01*
X80625Y396188D01*
X80670Y396084D01*
X80718Y395981D01*
X80769Y395880D01*
X80824Y395781D01*
X80882Y395684D01*
X80944Y395589D01*
X81009Y395496D01*
X81077Y395406D01*
X81148Y395318D01*
X81223Y395232D01*
X81300Y395149D01*
X81380Y395069D01*
X81463Y394992D01*
X81549Y394917D01*
X81637Y394846D01*
X81727Y394778D01*
X81820Y394713D01*
X81915Y394651D01*
X82012Y394593D01*
X82111Y394538D01*
X82212Y394487D01*
X82315Y394439D01*
X82419Y394394D01*
X82525Y394354D01*
X82632Y394317D01*
X82740Y394284D01*
X82850Y394254D01*
X82960Y394229D01*
X83071Y394207D01*
X83183Y394190D01*
X83296Y394176D01*
X83409Y394166D01*
X83522Y394160D01*
X83635Y394158D01*
X83748Y394160D01*
X83861Y394166D01*
X83974Y394176D01*
X84087Y394190D01*
X84199Y394207D01*
X84310Y394229D01*
X84420Y394254D01*
X84530Y394284D01*
X84638Y394317D01*
X84745Y394354D01*
X84851Y394394D01*
X84955Y394439D01*
X85058Y394487D01*
X85159Y394538D01*
X85258Y394593D01*
X85355Y394651D01*
X85450Y394713D01*
X85543Y394778D01*
X85633Y394846D01*
X85721Y394917D01*
X85807Y394992D01*
X85890Y395069D01*
X85970Y395149D01*
X86047Y395232D01*
X86122Y395318D01*
X86193Y395406D01*
X86261Y395496D01*
X86326Y395589D01*
X86388Y395684D01*
X86446Y395781D01*
X86501Y395880D01*
X86552Y395981D01*
X86600Y396084D01*
X86645Y396188D01*
X86685Y396294D01*
X86722Y396401D01*
X86755Y396509D01*
X86785Y396619D01*
X86810Y396729D01*
X86832Y396840D01*
X86849Y396952D01*
X86863Y397065D01*
X86873Y397178D01*
X86879Y397291D01*
X86881Y397404D01*
X86881Y400649D01*
X86879Y400792D01*
X86873Y400935D01*
X86863Y401078D01*
X86849Y401220D01*
X86832Y401362D01*
X86810Y401504D01*
X86785Y401645D01*
X86755Y401785D01*
X86722Y401924D01*
X86685Y402062D01*
X86644Y402199D01*
X86600Y402335D01*
X86551Y402470D01*
X86499Y402603D01*
X86444Y402735D01*
X86384Y402865D01*
X86321Y402994D01*
X86255Y403121D01*
X86185Y403246D01*
X86112Y403368D01*
X86035Y403489D01*
X85955Y403608D01*
X85872Y403724D01*
X85786Y403839D01*
X85697Y403950D01*
X85604Y404060D01*
X85509Y404166D01*
X85410Y404270D01*
X85309Y404371D01*
X85205Y404470D01*
X85099Y404565D01*
X84989Y404658D01*
X84878Y404747D01*
X84763Y404833D01*
X84647Y404916D01*
X84528Y404996D01*
X84407Y405073D01*
X84285Y405146D01*
X84160Y405216D01*
X84033Y405282D01*
X83904Y405345D01*
X83774Y405405D01*
X83642Y405460D01*
X83509Y405512D01*
X83374Y405561D01*
X83238Y405605D01*
X83101Y405646D01*
X82963Y405683D01*
X82824Y405716D01*
X82684Y405746D01*
X82543Y405771D01*
X82401Y405793D01*
X82259Y405810D01*
X82117Y405824D01*
X81974Y405834D01*
X81831Y405840D01*
X81688Y405842D01*
D11*
X251460Y402590D02*
X251460Y410210D01*
X256540Y410210D01*
X256540Y402590D01*
X251460Y402590D01*
D13*
X261154Y393319D02*
X261154Y383921D01*
X261154Y393319D02*
X258543Y393319D01*
X258442Y393317D01*
X258341Y393311D01*
X258240Y393301D01*
X258140Y393288D01*
X258040Y393270D01*
X257941Y393249D01*
X257843Y393223D01*
X257746Y393194D01*
X257650Y393162D01*
X257556Y393125D01*
X257463Y393085D01*
X257371Y393041D01*
X257282Y392994D01*
X257194Y392943D01*
X257108Y392889D01*
X257025Y392832D01*
X256943Y392772D01*
X256865Y392708D01*
X256788Y392642D01*
X256715Y392572D01*
X256644Y392500D01*
X256576Y392425D01*
X256511Y392347D01*
X256449Y392267D01*
X256390Y392185D01*
X256334Y392100D01*
X256282Y392014D01*
X256233Y391925D01*
X256187Y391834D01*
X256146Y391742D01*
X256107Y391648D01*
X256073Y391553D01*
X256042Y391457D01*
X256015Y391359D01*
X255991Y391261D01*
X255972Y391161D01*
X255956Y391061D01*
X255944Y390961D01*
X255936Y390860D01*
X255932Y390759D01*
X255932Y390657D01*
X255936Y390556D01*
X255944Y390455D01*
X255956Y390355D01*
X255972Y390255D01*
X255991Y390155D01*
X256015Y390057D01*
X256042Y389959D01*
X256073Y389863D01*
X256107Y389768D01*
X256146Y389674D01*
X256187Y389582D01*
X256233Y389491D01*
X256282Y389403D01*
X256334Y389316D01*
X256390Y389231D01*
X256449Y389149D01*
X256511Y389069D01*
X256576Y388991D01*
X256644Y388916D01*
X256715Y388844D01*
X256788Y388774D01*
X256865Y388708D01*
X256943Y388644D01*
X257025Y388584D01*
X257108Y388527D01*
X257194Y388473D01*
X257282Y388422D01*
X257371Y388375D01*
X257463Y388331D01*
X257556Y388291D01*
X257650Y388254D01*
X257746Y388222D01*
X257843Y388193D01*
X257941Y388167D01*
X258040Y388146D01*
X258140Y388128D01*
X258240Y388115D01*
X258341Y388105D01*
X258442Y388099D01*
X258543Y388097D01*
X258543Y388098D02*
X261154Y388098D01*
X258021Y388098D02*
X255933Y383921D01*
X249979Y388098D02*
X246846Y388098D01*
X249979Y388098D02*
X250068Y388100D01*
X250156Y388106D01*
X250244Y388115D01*
X250332Y388128D01*
X250419Y388145D01*
X250505Y388165D01*
X250590Y388190D01*
X250675Y388217D01*
X250758Y388249D01*
X250839Y388283D01*
X250919Y388322D01*
X250997Y388363D01*
X251074Y388408D01*
X251148Y388456D01*
X251221Y388507D01*
X251291Y388561D01*
X251358Y388619D01*
X251424Y388679D01*
X251486Y388741D01*
X251546Y388807D01*
X251604Y388874D01*
X251658Y388944D01*
X251709Y389017D01*
X251757Y389091D01*
X251802Y389168D01*
X251843Y389246D01*
X251882Y389326D01*
X251916Y389407D01*
X251948Y389490D01*
X251975Y389575D01*
X252000Y389660D01*
X252020Y389746D01*
X252037Y389833D01*
X252050Y389921D01*
X252059Y390009D01*
X252065Y390097D01*
X252067Y390186D01*
X252067Y390708D01*
X252068Y390708D02*
X252066Y390809D01*
X252060Y390910D01*
X252050Y391011D01*
X252037Y391111D01*
X252019Y391211D01*
X251998Y391310D01*
X251972Y391408D01*
X251943Y391505D01*
X251911Y391601D01*
X251874Y391695D01*
X251834Y391788D01*
X251790Y391880D01*
X251743Y391969D01*
X251692Y392057D01*
X251638Y392143D01*
X251581Y392226D01*
X251521Y392308D01*
X251457Y392386D01*
X251391Y392463D01*
X251321Y392536D01*
X251249Y392607D01*
X251174Y392675D01*
X251096Y392740D01*
X251016Y392802D01*
X250934Y392861D01*
X250849Y392917D01*
X250763Y392969D01*
X250674Y393018D01*
X250583Y393064D01*
X250491Y393105D01*
X250397Y393144D01*
X250302Y393178D01*
X250206Y393209D01*
X250108Y393236D01*
X250010Y393260D01*
X249910Y393279D01*
X249810Y393295D01*
X249710Y393307D01*
X249609Y393315D01*
X249508Y393319D01*
X249406Y393319D01*
X249305Y393315D01*
X249204Y393307D01*
X249104Y393295D01*
X249004Y393279D01*
X248904Y393260D01*
X248806Y393236D01*
X248708Y393209D01*
X248612Y393178D01*
X248517Y393144D01*
X248423Y393105D01*
X248331Y393064D01*
X248240Y393018D01*
X248152Y392969D01*
X248065Y392917D01*
X247980Y392861D01*
X247898Y392802D01*
X247818Y392740D01*
X247740Y392675D01*
X247665Y392607D01*
X247593Y392536D01*
X247523Y392463D01*
X247457Y392386D01*
X247393Y392308D01*
X247333Y392226D01*
X247276Y392143D01*
X247222Y392057D01*
X247171Y391969D01*
X247124Y391880D01*
X247080Y391788D01*
X247040Y391695D01*
X247003Y391601D01*
X246971Y391505D01*
X246942Y391408D01*
X246916Y391310D01*
X246895Y391211D01*
X246877Y391111D01*
X246864Y391011D01*
X246854Y390910D01*
X246848Y390809D01*
X246846Y390708D01*
X246846Y388098D01*
X246848Y387972D01*
X246854Y387846D01*
X246863Y387720D01*
X246876Y387595D01*
X246894Y387470D01*
X246914Y387345D01*
X246939Y387221D01*
X246967Y387098D01*
X246999Y386976D01*
X247035Y386855D01*
X247074Y386735D01*
X247117Y386617D01*
X247164Y386500D01*
X247214Y386384D01*
X247268Y386269D01*
X247324Y386157D01*
X247385Y386046D01*
X247448Y385937D01*
X247515Y385830D01*
X247585Y385725D01*
X247659Y385622D01*
X247735Y385522D01*
X247814Y385424D01*
X247896Y385328D01*
X247982Y385235D01*
X248069Y385144D01*
X248160Y385057D01*
X248253Y384971D01*
X248349Y384889D01*
X248447Y384810D01*
X248547Y384734D01*
X248650Y384660D01*
X248755Y384590D01*
X248862Y384523D01*
X248971Y384460D01*
X249082Y384399D01*
X249194Y384343D01*
X249309Y384289D01*
X249425Y384239D01*
X249542Y384192D01*
X249660Y384149D01*
X249780Y384110D01*
X249901Y384074D01*
X250023Y384042D01*
X250146Y384014D01*
X250270Y383989D01*
X250395Y383969D01*
X250520Y383951D01*
X250645Y383938D01*
X250771Y383929D01*
X250897Y383923D01*
X251023Y383921D01*
M02*
