G04 EAGLE Gerber RS-274X export*
G75*
%MOMM*%
%FSLAX34Y34*%
%LPD*%
%INSoldermask Bottom*%
%IPPOS*%
%AMOC8*
5,1,8,0,0,1.08239X$1,22.5*%
G01*
%ADD10C,9.703200*%
%ADD11C,5.703200*%
%ADD12R,2.803200X2.803200*%
%ADD13R,1.053200X0.503200*%
%ADD14R,1.153200X0.603200*%
%ADD15R,1.103200X1.003200*%
%ADD16R,1.092200X0.812800*%
%ADD17R,0.812800X1.092200*%

G36*
X164035Y386677D02*
X164035Y386677D01*
X164101Y386679D01*
X164144Y386697D01*
X164191Y386705D01*
X164248Y386739D01*
X164308Y386764D01*
X164343Y386795D01*
X164384Y386820D01*
X164426Y386871D01*
X164474Y386915D01*
X164496Y386957D01*
X164525Y386994D01*
X164546Y387056D01*
X164577Y387115D01*
X164585Y387169D01*
X164597Y387206D01*
X164596Y387246D01*
X164604Y387300D01*
X164604Y412700D01*
X164593Y412765D01*
X164591Y412831D01*
X164573Y412874D01*
X164565Y412921D01*
X164531Y412978D01*
X164506Y413038D01*
X164475Y413073D01*
X164450Y413114D01*
X164399Y413156D01*
X164355Y413204D01*
X164313Y413226D01*
X164276Y413255D01*
X164214Y413276D01*
X164155Y413307D01*
X164101Y413315D01*
X164064Y413327D01*
X164024Y413326D01*
X163970Y413334D01*
X136030Y413334D01*
X135965Y413323D01*
X135899Y413321D01*
X135856Y413303D01*
X135809Y413295D01*
X135752Y413261D01*
X135692Y413236D01*
X135657Y413205D01*
X135616Y413180D01*
X135575Y413129D01*
X135526Y413085D01*
X135504Y413043D01*
X135475Y413006D01*
X135454Y412944D01*
X135423Y412885D01*
X135415Y412831D01*
X135403Y412794D01*
X135404Y412766D01*
X135403Y412764D01*
X135403Y412749D01*
X135396Y412700D01*
X135396Y387300D01*
X135407Y387235D01*
X135409Y387169D01*
X135427Y387126D01*
X135435Y387079D01*
X135469Y387022D01*
X135494Y386962D01*
X135525Y386927D01*
X135550Y386886D01*
X135601Y386845D01*
X135645Y386796D01*
X135687Y386774D01*
X135724Y386745D01*
X135786Y386724D01*
X135845Y386693D01*
X135899Y386685D01*
X135936Y386673D01*
X135976Y386674D01*
X136030Y386666D01*
X163970Y386666D01*
X164035Y386677D01*
G37*
G36*
X164035Y306677D02*
X164035Y306677D01*
X164101Y306679D01*
X164144Y306697D01*
X164191Y306705D01*
X164248Y306739D01*
X164308Y306764D01*
X164343Y306795D01*
X164384Y306820D01*
X164426Y306871D01*
X164474Y306915D01*
X164496Y306957D01*
X164525Y306994D01*
X164546Y307056D01*
X164577Y307115D01*
X164585Y307169D01*
X164597Y307206D01*
X164596Y307246D01*
X164604Y307300D01*
X164604Y332700D01*
X164593Y332765D01*
X164591Y332831D01*
X164573Y332874D01*
X164565Y332921D01*
X164531Y332978D01*
X164506Y333038D01*
X164475Y333073D01*
X164450Y333114D01*
X164399Y333156D01*
X164355Y333204D01*
X164313Y333226D01*
X164276Y333255D01*
X164214Y333276D01*
X164155Y333307D01*
X164101Y333315D01*
X164064Y333327D01*
X164024Y333326D01*
X163970Y333334D01*
X136030Y333334D01*
X135965Y333323D01*
X135899Y333321D01*
X135856Y333303D01*
X135809Y333295D01*
X135752Y333261D01*
X135692Y333236D01*
X135657Y333205D01*
X135616Y333180D01*
X135575Y333129D01*
X135526Y333085D01*
X135504Y333043D01*
X135475Y333006D01*
X135454Y332944D01*
X135423Y332885D01*
X135415Y332831D01*
X135403Y332794D01*
X135404Y332766D01*
X135403Y332764D01*
X135403Y332749D01*
X135396Y332700D01*
X135396Y307300D01*
X135407Y307235D01*
X135409Y307169D01*
X135427Y307126D01*
X135435Y307079D01*
X135469Y307022D01*
X135494Y306962D01*
X135525Y306927D01*
X135550Y306886D01*
X135601Y306845D01*
X135645Y306796D01*
X135687Y306774D01*
X135724Y306745D01*
X135786Y306724D01*
X135845Y306693D01*
X135899Y306685D01*
X135936Y306673D01*
X135976Y306674D01*
X136030Y306666D01*
X163970Y306666D01*
X164035Y306677D01*
G37*
G36*
X164035Y226677D02*
X164035Y226677D01*
X164101Y226679D01*
X164144Y226697D01*
X164191Y226705D01*
X164248Y226739D01*
X164308Y226764D01*
X164343Y226795D01*
X164384Y226820D01*
X164426Y226871D01*
X164474Y226915D01*
X164496Y226957D01*
X164525Y226994D01*
X164546Y227056D01*
X164577Y227115D01*
X164585Y227169D01*
X164597Y227206D01*
X164596Y227246D01*
X164604Y227300D01*
X164604Y252700D01*
X164593Y252765D01*
X164591Y252831D01*
X164573Y252874D01*
X164565Y252921D01*
X164531Y252978D01*
X164506Y253038D01*
X164475Y253073D01*
X164450Y253114D01*
X164399Y253156D01*
X164355Y253204D01*
X164313Y253226D01*
X164276Y253255D01*
X164214Y253276D01*
X164155Y253307D01*
X164101Y253315D01*
X164064Y253327D01*
X164024Y253326D01*
X163970Y253334D01*
X136030Y253334D01*
X135965Y253323D01*
X135899Y253321D01*
X135856Y253303D01*
X135809Y253295D01*
X135752Y253261D01*
X135692Y253236D01*
X135657Y253205D01*
X135616Y253180D01*
X135575Y253129D01*
X135526Y253085D01*
X135504Y253043D01*
X135475Y253006D01*
X135454Y252944D01*
X135423Y252885D01*
X135415Y252831D01*
X135403Y252794D01*
X135404Y252766D01*
X135403Y252764D01*
X135403Y252749D01*
X135396Y252700D01*
X135396Y227300D01*
X135407Y227235D01*
X135409Y227169D01*
X135427Y227126D01*
X135435Y227079D01*
X135469Y227022D01*
X135494Y226962D01*
X135525Y226927D01*
X135550Y226886D01*
X135601Y226845D01*
X135645Y226796D01*
X135687Y226774D01*
X135724Y226745D01*
X135786Y226724D01*
X135845Y226693D01*
X135899Y226685D01*
X135936Y226673D01*
X135976Y226674D01*
X136030Y226666D01*
X163970Y226666D01*
X164035Y226677D01*
G37*
D10*
X970000Y143350D03*
D11*
X320000Y110000D03*
D12*
X178000Y240000D03*
X122000Y240000D03*
D13*
X438150Y327500D03*
X438150Y322500D03*
X438150Y317500D03*
X438150Y312500D03*
D14*
X466900Y337500D03*
X466900Y297500D03*
D13*
X438150Y307500D03*
D15*
X302133Y333248D03*
X302133Y314452D03*
X282067Y323850D03*
X302133Y415798D03*
X302133Y397002D03*
X282067Y406400D03*
X302133Y250698D03*
X302133Y231902D03*
X282067Y241300D03*
D16*
X317500Y316357D03*
X317500Y331343D03*
D17*
X348107Y330200D03*
X363093Y330200D03*
D16*
X317500Y233807D03*
X317500Y248793D03*
D17*
X348107Y247650D03*
X363093Y247650D03*
D16*
X317500Y398907D03*
X317500Y413893D03*
D17*
X348107Y412750D03*
X363093Y412750D03*
X245907Y243600D03*
X260893Y243600D03*
D12*
X178000Y320000D03*
X122000Y320000D03*
D17*
X246507Y323850D03*
X261493Y323850D03*
D12*
X178000Y400000D03*
X122000Y400000D03*
D17*
X246507Y406400D03*
X261493Y406400D03*
M02*
