G04 EAGLE Gerber RS-274X export*
G75*
%MOMM*%
%FSLAX34Y34*%
%LPD*%
%INCopper Layer 2*%
%IPPOS*%
%AMOC8*
5,1,8,0,0,1.08239X$1,22.5*%
G01*
%ADD10C,1.508000*%
%ADD11C,3.316000*%
%ADD12C,1.428000*%
%ADD13C,1.650000*%
%ADD14C,1.308000*%
%ADD15C,1.108000*%
%ADD16C,1.524000*%
%ADD17C,1.800000*%
%ADD18C,0.756400*%

G36*
X989098Y10164D02*
X989098Y10164D01*
X989117Y10162D01*
X989219Y10184D01*
X989321Y10200D01*
X989338Y10210D01*
X989358Y10214D01*
X989447Y10267D01*
X989538Y10316D01*
X989552Y10330D01*
X989569Y10340D01*
X989636Y10419D01*
X989708Y10494D01*
X989716Y10512D01*
X989729Y10527D01*
X989768Y10623D01*
X989811Y10717D01*
X989813Y10737D01*
X989821Y10755D01*
X989839Y10922D01*
X989839Y889078D01*
X989836Y889098D01*
X989838Y889117D01*
X989816Y889219D01*
X989800Y889321D01*
X989790Y889338D01*
X989786Y889358D01*
X989733Y889447D01*
X989684Y889538D01*
X989670Y889552D01*
X989660Y889569D01*
X989581Y889636D01*
X989506Y889708D01*
X989488Y889716D01*
X989473Y889729D01*
X989377Y889768D01*
X989283Y889811D01*
X989263Y889813D01*
X989245Y889821D01*
X989078Y889839D01*
X469900Y889839D01*
X469880Y889836D01*
X469861Y889838D01*
X469759Y889816D01*
X469657Y889800D01*
X469640Y889790D01*
X469620Y889786D01*
X469531Y889733D01*
X469440Y889684D01*
X469426Y889670D01*
X469409Y889660D01*
X469342Y889581D01*
X469271Y889506D01*
X469262Y889488D01*
X469249Y889473D01*
X469210Y889377D01*
X469167Y889283D01*
X469165Y889263D01*
X469157Y889245D01*
X469139Y889078D01*
X469139Y876292D01*
X469154Y876202D01*
X469161Y876111D01*
X469173Y876081D01*
X469179Y876049D01*
X469221Y875968D01*
X469257Y875884D01*
X469283Y875852D01*
X469294Y875832D01*
X469317Y875809D01*
X469362Y875754D01*
X469690Y875425D01*
X471933Y870011D01*
X471933Y817159D01*
X469690Y811745D01*
X469362Y811416D01*
X469309Y811343D01*
X469249Y811273D01*
X469237Y811243D01*
X469218Y811217D01*
X469191Y811130D01*
X469157Y811045D01*
X469153Y811004D01*
X469146Y810982D01*
X469147Y810949D01*
X469139Y810878D01*
X469139Y787392D01*
X469142Y787374D01*
X469140Y787358D01*
X469154Y787290D01*
X469161Y787211D01*
X469173Y787181D01*
X469179Y787149D01*
X469190Y787128D01*
X469192Y787117D01*
X469221Y787068D01*
X469257Y786984D01*
X469283Y786952D01*
X469294Y786932D01*
X469315Y786911D01*
X469318Y786906D01*
X469323Y786902D01*
X469362Y786854D01*
X469690Y786525D01*
X471933Y781111D01*
X471933Y766440D01*
X471944Y766373D01*
X471945Y766305D01*
X471963Y766252D01*
X471972Y766197D01*
X472004Y766137D01*
X472027Y766073D01*
X472061Y766029D01*
X472088Y765980D01*
X472137Y765933D01*
X472178Y765880D01*
X472225Y765849D01*
X472266Y765810D01*
X472327Y765782D01*
X472384Y765745D01*
X472438Y765730D01*
X472489Y765707D01*
X472556Y765699D01*
X472622Y765682D01*
X472678Y765686D01*
X472733Y765680D01*
X472800Y765694D01*
X472867Y765699D01*
X472919Y765720D01*
X472974Y765732D01*
X473032Y765767D01*
X473095Y765793D01*
X473137Y765829D01*
X473185Y765858D01*
X473229Y765910D01*
X473280Y765954D01*
X473323Y766020D01*
X473345Y766045D01*
X473353Y766064D01*
X473372Y766094D01*
X473978Y767283D01*
X474911Y768567D01*
X476033Y769689D01*
X477317Y770622D01*
X478730Y771342D01*
X480239Y771833D01*
X481077Y771965D01*
X481077Y762762D01*
X481080Y762742D01*
X481078Y762723D01*
X481100Y762621D01*
X481117Y762519D01*
X481126Y762502D01*
X481130Y762482D01*
X481183Y762393D01*
X481232Y762302D01*
X481246Y762288D01*
X481256Y762271D01*
X481335Y762204D01*
X481410Y762133D01*
X481428Y762124D01*
X481443Y762111D01*
X481539Y762073D01*
X481633Y762029D01*
X481653Y762027D01*
X481671Y762019D01*
X481838Y762001D01*
X482601Y762001D01*
X482601Y761999D01*
X481838Y761999D01*
X481818Y761996D01*
X481799Y761998D01*
X481697Y761976D01*
X481595Y761959D01*
X481578Y761950D01*
X481558Y761946D01*
X481469Y761893D01*
X481378Y761844D01*
X481364Y761830D01*
X481347Y761820D01*
X481280Y761741D01*
X481209Y761666D01*
X481200Y761648D01*
X481187Y761633D01*
X481148Y761537D01*
X481105Y761443D01*
X481103Y761423D01*
X481095Y761405D01*
X481077Y761238D01*
X481077Y752035D01*
X480239Y752167D01*
X478730Y752658D01*
X477317Y753378D01*
X476033Y754311D01*
X474911Y755433D01*
X473978Y756717D01*
X473372Y757906D01*
X473332Y757960D01*
X473300Y758020D01*
X473260Y758059D01*
X473227Y758104D01*
X473171Y758143D01*
X473122Y758190D01*
X473071Y758213D01*
X473025Y758245D01*
X472960Y758265D01*
X472899Y758293D01*
X472843Y758299D01*
X472790Y758315D01*
X472722Y758313D01*
X472655Y758320D01*
X472600Y758308D01*
X472544Y758306D01*
X472481Y758283D01*
X472414Y758268D01*
X472366Y758239D01*
X472314Y758220D01*
X472261Y758177D01*
X472203Y758142D01*
X472167Y758099D01*
X472123Y758064D01*
X472087Y758007D01*
X472043Y757955D01*
X472022Y757903D01*
X471992Y757856D01*
X471977Y757790D01*
X471951Y757727D01*
X471943Y757648D01*
X471935Y757616D01*
X471937Y757596D01*
X471933Y757560D01*
X471933Y728259D01*
X469690Y722845D01*
X469362Y722516D01*
X469309Y722443D01*
X469249Y722373D01*
X469237Y722343D01*
X469218Y722317D01*
X469191Y722230D01*
X469157Y722145D01*
X469153Y722104D01*
X469146Y722082D01*
X469147Y722049D01*
X469139Y721978D01*
X469139Y673092D01*
X469154Y673002D01*
X469161Y672911D01*
X469173Y672881D01*
X469179Y672849D01*
X469221Y672768D01*
X469257Y672684D01*
X469283Y672652D01*
X469294Y672632D01*
X469317Y672609D01*
X469362Y672554D01*
X469690Y672225D01*
X471933Y666811D01*
X471933Y601259D01*
X469690Y595845D01*
X469362Y595516D01*
X469309Y595443D01*
X469249Y595373D01*
X469237Y595343D01*
X469218Y595317D01*
X469191Y595230D01*
X469157Y595145D01*
X469153Y595104D01*
X469146Y595082D01*
X469147Y595049D01*
X469139Y594978D01*
X469139Y574355D01*
X454345Y559561D01*
X10922Y559561D01*
X10902Y559558D01*
X10883Y559560D01*
X10781Y559538D01*
X10679Y559522D01*
X10662Y559512D01*
X10642Y559508D01*
X10553Y559455D01*
X10462Y559406D01*
X10448Y559392D01*
X10431Y559382D01*
X10364Y559303D01*
X10292Y559228D01*
X10284Y559210D01*
X10271Y559195D01*
X10232Y559099D01*
X10189Y559005D01*
X10187Y558985D01*
X10179Y558967D01*
X10161Y558800D01*
X10161Y10922D01*
X10164Y10902D01*
X10162Y10883D01*
X10184Y10781D01*
X10200Y10679D01*
X10210Y10662D01*
X10214Y10642D01*
X10267Y10553D01*
X10316Y10462D01*
X10330Y10448D01*
X10340Y10431D01*
X10419Y10364D01*
X10494Y10292D01*
X10512Y10284D01*
X10527Y10271D01*
X10623Y10232D01*
X10717Y10189D01*
X10737Y10187D01*
X10755Y10179D01*
X10922Y10161D01*
X989078Y10161D01*
X989098Y10164D01*
G37*
G36*
X439510Y583454D02*
X439510Y583454D01*
X439601Y583461D01*
X439631Y583473D01*
X439663Y583479D01*
X439743Y583521D01*
X439827Y583557D01*
X439859Y583583D01*
X439880Y583594D01*
X439902Y583617D01*
X439958Y583662D01*
X445038Y588742D01*
X445091Y588816D01*
X445151Y588885D01*
X445163Y588915D01*
X445182Y588941D01*
X445209Y589028D01*
X445243Y589113D01*
X445247Y589154D01*
X445254Y589177D01*
X445253Y589209D01*
X445261Y589280D01*
X445261Y594978D01*
X445247Y595068D01*
X445239Y595159D01*
X445227Y595189D01*
X445222Y595221D01*
X445179Y595302D01*
X445143Y595386D01*
X445117Y595418D01*
X445106Y595438D01*
X445083Y595460D01*
X445038Y595517D01*
X444710Y595845D01*
X442467Y601259D01*
X442467Y666811D01*
X444710Y672225D01*
X445038Y672553D01*
X445092Y672628D01*
X445151Y672697D01*
X445163Y672727D01*
X445182Y672753D01*
X445209Y672840D01*
X445243Y672925D01*
X445247Y672966D01*
X445254Y672988D01*
X445253Y673021D01*
X445261Y673092D01*
X445261Y721978D01*
X445247Y722068D01*
X445239Y722159D01*
X445227Y722189D01*
X445222Y722221D01*
X445201Y722259D01*
X445200Y722266D01*
X445180Y722299D01*
X445179Y722302D01*
X445143Y722386D01*
X445117Y722418D01*
X445106Y722438D01*
X445084Y722459D01*
X445074Y722477D01*
X445061Y722488D01*
X445038Y722517D01*
X444710Y722845D01*
X442467Y728259D01*
X442467Y757560D01*
X442456Y757627D01*
X442455Y757695D01*
X442437Y757748D01*
X442428Y757803D01*
X442396Y757863D01*
X442373Y757927D01*
X442339Y757971D01*
X442312Y758020D01*
X442263Y758067D01*
X442222Y758120D01*
X442175Y758151D01*
X442134Y758190D01*
X442073Y758218D01*
X442016Y758255D01*
X441962Y758270D01*
X441911Y758293D01*
X441844Y758301D01*
X441778Y758318D01*
X441722Y758314D01*
X441667Y758320D01*
X441600Y758306D01*
X441533Y758301D01*
X441481Y758280D01*
X441426Y758268D01*
X441368Y758233D01*
X441305Y758207D01*
X441263Y758171D01*
X441215Y758142D01*
X441171Y758090D01*
X441120Y758046D01*
X441077Y757980D01*
X441055Y757955D01*
X441047Y757936D01*
X441028Y757906D01*
X440422Y756717D01*
X439489Y755433D01*
X438367Y754311D01*
X437083Y753378D01*
X435670Y752658D01*
X434161Y752167D01*
X433323Y752035D01*
X433323Y761238D01*
X433320Y761258D01*
X433322Y761277D01*
X433300Y761379D01*
X433283Y761481D01*
X433274Y761498D01*
X433270Y761518D01*
X433217Y761607D01*
X433168Y761698D01*
X433154Y761712D01*
X433144Y761729D01*
X433065Y761796D01*
X432990Y761867D01*
X432972Y761876D01*
X432957Y761889D01*
X432861Y761927D01*
X432767Y761971D01*
X432747Y761973D01*
X432729Y761981D01*
X432562Y761999D01*
X431799Y761999D01*
X431799Y762001D01*
X432562Y762001D01*
X432582Y762004D01*
X432601Y762002D01*
X432703Y762024D01*
X432805Y762041D01*
X432822Y762050D01*
X432842Y762054D01*
X432931Y762107D01*
X433022Y762156D01*
X433036Y762170D01*
X433053Y762180D01*
X433120Y762259D01*
X433191Y762334D01*
X433200Y762352D01*
X433213Y762367D01*
X433252Y762463D01*
X433295Y762557D01*
X433297Y762577D01*
X433305Y762595D01*
X433323Y762762D01*
X433323Y771965D01*
X434161Y771833D01*
X435670Y771342D01*
X437083Y770622D01*
X438367Y769689D01*
X439489Y768567D01*
X440422Y767283D01*
X441028Y766094D01*
X441068Y766040D01*
X441100Y765980D01*
X441140Y765941D01*
X441173Y765896D01*
X441229Y765857D01*
X441278Y765810D01*
X441329Y765787D01*
X441375Y765755D01*
X441440Y765735D01*
X441501Y765707D01*
X441557Y765701D01*
X441610Y765685D01*
X441678Y765687D01*
X441745Y765680D01*
X441800Y765692D01*
X441856Y765694D01*
X441919Y765717D01*
X441986Y765732D01*
X442034Y765761D01*
X442086Y765780D01*
X442139Y765823D01*
X442197Y765858D01*
X442233Y765901D01*
X442277Y765936D01*
X442313Y765993D01*
X442357Y766045D01*
X442378Y766097D01*
X442408Y766144D01*
X442423Y766210D01*
X442449Y766273D01*
X442457Y766352D01*
X442465Y766384D01*
X442463Y766404D01*
X442467Y766440D01*
X442467Y781111D01*
X444710Y786525D01*
X445038Y786853D01*
X445092Y786928D01*
X445151Y786997D01*
X445163Y787027D01*
X445182Y787053D01*
X445209Y787140D01*
X445243Y787225D01*
X445247Y787266D01*
X445254Y787288D01*
X445253Y787321D01*
X445261Y787392D01*
X445261Y810878D01*
X445247Y810968D01*
X445239Y811059D01*
X445227Y811089D01*
X445222Y811121D01*
X445179Y811202D01*
X445143Y811286D01*
X445117Y811318D01*
X445106Y811338D01*
X445083Y811360D01*
X445038Y811417D01*
X444710Y811745D01*
X442467Y817159D01*
X442467Y846460D01*
X442456Y846527D01*
X442455Y846595D01*
X442437Y846648D01*
X442428Y846703D01*
X442396Y846763D01*
X442373Y846827D01*
X442339Y846871D01*
X442312Y846920D01*
X442263Y846967D01*
X442222Y847020D01*
X442175Y847051D01*
X442134Y847090D01*
X442073Y847118D01*
X442016Y847155D01*
X441962Y847170D01*
X441911Y847193D01*
X441844Y847201D01*
X441778Y847218D01*
X441722Y847214D01*
X441667Y847220D01*
X441600Y847206D01*
X441533Y847201D01*
X441481Y847180D01*
X441426Y847168D01*
X441368Y847133D01*
X441305Y847107D01*
X441263Y847071D01*
X441215Y847042D01*
X441171Y846990D01*
X441120Y846946D01*
X441077Y846880D01*
X441055Y846855D01*
X441047Y846836D01*
X441028Y846806D01*
X440422Y845617D01*
X439489Y844333D01*
X438367Y843211D01*
X437083Y842278D01*
X435670Y841558D01*
X434161Y841067D01*
X433323Y840935D01*
X433323Y850138D01*
X433320Y850158D01*
X433322Y850177D01*
X433300Y850279D01*
X433283Y850381D01*
X433274Y850398D01*
X433270Y850418D01*
X433217Y850507D01*
X433168Y850598D01*
X433154Y850612D01*
X433144Y850629D01*
X433065Y850696D01*
X432990Y850767D01*
X432972Y850776D01*
X432957Y850789D01*
X432861Y850827D01*
X432767Y850871D01*
X432747Y850873D01*
X432729Y850881D01*
X432562Y850899D01*
X431799Y850899D01*
X431799Y850901D01*
X432562Y850901D01*
X432582Y850904D01*
X432601Y850902D01*
X432703Y850924D01*
X432805Y850941D01*
X432822Y850950D01*
X432842Y850954D01*
X432931Y851007D01*
X433022Y851056D01*
X433036Y851070D01*
X433053Y851080D01*
X433120Y851159D01*
X433191Y851234D01*
X433200Y851252D01*
X433213Y851267D01*
X433252Y851363D01*
X433295Y851457D01*
X433297Y851477D01*
X433305Y851495D01*
X433323Y851662D01*
X433323Y860865D01*
X434161Y860733D01*
X435670Y860242D01*
X437083Y859522D01*
X438367Y858589D01*
X439489Y857467D01*
X440422Y856183D01*
X441028Y854994D01*
X441068Y854940D01*
X441100Y854880D01*
X441140Y854841D01*
X441173Y854796D01*
X441229Y854757D01*
X441278Y854710D01*
X441329Y854687D01*
X441375Y854655D01*
X441440Y854635D01*
X441501Y854607D01*
X441557Y854601D01*
X441610Y854585D01*
X441678Y854587D01*
X441745Y854580D01*
X441800Y854592D01*
X441856Y854594D01*
X441919Y854617D01*
X441986Y854632D01*
X442034Y854661D01*
X442086Y854680D01*
X442139Y854723D01*
X442197Y854758D01*
X442233Y854801D01*
X442277Y854836D01*
X442313Y854893D01*
X442357Y854945D01*
X442378Y854997D01*
X442408Y855044D01*
X442423Y855110D01*
X442449Y855173D01*
X442457Y855252D01*
X442465Y855284D01*
X442463Y855304D01*
X442467Y855340D01*
X442467Y870011D01*
X444710Y875425D01*
X445038Y875753D01*
X445092Y875828D01*
X445151Y875897D01*
X445163Y875927D01*
X445182Y875953D01*
X445209Y876040D01*
X445243Y876125D01*
X445247Y876166D01*
X445254Y876188D01*
X445253Y876221D01*
X445261Y876292D01*
X445261Y889078D01*
X445258Y889098D01*
X445260Y889117D01*
X445238Y889219D01*
X445222Y889321D01*
X445212Y889338D01*
X445208Y889358D01*
X445155Y889447D01*
X445106Y889538D01*
X445092Y889552D01*
X445082Y889569D01*
X445003Y889636D01*
X444928Y889708D01*
X444910Y889716D01*
X444895Y889729D01*
X444799Y889768D01*
X444705Y889811D01*
X444685Y889813D01*
X444667Y889821D01*
X444500Y889839D01*
X10922Y889839D01*
X10902Y889836D01*
X10883Y889838D01*
X10781Y889816D01*
X10679Y889800D01*
X10662Y889790D01*
X10642Y889786D01*
X10553Y889733D01*
X10462Y889684D01*
X10448Y889670D01*
X10431Y889660D01*
X10364Y889581D01*
X10292Y889506D01*
X10284Y889488D01*
X10271Y889473D01*
X10232Y889377D01*
X10189Y889283D01*
X10187Y889263D01*
X10179Y889245D01*
X10161Y889078D01*
X10161Y584200D01*
X10164Y584180D01*
X10162Y584161D01*
X10184Y584059D01*
X10200Y583957D01*
X10210Y583940D01*
X10214Y583920D01*
X10267Y583831D01*
X10316Y583740D01*
X10330Y583726D01*
X10340Y583709D01*
X10419Y583642D01*
X10494Y583571D01*
X10512Y583562D01*
X10527Y583549D01*
X10623Y583510D01*
X10717Y583467D01*
X10737Y583465D01*
X10755Y583457D01*
X10922Y583439D01*
X439420Y583439D01*
X439510Y583454D01*
G37*
%LPC*%
G36*
X55963Y809339D02*
X55963Y809339D01*
X48165Y811429D01*
X41174Y815465D01*
X35465Y821174D01*
X31429Y828165D01*
X29339Y835963D01*
X29339Y844037D01*
X31429Y851835D01*
X35465Y858826D01*
X41174Y864535D01*
X48165Y868571D01*
X55963Y870661D01*
X64037Y870661D01*
X71835Y868571D01*
X78826Y864535D01*
X84535Y858826D01*
X88571Y851835D01*
X90661Y844037D01*
X90661Y835963D01*
X88571Y828165D01*
X84535Y821174D01*
X78826Y815465D01*
X71835Y811429D01*
X64037Y809339D01*
X55963Y809339D01*
G37*
%LPD*%
%LPC*%
G36*
X935963Y809339D02*
X935963Y809339D01*
X928165Y811429D01*
X921174Y815465D01*
X915465Y821174D01*
X911429Y828165D01*
X909339Y835963D01*
X909339Y844037D01*
X911429Y851835D01*
X915465Y858826D01*
X921174Y864535D01*
X928165Y868571D01*
X935963Y870661D01*
X944037Y870661D01*
X951835Y868571D01*
X958826Y864535D01*
X964535Y858826D01*
X968571Y851835D01*
X970661Y844037D01*
X970661Y835963D01*
X968571Y828165D01*
X964535Y821174D01*
X958826Y815465D01*
X951835Y811429D01*
X944037Y809339D01*
X935963Y809339D01*
G37*
%LPD*%
%LPC*%
G36*
X45963Y469339D02*
X45963Y469339D01*
X38165Y471429D01*
X31174Y475465D01*
X25465Y481174D01*
X21429Y488165D01*
X19339Y495963D01*
X19339Y504037D01*
X21429Y511835D01*
X25465Y518826D01*
X31174Y524535D01*
X38165Y528571D01*
X45963Y530661D01*
X54037Y530661D01*
X61835Y528571D01*
X68826Y524535D01*
X74535Y518826D01*
X78571Y511835D01*
X80661Y504037D01*
X80661Y495963D01*
X78571Y488165D01*
X74535Y481174D01*
X68826Y475465D01*
X61835Y471429D01*
X54037Y469339D01*
X45963Y469339D01*
G37*
%LPD*%
%LPC*%
G36*
X935963Y29339D02*
X935963Y29339D01*
X928165Y31429D01*
X921174Y35465D01*
X915465Y41174D01*
X911429Y48165D01*
X909339Y55963D01*
X909339Y64037D01*
X911429Y71835D01*
X915465Y78826D01*
X921174Y84535D01*
X928165Y88571D01*
X935963Y90661D01*
X944037Y90661D01*
X951835Y88571D01*
X958826Y84535D01*
X964535Y78826D01*
X968571Y71835D01*
X970661Y64037D01*
X970661Y55963D01*
X968571Y48165D01*
X964535Y41174D01*
X958826Y35465D01*
X951835Y31429D01*
X944037Y29339D01*
X935963Y29339D01*
G37*
%LPD*%
%LPC*%
G36*
X45963Y19339D02*
X45963Y19339D01*
X38165Y21429D01*
X31174Y25465D01*
X25465Y31174D01*
X21429Y38165D01*
X19339Y45963D01*
X19339Y54037D01*
X21429Y61835D01*
X25465Y68826D01*
X31174Y74535D01*
X38165Y78571D01*
X45963Y80661D01*
X54037Y80661D01*
X61835Y78571D01*
X68826Y74535D01*
X74535Y68826D01*
X78571Y61835D01*
X80661Y54037D01*
X80661Y45963D01*
X78571Y38165D01*
X74535Y31174D01*
X68826Y25465D01*
X61835Y21429D01*
X54037Y19339D01*
X45963Y19339D01*
G37*
%LPD*%
%LPC*%
G36*
X166785Y74839D02*
X166785Y74839D01*
X160846Y77300D01*
X156300Y81846D01*
X153839Y87785D01*
X153839Y94215D01*
X156300Y100154D01*
X160846Y104700D01*
X166785Y107161D01*
X173215Y107161D01*
X179154Y104700D01*
X182176Y101679D01*
X182234Y101637D01*
X182286Y101588D01*
X182333Y101566D01*
X182375Y101535D01*
X182444Y101514D01*
X182509Y101484D01*
X182561Y101478D01*
X182611Y101463D01*
X182682Y101465D01*
X182753Y101457D01*
X182804Y101468D01*
X182856Y101469D01*
X182924Y101494D01*
X182994Y101509D01*
X183039Y101536D01*
X183087Y101554D01*
X183143Y101599D01*
X183205Y101635D01*
X183239Y101675D01*
X183279Y101708D01*
X183318Y101768D01*
X183365Y101822D01*
X183384Y101871D01*
X183412Y101915D01*
X183430Y101984D01*
X183457Y102051D01*
X183465Y102122D01*
X183473Y102153D01*
X183471Y102176D01*
X183475Y102217D01*
X183475Y103093D01*
X185078Y106962D01*
X188038Y109922D01*
X191907Y111525D01*
X196093Y111525D01*
X199962Y109922D01*
X202922Y106962D01*
X204525Y103093D01*
X204525Y98907D01*
X202922Y95038D01*
X199962Y92078D01*
X196093Y90475D01*
X191907Y90475D01*
X188038Y92078D01*
X187460Y92656D01*
X187402Y92697D01*
X187350Y92747D01*
X187303Y92769D01*
X187261Y92799D01*
X187192Y92820D01*
X187127Y92850D01*
X187075Y92856D01*
X187025Y92871D01*
X186954Y92870D01*
X186883Y92877D01*
X186832Y92866D01*
X186780Y92865D01*
X186712Y92840D01*
X186642Y92825D01*
X186597Y92798D01*
X186549Y92781D01*
X186493Y92736D01*
X186431Y92699D01*
X186397Y92659D01*
X186357Y92627D01*
X186318Y92567D01*
X186271Y92512D01*
X186252Y92464D01*
X186224Y92420D01*
X186206Y92350D01*
X186179Y92284D01*
X186171Y92213D01*
X186163Y92181D01*
X186165Y92158D01*
X186161Y92117D01*
X186161Y87785D01*
X183700Y81846D01*
X179154Y77300D01*
X173215Y74839D01*
X166785Y74839D01*
G37*
%LPD*%
%LPC*%
G36*
X326599Y801895D02*
X326599Y801895D01*
X319944Y804652D01*
X314852Y809744D01*
X312095Y816399D01*
X312095Y823601D01*
X314852Y830256D01*
X319944Y835348D01*
X326599Y838105D01*
X333801Y838105D01*
X340456Y835348D01*
X345548Y830256D01*
X348305Y823601D01*
X348305Y816399D01*
X345548Y809744D01*
X340456Y804652D01*
X333801Y801895D01*
X326599Y801895D01*
G37*
%LPD*%
%LPC*%
G36*
X206199Y801895D02*
X206199Y801895D01*
X199544Y804652D01*
X194452Y809744D01*
X191695Y816399D01*
X191695Y823601D01*
X194452Y830256D01*
X199544Y835348D01*
X206199Y838105D01*
X213401Y838105D01*
X220056Y835348D01*
X225148Y830256D01*
X227905Y823601D01*
X227905Y816399D01*
X225148Y809744D01*
X220056Y804652D01*
X213401Y801895D01*
X206199Y801895D01*
G37*
%LPD*%
%LPC*%
G36*
X166785Y14839D02*
X166785Y14839D01*
X160846Y17300D01*
X156300Y21846D01*
X153839Y27785D01*
X153839Y34215D01*
X156300Y40154D01*
X160846Y44700D01*
X166785Y47161D01*
X173215Y47161D01*
X179154Y44700D01*
X183700Y40154D01*
X184182Y38992D01*
X184206Y38953D01*
X184222Y38909D01*
X184271Y38849D01*
X184312Y38783D01*
X184347Y38753D01*
X184376Y38717D01*
X184441Y38675D01*
X184501Y38626D01*
X184544Y38609D01*
X184583Y38584D01*
X184658Y38565D01*
X184731Y38538D01*
X184777Y38536D01*
X184821Y38524D01*
X184899Y38530D01*
X184976Y38527D01*
X185021Y38540D01*
X185066Y38544D01*
X185138Y38574D01*
X185213Y38596D01*
X185250Y38622D01*
X185293Y38640D01*
X185399Y38725D01*
X185415Y38736D01*
X185418Y38740D01*
X185424Y38745D01*
X186482Y39803D01*
X187951Y40871D01*
X189570Y41695D01*
X191298Y42257D01*
X192477Y42443D01*
X192477Y31762D01*
X192480Y31742D01*
X192478Y31723D01*
X192500Y31621D01*
X192517Y31519D01*
X192526Y31502D01*
X192530Y31482D01*
X192583Y31393D01*
X192632Y31302D01*
X192646Y31288D01*
X192656Y31271D01*
X192735Y31204D01*
X192810Y31133D01*
X192828Y31124D01*
X192843Y31111D01*
X192939Y31073D01*
X193033Y31029D01*
X193053Y31027D01*
X193071Y31019D01*
X193238Y31001D01*
X194001Y31001D01*
X194001Y30999D01*
X193238Y30999D01*
X193218Y30996D01*
X193199Y30998D01*
X193097Y30976D01*
X192995Y30959D01*
X192978Y30950D01*
X192958Y30946D01*
X192869Y30893D01*
X192778Y30844D01*
X192764Y30830D01*
X192747Y30820D01*
X192680Y30741D01*
X192609Y30666D01*
X192600Y30648D01*
X192587Y30633D01*
X192548Y30537D01*
X192505Y30443D01*
X192503Y30423D01*
X192495Y30405D01*
X192477Y30238D01*
X192477Y19557D01*
X191298Y19743D01*
X189570Y20305D01*
X187951Y21129D01*
X186482Y22197D01*
X185424Y23255D01*
X185386Y23282D01*
X185355Y23316D01*
X185287Y23354D01*
X185224Y23399D01*
X185180Y23412D01*
X185140Y23435D01*
X185063Y23448D01*
X184989Y23471D01*
X184943Y23470D01*
X184898Y23478D01*
X184821Y23467D01*
X184743Y23465D01*
X184700Y23449D01*
X184654Y23442D01*
X184585Y23407D01*
X184512Y23380D01*
X184476Y23352D01*
X184435Y23331D01*
X184381Y23275D01*
X184320Y23227D01*
X184295Y23188D01*
X184263Y23155D01*
X184197Y23036D01*
X184187Y23020D01*
X184186Y23015D01*
X184182Y23008D01*
X183700Y21846D01*
X179154Y17300D01*
X173215Y14839D01*
X166785Y14839D01*
G37*
%LPD*%
%LPC*%
G36*
X911364Y562589D02*
X911364Y562589D01*
X905755Y564913D01*
X901463Y569205D01*
X899139Y574814D01*
X899139Y580886D01*
X901463Y586495D01*
X905755Y590787D01*
X911364Y593111D01*
X917436Y593111D01*
X923045Y590787D01*
X927337Y586495D01*
X929661Y580886D01*
X929661Y574814D01*
X927337Y569205D01*
X923045Y564913D01*
X917436Y562589D01*
X911364Y562589D01*
G37*
%LPD*%
%LPC*%
G36*
X911364Y626089D02*
X911364Y626089D01*
X905755Y628413D01*
X901463Y632705D01*
X899139Y638314D01*
X899139Y644386D01*
X901463Y649995D01*
X905755Y654287D01*
X911364Y656611D01*
X917436Y656611D01*
X923045Y654287D01*
X927337Y649995D01*
X929661Y644386D01*
X929661Y638314D01*
X927337Y632705D01*
X923045Y628413D01*
X917436Y626089D01*
X911364Y626089D01*
G37*
%LPD*%
%LPC*%
G36*
X703922Y581433D02*
X703922Y581433D01*
X700813Y584542D01*
X700813Y586061D01*
X700802Y586131D01*
X700800Y586203D01*
X700782Y586252D01*
X700774Y586303D01*
X700740Y586367D01*
X700715Y586434D01*
X700683Y586475D01*
X700658Y586521D01*
X700607Y586570D01*
X700562Y586626D01*
X700518Y586654D01*
X700480Y586690D01*
X700415Y586720D01*
X700355Y586759D01*
X700304Y586772D01*
X700257Y586794D01*
X700186Y586802D01*
X700116Y586819D01*
X700064Y586815D01*
X700013Y586821D01*
X699942Y586806D01*
X699871Y586800D01*
X699823Y586780D01*
X699772Y586769D01*
X699711Y586732D01*
X699645Y586704D01*
X699589Y586659D01*
X699561Y586642D01*
X699546Y586625D01*
X699514Y586599D01*
X699428Y586513D01*
X695032Y586513D01*
X691923Y589622D01*
X691923Y594018D01*
X695032Y597127D01*
X699428Y597127D01*
X702537Y594018D01*
X702537Y592499D01*
X702539Y592487D01*
X702538Y592478D01*
X702548Y592430D01*
X702548Y592429D01*
X702550Y592357D01*
X702568Y592308D01*
X702576Y592257D01*
X702610Y592193D01*
X702635Y592126D01*
X702667Y592085D01*
X702692Y592039D01*
X702743Y591990D01*
X702788Y591934D01*
X702832Y591906D01*
X702870Y591870D01*
X702935Y591840D01*
X702995Y591801D01*
X703046Y591788D01*
X703093Y591766D01*
X703164Y591758D01*
X703234Y591741D01*
X703286Y591745D01*
X703337Y591739D01*
X703408Y591754D01*
X703479Y591760D01*
X703527Y591780D01*
X703578Y591791D01*
X703639Y591828D01*
X703705Y591856D01*
X703761Y591901D01*
X703789Y591918D01*
X703804Y591935D01*
X703836Y591961D01*
X703922Y592047D01*
X708318Y592047D01*
X708404Y591961D01*
X708462Y591919D01*
X708514Y591870D01*
X708561Y591848D01*
X708603Y591818D01*
X708672Y591796D01*
X708737Y591766D01*
X708789Y591761D01*
X708839Y591745D01*
X708910Y591747D01*
X708981Y591739D01*
X709032Y591750D01*
X709084Y591752D01*
X709152Y591776D01*
X709222Y591791D01*
X709267Y591818D01*
X709315Y591836D01*
X709371Y591881D01*
X709433Y591918D01*
X709467Y591957D01*
X709507Y591990D01*
X709546Y592050D01*
X709593Y592105D01*
X709612Y592153D01*
X709640Y592197D01*
X709658Y592266D01*
X709685Y592333D01*
X709693Y592404D01*
X709701Y592435D01*
X709699Y592458D01*
X709703Y592499D01*
X709703Y594018D01*
X712812Y597127D01*
X717208Y597127D01*
X720317Y594018D01*
X720317Y592499D01*
X720319Y592487D01*
X720318Y592478D01*
X720328Y592430D01*
X720328Y592429D01*
X720330Y592357D01*
X720348Y592308D01*
X720356Y592257D01*
X720390Y592193D01*
X720415Y592126D01*
X720447Y592085D01*
X720472Y592039D01*
X720523Y591990D01*
X720568Y591934D01*
X720612Y591906D01*
X720650Y591870D01*
X720715Y591840D01*
X720775Y591801D01*
X720826Y591788D01*
X720873Y591766D01*
X720944Y591758D01*
X721014Y591741D01*
X721066Y591745D01*
X721117Y591739D01*
X721188Y591754D01*
X721259Y591760D01*
X721307Y591780D01*
X721358Y591791D01*
X721419Y591828D01*
X721485Y591856D01*
X721541Y591901D01*
X721569Y591918D01*
X721584Y591935D01*
X721616Y591961D01*
X721702Y592047D01*
X726098Y592047D01*
X729207Y588938D01*
X729207Y584542D01*
X726098Y581433D01*
X721702Y581433D01*
X718593Y584542D01*
X718593Y586061D01*
X718582Y586131D01*
X718580Y586203D01*
X718562Y586252D01*
X718554Y586303D01*
X718520Y586367D01*
X718495Y586434D01*
X718463Y586475D01*
X718438Y586521D01*
X718387Y586570D01*
X718342Y586626D01*
X718298Y586654D01*
X718260Y586690D01*
X718195Y586720D01*
X718135Y586759D01*
X718084Y586772D01*
X718037Y586794D01*
X717966Y586802D01*
X717896Y586819D01*
X717844Y586815D01*
X717793Y586821D01*
X717722Y586806D01*
X717651Y586800D01*
X717603Y586780D01*
X717552Y586769D01*
X717491Y586732D01*
X717425Y586704D01*
X717369Y586659D01*
X717341Y586642D01*
X717326Y586625D01*
X717294Y586599D01*
X717208Y586513D01*
X712812Y586513D01*
X712726Y586599D01*
X712668Y586641D01*
X712616Y586690D01*
X712569Y586712D01*
X712527Y586742D01*
X712458Y586764D01*
X712393Y586794D01*
X712341Y586799D01*
X712291Y586815D01*
X712220Y586813D01*
X712149Y586821D01*
X712098Y586810D01*
X712046Y586808D01*
X711978Y586784D01*
X711908Y586769D01*
X711863Y586742D01*
X711815Y586724D01*
X711759Y586679D01*
X711697Y586642D01*
X711663Y586603D01*
X711623Y586570D01*
X711584Y586510D01*
X711537Y586455D01*
X711518Y586407D01*
X711490Y586363D01*
X711472Y586294D01*
X711445Y586227D01*
X711437Y586156D01*
X711429Y586125D01*
X711431Y586102D01*
X711427Y586061D01*
X711427Y584542D01*
X708318Y581433D01*
X703922Y581433D01*
G37*
%LPD*%
%LPC*%
G36*
X143907Y40475D02*
X143907Y40475D01*
X140038Y42078D01*
X137078Y45038D01*
X135475Y48907D01*
X135475Y53093D01*
X137078Y56962D01*
X140038Y59922D01*
X143907Y61525D01*
X148093Y61525D01*
X151962Y59922D01*
X154922Y56962D01*
X156525Y53093D01*
X156525Y48907D01*
X154922Y45038D01*
X151962Y42078D01*
X148093Y40475D01*
X143907Y40475D01*
G37*
%LPD*%
%LPC*%
G36*
X588606Y199775D02*
X588606Y199775D01*
X585013Y201263D01*
X582263Y204013D01*
X580775Y207606D01*
X580775Y211494D01*
X582263Y215087D01*
X585013Y217837D01*
X588606Y219325D01*
X592494Y219325D01*
X596087Y217837D01*
X598837Y215087D01*
X600325Y211494D01*
X600325Y207606D01*
X598837Y204013D01*
X596087Y201263D01*
X592494Y199775D01*
X588606Y199775D01*
G37*
%LPD*%
%LPC*%
G36*
X563206Y199775D02*
X563206Y199775D01*
X559613Y201263D01*
X556863Y204013D01*
X555375Y207606D01*
X555375Y211494D01*
X556863Y215087D01*
X559613Y217837D01*
X563206Y219325D01*
X567094Y219325D01*
X570687Y217837D01*
X573437Y215087D01*
X574925Y211494D01*
X574925Y207606D01*
X573437Y204013D01*
X570687Y201263D01*
X567094Y199775D01*
X563206Y199775D01*
G37*
%LPD*%
%LPC*%
G36*
X588606Y174375D02*
X588606Y174375D01*
X585013Y175863D01*
X582263Y178613D01*
X580775Y182206D01*
X580775Y186094D01*
X582263Y189687D01*
X585013Y192437D01*
X588606Y193925D01*
X592494Y193925D01*
X596087Y192437D01*
X598837Y189687D01*
X600325Y186094D01*
X600325Y182206D01*
X598837Y178613D01*
X596087Y175863D01*
X592494Y174375D01*
X588606Y174375D01*
G37*
%LPD*%
%LPC*%
G36*
X563206Y225175D02*
X563206Y225175D01*
X559613Y226663D01*
X556863Y229413D01*
X555375Y233006D01*
X555375Y236894D01*
X556863Y240487D01*
X559613Y243237D01*
X563206Y244725D01*
X567094Y244725D01*
X570687Y243237D01*
X573437Y240487D01*
X574925Y236894D01*
X574925Y233006D01*
X573437Y229413D01*
X570687Y226663D01*
X567094Y225175D01*
X563206Y225175D01*
G37*
%LPD*%
%LPC*%
G36*
X588606Y148975D02*
X588606Y148975D01*
X585013Y150463D01*
X582263Y153213D01*
X580775Y156806D01*
X580775Y160694D01*
X582263Y164287D01*
X585013Y167037D01*
X588606Y168525D01*
X592494Y168525D01*
X596087Y167037D01*
X598837Y164287D01*
X600325Y160694D01*
X600325Y156806D01*
X598837Y153213D01*
X596087Y150463D01*
X592494Y148975D01*
X588606Y148975D01*
G37*
%LPD*%
%LPC*%
G36*
X563206Y174375D02*
X563206Y174375D01*
X559613Y175863D01*
X556863Y178613D01*
X555375Y182206D01*
X555375Y186094D01*
X556863Y189687D01*
X559613Y192437D01*
X563206Y193925D01*
X567094Y193925D01*
X570687Y192437D01*
X573437Y189687D01*
X574925Y186094D01*
X574925Y182206D01*
X573437Y178613D01*
X570687Y175863D01*
X567094Y174375D01*
X563206Y174375D01*
G37*
%LPD*%
%LPC*%
G36*
X563206Y250575D02*
X563206Y250575D01*
X559613Y252063D01*
X556863Y254813D01*
X555375Y258406D01*
X555375Y262294D01*
X556863Y265887D01*
X559613Y268637D01*
X563206Y270125D01*
X567094Y270125D01*
X570687Y268637D01*
X573437Y265887D01*
X574925Y262294D01*
X574925Y258406D01*
X573437Y254813D01*
X570687Y252063D01*
X567094Y250575D01*
X563206Y250575D01*
G37*
%LPD*%
%LPC*%
G36*
X563206Y275975D02*
X563206Y275975D01*
X559613Y277463D01*
X556863Y280213D01*
X555375Y283806D01*
X555375Y287694D01*
X556863Y291287D01*
X559613Y294037D01*
X563206Y295525D01*
X567094Y295525D01*
X570687Y294037D01*
X573437Y291287D01*
X574925Y287694D01*
X574925Y283806D01*
X573437Y280213D01*
X570687Y277463D01*
X567094Y275975D01*
X563206Y275975D01*
G37*
%LPD*%
%LPC*%
G36*
X588606Y275975D02*
X588606Y275975D01*
X585013Y277463D01*
X582263Y280213D01*
X580775Y283806D01*
X580775Y287694D01*
X582263Y291287D01*
X585013Y294037D01*
X588606Y295525D01*
X592494Y295525D01*
X596087Y294037D01*
X598837Y291287D01*
X600325Y287694D01*
X600325Y283806D01*
X598837Y280213D01*
X596087Y277463D01*
X592494Y275975D01*
X588606Y275975D01*
G37*
%LPD*%
%LPC*%
G36*
X563206Y301375D02*
X563206Y301375D01*
X559613Y302863D01*
X556863Y305613D01*
X555375Y309206D01*
X555375Y313094D01*
X556863Y316687D01*
X559613Y319437D01*
X563206Y320925D01*
X567094Y320925D01*
X570687Y319437D01*
X573437Y316687D01*
X574925Y313094D01*
X574925Y309206D01*
X573437Y305613D01*
X570687Y302863D01*
X567094Y301375D01*
X563206Y301375D01*
G37*
%LPD*%
%LPC*%
G36*
X588606Y301375D02*
X588606Y301375D01*
X585013Y302863D01*
X582263Y305613D01*
X580775Y309206D01*
X580775Y313094D01*
X582263Y316687D01*
X585013Y319437D01*
X588606Y320925D01*
X592494Y320925D01*
X596087Y319437D01*
X598837Y316687D01*
X600325Y313094D01*
X600325Y309206D01*
X598837Y305613D01*
X596087Y302863D01*
X592494Y301375D01*
X588606Y301375D01*
G37*
%LPD*%
%LPC*%
G36*
X588606Y225175D02*
X588606Y225175D01*
X585013Y226663D01*
X582263Y229413D01*
X580775Y233006D01*
X580775Y236894D01*
X582263Y240487D01*
X585013Y243237D01*
X588606Y244725D01*
X592494Y244725D01*
X596087Y243237D01*
X598837Y240487D01*
X600325Y236894D01*
X600325Y233006D01*
X598837Y229413D01*
X596087Y226663D01*
X592494Y225175D01*
X588606Y225175D01*
G37*
%LPD*%
%LPC*%
G36*
X950681Y486155D02*
X950681Y486155D01*
X947320Y487547D01*
X944747Y490120D01*
X943355Y493481D01*
X943355Y497119D01*
X944747Y500480D01*
X947320Y503053D01*
X950681Y504445D01*
X954319Y504445D01*
X957680Y503053D01*
X960253Y500480D01*
X961645Y497119D01*
X961645Y493481D01*
X960253Y490120D01*
X957680Y487547D01*
X954319Y486155D01*
X950681Y486155D01*
G37*
%LPD*%
%LPC*%
G36*
X925281Y486155D02*
X925281Y486155D01*
X921920Y487547D01*
X919347Y490120D01*
X917955Y493481D01*
X917955Y497119D01*
X919347Y500480D01*
X921920Y503053D01*
X925281Y504445D01*
X928919Y504445D01*
X932280Y503053D01*
X934853Y500480D01*
X936245Y497119D01*
X936245Y493481D01*
X934853Y490120D01*
X932280Y487547D01*
X928919Y486155D01*
X925281Y486155D01*
G37*
%LPD*%
%LPC*%
G36*
X874481Y486155D02*
X874481Y486155D01*
X871120Y487547D01*
X868547Y490120D01*
X867155Y493481D01*
X867155Y497119D01*
X868547Y500480D01*
X871120Y503053D01*
X874481Y504445D01*
X878119Y504445D01*
X881480Y503053D01*
X884053Y500480D01*
X885445Y497119D01*
X885445Y493481D01*
X884053Y490120D01*
X881480Y487547D01*
X878119Y486155D01*
X874481Y486155D01*
G37*
%LPD*%
%LPC*%
G36*
X861402Y375693D02*
X861402Y375693D01*
X858293Y378802D01*
X858293Y383198D01*
X861402Y386307D01*
X865798Y386307D01*
X867507Y384598D01*
X867523Y384587D01*
X867535Y384571D01*
X867623Y384515D01*
X867706Y384455D01*
X867725Y384449D01*
X867742Y384438D01*
X867843Y384413D01*
X867942Y384382D01*
X867961Y384383D01*
X867981Y384378D01*
X868084Y384386D01*
X868187Y384389D01*
X868206Y384395D01*
X868226Y384397D01*
X868321Y384437D01*
X868418Y384473D01*
X868434Y384486D01*
X868452Y384493D01*
X868583Y384598D01*
X870292Y386307D01*
X874688Y386307D01*
X876397Y384598D01*
X876413Y384587D01*
X876425Y384571D01*
X876513Y384515D01*
X876596Y384455D01*
X876615Y384449D01*
X876632Y384438D01*
X876733Y384413D01*
X876832Y384382D01*
X876851Y384383D01*
X876871Y384378D01*
X876974Y384386D01*
X877077Y384389D01*
X877096Y384395D01*
X877116Y384397D01*
X877211Y384437D01*
X877308Y384473D01*
X877324Y384486D01*
X877342Y384493D01*
X877473Y384598D01*
X879182Y386307D01*
X883578Y386307D01*
X886687Y383198D01*
X886687Y378802D01*
X883578Y375693D01*
X879182Y375693D01*
X877473Y377402D01*
X877457Y377413D01*
X877445Y377429D01*
X877357Y377485D01*
X877274Y377545D01*
X877255Y377551D01*
X877238Y377562D01*
X877137Y377587D01*
X877038Y377618D01*
X877019Y377617D01*
X876999Y377622D01*
X876896Y377614D01*
X876793Y377611D01*
X876774Y377605D01*
X876754Y377603D01*
X876659Y377563D01*
X876562Y377527D01*
X876546Y377514D01*
X876528Y377507D01*
X876397Y377402D01*
X874688Y375693D01*
X870292Y375693D01*
X868583Y377402D01*
X868567Y377413D01*
X868555Y377429D01*
X868467Y377485D01*
X868384Y377545D01*
X868365Y377551D01*
X868348Y377562D01*
X868247Y377587D01*
X868148Y377618D01*
X868129Y377617D01*
X868109Y377622D01*
X868006Y377614D01*
X867903Y377611D01*
X867884Y377605D01*
X867864Y377603D01*
X867769Y377563D01*
X867672Y377527D01*
X867656Y377514D01*
X867638Y377507D01*
X867507Y377402D01*
X865798Y375693D01*
X861402Y375693D01*
G37*
%LPD*%
%LPC*%
G36*
X843197Y30935D02*
X843197Y30935D01*
X839865Y32315D01*
X837315Y34865D01*
X835935Y38197D01*
X835935Y41803D01*
X837315Y45135D01*
X839865Y47685D01*
X843197Y49065D01*
X846803Y49065D01*
X850135Y47685D01*
X852685Y45135D01*
X854065Y41803D01*
X854065Y38197D01*
X852685Y34865D01*
X850135Y32315D01*
X846803Y30935D01*
X843197Y30935D01*
G37*
%LPD*%
%LPC*%
G36*
X818197Y30935D02*
X818197Y30935D01*
X814865Y32315D01*
X812315Y34865D01*
X810935Y38197D01*
X810935Y41803D01*
X812315Y45135D01*
X814865Y47685D01*
X818197Y49065D01*
X821803Y49065D01*
X825135Y47685D01*
X827685Y45135D01*
X829065Y41803D01*
X829065Y38197D01*
X827685Y34865D01*
X825135Y32315D01*
X821803Y30935D01*
X818197Y30935D01*
G37*
%LPD*%
%LPC*%
G36*
X404597Y752935D02*
X404597Y752935D01*
X401265Y754315D01*
X398715Y756865D01*
X397335Y760197D01*
X397335Y763803D01*
X398715Y767135D01*
X401265Y769685D01*
X404597Y771065D01*
X408203Y771065D01*
X411535Y769685D01*
X414085Y767135D01*
X415465Y763803D01*
X415465Y760197D01*
X414085Y756865D01*
X411535Y754315D01*
X408203Y752935D01*
X404597Y752935D01*
G37*
%LPD*%
%LPC*%
G36*
X404597Y841835D02*
X404597Y841835D01*
X401265Y843215D01*
X398715Y845765D01*
X397335Y849097D01*
X397335Y852703D01*
X398715Y856035D01*
X401265Y858585D01*
X404597Y859965D01*
X408203Y859965D01*
X411535Y858585D01*
X414085Y856035D01*
X415465Y852703D01*
X415465Y849097D01*
X414085Y845765D01*
X411535Y843215D01*
X408203Y841835D01*
X404597Y841835D01*
G37*
%LPD*%
%LPC*%
G36*
X531597Y752935D02*
X531597Y752935D01*
X528265Y754315D01*
X525715Y756865D01*
X524335Y760197D01*
X524335Y763803D01*
X525715Y767135D01*
X528265Y769685D01*
X531597Y771065D01*
X535203Y771065D01*
X538535Y769685D01*
X541085Y767135D01*
X542465Y763803D01*
X542465Y760197D01*
X541085Y756865D01*
X538535Y754315D01*
X535203Y752935D01*
X531597Y752935D01*
G37*
%LPD*%
%LPC*%
G36*
X480797Y841835D02*
X480797Y841835D01*
X477465Y843215D01*
X474915Y845765D01*
X473535Y849097D01*
X473535Y852703D01*
X474915Y856035D01*
X477465Y858585D01*
X480797Y859965D01*
X484403Y859965D01*
X487735Y858585D01*
X490285Y856035D01*
X491665Y852703D01*
X491665Y849097D01*
X490285Y845765D01*
X487735Y843215D01*
X484403Y841835D01*
X480797Y841835D01*
G37*
%LPD*%
%LPC*%
G36*
X255776Y764235D02*
X255776Y764235D01*
X252592Y765554D01*
X250154Y767992D01*
X248835Y771176D01*
X248835Y774624D01*
X250154Y777808D01*
X252592Y780246D01*
X255776Y781565D01*
X259224Y781565D01*
X262408Y780246D01*
X264846Y777808D01*
X266165Y774624D01*
X266165Y771176D01*
X264846Y767992D01*
X262408Y765554D01*
X259224Y764235D01*
X255776Y764235D01*
G37*
%LPD*%
%LPC*%
G36*
X280776Y764235D02*
X280776Y764235D01*
X277592Y765554D01*
X275154Y767992D01*
X273835Y771176D01*
X273835Y774624D01*
X275154Y777808D01*
X277592Y780246D01*
X280776Y781565D01*
X284224Y781565D01*
X287408Y780246D01*
X289846Y777808D01*
X291165Y774624D01*
X291165Y771176D01*
X289846Y767992D01*
X287408Y765554D01*
X284224Y764235D01*
X280776Y764235D01*
G37*
%LPD*%
%LPC*%
G36*
X280776Y784235D02*
X280776Y784235D01*
X277592Y785554D01*
X275154Y787992D01*
X273835Y791176D01*
X273835Y794624D01*
X275154Y797808D01*
X277592Y800246D01*
X280776Y801565D01*
X284224Y801565D01*
X287408Y800246D01*
X289846Y797808D01*
X291165Y794624D01*
X291165Y791176D01*
X289846Y787992D01*
X287408Y785554D01*
X284224Y784235D01*
X280776Y784235D01*
G37*
%LPD*%
%LPC*%
G36*
X728646Y696785D02*
X728646Y696785D01*
X725682Y698013D01*
X723413Y700282D01*
X722185Y703246D01*
X722185Y706454D01*
X723413Y709418D01*
X725682Y711687D01*
X728646Y712915D01*
X731854Y712915D01*
X734818Y711687D01*
X737087Y709418D01*
X738315Y706454D01*
X738315Y703246D01*
X737087Y700282D01*
X734818Y698013D01*
X731854Y696785D01*
X728646Y696785D01*
G37*
%LPD*%
%LPC*%
G36*
X595296Y550735D02*
X595296Y550735D01*
X592332Y551963D01*
X590063Y554232D01*
X588835Y557196D01*
X588835Y560404D01*
X590063Y563368D01*
X592332Y565637D01*
X595296Y566865D01*
X598504Y566865D01*
X601468Y565637D01*
X603737Y563368D01*
X604965Y560404D01*
X604965Y557196D01*
X603737Y554232D01*
X601468Y551963D01*
X598504Y550735D01*
X595296Y550735D01*
G37*
%LPD*%
%LPC*%
G36*
X728646Y849185D02*
X728646Y849185D01*
X725682Y850413D01*
X723413Y852682D01*
X722185Y855646D01*
X722185Y858854D01*
X723413Y861818D01*
X725682Y864087D01*
X728646Y865315D01*
X731854Y865315D01*
X734818Y864087D01*
X737087Y861818D01*
X738315Y858854D01*
X738315Y855646D01*
X737087Y852682D01*
X734818Y850413D01*
X731854Y849185D01*
X728646Y849185D01*
G37*
%LPD*%
%LPC*%
G36*
X842352Y337593D02*
X842352Y337593D01*
X839243Y340702D01*
X839243Y345098D01*
X841945Y347800D01*
X841987Y347858D01*
X842036Y347910D01*
X842058Y347957D01*
X842089Y348000D01*
X842110Y348068D01*
X842140Y348133D01*
X842146Y348185D01*
X842161Y348235D01*
X842159Y348306D01*
X842167Y348378D01*
X842156Y348429D01*
X842155Y348481D01*
X842130Y348548D01*
X842115Y348618D01*
X842088Y348663D01*
X842070Y348712D01*
X842025Y348768D01*
X841989Y348829D01*
X841949Y348863D01*
X841916Y348904D01*
X841856Y348942D01*
X841802Y348989D01*
X841753Y349009D01*
X841710Y349037D01*
X841640Y349054D01*
X841574Y349081D01*
X841502Y349089D01*
X841471Y349097D01*
X841448Y349095D01*
X841407Y349099D01*
X839888Y349099D01*
X836779Y352208D01*
X836779Y356604D01*
X839888Y359713D01*
X844284Y359713D01*
X847393Y356604D01*
X847393Y352208D01*
X844691Y349506D01*
X844649Y349448D01*
X844600Y349396D01*
X844578Y349349D01*
X844548Y349307D01*
X844526Y349238D01*
X844496Y349173D01*
X844491Y349121D01*
X844475Y349071D01*
X844477Y349000D01*
X844469Y348929D01*
X844480Y348878D01*
X844482Y348826D01*
X844506Y348758D01*
X844521Y348688D01*
X844548Y348643D01*
X844566Y348595D01*
X844611Y348539D01*
X844648Y348477D01*
X844687Y348443D01*
X844720Y348403D01*
X844780Y348364D01*
X844835Y348317D01*
X844883Y348298D01*
X844927Y348270D01*
X844996Y348252D01*
X845063Y348225D01*
X845134Y348217D01*
X845165Y348209D01*
X845188Y348211D01*
X845229Y348207D01*
X846748Y348207D01*
X849857Y345098D01*
X849857Y340702D01*
X846748Y337593D01*
X842352Y337593D01*
G37*
%LPD*%
%LPC*%
G36*
X893152Y396013D02*
X893152Y396013D01*
X890043Y399122D01*
X890043Y400719D01*
X890032Y400789D01*
X890030Y400861D01*
X890012Y400910D01*
X890004Y400961D01*
X889970Y401025D01*
X889945Y401092D01*
X889913Y401133D01*
X889888Y401179D01*
X889837Y401228D01*
X889792Y401284D01*
X889748Y401312D01*
X889710Y401348D01*
X889645Y401378D01*
X889585Y401417D01*
X889534Y401430D01*
X889487Y401452D01*
X889416Y401460D01*
X889346Y401477D01*
X889294Y401473D01*
X889243Y401479D01*
X889172Y401464D01*
X889101Y401458D01*
X889053Y401438D01*
X889002Y401427D01*
X888941Y401390D01*
X888875Y401362D01*
X888819Y401317D01*
X888791Y401300D01*
X888776Y401283D01*
X888744Y401257D01*
X888658Y401171D01*
X884262Y401171D01*
X881153Y404280D01*
X881153Y408676D01*
X884262Y411785D01*
X888658Y411785D01*
X891767Y408676D01*
X891767Y407079D01*
X891778Y407009D01*
X891780Y406937D01*
X891798Y406888D01*
X891806Y406837D01*
X891840Y406773D01*
X891865Y406706D01*
X891897Y406665D01*
X891922Y406619D01*
X891973Y406570D01*
X892018Y406514D01*
X892062Y406486D01*
X892100Y406450D01*
X892165Y406420D01*
X892225Y406381D01*
X892276Y406368D01*
X892323Y406346D01*
X892394Y406338D01*
X892464Y406321D01*
X892516Y406325D01*
X892567Y406319D01*
X892638Y406334D01*
X892709Y406340D01*
X892757Y406360D01*
X892808Y406371D01*
X892869Y406408D01*
X892935Y406436D01*
X892991Y406481D01*
X893019Y406498D01*
X893034Y406515D01*
X893066Y406541D01*
X893152Y406627D01*
X897548Y406627D01*
X900657Y403518D01*
X900657Y399122D01*
X897548Y396013D01*
X893152Y396013D01*
G37*
%LPD*%
%LPC*%
G36*
X795362Y352833D02*
X795362Y352833D01*
X792253Y355942D01*
X792253Y360338D01*
X795362Y363447D01*
X799758Y363447D01*
X801668Y361537D01*
X801684Y361526D01*
X801696Y361510D01*
X801784Y361454D01*
X801867Y361394D01*
X801886Y361388D01*
X801903Y361377D01*
X802004Y361352D01*
X802103Y361321D01*
X802122Y361322D01*
X802142Y361317D01*
X802245Y361325D01*
X802348Y361328D01*
X802367Y361334D01*
X802387Y361336D01*
X802482Y361376D01*
X802579Y361412D01*
X802595Y361425D01*
X802613Y361432D01*
X802744Y361537D01*
X804654Y363447D01*
X809050Y363447D01*
X812159Y360338D01*
X812159Y355942D01*
X809050Y352833D01*
X804654Y352833D01*
X802744Y354743D01*
X802728Y354754D01*
X802716Y354770D01*
X802628Y354826D01*
X802545Y354886D01*
X802526Y354892D01*
X802509Y354903D01*
X802408Y354928D01*
X802309Y354959D01*
X802290Y354958D01*
X802270Y354963D01*
X802167Y354955D01*
X802064Y354952D01*
X802045Y354946D01*
X802025Y354944D01*
X801930Y354904D01*
X801833Y354868D01*
X801817Y354855D01*
X801799Y354848D01*
X801668Y354743D01*
X799758Y352833D01*
X795362Y352833D01*
G37*
%LPD*%
%LPC*%
G36*
X786472Y456973D02*
X786472Y456973D01*
X783363Y460082D01*
X783363Y464478D01*
X785072Y466187D01*
X785083Y466203D01*
X785099Y466215D01*
X785155Y466303D01*
X785215Y466386D01*
X785221Y466405D01*
X785232Y466422D01*
X785257Y466523D01*
X785288Y466622D01*
X785287Y466641D01*
X785292Y466661D01*
X785284Y466764D01*
X785281Y466867D01*
X785275Y466886D01*
X785273Y466906D01*
X785233Y467001D01*
X785197Y467098D01*
X785184Y467114D01*
X785177Y467132D01*
X785072Y467263D01*
X783363Y468972D01*
X783363Y473368D01*
X786472Y476477D01*
X790868Y476477D01*
X793977Y473368D01*
X793977Y468972D01*
X792268Y467263D01*
X792257Y467247D01*
X792241Y467235D01*
X792185Y467147D01*
X792125Y467064D01*
X792119Y467045D01*
X792108Y467028D01*
X792083Y466927D01*
X792052Y466828D01*
X792053Y466809D01*
X792048Y466789D01*
X792056Y466686D01*
X792059Y466583D01*
X792065Y466564D01*
X792067Y466544D01*
X792107Y466449D01*
X792143Y466352D01*
X792156Y466336D01*
X792163Y466318D01*
X792268Y466187D01*
X793977Y464478D01*
X793977Y460082D01*
X790868Y456973D01*
X786472Y456973D01*
G37*
%LPD*%
%LPC*%
G36*
X859595Y65935D02*
X859595Y65935D01*
X856998Y67011D01*
X855011Y68998D01*
X853935Y71595D01*
X853935Y74405D01*
X855011Y77002D01*
X856998Y78989D01*
X859595Y80065D01*
X862405Y80065D01*
X865002Y78989D01*
X866989Y77002D01*
X868065Y74405D01*
X868065Y71595D01*
X866989Y68998D01*
X865002Y67011D01*
X862405Y65935D01*
X859595Y65935D01*
G37*
%LPD*%
%LPC*%
G36*
X777595Y65935D02*
X777595Y65935D01*
X774998Y67011D01*
X773011Y68998D01*
X771935Y71595D01*
X771935Y74405D01*
X773011Y77002D01*
X774998Y78989D01*
X777595Y80065D01*
X780405Y80065D01*
X783002Y78989D01*
X784989Y77002D01*
X786065Y74405D01*
X786065Y71595D01*
X784989Y68998D01*
X783002Y67011D01*
X780405Y65935D01*
X777595Y65935D01*
G37*
%LPD*%
%LPC*%
G36*
X258152Y77243D02*
X258152Y77243D01*
X255043Y80352D01*
X255043Y84748D01*
X258152Y87857D01*
X262548Y87857D01*
X265657Y84748D01*
X265657Y80352D01*
X262548Y77243D01*
X258152Y77243D01*
G37*
%LPD*%
%LPC*%
G36*
X258152Y51843D02*
X258152Y51843D01*
X255043Y54952D01*
X255043Y59348D01*
X258152Y62457D01*
X262548Y62457D01*
X265657Y59348D01*
X265657Y54952D01*
X262548Y51843D01*
X258152Y51843D01*
G37*
%LPD*%
%LPC*%
G36*
X253072Y655093D02*
X253072Y655093D01*
X249963Y658202D01*
X249963Y662598D01*
X253072Y665707D01*
X257468Y665707D01*
X260577Y662598D01*
X260577Y658202D01*
X257468Y655093D01*
X253072Y655093D01*
G37*
%LPD*%
%LPC*%
G36*
X258152Y733833D02*
X258152Y733833D01*
X255043Y736942D01*
X255043Y741338D01*
X258152Y744447D01*
X262548Y744447D01*
X265657Y741338D01*
X265657Y736942D01*
X262548Y733833D01*
X258152Y733833D01*
G37*
%LPD*%
%LPC*%
G36*
X234022Y689383D02*
X234022Y689383D01*
X230913Y692492D01*
X230913Y696888D01*
X234022Y699997D01*
X238418Y699997D01*
X241527Y696888D01*
X241527Y692492D01*
X238418Y689383D01*
X234022Y689383D01*
G37*
%LPD*%
%LPC*%
G36*
X273552Y674303D02*
X273552Y674303D01*
X270443Y677412D01*
X270443Y681808D01*
X273552Y684917D01*
X277948Y684917D01*
X281057Y681808D01*
X281057Y677412D01*
X277948Y674303D01*
X273552Y674303D01*
G37*
%LPD*%
%LPC*%
G36*
X912837Y673508D02*
X912837Y673508D01*
X909728Y676617D01*
X909728Y681013D01*
X912837Y684122D01*
X917233Y684122D01*
X920342Y681013D01*
X920342Y676617D01*
X917233Y673508D01*
X912837Y673508D01*
G37*
%LPD*%
%LPC*%
G36*
X956652Y667793D02*
X956652Y667793D01*
X953543Y670902D01*
X953543Y675298D01*
X956652Y678407D01*
X961048Y678407D01*
X964157Y675298D01*
X964157Y670902D01*
X961048Y667793D01*
X956652Y667793D01*
G37*
%LPD*%
%LPC*%
G36*
X512152Y661443D02*
X512152Y661443D01*
X509043Y664552D01*
X509043Y668948D01*
X512152Y672057D01*
X516548Y672057D01*
X519657Y668948D01*
X519657Y664552D01*
X516548Y661443D01*
X512152Y661443D01*
G37*
%LPD*%
%LPC*%
G36*
X408012Y648743D02*
X408012Y648743D01*
X404903Y651852D01*
X404903Y656248D01*
X408012Y659357D01*
X412408Y659357D01*
X415517Y656248D01*
X415517Y651852D01*
X412408Y648743D01*
X408012Y648743D01*
G37*
%LPD*%
%LPC*%
G36*
X358482Y633503D02*
X358482Y633503D01*
X355373Y636612D01*
X355373Y641008D01*
X358482Y644117D01*
X362878Y644117D01*
X365987Y641008D01*
X365987Y636612D01*
X362878Y633503D01*
X358482Y633503D01*
G37*
%LPD*%
%LPC*%
G36*
X869022Y629693D02*
X869022Y629693D01*
X865913Y632802D01*
X865913Y637198D01*
X869022Y640307D01*
X873418Y640307D01*
X876527Y637198D01*
X876527Y632802D01*
X873418Y629693D01*
X869022Y629693D01*
G37*
%LPD*%
%LPC*%
G36*
X538822Y629693D02*
X538822Y629693D01*
X535713Y632802D01*
X535713Y637198D01*
X538822Y640307D01*
X543218Y640307D01*
X546327Y637198D01*
X546327Y632802D01*
X543218Y629693D01*
X538822Y629693D01*
G37*
%LPD*%
%LPC*%
G36*
X380072Y623343D02*
X380072Y623343D01*
X376963Y626452D01*
X376963Y630848D01*
X380072Y633957D01*
X384468Y633957D01*
X387577Y630848D01*
X387577Y626452D01*
X384468Y623343D01*
X380072Y623343D01*
G37*
%LPD*%
%LPC*%
G36*
X538822Y610643D02*
X538822Y610643D01*
X535713Y613752D01*
X535713Y618148D01*
X538822Y621257D01*
X543218Y621257D01*
X546327Y618148D01*
X546327Y613752D01*
X543218Y610643D01*
X538822Y610643D01*
G37*
%LPD*%
%LPC*%
G36*
X869022Y604293D02*
X869022Y604293D01*
X865913Y607402D01*
X865913Y611798D01*
X869022Y614907D01*
X873418Y614907D01*
X876527Y611798D01*
X876527Y607402D01*
X873418Y604293D01*
X869022Y604293D01*
G37*
%LPD*%
%LPC*%
G36*
X841082Y604293D02*
X841082Y604293D01*
X837973Y607402D01*
X837973Y611798D01*
X841082Y614907D01*
X845478Y614907D01*
X848587Y611798D01*
X848587Y607402D01*
X845478Y604293D01*
X841082Y604293D01*
G37*
%LPD*%
%LPC*%
G36*
X734402Y604293D02*
X734402Y604293D01*
X731293Y607402D01*
X731293Y611798D01*
X734402Y614907D01*
X738798Y614907D01*
X741907Y611798D01*
X741907Y607402D01*
X738798Y604293D01*
X734402Y604293D01*
G37*
%LPD*%
%LPC*%
G36*
X214972Y597943D02*
X214972Y597943D01*
X211863Y601052D01*
X211863Y605448D01*
X214972Y608557D01*
X219368Y608557D01*
X222477Y605448D01*
X222477Y601052D01*
X219368Y597943D01*
X214972Y597943D01*
G37*
%LPD*%
%LPC*%
G36*
X869022Y591593D02*
X869022Y591593D01*
X865913Y594702D01*
X865913Y599098D01*
X869022Y602207D01*
X873418Y602207D01*
X876527Y599098D01*
X876527Y594702D01*
X873418Y591593D01*
X869022Y591593D01*
G37*
%LPD*%
%LPC*%
G36*
X493102Y585243D02*
X493102Y585243D01*
X489993Y588352D01*
X489993Y592748D01*
X493102Y595857D01*
X497498Y595857D01*
X500607Y592748D01*
X500607Y588352D01*
X497498Y585243D01*
X493102Y585243D01*
G37*
%LPD*%
%LPC*%
G36*
X957922Y578893D02*
X957922Y578893D01*
X954813Y582002D01*
X954813Y586398D01*
X957922Y589507D01*
X962318Y589507D01*
X965427Y586398D01*
X965427Y582002D01*
X962318Y578893D01*
X957922Y578893D01*
G37*
%LPD*%
%LPC*%
G36*
X753452Y558573D02*
X753452Y558573D01*
X750343Y561682D01*
X750343Y566078D01*
X753452Y569187D01*
X757848Y569187D01*
X760957Y566078D01*
X760957Y561682D01*
X757848Y558573D01*
X753452Y558573D01*
G37*
%LPD*%
%LPC*%
G36*
X512152Y540793D02*
X512152Y540793D01*
X509043Y543902D01*
X509043Y548298D01*
X512152Y551407D01*
X516548Y551407D01*
X519657Y548298D01*
X519657Y543902D01*
X516548Y540793D01*
X512152Y540793D01*
G37*
%LPD*%
%LPC*%
G36*
X721702Y534443D02*
X721702Y534443D01*
X718593Y537552D01*
X718593Y541948D01*
X721702Y545057D01*
X726098Y545057D01*
X729207Y541948D01*
X729207Y537552D01*
X726098Y534443D01*
X721702Y534443D01*
G37*
%LPD*%
%LPC*%
G36*
X889342Y534443D02*
X889342Y534443D01*
X886233Y537552D01*
X886233Y541948D01*
X889342Y545057D01*
X893738Y545057D01*
X896847Y541948D01*
X896847Y537552D01*
X893738Y534443D01*
X889342Y534443D01*
G37*
%LPD*%
%LPC*%
G36*
X615022Y515393D02*
X615022Y515393D01*
X611913Y518502D01*
X611913Y522898D01*
X615022Y526007D01*
X619418Y526007D01*
X622527Y522898D01*
X622527Y518502D01*
X619418Y515393D01*
X615022Y515393D01*
G37*
%LPD*%
%LPC*%
G36*
X615022Y496343D02*
X615022Y496343D01*
X611913Y499452D01*
X611913Y503848D01*
X615022Y506957D01*
X619418Y506957D01*
X622527Y503848D01*
X622527Y499452D01*
X619418Y496343D01*
X615022Y496343D01*
G37*
%LPD*%
%LPC*%
G36*
X461352Y496343D02*
X461352Y496343D01*
X458243Y499452D01*
X458243Y503848D01*
X461352Y506957D01*
X465748Y506957D01*
X468857Y503848D01*
X468857Y499452D01*
X465748Y496343D01*
X461352Y496343D01*
G37*
%LPD*%
%LPC*%
G36*
X615022Y477293D02*
X615022Y477293D01*
X611913Y480402D01*
X611913Y484798D01*
X615022Y487907D01*
X619418Y487907D01*
X622527Y484798D01*
X622527Y480402D01*
X619418Y477293D01*
X615022Y477293D01*
G37*
%LPD*%
%LPC*%
G36*
X832192Y473483D02*
X832192Y473483D01*
X829083Y476592D01*
X829083Y480988D01*
X832192Y484097D01*
X836588Y484097D01*
X839697Y480988D01*
X839697Y476592D01*
X836588Y473483D01*
X832192Y473483D01*
G37*
%LPD*%
%LPC*%
G36*
X275932Y470943D02*
X275932Y470943D01*
X272823Y474052D01*
X272823Y478448D01*
X275932Y481557D01*
X280328Y481557D01*
X283437Y478448D01*
X283437Y474052D01*
X280328Y470943D01*
X275932Y470943D01*
G37*
%LPD*%
%LPC*%
G36*
X429602Y413793D02*
X429602Y413793D01*
X426493Y416902D01*
X426493Y421298D01*
X429602Y424407D01*
X433998Y424407D01*
X437107Y421298D01*
X437107Y416902D01*
X433998Y413793D01*
X429602Y413793D01*
G37*
%LPD*%
%LPC*%
G36*
X797902Y411253D02*
X797902Y411253D01*
X794793Y414362D01*
X794793Y418758D01*
X797902Y421867D01*
X802298Y421867D01*
X805407Y418758D01*
X805407Y414362D01*
X802298Y411253D01*
X797902Y411253D01*
G37*
%LPD*%
%LPC*%
G36*
X239102Y394743D02*
X239102Y394743D01*
X235993Y397852D01*
X235993Y402248D01*
X239102Y405357D01*
X243498Y405357D01*
X246607Y402248D01*
X246607Y397852D01*
X243498Y394743D01*
X239102Y394743D01*
G37*
%LPD*%
%LPC*%
G36*
X339432Y393473D02*
X339432Y393473D01*
X336323Y396582D01*
X336323Y400978D01*
X339432Y404087D01*
X343828Y404087D01*
X346937Y400978D01*
X346937Y396582D01*
X343828Y393473D01*
X339432Y393473D01*
G37*
%LPD*%
%LPC*%
G36*
X761072Y388393D02*
X761072Y388393D01*
X757963Y391502D01*
X757963Y395898D01*
X761072Y399007D01*
X765468Y399007D01*
X768577Y395898D01*
X768577Y391502D01*
X765468Y388393D01*
X761072Y388393D01*
G37*
%LPD*%
%LPC*%
G36*
X416902Y369343D02*
X416902Y369343D01*
X413793Y372452D01*
X413793Y376848D01*
X416902Y379957D01*
X421298Y379957D01*
X424407Y376848D01*
X424407Y372452D01*
X421298Y369343D01*
X416902Y369343D01*
G37*
%LPD*%
%LPC*%
G36*
X779924Y352833D02*
X779924Y352833D01*
X776815Y355942D01*
X776815Y360338D01*
X779924Y363447D01*
X784320Y363447D01*
X787429Y360338D01*
X787429Y355942D01*
X784320Y352833D01*
X779924Y352833D01*
G37*
%LPD*%
%LPC*%
G36*
X822032Y352833D02*
X822032Y352833D01*
X818923Y355942D01*
X818923Y360338D01*
X822032Y363447D01*
X826428Y363447D01*
X829537Y360338D01*
X829537Y355942D01*
X826428Y352833D01*
X822032Y352833D01*
G37*
%LPD*%
%LPC*%
G36*
X626452Y342673D02*
X626452Y342673D01*
X623343Y345782D01*
X623343Y350178D01*
X626452Y353287D01*
X630848Y353287D01*
X633957Y350178D01*
X633957Y345782D01*
X630848Y342673D01*
X626452Y342673D01*
G37*
%LPD*%
%LPC*%
G36*
X816952Y337593D02*
X816952Y337593D01*
X813843Y340702D01*
X813843Y345098D01*
X816952Y348207D01*
X821348Y348207D01*
X824457Y345098D01*
X824457Y340702D01*
X821348Y337593D01*
X816952Y337593D01*
G37*
%LPD*%
%LPC*%
G36*
X804252Y337593D02*
X804252Y337593D01*
X801143Y340702D01*
X801143Y345098D01*
X804252Y348207D01*
X808648Y348207D01*
X811757Y345098D01*
X811757Y340702D01*
X808648Y337593D01*
X804252Y337593D01*
G37*
%LPD*%
%LPC*%
G36*
X531202Y324893D02*
X531202Y324893D01*
X528093Y328002D01*
X528093Y332398D01*
X531202Y335507D01*
X535598Y335507D01*
X538707Y332398D01*
X538707Y328002D01*
X535598Y324893D01*
X531202Y324893D01*
G37*
%LPD*%
%LPC*%
G36*
X486752Y324893D02*
X486752Y324893D01*
X483643Y328002D01*
X483643Y332398D01*
X486752Y335507D01*
X491148Y335507D01*
X494257Y332398D01*
X494257Y328002D01*
X491148Y324893D01*
X486752Y324893D01*
G37*
%LPD*%
%LPC*%
G36*
X251802Y307113D02*
X251802Y307113D01*
X248693Y310222D01*
X248693Y314618D01*
X251802Y317727D01*
X256198Y317727D01*
X259307Y314618D01*
X259307Y310222D01*
X256198Y307113D01*
X251802Y307113D01*
G37*
%LPD*%
%LPC*%
G36*
X924902Y307113D02*
X924902Y307113D01*
X921793Y310222D01*
X921793Y314618D01*
X924902Y317727D01*
X929298Y317727D01*
X932407Y314618D01*
X932407Y310222D01*
X929298Y307113D01*
X924902Y307113D01*
G37*
%LPD*%
%LPC*%
G36*
X372452Y304573D02*
X372452Y304573D01*
X369343Y307682D01*
X369343Y312078D01*
X372452Y315187D01*
X376848Y315187D01*
X379957Y312078D01*
X379957Y307682D01*
X376848Y304573D01*
X372452Y304573D01*
G37*
%LPD*%
%LPC*%
G36*
X905852Y304573D02*
X905852Y304573D01*
X902743Y307682D01*
X902743Y312078D01*
X905852Y315187D01*
X910248Y315187D01*
X913357Y312078D01*
X913357Y307682D01*
X910248Y304573D01*
X905852Y304573D01*
G37*
%LPD*%
%LPC*%
G36*
X855052Y280443D02*
X855052Y280443D01*
X851943Y283552D01*
X851943Y287948D01*
X855052Y291057D01*
X859448Y291057D01*
X862557Y287948D01*
X862557Y283552D01*
X859448Y280443D01*
X855052Y280443D01*
G37*
%LPD*%
%LPC*%
G36*
X264502Y274093D02*
X264502Y274093D01*
X261393Y277202D01*
X261393Y281598D01*
X264502Y284707D01*
X268898Y284707D01*
X272007Y281598D01*
X272007Y277202D01*
X268898Y274093D01*
X264502Y274093D01*
G37*
%LPD*%
%LPC*%
G36*
X842352Y267743D02*
X842352Y267743D01*
X839243Y270852D01*
X839243Y275248D01*
X842352Y278357D01*
X846748Y278357D01*
X849857Y275248D01*
X849857Y270852D01*
X846748Y267743D01*
X842352Y267743D01*
G37*
%LPD*%
%LPC*%
G36*
X804252Y242343D02*
X804252Y242343D01*
X801143Y245452D01*
X801143Y249848D01*
X804252Y252957D01*
X808648Y252957D01*
X811757Y249848D01*
X811757Y245452D01*
X808648Y242343D01*
X804252Y242343D01*
G37*
%LPD*%
%LPC*%
G36*
X201002Y134393D02*
X201002Y134393D01*
X197893Y137502D01*
X197893Y141898D01*
X201002Y145007D01*
X205398Y145007D01*
X208507Y141898D01*
X208507Y137502D01*
X205398Y134393D01*
X201002Y134393D01*
G37*
%LPD*%
%LPC*%
G36*
X886802Y204243D02*
X886802Y204243D01*
X883693Y207352D01*
X883693Y211748D01*
X886802Y214857D01*
X891198Y214857D01*
X894307Y211748D01*
X894307Y207352D01*
X891198Y204243D01*
X886802Y204243D01*
G37*
%LPD*%
%LPC*%
G36*
X893152Y191543D02*
X893152Y191543D01*
X890043Y194652D01*
X890043Y199048D01*
X893152Y202157D01*
X897548Y202157D01*
X900657Y199048D01*
X900657Y194652D01*
X897548Y191543D01*
X893152Y191543D01*
G37*
%LPD*%
%LPC*%
G36*
X315302Y185193D02*
X315302Y185193D01*
X312193Y188302D01*
X312193Y192698D01*
X315302Y195807D01*
X319698Y195807D01*
X322807Y192698D01*
X322807Y188302D01*
X319698Y185193D01*
X315302Y185193D01*
G37*
%LPD*%
%LPC*%
G36*
X213702Y185193D02*
X213702Y185193D01*
X210593Y188302D01*
X210593Y192698D01*
X213702Y195807D01*
X218098Y195807D01*
X221207Y192698D01*
X221207Y188302D01*
X218098Y185193D01*
X213702Y185193D01*
G37*
%LPD*%
%LPC*%
G36*
X188302Y185193D02*
X188302Y185193D01*
X185193Y188302D01*
X185193Y192698D01*
X188302Y195807D01*
X192698Y195807D01*
X195807Y192698D01*
X195807Y188302D01*
X192698Y185193D01*
X188302Y185193D01*
G37*
%LPD*%
%LPC*%
G36*
X785202Y178843D02*
X785202Y178843D01*
X782093Y181952D01*
X782093Y186348D01*
X785202Y189457D01*
X789598Y189457D01*
X792707Y186348D01*
X792707Y181952D01*
X789598Y178843D01*
X785202Y178843D01*
G37*
%LPD*%
%LPC*%
G36*
X778852Y134393D02*
X778852Y134393D01*
X775743Y137502D01*
X775743Y141898D01*
X778852Y145007D01*
X783248Y145007D01*
X786357Y141898D01*
X786357Y137502D01*
X783248Y134393D01*
X778852Y134393D01*
G37*
%LPD*%
%LPC*%
G36*
X315302Y134393D02*
X315302Y134393D01*
X312193Y137502D01*
X312193Y141898D01*
X315302Y145007D01*
X319698Y145007D01*
X322807Y141898D01*
X322807Y137502D01*
X319698Y134393D01*
X315302Y134393D01*
G37*
%LPD*%
%LPC*%
G36*
X264502Y134393D02*
X264502Y134393D01*
X261393Y137502D01*
X261393Y141898D01*
X264502Y145007D01*
X268898Y145007D01*
X272007Y141898D01*
X272007Y137502D01*
X268898Y134393D01*
X264502Y134393D01*
G37*
%LPD*%
%LPC*%
G36*
X137502Y134393D02*
X137502Y134393D01*
X134393Y137502D01*
X134393Y141898D01*
X137502Y145007D01*
X141898Y145007D01*
X145007Y141898D01*
X145007Y137502D01*
X141898Y134393D01*
X137502Y134393D01*
G37*
%LPD*%
%LPC*%
G36*
X824572Y126773D02*
X824572Y126773D01*
X821463Y129882D01*
X821463Y134278D01*
X824572Y137387D01*
X828968Y137387D01*
X832077Y134278D01*
X832077Y129882D01*
X828968Y126773D01*
X824572Y126773D01*
G37*
%LPD*%
%LPC*%
G36*
X80352Y108993D02*
X80352Y108993D01*
X77243Y112102D01*
X77243Y116498D01*
X80352Y119607D01*
X84748Y119607D01*
X87857Y116498D01*
X87857Y112102D01*
X84748Y108993D01*
X80352Y108993D01*
G37*
%LPD*%
%LPC*%
G36*
X195523Y32523D02*
X195523Y32523D01*
X195523Y42443D01*
X196702Y42257D01*
X198430Y41695D01*
X200049Y40871D01*
X201518Y39803D01*
X202803Y38518D01*
X203871Y37049D01*
X204695Y35430D01*
X205257Y33702D01*
X205443Y32523D01*
X195523Y32523D01*
G37*
%LPD*%
%LPC*%
G36*
X195523Y29477D02*
X195523Y29477D01*
X205443Y29477D01*
X205257Y28298D01*
X204695Y26570D01*
X203871Y24951D01*
X202803Y23482D01*
X201518Y22197D01*
X200049Y21129D01*
X198430Y20305D01*
X196702Y19743D01*
X195523Y19557D01*
X195523Y29477D01*
G37*
%LPD*%
%LPC*%
G36*
X515873Y385273D02*
X515873Y385273D01*
X515873Y394434D01*
X516877Y394275D01*
X518492Y393750D01*
X520005Y392979D01*
X521380Y391981D01*
X522581Y390780D01*
X523579Y389405D01*
X524350Y387892D01*
X524875Y386277D01*
X525034Y385273D01*
X515873Y385273D01*
G37*
%LPD*%
%LPC*%
G36*
X134873Y244273D02*
X134873Y244273D01*
X134873Y253434D01*
X135877Y253275D01*
X137492Y252750D01*
X139005Y251979D01*
X140380Y250981D01*
X141581Y249780D01*
X142579Y248405D01*
X143350Y246892D01*
X143875Y245277D01*
X144034Y244273D01*
X134873Y244273D01*
G37*
%LPD*%
%LPC*%
G36*
X592073Y261873D02*
X592073Y261873D01*
X592073Y271034D01*
X593077Y270875D01*
X594692Y270350D01*
X596205Y269579D01*
X597580Y268581D01*
X598781Y267380D01*
X599779Y266005D01*
X600550Y264492D01*
X601075Y262877D01*
X601234Y261873D01*
X592073Y261873D01*
G37*
%LPD*%
%LPC*%
G36*
X566673Y160273D02*
X566673Y160273D01*
X566673Y169434D01*
X567677Y169275D01*
X569292Y168750D01*
X570805Y167979D01*
X572180Y166981D01*
X573381Y165780D01*
X574379Y164405D01*
X575150Y162892D01*
X575675Y161277D01*
X575834Y160273D01*
X566673Y160273D01*
G37*
%LPD*%
%LPC*%
G36*
X592073Y258827D02*
X592073Y258827D01*
X601234Y258827D01*
X601075Y257823D01*
X600550Y256208D01*
X599779Y254695D01*
X598781Y253320D01*
X597580Y252119D01*
X596205Y251121D01*
X594692Y250350D01*
X593077Y249825D01*
X592073Y249666D01*
X592073Y258827D01*
G37*
%LPD*%
%LPC*%
G36*
X122666Y244273D02*
X122666Y244273D01*
X122825Y245277D01*
X123350Y246892D01*
X124121Y248405D01*
X125119Y249780D01*
X126320Y250981D01*
X127695Y251979D01*
X129208Y252750D01*
X130823Y253275D01*
X131827Y253434D01*
X131827Y244273D01*
X122666Y244273D01*
G37*
%LPD*%
%LPC*%
G36*
X503666Y385273D02*
X503666Y385273D01*
X503825Y386277D01*
X504350Y387892D01*
X505121Y389405D01*
X506119Y390780D01*
X507320Y391981D01*
X508695Y392979D01*
X510208Y393750D01*
X511823Y394275D01*
X512827Y394434D01*
X512827Y385273D01*
X503666Y385273D01*
G37*
%LPD*%
%LPC*%
G36*
X134873Y241227D02*
X134873Y241227D01*
X144034Y241227D01*
X143875Y240223D01*
X143350Y238608D01*
X142579Y237095D01*
X141581Y235720D01*
X140380Y234519D01*
X139005Y233521D01*
X137492Y232750D01*
X135877Y232225D01*
X134873Y232066D01*
X134873Y241227D01*
G37*
%LPD*%
%LPC*%
G36*
X579866Y261873D02*
X579866Y261873D01*
X580025Y262877D01*
X580550Y264492D01*
X581321Y266005D01*
X582319Y267380D01*
X583520Y268581D01*
X584895Y269579D01*
X586408Y270350D01*
X588023Y270875D01*
X589027Y271034D01*
X589027Y261873D01*
X579866Y261873D01*
G37*
%LPD*%
%LPC*%
G36*
X566673Y157227D02*
X566673Y157227D01*
X575834Y157227D01*
X575675Y156223D01*
X575150Y154608D01*
X574379Y153095D01*
X573381Y151720D01*
X572180Y150519D01*
X570805Y149521D01*
X569292Y148750D01*
X567677Y148225D01*
X566673Y148066D01*
X566673Y157227D01*
G37*
%LPD*%
%LPC*%
G36*
X515873Y382227D02*
X515873Y382227D01*
X525034Y382227D01*
X524875Y381223D01*
X524350Y379608D01*
X523579Y378095D01*
X522581Y376720D01*
X521380Y375519D01*
X520005Y374521D01*
X518492Y373750D01*
X516877Y373225D01*
X515873Y373066D01*
X515873Y382227D01*
G37*
%LPD*%
%LPC*%
G36*
X554466Y160273D02*
X554466Y160273D01*
X554625Y161277D01*
X555150Y162892D01*
X555921Y164405D01*
X556919Y165780D01*
X558120Y166981D01*
X559495Y167979D01*
X561008Y168750D01*
X562623Y169275D01*
X563627Y169434D01*
X563627Y160273D01*
X554466Y160273D01*
G37*
%LPD*%
%LPC*%
G36*
X588023Y249825D02*
X588023Y249825D01*
X586408Y250350D01*
X584895Y251121D01*
X583520Y252119D01*
X582319Y253320D01*
X581321Y254695D01*
X580550Y256208D01*
X580025Y257823D01*
X579866Y258827D01*
X589027Y258827D01*
X589027Y249666D01*
X588023Y249825D01*
G37*
%LPD*%
%LPC*%
G36*
X511823Y373225D02*
X511823Y373225D01*
X510208Y373750D01*
X508695Y374521D01*
X507320Y375519D01*
X506119Y376720D01*
X505121Y378095D01*
X504350Y379608D01*
X503825Y381223D01*
X503666Y382227D01*
X512827Y382227D01*
X512827Y373066D01*
X511823Y373225D01*
G37*
%LPD*%
%LPC*%
G36*
X562623Y148225D02*
X562623Y148225D01*
X561008Y148750D01*
X559495Y149521D01*
X558120Y150519D01*
X556919Y151720D01*
X555921Y153095D01*
X555150Y154608D01*
X554625Y156223D01*
X554466Y157227D01*
X563627Y157227D01*
X563627Y148066D01*
X562623Y148225D01*
G37*
%LPD*%
%LPC*%
G36*
X130823Y232225D02*
X130823Y232225D01*
X129208Y232750D01*
X127695Y233521D01*
X126320Y234519D01*
X125119Y235720D01*
X124121Y237095D01*
X123350Y238608D01*
X122825Y240223D01*
X122666Y241227D01*
X131827Y241227D01*
X131827Y232066D01*
X130823Y232225D01*
G37*
%LPD*%
%LPC*%
G36*
X903223Y496823D02*
X903223Y496823D01*
X903223Y505346D01*
X904079Y505211D01*
X905600Y504716D01*
X907025Y503990D01*
X908319Y503050D01*
X909450Y501919D01*
X910390Y500625D01*
X911116Y499200D01*
X911611Y497679D01*
X911746Y496823D01*
X903223Y496823D01*
G37*
%LPD*%
%LPC*%
G36*
X891654Y496823D02*
X891654Y496823D01*
X891789Y497679D01*
X892284Y499200D01*
X893010Y500625D01*
X893950Y501919D01*
X895081Y503050D01*
X896375Y503990D01*
X897800Y504716D01*
X899321Y505211D01*
X900177Y505346D01*
X900177Y496823D01*
X891654Y496823D01*
G37*
%LPD*%
%LPC*%
G36*
X903223Y493777D02*
X903223Y493777D01*
X911746Y493777D01*
X911611Y492921D01*
X911116Y491400D01*
X910390Y489975D01*
X909450Y488681D01*
X908319Y487550D01*
X907025Y486610D01*
X905600Y485884D01*
X904079Y485389D01*
X903223Y485254D01*
X903223Y493777D01*
G37*
%LPD*%
%LPC*%
G36*
X899321Y485389D02*
X899321Y485389D01*
X897800Y485884D01*
X896375Y486610D01*
X895081Y487550D01*
X893950Y488681D01*
X893010Y489975D01*
X892284Y491400D01*
X891789Y492921D01*
X891654Y493777D01*
X900177Y493777D01*
X900177Y485254D01*
X899321Y485389D01*
G37*
%LPD*%
%LPC*%
G36*
X796523Y41523D02*
X796523Y41523D01*
X796523Y49965D01*
X797361Y49833D01*
X798870Y49342D01*
X800283Y48622D01*
X801567Y47689D01*
X802689Y46567D01*
X803622Y45283D01*
X804342Y43870D01*
X804833Y42361D01*
X804965Y41523D01*
X796523Y41523D01*
G37*
%LPD*%
%LPC*%
G36*
X534923Y852423D02*
X534923Y852423D01*
X534923Y860865D01*
X535761Y860733D01*
X537270Y860242D01*
X538683Y859522D01*
X539967Y858589D01*
X541089Y857467D01*
X542022Y856183D01*
X542742Y854770D01*
X543233Y853261D01*
X543365Y852423D01*
X534923Y852423D01*
G37*
%LPD*%
%LPC*%
G36*
X484123Y763523D02*
X484123Y763523D01*
X484123Y771965D01*
X484961Y771833D01*
X486470Y771342D01*
X487883Y770622D01*
X489167Y769689D01*
X490289Y768567D01*
X491222Y767283D01*
X491942Y765870D01*
X492433Y764361D01*
X492565Y763523D01*
X484123Y763523D01*
G37*
%LPD*%
%LPC*%
G36*
X523435Y852423D02*
X523435Y852423D01*
X523567Y853261D01*
X524058Y854770D01*
X524778Y856183D01*
X525711Y857467D01*
X526833Y858589D01*
X528117Y859522D01*
X529530Y860242D01*
X531039Y860733D01*
X531877Y860865D01*
X531877Y852423D01*
X523435Y852423D01*
G37*
%LPD*%
%LPC*%
G36*
X421835Y763523D02*
X421835Y763523D01*
X421967Y764361D01*
X422458Y765870D01*
X423178Y767283D01*
X424111Y768567D01*
X425233Y769689D01*
X426517Y770622D01*
X427930Y771342D01*
X429439Y771833D01*
X430277Y771965D01*
X430277Y763523D01*
X421835Y763523D01*
G37*
%LPD*%
%LPC*%
G36*
X484123Y760477D02*
X484123Y760477D01*
X492565Y760477D01*
X492433Y759639D01*
X491942Y758130D01*
X491222Y756717D01*
X490289Y755433D01*
X489167Y754311D01*
X487883Y753378D01*
X486470Y752658D01*
X484961Y752167D01*
X484123Y752035D01*
X484123Y760477D01*
G37*
%LPD*%
%LPC*%
G36*
X785035Y41523D02*
X785035Y41523D01*
X785167Y42361D01*
X785658Y43870D01*
X786378Y45283D01*
X787311Y46567D01*
X788433Y47689D01*
X789717Y48622D01*
X791130Y49342D01*
X792639Y49833D01*
X793477Y49965D01*
X793477Y41523D01*
X785035Y41523D01*
G37*
%LPD*%
%LPC*%
G36*
X534923Y849377D02*
X534923Y849377D01*
X543365Y849377D01*
X543233Y848539D01*
X542742Y847030D01*
X542022Y845617D01*
X541089Y844333D01*
X539967Y843211D01*
X538683Y842278D01*
X537270Y841558D01*
X535761Y841067D01*
X534923Y840935D01*
X534923Y849377D01*
G37*
%LPD*%
%LPC*%
G36*
X421835Y852423D02*
X421835Y852423D01*
X421967Y853261D01*
X422458Y854770D01*
X423178Y856183D01*
X424111Y857467D01*
X425233Y858589D01*
X426517Y859522D01*
X427930Y860242D01*
X429439Y860733D01*
X430277Y860865D01*
X430277Y852423D01*
X421835Y852423D01*
G37*
%LPD*%
%LPC*%
G36*
X796523Y38477D02*
X796523Y38477D01*
X804965Y38477D01*
X804833Y37639D01*
X804342Y36130D01*
X803622Y34717D01*
X802689Y33433D01*
X801567Y32311D01*
X800283Y31378D01*
X798870Y30658D01*
X797361Y30167D01*
X796523Y30035D01*
X796523Y38477D01*
G37*
%LPD*%
%LPC*%
G36*
X429439Y752167D02*
X429439Y752167D01*
X427930Y752658D01*
X426517Y753378D01*
X425233Y754311D01*
X424111Y755433D01*
X423178Y756717D01*
X422458Y758130D01*
X421967Y759639D01*
X421835Y760477D01*
X430277Y760477D01*
X430277Y752035D01*
X429439Y752167D01*
G37*
%LPD*%
%LPC*%
G36*
X429439Y841067D02*
X429439Y841067D01*
X427930Y841558D01*
X426517Y842278D01*
X425233Y843211D01*
X424111Y844333D01*
X423178Y845617D01*
X422458Y847030D01*
X421967Y848539D01*
X421835Y849377D01*
X430277Y849377D01*
X430277Y840935D01*
X429439Y841067D01*
G37*
%LPD*%
%LPC*%
G36*
X531039Y841067D02*
X531039Y841067D01*
X529530Y841558D01*
X528117Y842278D01*
X526833Y843211D01*
X525711Y844333D01*
X524778Y845617D01*
X524058Y847030D01*
X523567Y848539D01*
X523435Y849377D01*
X531877Y849377D01*
X531877Y840935D01*
X531039Y841067D01*
G37*
%LPD*%
%LPC*%
G36*
X792639Y30167D02*
X792639Y30167D01*
X791130Y30658D01*
X789717Y31378D01*
X788433Y32311D01*
X787311Y33433D01*
X786378Y34717D01*
X785658Y36130D01*
X785167Y37639D01*
X785035Y38477D01*
X793477Y38477D01*
X793477Y30035D01*
X792639Y30167D01*
G37*
%LPD*%
%LPC*%
G36*
X259023Y794423D02*
X259023Y794423D01*
X259023Y802460D01*
X259767Y802342D01*
X261216Y801871D01*
X262574Y801180D01*
X263807Y800284D01*
X264884Y799207D01*
X265780Y797974D01*
X266471Y796616D01*
X266942Y795167D01*
X267060Y794423D01*
X259023Y794423D01*
G37*
%LPD*%
%LPC*%
G36*
X259023Y791377D02*
X259023Y791377D01*
X267060Y791377D01*
X266942Y790633D01*
X266471Y789184D01*
X265780Y787826D01*
X264884Y786593D01*
X263807Y785516D01*
X262574Y784620D01*
X261216Y783929D01*
X259767Y783458D01*
X259023Y783340D01*
X259023Y791377D01*
G37*
%LPD*%
%LPC*%
G36*
X247940Y794423D02*
X247940Y794423D01*
X248058Y795167D01*
X248529Y796616D01*
X249220Y797974D01*
X250116Y799207D01*
X251193Y800284D01*
X252426Y801180D01*
X253784Y801871D01*
X255233Y802342D01*
X255977Y802460D01*
X255977Y794423D01*
X247940Y794423D01*
G37*
%LPD*%
%LPC*%
G36*
X255233Y783458D02*
X255233Y783458D01*
X253784Y783929D01*
X252426Y784620D01*
X251193Y785516D01*
X250116Y786593D01*
X249220Y787826D01*
X248529Y789184D01*
X248058Y790633D01*
X247940Y791377D01*
X255977Y791377D01*
X255977Y783340D01*
X255233Y783458D01*
G37*
%LPD*%
%LPC*%
G36*
X731773Y782573D02*
X731773Y782573D01*
X731773Y790006D01*
X732899Y789782D01*
X734551Y789097D01*
X736039Y788103D01*
X737303Y786839D01*
X738297Y785351D01*
X738982Y783699D01*
X739206Y782573D01*
X731773Y782573D01*
G37*
%LPD*%
%LPC*%
G36*
X721294Y782573D02*
X721294Y782573D01*
X721518Y783699D01*
X722203Y785351D01*
X723197Y786839D01*
X724461Y788103D01*
X725949Y789097D01*
X727601Y789782D01*
X728727Y790006D01*
X728727Y782573D01*
X721294Y782573D01*
G37*
%LPD*%
%LPC*%
G36*
X731773Y779527D02*
X731773Y779527D01*
X739206Y779527D01*
X738982Y778401D01*
X738297Y776749D01*
X737303Y775261D01*
X736039Y773997D01*
X734551Y773003D01*
X732899Y772318D01*
X731773Y772094D01*
X731773Y779527D01*
G37*
%LPD*%
%LPC*%
G36*
X727601Y772318D02*
X727601Y772318D01*
X725949Y773003D01*
X724461Y773997D01*
X723197Y775261D01*
X722203Y776749D01*
X721518Y778401D01*
X721294Y779527D01*
X728727Y779527D01*
X728727Y772094D01*
X727601Y772318D01*
G37*
%LPD*%
%LPC*%
G36*
X133349Y242749D02*
X133349Y242749D01*
X133349Y242751D01*
X133351Y242751D01*
X133351Y242749D01*
X133349Y242749D01*
G37*
%LPD*%
%LPC*%
G36*
X730249Y781049D02*
X730249Y781049D01*
X730249Y781051D01*
X730251Y781051D01*
X730251Y781049D01*
X730249Y781049D01*
G37*
%LPD*%
%LPC*%
G36*
X514349Y383749D02*
X514349Y383749D01*
X514349Y383751D01*
X514351Y383751D01*
X514351Y383749D01*
X514349Y383749D01*
G37*
%LPD*%
%LPC*%
G36*
X901699Y495299D02*
X901699Y495299D01*
X901699Y495301D01*
X901701Y495301D01*
X901701Y495299D01*
X901699Y495299D01*
G37*
%LPD*%
%LPC*%
G36*
X257499Y792899D02*
X257499Y792899D01*
X257499Y792901D01*
X257501Y792901D01*
X257501Y792899D01*
X257499Y792899D01*
G37*
%LPD*%
%LPC*%
G36*
X590549Y260349D02*
X590549Y260349D01*
X590549Y260351D01*
X590551Y260351D01*
X590551Y260349D01*
X590549Y260349D01*
G37*
%LPD*%
%LPC*%
G36*
X565149Y158749D02*
X565149Y158749D01*
X565149Y158751D01*
X565151Y158751D01*
X565151Y158749D01*
X565149Y158749D01*
G37*
%LPD*%
%LPC*%
G36*
X794999Y39999D02*
X794999Y39999D01*
X794999Y40001D01*
X795001Y40001D01*
X795001Y39999D01*
X794999Y39999D01*
G37*
%LPD*%
%LPC*%
G36*
X533399Y850899D02*
X533399Y850899D01*
X533399Y850901D01*
X533401Y850901D01*
X533401Y850899D01*
X533399Y850899D01*
G37*
%LPD*%
D10*
X431800Y762000D03*
X406400Y762000D03*
X482600Y762000D03*
X533400Y762000D03*
X431800Y850900D03*
X406400Y850900D03*
X482600Y850900D03*
X533400Y850900D03*
D11*
X330200Y820000D03*
X209800Y820000D03*
D12*
X282500Y772900D03*
X282500Y792900D03*
X257500Y772900D03*
X257500Y792900D03*
D13*
X133350Y242750D03*
X514350Y383750D03*
D14*
X730250Y704850D03*
X730250Y781050D03*
X730250Y857250D03*
X596900Y558800D03*
D10*
X845000Y40000D03*
X795000Y40000D03*
X820000Y40000D03*
D15*
X861000Y73000D03*
X779000Y73000D03*
D16*
X876300Y495300D03*
X901700Y495300D03*
X927100Y495300D03*
X952500Y495300D03*
D13*
X565150Y311150D03*
X565150Y285750D03*
X565150Y260350D03*
X590550Y311150D03*
X590550Y285750D03*
X590550Y260350D03*
X565150Y234950D03*
X590550Y234950D03*
X565150Y209550D03*
X590550Y209550D03*
X565150Y184150D03*
X565150Y158750D03*
X590550Y184150D03*
X590550Y158750D03*
D17*
X146000Y51000D03*
X194000Y101000D03*
X194000Y31000D03*
D18*
X483870Y603250D03*
X541020Y654050D03*
X681990Y342900D03*
X715010Y342900D03*
X651510Y431800D03*
X651510Y444500D03*
X750570Y488950D03*
X750570Y501650D03*
X750570Y514350D03*
X787400Y519430D03*
X768350Y519430D03*
X746760Y393700D03*
X960120Y609600D03*
X960120Y596900D03*
X806450Y768350D03*
X628650Y781050D03*
X641350Y781050D03*
X654050Y781050D03*
X786740Y539090D03*
X241300Y346710D03*
X298450Y360680D03*
X317500Y236220D03*
X241300Y438150D03*
X228600Y400050D03*
X431800Y501650D03*
X259080Y266700D03*
X628650Y673100D03*
X628650Y647700D03*
X666750Y629920D03*
X717550Y635000D03*
X646430Y552450D03*
X755650Y604520D03*
X723900Y552450D03*
X793750Y647700D03*
X692150Y749300D03*
X946150Y342900D03*
X431800Y433070D03*
X458470Y330200D03*
X781050Y768350D03*
X831850Y768350D03*
X806450Y302260D03*
X819150Y302260D03*
X857250Y358140D03*
X802640Y447040D03*
X933450Y407670D03*
X800100Y406400D03*
X463550Y292100D03*
X482600Y292100D03*
X25400Y88900D03*
X25400Y114300D03*
X25400Y139700D03*
X25400Y165100D03*
X25400Y190500D03*
X25400Y215900D03*
X25400Y241300D03*
X25400Y266700D03*
X25400Y292100D03*
X25400Y317500D03*
X25400Y342900D03*
X25400Y368300D03*
X25400Y393700D03*
X25400Y419100D03*
X25400Y444500D03*
X25400Y469900D03*
X25400Y546100D03*
X50800Y546100D03*
X76200Y546100D03*
X101600Y546100D03*
X127000Y546100D03*
X152400Y546100D03*
X88900Y25400D03*
X114300Y25400D03*
X266700Y25400D03*
X292100Y25400D03*
X317500Y25400D03*
X342900Y25400D03*
X368300Y25400D03*
X393700Y25400D03*
X419100Y25400D03*
X444500Y25400D03*
X469900Y25400D03*
X495300Y25400D03*
X520700Y25400D03*
X546100Y25400D03*
X571500Y25400D03*
X596900Y25400D03*
X622300Y25400D03*
X647700Y25400D03*
X673100Y25400D03*
X698500Y25400D03*
X723900Y25400D03*
X749300Y25400D03*
X889000Y25400D03*
X914400Y25400D03*
X977900Y88900D03*
X977900Y114300D03*
X977900Y139700D03*
X977900Y165100D03*
X977900Y190500D03*
X977900Y215900D03*
X977900Y241300D03*
X977900Y266700D03*
X977900Y736600D03*
X977900Y762000D03*
X977900Y787400D03*
X977900Y812800D03*
X977900Y711200D03*
X914400Y876300D03*
X889000Y876300D03*
X863600Y876300D03*
X838200Y876300D03*
X812800Y876300D03*
X787400Y876300D03*
X762000Y876300D03*
X942616Y324126D03*
X927100Y266700D03*
X269240Y224790D03*
X241300Y285750D03*
X207010Y491490D03*
X152400Y355600D03*
X152400Y330200D03*
X152400Y304800D03*
X152400Y279400D03*
X152400Y254000D03*
X152400Y228600D03*
X152400Y203200D03*
X165100Y190500D03*
X177800Y177800D03*
X228600Y177800D03*
X254000Y177800D03*
X279400Y177800D03*
X304800Y177800D03*
X330200Y177800D03*
X355600Y177800D03*
X381000Y177800D03*
X406400Y177800D03*
X431800Y177800D03*
X457200Y177800D03*
X469900Y190500D03*
X482600Y203200D03*
X495300Y215900D03*
X495300Y241300D03*
X495300Y266700D03*
X495300Y292100D03*
X495300Y317500D03*
X495300Y342900D03*
X495300Y368300D03*
X495300Y393700D03*
X495300Y419100D03*
X495300Y444500D03*
X495300Y469900D03*
X495300Y495300D03*
X152400Y400050D03*
X152400Y438150D03*
X152400Y463550D03*
X165100Y476250D03*
X177800Y488950D03*
X190500Y501650D03*
X215900Y501650D03*
X241300Y501650D03*
X266700Y501650D03*
X292100Y501650D03*
X317500Y501650D03*
X342900Y501650D03*
X368300Y501650D03*
X400050Y501650D03*
X278130Y476250D03*
X463550Y501650D03*
X266700Y279400D03*
X763270Y393700D03*
X863600Y381000D03*
X872490Y381000D03*
X881380Y381000D03*
X617220Y482600D03*
X617220Y501650D03*
X617220Y520700D03*
X628650Y347980D03*
X960120Y584200D03*
X755650Y563880D03*
X723900Y539750D03*
X697230Y591820D03*
X706120Y586740D03*
X715010Y591820D03*
X723900Y586740D03*
X788670Y471170D03*
X788670Y462280D03*
X806450Y342900D03*
X819150Y342900D03*
X908050Y309880D03*
X736600Y609600D03*
X217170Y603250D03*
X275750Y679610D03*
X255270Y660400D03*
X236220Y694690D03*
X260350Y739140D03*
X410210Y654050D03*
X254000Y312420D03*
X374650Y309880D03*
X139700Y139700D03*
X260350Y82550D03*
X514350Y666750D03*
X927100Y312420D03*
X431800Y419100D03*
X514350Y546100D03*
X541020Y615950D03*
X958850Y673100D03*
X541020Y635000D03*
X915035Y678815D03*
X82550Y114300D03*
X260350Y57150D03*
X241300Y400050D03*
X341630Y398780D03*
X419100Y374650D03*
X495300Y590550D03*
X132080Y825500D03*
X132080Y806450D03*
X214630Y622300D03*
X260350Y722630D03*
X279400Y722630D03*
X204470Y679450D03*
X204470Y660400D03*
X295979Y664141D03*
X364490Y654050D03*
X233680Y749300D03*
X278130Y739140D03*
X318770Y739140D03*
X360680Y638810D03*
X382270Y628650D03*
X800100Y416560D03*
X871220Y635000D03*
X834390Y478790D03*
X203200Y139700D03*
X190500Y190500D03*
X266700Y139700D03*
X215900Y190500D03*
X843280Y609600D03*
X871220Y609600D03*
X891540Y539750D03*
X871220Y596900D03*
X824230Y358140D03*
X826770Y132080D03*
X488950Y330200D03*
X533400Y330200D03*
X844550Y342900D03*
X844550Y273050D03*
X857250Y285750D03*
X842086Y354406D03*
X787400Y184150D03*
X797560Y358140D03*
X806450Y247650D03*
X806852Y358140D03*
X895350Y196850D03*
X895350Y401320D03*
X889000Y209550D03*
X886460Y406478D03*
X781050Y139700D03*
X782122Y358140D03*
X317500Y190500D03*
X317500Y139700D03*
M02*
