G04 EAGLE Gerber RS-274X export*
G75*
%MOMM*%
%FSLAX34Y34*%
%LPD*%
%INCopper Layer 15*%
%IPPOS*%
%AMOC8*
5,1,8,0,0,1.08239X$1,22.5*%
G01*
%ADD10C,1.508000*%
%ADD11C,3.316000*%
%ADD12C,1.428000*%
%ADD13C,1.650000*%
%ADD14C,1.308000*%
%ADD15C,1.108000*%
%ADD16C,1.524000*%
%ADD17C,1.800000*%
%ADD18C,0.756400*%
%ADD19C,0.812800*%
%ADD20C,0.152400*%

G36*
X989098Y10164D02*
X989098Y10164D01*
X989117Y10162D01*
X989219Y10184D01*
X989321Y10200D01*
X989338Y10210D01*
X989358Y10214D01*
X989447Y10267D01*
X989538Y10316D01*
X989552Y10330D01*
X989569Y10340D01*
X989636Y10419D01*
X989708Y10494D01*
X989716Y10512D01*
X989729Y10527D01*
X989768Y10623D01*
X989811Y10717D01*
X989813Y10737D01*
X989821Y10755D01*
X989839Y10922D01*
X989839Y279400D01*
X989836Y279420D01*
X989838Y279439D01*
X989816Y279541D01*
X989800Y279643D01*
X989790Y279660D01*
X989786Y279680D01*
X989733Y279769D01*
X989684Y279860D01*
X989670Y279874D01*
X989660Y279891D01*
X989581Y279958D01*
X989506Y280030D01*
X989488Y280038D01*
X989473Y280051D01*
X989377Y280090D01*
X989283Y280133D01*
X989263Y280135D01*
X989245Y280143D01*
X989078Y280161D01*
X897381Y280161D01*
X897381Y391160D01*
X897378Y391180D01*
X897380Y391199D01*
X897358Y391301D01*
X897342Y391403D01*
X897332Y391420D01*
X897328Y391440D01*
X897275Y391529D01*
X897226Y391620D01*
X897212Y391634D01*
X897202Y391651D01*
X897123Y391718D01*
X897048Y391790D01*
X897030Y391798D01*
X897015Y391811D01*
X896919Y391850D01*
X896825Y391893D01*
X896805Y391895D01*
X896787Y391903D01*
X896620Y391921D01*
X850900Y391921D01*
X850880Y391918D01*
X850861Y391920D01*
X850759Y391898D01*
X850657Y391882D01*
X850640Y391872D01*
X850620Y391868D01*
X850531Y391815D01*
X850440Y391766D01*
X850426Y391752D01*
X850409Y391742D01*
X850342Y391663D01*
X850271Y391588D01*
X850262Y391570D01*
X850249Y391555D01*
X850210Y391459D01*
X850167Y391365D01*
X850165Y391345D01*
X850157Y391327D01*
X850139Y391160D01*
X850139Y390651D01*
X778825Y390651D01*
X767618Y401858D01*
X767544Y401911D01*
X767475Y401971D01*
X767445Y401983D01*
X767419Y402002D01*
X767332Y402029D01*
X767247Y402063D01*
X767206Y402067D01*
X767183Y402074D01*
X767151Y402073D01*
X767080Y402081D01*
X759460Y402081D01*
X759370Y402067D01*
X759279Y402059D01*
X759249Y402047D01*
X759217Y402042D01*
X759137Y401999D01*
X759053Y401963D01*
X759021Y401937D01*
X759000Y401926D01*
X758978Y401903D01*
X758922Y401858D01*
X755112Y398048D01*
X755059Y397974D01*
X754999Y397905D01*
X754987Y397875D01*
X754968Y397849D01*
X754941Y397762D01*
X754907Y397677D01*
X754903Y397636D01*
X754896Y397613D01*
X754897Y397581D01*
X754889Y397510D01*
X754889Y387350D01*
X754904Y387260D01*
X754911Y387169D01*
X754923Y387139D01*
X754929Y387107D01*
X754971Y387027D01*
X755007Y386943D01*
X755033Y386911D01*
X755044Y386890D01*
X755067Y386868D01*
X755081Y386850D01*
X755087Y386840D01*
X755093Y386835D01*
X755112Y386812D01*
X774162Y367762D01*
X774236Y367709D01*
X774305Y367649D01*
X774335Y367637D01*
X774361Y367618D01*
X774448Y367591D01*
X774533Y367557D01*
X774574Y367553D01*
X774597Y367546D01*
X774629Y367547D01*
X774700Y367539D01*
X850139Y367539D01*
X850139Y362527D01*
X850150Y362456D01*
X850152Y362384D01*
X850170Y362335D01*
X850179Y362284D01*
X850212Y362221D01*
X850237Y362153D01*
X850269Y362113D01*
X850294Y362067D01*
X850346Y362017D01*
X850390Y361961D01*
X850434Y361933D01*
X850472Y361897D01*
X850537Y361867D01*
X850597Y361828D01*
X850648Y361815D01*
X850695Y361794D01*
X850766Y361786D01*
X850836Y361768D01*
X850888Y361772D01*
X850939Y361766D01*
X851010Y361782D01*
X851081Y361787D01*
X851129Y361808D01*
X851180Y361819D01*
X851241Y361856D01*
X851307Y361884D01*
X851363Y361928D01*
X851391Y361945D01*
X851406Y361963D01*
X851438Y361988D01*
X853381Y363931D01*
X855891Y364971D01*
X858609Y364971D01*
X861119Y363931D01*
X863041Y362009D01*
X864081Y359499D01*
X864081Y356781D01*
X863041Y354271D01*
X861119Y352349D01*
X858609Y351309D01*
X855891Y351309D01*
X853381Y352349D01*
X851438Y354292D01*
X851380Y354333D01*
X851328Y354383D01*
X851281Y354405D01*
X851239Y354435D01*
X851170Y354456D01*
X851105Y354486D01*
X851053Y354492D01*
X851003Y354508D01*
X850932Y354506D01*
X850861Y354514D01*
X850810Y354502D01*
X850758Y354501D01*
X850690Y354477D01*
X850620Y354461D01*
X850576Y354435D01*
X850527Y354417D01*
X850471Y354372D01*
X850409Y354335D01*
X850375Y354296D01*
X850335Y354263D01*
X850296Y354203D01*
X850249Y354148D01*
X850230Y354100D01*
X850202Y354056D01*
X850184Y353987D01*
X850157Y353920D01*
X850149Y353849D01*
X850141Y353818D01*
X850143Y353794D01*
X850139Y353753D01*
X850139Y347287D01*
X850154Y347197D01*
X850161Y347106D01*
X850173Y347076D01*
X850179Y347044D01*
X850221Y346963D01*
X850257Y346879D01*
X850283Y346847D01*
X850294Y346827D01*
X850317Y346804D01*
X850336Y346780D01*
X851381Y344259D01*
X851381Y341541D01*
X850333Y339011D01*
X850309Y338978D01*
X850249Y338908D01*
X850237Y338878D01*
X850218Y338852D01*
X850191Y338765D01*
X850157Y338680D01*
X850153Y338639D01*
X850146Y338617D01*
X850147Y338585D01*
X850139Y338513D01*
X850139Y290137D01*
X850150Y290066D01*
X850152Y289994D01*
X850170Y289945D01*
X850179Y289894D01*
X850212Y289831D01*
X850237Y289763D01*
X850269Y289723D01*
X850294Y289677D01*
X850346Y289627D01*
X850390Y289571D01*
X850434Y289543D01*
X850472Y289507D01*
X850537Y289477D01*
X850597Y289438D01*
X850648Y289425D01*
X850695Y289404D01*
X850766Y289396D01*
X850836Y289378D01*
X850888Y289382D01*
X850939Y289376D01*
X851010Y289392D01*
X851081Y289397D01*
X851129Y289418D01*
X851180Y289429D01*
X851241Y289466D01*
X851307Y289494D01*
X851363Y289538D01*
X851391Y289555D01*
X851406Y289573D01*
X851438Y289598D01*
X853381Y291541D01*
X855891Y292581D01*
X858609Y292581D01*
X861119Y291541D01*
X863041Y289619D01*
X864081Y287109D01*
X864081Y284391D01*
X863041Y281881D01*
X861119Y279959D01*
X858609Y278919D01*
X855891Y278919D01*
X853381Y279959D01*
X851459Y281881D01*
X850788Y283501D01*
X850726Y283601D01*
X850666Y283701D01*
X850662Y283705D01*
X850658Y283710D01*
X850568Y283785D01*
X850479Y283861D01*
X850474Y283863D01*
X850469Y283867D01*
X850360Y283909D01*
X850251Y283953D01*
X850244Y283954D01*
X850239Y283955D01*
X850221Y283956D01*
X850085Y283971D01*
X616711Y283971D01*
X616711Y342900D01*
X616708Y342920D01*
X616710Y342939D01*
X616688Y343041D01*
X616672Y343143D01*
X616662Y343160D01*
X616658Y343180D01*
X616605Y343269D01*
X616556Y343360D01*
X616542Y343374D01*
X616532Y343391D01*
X616453Y343458D01*
X616378Y343530D01*
X616360Y343538D01*
X616345Y343551D01*
X616249Y343590D01*
X616155Y343633D01*
X616135Y343635D01*
X616117Y343643D01*
X615950Y343661D01*
X546861Y343661D01*
X546861Y558800D01*
X546858Y558820D01*
X546860Y558839D01*
X546838Y558941D01*
X546822Y559043D01*
X546812Y559060D01*
X546808Y559080D01*
X546755Y559169D01*
X546706Y559260D01*
X546692Y559274D01*
X546682Y559291D01*
X546603Y559358D01*
X546528Y559430D01*
X546510Y559438D01*
X546495Y559451D01*
X546399Y559490D01*
X546305Y559533D01*
X546285Y559535D01*
X546267Y559543D01*
X546100Y559561D01*
X522224Y559561D01*
X522204Y559558D01*
X522185Y559560D01*
X522083Y559538D01*
X521981Y559522D01*
X521964Y559512D01*
X521944Y559508D01*
X521855Y559455D01*
X521764Y559406D01*
X521750Y559392D01*
X521733Y559382D01*
X521666Y559303D01*
X521594Y559228D01*
X521586Y559210D01*
X521573Y559195D01*
X521534Y559099D01*
X521491Y559005D01*
X521489Y558985D01*
X521481Y558967D01*
X521463Y558800D01*
X521463Y544685D01*
X520380Y542071D01*
X518272Y539963D01*
X488737Y510428D01*
X486629Y508320D01*
X484015Y507237D01*
X437711Y507237D01*
X437640Y507226D01*
X437568Y507224D01*
X437519Y507206D01*
X437468Y507198D01*
X437405Y507164D01*
X437337Y507139D01*
X437296Y507107D01*
X437251Y507082D01*
X437201Y507030D01*
X437145Y506986D01*
X437117Y506942D01*
X437081Y506904D01*
X437051Y506839D01*
X437012Y506779D01*
X436999Y506728D01*
X436978Y506681D01*
X436970Y506610D01*
X436952Y506540D01*
X436956Y506488D01*
X436950Y506437D01*
X436966Y506366D01*
X436971Y506295D01*
X436992Y506247D01*
X437003Y506196D01*
X437039Y506135D01*
X437068Y506069D01*
X437112Y506013D01*
X437129Y505985D01*
X437147Y505970D01*
X437172Y505938D01*
X437591Y505519D01*
X438631Y503009D01*
X438631Y500291D01*
X437591Y497781D01*
X435669Y495859D01*
X433159Y494819D01*
X430441Y494819D01*
X427931Y495859D01*
X426009Y497781D01*
X424969Y500291D01*
X424969Y503009D01*
X426009Y505519D01*
X426428Y505938D01*
X426470Y505996D01*
X426519Y506048D01*
X426541Y506095D01*
X426571Y506137D01*
X426592Y506206D01*
X426622Y506271D01*
X426628Y506323D01*
X426644Y506373D01*
X426642Y506444D01*
X426650Y506515D01*
X426639Y506566D01*
X426637Y506618D01*
X426613Y506686D01*
X426597Y506756D01*
X426571Y506801D01*
X426553Y506849D01*
X426508Y506905D01*
X426471Y506967D01*
X426432Y507001D01*
X426399Y507041D01*
X426339Y507080D01*
X426284Y507127D01*
X426236Y507146D01*
X426192Y507174D01*
X426123Y507192D01*
X426056Y507219D01*
X425985Y507227D01*
X425954Y507235D01*
X425930Y507233D01*
X425889Y507237D01*
X405961Y507237D01*
X405890Y507226D01*
X405818Y507224D01*
X405769Y507206D01*
X405718Y507198D01*
X405655Y507164D01*
X405587Y507139D01*
X405546Y507107D01*
X405501Y507082D01*
X405451Y507030D01*
X405395Y506986D01*
X405367Y506942D01*
X405331Y506904D01*
X405301Y506839D01*
X405262Y506779D01*
X405249Y506728D01*
X405228Y506681D01*
X405220Y506610D01*
X405202Y506540D01*
X405206Y506488D01*
X405200Y506437D01*
X405216Y506366D01*
X405221Y506295D01*
X405242Y506247D01*
X405253Y506196D01*
X405289Y506135D01*
X405318Y506069D01*
X405362Y506013D01*
X405379Y505985D01*
X405397Y505970D01*
X405422Y505938D01*
X405841Y505519D01*
X406881Y503009D01*
X406881Y500291D01*
X405841Y497781D01*
X403919Y495859D01*
X401409Y494819D01*
X398691Y494819D01*
X396181Y495859D01*
X394259Y497781D01*
X393219Y500291D01*
X393219Y503009D01*
X394259Y505519D01*
X394678Y505938D01*
X394720Y505996D01*
X394769Y506048D01*
X394791Y506095D01*
X394821Y506137D01*
X394842Y506206D01*
X394872Y506271D01*
X394878Y506323D01*
X394894Y506373D01*
X394892Y506444D01*
X394900Y506515D01*
X394889Y506566D01*
X394887Y506618D01*
X394863Y506686D01*
X394847Y506756D01*
X394821Y506801D01*
X394803Y506849D01*
X394758Y506905D01*
X394721Y506967D01*
X394682Y507001D01*
X394649Y507041D01*
X394589Y507080D01*
X394534Y507127D01*
X394486Y507146D01*
X394442Y507174D01*
X394373Y507192D01*
X394306Y507219D01*
X394235Y507227D01*
X394204Y507235D01*
X394180Y507233D01*
X394139Y507237D01*
X374211Y507237D01*
X374140Y507226D01*
X374068Y507224D01*
X374019Y507206D01*
X373968Y507198D01*
X373905Y507164D01*
X373837Y507139D01*
X373796Y507107D01*
X373751Y507082D01*
X373701Y507030D01*
X373645Y506986D01*
X373617Y506942D01*
X373581Y506904D01*
X373551Y506839D01*
X373512Y506779D01*
X373499Y506728D01*
X373478Y506681D01*
X373470Y506610D01*
X373452Y506540D01*
X373456Y506488D01*
X373450Y506437D01*
X373466Y506366D01*
X373471Y506295D01*
X373492Y506247D01*
X373503Y506196D01*
X373539Y506135D01*
X373568Y506069D01*
X373612Y506013D01*
X373629Y505985D01*
X373647Y505970D01*
X373672Y505938D01*
X374091Y505519D01*
X375131Y503009D01*
X375131Y500291D01*
X374091Y497781D01*
X372169Y495859D01*
X369659Y494819D01*
X366941Y494819D01*
X364431Y495859D01*
X362509Y497781D01*
X361469Y500291D01*
X361469Y503009D01*
X362509Y505519D01*
X362928Y505938D01*
X362970Y505996D01*
X363019Y506048D01*
X363041Y506095D01*
X363071Y506137D01*
X363092Y506206D01*
X363122Y506271D01*
X363128Y506323D01*
X363144Y506373D01*
X363142Y506444D01*
X363150Y506515D01*
X363139Y506566D01*
X363137Y506618D01*
X363113Y506686D01*
X363097Y506756D01*
X363071Y506801D01*
X363053Y506849D01*
X363008Y506905D01*
X362971Y506967D01*
X362932Y507001D01*
X362899Y507041D01*
X362839Y507080D01*
X362784Y507127D01*
X362736Y507146D01*
X362692Y507174D01*
X362623Y507192D01*
X362556Y507219D01*
X362485Y507227D01*
X362454Y507235D01*
X362430Y507233D01*
X362389Y507237D01*
X348811Y507237D01*
X348740Y507226D01*
X348668Y507224D01*
X348619Y507206D01*
X348568Y507198D01*
X348505Y507164D01*
X348437Y507139D01*
X348396Y507107D01*
X348351Y507082D01*
X348301Y507030D01*
X348245Y506986D01*
X348217Y506942D01*
X348181Y506904D01*
X348151Y506839D01*
X348112Y506779D01*
X348099Y506728D01*
X348078Y506681D01*
X348070Y506610D01*
X348052Y506540D01*
X348056Y506488D01*
X348050Y506437D01*
X348066Y506366D01*
X348071Y506295D01*
X348092Y506247D01*
X348103Y506196D01*
X348139Y506135D01*
X348168Y506069D01*
X348212Y506013D01*
X348229Y505985D01*
X348247Y505970D01*
X348272Y505938D01*
X348691Y505519D01*
X349731Y503009D01*
X349731Y500291D01*
X348691Y497781D01*
X346769Y495859D01*
X344259Y494819D01*
X341541Y494819D01*
X339031Y495859D01*
X337109Y497781D01*
X336069Y500291D01*
X336069Y503009D01*
X337109Y505519D01*
X337528Y505938D01*
X337570Y505996D01*
X337619Y506048D01*
X337641Y506095D01*
X337671Y506137D01*
X337692Y506206D01*
X337722Y506271D01*
X337728Y506323D01*
X337744Y506373D01*
X337742Y506444D01*
X337750Y506515D01*
X337739Y506566D01*
X337737Y506618D01*
X337713Y506686D01*
X337697Y506756D01*
X337671Y506801D01*
X337653Y506849D01*
X337608Y506905D01*
X337571Y506967D01*
X337532Y507001D01*
X337499Y507041D01*
X337439Y507080D01*
X337384Y507127D01*
X337336Y507146D01*
X337292Y507174D01*
X337223Y507192D01*
X337156Y507219D01*
X337085Y507227D01*
X337054Y507235D01*
X337030Y507233D01*
X336989Y507237D01*
X323411Y507237D01*
X323340Y507226D01*
X323268Y507224D01*
X323219Y507206D01*
X323168Y507198D01*
X323105Y507164D01*
X323037Y507139D01*
X322996Y507107D01*
X322951Y507082D01*
X322901Y507030D01*
X322845Y506986D01*
X322817Y506942D01*
X322781Y506904D01*
X322751Y506839D01*
X322712Y506779D01*
X322699Y506728D01*
X322678Y506681D01*
X322670Y506610D01*
X322652Y506540D01*
X322656Y506488D01*
X322650Y506437D01*
X322666Y506366D01*
X322671Y506295D01*
X322692Y506247D01*
X322703Y506196D01*
X322739Y506135D01*
X322768Y506069D01*
X322812Y506013D01*
X322829Y505985D01*
X322847Y505970D01*
X322872Y505938D01*
X323291Y505519D01*
X324331Y503009D01*
X324331Y500291D01*
X323291Y497781D01*
X321369Y495859D01*
X318859Y494819D01*
X316141Y494819D01*
X313631Y495859D01*
X311709Y497781D01*
X310669Y500291D01*
X310669Y503009D01*
X311709Y505519D01*
X312128Y505938D01*
X312170Y505996D01*
X312219Y506048D01*
X312241Y506095D01*
X312271Y506137D01*
X312292Y506206D01*
X312322Y506271D01*
X312328Y506323D01*
X312344Y506373D01*
X312342Y506444D01*
X312350Y506515D01*
X312339Y506566D01*
X312337Y506618D01*
X312313Y506686D01*
X312297Y506756D01*
X312271Y506801D01*
X312253Y506849D01*
X312208Y506905D01*
X312171Y506967D01*
X312132Y507001D01*
X312099Y507041D01*
X312039Y507080D01*
X311984Y507127D01*
X311936Y507146D01*
X311892Y507174D01*
X311823Y507192D01*
X311756Y507219D01*
X311685Y507227D01*
X311654Y507235D01*
X311630Y507233D01*
X311589Y507237D01*
X298011Y507237D01*
X297940Y507226D01*
X297868Y507224D01*
X297819Y507206D01*
X297768Y507198D01*
X297705Y507164D01*
X297637Y507139D01*
X297596Y507107D01*
X297551Y507082D01*
X297501Y507030D01*
X297445Y506986D01*
X297417Y506942D01*
X297381Y506904D01*
X297351Y506839D01*
X297312Y506779D01*
X297299Y506728D01*
X297278Y506681D01*
X297270Y506610D01*
X297252Y506540D01*
X297256Y506488D01*
X297250Y506437D01*
X297266Y506366D01*
X297271Y506295D01*
X297292Y506247D01*
X297303Y506196D01*
X297339Y506135D01*
X297368Y506069D01*
X297412Y506013D01*
X297429Y505985D01*
X297447Y505970D01*
X297472Y505938D01*
X297891Y505519D01*
X298931Y503009D01*
X298931Y500291D01*
X297891Y497781D01*
X295969Y495859D01*
X293459Y494819D01*
X290741Y494819D01*
X288231Y495859D01*
X286309Y497781D01*
X285269Y500291D01*
X285269Y503009D01*
X286309Y505519D01*
X286728Y505938D01*
X286770Y505996D01*
X286819Y506048D01*
X286841Y506095D01*
X286871Y506137D01*
X286892Y506206D01*
X286922Y506271D01*
X286928Y506323D01*
X286944Y506373D01*
X286942Y506444D01*
X286950Y506515D01*
X286939Y506566D01*
X286937Y506618D01*
X286913Y506686D01*
X286897Y506756D01*
X286871Y506801D01*
X286853Y506849D01*
X286808Y506905D01*
X286771Y506967D01*
X286732Y507001D01*
X286699Y507041D01*
X286639Y507080D01*
X286584Y507127D01*
X286536Y507146D01*
X286492Y507174D01*
X286423Y507192D01*
X286356Y507219D01*
X286285Y507227D01*
X286254Y507235D01*
X286230Y507233D01*
X286189Y507237D01*
X272611Y507237D01*
X272540Y507226D01*
X272468Y507224D01*
X272419Y507206D01*
X272368Y507198D01*
X272305Y507164D01*
X272237Y507139D01*
X272196Y507107D01*
X272151Y507082D01*
X272101Y507030D01*
X272045Y506986D01*
X272017Y506942D01*
X271981Y506904D01*
X271951Y506839D01*
X271912Y506779D01*
X271899Y506728D01*
X271878Y506681D01*
X271870Y506610D01*
X271852Y506540D01*
X271856Y506488D01*
X271850Y506437D01*
X271866Y506366D01*
X271871Y506295D01*
X271892Y506247D01*
X271903Y506196D01*
X271939Y506135D01*
X271968Y506069D01*
X272012Y506013D01*
X272029Y505985D01*
X272047Y505970D01*
X272072Y505938D01*
X272491Y505519D01*
X273531Y503009D01*
X273531Y500291D01*
X272491Y497781D01*
X270569Y495859D01*
X268059Y494819D01*
X265341Y494819D01*
X262831Y495859D01*
X260909Y497781D01*
X259869Y500291D01*
X259869Y503009D01*
X260909Y505519D01*
X261328Y505938D01*
X261370Y505996D01*
X261419Y506048D01*
X261441Y506095D01*
X261471Y506137D01*
X261492Y506206D01*
X261522Y506271D01*
X261528Y506323D01*
X261544Y506373D01*
X261542Y506444D01*
X261550Y506515D01*
X261539Y506566D01*
X261537Y506618D01*
X261513Y506686D01*
X261497Y506756D01*
X261471Y506801D01*
X261453Y506849D01*
X261408Y506905D01*
X261371Y506967D01*
X261332Y507001D01*
X261299Y507041D01*
X261239Y507080D01*
X261184Y507127D01*
X261136Y507146D01*
X261092Y507174D01*
X261023Y507192D01*
X260956Y507219D01*
X260885Y507227D01*
X260854Y507235D01*
X260830Y507233D01*
X260789Y507237D01*
X247211Y507237D01*
X247140Y507226D01*
X247068Y507224D01*
X247019Y507206D01*
X246968Y507198D01*
X246905Y507164D01*
X246837Y507139D01*
X246796Y507107D01*
X246751Y507082D01*
X246701Y507030D01*
X246645Y506986D01*
X246617Y506942D01*
X246581Y506904D01*
X246551Y506839D01*
X246512Y506779D01*
X246499Y506728D01*
X246478Y506681D01*
X246470Y506610D01*
X246452Y506540D01*
X246456Y506488D01*
X246450Y506437D01*
X246466Y506366D01*
X246471Y506295D01*
X246492Y506247D01*
X246503Y506196D01*
X246539Y506135D01*
X246568Y506069D01*
X246612Y506013D01*
X246629Y505985D01*
X246647Y505970D01*
X246672Y505938D01*
X247091Y505519D01*
X248131Y503009D01*
X248131Y500291D01*
X247091Y497781D01*
X245169Y495859D01*
X242659Y494819D01*
X239941Y494819D01*
X237431Y495859D01*
X235509Y497781D01*
X234469Y500291D01*
X234469Y503009D01*
X235509Y505519D01*
X235928Y505938D01*
X235970Y505996D01*
X236019Y506048D01*
X236041Y506095D01*
X236071Y506137D01*
X236092Y506206D01*
X236122Y506271D01*
X236128Y506323D01*
X236144Y506373D01*
X236142Y506444D01*
X236150Y506515D01*
X236139Y506566D01*
X236137Y506618D01*
X236113Y506686D01*
X236097Y506756D01*
X236071Y506801D01*
X236053Y506849D01*
X236008Y506905D01*
X235971Y506967D01*
X235932Y507001D01*
X235899Y507041D01*
X235839Y507080D01*
X235784Y507127D01*
X235736Y507146D01*
X235692Y507174D01*
X235623Y507192D01*
X235556Y507219D01*
X235485Y507227D01*
X235454Y507235D01*
X235430Y507233D01*
X235389Y507237D01*
X221811Y507237D01*
X221740Y507226D01*
X221668Y507224D01*
X221619Y507206D01*
X221568Y507198D01*
X221505Y507164D01*
X221437Y507139D01*
X221396Y507107D01*
X221351Y507082D01*
X221301Y507030D01*
X221245Y506986D01*
X221217Y506942D01*
X221181Y506904D01*
X221151Y506839D01*
X221112Y506779D01*
X221099Y506728D01*
X221078Y506681D01*
X221070Y506610D01*
X221052Y506540D01*
X221056Y506488D01*
X221050Y506437D01*
X221066Y506366D01*
X221071Y506295D01*
X221092Y506247D01*
X221103Y506196D01*
X221139Y506135D01*
X221168Y506069D01*
X221212Y506013D01*
X221229Y505985D01*
X221247Y505970D01*
X221272Y505938D01*
X221691Y505519D01*
X222731Y503009D01*
X222731Y500291D01*
X221691Y497781D01*
X219769Y495859D01*
X217259Y494819D01*
X214541Y494819D01*
X214408Y494874D01*
X214338Y494891D01*
X214272Y494916D01*
X214220Y494919D01*
X214169Y494931D01*
X214098Y494924D01*
X214026Y494927D01*
X213976Y494912D01*
X213924Y494907D01*
X213859Y494878D01*
X213790Y494858D01*
X213747Y494829D01*
X213699Y494807D01*
X213646Y494759D01*
X213588Y494718D01*
X213557Y494676D01*
X213518Y494641D01*
X213483Y494578D01*
X213441Y494521D01*
X213425Y494471D01*
X213400Y494426D01*
X213387Y494355D01*
X213365Y494287D01*
X213365Y494235D01*
X213356Y494184D01*
X213366Y494113D01*
X213367Y494041D01*
X213387Y493972D01*
X213392Y493940D01*
X213402Y493919D01*
X213414Y493880D01*
X213841Y492849D01*
X213841Y490131D01*
X212801Y487621D01*
X210879Y485699D01*
X208369Y484659D01*
X205651Y484659D01*
X203141Y485699D01*
X201219Y487621D01*
X200179Y490131D01*
X200179Y492849D01*
X201219Y495359D01*
X203141Y497281D01*
X205651Y498321D01*
X208369Y498321D01*
X208502Y498266D01*
X208572Y498249D01*
X208638Y498224D01*
X208690Y498221D01*
X208741Y498209D01*
X208812Y498216D01*
X208884Y498213D01*
X208934Y498228D01*
X208986Y498233D01*
X209051Y498262D01*
X209120Y498282D01*
X209163Y498311D01*
X209211Y498333D01*
X209264Y498381D01*
X209322Y498422D01*
X209353Y498464D01*
X209392Y498499D01*
X209427Y498562D01*
X209469Y498619D01*
X209485Y498669D01*
X209510Y498714D01*
X209523Y498785D01*
X209545Y498853D01*
X209545Y498905D01*
X209554Y498956D01*
X209544Y499027D01*
X209543Y499099D01*
X209523Y499168D01*
X209518Y499200D01*
X209508Y499221D01*
X209496Y499260D01*
X209069Y500291D01*
X209069Y503009D01*
X210109Y505519D01*
X210528Y505938D01*
X210570Y505996D01*
X210619Y506048D01*
X210641Y506095D01*
X210671Y506137D01*
X210692Y506206D01*
X210722Y506271D01*
X210728Y506323D01*
X210744Y506373D01*
X210742Y506444D01*
X210750Y506515D01*
X210739Y506566D01*
X210737Y506618D01*
X210713Y506686D01*
X210697Y506756D01*
X210671Y506801D01*
X210653Y506849D01*
X210608Y506905D01*
X210571Y506967D01*
X210532Y507001D01*
X210499Y507041D01*
X210439Y507080D01*
X210384Y507127D01*
X210336Y507146D01*
X210292Y507174D01*
X210223Y507192D01*
X210156Y507219D01*
X210085Y507227D01*
X210054Y507235D01*
X210030Y507233D01*
X209989Y507237D01*
X196411Y507237D01*
X196340Y507226D01*
X196268Y507224D01*
X196219Y507206D01*
X196168Y507198D01*
X196105Y507164D01*
X196037Y507139D01*
X195996Y507107D01*
X195951Y507082D01*
X195901Y507030D01*
X195845Y506986D01*
X195817Y506942D01*
X195781Y506904D01*
X195751Y506839D01*
X195712Y506779D01*
X195699Y506728D01*
X195678Y506681D01*
X195670Y506610D01*
X195652Y506540D01*
X195656Y506488D01*
X195650Y506437D01*
X195666Y506366D01*
X195671Y506295D01*
X195692Y506247D01*
X195703Y506196D01*
X195739Y506135D01*
X195768Y506069D01*
X195812Y506013D01*
X195829Y505985D01*
X195847Y505970D01*
X195872Y505938D01*
X196291Y505519D01*
X197331Y503009D01*
X197331Y500291D01*
X196291Y497781D01*
X194369Y495859D01*
X191859Y494819D01*
X189141Y494819D01*
X186631Y495859D01*
X184709Y497781D01*
X183669Y500291D01*
X183669Y503009D01*
X184709Y505519D01*
X185128Y505938D01*
X185170Y505996D01*
X185219Y506048D01*
X185241Y506095D01*
X185271Y506137D01*
X185292Y506206D01*
X185322Y506271D01*
X185328Y506323D01*
X185344Y506373D01*
X185342Y506444D01*
X185350Y506515D01*
X185339Y506566D01*
X185337Y506618D01*
X185313Y506686D01*
X185297Y506756D01*
X185271Y506801D01*
X185253Y506849D01*
X185208Y506905D01*
X185171Y506967D01*
X185132Y507001D01*
X185099Y507041D01*
X185039Y507080D01*
X184984Y507127D01*
X184936Y507146D01*
X184892Y507174D01*
X184823Y507192D01*
X184756Y507219D01*
X184685Y507227D01*
X184654Y507235D01*
X184630Y507233D01*
X184589Y507237D01*
X181062Y507237D01*
X180971Y507223D01*
X180881Y507215D01*
X180851Y507203D01*
X180819Y507198D01*
X180738Y507155D01*
X180654Y507119D01*
X180622Y507093D01*
X180601Y507082D01*
X180579Y507059D01*
X180523Y507014D01*
X147036Y473527D01*
X146992Y473466D01*
X146957Y473429D01*
X146950Y473415D01*
X146923Y473383D01*
X146911Y473353D01*
X146892Y473327D01*
X146865Y473240D01*
X146831Y473155D01*
X146827Y473114D01*
X146820Y473092D01*
X146821Y473060D01*
X146813Y472988D01*
X146813Y469461D01*
X146824Y469390D01*
X146826Y469318D01*
X146844Y469269D01*
X146852Y469218D01*
X146886Y469155D01*
X146911Y469087D01*
X146943Y469046D01*
X146968Y469001D01*
X147020Y468951D01*
X147064Y468895D01*
X147108Y468867D01*
X147146Y468831D01*
X147211Y468801D01*
X147271Y468762D01*
X147322Y468749D01*
X147369Y468728D01*
X147440Y468720D01*
X147510Y468702D01*
X147562Y468706D01*
X147613Y468700D01*
X147684Y468716D01*
X147755Y468721D01*
X147803Y468742D01*
X147854Y468753D01*
X147915Y468789D01*
X147981Y468818D01*
X148037Y468862D01*
X148065Y468879D01*
X148080Y468897D01*
X148112Y468922D01*
X148531Y469341D01*
X151041Y470381D01*
X153759Y470381D01*
X156269Y469341D01*
X158191Y467419D01*
X159231Y464909D01*
X159231Y462191D01*
X158191Y459681D01*
X156269Y457759D01*
X153759Y456719D01*
X151041Y456719D01*
X148531Y457759D01*
X148112Y458178D01*
X148054Y458220D01*
X148002Y458269D01*
X147955Y458291D01*
X147913Y458321D01*
X147844Y458342D01*
X147779Y458372D01*
X147727Y458378D01*
X147677Y458394D01*
X147606Y458392D01*
X147535Y458400D01*
X147484Y458389D01*
X147432Y458387D01*
X147364Y458363D01*
X147294Y458347D01*
X147249Y458321D01*
X147201Y458303D01*
X147145Y458258D01*
X147083Y458221D01*
X147049Y458182D01*
X147009Y458149D01*
X146970Y458089D01*
X146923Y458034D01*
X146904Y457986D01*
X146876Y457942D01*
X146858Y457873D01*
X146831Y457806D01*
X146823Y457735D01*
X146815Y457704D01*
X146817Y457680D01*
X146813Y457639D01*
X146813Y444061D01*
X146815Y444046D01*
X146814Y444034D01*
X146824Y443985D01*
X146826Y443918D01*
X146844Y443869D01*
X146852Y443818D01*
X146886Y443755D01*
X146911Y443687D01*
X146943Y443646D01*
X146968Y443601D01*
X147020Y443551D01*
X147064Y443495D01*
X147108Y443467D01*
X147146Y443431D01*
X147211Y443401D01*
X147271Y443362D01*
X147322Y443349D01*
X147369Y443328D01*
X147440Y443320D01*
X147510Y443302D01*
X147562Y443306D01*
X147613Y443300D01*
X147684Y443316D01*
X147755Y443321D01*
X147803Y443342D01*
X147854Y443353D01*
X147915Y443389D01*
X147981Y443418D01*
X148035Y443461D01*
X148047Y443467D01*
X148049Y443470D01*
X148065Y443479D01*
X148080Y443497D01*
X148112Y443522D01*
X148531Y443941D01*
X151041Y444981D01*
X153759Y444981D01*
X156269Y443941D01*
X158191Y442019D01*
X159231Y439509D01*
X159231Y436791D01*
X158191Y434281D01*
X156269Y432359D01*
X153759Y431319D01*
X152077Y431319D01*
X152007Y431308D01*
X151935Y431306D01*
X151886Y431288D01*
X151835Y431280D01*
X151771Y431246D01*
X151704Y431221D01*
X151663Y431189D01*
X151617Y431164D01*
X151568Y431112D01*
X151512Y431068D01*
X151484Y431024D01*
X151448Y430986D01*
X151418Y430921D01*
X151379Y430861D01*
X151366Y430810D01*
X151344Y430763D01*
X151336Y430692D01*
X151319Y430622D01*
X151323Y430570D01*
X151317Y430519D01*
X151332Y430448D01*
X151338Y430377D01*
X151358Y430329D01*
X151369Y430278D01*
X151406Y430217D01*
X151434Y430151D01*
X151479Y430095D01*
X151496Y430067D01*
X151513Y430052D01*
X151539Y430020D01*
X161473Y420086D01*
X161547Y420033D01*
X161617Y419973D01*
X161647Y419961D01*
X161673Y419942D01*
X161760Y419915D01*
X161845Y419881D01*
X161886Y419877D01*
X161908Y419870D01*
X161940Y419871D01*
X162012Y419863D01*
X423926Y419863D01*
X423946Y419866D01*
X423965Y419864D01*
X424067Y419886D01*
X424169Y419902D01*
X424186Y419912D01*
X424206Y419916D01*
X424295Y419969D01*
X424386Y420018D01*
X424400Y420032D01*
X424417Y420042D01*
X424484Y420121D01*
X424556Y420196D01*
X424564Y420214D01*
X424577Y420229D01*
X424616Y420325D01*
X424659Y420419D01*
X424661Y420439D01*
X424669Y420457D01*
X424671Y420475D01*
X425770Y423129D01*
X427771Y425130D01*
X428747Y425534D01*
X428808Y425572D01*
X428874Y425601D01*
X428912Y425636D01*
X428956Y425664D01*
X429002Y425719D01*
X429055Y425768D01*
X429080Y425813D01*
X429113Y425853D01*
X429139Y425920D01*
X429174Y425983D01*
X429183Y426034D01*
X429201Y426083D01*
X429204Y426155D01*
X429217Y426225D01*
X429210Y426277D01*
X429212Y426329D01*
X429192Y426398D01*
X429181Y426469D01*
X429158Y426515D01*
X429143Y426565D01*
X429102Y426624D01*
X429070Y426688D01*
X429033Y426724D01*
X429003Y426767D01*
X428946Y426810D01*
X428894Y426860D01*
X428832Y426895D01*
X428806Y426914D01*
X428783Y426921D01*
X428747Y426941D01*
X427931Y427279D01*
X426009Y429201D01*
X424969Y431711D01*
X424969Y434429D01*
X426009Y436939D01*
X427931Y438861D01*
X430441Y439901D01*
X433159Y439901D01*
X435669Y438861D01*
X437591Y436939D01*
X438631Y434429D01*
X438631Y431711D01*
X437591Y429201D01*
X435669Y427279D01*
X434853Y426941D01*
X434792Y426903D01*
X434726Y426874D01*
X434688Y426839D01*
X434644Y426811D01*
X434598Y426756D01*
X434545Y426708D01*
X434520Y426662D01*
X434487Y426622D01*
X434461Y426555D01*
X434426Y426492D01*
X434417Y426441D01*
X434399Y426392D01*
X434396Y426321D01*
X434383Y426250D01*
X434390Y426198D01*
X434388Y426146D01*
X434408Y426078D01*
X434419Y426007D01*
X434442Y425960D01*
X434457Y425910D01*
X434498Y425851D01*
X434530Y425787D01*
X434567Y425751D01*
X434597Y425708D01*
X434654Y425665D01*
X434706Y425615D01*
X434768Y425581D01*
X434794Y425561D01*
X434817Y425554D01*
X434853Y425534D01*
X435829Y425130D01*
X437830Y423129D01*
X438942Y420443D01*
X438952Y420381D01*
X438962Y420364D01*
X438966Y420344D01*
X439019Y420255D01*
X439068Y420164D01*
X439082Y420150D01*
X439092Y420133D01*
X439171Y420066D01*
X439246Y419994D01*
X439264Y419986D01*
X439279Y419973D01*
X439375Y419934D01*
X439469Y419891D01*
X439489Y419889D01*
X439507Y419881D01*
X439525Y419879D01*
X442179Y418780D01*
X450530Y410429D01*
X451613Y407815D01*
X451613Y373235D01*
X450530Y370621D01*
X435829Y355920D01*
X433215Y354837D01*
X410065Y354837D01*
X407451Y355920D01*
X397327Y366044D01*
X397253Y366097D01*
X397183Y366157D01*
X397153Y366169D01*
X397127Y366188D01*
X397040Y366215D01*
X396955Y366249D01*
X396914Y366253D01*
X396892Y366260D01*
X396860Y366259D01*
X396788Y366267D01*
X382524Y366267D01*
X382504Y366264D01*
X382485Y366266D01*
X382383Y366244D01*
X382281Y366228D01*
X382264Y366218D01*
X382244Y366214D01*
X382155Y366161D01*
X382064Y366112D01*
X382050Y366098D01*
X382033Y366088D01*
X381966Y366009D01*
X381894Y365934D01*
X381886Y365916D01*
X381873Y365901D01*
X381834Y365805D01*
X381791Y365711D01*
X381789Y365691D01*
X381781Y365673D01*
X381763Y365506D01*
X381763Y308465D01*
X380680Y305851D01*
X378679Y303850D01*
X376065Y302767D01*
X373235Y302767D01*
X370621Y303850D01*
X368620Y305851D01*
X367537Y308465D01*
X367537Y365506D01*
X367534Y365526D01*
X367536Y365545D01*
X367514Y365647D01*
X367498Y365749D01*
X367488Y365766D01*
X367484Y365786D01*
X367431Y365875D01*
X367382Y365966D01*
X367368Y365980D01*
X367358Y365997D01*
X367279Y366064D01*
X367204Y366136D01*
X367186Y366144D01*
X367171Y366157D01*
X367075Y366196D01*
X366981Y366239D01*
X366961Y366241D01*
X366943Y366249D01*
X366776Y366267D01*
X304361Y366267D01*
X304290Y366256D01*
X304218Y366254D01*
X304169Y366236D01*
X304118Y366228D01*
X304055Y366194D01*
X303987Y366169D01*
X303946Y366137D01*
X303901Y366112D01*
X303851Y366060D01*
X303795Y366016D01*
X303767Y365972D01*
X303731Y365934D01*
X303701Y365869D01*
X303662Y365809D01*
X303649Y365758D01*
X303628Y365711D01*
X303620Y365640D01*
X303602Y365570D01*
X303606Y365518D01*
X303600Y365467D01*
X303616Y365396D01*
X303621Y365325D01*
X303642Y365277D01*
X303653Y365226D01*
X303689Y365165D01*
X303718Y365099D01*
X303762Y365043D01*
X303779Y365015D01*
X303797Y365000D01*
X303822Y364968D01*
X304241Y364549D01*
X305281Y362039D01*
X305281Y359321D01*
X304241Y356811D01*
X302319Y354889D01*
X299809Y353849D01*
X297091Y353849D01*
X294581Y354889D01*
X292659Y356811D01*
X291619Y359321D01*
X291619Y362039D01*
X292659Y364549D01*
X293078Y364968D01*
X293120Y365026D01*
X293169Y365078D01*
X293191Y365125D01*
X293221Y365167D01*
X293242Y365236D01*
X293272Y365301D01*
X293278Y365353D01*
X293294Y365403D01*
X293292Y365474D01*
X293300Y365545D01*
X293289Y365596D01*
X293287Y365648D01*
X293263Y365716D01*
X293247Y365786D01*
X293221Y365831D01*
X293203Y365879D01*
X293158Y365935D01*
X293121Y365997D01*
X293082Y366031D01*
X293049Y366071D01*
X292989Y366110D01*
X292934Y366157D01*
X292886Y366176D01*
X292842Y366204D01*
X292773Y366222D01*
X292706Y366249D01*
X292635Y366257D01*
X292604Y366265D01*
X292580Y366263D01*
X292539Y366267D01*
X261874Y366267D01*
X261854Y366264D01*
X261835Y366266D01*
X261733Y366244D01*
X261631Y366228D01*
X261614Y366218D01*
X261594Y366214D01*
X261505Y366161D01*
X261414Y366112D01*
X261400Y366098D01*
X261383Y366088D01*
X261316Y366009D01*
X261244Y365934D01*
X261236Y365916D01*
X261223Y365901D01*
X261184Y365805D01*
X261141Y365711D01*
X261139Y365691D01*
X261131Y365673D01*
X261113Y365506D01*
X261113Y311005D01*
X260030Y308391D01*
X258029Y306390D01*
X255415Y305307D01*
X252585Y305307D01*
X249971Y306390D01*
X247970Y308391D01*
X246887Y311005D01*
X246887Y340799D01*
X246876Y340870D01*
X246874Y340942D01*
X246856Y340991D01*
X246848Y341042D01*
X246814Y341105D01*
X246789Y341173D01*
X246757Y341214D01*
X246732Y341259D01*
X246680Y341309D01*
X246636Y341365D01*
X246592Y341393D01*
X246554Y341429D01*
X246489Y341459D01*
X246429Y341498D01*
X246378Y341511D01*
X246331Y341532D01*
X246260Y341540D01*
X246190Y341558D01*
X246138Y341554D01*
X246087Y341560D01*
X246016Y341544D01*
X245945Y341539D01*
X245897Y341518D01*
X245846Y341507D01*
X245785Y341471D01*
X245719Y341442D01*
X245663Y341398D01*
X245635Y341381D01*
X245620Y341363D01*
X245588Y341338D01*
X245169Y340919D01*
X242659Y339879D01*
X239941Y339879D01*
X237431Y340919D01*
X235509Y342841D01*
X234469Y345351D01*
X234469Y348069D01*
X235509Y350579D01*
X237431Y352501D01*
X239941Y353541D01*
X242659Y353541D01*
X245169Y352501D01*
X245588Y352082D01*
X245646Y352040D01*
X245698Y351991D01*
X245745Y351969D01*
X245787Y351939D01*
X245856Y351918D01*
X245921Y351888D01*
X245973Y351882D01*
X246023Y351866D01*
X246094Y351868D01*
X246165Y351860D01*
X246216Y351871D01*
X246268Y351873D01*
X246336Y351897D01*
X246406Y351913D01*
X246451Y351939D01*
X246499Y351957D01*
X246555Y352002D01*
X246617Y352039D01*
X246651Y352078D01*
X246691Y352111D01*
X246730Y352171D01*
X246777Y352226D01*
X246796Y352274D01*
X246824Y352318D01*
X246842Y352387D01*
X246869Y352454D01*
X246877Y352525D01*
X246885Y352556D01*
X246883Y352580D01*
X246887Y352621D01*
X246887Y365506D01*
X246884Y365526D01*
X246886Y365545D01*
X246864Y365647D01*
X246848Y365749D01*
X246838Y365766D01*
X246834Y365786D01*
X246781Y365875D01*
X246732Y365966D01*
X246718Y365980D01*
X246708Y365997D01*
X246629Y366064D01*
X246554Y366136D01*
X246536Y366144D01*
X246521Y366157D01*
X246425Y366196D01*
X246331Y366239D01*
X246311Y366241D01*
X246293Y366249D01*
X246126Y366267D01*
X141692Y366267D01*
X141601Y366253D01*
X141511Y366245D01*
X141481Y366233D01*
X141449Y366228D01*
X141368Y366185D01*
X141284Y366149D01*
X141252Y366123D01*
X141231Y366112D01*
X141209Y366089D01*
X141153Y366044D01*
X121636Y346527D01*
X121583Y346453D01*
X121523Y346383D01*
X121511Y346353D01*
X121492Y346327D01*
X121465Y346240D01*
X121431Y346155D01*
X121427Y346114D01*
X121420Y346092D01*
X121421Y346060D01*
X121413Y345988D01*
X121413Y247283D01*
X121428Y247187D01*
X121438Y247090D01*
X121448Y247066D01*
X121452Y247040D01*
X121498Y246954D01*
X121538Y246865D01*
X121555Y246846D01*
X121568Y246823D01*
X121638Y246756D01*
X121704Y246684D01*
X121727Y246671D01*
X121746Y246653D01*
X121834Y246612D01*
X121920Y246565D01*
X121945Y246561D01*
X121969Y246550D01*
X122066Y246539D01*
X122162Y246522D01*
X122188Y246526D01*
X122213Y246523D01*
X122309Y246543D01*
X122405Y246558D01*
X122428Y246569D01*
X122454Y246575D01*
X122537Y246625D01*
X122624Y246669D01*
X122643Y246688D01*
X122665Y246701D01*
X122728Y246775D01*
X122796Y246845D01*
X122812Y246873D01*
X122825Y246888D01*
X122837Y246919D01*
X122877Y246992D01*
X123771Y249150D01*
X126950Y252329D01*
X131103Y254049D01*
X135597Y254049D01*
X139750Y252329D01*
X142929Y249150D01*
X144649Y244997D01*
X144649Y240503D01*
X142929Y236350D01*
X139750Y233171D01*
X135597Y231451D01*
X131103Y231451D01*
X126950Y233171D01*
X123771Y236350D01*
X122877Y238508D01*
X122826Y238591D01*
X122780Y238677D01*
X122762Y238695D01*
X122748Y238717D01*
X122672Y238780D01*
X122602Y238847D01*
X122578Y238858D01*
X122558Y238874D01*
X122467Y238909D01*
X122379Y238950D01*
X122353Y238953D01*
X122329Y238962D01*
X122231Y238967D01*
X122135Y238977D01*
X122109Y238972D01*
X122083Y238973D01*
X121989Y238946D01*
X121894Y238925D01*
X121872Y238912D01*
X121847Y238904D01*
X121767Y238849D01*
X121683Y238799D01*
X121666Y238779D01*
X121645Y238764D01*
X121586Y238686D01*
X121523Y238612D01*
X121513Y238588D01*
X121498Y238567D01*
X121468Y238474D01*
X121431Y238384D01*
X121428Y238351D01*
X121422Y238333D01*
X121422Y238300D01*
X121413Y238217D01*
X121413Y168362D01*
X121427Y168271D01*
X121435Y168181D01*
X121447Y168151D01*
X121452Y168119D01*
X121495Y168038D01*
X121531Y167954D01*
X121557Y167922D01*
X121568Y167901D01*
X121591Y167879D01*
X121636Y167823D01*
X161473Y127986D01*
X161547Y127933D01*
X161617Y127873D01*
X161647Y127861D01*
X161673Y127842D01*
X161760Y127815D01*
X161845Y127781D01*
X161886Y127777D01*
X161908Y127770D01*
X161940Y127771D01*
X162012Y127763D01*
X242715Y127763D01*
X245329Y126680D01*
X247437Y124572D01*
X264272Y107737D01*
X266380Y105629D01*
X267463Y103015D01*
X267463Y81135D01*
X266380Y78521D01*
X264379Y76520D01*
X261765Y75437D01*
X258935Y75437D01*
X256321Y76520D01*
X254320Y78521D01*
X253237Y81135D01*
X253237Y98339D01*
X253223Y98429D01*
X253215Y98520D01*
X253203Y98549D01*
X253198Y98581D01*
X253155Y98662D01*
X253119Y98746D01*
X253093Y98778D01*
X253082Y98799D01*
X253059Y98821D01*
X253014Y98877D01*
X238577Y113314D01*
X238503Y113367D01*
X238433Y113427D01*
X238403Y113439D01*
X238377Y113458D01*
X238290Y113485D01*
X238205Y113519D01*
X238164Y113523D01*
X238142Y113530D01*
X238110Y113529D01*
X238039Y113537D01*
X199044Y113537D01*
X198948Y113522D01*
X198851Y113512D01*
X198827Y113502D01*
X198802Y113498D01*
X198716Y113452D01*
X198627Y113412D01*
X198607Y113395D01*
X198584Y113382D01*
X198517Y113312D01*
X198445Y113246D01*
X198433Y113223D01*
X198415Y113204D01*
X198374Y113116D01*
X198327Y113030D01*
X198322Y113005D01*
X198311Y112981D01*
X198300Y112884D01*
X198283Y112788D01*
X198287Y112762D01*
X198284Y112737D01*
X198305Y112641D01*
X198319Y112545D01*
X198331Y112522D01*
X198336Y112496D01*
X198386Y112413D01*
X198430Y112326D01*
X198449Y112307D01*
X198462Y112285D01*
X198536Y112222D01*
X198606Y112154D01*
X198635Y112138D01*
X198649Y112125D01*
X198680Y112113D01*
X198753Y112073D01*
X200825Y111214D01*
X204214Y107825D01*
X206049Y103397D01*
X206049Y98603D01*
X204214Y94175D01*
X200825Y90786D01*
X196397Y88951D01*
X191603Y88951D01*
X187213Y90770D01*
X187169Y90780D01*
X187127Y90800D01*
X187050Y90808D01*
X186974Y90826D01*
X186928Y90822D01*
X186883Y90827D01*
X186806Y90810D01*
X186729Y90803D01*
X186687Y90784D01*
X186642Y90774D01*
X186575Y90734D01*
X186504Y90703D01*
X186470Y90672D01*
X186431Y90648D01*
X186380Y90589D01*
X186323Y90536D01*
X186301Y90496D01*
X186271Y90461D01*
X186242Y90389D01*
X186205Y90321D01*
X186196Y90276D01*
X186179Y90233D01*
X186164Y90097D01*
X186161Y90079D01*
X186162Y90074D01*
X186161Y90066D01*
X186161Y87785D01*
X183700Y81846D01*
X179154Y77300D01*
X173215Y74839D01*
X169456Y74839D01*
X169386Y74828D01*
X169314Y74826D01*
X169265Y74808D01*
X169214Y74800D01*
X169150Y74766D01*
X169083Y74741D01*
X169042Y74709D01*
X168996Y74684D01*
X168947Y74632D01*
X168891Y74588D01*
X168863Y74544D01*
X168827Y74506D01*
X168797Y74441D01*
X168758Y74381D01*
X168745Y74330D01*
X168723Y74283D01*
X168715Y74212D01*
X168698Y74142D01*
X168702Y74090D01*
X168696Y74039D01*
X168711Y73968D01*
X168717Y73897D01*
X168737Y73849D01*
X168748Y73798D01*
X168785Y73737D01*
X168813Y73671D01*
X168858Y73615D01*
X168875Y73587D01*
X168892Y73572D01*
X168918Y73540D01*
X177972Y64486D01*
X178046Y64433D01*
X178116Y64373D01*
X178146Y64361D01*
X178172Y64342D01*
X178259Y64315D01*
X178344Y64281D01*
X178385Y64277D01*
X178407Y64270D01*
X178439Y64271D01*
X178510Y64263D01*
X261765Y64263D01*
X264379Y63180D01*
X266380Y61179D01*
X267463Y58565D01*
X267463Y55735D01*
X266380Y53121D01*
X264379Y51120D01*
X261765Y50037D01*
X173834Y50037D01*
X171220Y51120D01*
X153476Y68864D01*
X153402Y68917D01*
X153332Y68977D01*
X153302Y68989D01*
X153276Y69008D01*
X153189Y69035D01*
X153104Y69069D01*
X153063Y69073D01*
X153041Y69080D01*
X153009Y69079D01*
X152937Y69087D01*
X106535Y69087D01*
X103921Y70170D01*
X76520Y97571D01*
X75437Y100185D01*
X75437Y452265D01*
X76520Y454879D01*
X78628Y456987D01*
X158963Y537322D01*
X161071Y539430D01*
X163685Y540513D01*
X466638Y540513D01*
X466729Y540527D01*
X466819Y540535D01*
X466849Y540547D01*
X466881Y540552D01*
X466962Y540595D01*
X467046Y540631D01*
X467078Y540657D01*
X467099Y540668D01*
X467121Y540691D01*
X467177Y540736D01*
X484703Y558262D01*
X484745Y558320D01*
X484794Y558372D01*
X484816Y558419D01*
X484846Y558461D01*
X484867Y558530D01*
X484898Y558595D01*
X484903Y558647D01*
X484919Y558697D01*
X484917Y558768D01*
X484925Y558839D01*
X484914Y558890D01*
X484912Y558942D01*
X484888Y559010D01*
X484872Y559080D01*
X484846Y559124D01*
X484828Y559173D01*
X484783Y559229D01*
X484746Y559291D01*
X484707Y559325D01*
X484674Y559365D01*
X484614Y559404D01*
X484559Y559451D01*
X484511Y559470D01*
X484467Y559498D01*
X484398Y559516D01*
X484331Y559543D01*
X484260Y559551D01*
X484229Y559559D01*
X484205Y559557D01*
X484165Y559561D01*
X10922Y559561D01*
X10902Y559558D01*
X10883Y559560D01*
X10781Y559538D01*
X10679Y559522D01*
X10662Y559512D01*
X10642Y559508D01*
X10553Y559455D01*
X10462Y559406D01*
X10448Y559392D01*
X10431Y559382D01*
X10364Y559303D01*
X10292Y559228D01*
X10284Y559210D01*
X10271Y559195D01*
X10232Y559099D01*
X10189Y559005D01*
X10187Y558985D01*
X10179Y558967D01*
X10161Y558800D01*
X10161Y10922D01*
X10164Y10902D01*
X10162Y10883D01*
X10184Y10781D01*
X10200Y10679D01*
X10210Y10662D01*
X10214Y10642D01*
X10267Y10553D01*
X10316Y10462D01*
X10330Y10448D01*
X10340Y10431D01*
X10419Y10364D01*
X10494Y10292D01*
X10512Y10284D01*
X10527Y10271D01*
X10623Y10232D01*
X10717Y10189D01*
X10737Y10187D01*
X10755Y10179D01*
X10922Y10161D01*
X989078Y10161D01*
X989098Y10164D01*
G37*
G36*
X846348Y291342D02*
X846348Y291342D01*
X846367Y291340D01*
X846469Y291362D01*
X846571Y291379D01*
X846588Y291388D01*
X846608Y291392D01*
X846697Y291445D01*
X846788Y291494D01*
X846802Y291508D01*
X846819Y291518D01*
X846886Y291597D01*
X846958Y291672D01*
X846966Y291690D01*
X846979Y291705D01*
X847018Y291801D01*
X847061Y291895D01*
X847063Y291915D01*
X847071Y291933D01*
X847089Y292100D01*
X847089Y335419D01*
X847082Y335464D01*
X847084Y335510D01*
X847062Y335585D01*
X847050Y335662D01*
X847028Y335702D01*
X847015Y335746D01*
X846971Y335810D01*
X846934Y335879D01*
X846901Y335911D01*
X846875Y335948D01*
X846812Y335995D01*
X846756Y336048D01*
X846714Y336068D01*
X846678Y336095D01*
X846604Y336119D01*
X846533Y336152D01*
X846487Y336157D01*
X846444Y336171D01*
X846366Y336171D01*
X846289Y336179D01*
X846244Y336169D01*
X846198Y336169D01*
X846067Y336131D01*
X846048Y336127D01*
X846044Y336124D01*
X846037Y336122D01*
X845909Y336069D01*
X843191Y336069D01*
X840681Y337109D01*
X838759Y339031D01*
X837719Y341541D01*
X837719Y344259D01*
X838759Y346769D01*
X839100Y347110D01*
X839127Y347148D01*
X839161Y347179D01*
X839198Y347247D01*
X839244Y347310D01*
X839257Y347354D01*
X839279Y347394D01*
X839293Y347471D01*
X839316Y347545D01*
X839315Y347591D01*
X839323Y347636D01*
X839312Y347713D01*
X839310Y347791D01*
X839294Y347834D01*
X839287Y347879D01*
X839252Y347949D01*
X839225Y348022D01*
X839197Y348058D01*
X839176Y348099D01*
X839120Y348153D01*
X839072Y348214D01*
X839033Y348239D01*
X839000Y348271D01*
X838880Y348337D01*
X838865Y348347D01*
X838860Y348348D01*
X838853Y348352D01*
X838217Y348615D01*
X836295Y350537D01*
X835255Y353047D01*
X835255Y355765D01*
X836295Y358276D01*
X838217Y360197D01*
X840727Y361237D01*
X843445Y361237D01*
X846037Y360163D01*
X846081Y360153D01*
X846123Y360134D01*
X846200Y360125D01*
X846276Y360107D01*
X846322Y360111D01*
X846367Y360106D01*
X846444Y360123D01*
X846521Y360130D01*
X846563Y360149D01*
X846608Y360159D01*
X846675Y360199D01*
X846746Y360230D01*
X846780Y360261D01*
X846819Y360285D01*
X846870Y360344D01*
X846927Y360397D01*
X846949Y360437D01*
X846979Y360472D01*
X847008Y360544D01*
X847045Y360612D01*
X847054Y360657D01*
X847071Y360700D01*
X847086Y360836D01*
X847089Y360854D01*
X847088Y360859D01*
X847089Y360867D01*
X847089Y363728D01*
X847086Y363748D01*
X847088Y363767D01*
X847066Y363869D01*
X847050Y363971D01*
X847040Y363988D01*
X847036Y364008D01*
X846983Y364097D01*
X846934Y364188D01*
X846920Y364202D01*
X846910Y364219D01*
X846831Y364286D01*
X846756Y364358D01*
X846738Y364366D01*
X846723Y364379D01*
X846627Y364418D01*
X846533Y364461D01*
X846513Y364463D01*
X846495Y364471D01*
X846328Y364489D01*
X829379Y364489D01*
X829308Y364478D01*
X829236Y364476D01*
X829187Y364458D01*
X829136Y364450D01*
X829073Y364416D01*
X829005Y364391D01*
X828965Y364359D01*
X828919Y364334D01*
X828869Y364282D01*
X828813Y364238D01*
X828785Y364194D01*
X828749Y364156D01*
X828719Y364091D01*
X828680Y364031D01*
X828667Y363980D01*
X828646Y363933D01*
X828638Y363862D01*
X828620Y363792D01*
X828624Y363740D01*
X828618Y363689D01*
X828634Y363618D01*
X828639Y363547D01*
X828660Y363499D01*
X828671Y363448D01*
X828707Y363387D01*
X828736Y363321D01*
X828780Y363265D01*
X828797Y363237D01*
X828815Y363222D01*
X828840Y363190D01*
X830021Y362009D01*
X831061Y359499D01*
X831061Y356781D01*
X830021Y354271D01*
X828099Y352349D01*
X825589Y351309D01*
X822871Y351309D01*
X820361Y352349D01*
X818439Y354271D01*
X817399Y356781D01*
X817399Y359499D01*
X818439Y362009D01*
X819620Y363190D01*
X819661Y363248D01*
X819711Y363300D01*
X819733Y363347D01*
X819763Y363389D01*
X819784Y363458D01*
X819814Y363523D01*
X819820Y363575D01*
X819836Y363625D01*
X819834Y363696D01*
X819842Y363767D01*
X819831Y363818D01*
X819829Y363870D01*
X819805Y363938D01*
X819789Y364008D01*
X819763Y364053D01*
X819745Y364101D01*
X819700Y364157D01*
X819663Y364219D01*
X819624Y364253D01*
X819591Y364293D01*
X819531Y364332D01*
X819476Y364379D01*
X819428Y364398D01*
X819384Y364426D01*
X819315Y364444D01*
X819248Y364471D01*
X819177Y364479D01*
X819146Y364487D01*
X819122Y364485D01*
X819081Y364489D01*
X812001Y364489D01*
X811930Y364478D01*
X811858Y364476D01*
X811809Y364458D01*
X811758Y364450D01*
X811695Y364416D01*
X811627Y364391D01*
X811587Y364359D01*
X811541Y364334D01*
X811491Y364282D01*
X811435Y364238D01*
X811407Y364194D01*
X811371Y364156D01*
X811341Y364091D01*
X811302Y364031D01*
X811289Y363980D01*
X811268Y363933D01*
X811260Y363862D01*
X811242Y363792D01*
X811246Y363740D01*
X811240Y363689D01*
X811256Y363618D01*
X811261Y363547D01*
X811282Y363499D01*
X811293Y363448D01*
X811329Y363387D01*
X811358Y363321D01*
X811402Y363265D01*
X811419Y363237D01*
X811437Y363222D01*
X811462Y363190D01*
X812643Y362009D01*
X813683Y359499D01*
X813683Y356781D01*
X812643Y354271D01*
X810721Y352349D01*
X808211Y351309D01*
X805493Y351309D01*
X802983Y352349D01*
X802744Y352588D01*
X802728Y352599D01*
X802716Y352615D01*
X802628Y352671D01*
X802545Y352731D01*
X802526Y352737D01*
X802509Y352748D01*
X802408Y352773D01*
X802309Y352804D01*
X802289Y352803D01*
X802270Y352808D01*
X802167Y352800D01*
X802064Y352797D01*
X802045Y352790D01*
X802025Y352789D01*
X801930Y352748D01*
X801833Y352713D01*
X801817Y352700D01*
X801799Y352692D01*
X801668Y352588D01*
X801429Y352349D01*
X798919Y351309D01*
X796201Y351309D01*
X793691Y352349D01*
X791769Y354271D01*
X790729Y356781D01*
X790729Y359499D01*
X791769Y362009D01*
X792950Y363190D01*
X792991Y363248D01*
X793041Y363300D01*
X793063Y363347D01*
X793093Y363389D01*
X793114Y363458D01*
X793144Y363523D01*
X793150Y363575D01*
X793166Y363625D01*
X793164Y363696D01*
X793172Y363767D01*
X793161Y363818D01*
X793159Y363870D01*
X793135Y363938D01*
X793119Y364008D01*
X793093Y364053D01*
X793075Y364101D01*
X793030Y364157D01*
X792993Y364219D01*
X792954Y364253D01*
X792921Y364293D01*
X792861Y364332D01*
X792806Y364379D01*
X792758Y364398D01*
X792714Y364426D01*
X792645Y364444D01*
X792578Y364471D01*
X792507Y364479D01*
X792476Y364487D01*
X792452Y364485D01*
X792411Y364489D01*
X787271Y364489D01*
X787200Y364478D01*
X787128Y364476D01*
X787079Y364458D01*
X787028Y364450D01*
X786965Y364416D01*
X786897Y364391D01*
X786857Y364359D01*
X786811Y364334D01*
X786761Y364282D01*
X786705Y364238D01*
X786677Y364194D01*
X786641Y364156D01*
X786611Y364091D01*
X786572Y364031D01*
X786559Y363980D01*
X786538Y363933D01*
X786530Y363862D01*
X786512Y363792D01*
X786516Y363740D01*
X786510Y363689D01*
X786526Y363618D01*
X786531Y363547D01*
X786552Y363499D01*
X786563Y363448D01*
X786599Y363387D01*
X786628Y363321D01*
X786672Y363265D01*
X786689Y363237D01*
X786707Y363222D01*
X786732Y363190D01*
X787913Y362009D01*
X788953Y359499D01*
X788953Y356781D01*
X787913Y354271D01*
X785991Y352349D01*
X783481Y351309D01*
X780763Y351309D01*
X778253Y352349D01*
X776331Y354271D01*
X775291Y356781D01*
X775291Y359499D01*
X776331Y362009D01*
X777512Y363190D01*
X777553Y363248D01*
X777603Y363300D01*
X777625Y363347D01*
X777655Y363389D01*
X777676Y363458D01*
X777706Y363523D01*
X777712Y363575D01*
X777728Y363625D01*
X777726Y363696D01*
X777734Y363767D01*
X777723Y363818D01*
X777721Y363870D01*
X777697Y363938D01*
X777681Y364008D01*
X777655Y364053D01*
X777637Y364101D01*
X777592Y364157D01*
X777555Y364219D01*
X777516Y364253D01*
X777483Y364293D01*
X777423Y364332D01*
X777368Y364379D01*
X777320Y364398D01*
X777276Y364426D01*
X777207Y364444D01*
X777140Y364471D01*
X777069Y364479D01*
X777038Y364487D01*
X777014Y364485D01*
X776973Y364489D01*
X773122Y364489D01*
X751839Y385772D01*
X751839Y387281D01*
X751838Y387291D01*
X751838Y387296D01*
X751833Y387320D01*
X751828Y387352D01*
X751826Y387424D01*
X751808Y387473D01*
X751800Y387524D01*
X751766Y387588D01*
X751741Y387655D01*
X751709Y387696D01*
X751684Y387741D01*
X751632Y387791D01*
X751587Y387847D01*
X751544Y387875D01*
X751506Y387911D01*
X751441Y387941D01*
X751380Y387980D01*
X751330Y387993D01*
X751283Y388014D01*
X751211Y388022D01*
X751142Y388040D01*
X751090Y388036D01*
X751039Y388042D01*
X750968Y388026D01*
X750896Y388021D01*
X750849Y388000D01*
X750798Y387989D01*
X750743Y387956D01*
X748119Y386869D01*
X745401Y386869D01*
X742891Y387909D01*
X740969Y389831D01*
X739929Y392341D01*
X739929Y395059D01*
X740969Y397569D01*
X742891Y399491D01*
X745401Y400531D01*
X748119Y400531D01*
X750629Y399491D01*
X750897Y399223D01*
X750913Y399211D01*
X750926Y399196D01*
X751013Y399140D01*
X751097Y399079D01*
X751116Y399074D01*
X751133Y399063D01*
X751233Y399037D01*
X751332Y399007D01*
X751352Y399008D01*
X751371Y399003D01*
X751474Y399011D01*
X751578Y399013D01*
X751597Y399020D01*
X751616Y399022D01*
X751711Y399062D01*
X751809Y399098D01*
X751824Y399110D01*
X751843Y399118D01*
X751974Y399223D01*
X754294Y401544D01*
X757882Y405131D01*
X768658Y405131D01*
X779866Y393924D01*
X779939Y393871D01*
X780009Y393811D01*
X780039Y393799D01*
X780065Y393780D01*
X780152Y393753D01*
X780237Y393719D01*
X780278Y393715D01*
X780300Y393708D01*
X780333Y393709D01*
X780404Y393701D01*
X847736Y393701D01*
X847826Y393715D01*
X847917Y393723D01*
X847947Y393735D01*
X847979Y393740D01*
X848060Y393783D01*
X848144Y393819D01*
X848176Y393845D01*
X848196Y393856D01*
X848219Y393879D01*
X848274Y393924D01*
X849322Y394971D01*
X890201Y394971D01*
X890272Y394982D01*
X890344Y394984D01*
X890393Y395002D01*
X890444Y395010D01*
X890507Y395044D01*
X890575Y395069D01*
X890615Y395101D01*
X890661Y395126D01*
X890711Y395178D01*
X890767Y395222D01*
X890795Y395266D01*
X890831Y395304D01*
X890861Y395369D01*
X890900Y395429D01*
X890913Y395480D01*
X890934Y395527D01*
X890942Y395598D01*
X890960Y395668D01*
X890956Y395720D01*
X890962Y395771D01*
X890946Y395842D01*
X890941Y395913D01*
X890920Y395961D01*
X890909Y396012D01*
X890873Y396073D01*
X890844Y396139D01*
X890800Y396195D01*
X890783Y396223D01*
X890765Y396238D01*
X890740Y396270D01*
X889559Y397451D01*
X888819Y399238D01*
X888808Y399255D01*
X888803Y399274D01*
X888744Y399359D01*
X888689Y399447D01*
X888674Y399459D01*
X888663Y399476D01*
X888580Y399538D01*
X888500Y399604D01*
X888481Y399611D01*
X888465Y399623D01*
X888367Y399655D01*
X888270Y399692D01*
X888250Y399693D01*
X888231Y399699D01*
X888128Y399698D01*
X888025Y399702D01*
X888005Y399697D01*
X887985Y399696D01*
X887824Y399650D01*
X887819Y399647D01*
X885101Y399647D01*
X882591Y400687D01*
X880669Y402609D01*
X879629Y405119D01*
X879629Y407837D01*
X880669Y410347D01*
X882591Y412269D01*
X885101Y413309D01*
X887819Y413309D01*
X890329Y412269D01*
X892251Y410347D01*
X892991Y408560D01*
X893002Y408543D01*
X893007Y408524D01*
X893066Y408439D01*
X893121Y408351D01*
X893136Y408339D01*
X893147Y408322D01*
X893230Y408260D01*
X893310Y408194D01*
X893329Y408187D01*
X893345Y408175D01*
X893443Y408143D01*
X893540Y408106D01*
X893560Y408105D01*
X893579Y408099D01*
X893682Y408100D01*
X893785Y408096D01*
X893805Y408101D01*
X893825Y408102D01*
X893986Y408148D01*
X893991Y408151D01*
X896709Y408151D01*
X899219Y407111D01*
X901141Y405189D01*
X902181Y402679D01*
X902181Y399961D01*
X901141Y397451D01*
X899219Y395529D01*
X899155Y395503D01*
X899116Y395478D01*
X899073Y395463D01*
X899012Y395414D01*
X898946Y395373D01*
X898917Y395338D01*
X898881Y395309D01*
X898839Y395244D01*
X898789Y395184D01*
X898773Y395141D01*
X898748Y395102D01*
X898729Y395027D01*
X898701Y394954D01*
X898699Y394908D01*
X898688Y394864D01*
X898694Y394786D01*
X898691Y394708D01*
X898703Y394664D01*
X898707Y394618D01*
X898737Y394547D01*
X898759Y394472D01*
X898785Y394434D01*
X898803Y394392D01*
X898889Y394285D01*
X898899Y394270D01*
X898903Y394267D01*
X898908Y394261D01*
X900431Y392738D01*
X900431Y292100D01*
X900434Y292080D01*
X900432Y292061D01*
X900454Y291959D01*
X900470Y291857D01*
X900480Y291840D01*
X900484Y291820D01*
X900537Y291731D01*
X900586Y291640D01*
X900600Y291626D01*
X900610Y291609D01*
X900689Y291542D01*
X900764Y291471D01*
X900782Y291462D01*
X900797Y291449D01*
X900893Y291410D01*
X900987Y291367D01*
X901007Y291365D01*
X901025Y291357D01*
X901192Y291339D01*
X989078Y291339D01*
X989098Y291342D01*
X989117Y291340D01*
X989219Y291362D01*
X989321Y291379D01*
X989338Y291388D01*
X989358Y291392D01*
X989447Y291445D01*
X989538Y291494D01*
X989552Y291508D01*
X989569Y291518D01*
X989636Y291597D01*
X989708Y291672D01*
X989716Y291690D01*
X989729Y291705D01*
X989768Y291801D01*
X989811Y291895D01*
X989813Y291915D01*
X989821Y291933D01*
X989839Y292100D01*
X989839Y317543D01*
X989828Y317613D01*
X989826Y317685D01*
X989808Y317734D01*
X989800Y317785D01*
X989766Y317849D01*
X989741Y317916D01*
X989709Y317957D01*
X989684Y318003D01*
X989632Y318052D01*
X989588Y318108D01*
X989544Y318136D01*
X989506Y318172D01*
X989441Y318202D01*
X989381Y318241D01*
X989330Y318254D01*
X989283Y318276D01*
X989212Y318284D01*
X989142Y318301D01*
X989090Y318297D01*
X989039Y318303D01*
X988968Y318288D01*
X988897Y318282D01*
X988849Y318262D01*
X988798Y318251D01*
X988737Y318214D01*
X988671Y318186D01*
X988615Y318141D01*
X988587Y318124D01*
X988572Y318107D01*
X988540Y318081D01*
X978957Y308498D01*
X976849Y306390D01*
X974235Y305307D01*
X925685Y305307D01*
X923071Y306390D01*
X921070Y308391D01*
X919987Y311005D01*
X919987Y313835D01*
X921070Y316449D01*
X923071Y318450D01*
X925685Y319533D01*
X935985Y319533D01*
X936030Y319540D01*
X936076Y319538D01*
X936151Y319560D01*
X936228Y319572D01*
X936268Y319594D01*
X936313Y319607D01*
X936377Y319651D01*
X936445Y319688D01*
X936477Y319721D01*
X936515Y319747D01*
X936561Y319810D01*
X936615Y319866D01*
X936634Y319908D01*
X936661Y319944D01*
X936686Y320018D01*
X936718Y320089D01*
X936723Y320135D01*
X936738Y320178D01*
X936737Y320256D01*
X936745Y320333D01*
X936736Y320378D01*
X936735Y320424D01*
X936697Y320556D01*
X936693Y320574D01*
X936691Y320578D01*
X936689Y320585D01*
X935785Y322767D01*
X935785Y325484D01*
X936825Y327995D01*
X938746Y329916D01*
X941257Y330956D01*
X943974Y330956D01*
X946485Y329916D01*
X948406Y327995D01*
X949446Y325484D01*
X949446Y322767D01*
X948543Y320585D01*
X948532Y320541D01*
X948513Y320499D01*
X948504Y320422D01*
X948487Y320346D01*
X948491Y320300D01*
X948486Y320255D01*
X948502Y320178D01*
X948510Y320101D01*
X948528Y320059D01*
X948538Y320014D01*
X948578Y319947D01*
X948610Y319876D01*
X948641Y319842D01*
X948664Y319803D01*
X948723Y319752D01*
X948776Y319695D01*
X948816Y319673D01*
X948851Y319643D01*
X948923Y319614D01*
X948992Y319577D01*
X949037Y319568D01*
X949079Y319551D01*
X949215Y319536D01*
X949234Y319533D01*
X949239Y319534D01*
X949246Y319533D01*
X969558Y319533D01*
X969649Y319547D01*
X969739Y319555D01*
X969769Y319567D01*
X969801Y319572D01*
X969882Y319615D01*
X969966Y319651D01*
X969998Y319677D01*
X970019Y319688D01*
X970041Y319711D01*
X970097Y319756D01*
X976914Y326573D01*
X976967Y326647D01*
X976986Y326669D01*
X977006Y326689D01*
X977008Y326694D01*
X977027Y326717D01*
X977039Y326747D01*
X977058Y326773D01*
X977084Y326859D01*
X977109Y326913D01*
X977110Y326924D01*
X977119Y326945D01*
X977123Y326986D01*
X977130Y327008D01*
X977129Y327040D01*
X977137Y327112D01*
X977137Y676188D01*
X977123Y676279D01*
X977115Y676369D01*
X977103Y676399D01*
X977098Y676431D01*
X977055Y676512D01*
X977019Y676596D01*
X976993Y676628D01*
X976982Y676649D01*
X976959Y676671D01*
X976914Y676727D01*
X956127Y697514D01*
X956053Y697567D01*
X955983Y697627D01*
X955953Y697639D01*
X955927Y697658D01*
X955840Y697685D01*
X955755Y697719D01*
X955714Y697723D01*
X955692Y697730D01*
X955660Y697729D01*
X955588Y697737D01*
X737013Y697737D01*
X736923Y697723D01*
X736832Y697715D01*
X736802Y697703D01*
X736770Y697698D01*
X736690Y697655D01*
X736606Y697619D01*
X736574Y697593D01*
X736553Y697582D01*
X736531Y697559D01*
X736475Y697514D01*
X735682Y696721D01*
X732157Y695261D01*
X728343Y695261D01*
X724818Y696721D01*
X724025Y697514D01*
X723951Y697567D01*
X723882Y697627D01*
X723852Y697639D01*
X723825Y697658D01*
X723738Y697685D01*
X723654Y697719D01*
X723613Y697723D01*
X723590Y697730D01*
X723558Y697729D01*
X723487Y697737D01*
X555712Y697737D01*
X555621Y697723D01*
X555531Y697715D01*
X555501Y697703D01*
X555469Y697698D01*
X555388Y697655D01*
X555304Y697619D01*
X555272Y697593D01*
X555251Y697582D01*
X555229Y697559D01*
X555173Y697514D01*
X521686Y664027D01*
X521633Y663953D01*
X521573Y663883D01*
X521561Y663853D01*
X521542Y663827D01*
X521515Y663740D01*
X521481Y663655D01*
X521477Y663614D01*
X521470Y663592D01*
X521471Y663560D01*
X521463Y663488D01*
X521463Y565150D01*
X521466Y565130D01*
X521464Y565111D01*
X521486Y565009D01*
X521502Y564907D01*
X521512Y564890D01*
X521516Y564870D01*
X521569Y564781D01*
X521618Y564690D01*
X521632Y564676D01*
X521642Y564659D01*
X521721Y564592D01*
X521796Y564521D01*
X521814Y564512D01*
X521829Y564499D01*
X521925Y564460D01*
X522019Y564417D01*
X522039Y564415D01*
X522057Y564407D01*
X522224Y564389D01*
X551689Y564389D01*
X551689Y349250D01*
X551692Y349230D01*
X551690Y349211D01*
X551712Y349109D01*
X551729Y349007D01*
X551738Y348990D01*
X551742Y348970D01*
X551795Y348881D01*
X551844Y348790D01*
X551858Y348776D01*
X551868Y348759D01*
X551947Y348692D01*
X552022Y348621D01*
X552040Y348612D01*
X552055Y348599D01*
X552151Y348560D01*
X552245Y348517D01*
X552265Y348515D01*
X552283Y348507D01*
X552450Y348489D01*
X621539Y348489D01*
X621539Y292100D01*
X621542Y292080D01*
X621540Y292061D01*
X621562Y291959D01*
X621579Y291857D01*
X621588Y291840D01*
X621592Y291820D01*
X621645Y291731D01*
X621694Y291640D01*
X621708Y291626D01*
X621718Y291609D01*
X621797Y291542D01*
X621872Y291471D01*
X621890Y291462D01*
X621905Y291449D01*
X622001Y291410D01*
X622095Y291367D01*
X622115Y291365D01*
X622133Y291357D01*
X622300Y291339D01*
X846328Y291339D01*
X846348Y291342D01*
G37*
G36*
X439510Y583454D02*
X439510Y583454D01*
X439601Y583461D01*
X439631Y583473D01*
X439663Y583479D01*
X439743Y583521D01*
X439827Y583557D01*
X439859Y583583D01*
X439880Y583594D01*
X439902Y583617D01*
X439958Y583662D01*
X445038Y588742D01*
X445091Y588816D01*
X445151Y588885D01*
X445163Y588915D01*
X445182Y588941D01*
X445209Y589028D01*
X445243Y589113D01*
X445247Y589154D01*
X445254Y589177D01*
X445253Y589209D01*
X445261Y589280D01*
X445261Y594978D01*
X445247Y595068D01*
X445239Y595159D01*
X445227Y595189D01*
X445222Y595221D01*
X445179Y595302D01*
X445143Y595386D01*
X445117Y595418D01*
X445106Y595438D01*
X445083Y595460D01*
X445038Y595517D01*
X444710Y595845D01*
X442467Y601259D01*
X442467Y666811D01*
X444710Y672225D01*
X445038Y672553D01*
X445092Y672628D01*
X445151Y672697D01*
X445163Y672727D01*
X445182Y672753D01*
X445209Y672840D01*
X445243Y672925D01*
X445247Y672966D01*
X445254Y672988D01*
X445253Y673021D01*
X445261Y673092D01*
X445261Y721978D01*
X445247Y722068D01*
X445239Y722159D01*
X445227Y722189D01*
X445222Y722221D01*
X445201Y722259D01*
X445200Y722266D01*
X445180Y722299D01*
X445179Y722302D01*
X445143Y722386D01*
X445117Y722418D01*
X445106Y722438D01*
X445084Y722459D01*
X445074Y722477D01*
X445061Y722488D01*
X445038Y722517D01*
X444710Y722845D01*
X442467Y728259D01*
X442467Y781111D01*
X444710Y786525D01*
X445038Y786853D01*
X445092Y786928D01*
X445151Y786997D01*
X445163Y787027D01*
X445182Y787053D01*
X445209Y787140D01*
X445243Y787225D01*
X445247Y787266D01*
X445254Y787288D01*
X445253Y787321D01*
X445261Y787392D01*
X445261Y810878D01*
X445247Y810968D01*
X445239Y811059D01*
X445227Y811089D01*
X445222Y811121D01*
X445179Y811202D01*
X445143Y811286D01*
X445117Y811318D01*
X445106Y811338D01*
X445083Y811360D01*
X445038Y811417D01*
X444710Y811745D01*
X442467Y817159D01*
X442467Y870011D01*
X444710Y875425D01*
X445038Y875753D01*
X445092Y875828D01*
X445151Y875897D01*
X445163Y875927D01*
X445182Y875953D01*
X445209Y876040D01*
X445243Y876125D01*
X445247Y876166D01*
X445254Y876188D01*
X445253Y876221D01*
X445261Y876292D01*
X445261Y889078D01*
X445258Y889098D01*
X445260Y889117D01*
X445238Y889219D01*
X445222Y889321D01*
X445212Y889338D01*
X445208Y889358D01*
X445155Y889447D01*
X445106Y889538D01*
X445092Y889552D01*
X445082Y889569D01*
X445003Y889636D01*
X444928Y889708D01*
X444910Y889716D01*
X444895Y889729D01*
X444799Y889768D01*
X444705Y889811D01*
X444685Y889813D01*
X444667Y889821D01*
X444500Y889839D01*
X10922Y889839D01*
X10902Y889836D01*
X10883Y889838D01*
X10781Y889816D01*
X10679Y889800D01*
X10662Y889790D01*
X10642Y889786D01*
X10553Y889733D01*
X10462Y889684D01*
X10448Y889670D01*
X10431Y889660D01*
X10364Y889581D01*
X10292Y889506D01*
X10284Y889488D01*
X10271Y889473D01*
X10232Y889377D01*
X10189Y889283D01*
X10187Y889263D01*
X10179Y889245D01*
X10161Y889078D01*
X10161Y584200D01*
X10164Y584180D01*
X10162Y584161D01*
X10184Y584059D01*
X10200Y583957D01*
X10210Y583940D01*
X10214Y583920D01*
X10267Y583831D01*
X10316Y583740D01*
X10330Y583726D01*
X10340Y583709D01*
X10419Y583642D01*
X10494Y583571D01*
X10512Y583562D01*
X10527Y583549D01*
X10623Y583510D01*
X10717Y583467D01*
X10737Y583465D01*
X10755Y583457D01*
X10922Y583439D01*
X439420Y583439D01*
X439510Y583454D01*
G37*
%LPC*%
G36*
X24041Y463069D02*
X24041Y463069D01*
X21531Y464109D01*
X19609Y466031D01*
X18569Y468541D01*
X18569Y471259D01*
X19609Y473769D01*
X21531Y475691D01*
X24041Y476731D01*
X26759Y476731D01*
X28600Y475968D01*
X28695Y475946D01*
X28788Y475917D01*
X28814Y475918D01*
X28839Y475912D01*
X28936Y475921D01*
X29034Y475924D01*
X29058Y475933D01*
X29084Y475935D01*
X29173Y475975D01*
X29265Y476008D01*
X29285Y476024D01*
X29309Y476035D01*
X29381Y476101D01*
X29457Y476162D01*
X29471Y476184D01*
X29490Y476201D01*
X29537Y476287D01*
X29590Y476369D01*
X29596Y476394D01*
X29609Y476417D01*
X29626Y476513D01*
X29650Y476607D01*
X29648Y476633D01*
X29652Y476659D01*
X29638Y476755D01*
X29631Y476852D01*
X29620Y476876D01*
X29617Y476902D01*
X29572Y476989D01*
X29534Y477079D01*
X29514Y477104D01*
X29505Y477122D01*
X29481Y477145D01*
X29430Y477210D01*
X25465Y481174D01*
X21429Y488165D01*
X19339Y495963D01*
X19339Y504037D01*
X21429Y511835D01*
X25465Y518826D01*
X31174Y524535D01*
X38165Y528571D01*
X45963Y530661D01*
X54037Y530661D01*
X61835Y528571D01*
X68826Y524535D01*
X74535Y518826D01*
X78571Y511835D01*
X80661Y504037D01*
X80661Y495963D01*
X78571Y488165D01*
X74535Y481174D01*
X68826Y475465D01*
X61835Y471429D01*
X54037Y469339D01*
X45963Y469339D01*
X38165Y471429D01*
X32209Y474868D01*
X32185Y474877D01*
X32165Y474891D01*
X32071Y474920D01*
X31979Y474955D01*
X31954Y474956D01*
X31930Y474963D01*
X31832Y474960D01*
X31733Y474964D01*
X31709Y474957D01*
X31684Y474956D01*
X31592Y474922D01*
X31497Y474894D01*
X31477Y474880D01*
X31453Y474871D01*
X31377Y474809D01*
X31296Y474753D01*
X31281Y474733D01*
X31262Y474717D01*
X31208Y474634D01*
X31150Y474555D01*
X31142Y474531D01*
X31129Y474510D01*
X31105Y474414D01*
X31075Y474320D01*
X31075Y474295D01*
X31069Y474271D01*
X31077Y474173D01*
X31079Y474074D01*
X31087Y474051D01*
X31089Y474026D01*
X31120Y473954D01*
X31133Y473909D01*
X32231Y471259D01*
X32231Y468541D01*
X31191Y466031D01*
X29269Y464109D01*
X26759Y463069D01*
X24041Y463069D01*
G37*
%LPD*%
%LPC*%
G36*
X55963Y809339D02*
X55963Y809339D01*
X48165Y811429D01*
X41174Y815465D01*
X35465Y821174D01*
X31429Y828165D01*
X29339Y835963D01*
X29339Y844037D01*
X31429Y851835D01*
X35465Y858826D01*
X41174Y864535D01*
X48165Y868571D01*
X55963Y870661D01*
X64037Y870661D01*
X71835Y868571D01*
X78826Y864535D01*
X84535Y858826D01*
X88571Y851835D01*
X90661Y844037D01*
X90661Y835963D01*
X88571Y828165D01*
X84535Y821174D01*
X78826Y815465D01*
X71835Y811429D01*
X64037Y809339D01*
X55963Y809339D01*
G37*
%LPD*%
%LPC*%
G36*
X45963Y19339D02*
X45963Y19339D01*
X38165Y21429D01*
X31174Y25465D01*
X25465Y31174D01*
X21429Y38165D01*
X19339Y45963D01*
X19339Y54037D01*
X21429Y61835D01*
X25465Y68826D01*
X31174Y74535D01*
X38165Y78571D01*
X45963Y80661D01*
X54037Y80661D01*
X61835Y78571D01*
X68826Y74535D01*
X74535Y68826D01*
X78571Y61835D01*
X80661Y54037D01*
X80661Y45963D01*
X78571Y38165D01*
X74535Y31174D01*
X68826Y25465D01*
X61835Y21429D01*
X54037Y19339D01*
X45963Y19339D01*
G37*
%LPD*%
%LPC*%
G36*
X935963Y29339D02*
X935963Y29339D01*
X928165Y31429D01*
X921174Y35465D01*
X915465Y41174D01*
X911429Y48165D01*
X909339Y55963D01*
X909339Y64037D01*
X911429Y71835D01*
X915465Y78826D01*
X921174Y84535D01*
X928165Y88571D01*
X935963Y90661D01*
X944037Y90661D01*
X951835Y88571D01*
X958826Y84535D01*
X964535Y78826D01*
X968571Y71835D01*
X970661Y64037D01*
X970661Y55963D01*
X968571Y48165D01*
X964535Y41174D01*
X958826Y35465D01*
X951835Y31429D01*
X944037Y29339D01*
X935963Y29339D01*
G37*
%LPD*%
%LPC*%
G36*
X166785Y14839D02*
X166785Y14839D01*
X160846Y17300D01*
X156300Y21846D01*
X153839Y27785D01*
X153839Y34215D01*
X156300Y40154D01*
X160846Y44700D01*
X166785Y47161D01*
X173215Y47161D01*
X179154Y44700D01*
X183700Y40154D01*
X183972Y39500D01*
X183996Y39461D01*
X184012Y39417D01*
X184060Y39357D01*
X184101Y39291D01*
X184137Y39261D01*
X184165Y39225D01*
X184231Y39183D01*
X184291Y39134D01*
X184334Y39117D01*
X184372Y39092D01*
X184448Y39073D01*
X184520Y39046D01*
X184566Y39044D01*
X184611Y39032D01*
X184688Y39038D01*
X184766Y39035D01*
X184810Y39048D01*
X184856Y39052D01*
X184927Y39082D01*
X185002Y39104D01*
X185040Y39130D01*
X185082Y39148D01*
X185189Y39233D01*
X185204Y39244D01*
X185207Y39248D01*
X185213Y39253D01*
X187175Y41214D01*
X191603Y43049D01*
X196397Y43049D01*
X200825Y41214D01*
X204214Y37825D01*
X206049Y33397D01*
X206049Y28603D01*
X204214Y24175D01*
X200825Y20786D01*
X196397Y18951D01*
X191603Y18951D01*
X187175Y20786D01*
X185213Y22747D01*
X185176Y22774D01*
X185145Y22808D01*
X185077Y22845D01*
X185013Y22891D01*
X184970Y22904D01*
X184929Y22927D01*
X184853Y22940D01*
X184778Y22963D01*
X184732Y22962D01*
X184687Y22970D01*
X184610Y22959D01*
X184532Y22957D01*
X184489Y22941D01*
X184444Y22934D01*
X184375Y22899D01*
X184301Y22872D01*
X184266Y22844D01*
X184225Y22823D01*
X184170Y22767D01*
X184109Y22719D01*
X184085Y22680D01*
X184052Y22647D01*
X183987Y22528D01*
X183976Y22512D01*
X183975Y22507D01*
X183972Y22500D01*
X183700Y21846D01*
X179154Y17300D01*
X173215Y14839D01*
X166785Y14839D01*
G37*
%LPD*%
%LPC*%
G36*
X326599Y801895D02*
X326599Y801895D01*
X319944Y804652D01*
X314852Y809744D01*
X312095Y816399D01*
X312095Y823601D01*
X314852Y830256D01*
X319944Y835348D01*
X326599Y838105D01*
X333801Y838105D01*
X340456Y835348D01*
X345548Y830256D01*
X348305Y823601D01*
X348305Y816399D01*
X345548Y809744D01*
X340456Y804652D01*
X333801Y801895D01*
X326599Y801895D01*
G37*
%LPD*%
%LPC*%
G36*
X206199Y801895D02*
X206199Y801895D01*
X199544Y804652D01*
X194452Y809744D01*
X191695Y816399D01*
X191695Y823601D01*
X194452Y830256D01*
X199544Y835348D01*
X206199Y838105D01*
X213401Y838105D01*
X220056Y835348D01*
X225148Y830256D01*
X227905Y823601D01*
X227905Y816399D01*
X225148Y809744D01*
X220056Y804652D01*
X213401Y801895D01*
X206199Y801895D01*
G37*
%LPD*%
%LPC*%
G36*
X265341Y132869D02*
X265341Y132869D01*
X262831Y133909D01*
X261074Y135666D01*
X261000Y135719D01*
X260930Y135779D01*
X260900Y135791D01*
X260874Y135810D01*
X260787Y135837D01*
X260702Y135871D01*
X260661Y135875D01*
X260639Y135882D01*
X260607Y135881D01*
X260535Y135889D01*
X233372Y135889D01*
X212089Y157172D01*
X212089Y184335D01*
X212075Y184425D01*
X212067Y184516D01*
X212055Y184546D01*
X212050Y184578D01*
X212007Y184659D01*
X211971Y184743D01*
X211945Y184775D01*
X211934Y184795D01*
X211911Y184818D01*
X211866Y184874D01*
X210109Y186631D01*
X209069Y189141D01*
X209069Y191859D01*
X210109Y194369D01*
X212031Y196291D01*
X214541Y197331D01*
X217259Y197331D01*
X219769Y196291D01*
X221691Y194369D01*
X222731Y191859D01*
X222731Y189141D01*
X221691Y186631D01*
X219934Y184874D01*
X219881Y184800D01*
X219821Y184730D01*
X219809Y184700D01*
X219790Y184674D01*
X219763Y184587D01*
X219729Y184502D01*
X219725Y184461D01*
X219718Y184439D01*
X219719Y184407D01*
X219711Y184335D01*
X219711Y160644D01*
X219725Y160554D01*
X219733Y160463D01*
X219745Y160433D01*
X219750Y160401D01*
X219793Y160320D01*
X219829Y160236D01*
X219855Y160204D01*
X219866Y160184D01*
X219889Y160161D01*
X219934Y160106D01*
X236306Y143734D01*
X236379Y143681D01*
X236449Y143621D01*
X236479Y143609D01*
X236505Y143590D01*
X236592Y143563D01*
X236677Y143529D01*
X236718Y143525D01*
X236740Y143518D01*
X236773Y143519D01*
X236844Y143511D01*
X260535Y143511D01*
X260625Y143525D01*
X260716Y143533D01*
X260746Y143545D01*
X260778Y143550D01*
X260859Y143593D01*
X260943Y143629D01*
X260975Y143655D01*
X260995Y143666D01*
X261018Y143689D01*
X261074Y143734D01*
X262831Y145491D01*
X265341Y146531D01*
X268059Y146531D01*
X270569Y145491D01*
X272491Y143569D01*
X273531Y141059D01*
X273531Y138341D01*
X272491Y135831D01*
X270569Y133909D01*
X268059Y132869D01*
X265341Y132869D01*
G37*
%LPD*%
%LPC*%
G36*
X493941Y310669D02*
X493941Y310669D01*
X491431Y311709D01*
X489509Y313631D01*
X488469Y316141D01*
X488469Y318859D01*
X489509Y321369D01*
X490210Y322070D01*
X490251Y322128D01*
X490301Y322180D01*
X490323Y322227D01*
X490353Y322269D01*
X490374Y322338D01*
X490404Y322403D01*
X490410Y322455D01*
X490426Y322505D01*
X490424Y322576D01*
X490432Y322647D01*
X490421Y322698D01*
X490419Y322750D01*
X490395Y322818D01*
X490379Y322888D01*
X490353Y322933D01*
X490335Y322981D01*
X490290Y323037D01*
X490253Y323099D01*
X490214Y323133D01*
X490181Y323173D01*
X490121Y323212D01*
X490066Y323259D01*
X490018Y323278D01*
X489974Y323306D01*
X489905Y323324D01*
X489838Y323351D01*
X489767Y323359D01*
X489736Y323367D01*
X489712Y323365D01*
X489671Y323369D01*
X487591Y323369D01*
X485081Y324409D01*
X483159Y326331D01*
X482119Y328841D01*
X482119Y331559D01*
X483159Y334069D01*
X485081Y335991D01*
X487591Y337031D01*
X489671Y337031D01*
X489742Y337042D01*
X489814Y337044D01*
X489863Y337062D01*
X489914Y337070D01*
X489977Y337104D01*
X490045Y337129D01*
X490085Y337161D01*
X490131Y337186D01*
X490181Y337238D01*
X490237Y337282D01*
X490265Y337326D01*
X490301Y337364D01*
X490331Y337429D01*
X490370Y337489D01*
X490383Y337540D01*
X490404Y337587D01*
X490412Y337658D01*
X490430Y337728D01*
X490426Y337780D01*
X490432Y337831D01*
X490416Y337902D01*
X490411Y337973D01*
X490390Y338021D01*
X490379Y338072D01*
X490343Y338133D01*
X490314Y338199D01*
X490270Y338255D01*
X490253Y338283D01*
X490235Y338298D01*
X490210Y338330D01*
X489509Y339031D01*
X488469Y341541D01*
X488469Y344259D01*
X489509Y346769D01*
X491431Y348691D01*
X493941Y349731D01*
X496659Y349731D01*
X499169Y348691D01*
X501091Y346769D01*
X502131Y344259D01*
X502131Y341541D01*
X501091Y339031D01*
X499169Y337109D01*
X496659Y336069D01*
X494579Y336069D01*
X494508Y336058D01*
X494436Y336056D01*
X494387Y336038D01*
X494336Y336030D01*
X494273Y335996D01*
X494205Y335971D01*
X494164Y335939D01*
X494119Y335914D01*
X494069Y335862D01*
X494013Y335818D01*
X493985Y335774D01*
X493949Y335736D01*
X493919Y335671D01*
X493880Y335611D01*
X493867Y335560D01*
X493846Y335513D01*
X493838Y335442D01*
X493820Y335372D01*
X493824Y335320D01*
X493818Y335269D01*
X493834Y335198D01*
X493839Y335127D01*
X493860Y335079D01*
X493871Y335028D01*
X493907Y334967D01*
X493936Y334901D01*
X493980Y334845D01*
X493997Y334817D01*
X494015Y334802D01*
X494040Y334770D01*
X494576Y334234D01*
X494651Y334180D01*
X494720Y334121D01*
X494750Y334109D01*
X494776Y334090D01*
X494863Y334063D01*
X494948Y334029D01*
X494989Y334025D01*
X495011Y334018D01*
X495043Y334019D01*
X495115Y334011D01*
X527235Y334011D01*
X527325Y334025D01*
X527416Y334033D01*
X527446Y334045D01*
X527478Y334050D01*
X527559Y334093D01*
X527643Y334129D01*
X527675Y334155D01*
X527695Y334166D01*
X527718Y334189D01*
X527774Y334234D01*
X529531Y335991D01*
X532041Y337031D01*
X534759Y337031D01*
X537269Y335991D01*
X539191Y334069D01*
X540231Y331559D01*
X540231Y328841D01*
X539191Y326331D01*
X537269Y324409D01*
X534759Y323369D01*
X532041Y323369D01*
X529531Y324409D01*
X527774Y326166D01*
X527700Y326219D01*
X527630Y326279D01*
X527600Y326291D01*
X527574Y326310D01*
X527487Y326337D01*
X527402Y326371D01*
X527361Y326375D01*
X527339Y326382D01*
X527307Y326381D01*
X527235Y326389D01*
X495115Y326389D01*
X495025Y326375D01*
X494934Y326367D01*
X494904Y326355D01*
X494872Y326350D01*
X494792Y326307D01*
X494707Y326271D01*
X494675Y326245D01*
X494655Y326234D01*
X494633Y326211D01*
X494576Y326166D01*
X494040Y325630D01*
X493998Y325572D01*
X493949Y325520D01*
X493927Y325473D01*
X493897Y325431D01*
X493876Y325362D01*
X493846Y325297D01*
X493840Y325245D01*
X493824Y325195D01*
X493826Y325124D01*
X493818Y325053D01*
X493829Y325002D01*
X493831Y324950D01*
X493855Y324882D01*
X493871Y324812D01*
X493897Y324767D01*
X493915Y324719D01*
X493960Y324663D01*
X493997Y324601D01*
X494036Y324567D01*
X494069Y324527D01*
X494129Y324488D01*
X494184Y324441D01*
X494232Y324422D01*
X494276Y324394D01*
X494345Y324376D01*
X494412Y324349D01*
X494483Y324341D01*
X494514Y324333D01*
X494538Y324335D01*
X494579Y324331D01*
X496659Y324331D01*
X499169Y323291D01*
X501091Y321369D01*
X502131Y318859D01*
X502131Y316141D01*
X501091Y313631D01*
X499169Y311709D01*
X496659Y310669D01*
X493941Y310669D01*
G37*
%LPD*%
%LPC*%
G36*
X911364Y562589D02*
X911364Y562589D01*
X905755Y564913D01*
X901463Y569205D01*
X899139Y574814D01*
X899139Y580886D01*
X901463Y586495D01*
X905755Y590787D01*
X911364Y593111D01*
X917436Y593111D01*
X923045Y590787D01*
X927337Y586495D01*
X929661Y580886D01*
X929661Y574814D01*
X927337Y569205D01*
X923045Y564913D01*
X917436Y562589D01*
X911364Y562589D01*
G37*
%LPD*%
%LPC*%
G36*
X911364Y626089D02*
X911364Y626089D01*
X905755Y628413D01*
X901463Y632705D01*
X899139Y638314D01*
X899139Y644386D01*
X901463Y649995D01*
X905755Y654287D01*
X911364Y656611D01*
X917436Y656611D01*
X923045Y654287D01*
X927337Y649995D01*
X929661Y644386D01*
X929661Y638314D01*
X927337Y632705D01*
X923045Y628413D01*
X917436Y626089D01*
X911364Y626089D01*
G37*
%LPD*%
%LPC*%
G36*
X201841Y132869D02*
X201841Y132869D01*
X199331Y133909D01*
X197409Y135831D01*
X196369Y138341D01*
X196369Y140826D01*
X196355Y140916D01*
X196347Y141007D01*
X196335Y141037D01*
X196330Y141069D01*
X196287Y141150D01*
X196251Y141234D01*
X196225Y141266D01*
X196214Y141286D01*
X196191Y141309D01*
X196146Y141364D01*
X186689Y150822D01*
X186689Y184335D01*
X186675Y184425D01*
X186667Y184516D01*
X186655Y184546D01*
X186650Y184578D01*
X186607Y184659D01*
X186571Y184743D01*
X186545Y184775D01*
X186534Y184795D01*
X186511Y184818D01*
X186466Y184874D01*
X184709Y186631D01*
X183669Y189141D01*
X183669Y191859D01*
X184709Y194369D01*
X186631Y196291D01*
X189141Y197331D01*
X191859Y197331D01*
X194369Y196291D01*
X196291Y194369D01*
X197331Y191859D01*
X197331Y189141D01*
X196291Y186631D01*
X194534Y184874D01*
X194481Y184800D01*
X194421Y184730D01*
X194409Y184700D01*
X194390Y184674D01*
X194363Y184587D01*
X194329Y184502D01*
X194325Y184461D01*
X194318Y184439D01*
X194319Y184407D01*
X194311Y184335D01*
X194311Y154294D01*
X194325Y154204D01*
X194333Y154113D01*
X194345Y154083D01*
X194350Y154051D01*
X194393Y153970D01*
X194429Y153886D01*
X194455Y153854D01*
X194466Y153834D01*
X194489Y153811D01*
X194534Y153756D01*
X201536Y146754D01*
X201609Y146701D01*
X201679Y146641D01*
X201709Y146629D01*
X201735Y146610D01*
X201822Y146583D01*
X201907Y146549D01*
X201948Y146545D01*
X201970Y146538D01*
X202003Y146539D01*
X202074Y146531D01*
X204559Y146531D01*
X207069Y145491D01*
X208991Y143569D01*
X210031Y141059D01*
X210031Y138341D01*
X208991Y135831D01*
X207069Y133909D01*
X204559Y132869D01*
X201841Y132869D01*
G37*
%LPD*%
%LPC*%
G36*
X316141Y132869D02*
X316141Y132869D01*
X313631Y133909D01*
X311709Y135831D01*
X310669Y138341D01*
X310669Y141059D01*
X311709Y143569D01*
X313466Y145326D01*
X313519Y145400D01*
X313579Y145470D01*
X313591Y145500D01*
X313610Y145526D01*
X313637Y145613D01*
X313671Y145698D01*
X313675Y145739D01*
X313682Y145761D01*
X313681Y145793D01*
X313689Y145865D01*
X313689Y184335D01*
X313675Y184425D01*
X313667Y184516D01*
X313655Y184546D01*
X313650Y184578D01*
X313607Y184659D01*
X313571Y184743D01*
X313545Y184775D01*
X313534Y184795D01*
X313511Y184818D01*
X313466Y184874D01*
X311709Y186631D01*
X310669Y189141D01*
X310669Y191859D01*
X311709Y194369D01*
X313631Y196291D01*
X316141Y197331D01*
X318859Y197331D01*
X321369Y196291D01*
X323291Y194369D01*
X324331Y191859D01*
X324331Y189141D01*
X323291Y186631D01*
X321534Y184874D01*
X321481Y184800D01*
X321421Y184730D01*
X321409Y184700D01*
X321390Y184674D01*
X321363Y184587D01*
X321329Y184502D01*
X321325Y184461D01*
X321318Y184439D01*
X321319Y184407D01*
X321311Y184335D01*
X321311Y145865D01*
X321325Y145775D01*
X321333Y145684D01*
X321345Y145654D01*
X321350Y145622D01*
X321393Y145541D01*
X321429Y145457D01*
X321455Y145425D01*
X321466Y145405D01*
X321489Y145382D01*
X321534Y145326D01*
X323291Y143569D01*
X324331Y141059D01*
X324331Y138341D01*
X323291Y135831D01*
X321369Y133909D01*
X318859Y132869D01*
X316141Y132869D01*
G37*
%LPD*%
%LPC*%
G36*
X143603Y38951D02*
X143603Y38951D01*
X139175Y40786D01*
X135786Y44175D01*
X133951Y48603D01*
X133951Y53397D01*
X135786Y57825D01*
X139175Y61214D01*
X143603Y63049D01*
X148397Y63049D01*
X152825Y61214D01*
X156214Y57825D01*
X158049Y53397D01*
X158049Y48603D01*
X156214Y44175D01*
X152825Y40786D01*
X148397Y38951D01*
X143603Y38951D01*
G37*
%LPD*%
%LPC*%
G36*
X749211Y482119D02*
X749211Y482119D01*
X746701Y483159D01*
X744779Y485081D01*
X743739Y487591D01*
X743739Y490309D01*
X744779Y492819D01*
X746722Y494762D01*
X746733Y494778D01*
X746749Y494790D01*
X746805Y494878D01*
X746865Y494961D01*
X746871Y494980D01*
X746882Y494997D01*
X746907Y495098D01*
X746938Y495197D01*
X746937Y495216D01*
X746942Y495236D01*
X746934Y495339D01*
X746931Y495442D01*
X746924Y495461D01*
X746923Y495481D01*
X746882Y495576D01*
X746847Y495673D01*
X746834Y495689D01*
X746826Y495707D01*
X746722Y495838D01*
X744779Y497781D01*
X743739Y500291D01*
X743739Y503009D01*
X744779Y505519D01*
X746722Y507462D01*
X746733Y507478D01*
X746749Y507490D01*
X746805Y507578D01*
X746865Y507661D01*
X746871Y507680D01*
X746882Y507697D01*
X746907Y507798D01*
X746938Y507897D01*
X746937Y507916D01*
X746942Y507936D01*
X746934Y508039D01*
X746931Y508142D01*
X746924Y508161D01*
X746923Y508181D01*
X746882Y508276D01*
X746847Y508373D01*
X746834Y508389D01*
X746826Y508407D01*
X746722Y508538D01*
X744779Y510481D01*
X743739Y512991D01*
X743739Y515709D01*
X744779Y518219D01*
X746701Y520141D01*
X749211Y521181D01*
X751929Y521181D01*
X754439Y520141D01*
X756361Y518219D01*
X757401Y515709D01*
X757401Y512991D01*
X756361Y510481D01*
X754418Y508538D01*
X754407Y508522D01*
X754391Y508510D01*
X754335Y508422D01*
X754275Y508339D01*
X754269Y508320D01*
X754258Y508303D01*
X754233Y508202D01*
X754202Y508103D01*
X754203Y508084D01*
X754198Y508064D01*
X754206Y507961D01*
X754209Y507858D01*
X754216Y507839D01*
X754217Y507819D01*
X754258Y507724D01*
X754293Y507627D01*
X754306Y507611D01*
X754314Y507593D01*
X754418Y507462D01*
X756361Y505519D01*
X757401Y503009D01*
X757401Y500291D01*
X756361Y497781D01*
X754418Y495838D01*
X754407Y495822D01*
X754391Y495810D01*
X754335Y495722D01*
X754275Y495639D01*
X754269Y495620D01*
X754258Y495603D01*
X754233Y495502D01*
X754202Y495403D01*
X754203Y495384D01*
X754198Y495364D01*
X754206Y495261D01*
X754209Y495158D01*
X754216Y495139D01*
X754217Y495119D01*
X754258Y495024D01*
X754293Y494927D01*
X754306Y494911D01*
X754314Y494893D01*
X754418Y494762D01*
X756361Y492819D01*
X757401Y490309D01*
X757401Y487591D01*
X756361Y485081D01*
X754439Y483159D01*
X751929Y482119D01*
X749211Y482119D01*
G37*
%LPD*%
%LPC*%
G36*
X562903Y299851D02*
X562903Y299851D01*
X558750Y301571D01*
X555571Y304750D01*
X553851Y308903D01*
X553851Y313397D01*
X555571Y317550D01*
X558750Y320729D01*
X562903Y322449D01*
X567397Y322449D01*
X571550Y320729D01*
X574729Y317550D01*
X576449Y313397D01*
X576449Y308903D01*
X574729Y304750D01*
X571550Y301571D01*
X567397Y299851D01*
X562903Y299851D01*
G37*
%LPD*%
%LPC*%
G36*
X588303Y299851D02*
X588303Y299851D01*
X584150Y301571D01*
X580971Y304750D01*
X579251Y308903D01*
X579251Y313397D01*
X580971Y317550D01*
X584150Y320729D01*
X588303Y322449D01*
X592797Y322449D01*
X596950Y320729D01*
X600129Y317550D01*
X601849Y313397D01*
X601849Y308903D01*
X600129Y304750D01*
X596950Y301571D01*
X592797Y299851D01*
X588303Y299851D01*
G37*
%LPD*%
%LPC*%
G36*
X512103Y372451D02*
X512103Y372451D01*
X507950Y374171D01*
X504771Y377350D01*
X503051Y381503D01*
X503051Y385997D01*
X504771Y390150D01*
X507950Y393329D01*
X512103Y395049D01*
X516597Y395049D01*
X520750Y393329D01*
X523929Y390150D01*
X525649Y385997D01*
X525649Y381503D01*
X523929Y377350D01*
X520750Y374171D01*
X516597Y372451D01*
X512103Y372451D01*
G37*
%LPD*%
%LPC*%
G36*
X588303Y198251D02*
X588303Y198251D01*
X584150Y199971D01*
X580971Y203150D01*
X579251Y207303D01*
X579251Y211797D01*
X580971Y215950D01*
X584150Y219129D01*
X588303Y220849D01*
X592797Y220849D01*
X596950Y219129D01*
X600129Y215950D01*
X601849Y211797D01*
X601849Y207303D01*
X600129Y203150D01*
X596950Y199971D01*
X592797Y198251D01*
X588303Y198251D01*
G37*
%LPD*%
%LPC*%
G36*
X562903Y249051D02*
X562903Y249051D01*
X558750Y250771D01*
X555571Y253950D01*
X553851Y258103D01*
X553851Y262597D01*
X555571Y266750D01*
X558750Y269929D01*
X562903Y271649D01*
X567397Y271649D01*
X571550Y269929D01*
X574729Y266750D01*
X576449Y262597D01*
X576449Y258103D01*
X574729Y253950D01*
X571550Y250771D01*
X567397Y249051D01*
X562903Y249051D01*
G37*
%LPD*%
%LPC*%
G36*
X588303Y223651D02*
X588303Y223651D01*
X584150Y225371D01*
X580971Y228550D01*
X579251Y232703D01*
X579251Y237197D01*
X580971Y241350D01*
X584150Y244529D01*
X588303Y246249D01*
X592797Y246249D01*
X596950Y244529D01*
X600129Y241350D01*
X601849Y237197D01*
X601849Y232703D01*
X600129Y228550D01*
X596950Y225371D01*
X592797Y223651D01*
X588303Y223651D01*
G37*
%LPD*%
%LPC*%
G36*
X588303Y249051D02*
X588303Y249051D01*
X584150Y250771D01*
X580971Y253950D01*
X579251Y258103D01*
X579251Y262597D01*
X580971Y266750D01*
X584150Y269929D01*
X588303Y271649D01*
X592797Y271649D01*
X596950Y269929D01*
X600129Y266750D01*
X601849Y262597D01*
X601849Y258103D01*
X600129Y253950D01*
X596950Y250771D01*
X592797Y249051D01*
X588303Y249051D01*
G37*
%LPD*%
%LPC*%
G36*
X562903Y198251D02*
X562903Y198251D01*
X558750Y199971D01*
X555571Y203150D01*
X553851Y207303D01*
X553851Y211797D01*
X555571Y215950D01*
X558750Y219129D01*
X562903Y220849D01*
X567397Y220849D01*
X571550Y219129D01*
X574729Y215950D01*
X576449Y211797D01*
X576449Y207303D01*
X574729Y203150D01*
X571550Y199971D01*
X567397Y198251D01*
X562903Y198251D01*
G37*
%LPD*%
%LPC*%
G36*
X562903Y274451D02*
X562903Y274451D01*
X558750Y276171D01*
X555571Y279350D01*
X553851Y283503D01*
X553851Y287997D01*
X555571Y292150D01*
X558750Y295329D01*
X562903Y297049D01*
X567397Y297049D01*
X571550Y295329D01*
X574729Y292150D01*
X576449Y287997D01*
X576449Y283503D01*
X574729Y279350D01*
X571550Y276171D01*
X567397Y274451D01*
X562903Y274451D01*
G37*
%LPD*%
%LPC*%
G36*
X562903Y147451D02*
X562903Y147451D01*
X558750Y149171D01*
X555571Y152350D01*
X553851Y156503D01*
X553851Y160997D01*
X555571Y165150D01*
X558750Y168329D01*
X562903Y170049D01*
X567397Y170049D01*
X571550Y168329D01*
X574729Y165150D01*
X576449Y160997D01*
X576449Y156503D01*
X574729Y152350D01*
X571550Y149171D01*
X567397Y147451D01*
X562903Y147451D01*
G37*
%LPD*%
%LPC*%
G36*
X562903Y172851D02*
X562903Y172851D01*
X558750Y174571D01*
X555571Y177750D01*
X553851Y181903D01*
X553851Y186397D01*
X555571Y190550D01*
X558750Y193729D01*
X562903Y195449D01*
X567397Y195449D01*
X571550Y193729D01*
X574729Y190550D01*
X576449Y186397D01*
X576449Y181903D01*
X574729Y177750D01*
X571550Y174571D01*
X567397Y172851D01*
X562903Y172851D01*
G37*
%LPD*%
%LPC*%
G36*
X588303Y172851D02*
X588303Y172851D01*
X584150Y174571D01*
X580971Y177750D01*
X579251Y181903D01*
X579251Y186397D01*
X580971Y190550D01*
X584150Y193729D01*
X588303Y195449D01*
X592797Y195449D01*
X596950Y193729D01*
X600129Y190550D01*
X601849Y186397D01*
X601849Y181903D01*
X600129Y177750D01*
X596950Y174571D01*
X592797Y172851D01*
X588303Y172851D01*
G37*
%LPD*%
%LPC*%
G36*
X588303Y274451D02*
X588303Y274451D01*
X584150Y276171D01*
X580971Y279350D01*
X579251Y283503D01*
X579251Y287997D01*
X580971Y292150D01*
X584150Y295329D01*
X588303Y297049D01*
X592797Y297049D01*
X596950Y295329D01*
X600129Y292150D01*
X601849Y287997D01*
X601849Y283503D01*
X600129Y279350D01*
X596950Y276171D01*
X592797Y274451D01*
X588303Y274451D01*
G37*
%LPD*%
%LPC*%
G36*
X874178Y484631D02*
X874178Y484631D01*
X870257Y486255D01*
X867255Y489257D01*
X865631Y493178D01*
X865631Y497422D01*
X867255Y501343D01*
X870257Y504345D01*
X874178Y505969D01*
X878422Y505969D01*
X882343Y504345D01*
X885345Y501343D01*
X886969Y497422D01*
X886969Y493178D01*
X885345Y489257D01*
X882343Y486255D01*
X878422Y484631D01*
X874178Y484631D01*
G37*
%LPD*%
%LPC*%
G36*
X924978Y484631D02*
X924978Y484631D01*
X921057Y486255D01*
X918055Y489257D01*
X916431Y493178D01*
X916431Y497422D01*
X918055Y501343D01*
X921057Y504345D01*
X924978Y505969D01*
X929222Y505969D01*
X933143Y504345D01*
X936145Y501343D01*
X937769Y497422D01*
X937769Y493178D01*
X936145Y489257D01*
X933143Y486255D01*
X929222Y484631D01*
X924978Y484631D01*
G37*
%LPD*%
%LPC*%
G36*
X899578Y484631D02*
X899578Y484631D01*
X895657Y486255D01*
X892655Y489257D01*
X891031Y493178D01*
X891031Y497422D01*
X892655Y501343D01*
X895657Y504345D01*
X899578Y505969D01*
X903822Y505969D01*
X907743Y504345D01*
X910745Y501343D01*
X912369Y497422D01*
X912369Y493178D01*
X910745Y489257D01*
X907743Y486255D01*
X903822Y484631D01*
X899578Y484631D01*
G37*
%LPD*%
%LPC*%
G36*
X817894Y29411D02*
X817894Y29411D01*
X814002Y31023D01*
X811023Y34002D01*
X809411Y37894D01*
X809411Y42106D01*
X811023Y45998D01*
X814002Y48977D01*
X817894Y50589D01*
X822106Y50589D01*
X825998Y48977D01*
X828977Y45998D01*
X830589Y42106D01*
X830589Y37894D01*
X828977Y34002D01*
X825998Y31023D01*
X822106Y29411D01*
X817894Y29411D01*
G37*
%LPD*%
%LPC*%
G36*
X792894Y29411D02*
X792894Y29411D01*
X789002Y31023D01*
X786023Y34002D01*
X784411Y37894D01*
X784411Y42106D01*
X786023Y45998D01*
X789002Y48977D01*
X792894Y50589D01*
X797106Y50589D01*
X800998Y48977D01*
X803977Y45998D01*
X805589Y42106D01*
X805589Y37894D01*
X803977Y34002D01*
X800998Y31023D01*
X797106Y29411D01*
X792894Y29411D01*
G37*
%LPD*%
%LPC*%
G36*
X893991Y190019D02*
X893991Y190019D01*
X891481Y191059D01*
X889559Y192981D01*
X888519Y195491D01*
X888519Y198209D01*
X889559Y200719D01*
X890260Y201420D01*
X890301Y201478D01*
X890351Y201530D01*
X890373Y201577D01*
X890403Y201619D01*
X890424Y201688D01*
X890454Y201753D01*
X890460Y201805D01*
X890476Y201855D01*
X890474Y201926D01*
X890482Y201997D01*
X890471Y202048D01*
X890469Y202100D01*
X890445Y202168D01*
X890429Y202238D01*
X890403Y202283D01*
X890385Y202331D01*
X890340Y202387D01*
X890303Y202449D01*
X890264Y202483D01*
X890231Y202523D01*
X890171Y202562D01*
X890116Y202609D01*
X890068Y202628D01*
X890024Y202656D01*
X889955Y202674D01*
X889888Y202701D01*
X889817Y202709D01*
X889786Y202717D01*
X889762Y202715D01*
X889721Y202719D01*
X887641Y202719D01*
X885131Y203759D01*
X883209Y205681D01*
X882169Y208191D01*
X882169Y210909D01*
X883209Y213419D01*
X885131Y215341D01*
X887641Y216381D01*
X890359Y216381D01*
X892869Y215341D01*
X894791Y213419D01*
X895831Y210909D01*
X895831Y208191D01*
X894791Y205681D01*
X894090Y204980D01*
X894049Y204922D01*
X893999Y204870D01*
X893977Y204823D01*
X893947Y204781D01*
X893926Y204712D01*
X893896Y204647D01*
X893890Y204595D01*
X893874Y204545D01*
X893876Y204474D01*
X893868Y204403D01*
X893879Y204352D01*
X893881Y204300D01*
X893905Y204232D01*
X893921Y204162D01*
X893947Y204117D01*
X893965Y204069D01*
X894010Y204013D01*
X894047Y203951D01*
X894086Y203917D01*
X894119Y203877D01*
X894179Y203838D01*
X894234Y203791D01*
X894282Y203772D01*
X894326Y203744D01*
X894395Y203726D01*
X894462Y203699D01*
X894533Y203691D01*
X894564Y203683D01*
X894588Y203685D01*
X894629Y203681D01*
X896709Y203681D01*
X899219Y202641D01*
X901141Y200719D01*
X902181Y198209D01*
X902181Y195491D01*
X901141Y192981D01*
X899219Y191059D01*
X896709Y190019D01*
X893991Y190019D01*
G37*
%LPD*%
%LPC*%
G36*
X958761Y590069D02*
X958761Y590069D01*
X956251Y591109D01*
X954329Y593031D01*
X953289Y595541D01*
X953289Y598259D01*
X954329Y600769D01*
X956272Y602712D01*
X956283Y602728D01*
X956299Y602740D01*
X956355Y602828D01*
X956415Y602911D01*
X956421Y602930D01*
X956432Y602947D01*
X956457Y603048D01*
X956488Y603147D01*
X956487Y603166D01*
X956492Y603186D01*
X956484Y603289D01*
X956481Y603392D01*
X956474Y603411D01*
X956473Y603431D01*
X956432Y603526D01*
X956397Y603623D01*
X956384Y603639D01*
X956376Y603657D01*
X956272Y603788D01*
X954329Y605731D01*
X953289Y608241D01*
X953289Y610959D01*
X954329Y613469D01*
X956251Y615391D01*
X958761Y616431D01*
X961479Y616431D01*
X963989Y615391D01*
X965911Y613469D01*
X966951Y610959D01*
X966951Y608241D01*
X965911Y605731D01*
X963968Y603788D01*
X963957Y603772D01*
X963941Y603760D01*
X963885Y603672D01*
X963825Y603589D01*
X963819Y603570D01*
X963808Y603553D01*
X963783Y603452D01*
X963752Y603353D01*
X963753Y603334D01*
X963748Y603314D01*
X963756Y603211D01*
X963759Y603108D01*
X963766Y603089D01*
X963767Y603069D01*
X963808Y602974D01*
X963843Y602877D01*
X963856Y602861D01*
X963864Y602843D01*
X963968Y602712D01*
X965911Y600769D01*
X966951Y598259D01*
X966951Y595541D01*
X965911Y593031D01*
X963989Y591109D01*
X961479Y590069D01*
X958761Y590069D01*
G37*
%LPD*%
%LPC*%
G36*
X869861Y590069D02*
X869861Y590069D01*
X867351Y591109D01*
X865429Y593031D01*
X864389Y595541D01*
X864389Y598259D01*
X865429Y600769D01*
X867372Y602712D01*
X867383Y602728D01*
X867399Y602740D01*
X867455Y602828D01*
X867515Y602911D01*
X867521Y602930D01*
X867532Y602947D01*
X867557Y603048D01*
X867588Y603147D01*
X867587Y603166D01*
X867592Y603186D01*
X867584Y603289D01*
X867581Y603392D01*
X867574Y603411D01*
X867573Y603431D01*
X867532Y603526D01*
X867497Y603623D01*
X867484Y603639D01*
X867476Y603657D01*
X867372Y603788D01*
X865429Y605731D01*
X864389Y608241D01*
X864389Y610959D01*
X865429Y613469D01*
X867351Y615391D01*
X869861Y616431D01*
X872579Y616431D01*
X875089Y615391D01*
X877011Y613469D01*
X878051Y610959D01*
X878051Y608241D01*
X877011Y605731D01*
X875068Y603788D01*
X875057Y603772D01*
X875041Y603760D01*
X874985Y603672D01*
X874925Y603589D01*
X874919Y603570D01*
X874908Y603553D01*
X874883Y603452D01*
X874852Y603353D01*
X874853Y603334D01*
X874848Y603314D01*
X874856Y603211D01*
X874859Y603108D01*
X874866Y603089D01*
X874867Y603069D01*
X874908Y602974D01*
X874943Y602877D01*
X874956Y602861D01*
X874964Y602843D01*
X875068Y602712D01*
X877011Y600769D01*
X878051Y598259D01*
X878051Y595541D01*
X877011Y593031D01*
X875089Y591109D01*
X872579Y590069D01*
X869861Y590069D01*
G37*
%LPD*%
%LPC*%
G36*
X481241Y285269D02*
X481241Y285269D01*
X478731Y286309D01*
X476809Y288231D01*
X475769Y290741D01*
X475769Y293459D01*
X476809Y295969D01*
X478731Y297891D01*
X481241Y298931D01*
X483959Y298931D01*
X486469Y297891D01*
X488412Y295948D01*
X488428Y295937D01*
X488440Y295921D01*
X488528Y295865D01*
X488611Y295805D01*
X488630Y295799D01*
X488647Y295788D01*
X488748Y295763D01*
X488847Y295732D01*
X488866Y295733D01*
X488886Y295728D01*
X488989Y295736D01*
X489092Y295739D01*
X489111Y295746D01*
X489131Y295747D01*
X489226Y295788D01*
X489323Y295823D01*
X489339Y295836D01*
X489357Y295844D01*
X489488Y295948D01*
X491431Y297891D01*
X493941Y298931D01*
X496659Y298931D01*
X499169Y297891D01*
X501091Y295969D01*
X502131Y293459D01*
X502131Y290741D01*
X501091Y288231D01*
X499169Y286309D01*
X496659Y285269D01*
X493941Y285269D01*
X491431Y286309D01*
X489488Y288252D01*
X489472Y288263D01*
X489460Y288279D01*
X489372Y288335D01*
X489289Y288395D01*
X489270Y288401D01*
X489253Y288412D01*
X489152Y288437D01*
X489053Y288468D01*
X489034Y288467D01*
X489014Y288472D01*
X488911Y288464D01*
X488808Y288461D01*
X488789Y288454D01*
X488769Y288453D01*
X488674Y288412D01*
X488577Y288377D01*
X488561Y288364D01*
X488543Y288356D01*
X488412Y288252D01*
X486469Y286309D01*
X483959Y285269D01*
X481241Y285269D01*
G37*
%LPD*%
%LPC*%
G36*
X805091Y295429D02*
X805091Y295429D01*
X802581Y296469D01*
X800659Y298391D01*
X799619Y300901D01*
X799619Y303619D01*
X800659Y306129D01*
X802581Y308051D01*
X805091Y309091D01*
X807809Y309091D01*
X810319Y308051D01*
X812262Y306108D01*
X812278Y306097D01*
X812290Y306081D01*
X812378Y306025D01*
X812461Y305965D01*
X812480Y305959D01*
X812497Y305948D01*
X812598Y305923D01*
X812697Y305892D01*
X812716Y305893D01*
X812736Y305888D01*
X812839Y305896D01*
X812942Y305899D01*
X812961Y305906D01*
X812981Y305907D01*
X813076Y305948D01*
X813173Y305983D01*
X813189Y305996D01*
X813207Y306004D01*
X813338Y306108D01*
X815281Y308051D01*
X817791Y309091D01*
X820509Y309091D01*
X823019Y308051D01*
X824941Y306129D01*
X825981Y303619D01*
X825981Y300901D01*
X824941Y298391D01*
X823019Y296469D01*
X820509Y295429D01*
X817791Y295429D01*
X815281Y296469D01*
X813338Y298412D01*
X813322Y298423D01*
X813310Y298439D01*
X813222Y298495D01*
X813139Y298555D01*
X813120Y298561D01*
X813103Y298572D01*
X813002Y298597D01*
X812903Y298628D01*
X812884Y298627D01*
X812864Y298632D01*
X812761Y298624D01*
X812658Y298621D01*
X812639Y298614D01*
X812619Y298613D01*
X812524Y298572D01*
X812427Y298537D01*
X812411Y298524D01*
X812393Y298516D01*
X812262Y298412D01*
X810319Y296469D01*
X807809Y295429D01*
X805091Y295429D01*
G37*
%LPD*%
%LPC*%
G36*
X650151Y424969D02*
X650151Y424969D01*
X647641Y426009D01*
X645719Y427931D01*
X644679Y430441D01*
X644679Y433159D01*
X645719Y435669D01*
X647662Y437612D01*
X647673Y437628D01*
X647689Y437640D01*
X647745Y437728D01*
X647805Y437811D01*
X647811Y437830D01*
X647822Y437847D01*
X647847Y437948D01*
X647878Y438047D01*
X647877Y438066D01*
X647882Y438086D01*
X647874Y438189D01*
X647871Y438292D01*
X647864Y438311D01*
X647863Y438331D01*
X647822Y438426D01*
X647787Y438523D01*
X647774Y438539D01*
X647766Y438557D01*
X647662Y438688D01*
X645719Y440631D01*
X644679Y443141D01*
X644679Y445859D01*
X645719Y448369D01*
X647641Y450291D01*
X650151Y451331D01*
X652869Y451331D01*
X655379Y450291D01*
X657301Y448369D01*
X658341Y445859D01*
X658341Y443141D01*
X657301Y440631D01*
X655358Y438688D01*
X655347Y438672D01*
X655331Y438660D01*
X655275Y438572D01*
X655215Y438489D01*
X655209Y438470D01*
X655198Y438453D01*
X655173Y438352D01*
X655142Y438253D01*
X655143Y438234D01*
X655138Y438214D01*
X655146Y438111D01*
X655149Y438008D01*
X655156Y437989D01*
X655157Y437969D01*
X655198Y437874D01*
X655233Y437777D01*
X655246Y437761D01*
X655254Y437743D01*
X655358Y437612D01*
X657301Y435669D01*
X658341Y433159D01*
X658341Y430441D01*
X657301Y427931D01*
X655379Y426009D01*
X652869Y424969D01*
X650151Y424969D01*
G37*
%LPD*%
%LPC*%
G36*
X594993Y549211D02*
X594993Y549211D01*
X591468Y550671D01*
X588771Y553368D01*
X587311Y556893D01*
X587311Y560707D01*
X588771Y564232D01*
X591468Y566929D01*
X594993Y568389D01*
X598807Y568389D01*
X602332Y566929D01*
X605029Y564232D01*
X606489Y560707D01*
X606489Y556893D01*
X605029Y553368D01*
X602332Y550671D01*
X598807Y549211D01*
X594993Y549211D01*
G37*
%LPD*%
%LPC*%
G36*
X798741Y399569D02*
X798741Y399569D01*
X796231Y400609D01*
X794309Y402531D01*
X793269Y405041D01*
X793269Y407759D01*
X794309Y410269D01*
X794982Y410942D01*
X794993Y410958D01*
X795009Y410970D01*
X795065Y411058D01*
X795125Y411141D01*
X795131Y411160D01*
X795142Y411177D01*
X795167Y411278D01*
X795198Y411377D01*
X795197Y411396D01*
X795202Y411416D01*
X795194Y411519D01*
X795191Y411622D01*
X795184Y411641D01*
X795183Y411661D01*
X795142Y411756D01*
X795107Y411853D01*
X795094Y411869D01*
X795086Y411887D01*
X794982Y412018D01*
X794309Y412691D01*
X793269Y415201D01*
X793269Y417919D01*
X794309Y420429D01*
X796231Y422351D01*
X798741Y423391D01*
X801459Y423391D01*
X803969Y422351D01*
X805891Y420429D01*
X806931Y417919D01*
X806931Y415201D01*
X805891Y412691D01*
X805218Y412018D01*
X805207Y412002D01*
X805191Y411990D01*
X805135Y411902D01*
X805075Y411819D01*
X805069Y411800D01*
X805058Y411783D01*
X805033Y411682D01*
X805002Y411583D01*
X805003Y411564D01*
X804998Y411544D01*
X805006Y411441D01*
X805009Y411338D01*
X805016Y411319D01*
X805017Y411299D01*
X805058Y411204D01*
X805093Y411107D01*
X805106Y411091D01*
X805114Y411073D01*
X805218Y410942D01*
X805891Y410269D01*
X806931Y407759D01*
X806931Y405041D01*
X805891Y402531D01*
X803969Y400609D01*
X801459Y399569D01*
X798741Y399569D01*
G37*
%LPD*%
%LPC*%
G36*
X429997Y841835D02*
X429997Y841835D01*
X426665Y843215D01*
X424115Y845765D01*
X422735Y849097D01*
X422735Y852703D01*
X424115Y856035D01*
X426665Y858585D01*
X429997Y859965D01*
X433603Y859965D01*
X436935Y858585D01*
X439485Y856035D01*
X440865Y852703D01*
X440865Y849097D01*
X439485Y845765D01*
X436935Y843215D01*
X433603Y841835D01*
X429997Y841835D01*
G37*
%LPD*%
%LPC*%
G36*
X429997Y752935D02*
X429997Y752935D01*
X426665Y754315D01*
X424115Y756865D01*
X422735Y760197D01*
X422735Y763803D01*
X424115Y767135D01*
X426665Y769685D01*
X429997Y771065D01*
X433603Y771065D01*
X436935Y769685D01*
X439485Y767135D01*
X440865Y763803D01*
X440865Y760197D01*
X439485Y756865D01*
X436935Y754315D01*
X433603Y752935D01*
X429997Y752935D01*
G37*
%LPD*%
%LPC*%
G36*
X255776Y784235D02*
X255776Y784235D01*
X252592Y785554D01*
X250154Y787992D01*
X248835Y791176D01*
X248835Y794624D01*
X250154Y797808D01*
X252592Y800246D01*
X255776Y801565D01*
X259224Y801565D01*
X262408Y800246D01*
X264846Y797808D01*
X266165Y794624D01*
X266165Y791176D01*
X264846Y787992D01*
X262408Y785554D01*
X259224Y784235D01*
X255776Y784235D01*
G37*
%LPD*%
%LPC*%
G36*
X280776Y764235D02*
X280776Y764235D01*
X277592Y765554D01*
X275154Y767992D01*
X273835Y771176D01*
X273835Y774624D01*
X275154Y777808D01*
X277592Y780246D01*
X280776Y781565D01*
X284224Y781565D01*
X287408Y780246D01*
X289846Y777808D01*
X291165Y774624D01*
X291165Y771176D01*
X289846Y767992D01*
X287408Y765554D01*
X284224Y764235D01*
X280776Y764235D01*
G37*
%LPD*%
%LPC*%
G36*
X280776Y784235D02*
X280776Y784235D01*
X277592Y785554D01*
X275154Y787992D01*
X273835Y791176D01*
X273835Y794624D01*
X275154Y797808D01*
X277592Y800246D01*
X280776Y801565D01*
X284224Y801565D01*
X287408Y800246D01*
X289846Y797808D01*
X291165Y794624D01*
X291165Y791176D01*
X289846Y787992D01*
X287408Y785554D01*
X284224Y784235D01*
X280776Y784235D01*
G37*
%LPD*%
%LPC*%
G36*
X859292Y64411D02*
X859292Y64411D01*
X856135Y65719D01*
X853719Y68135D01*
X852411Y71292D01*
X852411Y74708D01*
X853719Y77865D01*
X856135Y80281D01*
X859292Y81589D01*
X862708Y81589D01*
X865865Y80281D01*
X868281Y77865D01*
X869589Y74708D01*
X869589Y71292D01*
X868281Y68135D01*
X865865Y65719D01*
X862708Y64411D01*
X859292Y64411D01*
G37*
%LPD*%
%LPC*%
G36*
X777292Y64411D02*
X777292Y64411D01*
X774135Y65719D01*
X771719Y68135D01*
X770411Y71292D01*
X770411Y74708D01*
X771719Y77865D01*
X774135Y80281D01*
X777292Y81589D01*
X780708Y81589D01*
X783865Y80281D01*
X786281Y77865D01*
X787589Y74708D01*
X787589Y71292D01*
X786281Y68135D01*
X783865Y65719D01*
X780708Y64411D01*
X777292Y64411D01*
G37*
%LPD*%
%LPC*%
G36*
X570141Y18569D02*
X570141Y18569D01*
X567631Y19609D01*
X565709Y21531D01*
X564669Y24041D01*
X564669Y26759D01*
X565709Y29269D01*
X567631Y31191D01*
X570141Y32231D01*
X572859Y32231D01*
X575369Y31191D01*
X577291Y29269D01*
X578331Y26759D01*
X578331Y24041D01*
X577291Y21531D01*
X575369Y19609D01*
X572859Y18569D01*
X570141Y18569D01*
G37*
%LPD*%
%LPC*%
G36*
X544741Y18569D02*
X544741Y18569D01*
X542231Y19609D01*
X540309Y21531D01*
X539269Y24041D01*
X539269Y26759D01*
X540309Y29269D01*
X542231Y31191D01*
X544741Y32231D01*
X547459Y32231D01*
X549969Y31191D01*
X551891Y29269D01*
X552931Y26759D01*
X552931Y24041D01*
X551891Y21531D01*
X549969Y19609D01*
X547459Y18569D01*
X544741Y18569D01*
G37*
%LPD*%
%LPC*%
G36*
X519341Y18569D02*
X519341Y18569D01*
X516831Y19609D01*
X514909Y21531D01*
X513869Y24041D01*
X513869Y26759D01*
X514909Y29269D01*
X516831Y31191D01*
X519341Y32231D01*
X522059Y32231D01*
X524569Y31191D01*
X526491Y29269D01*
X527531Y26759D01*
X527531Y24041D01*
X526491Y21531D01*
X524569Y19609D01*
X522059Y18569D01*
X519341Y18569D01*
G37*
%LPD*%
%LPC*%
G36*
X493941Y18569D02*
X493941Y18569D01*
X491431Y19609D01*
X489509Y21531D01*
X488469Y24041D01*
X488469Y26759D01*
X489509Y29269D01*
X491431Y31191D01*
X493941Y32231D01*
X496659Y32231D01*
X499169Y31191D01*
X501091Y29269D01*
X502131Y26759D01*
X502131Y24041D01*
X501091Y21531D01*
X499169Y19609D01*
X496659Y18569D01*
X493941Y18569D01*
G37*
%LPD*%
%LPC*%
G36*
X468541Y18569D02*
X468541Y18569D01*
X466031Y19609D01*
X464109Y21531D01*
X463069Y24041D01*
X463069Y26759D01*
X464109Y29269D01*
X466031Y31191D01*
X468541Y32231D01*
X471259Y32231D01*
X473769Y31191D01*
X475691Y29269D01*
X476731Y26759D01*
X476731Y24041D01*
X475691Y21531D01*
X473769Y19609D01*
X471259Y18569D01*
X468541Y18569D01*
G37*
%LPD*%
%LPC*%
G36*
X443141Y18569D02*
X443141Y18569D01*
X440631Y19609D01*
X438709Y21531D01*
X437669Y24041D01*
X437669Y26759D01*
X438709Y29269D01*
X440631Y31191D01*
X443141Y32231D01*
X445859Y32231D01*
X448369Y31191D01*
X450291Y29269D01*
X451331Y26759D01*
X451331Y24041D01*
X450291Y21531D01*
X448369Y19609D01*
X445859Y18569D01*
X443141Y18569D01*
G37*
%LPD*%
%LPC*%
G36*
X417741Y18569D02*
X417741Y18569D01*
X415231Y19609D01*
X413309Y21531D01*
X412269Y24041D01*
X412269Y26759D01*
X413309Y29269D01*
X415231Y31191D01*
X417741Y32231D01*
X420459Y32231D01*
X422969Y31191D01*
X424891Y29269D01*
X425931Y26759D01*
X425931Y24041D01*
X424891Y21531D01*
X422969Y19609D01*
X420459Y18569D01*
X417741Y18569D01*
G37*
%LPD*%
%LPC*%
G36*
X392341Y18569D02*
X392341Y18569D01*
X389831Y19609D01*
X387909Y21531D01*
X386869Y24041D01*
X386869Y26759D01*
X387909Y29269D01*
X389831Y31191D01*
X392341Y32231D01*
X395059Y32231D01*
X397569Y31191D01*
X399491Y29269D01*
X400531Y26759D01*
X400531Y24041D01*
X399491Y21531D01*
X397569Y19609D01*
X395059Y18569D01*
X392341Y18569D01*
G37*
%LPD*%
%LPC*%
G36*
X366941Y18569D02*
X366941Y18569D01*
X364431Y19609D01*
X362509Y21531D01*
X361469Y24041D01*
X361469Y26759D01*
X362509Y29269D01*
X364431Y31191D01*
X366941Y32231D01*
X369659Y32231D01*
X372169Y31191D01*
X374091Y29269D01*
X375131Y26759D01*
X375131Y24041D01*
X374091Y21531D01*
X372169Y19609D01*
X369659Y18569D01*
X366941Y18569D01*
G37*
%LPD*%
%LPC*%
G36*
X341541Y18569D02*
X341541Y18569D01*
X339031Y19609D01*
X337109Y21531D01*
X336069Y24041D01*
X336069Y26759D01*
X337109Y29269D01*
X339031Y31191D01*
X341541Y32231D01*
X344259Y32231D01*
X346769Y31191D01*
X348691Y29269D01*
X349731Y26759D01*
X349731Y24041D01*
X348691Y21531D01*
X346769Y19609D01*
X344259Y18569D01*
X341541Y18569D01*
G37*
%LPD*%
%LPC*%
G36*
X316141Y18569D02*
X316141Y18569D01*
X313631Y19609D01*
X311709Y21531D01*
X310669Y24041D01*
X310669Y26759D01*
X311709Y29269D01*
X313631Y31191D01*
X316141Y32231D01*
X318859Y32231D01*
X321369Y31191D01*
X323291Y29269D01*
X324331Y26759D01*
X324331Y24041D01*
X323291Y21531D01*
X321369Y19609D01*
X318859Y18569D01*
X316141Y18569D01*
G37*
%LPD*%
%LPC*%
G36*
X151041Y297969D02*
X151041Y297969D01*
X148531Y299009D01*
X146609Y300931D01*
X145569Y303441D01*
X145569Y306159D01*
X146609Y308669D01*
X148531Y310591D01*
X151041Y311631D01*
X153759Y311631D01*
X156269Y310591D01*
X158191Y308669D01*
X159231Y306159D01*
X159231Y303441D01*
X158191Y300931D01*
X156269Y299009D01*
X153759Y297969D01*
X151041Y297969D01*
G37*
%LPD*%
%LPC*%
G36*
X913676Y671984D02*
X913676Y671984D01*
X911166Y673024D01*
X909244Y674946D01*
X908204Y677456D01*
X908204Y680174D01*
X909244Y682684D01*
X911166Y684606D01*
X913676Y685646D01*
X916394Y685646D01*
X918904Y684606D01*
X920826Y682684D01*
X921866Y680174D01*
X921866Y677456D01*
X920826Y674946D01*
X918904Y673024D01*
X916394Y671984D01*
X913676Y671984D01*
G37*
%LPD*%
%LPC*%
G36*
X627291Y666269D02*
X627291Y666269D01*
X624781Y667309D01*
X622859Y669231D01*
X621819Y671741D01*
X621819Y674459D01*
X622859Y676969D01*
X624781Y678891D01*
X627291Y679931D01*
X630009Y679931D01*
X632519Y678891D01*
X634441Y676969D01*
X635481Y674459D01*
X635481Y671741D01*
X634441Y669231D01*
X632519Y667309D01*
X630009Y666269D01*
X627291Y666269D01*
G37*
%LPD*%
%LPC*%
G36*
X957491Y666269D02*
X957491Y666269D01*
X954981Y667309D01*
X953059Y669231D01*
X952019Y671741D01*
X952019Y674459D01*
X953059Y676969D01*
X954981Y678891D01*
X957491Y679931D01*
X960209Y679931D01*
X962719Y678891D01*
X964641Y676969D01*
X965681Y674459D01*
X965681Y671741D01*
X964641Y669231D01*
X962719Y667309D01*
X960209Y666269D01*
X957491Y666269D01*
G37*
%LPD*%
%LPC*%
G36*
X539661Y647219D02*
X539661Y647219D01*
X537151Y648259D01*
X535229Y650181D01*
X534189Y652691D01*
X534189Y655409D01*
X535229Y657919D01*
X537151Y659841D01*
X539661Y660881D01*
X542379Y660881D01*
X544889Y659841D01*
X546811Y657919D01*
X547851Y655409D01*
X547851Y652691D01*
X546811Y650181D01*
X544889Y648259D01*
X542379Y647219D01*
X539661Y647219D01*
G37*
%LPD*%
%LPC*%
G36*
X627291Y640869D02*
X627291Y640869D01*
X624781Y641909D01*
X622859Y643831D01*
X621819Y646341D01*
X621819Y649059D01*
X622859Y651569D01*
X624781Y653491D01*
X627291Y654531D01*
X630009Y654531D01*
X632519Y653491D01*
X634441Y651569D01*
X635481Y649059D01*
X635481Y646341D01*
X634441Y643831D01*
X632519Y641909D01*
X630009Y640869D01*
X627291Y640869D01*
G37*
%LPD*%
%LPC*%
G36*
X792391Y640869D02*
X792391Y640869D01*
X789881Y641909D01*
X787959Y643831D01*
X786919Y646341D01*
X786919Y649059D01*
X787959Y651569D01*
X789881Y653491D01*
X792391Y654531D01*
X795109Y654531D01*
X797619Y653491D01*
X799541Y651569D01*
X800581Y649059D01*
X800581Y646341D01*
X799541Y643831D01*
X797619Y641909D01*
X795109Y640869D01*
X792391Y640869D01*
G37*
%LPD*%
%LPC*%
G36*
X539661Y628169D02*
X539661Y628169D01*
X537151Y629209D01*
X535229Y631131D01*
X534189Y633641D01*
X534189Y636359D01*
X535229Y638869D01*
X537151Y640791D01*
X539661Y641831D01*
X542379Y641831D01*
X544889Y640791D01*
X546811Y638869D01*
X547851Y636359D01*
X547851Y633641D01*
X546811Y631131D01*
X544889Y629209D01*
X542379Y628169D01*
X539661Y628169D01*
G37*
%LPD*%
%LPC*%
G36*
X716191Y628169D02*
X716191Y628169D01*
X713681Y629209D01*
X711759Y631131D01*
X710719Y633641D01*
X710719Y636359D01*
X711759Y638869D01*
X713681Y640791D01*
X716191Y641831D01*
X718909Y641831D01*
X721419Y640791D01*
X723341Y638869D01*
X724381Y636359D01*
X724381Y633641D01*
X723341Y631131D01*
X721419Y629209D01*
X718909Y628169D01*
X716191Y628169D01*
G37*
%LPD*%
%LPC*%
G36*
X869861Y628169D02*
X869861Y628169D01*
X867351Y629209D01*
X865429Y631131D01*
X864389Y633641D01*
X864389Y636359D01*
X865429Y638869D01*
X867351Y640791D01*
X869861Y641831D01*
X872579Y641831D01*
X875089Y640791D01*
X877011Y638869D01*
X878051Y636359D01*
X878051Y633641D01*
X877011Y631131D01*
X875089Y629209D01*
X872579Y628169D01*
X869861Y628169D01*
G37*
%LPD*%
%LPC*%
G36*
X665391Y623089D02*
X665391Y623089D01*
X662881Y624129D01*
X660959Y626051D01*
X659919Y628561D01*
X659919Y631279D01*
X660959Y633789D01*
X662881Y635711D01*
X665391Y636751D01*
X668109Y636751D01*
X670619Y635711D01*
X672541Y633789D01*
X673581Y631279D01*
X673581Y628561D01*
X672541Y626051D01*
X670619Y624129D01*
X668109Y623089D01*
X665391Y623089D01*
G37*
%LPD*%
%LPC*%
G36*
X539661Y609119D02*
X539661Y609119D01*
X537151Y610159D01*
X535229Y612081D01*
X534189Y614591D01*
X534189Y617309D01*
X535229Y619819D01*
X537151Y621741D01*
X539661Y622781D01*
X542379Y622781D01*
X544889Y621741D01*
X546811Y619819D01*
X547851Y617309D01*
X547851Y614591D01*
X546811Y612081D01*
X544889Y610159D01*
X542379Y609119D01*
X539661Y609119D01*
G37*
%LPD*%
%LPC*%
G36*
X841921Y602769D02*
X841921Y602769D01*
X839411Y603809D01*
X837489Y605731D01*
X836449Y608241D01*
X836449Y610959D01*
X837489Y613469D01*
X839411Y615391D01*
X841921Y616431D01*
X844639Y616431D01*
X847149Y615391D01*
X849071Y613469D01*
X850111Y610959D01*
X850111Y608241D01*
X849071Y605731D01*
X847149Y603809D01*
X844639Y602769D01*
X841921Y602769D01*
G37*
%LPD*%
%LPC*%
G36*
X754291Y597689D02*
X754291Y597689D01*
X751781Y598729D01*
X749859Y600651D01*
X748819Y603161D01*
X748819Y605879D01*
X749859Y608389D01*
X751781Y610311D01*
X754291Y611351D01*
X757009Y611351D01*
X759519Y610311D01*
X761441Y608389D01*
X762481Y605879D01*
X762481Y603161D01*
X761441Y600651D01*
X759519Y598729D01*
X757009Y597689D01*
X754291Y597689D01*
G37*
%LPD*%
%LPC*%
G36*
X722541Y545619D02*
X722541Y545619D01*
X720031Y546659D01*
X718109Y548581D01*
X717069Y551091D01*
X717069Y553809D01*
X718109Y556319D01*
X720031Y558241D01*
X722541Y559281D01*
X725259Y559281D01*
X727769Y558241D01*
X729691Y556319D01*
X730731Y553809D01*
X730731Y551091D01*
X729691Y548581D01*
X727769Y546659D01*
X725259Y545619D01*
X722541Y545619D01*
G37*
%LPD*%
%LPC*%
G36*
X645071Y545619D02*
X645071Y545619D01*
X642561Y546659D01*
X640639Y548581D01*
X639599Y551091D01*
X639599Y553809D01*
X640639Y556319D01*
X642561Y558241D01*
X645071Y559281D01*
X647789Y559281D01*
X650299Y558241D01*
X652221Y556319D01*
X653261Y553809D01*
X653261Y551091D01*
X652221Y548581D01*
X650299Y546659D01*
X647789Y545619D01*
X645071Y545619D01*
G37*
%LPD*%
%LPC*%
G36*
X49441Y539269D02*
X49441Y539269D01*
X46931Y540309D01*
X45009Y542231D01*
X43969Y544741D01*
X43969Y547459D01*
X45009Y549969D01*
X46931Y551891D01*
X49441Y552931D01*
X52159Y552931D01*
X54669Y551891D01*
X56591Y549969D01*
X57631Y547459D01*
X57631Y544741D01*
X56591Y542231D01*
X54669Y540309D01*
X52159Y539269D01*
X49441Y539269D01*
G37*
%LPD*%
%LPC*%
G36*
X151041Y539269D02*
X151041Y539269D01*
X148531Y540309D01*
X146609Y542231D01*
X145569Y544741D01*
X145569Y547459D01*
X146609Y549969D01*
X148531Y551891D01*
X151041Y552931D01*
X153759Y552931D01*
X156269Y551891D01*
X158191Y549969D01*
X159231Y547459D01*
X159231Y544741D01*
X158191Y542231D01*
X156269Y540309D01*
X153759Y539269D01*
X151041Y539269D01*
G37*
%LPD*%
%LPC*%
G36*
X24041Y539269D02*
X24041Y539269D01*
X21531Y540309D01*
X19609Y542231D01*
X18569Y544741D01*
X18569Y547459D01*
X19609Y549969D01*
X21531Y551891D01*
X24041Y552931D01*
X26759Y552931D01*
X29269Y551891D01*
X31191Y549969D01*
X32231Y547459D01*
X32231Y544741D01*
X31191Y542231D01*
X29269Y540309D01*
X26759Y539269D01*
X24041Y539269D01*
G37*
%LPD*%
%LPC*%
G36*
X74841Y539269D02*
X74841Y539269D01*
X72331Y540309D01*
X70409Y542231D01*
X69369Y544741D01*
X69369Y547459D01*
X70409Y549969D01*
X72331Y551891D01*
X74841Y552931D01*
X77559Y552931D01*
X80069Y551891D01*
X81991Y549969D01*
X83031Y547459D01*
X83031Y544741D01*
X81991Y542231D01*
X80069Y540309D01*
X77559Y539269D01*
X74841Y539269D01*
G37*
%LPD*%
%LPC*%
G36*
X100241Y539269D02*
X100241Y539269D01*
X97731Y540309D01*
X95809Y542231D01*
X94769Y544741D01*
X94769Y547459D01*
X95809Y549969D01*
X97731Y551891D01*
X100241Y552931D01*
X102959Y552931D01*
X105469Y551891D01*
X107391Y549969D01*
X108431Y547459D01*
X108431Y544741D01*
X107391Y542231D01*
X105469Y540309D01*
X102959Y539269D01*
X100241Y539269D01*
G37*
%LPD*%
%LPC*%
G36*
X125641Y539269D02*
X125641Y539269D01*
X123131Y540309D01*
X121209Y542231D01*
X120169Y544741D01*
X120169Y547459D01*
X121209Y549969D01*
X123131Y551891D01*
X125641Y552931D01*
X128359Y552931D01*
X130869Y551891D01*
X132791Y549969D01*
X133831Y547459D01*
X133831Y544741D01*
X132791Y542231D01*
X130869Y540309D01*
X128359Y539269D01*
X125641Y539269D01*
G37*
%LPD*%
%LPC*%
G36*
X890181Y532919D02*
X890181Y532919D01*
X887671Y533959D01*
X885749Y535881D01*
X884709Y538391D01*
X884709Y541109D01*
X885749Y543619D01*
X887671Y545541D01*
X890181Y546581D01*
X892899Y546581D01*
X895409Y545541D01*
X897331Y543619D01*
X898371Y541109D01*
X898371Y538391D01*
X897331Y535881D01*
X895409Y533959D01*
X892899Y532919D01*
X890181Y532919D01*
G37*
%LPD*%
%LPC*%
G36*
X785381Y532259D02*
X785381Y532259D01*
X782870Y533299D01*
X780949Y535220D01*
X779909Y537731D01*
X779909Y540448D01*
X780949Y542959D01*
X782870Y544880D01*
X785381Y545920D01*
X788098Y545920D01*
X790609Y544880D01*
X792530Y542959D01*
X793570Y540448D01*
X793570Y537731D01*
X792530Y535220D01*
X790609Y533299D01*
X788098Y532259D01*
X785381Y532259D01*
G37*
%LPD*%
%LPC*%
G36*
X786041Y512599D02*
X786041Y512599D01*
X783531Y513639D01*
X781609Y515561D01*
X780569Y518071D01*
X780569Y520789D01*
X781609Y523299D01*
X783531Y525221D01*
X786041Y526261D01*
X788759Y526261D01*
X791269Y525221D01*
X793191Y523299D01*
X794231Y520789D01*
X794231Y518071D01*
X793191Y515561D01*
X791269Y513639D01*
X788759Y512599D01*
X786041Y512599D01*
G37*
%LPD*%
%LPC*%
G36*
X766991Y512599D02*
X766991Y512599D01*
X764481Y513639D01*
X762559Y515561D01*
X761519Y518071D01*
X761519Y520789D01*
X762559Y523299D01*
X764481Y525221D01*
X766991Y526261D01*
X769709Y526261D01*
X772219Y525221D01*
X774141Y523299D01*
X775181Y520789D01*
X775181Y518071D01*
X774141Y515561D01*
X772219Y513639D01*
X769709Y512599D01*
X766991Y512599D01*
G37*
%LPD*%
%LPC*%
G36*
X493941Y488469D02*
X493941Y488469D01*
X491431Y489509D01*
X489509Y491431D01*
X488469Y493941D01*
X488469Y496659D01*
X489509Y499169D01*
X491431Y501091D01*
X493941Y502131D01*
X496659Y502131D01*
X499169Y501091D01*
X501091Y499169D01*
X502131Y496659D01*
X502131Y493941D01*
X501091Y491431D01*
X499169Y489509D01*
X496659Y488469D01*
X493941Y488469D01*
G37*
%LPD*%
%LPC*%
G36*
X176441Y482119D02*
X176441Y482119D01*
X173931Y483159D01*
X172009Y485081D01*
X170969Y487591D01*
X170969Y490309D01*
X172009Y492819D01*
X173931Y494741D01*
X176441Y495781D01*
X179159Y495781D01*
X181669Y494741D01*
X183591Y492819D01*
X184631Y490309D01*
X184631Y487591D01*
X183591Y485081D01*
X181669Y483159D01*
X179159Y482119D01*
X176441Y482119D01*
G37*
%LPD*%
%LPC*%
G36*
X833031Y471959D02*
X833031Y471959D01*
X830521Y472999D01*
X828599Y474921D01*
X827559Y477431D01*
X827559Y480149D01*
X828599Y482659D01*
X830521Y484581D01*
X833031Y485621D01*
X835749Y485621D01*
X838259Y484581D01*
X840181Y482659D01*
X841221Y480149D01*
X841221Y477431D01*
X840181Y474921D01*
X838259Y472999D01*
X835749Y471959D01*
X833031Y471959D01*
G37*
%LPD*%
%LPC*%
G36*
X163741Y469419D02*
X163741Y469419D01*
X161231Y470459D01*
X159309Y472381D01*
X158269Y474891D01*
X158269Y477609D01*
X159309Y480119D01*
X161231Y482041D01*
X163741Y483081D01*
X166459Y483081D01*
X168969Y482041D01*
X170891Y480119D01*
X171931Y477609D01*
X171931Y474891D01*
X170891Y472381D01*
X168969Y470459D01*
X166459Y469419D01*
X163741Y469419D01*
G37*
%LPD*%
%LPC*%
G36*
X493941Y463069D02*
X493941Y463069D01*
X491431Y464109D01*
X489509Y466031D01*
X488469Y468541D01*
X488469Y471259D01*
X489509Y473769D01*
X491431Y475691D01*
X493941Y476731D01*
X496659Y476731D01*
X499169Y475691D01*
X501091Y473769D01*
X502131Y471259D01*
X502131Y468541D01*
X501091Y466031D01*
X499169Y464109D01*
X496659Y463069D01*
X493941Y463069D01*
G37*
%LPD*%
%LPC*%
G36*
X801281Y440209D02*
X801281Y440209D01*
X798771Y441249D01*
X796849Y443171D01*
X795809Y445681D01*
X795809Y448399D01*
X796849Y450909D01*
X798771Y452831D01*
X801281Y453871D01*
X803999Y453871D01*
X806509Y452831D01*
X808431Y450909D01*
X809471Y448399D01*
X809471Y445681D01*
X808431Y443171D01*
X806509Y441249D01*
X803999Y440209D01*
X801281Y440209D01*
G37*
%LPD*%
%LPC*%
G36*
X493941Y437669D02*
X493941Y437669D01*
X491431Y438709D01*
X489509Y440631D01*
X488469Y443141D01*
X488469Y445859D01*
X489509Y448369D01*
X491431Y450291D01*
X493941Y451331D01*
X496659Y451331D01*
X499169Y450291D01*
X501091Y448369D01*
X502131Y445859D01*
X502131Y443141D01*
X501091Y440631D01*
X499169Y438709D01*
X496659Y437669D01*
X493941Y437669D01*
G37*
%LPD*%
%LPC*%
G36*
X24041Y437669D02*
X24041Y437669D01*
X21531Y438709D01*
X19609Y440631D01*
X18569Y443141D01*
X18569Y445859D01*
X19609Y448369D01*
X21531Y450291D01*
X24041Y451331D01*
X26759Y451331D01*
X29269Y450291D01*
X31191Y448369D01*
X32231Y445859D01*
X32231Y443141D01*
X31191Y440631D01*
X29269Y438709D01*
X26759Y437669D01*
X24041Y437669D01*
G37*
%LPD*%
%LPC*%
G36*
X239941Y431319D02*
X239941Y431319D01*
X237431Y432359D01*
X235509Y434281D01*
X234469Y436791D01*
X234469Y439509D01*
X235509Y442019D01*
X237431Y443941D01*
X239941Y444981D01*
X242659Y444981D01*
X245169Y443941D01*
X247091Y442019D01*
X248131Y439509D01*
X248131Y436791D01*
X247091Y434281D01*
X245169Y432359D01*
X242659Y431319D01*
X239941Y431319D01*
G37*
%LPD*%
%LPC*%
G36*
X24041Y412269D02*
X24041Y412269D01*
X21531Y413309D01*
X19609Y415231D01*
X18569Y417741D01*
X18569Y420459D01*
X19609Y422969D01*
X21531Y424891D01*
X24041Y425931D01*
X26759Y425931D01*
X29269Y424891D01*
X31191Y422969D01*
X32231Y420459D01*
X32231Y417741D01*
X31191Y415231D01*
X29269Y413309D01*
X26759Y412269D01*
X24041Y412269D01*
G37*
%LPD*%
%LPC*%
G36*
X493941Y412269D02*
X493941Y412269D01*
X491431Y413309D01*
X489509Y415231D01*
X488469Y417741D01*
X488469Y420459D01*
X489509Y422969D01*
X491431Y424891D01*
X493941Y425931D01*
X496659Y425931D01*
X499169Y424891D01*
X501091Y422969D01*
X502131Y420459D01*
X502131Y417741D01*
X501091Y415231D01*
X499169Y413309D01*
X496659Y412269D01*
X493941Y412269D01*
G37*
%LPD*%
%LPC*%
G36*
X932091Y400839D02*
X932091Y400839D01*
X929581Y401879D01*
X927659Y403801D01*
X926619Y406311D01*
X926619Y409029D01*
X927659Y411539D01*
X929581Y413461D01*
X932091Y414501D01*
X934809Y414501D01*
X937319Y413461D01*
X939241Y411539D01*
X940281Y409029D01*
X940281Y406311D01*
X939241Y403801D01*
X937319Y401879D01*
X934809Y400839D01*
X932091Y400839D01*
G37*
%LPD*%
%LPC*%
G36*
X493941Y386869D02*
X493941Y386869D01*
X491431Y387909D01*
X489509Y389831D01*
X488469Y392341D01*
X488469Y395059D01*
X489509Y397569D01*
X491431Y399491D01*
X493941Y400531D01*
X496659Y400531D01*
X499169Y399491D01*
X501091Y397569D01*
X502131Y395059D01*
X502131Y392341D01*
X501091Y389831D01*
X499169Y387909D01*
X496659Y386869D01*
X493941Y386869D01*
G37*
%LPD*%
%LPC*%
G36*
X24041Y386869D02*
X24041Y386869D01*
X21531Y387909D01*
X19609Y389831D01*
X18569Y392341D01*
X18569Y395059D01*
X19609Y397569D01*
X21531Y399491D01*
X24041Y400531D01*
X26759Y400531D01*
X29269Y399491D01*
X31191Y397569D01*
X32231Y395059D01*
X32231Y392341D01*
X31191Y389831D01*
X29269Y387909D01*
X26759Y386869D01*
X24041Y386869D01*
G37*
%LPD*%
%LPC*%
G36*
X493941Y361469D02*
X493941Y361469D01*
X491431Y362509D01*
X489509Y364431D01*
X488469Y366941D01*
X488469Y369659D01*
X489509Y372169D01*
X491431Y374091D01*
X493941Y375131D01*
X496659Y375131D01*
X499169Y374091D01*
X501091Y372169D01*
X502131Y369659D01*
X502131Y366941D01*
X501091Y364431D01*
X499169Y362509D01*
X496659Y361469D01*
X493941Y361469D01*
G37*
%LPD*%
%LPC*%
G36*
X24041Y361469D02*
X24041Y361469D01*
X21531Y362509D01*
X19609Y364431D01*
X18569Y366941D01*
X18569Y369659D01*
X19609Y372169D01*
X21531Y374091D01*
X24041Y375131D01*
X26759Y375131D01*
X29269Y374091D01*
X31191Y372169D01*
X32231Y369659D01*
X32231Y366941D01*
X31191Y364431D01*
X29269Y362509D01*
X26759Y361469D01*
X24041Y361469D01*
G37*
%LPD*%
%LPC*%
G36*
X151041Y348769D02*
X151041Y348769D01*
X148531Y349809D01*
X146609Y351731D01*
X145569Y354241D01*
X145569Y356959D01*
X146609Y359469D01*
X148531Y361391D01*
X151041Y362431D01*
X153759Y362431D01*
X156269Y361391D01*
X158191Y359469D01*
X159231Y356959D01*
X159231Y354241D01*
X158191Y351731D01*
X156269Y349809D01*
X153759Y348769D01*
X151041Y348769D01*
G37*
%LPD*%
%LPC*%
G36*
X24041Y336069D02*
X24041Y336069D01*
X21531Y337109D01*
X19609Y339031D01*
X18569Y341541D01*
X18569Y344259D01*
X19609Y346769D01*
X21531Y348691D01*
X24041Y349731D01*
X26759Y349731D01*
X29269Y348691D01*
X31191Y346769D01*
X32231Y344259D01*
X32231Y341541D01*
X31191Y339031D01*
X29269Y337109D01*
X26759Y336069D01*
X24041Y336069D01*
G37*
%LPD*%
%LPC*%
G36*
X944791Y336069D02*
X944791Y336069D01*
X942281Y337109D01*
X940359Y339031D01*
X939319Y341541D01*
X939319Y344259D01*
X940359Y346769D01*
X942281Y348691D01*
X944791Y349731D01*
X947509Y349731D01*
X950019Y348691D01*
X951941Y346769D01*
X952981Y344259D01*
X952981Y341541D01*
X951941Y339031D01*
X950019Y337109D01*
X947509Y336069D01*
X944791Y336069D01*
G37*
%LPD*%
%LPC*%
G36*
X680631Y336069D02*
X680631Y336069D01*
X678121Y337109D01*
X676199Y339031D01*
X675159Y341541D01*
X675159Y344259D01*
X676199Y346769D01*
X678121Y348691D01*
X680631Y349731D01*
X683349Y349731D01*
X685859Y348691D01*
X687781Y346769D01*
X688821Y344259D01*
X688821Y341541D01*
X687781Y339031D01*
X685859Y337109D01*
X683349Y336069D01*
X680631Y336069D01*
G37*
%LPD*%
%LPC*%
G36*
X713651Y336069D02*
X713651Y336069D01*
X711141Y337109D01*
X709219Y339031D01*
X708179Y341541D01*
X708179Y344259D01*
X709219Y346769D01*
X711141Y348691D01*
X713651Y349731D01*
X716369Y349731D01*
X718879Y348691D01*
X720801Y346769D01*
X721841Y344259D01*
X721841Y341541D01*
X720801Y339031D01*
X718879Y337109D01*
X716369Y336069D01*
X713651Y336069D01*
G37*
%LPD*%
%LPC*%
G36*
X457111Y323369D02*
X457111Y323369D01*
X454601Y324409D01*
X452679Y326331D01*
X451639Y328841D01*
X451639Y331559D01*
X452679Y334069D01*
X454601Y335991D01*
X457111Y337031D01*
X459829Y337031D01*
X462339Y335991D01*
X464261Y334069D01*
X465301Y331559D01*
X465301Y328841D01*
X464261Y326331D01*
X462339Y324409D01*
X459829Y323369D01*
X457111Y323369D01*
G37*
%LPD*%
%LPC*%
G36*
X151041Y323369D02*
X151041Y323369D01*
X148531Y324409D01*
X146609Y326331D01*
X145569Y328841D01*
X145569Y331559D01*
X146609Y334069D01*
X148531Y335991D01*
X151041Y337031D01*
X153759Y337031D01*
X156269Y335991D01*
X158191Y334069D01*
X159231Y331559D01*
X159231Y328841D01*
X158191Y326331D01*
X156269Y324409D01*
X153759Y323369D01*
X151041Y323369D01*
G37*
%LPD*%
%LPC*%
G36*
X24041Y310669D02*
X24041Y310669D01*
X21531Y311709D01*
X19609Y313631D01*
X18569Y316141D01*
X18569Y318859D01*
X19609Y321369D01*
X21531Y323291D01*
X24041Y324331D01*
X26759Y324331D01*
X29269Y323291D01*
X31191Y321369D01*
X32231Y318859D01*
X32231Y316141D01*
X31191Y313631D01*
X29269Y311709D01*
X26759Y310669D01*
X24041Y310669D01*
G37*
%LPD*%
%LPC*%
G36*
X290741Y18569D02*
X290741Y18569D01*
X288231Y19609D01*
X286309Y21531D01*
X285269Y24041D01*
X285269Y26759D01*
X286309Y29269D01*
X288231Y31191D01*
X290741Y32231D01*
X293459Y32231D01*
X295969Y31191D01*
X297891Y29269D01*
X298931Y26759D01*
X298931Y24041D01*
X297891Y21531D01*
X295969Y19609D01*
X293459Y18569D01*
X290741Y18569D01*
G37*
%LPD*%
%LPC*%
G36*
X462191Y285269D02*
X462191Y285269D01*
X459681Y286309D01*
X457759Y288231D01*
X456719Y290741D01*
X456719Y293459D01*
X457759Y295969D01*
X459681Y297891D01*
X462191Y298931D01*
X464909Y298931D01*
X467419Y297891D01*
X469341Y295969D01*
X470381Y293459D01*
X470381Y290741D01*
X469341Y288231D01*
X467419Y286309D01*
X464909Y285269D01*
X462191Y285269D01*
G37*
%LPD*%
%LPC*%
G36*
X24041Y285269D02*
X24041Y285269D01*
X21531Y286309D01*
X19609Y288231D01*
X18569Y290741D01*
X18569Y293459D01*
X19609Y295969D01*
X21531Y297891D01*
X24041Y298931D01*
X26759Y298931D01*
X29269Y297891D01*
X31191Y295969D01*
X32231Y293459D01*
X32231Y290741D01*
X31191Y288231D01*
X29269Y286309D01*
X26759Y285269D01*
X24041Y285269D01*
G37*
%LPD*%
%LPC*%
G36*
X239941Y278919D02*
X239941Y278919D01*
X237431Y279959D01*
X235509Y281881D01*
X234469Y284391D01*
X234469Y287109D01*
X235509Y289619D01*
X237431Y291541D01*
X239941Y292581D01*
X242659Y292581D01*
X245169Y291541D01*
X247091Y289619D01*
X248131Y287109D01*
X248131Y284391D01*
X247091Y281881D01*
X245169Y279959D01*
X242659Y278919D01*
X239941Y278919D01*
G37*
%LPD*%
%LPC*%
G36*
X151041Y272569D02*
X151041Y272569D01*
X148531Y273609D01*
X146609Y275531D01*
X145569Y278041D01*
X145569Y280759D01*
X146609Y283269D01*
X148531Y285191D01*
X151041Y286231D01*
X153759Y286231D01*
X156269Y285191D01*
X158191Y283269D01*
X159231Y280759D01*
X159231Y278041D01*
X158191Y275531D01*
X156269Y273609D01*
X153759Y272569D01*
X151041Y272569D01*
G37*
%LPD*%
%LPC*%
G36*
X843191Y266219D02*
X843191Y266219D01*
X840681Y267259D01*
X838759Y269181D01*
X837719Y271691D01*
X837719Y274409D01*
X838759Y276919D01*
X840681Y278841D01*
X843191Y279881D01*
X845909Y279881D01*
X848419Y278841D01*
X850341Y276919D01*
X851381Y274409D01*
X851381Y271691D01*
X850341Y269181D01*
X848419Y267259D01*
X845909Y266219D01*
X843191Y266219D01*
G37*
%LPD*%
%LPC*%
G36*
X24041Y259869D02*
X24041Y259869D01*
X21531Y260909D01*
X19609Y262831D01*
X18569Y265341D01*
X18569Y268059D01*
X19609Y270569D01*
X21531Y272491D01*
X24041Y273531D01*
X26759Y273531D01*
X29269Y272491D01*
X31191Y270569D01*
X32231Y268059D01*
X32231Y265341D01*
X31191Y262831D01*
X29269Y260909D01*
X26759Y259869D01*
X24041Y259869D01*
G37*
%LPD*%
%LPC*%
G36*
X976541Y259869D02*
X976541Y259869D01*
X974031Y260909D01*
X972109Y262831D01*
X971069Y265341D01*
X971069Y268059D01*
X972109Y270569D01*
X974031Y272491D01*
X976541Y273531D01*
X979259Y273531D01*
X981769Y272491D01*
X983691Y270569D01*
X984731Y268059D01*
X984731Y265341D01*
X983691Y262831D01*
X981769Y260909D01*
X979259Y259869D01*
X976541Y259869D01*
G37*
%LPD*%
%LPC*%
G36*
X925741Y259869D02*
X925741Y259869D01*
X923231Y260909D01*
X921309Y262831D01*
X920269Y265341D01*
X920269Y268059D01*
X921309Y270569D01*
X923231Y272491D01*
X925741Y273531D01*
X928459Y273531D01*
X930969Y272491D01*
X932891Y270569D01*
X933931Y268059D01*
X933931Y265341D01*
X932891Y262831D01*
X930969Y260909D01*
X928459Y259869D01*
X925741Y259869D01*
G37*
%LPD*%
%LPC*%
G36*
X493941Y259869D02*
X493941Y259869D01*
X491431Y260909D01*
X489509Y262831D01*
X488469Y265341D01*
X488469Y268059D01*
X489509Y270569D01*
X491431Y272491D01*
X493941Y273531D01*
X496659Y273531D01*
X499169Y272491D01*
X501091Y270569D01*
X502131Y268059D01*
X502131Y265341D01*
X501091Y262831D01*
X499169Y260909D01*
X496659Y259869D01*
X493941Y259869D01*
G37*
%LPD*%
%LPC*%
G36*
X257721Y259869D02*
X257721Y259869D01*
X255211Y260909D01*
X253289Y262831D01*
X252249Y265341D01*
X252249Y268059D01*
X253289Y270569D01*
X255211Y272491D01*
X257721Y273531D01*
X260439Y273531D01*
X262949Y272491D01*
X264871Y270569D01*
X265911Y268059D01*
X265911Y265341D01*
X264871Y262831D01*
X262949Y260909D01*
X260439Y259869D01*
X257721Y259869D01*
G37*
%LPD*%
%LPC*%
G36*
X151041Y247169D02*
X151041Y247169D01*
X148531Y248209D01*
X146609Y250131D01*
X145569Y252641D01*
X145569Y255359D01*
X146609Y257869D01*
X148531Y259791D01*
X151041Y260831D01*
X153759Y260831D01*
X156269Y259791D01*
X158191Y257869D01*
X159231Y255359D01*
X159231Y252641D01*
X158191Y250131D01*
X156269Y248209D01*
X153759Y247169D01*
X151041Y247169D01*
G37*
%LPD*%
%LPC*%
G36*
X805091Y240819D02*
X805091Y240819D01*
X802581Y241859D01*
X800659Y243781D01*
X799619Y246291D01*
X799619Y249009D01*
X800659Y251519D01*
X802581Y253441D01*
X805091Y254481D01*
X807809Y254481D01*
X810319Y253441D01*
X812241Y251519D01*
X813281Y249009D01*
X813281Y246291D01*
X812241Y243781D01*
X810319Y241859D01*
X807809Y240819D01*
X805091Y240819D01*
G37*
%LPD*%
%LPC*%
G36*
X24041Y234469D02*
X24041Y234469D01*
X21531Y235509D01*
X19609Y237431D01*
X18569Y239941D01*
X18569Y242659D01*
X19609Y245169D01*
X21531Y247091D01*
X24041Y248131D01*
X26759Y248131D01*
X29269Y247091D01*
X31191Y245169D01*
X32231Y242659D01*
X32231Y239941D01*
X31191Y237431D01*
X29269Y235509D01*
X26759Y234469D01*
X24041Y234469D01*
G37*
%LPD*%
%LPC*%
G36*
X976541Y234469D02*
X976541Y234469D01*
X974031Y235509D01*
X972109Y237431D01*
X971069Y239941D01*
X971069Y242659D01*
X972109Y245169D01*
X974031Y247091D01*
X976541Y248131D01*
X979259Y248131D01*
X981769Y247091D01*
X983691Y245169D01*
X984731Y242659D01*
X984731Y239941D01*
X983691Y237431D01*
X981769Y235509D01*
X979259Y234469D01*
X976541Y234469D01*
G37*
%LPD*%
%LPC*%
G36*
X493941Y234469D02*
X493941Y234469D01*
X491431Y235509D01*
X489509Y237431D01*
X488469Y239941D01*
X488469Y242659D01*
X489509Y245169D01*
X491431Y247091D01*
X493941Y248131D01*
X496659Y248131D01*
X499169Y247091D01*
X501091Y245169D01*
X502131Y242659D01*
X502131Y239941D01*
X501091Y237431D01*
X499169Y235509D01*
X496659Y234469D01*
X493941Y234469D01*
G37*
%LPD*%
%LPC*%
G36*
X316141Y229389D02*
X316141Y229389D01*
X313631Y230429D01*
X311709Y232351D01*
X310669Y234861D01*
X310669Y237579D01*
X311709Y240089D01*
X313631Y242011D01*
X316141Y243051D01*
X318859Y243051D01*
X321369Y242011D01*
X323291Y240089D01*
X324331Y237579D01*
X324331Y234861D01*
X323291Y232351D01*
X321369Y230429D01*
X318859Y229389D01*
X316141Y229389D01*
G37*
%LPD*%
%LPC*%
G36*
X151041Y221769D02*
X151041Y221769D01*
X148531Y222809D01*
X146609Y224731D01*
X145569Y227241D01*
X145569Y229959D01*
X146609Y232469D01*
X148531Y234391D01*
X151041Y235431D01*
X153759Y235431D01*
X156269Y234391D01*
X158191Y232469D01*
X159231Y229959D01*
X159231Y227241D01*
X158191Y224731D01*
X156269Y222809D01*
X153759Y221769D01*
X151041Y221769D01*
G37*
%LPD*%
%LPC*%
G36*
X267881Y217959D02*
X267881Y217959D01*
X265371Y218999D01*
X263449Y220921D01*
X262409Y223431D01*
X262409Y226149D01*
X263449Y228659D01*
X265371Y230581D01*
X267881Y231621D01*
X270599Y231621D01*
X273109Y230581D01*
X275031Y228659D01*
X276071Y226149D01*
X276071Y223431D01*
X275031Y220921D01*
X273109Y218999D01*
X270599Y217959D01*
X267881Y217959D01*
G37*
%LPD*%
%LPC*%
G36*
X24041Y209069D02*
X24041Y209069D01*
X21531Y210109D01*
X19609Y212031D01*
X18569Y214541D01*
X18569Y217259D01*
X19609Y219769D01*
X21531Y221691D01*
X24041Y222731D01*
X26759Y222731D01*
X29269Y221691D01*
X31191Y219769D01*
X32231Y217259D01*
X32231Y214541D01*
X31191Y212031D01*
X29269Y210109D01*
X26759Y209069D01*
X24041Y209069D01*
G37*
%LPD*%
%LPC*%
G36*
X493941Y209069D02*
X493941Y209069D01*
X491431Y210109D01*
X489509Y212031D01*
X488469Y214541D01*
X488469Y217259D01*
X489509Y219769D01*
X491431Y221691D01*
X493941Y222731D01*
X496659Y222731D01*
X499169Y221691D01*
X501091Y219769D01*
X502131Y217259D01*
X502131Y214541D01*
X501091Y212031D01*
X499169Y210109D01*
X496659Y209069D01*
X493941Y209069D01*
G37*
%LPD*%
%LPC*%
G36*
X976541Y209069D02*
X976541Y209069D01*
X974031Y210109D01*
X972109Y212031D01*
X971069Y214541D01*
X971069Y217259D01*
X972109Y219769D01*
X974031Y221691D01*
X976541Y222731D01*
X979259Y222731D01*
X981769Y221691D01*
X983691Y219769D01*
X984731Y217259D01*
X984731Y214541D01*
X983691Y212031D01*
X981769Y210109D01*
X979259Y209069D01*
X976541Y209069D01*
G37*
%LPD*%
%LPC*%
G36*
X481241Y196369D02*
X481241Y196369D01*
X478731Y197409D01*
X476809Y199331D01*
X475769Y201841D01*
X475769Y204559D01*
X476809Y207069D01*
X478731Y208991D01*
X481241Y210031D01*
X483959Y210031D01*
X486469Y208991D01*
X488391Y207069D01*
X489431Y204559D01*
X489431Y201841D01*
X488391Y199331D01*
X486469Y197409D01*
X483959Y196369D01*
X481241Y196369D01*
G37*
%LPD*%
%LPC*%
G36*
X151041Y196369D02*
X151041Y196369D01*
X148531Y197409D01*
X146609Y199331D01*
X145569Y201841D01*
X145569Y204559D01*
X146609Y207069D01*
X148531Y208991D01*
X151041Y210031D01*
X153759Y210031D01*
X156269Y208991D01*
X158191Y207069D01*
X159231Y204559D01*
X159231Y201841D01*
X158191Y199331D01*
X156269Y197409D01*
X153759Y196369D01*
X151041Y196369D01*
G37*
%LPD*%
%LPC*%
G36*
X468541Y183669D02*
X468541Y183669D01*
X466031Y184709D01*
X464109Y186631D01*
X463069Y189141D01*
X463069Y191859D01*
X464109Y194369D01*
X466031Y196291D01*
X468541Y197331D01*
X471259Y197331D01*
X473769Y196291D01*
X475691Y194369D01*
X476731Y191859D01*
X476731Y189141D01*
X475691Y186631D01*
X473769Y184709D01*
X471259Y183669D01*
X468541Y183669D01*
G37*
%LPD*%
%LPC*%
G36*
X163741Y183669D02*
X163741Y183669D01*
X161231Y184709D01*
X159309Y186631D01*
X158269Y189141D01*
X158269Y191859D01*
X159309Y194369D01*
X161231Y196291D01*
X163741Y197331D01*
X166459Y197331D01*
X168969Y196291D01*
X170891Y194369D01*
X171931Y191859D01*
X171931Y189141D01*
X170891Y186631D01*
X168969Y184709D01*
X166459Y183669D01*
X163741Y183669D01*
G37*
%LPD*%
%LPC*%
G36*
X24041Y183669D02*
X24041Y183669D01*
X21531Y184709D01*
X19609Y186631D01*
X18569Y189141D01*
X18569Y191859D01*
X19609Y194369D01*
X21531Y196291D01*
X24041Y197331D01*
X26759Y197331D01*
X29269Y196291D01*
X31191Y194369D01*
X32231Y191859D01*
X32231Y189141D01*
X31191Y186631D01*
X29269Y184709D01*
X26759Y183669D01*
X24041Y183669D01*
G37*
%LPD*%
%LPC*%
G36*
X976541Y183669D02*
X976541Y183669D01*
X974031Y184709D01*
X972109Y186631D01*
X971069Y189141D01*
X971069Y191859D01*
X972109Y194369D01*
X974031Y196291D01*
X976541Y197331D01*
X979259Y197331D01*
X981769Y196291D01*
X983691Y194369D01*
X984731Y191859D01*
X984731Y189141D01*
X983691Y186631D01*
X981769Y184709D01*
X979259Y183669D01*
X976541Y183669D01*
G37*
%LPD*%
%LPC*%
G36*
X786041Y177319D02*
X786041Y177319D01*
X783531Y178359D01*
X781609Y180281D01*
X780569Y182791D01*
X780569Y185509D01*
X781609Y188019D01*
X783531Y189941D01*
X786041Y190981D01*
X788759Y190981D01*
X791269Y189941D01*
X793191Y188019D01*
X794231Y185509D01*
X794231Y182791D01*
X793191Y180281D01*
X791269Y178359D01*
X788759Y177319D01*
X786041Y177319D01*
G37*
%LPD*%
%LPC*%
G36*
X278041Y170969D02*
X278041Y170969D01*
X275531Y172009D01*
X273609Y173931D01*
X272569Y176441D01*
X272569Y179159D01*
X273609Y181669D01*
X275531Y183591D01*
X278041Y184631D01*
X280759Y184631D01*
X283269Y183591D01*
X285191Y181669D01*
X286231Y179159D01*
X286231Y176441D01*
X285191Y173931D01*
X283269Y172009D01*
X280759Y170969D01*
X278041Y170969D01*
G37*
%LPD*%
%LPC*%
G36*
X252641Y170969D02*
X252641Y170969D01*
X250131Y172009D01*
X248209Y173931D01*
X247169Y176441D01*
X247169Y179159D01*
X248209Y181669D01*
X250131Y183591D01*
X252641Y184631D01*
X255359Y184631D01*
X257869Y183591D01*
X259791Y181669D01*
X260831Y179159D01*
X260831Y176441D01*
X259791Y173931D01*
X257869Y172009D01*
X255359Y170969D01*
X252641Y170969D01*
G37*
%LPD*%
%LPC*%
G36*
X227241Y170969D02*
X227241Y170969D01*
X224731Y172009D01*
X222809Y173931D01*
X221769Y176441D01*
X221769Y179159D01*
X222809Y181669D01*
X224731Y183591D01*
X227241Y184631D01*
X229959Y184631D01*
X232469Y183591D01*
X234391Y181669D01*
X235431Y179159D01*
X235431Y176441D01*
X234391Y173931D01*
X232469Y172009D01*
X229959Y170969D01*
X227241Y170969D01*
G37*
%LPD*%
%LPC*%
G36*
X176441Y170969D02*
X176441Y170969D01*
X173931Y172009D01*
X172009Y173931D01*
X170969Y176441D01*
X170969Y179159D01*
X172009Y181669D01*
X173931Y183591D01*
X176441Y184631D01*
X179159Y184631D01*
X181669Y183591D01*
X183591Y181669D01*
X184631Y179159D01*
X184631Y176441D01*
X183591Y173931D01*
X181669Y172009D01*
X179159Y170969D01*
X176441Y170969D01*
G37*
%LPD*%
%LPC*%
G36*
X455841Y170969D02*
X455841Y170969D01*
X453331Y172009D01*
X451409Y173931D01*
X450369Y176441D01*
X450369Y179159D01*
X451409Y181669D01*
X453331Y183591D01*
X455841Y184631D01*
X458559Y184631D01*
X461069Y183591D01*
X462991Y181669D01*
X464031Y179159D01*
X464031Y176441D01*
X462991Y173931D01*
X461069Y172009D01*
X458559Y170969D01*
X455841Y170969D01*
G37*
%LPD*%
%LPC*%
G36*
X430441Y170969D02*
X430441Y170969D01*
X427931Y172009D01*
X426009Y173931D01*
X424969Y176441D01*
X424969Y179159D01*
X426009Y181669D01*
X427931Y183591D01*
X430441Y184631D01*
X433159Y184631D01*
X435669Y183591D01*
X437591Y181669D01*
X438631Y179159D01*
X438631Y176441D01*
X437591Y173931D01*
X435669Y172009D01*
X433159Y170969D01*
X430441Y170969D01*
G37*
%LPD*%
%LPC*%
G36*
X405041Y170969D02*
X405041Y170969D01*
X402531Y172009D01*
X400609Y173931D01*
X399569Y176441D01*
X399569Y179159D01*
X400609Y181669D01*
X402531Y183591D01*
X405041Y184631D01*
X407759Y184631D01*
X410269Y183591D01*
X412191Y181669D01*
X413231Y179159D01*
X413231Y176441D01*
X412191Y173931D01*
X410269Y172009D01*
X407759Y170969D01*
X405041Y170969D01*
G37*
%LPD*%
%LPC*%
G36*
X379641Y170969D02*
X379641Y170969D01*
X377131Y172009D01*
X375209Y173931D01*
X374169Y176441D01*
X374169Y179159D01*
X375209Y181669D01*
X377131Y183591D01*
X379641Y184631D01*
X382359Y184631D01*
X384869Y183591D01*
X386791Y181669D01*
X387831Y179159D01*
X387831Y176441D01*
X386791Y173931D01*
X384869Y172009D01*
X382359Y170969D01*
X379641Y170969D01*
G37*
%LPD*%
%LPC*%
G36*
X354241Y170969D02*
X354241Y170969D01*
X351731Y172009D01*
X349809Y173931D01*
X348769Y176441D01*
X348769Y179159D01*
X349809Y181669D01*
X351731Y183591D01*
X354241Y184631D01*
X356959Y184631D01*
X359469Y183591D01*
X361391Y181669D01*
X362431Y179159D01*
X362431Y176441D01*
X361391Y173931D01*
X359469Y172009D01*
X356959Y170969D01*
X354241Y170969D01*
G37*
%LPD*%
%LPC*%
G36*
X328841Y170969D02*
X328841Y170969D01*
X326331Y172009D01*
X324409Y173931D01*
X323369Y176441D01*
X323369Y179159D01*
X324409Y181669D01*
X326331Y183591D01*
X328841Y184631D01*
X331559Y184631D01*
X334069Y183591D01*
X335991Y181669D01*
X337031Y179159D01*
X337031Y176441D01*
X335991Y173931D01*
X334069Y172009D01*
X331559Y170969D01*
X328841Y170969D01*
G37*
%LPD*%
%LPC*%
G36*
X303441Y170969D02*
X303441Y170969D01*
X300931Y172009D01*
X299009Y173931D01*
X297969Y176441D01*
X297969Y179159D01*
X299009Y181669D01*
X300931Y183591D01*
X303441Y184631D01*
X306159Y184631D01*
X308669Y183591D01*
X310591Y181669D01*
X311631Y179159D01*
X311631Y176441D01*
X310591Y173931D01*
X308669Y172009D01*
X306159Y170969D01*
X303441Y170969D01*
G37*
%LPD*%
%LPC*%
G36*
X976541Y158269D02*
X976541Y158269D01*
X974031Y159309D01*
X972109Y161231D01*
X971069Y163741D01*
X971069Y166459D01*
X972109Y168969D01*
X974031Y170891D01*
X976541Y171931D01*
X979259Y171931D01*
X981769Y170891D01*
X983691Y168969D01*
X984731Y166459D01*
X984731Y163741D01*
X983691Y161231D01*
X981769Y159309D01*
X979259Y158269D01*
X976541Y158269D01*
G37*
%LPD*%
%LPC*%
G36*
X24041Y158269D02*
X24041Y158269D01*
X21531Y159309D01*
X19609Y161231D01*
X18569Y163741D01*
X18569Y166459D01*
X19609Y168969D01*
X21531Y170891D01*
X24041Y171931D01*
X26759Y171931D01*
X29269Y170891D01*
X31191Y168969D01*
X32231Y166459D01*
X32231Y163741D01*
X31191Y161231D01*
X29269Y159309D01*
X26759Y158269D01*
X24041Y158269D01*
G37*
%LPD*%
%LPC*%
G36*
X976541Y132869D02*
X976541Y132869D01*
X974031Y133909D01*
X972109Y135831D01*
X971069Y138341D01*
X971069Y141059D01*
X972109Y143569D01*
X974031Y145491D01*
X976541Y146531D01*
X979259Y146531D01*
X981769Y145491D01*
X983691Y143569D01*
X984731Y141059D01*
X984731Y138341D01*
X983691Y135831D01*
X981769Y133909D01*
X979259Y132869D01*
X976541Y132869D01*
G37*
%LPD*%
%LPC*%
G36*
X779691Y132869D02*
X779691Y132869D01*
X777181Y133909D01*
X775259Y135831D01*
X774219Y138341D01*
X774219Y141059D01*
X775259Y143569D01*
X777181Y145491D01*
X779691Y146531D01*
X782409Y146531D01*
X784919Y145491D01*
X786841Y143569D01*
X787881Y141059D01*
X787881Y138341D01*
X786841Y135831D01*
X784919Y133909D01*
X782409Y132869D01*
X779691Y132869D01*
G37*
%LPD*%
%LPC*%
G36*
X24041Y132869D02*
X24041Y132869D01*
X21531Y133909D01*
X19609Y135831D01*
X18569Y138341D01*
X18569Y141059D01*
X19609Y143569D01*
X21531Y145491D01*
X24041Y146531D01*
X26759Y146531D01*
X29269Y145491D01*
X31191Y143569D01*
X32231Y141059D01*
X32231Y138341D01*
X31191Y135831D01*
X29269Y133909D01*
X26759Y132869D01*
X24041Y132869D01*
G37*
%LPD*%
%LPC*%
G36*
X825411Y125249D02*
X825411Y125249D01*
X822901Y126289D01*
X820979Y128211D01*
X819939Y130721D01*
X819939Y133439D01*
X820979Y135949D01*
X822901Y137871D01*
X825411Y138911D01*
X828129Y138911D01*
X830639Y137871D01*
X832561Y135949D01*
X833601Y133439D01*
X833601Y130721D01*
X832561Y128211D01*
X830639Y126289D01*
X828129Y125249D01*
X825411Y125249D01*
G37*
%LPD*%
%LPC*%
G36*
X976541Y107469D02*
X976541Y107469D01*
X974031Y108509D01*
X972109Y110431D01*
X971069Y112941D01*
X971069Y115659D01*
X972109Y118169D01*
X974031Y120091D01*
X976541Y121131D01*
X979259Y121131D01*
X981769Y120091D01*
X983691Y118169D01*
X984731Y115659D01*
X984731Y112941D01*
X983691Y110431D01*
X981769Y108509D01*
X979259Y107469D01*
X976541Y107469D01*
G37*
%LPD*%
%LPC*%
G36*
X24041Y107469D02*
X24041Y107469D01*
X21531Y108509D01*
X19609Y110431D01*
X18569Y112941D01*
X18569Y115659D01*
X19609Y118169D01*
X21531Y120091D01*
X24041Y121131D01*
X26759Y121131D01*
X29269Y120091D01*
X31191Y118169D01*
X32231Y115659D01*
X32231Y112941D01*
X31191Y110431D01*
X29269Y108509D01*
X26759Y107469D01*
X24041Y107469D01*
G37*
%LPD*%
%LPC*%
G36*
X976541Y82069D02*
X976541Y82069D01*
X974031Y83109D01*
X972109Y85031D01*
X971069Y87541D01*
X971069Y90259D01*
X972109Y92769D01*
X974031Y94691D01*
X976541Y95731D01*
X979259Y95731D01*
X981769Y94691D01*
X983691Y92769D01*
X984731Y90259D01*
X984731Y87541D01*
X983691Y85031D01*
X981769Y83109D01*
X979259Y82069D01*
X976541Y82069D01*
G37*
%LPD*%
%LPC*%
G36*
X24041Y82069D02*
X24041Y82069D01*
X21531Y83109D01*
X19609Y85031D01*
X18569Y87541D01*
X18569Y90259D01*
X19609Y92769D01*
X21531Y94691D01*
X24041Y95731D01*
X26759Y95731D01*
X29269Y94691D01*
X31191Y92769D01*
X32231Y90259D01*
X32231Y87541D01*
X31191Y85031D01*
X29269Y83109D01*
X26759Y82069D01*
X24041Y82069D01*
G37*
%LPD*%
%LPC*%
G36*
X913041Y18569D02*
X913041Y18569D01*
X910531Y19609D01*
X908609Y21531D01*
X907569Y24041D01*
X907569Y26759D01*
X908609Y29269D01*
X910531Y31191D01*
X913041Y32231D01*
X915759Y32231D01*
X918269Y31191D01*
X920191Y29269D01*
X921231Y26759D01*
X921231Y24041D01*
X920191Y21531D01*
X918269Y19609D01*
X915759Y18569D01*
X913041Y18569D01*
G37*
%LPD*%
%LPC*%
G36*
X646341Y18569D02*
X646341Y18569D01*
X643831Y19609D01*
X641909Y21531D01*
X640869Y24041D01*
X640869Y26759D01*
X641909Y29269D01*
X643831Y31191D01*
X646341Y32231D01*
X649059Y32231D01*
X651569Y31191D01*
X653491Y29269D01*
X654531Y26759D01*
X654531Y24041D01*
X653491Y21531D01*
X651569Y19609D01*
X649059Y18569D01*
X646341Y18569D01*
G37*
%LPD*%
%LPC*%
G36*
X265341Y18569D02*
X265341Y18569D01*
X262831Y19609D01*
X260909Y21531D01*
X259869Y24041D01*
X259869Y26759D01*
X260909Y29269D01*
X262831Y31191D01*
X265341Y32231D01*
X268059Y32231D01*
X270569Y31191D01*
X272491Y29269D01*
X273531Y26759D01*
X273531Y24041D01*
X272491Y21531D01*
X270569Y19609D01*
X268059Y18569D01*
X265341Y18569D01*
G37*
%LPD*%
%LPC*%
G36*
X112941Y18569D02*
X112941Y18569D01*
X110431Y19609D01*
X108509Y21531D01*
X107469Y24041D01*
X107469Y26759D01*
X108509Y29269D01*
X110431Y31191D01*
X112941Y32231D01*
X115659Y32231D01*
X118169Y31191D01*
X120091Y29269D01*
X121131Y26759D01*
X121131Y24041D01*
X120091Y21531D01*
X118169Y19609D01*
X115659Y18569D01*
X112941Y18569D01*
G37*
%LPD*%
%LPC*%
G36*
X887641Y18569D02*
X887641Y18569D01*
X885131Y19609D01*
X883209Y21531D01*
X882169Y24041D01*
X882169Y26759D01*
X883209Y29269D01*
X885131Y31191D01*
X887641Y32231D01*
X890359Y32231D01*
X892869Y31191D01*
X894791Y29269D01*
X895831Y26759D01*
X895831Y24041D01*
X894791Y21531D01*
X892869Y19609D01*
X890359Y18569D01*
X887641Y18569D01*
G37*
%LPD*%
%LPC*%
G36*
X747941Y18569D02*
X747941Y18569D01*
X745431Y19609D01*
X743509Y21531D01*
X742469Y24041D01*
X742469Y26759D01*
X743509Y29269D01*
X745431Y31191D01*
X747941Y32231D01*
X750659Y32231D01*
X753169Y31191D01*
X755091Y29269D01*
X756131Y26759D01*
X756131Y24041D01*
X755091Y21531D01*
X753169Y19609D01*
X750659Y18569D01*
X747941Y18569D01*
G37*
%LPD*%
%LPC*%
G36*
X722541Y18569D02*
X722541Y18569D01*
X720031Y19609D01*
X718109Y21531D01*
X717069Y24041D01*
X717069Y26759D01*
X718109Y29269D01*
X720031Y31191D01*
X722541Y32231D01*
X725259Y32231D01*
X727769Y31191D01*
X729691Y29269D01*
X730731Y26759D01*
X730731Y24041D01*
X729691Y21531D01*
X727769Y19609D01*
X725259Y18569D01*
X722541Y18569D01*
G37*
%LPD*%
%LPC*%
G36*
X697141Y18569D02*
X697141Y18569D01*
X694631Y19609D01*
X692709Y21531D01*
X691669Y24041D01*
X691669Y26759D01*
X692709Y29269D01*
X694631Y31191D01*
X697141Y32231D01*
X699859Y32231D01*
X702369Y31191D01*
X704291Y29269D01*
X705331Y26759D01*
X705331Y24041D01*
X704291Y21531D01*
X702369Y19609D01*
X699859Y18569D01*
X697141Y18569D01*
G37*
%LPD*%
%LPC*%
G36*
X671741Y18569D02*
X671741Y18569D01*
X669231Y19609D01*
X667309Y21531D01*
X666269Y24041D01*
X666269Y26759D01*
X667309Y29269D01*
X669231Y31191D01*
X671741Y32231D01*
X674459Y32231D01*
X676969Y31191D01*
X678891Y29269D01*
X679931Y26759D01*
X679931Y24041D01*
X678891Y21531D01*
X676969Y19609D01*
X674459Y18569D01*
X671741Y18569D01*
G37*
%LPD*%
%LPC*%
G36*
X87541Y18569D02*
X87541Y18569D01*
X85031Y19609D01*
X83109Y21531D01*
X82069Y24041D01*
X82069Y26759D01*
X83109Y29269D01*
X85031Y31191D01*
X87541Y32231D01*
X90259Y32231D01*
X92769Y31191D01*
X94691Y29269D01*
X95731Y26759D01*
X95731Y24041D01*
X94691Y21531D01*
X92769Y19609D01*
X90259Y18569D01*
X87541Y18569D01*
G37*
%LPD*%
%LPC*%
G36*
X620941Y18569D02*
X620941Y18569D01*
X618431Y19609D01*
X616509Y21531D01*
X615469Y24041D01*
X615469Y26759D01*
X616509Y29269D01*
X618431Y31191D01*
X620941Y32231D01*
X623659Y32231D01*
X626169Y31191D01*
X628091Y29269D01*
X629131Y26759D01*
X629131Y24041D01*
X628091Y21531D01*
X626169Y19609D01*
X623659Y18569D01*
X620941Y18569D01*
G37*
%LPD*%
%LPC*%
G36*
X595541Y18569D02*
X595541Y18569D01*
X593031Y19609D01*
X591109Y21531D01*
X590069Y24041D01*
X590069Y26759D01*
X591109Y29269D01*
X593031Y31191D01*
X595541Y32231D01*
X598259Y32231D01*
X600769Y31191D01*
X602691Y29269D01*
X603731Y26759D01*
X603731Y24041D01*
X602691Y21531D01*
X600769Y19609D01*
X598259Y18569D01*
X595541Y18569D01*
G37*
%LPD*%
%LPC*%
G36*
X129882Y801143D02*
X129882Y801143D01*
X126773Y804252D01*
X126773Y808648D01*
X129882Y811757D01*
X134278Y811757D01*
X137387Y808648D01*
X137387Y804252D01*
X134278Y801143D01*
X129882Y801143D01*
G37*
%LPD*%
%LPC*%
G36*
X275932Y733833D02*
X275932Y733833D01*
X272823Y736942D01*
X272823Y741338D01*
X275932Y744447D01*
X280328Y744447D01*
X283437Y741338D01*
X283437Y736942D01*
X280328Y733833D01*
X275932Y733833D01*
G37*
%LPD*%
%LPC*%
G36*
X362292Y648743D02*
X362292Y648743D01*
X359183Y651852D01*
X359183Y656248D01*
X362292Y659357D01*
X366688Y659357D01*
X369797Y656248D01*
X369797Y651852D01*
X366688Y648743D01*
X362292Y648743D01*
G37*
%LPD*%
%LPC*%
G36*
X358482Y633503D02*
X358482Y633503D01*
X355373Y636612D01*
X355373Y641008D01*
X358482Y644117D01*
X362878Y644117D01*
X365987Y641008D01*
X365987Y636612D01*
X362878Y633503D01*
X358482Y633503D01*
G37*
%LPD*%
%LPC*%
G36*
X273552Y674303D02*
X273552Y674303D01*
X270443Y677412D01*
X270443Y681808D01*
X273552Y684917D01*
X277948Y684917D01*
X281057Y681808D01*
X281057Y677412D01*
X277948Y674303D01*
X273552Y674303D01*
G37*
%LPD*%
%LPC*%
G36*
X129882Y820193D02*
X129882Y820193D01*
X126773Y823302D01*
X126773Y827698D01*
X129882Y830807D01*
X134278Y830807D01*
X137387Y827698D01*
X137387Y823302D01*
X134278Y820193D01*
X129882Y820193D01*
G37*
%LPD*%
%LPC*%
G36*
X214972Y597943D02*
X214972Y597943D01*
X211863Y601052D01*
X211863Y605448D01*
X214972Y608557D01*
X219368Y608557D01*
X222477Y605448D01*
X222477Y601052D01*
X219368Y597943D01*
X214972Y597943D01*
G37*
%LPD*%
%LPC*%
G36*
X202272Y674143D02*
X202272Y674143D01*
X199163Y677252D01*
X199163Y681648D01*
X202272Y684757D01*
X206668Y684757D01*
X209777Y681648D01*
X209777Y677252D01*
X206668Y674143D01*
X202272Y674143D01*
G37*
%LPD*%
%LPC*%
G36*
X258152Y717323D02*
X258152Y717323D01*
X255043Y720432D01*
X255043Y724828D01*
X258152Y727937D01*
X262548Y727937D01*
X265657Y724828D01*
X265657Y720432D01*
X262548Y717323D01*
X258152Y717323D01*
G37*
%LPD*%
%LPC*%
G36*
X277202Y717323D02*
X277202Y717323D01*
X274093Y720432D01*
X274093Y724828D01*
X277202Y727937D01*
X281598Y727937D01*
X284707Y724828D01*
X284707Y720432D01*
X281598Y717323D01*
X277202Y717323D01*
G37*
%LPD*%
%LPC*%
G36*
X316572Y733833D02*
X316572Y733833D01*
X313463Y736942D01*
X313463Y741338D01*
X316572Y744447D01*
X320968Y744447D01*
X324077Y741338D01*
X324077Y736942D01*
X320968Y733833D01*
X316572Y733833D01*
G37*
%LPD*%
%LPC*%
G36*
X231482Y743993D02*
X231482Y743993D01*
X228373Y747102D01*
X228373Y751498D01*
X231482Y754607D01*
X235878Y754607D01*
X238987Y751498D01*
X238987Y747102D01*
X235878Y743993D01*
X231482Y743993D01*
G37*
%LPD*%
%LPC*%
G36*
X293781Y658834D02*
X293781Y658834D01*
X290672Y661943D01*
X290672Y666339D01*
X293781Y669448D01*
X298177Y669448D01*
X301286Y666339D01*
X301286Y661943D01*
X298177Y658834D01*
X293781Y658834D01*
G37*
%LPD*%
%LPC*%
G36*
X202272Y655093D02*
X202272Y655093D01*
X199163Y658202D01*
X199163Y662598D01*
X202272Y665707D01*
X206668Y665707D01*
X209777Y662598D01*
X209777Y658202D01*
X206668Y655093D01*
X202272Y655093D01*
G37*
%LPD*%
%LPC*%
G36*
X380072Y623343D02*
X380072Y623343D01*
X376963Y626452D01*
X376963Y630848D01*
X380072Y633957D01*
X384468Y633957D01*
X387577Y630848D01*
X387577Y626452D01*
X384468Y623343D01*
X380072Y623343D01*
G37*
%LPD*%
%LPC*%
G36*
X212432Y616993D02*
X212432Y616993D01*
X209323Y620102D01*
X209323Y624498D01*
X212432Y627607D01*
X216828Y627607D01*
X219937Y624498D01*
X219937Y620102D01*
X216828Y616993D01*
X212432Y616993D01*
G37*
%LPD*%
%LPC*%
G36*
X566673Y236473D02*
X566673Y236473D01*
X566673Y245634D01*
X567677Y245475D01*
X569292Y244950D01*
X570805Y244179D01*
X572180Y243181D01*
X573381Y241980D01*
X574379Y240605D01*
X575150Y239092D01*
X575675Y237477D01*
X575834Y236473D01*
X566673Y236473D01*
G37*
%LPD*%
%LPC*%
G36*
X592073Y160273D02*
X592073Y160273D01*
X592073Y169434D01*
X593077Y169275D01*
X594692Y168750D01*
X596205Y167979D01*
X597580Y166981D01*
X598781Y165780D01*
X599779Y164405D01*
X600550Y162892D01*
X601075Y161277D01*
X601234Y160273D01*
X592073Y160273D01*
G37*
%LPD*%
%LPC*%
G36*
X592073Y157227D02*
X592073Y157227D01*
X601234Y157227D01*
X601075Y156223D01*
X600550Y154608D01*
X599779Y153095D01*
X598781Y151720D01*
X597580Y150519D01*
X596205Y149521D01*
X594692Y148750D01*
X593077Y148225D01*
X592073Y148066D01*
X592073Y157227D01*
G37*
%LPD*%
%LPC*%
G36*
X566673Y233427D02*
X566673Y233427D01*
X575834Y233427D01*
X575675Y232423D01*
X575150Y230808D01*
X574379Y229295D01*
X573381Y227920D01*
X572180Y226719D01*
X570805Y225721D01*
X569292Y224950D01*
X567677Y224425D01*
X566673Y224266D01*
X566673Y233427D01*
G37*
%LPD*%
%LPC*%
G36*
X554466Y236473D02*
X554466Y236473D01*
X554625Y237477D01*
X555150Y239092D01*
X555921Y240605D01*
X556919Y241980D01*
X558120Y243181D01*
X559495Y244179D01*
X561008Y244950D01*
X562623Y245475D01*
X563627Y245634D01*
X563627Y236473D01*
X554466Y236473D01*
G37*
%LPD*%
%LPC*%
G36*
X579866Y160273D02*
X579866Y160273D01*
X580025Y161277D01*
X580550Y162892D01*
X581321Y164405D01*
X582319Y165780D01*
X583520Y166981D01*
X584895Y167979D01*
X586408Y168750D01*
X588023Y169275D01*
X589027Y169434D01*
X589027Y160273D01*
X579866Y160273D01*
G37*
%LPD*%
%LPC*%
G36*
X588023Y148225D02*
X588023Y148225D01*
X586408Y148750D01*
X584895Y149521D01*
X583520Y150519D01*
X582319Y151720D01*
X581321Y153095D01*
X580550Y154608D01*
X580025Y156223D01*
X579866Y157227D01*
X589027Y157227D01*
X589027Y148066D01*
X588023Y148225D01*
G37*
%LPD*%
%LPC*%
G36*
X562623Y224425D02*
X562623Y224425D01*
X561008Y224950D01*
X559495Y225721D01*
X558120Y226719D01*
X556919Y227920D01*
X555921Y229295D01*
X555150Y230808D01*
X554625Y232423D01*
X554466Y233427D01*
X563627Y233427D01*
X563627Y224266D01*
X562623Y224425D01*
G37*
%LPD*%
%LPC*%
G36*
X954023Y496823D02*
X954023Y496823D01*
X954023Y505346D01*
X954879Y505211D01*
X956400Y504716D01*
X957825Y503990D01*
X959119Y503050D01*
X960250Y501919D01*
X961190Y500625D01*
X961916Y499200D01*
X962411Y497679D01*
X962546Y496823D01*
X954023Y496823D01*
G37*
%LPD*%
%LPC*%
G36*
X954023Y493777D02*
X954023Y493777D01*
X962546Y493777D01*
X962411Y492921D01*
X961916Y491400D01*
X961190Y489975D01*
X960250Y488681D01*
X959119Y487550D01*
X957825Y486610D01*
X956400Y485884D01*
X954879Y485389D01*
X954023Y485254D01*
X954023Y493777D01*
G37*
%LPD*%
%LPC*%
G36*
X942454Y496823D02*
X942454Y496823D01*
X942589Y497679D01*
X943084Y499200D01*
X943810Y500625D01*
X944750Y501919D01*
X945881Y503050D01*
X947175Y503990D01*
X948600Y504716D01*
X950121Y505211D01*
X950977Y505346D01*
X950977Y496823D01*
X942454Y496823D01*
G37*
%LPD*%
%LPC*%
G36*
X950121Y485389D02*
X950121Y485389D01*
X948600Y485884D01*
X947175Y486610D01*
X945881Y487550D01*
X944750Y488681D01*
X943810Y489975D01*
X943084Y491400D01*
X942589Y492921D01*
X942454Y493777D01*
X950977Y493777D01*
X950977Y485254D01*
X950121Y485389D01*
G37*
%LPD*%
%LPC*%
G36*
X407923Y852423D02*
X407923Y852423D01*
X407923Y860865D01*
X408761Y860733D01*
X410270Y860242D01*
X411683Y859522D01*
X412967Y858589D01*
X414089Y857467D01*
X415022Y856183D01*
X415742Y854770D01*
X416233Y853261D01*
X416365Y852423D01*
X407923Y852423D01*
G37*
%LPD*%
%LPC*%
G36*
X407923Y763523D02*
X407923Y763523D01*
X407923Y771965D01*
X408761Y771833D01*
X410270Y771342D01*
X411683Y770622D01*
X412967Y769689D01*
X414089Y768567D01*
X415022Y767283D01*
X415742Y765870D01*
X416233Y764361D01*
X416365Y763523D01*
X407923Y763523D01*
G37*
%LPD*%
%LPC*%
G36*
X846523Y41523D02*
X846523Y41523D01*
X846523Y49965D01*
X847361Y49833D01*
X848870Y49342D01*
X850283Y48622D01*
X851567Y47689D01*
X852689Y46567D01*
X853622Y45283D01*
X854342Y43870D01*
X854833Y42361D01*
X854965Y41523D01*
X846523Y41523D01*
G37*
%LPD*%
%LPC*%
G36*
X407923Y849377D02*
X407923Y849377D01*
X416365Y849377D01*
X416233Y848539D01*
X415742Y847030D01*
X415022Y845617D01*
X414089Y844333D01*
X412967Y843211D01*
X411683Y842278D01*
X410270Y841558D01*
X408761Y841067D01*
X407923Y840935D01*
X407923Y849377D01*
G37*
%LPD*%
%LPC*%
G36*
X407923Y760477D02*
X407923Y760477D01*
X416365Y760477D01*
X416233Y759639D01*
X415742Y758130D01*
X415022Y756717D01*
X414089Y755433D01*
X412967Y754311D01*
X411683Y753378D01*
X410270Y752658D01*
X408761Y752167D01*
X407923Y752035D01*
X407923Y760477D01*
G37*
%LPD*%
%LPC*%
G36*
X396435Y852423D02*
X396435Y852423D01*
X396567Y853261D01*
X397058Y854770D01*
X397778Y856183D01*
X398711Y857467D01*
X399833Y858589D01*
X401117Y859522D01*
X402530Y860242D01*
X404039Y860733D01*
X404877Y860865D01*
X404877Y852423D01*
X396435Y852423D01*
G37*
%LPD*%
%LPC*%
G36*
X396435Y763523D02*
X396435Y763523D01*
X396567Y764361D01*
X397058Y765870D01*
X397778Y767283D01*
X398711Y768567D01*
X399833Y769689D01*
X401117Y770622D01*
X402530Y771342D01*
X404039Y771833D01*
X404877Y771965D01*
X404877Y763523D01*
X396435Y763523D01*
G37*
%LPD*%
%LPC*%
G36*
X846523Y38477D02*
X846523Y38477D01*
X854965Y38477D01*
X854833Y37639D01*
X854342Y36130D01*
X853622Y34717D01*
X852689Y33433D01*
X851567Y32311D01*
X850283Y31378D01*
X848870Y30658D01*
X847361Y30167D01*
X846523Y30035D01*
X846523Y38477D01*
G37*
%LPD*%
%LPC*%
G36*
X835035Y41523D02*
X835035Y41523D01*
X835167Y42361D01*
X835658Y43870D01*
X836378Y45283D01*
X837311Y46567D01*
X838433Y47689D01*
X839717Y48622D01*
X841130Y49342D01*
X842639Y49833D01*
X843477Y49965D01*
X843477Y41523D01*
X835035Y41523D01*
G37*
%LPD*%
%LPC*%
G36*
X404039Y752167D02*
X404039Y752167D01*
X402530Y752658D01*
X401117Y753378D01*
X399833Y754311D01*
X398711Y755433D01*
X397778Y756717D01*
X397058Y758130D01*
X396567Y759639D01*
X396435Y760477D01*
X404877Y760477D01*
X404877Y752035D01*
X404039Y752167D01*
G37*
%LPD*%
%LPC*%
G36*
X842639Y30167D02*
X842639Y30167D01*
X841130Y30658D01*
X839717Y31378D01*
X838433Y32311D01*
X837311Y33433D01*
X836378Y34717D01*
X835658Y36130D01*
X835167Y37639D01*
X835035Y38477D01*
X843477Y38477D01*
X843477Y30035D01*
X842639Y30167D01*
G37*
%LPD*%
%LPC*%
G36*
X404039Y841067D02*
X404039Y841067D01*
X402530Y841558D01*
X401117Y842278D01*
X399833Y843211D01*
X398711Y844333D01*
X397778Y845617D01*
X397058Y847030D01*
X396567Y848539D01*
X396435Y849377D01*
X404877Y849377D01*
X404877Y840935D01*
X404039Y841067D01*
G37*
%LPD*%
%LPC*%
G36*
X259023Y774423D02*
X259023Y774423D01*
X259023Y782460D01*
X259767Y782342D01*
X261216Y781871D01*
X262574Y781180D01*
X263807Y780284D01*
X264884Y779207D01*
X265780Y777974D01*
X266471Y776616D01*
X266942Y775167D01*
X267060Y774423D01*
X259023Y774423D01*
G37*
%LPD*%
%LPC*%
G36*
X247940Y774423D02*
X247940Y774423D01*
X248058Y775167D01*
X248529Y776616D01*
X249220Y777974D01*
X250116Y779207D01*
X251193Y780284D01*
X252426Y781180D01*
X253784Y781871D01*
X255233Y782342D01*
X255977Y782460D01*
X255977Y774423D01*
X247940Y774423D01*
G37*
%LPD*%
%LPC*%
G36*
X259023Y771377D02*
X259023Y771377D01*
X267060Y771377D01*
X266942Y770633D01*
X266471Y769184D01*
X265780Y767826D01*
X264884Y766593D01*
X263807Y765516D01*
X262574Y764620D01*
X261216Y763929D01*
X259767Y763458D01*
X259023Y763340D01*
X259023Y771377D01*
G37*
%LPD*%
%LPC*%
G36*
X255233Y763458D02*
X255233Y763458D01*
X253784Y763929D01*
X252426Y764620D01*
X251193Y765516D01*
X250116Y766593D01*
X249220Y767826D01*
X248529Y769184D01*
X248058Y770633D01*
X247940Y771377D01*
X255977Y771377D01*
X255977Y763340D01*
X255233Y763458D01*
G37*
%LPD*%
%LPC*%
G36*
X406399Y850899D02*
X406399Y850899D01*
X406399Y850901D01*
X406401Y850901D01*
X406401Y850899D01*
X406399Y850899D01*
G37*
%LPD*%
%LPC*%
G36*
X952499Y495299D02*
X952499Y495299D01*
X952499Y495301D01*
X952501Y495301D01*
X952501Y495299D01*
X952499Y495299D01*
G37*
%LPD*%
%LPC*%
G36*
X844999Y39999D02*
X844999Y39999D01*
X844999Y40001D01*
X845001Y40001D01*
X845001Y39999D01*
X844999Y39999D01*
G37*
%LPD*%
%LPC*%
G36*
X406399Y761999D02*
X406399Y761999D01*
X406399Y762001D01*
X406401Y762001D01*
X406401Y761999D01*
X406399Y761999D01*
G37*
%LPD*%
%LPC*%
G36*
X257499Y772899D02*
X257499Y772899D01*
X257499Y772901D01*
X257501Y772901D01*
X257501Y772899D01*
X257499Y772899D01*
G37*
%LPD*%
%LPC*%
G36*
X590549Y158749D02*
X590549Y158749D01*
X590549Y158751D01*
X590551Y158751D01*
X590551Y158749D01*
X590549Y158749D01*
G37*
%LPD*%
%LPC*%
G36*
X565149Y234949D02*
X565149Y234949D01*
X565149Y234951D01*
X565151Y234951D01*
X565151Y234949D01*
X565149Y234949D01*
G37*
%LPD*%
D10*
X431800Y762000D03*
X406400Y762000D03*
X482600Y762000D03*
X533400Y762000D03*
X431800Y850900D03*
X406400Y850900D03*
X482600Y850900D03*
X533400Y850900D03*
D11*
X330200Y820000D03*
X209800Y820000D03*
D12*
X282500Y772900D03*
X282500Y792900D03*
X257500Y772900D03*
X257500Y792900D03*
D13*
X133350Y242750D03*
X514350Y383750D03*
D14*
X730250Y704850D03*
X730250Y781050D03*
X730250Y857250D03*
X596900Y558800D03*
D10*
X845000Y40000D03*
X795000Y40000D03*
X820000Y40000D03*
D15*
X861000Y73000D03*
X779000Y73000D03*
D16*
X876300Y495300D03*
X901700Y495300D03*
X927100Y495300D03*
X952500Y495300D03*
D13*
X565150Y311150D03*
X565150Y285750D03*
X565150Y260350D03*
X590550Y311150D03*
X590550Y285750D03*
X590550Y260350D03*
X565150Y234950D03*
X590550Y234950D03*
X565150Y209550D03*
X590550Y209550D03*
X565150Y184150D03*
X565150Y158750D03*
X590550Y184150D03*
X590550Y158750D03*
D17*
X146000Y51000D03*
X194000Y101000D03*
X194000Y31000D03*
D18*
X483870Y603250D03*
X541020Y654050D03*
X681990Y342900D03*
X715010Y342900D03*
X651510Y431800D03*
X651510Y444500D03*
X750570Y488950D03*
X750570Y501650D03*
X750570Y514350D03*
X787400Y519430D03*
X768350Y519430D03*
X746760Y393700D03*
X960120Y609600D03*
X960120Y596900D03*
X806450Y768350D03*
X628650Y781050D03*
X641350Y781050D03*
X654050Y781050D03*
X786740Y539090D03*
X241300Y346710D03*
X298450Y360680D03*
X317500Y236220D03*
X241300Y438150D03*
X228600Y400050D03*
X431800Y501650D03*
X259080Y266700D03*
X628650Y673100D03*
X628650Y647700D03*
X666750Y629920D03*
X717550Y635000D03*
X646430Y552450D03*
X755650Y604520D03*
X723900Y552450D03*
X793750Y647700D03*
X692150Y749300D03*
X946150Y342900D03*
X431800Y433070D03*
X458470Y330200D03*
X781050Y768350D03*
X831850Y768350D03*
X806450Y302260D03*
X819150Y302260D03*
X857250Y358140D03*
X802640Y447040D03*
X933450Y407670D03*
X800100Y406400D03*
X463550Y292100D03*
X482600Y292100D03*
X25400Y88900D03*
X25400Y114300D03*
X25400Y139700D03*
X25400Y165100D03*
X25400Y190500D03*
X25400Y215900D03*
X25400Y241300D03*
X25400Y266700D03*
X25400Y292100D03*
X25400Y317500D03*
X25400Y342900D03*
X25400Y368300D03*
X25400Y393700D03*
X25400Y419100D03*
X25400Y444500D03*
X25400Y469900D03*
X25400Y546100D03*
X50800Y546100D03*
X76200Y546100D03*
X101600Y546100D03*
X127000Y546100D03*
X152400Y546100D03*
X88900Y25400D03*
X114300Y25400D03*
X266700Y25400D03*
X292100Y25400D03*
X317500Y25400D03*
X342900Y25400D03*
X368300Y25400D03*
X393700Y25400D03*
X419100Y25400D03*
X444500Y25400D03*
X469900Y25400D03*
X495300Y25400D03*
X520700Y25400D03*
X546100Y25400D03*
X571500Y25400D03*
X596900Y25400D03*
X622300Y25400D03*
X647700Y25400D03*
X673100Y25400D03*
X698500Y25400D03*
X723900Y25400D03*
X749300Y25400D03*
X889000Y25400D03*
X914400Y25400D03*
X977900Y88900D03*
X977900Y114300D03*
X977900Y139700D03*
X977900Y165100D03*
X977900Y190500D03*
X977900Y215900D03*
X977900Y241300D03*
X977900Y266700D03*
X977900Y736600D03*
X977900Y762000D03*
X977900Y787400D03*
X977900Y812800D03*
X977900Y711200D03*
X914400Y876300D03*
X889000Y876300D03*
X863600Y876300D03*
X838200Y876300D03*
X812800Y876300D03*
X787400Y876300D03*
X762000Y876300D03*
X942616Y324126D03*
X927100Y266700D03*
X269240Y224790D03*
X241300Y285750D03*
X207010Y491490D03*
X152400Y355600D03*
X152400Y330200D03*
X152400Y304800D03*
X152400Y279400D03*
X152400Y254000D03*
X152400Y228600D03*
X152400Y203200D03*
X165100Y190500D03*
X177800Y177800D03*
X228600Y177800D03*
X254000Y177800D03*
X279400Y177800D03*
X304800Y177800D03*
X330200Y177800D03*
X355600Y177800D03*
X381000Y177800D03*
X406400Y177800D03*
X431800Y177800D03*
X457200Y177800D03*
X469900Y190500D03*
X482600Y203200D03*
X495300Y215900D03*
X495300Y241300D03*
X495300Y266700D03*
X495300Y292100D03*
X495300Y317500D03*
X495300Y342900D03*
X495300Y368300D03*
X495300Y393700D03*
X495300Y419100D03*
X495300Y444500D03*
X495300Y469900D03*
X495300Y495300D03*
X152400Y400050D03*
X152400Y438150D03*
X152400Y463550D03*
X165100Y476250D03*
X177800Y488950D03*
X190500Y501650D03*
X215900Y501650D03*
X241300Y501650D03*
X266700Y501650D03*
X292100Y501650D03*
X317500Y501650D03*
X342900Y501650D03*
X368300Y501650D03*
X400050Y501650D03*
X278130Y476250D03*
X463550Y501650D03*
X266700Y279400D03*
X763270Y393700D03*
X863600Y381000D03*
X872490Y381000D03*
X881380Y381000D03*
X617220Y482600D03*
X617220Y501650D03*
X617220Y520700D03*
X628650Y347980D03*
X960120Y584200D03*
X755650Y563880D03*
X723900Y539750D03*
X697230Y591820D03*
X706120Y586740D03*
X715010Y591820D03*
X723900Y586740D03*
X788670Y471170D03*
X788670Y462280D03*
X806450Y342900D03*
X819150Y342900D03*
X908050Y309880D03*
X736600Y609600D03*
X217170Y603250D03*
X275750Y679610D03*
X255270Y660400D03*
X236220Y694690D03*
X260350Y739140D03*
X410210Y654050D03*
X254000Y312420D03*
X374650Y309880D03*
X139700Y139700D03*
X260350Y82550D03*
X514350Y666750D03*
D19*
X514350Y546100D01*
X138430Y373380D02*
X114300Y349250D01*
X114300Y165100D01*
X139700Y139700D01*
X158750Y120650D02*
X241300Y120650D01*
X158750Y120650D02*
X139700Y139700D01*
X241300Y120650D02*
X260350Y101600D01*
X260350Y82550D01*
X514350Y666750D02*
X552450Y704850D01*
X730250Y704850D01*
X958850Y704850D01*
X984250Y679450D01*
X984250Y323850D01*
X972820Y312420D01*
D18*
X927100Y312420D03*
D19*
X972820Y312420D01*
X514350Y546100D02*
X482600Y514350D01*
X139700Y476250D02*
X139700Y431800D01*
X177800Y514350D02*
X482600Y514350D01*
X177800Y514350D02*
X139700Y476250D01*
D18*
X431800Y419100D03*
D19*
X374650Y373380D02*
X374650Y309880D01*
X254000Y373380D02*
X138430Y373380D01*
X254000Y373380D02*
X374650Y373380D01*
X254000Y373380D02*
X254000Y312420D01*
X158750Y412750D02*
X139700Y431800D01*
X444500Y406400D02*
X444500Y374650D01*
X431800Y361950D01*
X411480Y361950D01*
X400050Y373380D02*
X374650Y373380D01*
X400050Y373380D02*
X411480Y361950D01*
X444500Y406400D02*
X438150Y412750D01*
X431800Y412750D02*
X158750Y412750D01*
X431800Y412750D02*
X438150Y412750D01*
X431800Y412750D02*
X431800Y419100D01*
D18*
X514350Y546100D03*
X541020Y615950D03*
X958850Y673100D03*
X541020Y635000D03*
X915035Y678815D03*
X82550Y114300D03*
X260350Y57150D03*
X241300Y400050D03*
X341630Y398780D03*
D19*
X165100Y533400D02*
X82550Y450850D01*
X469900Y533400D02*
X495300Y558800D01*
X469900Y533400D02*
X165100Y533400D01*
X82550Y450850D02*
X82550Y387350D01*
X82550Y114300D01*
X241300Y387350D02*
X241300Y400050D01*
X241300Y387350D02*
X341630Y387350D01*
X406400Y387350D02*
X419100Y374650D01*
X406400Y387350D02*
X341630Y387350D01*
X241300Y387350D02*
X82550Y387350D01*
X82550Y101600D02*
X107950Y76200D01*
X82550Y101600D02*
X82550Y114300D01*
X107950Y76200D02*
X127000Y76200D01*
X156199Y76200D01*
X175249Y57150D02*
X260350Y57150D01*
X175249Y57150D02*
X156199Y76200D01*
X495300Y558800D02*
X495300Y590550D01*
X495300Y685800D01*
X546100Y736600D01*
X692150Y781050D02*
X692150Y838200D01*
X711200Y857250D01*
X730250Y857250D01*
X647700Y736600D02*
X546100Y736600D01*
X647700Y736600D02*
X692150Y781050D01*
X341630Y398780D02*
X341630Y387350D01*
D18*
X419100Y374650D03*
X495300Y590550D03*
X132080Y825500D03*
X132080Y806450D03*
X214630Y622300D03*
X260350Y722630D03*
X279400Y722630D03*
X204470Y679450D03*
X204470Y660400D03*
X295979Y664141D03*
X364490Y654050D03*
X233680Y749300D03*
X278130Y739140D03*
X318770Y739140D03*
X360680Y638810D03*
X382270Y628650D03*
X800100Y416560D03*
X871220Y635000D03*
X834390Y478790D03*
X203200Y139700D03*
D20*
X190500Y152400D01*
X190500Y190500D01*
D18*
X190500Y190500D03*
X266700Y139700D03*
D20*
X234950Y139700D01*
X215900Y158750D01*
X215900Y190500D01*
D18*
X215900Y190500D03*
X843280Y609600D03*
X871220Y609600D03*
X891540Y539750D03*
X871220Y596900D03*
X824230Y358140D03*
X826770Y132080D03*
X488950Y330200D03*
D20*
X533400Y330200D01*
D18*
X533400Y330200D03*
X844550Y342900D03*
X844550Y273050D03*
X857250Y285750D03*
X842086Y354406D03*
X787400Y184150D03*
X797560Y358140D03*
X806450Y247650D03*
X806852Y358140D03*
X895350Y196850D03*
X895350Y401320D03*
X889000Y209550D03*
X886460Y406478D03*
X781050Y139700D03*
X782122Y358140D03*
X317500Y190500D03*
D20*
X317500Y139700D01*
D18*
X317500Y139700D03*
M02*
