G04 EAGLE Gerber RS-274X export*
G75*
%MOMM*%
%FSLAX34Y34*%
%LPD*%
%INSilkscreen Bottom*%
%IPPOS*%
%AMOC8*
5,1,8,0,0,1.08239X$1,22.5*%
G01*
%ADD10C,0.152400*%


D10*
X42418Y667512D02*
X26162Y672931D01*
X42418Y678349D01*
X28420Y683942D02*
X27517Y683942D01*
X28420Y683942D02*
X28420Y684845D01*
X27517Y684845D01*
X27517Y683942D01*
X34742Y683942D02*
X35645Y683942D01*
X35645Y684845D01*
X34742Y684845D01*
X34742Y683942D01*
X38806Y699678D02*
X42418Y704193D01*
X26162Y704193D01*
X26162Y699678D02*
X26162Y708709D01*
X26162Y714683D02*
X27065Y714683D01*
X27065Y715586D01*
X26162Y715586D01*
X26162Y714683D01*
X38806Y721561D02*
X42418Y726077D01*
X26162Y726077D01*
X26162Y730592D02*
X26162Y721561D01*
X26162Y736567D02*
X27065Y736567D01*
X27065Y737470D01*
X26162Y737470D01*
X26162Y736567D01*
X24356Y742785D02*
X24356Y750010D01*
X24356Y755290D02*
X24356Y762515D01*
X57150Y666750D02*
X57148Y666592D01*
X57142Y666433D01*
X57132Y666275D01*
X57118Y666118D01*
X57101Y665960D01*
X57079Y665804D01*
X57054Y665647D01*
X57024Y665492D01*
X56991Y665337D01*
X56954Y665183D01*
X56913Y665030D01*
X56868Y664878D01*
X56819Y664728D01*
X56767Y664578D01*
X56711Y664430D01*
X56651Y664283D01*
X56588Y664138D01*
X56521Y663995D01*
X56451Y663853D01*
X56377Y663713D01*
X56299Y663575D01*
X56218Y663439D01*
X56134Y663305D01*
X56047Y663173D01*
X55956Y663043D01*
X55862Y662916D01*
X55765Y662791D01*
X55664Y662668D01*
X55561Y662548D01*
X55455Y662431D01*
X55346Y662316D01*
X55234Y662204D01*
X55119Y662095D01*
X55002Y661989D01*
X54882Y661886D01*
X54759Y661785D01*
X54634Y661688D01*
X54507Y661594D01*
X54377Y661503D01*
X54245Y661416D01*
X54111Y661332D01*
X53975Y661251D01*
X53837Y661173D01*
X53697Y661099D01*
X53555Y661029D01*
X53412Y660962D01*
X53267Y660899D01*
X53120Y660839D01*
X52972Y660783D01*
X52822Y660731D01*
X52672Y660682D01*
X52520Y660637D01*
X52367Y660596D01*
X52213Y660559D01*
X52058Y660526D01*
X51903Y660496D01*
X51746Y660471D01*
X51590Y660449D01*
X51432Y660432D01*
X51275Y660418D01*
X51117Y660408D01*
X50958Y660402D01*
X50800Y660400D01*
X25400Y660400D01*
X25242Y660402D01*
X25083Y660408D01*
X24925Y660418D01*
X24768Y660432D01*
X24610Y660449D01*
X24454Y660471D01*
X24297Y660496D01*
X24142Y660526D01*
X23987Y660559D01*
X23833Y660596D01*
X23680Y660637D01*
X23528Y660682D01*
X23378Y660731D01*
X23228Y660783D01*
X23080Y660839D01*
X22933Y660899D01*
X22788Y660962D01*
X22645Y661029D01*
X22503Y661099D01*
X22363Y661173D01*
X22225Y661251D01*
X22089Y661332D01*
X21955Y661416D01*
X21823Y661503D01*
X21693Y661594D01*
X21566Y661688D01*
X21441Y661785D01*
X21318Y661886D01*
X21198Y661989D01*
X21081Y662095D01*
X20966Y662204D01*
X20854Y662316D01*
X20745Y662431D01*
X20639Y662548D01*
X20536Y662668D01*
X20435Y662791D01*
X20338Y662916D01*
X20244Y663043D01*
X20153Y663173D01*
X20066Y663305D01*
X19982Y663439D01*
X19901Y663575D01*
X19823Y663713D01*
X19749Y663853D01*
X19679Y663995D01*
X19612Y664138D01*
X19549Y664283D01*
X19489Y664430D01*
X19433Y664578D01*
X19381Y664728D01*
X19332Y664878D01*
X19287Y665030D01*
X19246Y665183D01*
X19209Y665337D01*
X19176Y665492D01*
X19146Y665647D01*
X19121Y665804D01*
X19099Y665960D01*
X19082Y666118D01*
X19068Y666275D01*
X19058Y666433D01*
X19052Y666592D01*
X19050Y666750D01*
X19050Y768350D01*
X19052Y768508D01*
X19058Y768667D01*
X19068Y768825D01*
X19082Y768982D01*
X19099Y769140D01*
X19121Y769296D01*
X19146Y769453D01*
X19176Y769608D01*
X19209Y769763D01*
X19246Y769917D01*
X19287Y770070D01*
X19332Y770222D01*
X19381Y770372D01*
X19433Y770522D01*
X19489Y770670D01*
X19549Y770817D01*
X19612Y770962D01*
X19679Y771105D01*
X19749Y771247D01*
X19823Y771387D01*
X19901Y771525D01*
X19982Y771661D01*
X20066Y771795D01*
X20153Y771927D01*
X20244Y772057D01*
X20338Y772184D01*
X20435Y772309D01*
X20536Y772432D01*
X20639Y772552D01*
X20745Y772669D01*
X20854Y772784D01*
X20966Y772896D01*
X21081Y773005D01*
X21198Y773111D01*
X21318Y773214D01*
X21441Y773315D01*
X21566Y773412D01*
X21693Y773506D01*
X21823Y773597D01*
X21955Y773684D01*
X22089Y773768D01*
X22225Y773849D01*
X22363Y773927D01*
X22503Y774001D01*
X22645Y774071D01*
X22788Y774138D01*
X22933Y774201D01*
X23080Y774261D01*
X23228Y774317D01*
X23378Y774369D01*
X23528Y774418D01*
X23680Y774463D01*
X23833Y774504D01*
X23987Y774541D01*
X24142Y774574D01*
X24297Y774604D01*
X24454Y774629D01*
X24610Y774651D01*
X24768Y774668D01*
X24925Y774682D01*
X25083Y774692D01*
X25242Y774698D01*
X25400Y774700D01*
X50800Y774700D01*
X50958Y774698D01*
X51117Y774692D01*
X51275Y774682D01*
X51432Y774668D01*
X51590Y774651D01*
X51746Y774629D01*
X51903Y774604D01*
X52058Y774574D01*
X52213Y774541D01*
X52367Y774504D01*
X52520Y774463D01*
X52672Y774418D01*
X52822Y774369D01*
X52972Y774317D01*
X53120Y774261D01*
X53267Y774201D01*
X53412Y774138D01*
X53555Y774071D01*
X53697Y774001D01*
X53837Y773927D01*
X53975Y773849D01*
X54111Y773768D01*
X54245Y773684D01*
X54377Y773597D01*
X54507Y773506D01*
X54634Y773412D01*
X54759Y773315D01*
X54882Y773214D01*
X55002Y773111D01*
X55119Y773005D01*
X55234Y772896D01*
X55346Y772784D01*
X55455Y772669D01*
X55561Y772552D01*
X55664Y772432D01*
X55765Y772309D01*
X55862Y772184D01*
X55956Y772057D01*
X56047Y771927D01*
X56134Y771795D01*
X56218Y771661D01*
X56299Y771525D01*
X56377Y771387D01*
X56451Y771247D01*
X56521Y771105D01*
X56588Y770962D01*
X56651Y770817D01*
X56711Y770670D01*
X56767Y770522D01*
X56819Y770372D01*
X56868Y770222D01*
X56913Y770070D01*
X56954Y769917D01*
X56991Y769763D01*
X57024Y769608D01*
X57054Y769453D01*
X57079Y769296D01*
X57101Y769140D01*
X57118Y768982D01*
X57132Y768825D01*
X57142Y768667D01*
X57148Y768508D01*
X57150Y768350D01*
X57150Y666750D01*
M02*
