G04 EAGLE Gerber RS-274X export*
G75*
%MOMM*%
%FSLAX34Y34*%
%LPD*%
%INSolderpaste Top*%
%IPPOS*%
%AMOC8*
5,1,8,0,0,1.08239X$1,22.5*%
G01*
%ADD10R,1.558800X0.280000*%
%ADD11R,0.280000X1.558800*%
%ADD12R,1.600000X1.000000*%
%ADD13R,1.200000X1.400000*%
%ADD14R,0.950000X1.000000*%
%ADD15R,2.790000X0.740000*%
%ADD16R,0.889000X0.609600*%
%ADD17R,1.000000X0.950000*%
%ADD18R,1.450000X1.150000*%
%ADD19R,1.270000X0.760000*%
%ADD20R,0.609600X0.889000*%
%ADD21R,1.168400X1.600200*%
%ADD22R,0.700000X0.900000*%
%ADD23R,0.700000X0.500000*%
%ADD24R,1.150000X1.450000*%
%ADD25R,0.260000X0.560000*%
%ADD26R,0.560000X0.260000*%
%ADD27R,0.787400X0.787400*%
%ADD28R,1.150000X1.800000*%
%ADD29R,1.600000X1.800000*%
%ADD30R,1.600200X1.168400*%
%ADD31R,1.100000X0.600000*%
%ADD32R,1.100000X1.100000*%
%ADD33R,1.411800X0.589500*%
%ADD34R,2.200000X0.600000*%
%ADD35R,0.600000X1.100000*%
%ADD36R,0.601900X1.968500*%
%ADD37R,0.581500X1.971600*%
%ADD38R,1.920200X3.165300*%
%ADD39R,0.890000X1.550000*%
%ADD40R,1.270000X1.270000*%
%ADD41R,0.900000X0.800000*%
%ADD42R,1.016000X0.508000*%
%ADD43R,0.800000X0.900000*%
%ADD44R,0.850000X0.300000*%
%ADD45R,0.950000X0.400000*%
%ADD46R,3.965300X1.620200*%


D10*
X783717Y446600D03*
X783717Y441600D03*
X783717Y436600D03*
X783717Y431600D03*
X783717Y426600D03*
X783717Y421600D03*
X783717Y416600D03*
X783717Y411600D03*
X783717Y406600D03*
X783717Y401600D03*
X783717Y396600D03*
X783717Y391600D03*
D11*
X798000Y377317D03*
X803000Y377317D03*
X808000Y377317D03*
X813000Y377317D03*
X818000Y377317D03*
X823000Y377317D03*
X828000Y377317D03*
X833000Y377317D03*
X838000Y377317D03*
X843000Y377317D03*
X848000Y377317D03*
X853000Y377317D03*
D10*
X867283Y391600D03*
X867283Y396600D03*
X867283Y401600D03*
X867283Y406600D03*
X867283Y411600D03*
X867283Y416600D03*
X867283Y421600D03*
X867283Y426600D03*
X867283Y431600D03*
X867283Y436600D03*
X867283Y441600D03*
X867283Y446600D03*
D11*
X853000Y460883D03*
X848000Y460883D03*
X843000Y460883D03*
X838000Y460883D03*
X833000Y460883D03*
X828000Y460883D03*
X823000Y460883D03*
X818000Y460883D03*
X813000Y460883D03*
X808000Y460883D03*
X803000Y460883D03*
X798000Y460883D03*
D12*
X666500Y380950D03*
X730500Y380950D03*
X666500Y342950D03*
X730500Y342950D03*
D13*
X713350Y427150D03*
X713350Y449150D03*
X696350Y449150D03*
X696350Y427150D03*
D14*
X681100Y444500D03*
X665100Y444500D03*
X681100Y431800D03*
X665100Y431800D03*
D15*
X934720Y596900D03*
X894080Y596900D03*
X934720Y609600D03*
X894080Y609600D03*
X934720Y622300D03*
X894080Y622300D03*
X934720Y635000D03*
X894080Y635000D03*
X934720Y647700D03*
X894080Y647700D03*
X934750Y596900D03*
X894050Y596900D03*
X934750Y609600D03*
X894050Y609600D03*
X934750Y622300D03*
X894050Y622300D03*
X934750Y635000D03*
X894050Y635000D03*
X934750Y647700D03*
X894050Y647700D03*
X934750Y571500D03*
X894050Y571500D03*
X934750Y584200D03*
X894050Y584200D03*
D16*
X628650Y375793D03*
X628650Y360807D03*
D17*
X768350Y487300D03*
X768350Y503300D03*
X819150Y331850D03*
X819150Y315850D03*
X806450Y331850D03*
X806450Y315850D03*
D14*
X763650Y406400D03*
X747650Y406400D03*
D18*
X787400Y486300D03*
X787400Y504300D03*
D17*
X869950Y369950D03*
X869950Y353950D03*
X647700Y360300D03*
X647700Y376300D03*
D19*
X660400Y514350D03*
X736600Y514350D03*
X660400Y501650D03*
X736600Y501650D03*
X660400Y488950D03*
X736600Y488950D03*
D20*
X644093Y482600D03*
X629107Y482600D03*
X644093Y501650D03*
X629107Y501650D03*
X644093Y520700D03*
X629107Y520700D03*
D21*
X922020Y539750D03*
X906780Y539750D03*
D17*
X882650Y369950D03*
X882650Y353950D03*
D20*
X940943Y673100D03*
X925957Y673100D03*
X902843Y673100D03*
X887857Y673100D03*
D22*
X228450Y603250D03*
X241450Y603250D03*
D23*
X260497Y749300D03*
X247503Y749300D03*
X304653Y749300D03*
X317647Y749300D03*
X292247Y749300D03*
X279253Y749300D03*
D14*
X236600Y679450D03*
X220600Y679450D03*
D24*
X237600Y660400D03*
X219600Y660400D03*
D22*
X228450Y641350D03*
X241450Y641350D03*
X241450Y622300D03*
X228450Y622300D03*
D20*
X513207Y615950D03*
X528193Y615950D03*
X513207Y635000D03*
X528193Y635000D03*
D17*
X279400Y690500D03*
X279400Y706500D03*
D18*
X260350Y689500D03*
X260350Y707500D03*
D25*
X300750Y651650D03*
X295750Y651650D03*
X290750Y651650D03*
X285750Y651650D03*
X280750Y651650D03*
X275750Y651650D03*
X270750Y651650D03*
D26*
X262750Y643650D03*
X262750Y638650D03*
X262750Y633650D03*
X262750Y628650D03*
X262750Y623650D03*
X262750Y618650D03*
X262750Y613650D03*
D25*
X270750Y605650D03*
X275750Y605650D03*
X280750Y605650D03*
X285750Y605650D03*
X290750Y605650D03*
X295750Y605650D03*
X300750Y605650D03*
D26*
X308750Y613650D03*
X308750Y618650D03*
X308750Y623650D03*
X308750Y628650D03*
X308750Y633650D03*
X308750Y638650D03*
X308750Y643650D03*
D25*
X298250Y638650D03*
X298250Y628650D03*
X298250Y618650D03*
X293250Y638650D03*
X293250Y628650D03*
X293250Y618650D03*
X288250Y638650D03*
X288250Y628650D03*
X288250Y618650D03*
X283250Y638650D03*
X283250Y628650D03*
X283250Y618650D03*
X278250Y638650D03*
X278250Y628650D03*
X278250Y618650D03*
X273250Y638650D03*
X273250Y628650D03*
X273250Y618650D03*
D27*
X781050Y735457D03*
X781050Y750443D03*
X831850Y735457D03*
X831850Y750443D03*
D28*
X675400Y647700D03*
X645400Y647700D03*
D29*
X674400Y673100D03*
X646400Y673100D03*
D30*
X698500Y572770D03*
X698500Y557530D03*
D31*
X952200Y301600D03*
X952200Y292100D03*
X952200Y282600D03*
X978200Y282600D03*
X978200Y301600D03*
D14*
X973200Y342900D03*
X957200Y342900D03*
D17*
X717550Y607950D03*
X717550Y623950D03*
D16*
X698500Y608457D03*
X698500Y623443D03*
D32*
X908050Y322550D03*
X908050Y350550D03*
D21*
X963930Y368300D03*
X979170Y368300D03*
D22*
X158900Y825500D03*
X145900Y825500D03*
D14*
X160400Y806450D03*
X144400Y806450D03*
D33*
X799872Y549300D03*
X799872Y558800D03*
X799872Y568300D03*
X774928Y568300D03*
X774928Y558800D03*
X774928Y549300D03*
D14*
X750950Y552450D03*
X734950Y552450D03*
D20*
X750443Y539750D03*
X735457Y539750D03*
D17*
X755650Y576200D03*
X755650Y592200D03*
X692150Y722250D03*
X692150Y738250D03*
X692150Y823850D03*
X692150Y839850D03*
D34*
X431200Y641350D03*
X483200Y641350D03*
X431200Y654050D03*
X431200Y628650D03*
X431200Y615950D03*
X483200Y654050D03*
X483200Y628650D03*
X483200Y615950D03*
D14*
X395350Y654050D03*
X379350Y654050D03*
X512700Y654050D03*
X528700Y654050D03*
D35*
X676250Y616250D03*
X666750Y616250D03*
X657250Y616250D03*
X657250Y590250D03*
X676250Y590250D03*
D14*
X674750Y552450D03*
X658750Y552450D03*
D36*
X203200Y330866D03*
X215900Y330866D03*
X228600Y330866D03*
X241300Y330866D03*
X254000Y330866D03*
X266700Y330866D03*
X279400Y330866D03*
X279400Y380334D03*
X266700Y380334D03*
X254000Y380334D03*
X241300Y380334D03*
X228600Y380334D03*
X215900Y380334D03*
X203200Y380334D03*
D20*
X248793Y266700D03*
X233807Y266700D03*
X195707Y273050D03*
X210693Y273050D03*
D16*
X190500Y242443D03*
X190500Y227457D03*
D37*
X355600Y349933D03*
X368300Y349933D03*
X381000Y349933D03*
X393700Y349933D03*
X406400Y349933D03*
X419100Y349933D03*
X431800Y349933D03*
X444500Y349933D03*
X444500Y399367D03*
X431800Y399367D03*
X419100Y399367D03*
X406400Y399367D03*
X393700Y399367D03*
X381000Y399367D03*
X368300Y399367D03*
X355600Y399367D03*
D20*
X217043Y406400D03*
X202057Y406400D03*
D17*
X241300Y427100D03*
X241300Y411100D03*
X241300Y312800D03*
X241300Y296800D03*
D14*
X446150Y330200D03*
X430150Y330200D03*
D17*
X419100Y417450D03*
X419100Y433450D03*
D27*
X806450Y735457D03*
X806450Y750443D03*
D16*
X215900Y242443D03*
X215900Y227457D03*
D20*
X788543Y590550D03*
X773557Y590550D03*
D38*
X641350Y704000D03*
X641350Y756500D03*
X641350Y805600D03*
X641350Y858100D03*
D17*
X920750Y392050D03*
X920750Y408050D03*
X908050Y392050D03*
X908050Y408050D03*
D30*
X939800Y373380D03*
X939800Y388620D03*
D20*
X310007Y349250D03*
X324993Y349250D03*
X324993Y368300D03*
X310007Y368300D03*
D16*
X463550Y227457D03*
X463550Y242443D03*
D39*
X410100Y254250D03*
X438000Y254250D03*
D40*
X424050Y229850D03*
D16*
X374650Y284607D03*
X374650Y299593D03*
X285750Y305943D03*
X285750Y290957D03*
D41*
X307217Y330848D03*
X307217Y312052D03*
X327283Y321450D03*
D16*
X266700Y305943D03*
X266700Y290957D03*
D42*
X234950Y34925D03*
X234950Y25400D03*
X234950Y15875D03*
D14*
X201550Y425450D03*
X217550Y425450D03*
D43*
X339852Y288417D03*
X358648Y288417D03*
X349250Y308483D03*
D32*
X368300Y240000D03*
X368300Y268000D03*
X342900Y240000D03*
X342900Y268000D03*
D16*
X317500Y246507D03*
X317500Y261493D03*
X463550Y265557D03*
X463550Y280543D03*
D32*
X248950Y57150D03*
X220950Y57150D03*
X93950Y114300D03*
X121950Y114300D03*
X220950Y82550D03*
X248950Y82550D03*
X93950Y139700D03*
X121950Y139700D03*
X248950Y133350D03*
X220950Y133350D03*
X220950Y107950D03*
X248950Y107950D03*
X463550Y455900D03*
X463550Y483900D03*
X431800Y483900D03*
X431800Y455900D03*
D44*
X800100Y638650D03*
X800100Y633650D03*
X800100Y628650D03*
X800100Y623650D03*
D45*
X771350Y648650D03*
X771350Y608650D03*
D44*
X800100Y618650D03*
D39*
X206900Y476500D03*
X234800Y476500D03*
D40*
X220850Y452100D03*
D20*
X252857Y476250D03*
X267843Y476250D03*
D16*
X266700Y413893D03*
X266700Y398907D03*
X285750Y413893D03*
X285750Y398907D03*
D42*
X736600Y638175D03*
X736600Y628650D03*
X736600Y619125D03*
D16*
X482600Y265557D03*
X482600Y280543D03*
D46*
X330700Y469900D03*
X393200Y469900D03*
D16*
X781050Y710057D03*
X781050Y725043D03*
X831850Y710057D03*
X831850Y725043D03*
X806450Y710057D03*
X806450Y725043D03*
D24*
X675750Y571500D03*
X657750Y571500D03*
X974200Y323850D03*
X956200Y323850D03*
X410100Y876300D03*
X428100Y876300D03*
X410100Y685800D03*
X428100Y685800D03*
D18*
X927100Y301100D03*
X927100Y283100D03*
D28*
X211850Y298450D03*
X181850Y298450D03*
X239000Y241300D03*
X269000Y241300D03*
M02*
