G04 EAGLE Gerber RS-274X export*
G75*
%MOMM*%
%FSLAX34Y34*%
%LPD*%
%INSoldermask Bottom*%
%IPPOS*%
%AMOC8*
5,1,8,0,0,1.08239X$1,22.5*%
G01*
%ADD10C,4.303200*%
%ADD11C,1.122000*%
%ADD12C,1.223200*%
%ADD13C,1.711200*%
%ADD14C,3.519200*%
%ADD15C,1.631200*%
%ADD16C,1.853200*%
%ADD17C,1.511200*%
%ADD18C,2.387600*%
%ADD19C,2.082800*%
%ADD20P,2.005885X8X292.500000*%
%ADD21C,1.853200*%
%ADD22C,1.403200*%
%ADD23C,2.003200*%


D10*
X60000Y840000D03*
X940000Y840000D03*
X940000Y60000D03*
X50000Y50000D03*
X50000Y500000D03*
D11*
X914400Y641350D03*
X914400Y577850D03*
D12*
X914400Y641350D03*
X914400Y577850D03*
D13*
X431800Y762000D03*
X406400Y762000D03*
X482600Y762000D03*
X533400Y762000D03*
X431800Y850900D03*
X406400Y850900D03*
X482600Y850900D03*
X533400Y850900D03*
D14*
X330200Y820000D03*
X209800Y820000D03*
D15*
X282500Y772900D03*
X282500Y792900D03*
X257500Y772900D03*
X257500Y792900D03*
D16*
X133350Y251000D02*
X133350Y234500D01*
X514350Y375500D02*
X514350Y392000D01*
D17*
X730250Y704850D03*
X730250Y781050D03*
X730250Y857250D03*
X596900Y558800D03*
D13*
X845000Y40000D03*
X795000Y40000D03*
X820000Y40000D03*
D18*
X861000Y62078D02*
X861000Y83922D01*
X779000Y83922D02*
X779000Y62078D01*
D19*
X876300Y495300D03*
X901700Y495300D03*
X927100Y495300D03*
X952500Y495300D03*
D20*
X565150Y311150D03*
D21*
X565150Y285750D03*
X565150Y260350D03*
X590550Y311150D03*
X590550Y285750D03*
X590550Y260350D03*
X565150Y234950D03*
X590550Y234950D03*
X565150Y209550D03*
X590550Y209550D03*
D20*
X565150Y184150D03*
D21*
X565150Y158750D03*
X590550Y184150D03*
X590550Y158750D03*
D22*
X170000Y31000D03*
X170000Y91000D03*
D23*
X146000Y51000D03*
X194000Y101000D03*
X194000Y31000D03*
M02*
