M48
;GenerationSoftware,Autodesk,EAGLE,9.6.2*%
;CreationDate,2025-01-22T12:42:21Z*%
FMAT,2
ICI,OFF
METRIC,TZ,000.000
T11C0.350
T10C0.600
T9C0.800
T8C0.920
T7C1.000
T6C1.016
T5C1.020
T4C1.100
T3C1.200
T2C2.300
T1C4.100
%
G90
M71
T1
X6000Y84000
X94000Y84000
X94000Y6000
X5000Y5000
X5000Y50000
T2
X20980Y82000
X33020Y82000
T3
X19400Y3100
X19400Y10100
X14600Y5100
X17000Y3100
X17000Y9100
T4
X59055Y15875
X59055Y31115
X56515Y31115
X13335Y24275
X51435Y38375
X59055Y20955
X56515Y28575
X56515Y26035
X59055Y28575
X59055Y26035
X56515Y23495
X59055Y23495
X56515Y20955
X56515Y18415
X56515Y15875
X59055Y18415
T5
X91440Y64135
X91440Y57785
T6
X90170Y49530
X92710Y49530
X95250Y49530
X87630Y49530
T7
X53340Y76200
X43180Y85090
X40640Y85090
X53340Y85090
X48260Y85090
X84500Y4000
X79500Y4000
X82000Y4000
X43180Y76200
X40640Y76200
X48260Y76200
T8
X25750Y79290
X25750Y77290
X28250Y79290
X28250Y77290
T9
X73025Y78105
X59690Y55880
X73025Y85725
X73025Y70485
T10
X86100Y7300
X77900Y7300
T11
X2540Y26670
X2540Y29210
X2540Y31750
X2540Y34290
X2540Y36830
X2540Y39370
X2540Y41910
X2540Y44450
X2540Y46990
X2540Y54610
X5080Y54610
X7620Y54610
X10160Y54610
X12700Y54610
X15240Y54610
X8890Y2540
X11430Y2540
X26670Y2540
X29210Y2540
X31750Y2540
X34290Y2540
X36830Y2540
X39370Y2540
X41910Y2540
X44450Y2540
X46990Y2540
X49530Y2540
X52070Y2540
X54610Y2540
X57150Y2540
X59690Y2540
X62230Y2540
X64770Y2540
X67310Y2540
X69850Y2540
X72390Y2540
X74930Y2540
X88900Y2540
X91440Y2540
X97790Y8890
X97790Y11430
X97790Y13970
X97790Y16510
X97790Y19050
X97790Y21590
X97790Y24130
X97790Y26670
X97790Y73660
X97790Y76200
X97790Y78740
X97790Y81280
X97790Y71120
X91440Y87630
X88900Y87630
X86360Y87630
X83820Y87630
X81280Y87630
X78740Y87630
X76200Y87630
X94262Y32413
X92710Y26670
X26924Y22479
X24130Y28575
X20701Y49149
X15240Y35560
X15240Y33020
X15240Y30480
X15240Y27940
X15240Y25400
X15240Y22860
X15240Y20320
X16510Y19050
X17780Y17780
X22860Y17780
X25400Y17780
X27940Y17780
X30480Y17780
X33020Y17780
X35560Y17780
X38100Y17780
X40640Y17780
X43180Y17780
X45720Y17780
X46990Y19050
X48260Y20320
X49530Y21590
X49530Y24130
X49530Y26670
X49530Y29210
X49530Y31750
X49530Y34290
X49530Y36830
X49530Y39370
X49530Y41910
X49530Y44450
X49530Y46990
X49530Y49530
X15240Y40005
X15240Y43815
X15240Y46355
X16510Y47625
X17780Y48895
X83185Y76835
X21590Y50165
X24130Y50165
X26670Y50165
X29210Y50165
X31750Y50165
X34290Y50165
X36830Y50165
X40005Y50165
X27813Y47625
X46355Y50165
X26670Y27940
X76327Y39370
X86360Y38100
X87249Y38100
X88138Y38100
X61722Y48260
X61722Y50165
X61722Y52070
X62865Y34798
X96012Y58420
X75565Y56388
X72390Y53975
X69723Y59182
X70612Y58674
X71501Y59182
X72390Y58674
X78867Y47117
X78867Y46228
X80645Y34290
X81915Y34290
X90805Y30988
X73660Y60960
X21717Y60325
X27575Y67961
X25527Y66040
X23622Y69469
X26035Y73914
X41021Y65405
X25400Y31242
X37465Y30988
X13970Y13970
X26035Y8255
X51435Y66675
X92710Y31242
X43180Y41910
X51435Y54610
X54102Y61595
X95885Y67310
X54102Y63500
X91503Y67882
X8255Y11430
X26035Y5715
X24130Y40005
X34163Y39878
X41910Y37465
X49530Y59055
X13208Y82550
X13208Y80645
X21463Y62230
X26035Y72263
X27940Y72263
X20447Y67945
X20447Y66040
X29598Y66414
X36449Y65405
X23368Y74930
X27813Y73914
X31877Y73914
X36068Y63881
X38227Y62865
X80010Y41656
X87122Y63500
X83439Y47879
X20320Y13970
X19050Y19050
X26670Y13970
X21590Y19050
X48387Y60325
X87122Y60960
X89154Y53975
X87122Y59690
X82423Y35814
X82677Y13208
X48895Y33020
X53340Y33020
X84455Y34290
X84455Y27305
X85725Y28575
X84209Y35441
X78740Y18415
X79756Y35814
X80645Y24765
X80685Y35814
X89535Y19685
X89535Y40132
X88900Y20955
X88646Y40648
X78105Y13970
X78212Y35814
X31750Y19050
X31750Y13970
X54102Y65405
X68199Y34290
X71501Y34290
X65151Y43180
X65151Y44450
X75057Y48895
X75057Y50165
X75057Y51435
X78740Y51943
X76835Y51943
X74676Y39370
X96012Y60960
X96012Y59690
X80645Y76835
X62865Y78105
X19050Y50165
X64135Y78105
X65405Y78105
X78674Y53909
X24130Y34671
X29845Y36068
X31750Y23622
X24130Y43815
X22860Y40005
X43180Y50165
X25908Y26670
X62865Y67310
X62865Y64770
X66675Y62992
X71755Y63500
X64643Y55245
X75565Y60452
X72390Y55245
X79375Y64770
X69215Y74930
X94615Y34290
X43180Y43307
X45847Y33020
X78105Y76835
X80645Y30226
X81915Y30226
X85725Y35814
X80264Y44704
X93345Y40767
X80010Y40640
X46355Y29210
X48260Y29210
X2540Y8890
X2540Y11430
X2540Y13970
X2540Y16510
X2540Y19050
X2540Y21590
X2540Y24130
X84328Y60960
M30